%TF.GenerationSoftware,KiCad,Pcbnew,8.0.7*%
%TF.CreationDate,2024-12-25T21:28:18-05:00*%
%TF.ProjectId,mx,6d782e6b-6963-4616-945f-706362585858,v1.0.0*%
%TF.SameCoordinates,Original*%
%TF.FileFunction,Legend,Top*%
%TF.FilePolarity,Positive*%
%FSLAX46Y46*%
G04 Gerber Fmt 4.6, Leading zero omitted, Abs format (unit mm)*
G04 Created by KiCad (PCBNEW 8.0.7) date 2024-12-25 21:28:18*
%MOMM*%
%LPD*%
G01*
G04 APERTURE LIST*
%ADD10C,0.150000*%
%ADD11C,0.000000*%
%ADD12C,0.120000*%
G04 APERTURE END LIST*
D10*
X206904273Y-162179189D02*
X207975702Y-162179189D01*
X207975702Y-162179189D02*
X208189987Y-162250618D01*
X208189987Y-162250618D02*
X208332845Y-162393475D01*
X208332845Y-162393475D02*
X208404273Y-162607761D01*
X208404273Y-162607761D02*
X208404273Y-162750618D01*
X208404273Y-160750618D02*
X208404273Y-161464904D01*
X208404273Y-161464904D02*
X206904273Y-161464904D01*
X208261416Y-159393475D02*
X208332845Y-159464903D01*
X208332845Y-159464903D02*
X208404273Y-159679189D01*
X208404273Y-159679189D02*
X208404273Y-159822046D01*
X208404273Y-159822046D02*
X208332845Y-160036332D01*
X208332845Y-160036332D02*
X208189987Y-160179189D01*
X208189987Y-160179189D02*
X208047130Y-160250618D01*
X208047130Y-160250618D02*
X207761416Y-160322046D01*
X207761416Y-160322046D02*
X207547130Y-160322046D01*
X207547130Y-160322046D02*
X207261416Y-160250618D01*
X207261416Y-160250618D02*
X207118559Y-160179189D01*
X207118559Y-160179189D02*
X206975702Y-160036332D01*
X206975702Y-160036332D02*
X206904273Y-159822046D01*
X206904273Y-159822046D02*
X206904273Y-159679189D01*
X206904273Y-159679189D02*
X206975702Y-159464903D01*
X206975702Y-159464903D02*
X207047130Y-159393475D01*
X206904273Y-158322046D02*
X207975702Y-158322046D01*
X207975702Y-158322046D02*
X208189987Y-158393475D01*
X208189987Y-158393475D02*
X208332845Y-158536332D01*
X208332845Y-158536332D02*
X208404273Y-158750618D01*
X208404273Y-158750618D02*
X208404273Y-158893475D01*
X208404273Y-156893475D02*
X208404273Y-157607761D01*
X208404273Y-157607761D02*
X206904273Y-157607761D01*
X208261416Y-155536332D02*
X208332845Y-155607760D01*
X208332845Y-155607760D02*
X208404273Y-155822046D01*
X208404273Y-155822046D02*
X208404273Y-155964903D01*
X208404273Y-155964903D02*
X208332845Y-156179189D01*
X208332845Y-156179189D02*
X208189987Y-156322046D01*
X208189987Y-156322046D02*
X208047130Y-156393475D01*
X208047130Y-156393475D02*
X207761416Y-156464903D01*
X207761416Y-156464903D02*
X207547130Y-156464903D01*
X207547130Y-156464903D02*
X207261416Y-156393475D01*
X207261416Y-156393475D02*
X207118559Y-156322046D01*
X207118559Y-156322046D02*
X206975702Y-156179189D01*
X206975702Y-156179189D02*
X206904273Y-155964903D01*
X206904273Y-155964903D02*
X206904273Y-155822046D01*
X206904273Y-155822046D02*
X206975702Y-155607760D01*
X206975702Y-155607760D02*
X207047130Y-155536332D01*
X206904273Y-154464903D02*
X207975702Y-154464903D01*
X207975702Y-154464903D02*
X208189987Y-154536332D01*
X208189987Y-154536332D02*
X208332845Y-154679189D01*
X208332845Y-154679189D02*
X208404273Y-154893475D01*
X208404273Y-154893475D02*
X208404273Y-155036332D01*
X208404273Y-153036332D02*
X208404273Y-153750618D01*
X208404273Y-153750618D02*
X206904273Y-153750618D01*
X208261416Y-151679189D02*
X208332845Y-151750617D01*
X208332845Y-151750617D02*
X208404273Y-151964903D01*
X208404273Y-151964903D02*
X208404273Y-152107760D01*
X208404273Y-152107760D02*
X208332845Y-152322046D01*
X208332845Y-152322046D02*
X208189987Y-152464903D01*
X208189987Y-152464903D02*
X208047130Y-152536332D01*
X208047130Y-152536332D02*
X207761416Y-152607760D01*
X207761416Y-152607760D02*
X207547130Y-152607760D01*
X207547130Y-152607760D02*
X207261416Y-152536332D01*
X207261416Y-152536332D02*
X207118559Y-152464903D01*
X207118559Y-152464903D02*
X206975702Y-152322046D01*
X206975702Y-152322046D02*
X206904273Y-152107760D01*
X206904273Y-152107760D02*
X206904273Y-151964903D01*
X206904273Y-151964903D02*
X206975702Y-151750617D01*
X206975702Y-151750617D02*
X207047130Y-151679189D01*
X206904273Y-150607760D02*
X207975702Y-150607760D01*
X207975702Y-150607760D02*
X208189987Y-150679189D01*
X208189987Y-150679189D02*
X208332845Y-150822046D01*
X208332845Y-150822046D02*
X208404273Y-151036332D01*
X208404273Y-151036332D02*
X208404273Y-151179189D01*
X208404273Y-149179189D02*
X208404273Y-149893475D01*
X208404273Y-149893475D02*
X206904273Y-149893475D01*
X208261416Y-147822046D02*
X208332845Y-147893474D01*
X208332845Y-147893474D02*
X208404273Y-148107760D01*
X208404273Y-148107760D02*
X208404273Y-148250617D01*
X208404273Y-148250617D02*
X208332845Y-148464903D01*
X208332845Y-148464903D02*
X208189987Y-148607760D01*
X208189987Y-148607760D02*
X208047130Y-148679189D01*
X208047130Y-148679189D02*
X207761416Y-148750617D01*
X207761416Y-148750617D02*
X207547130Y-148750617D01*
X207547130Y-148750617D02*
X207261416Y-148679189D01*
X207261416Y-148679189D02*
X207118559Y-148607760D01*
X207118559Y-148607760D02*
X206975702Y-148464903D01*
X206975702Y-148464903D02*
X206904273Y-148250617D01*
X206904273Y-148250617D02*
X206904273Y-148107760D01*
X206904273Y-148107760D02*
X206975702Y-147893474D01*
X206975702Y-147893474D02*
X207047130Y-147822046D01*
X198384806Y-203681333D02*
X199527663Y-203681333D01*
X198956234Y-204681333D02*
X198956234Y-203681333D01*
X200194330Y-204681333D02*
X200194330Y-203681333D01*
X200194330Y-204157523D02*
X201337187Y-204157523D01*
X201337187Y-204681333D02*
X201337187Y-203681333D01*
X202289568Y-204157523D02*
X202956235Y-204157523D01*
X203241949Y-204681333D02*
X202289568Y-204681333D01*
X202289568Y-204681333D02*
X202289568Y-203681333D01*
X202289568Y-203681333D02*
X203241949Y-203681333D01*
X205622902Y-204681333D02*
X205622902Y-203681333D01*
X205622902Y-203681333D02*
X206289569Y-204395618D01*
X206289569Y-204395618D02*
X206956235Y-203681333D01*
X206956235Y-203681333D02*
X206956235Y-204681333D01*
X207813378Y-204395618D02*
X208765759Y-204395618D01*
X207622902Y-204681333D02*
X208289568Y-203681333D01*
X208289568Y-203681333D02*
X208956235Y-204681333D01*
X209622902Y-204681333D02*
X209622902Y-203681333D01*
X209622902Y-203681333D02*
X210765759Y-204681333D01*
X210765759Y-204681333D02*
X210765759Y-203681333D01*
X211718140Y-204681333D02*
X211718140Y-203681333D01*
X212860997Y-204681333D02*
X212003854Y-204109904D01*
X212860997Y-203681333D02*
X211718140Y-204252761D01*
X213718140Y-204681333D02*
X213718140Y-203681333D01*
X214670521Y-204681333D02*
X214670521Y-203681333D01*
X214670521Y-203681333D02*
X215813378Y-204681333D01*
X215813378Y-204681333D02*
X215813378Y-203681333D01*
X216765759Y-204681333D02*
X216765759Y-203681333D01*
X207170520Y-175800437D02*
X206837187Y-175324246D01*
X206599092Y-175800437D02*
X206599092Y-174800437D01*
X206599092Y-174800437D02*
X206980044Y-174800437D01*
X206980044Y-174800437D02*
X207075282Y-174848056D01*
X207075282Y-174848056D02*
X207122901Y-174895675D01*
X207122901Y-174895675D02*
X207170520Y-174990913D01*
X207170520Y-174990913D02*
X207170520Y-175133770D01*
X207170520Y-175133770D02*
X207122901Y-175229008D01*
X207122901Y-175229008D02*
X207075282Y-175276627D01*
X207075282Y-175276627D02*
X206980044Y-175324246D01*
X206980044Y-175324246D02*
X206599092Y-175324246D01*
X207551473Y-175752818D02*
X207694330Y-175800437D01*
X207694330Y-175800437D02*
X207932425Y-175800437D01*
X207932425Y-175800437D02*
X208027663Y-175752818D01*
X208027663Y-175752818D02*
X208075282Y-175705198D01*
X208075282Y-175705198D02*
X208122901Y-175609960D01*
X208122901Y-175609960D02*
X208122901Y-175514722D01*
X208122901Y-175514722D02*
X208075282Y-175419484D01*
X208075282Y-175419484D02*
X208027663Y-175371865D01*
X208027663Y-175371865D02*
X207932425Y-175324246D01*
X207932425Y-175324246D02*
X207741949Y-175276627D01*
X207741949Y-175276627D02*
X207646711Y-175229008D01*
X207646711Y-175229008D02*
X207599092Y-175181389D01*
X207599092Y-175181389D02*
X207551473Y-175086151D01*
X207551473Y-175086151D02*
X207551473Y-174990913D01*
X207551473Y-174990913D02*
X207599092Y-174895675D01*
X207599092Y-174895675D02*
X207646711Y-174848056D01*
X207646711Y-174848056D02*
X207741949Y-174800437D01*
X207741949Y-174800437D02*
X207980044Y-174800437D01*
X207980044Y-174800437D02*
X208122901Y-174848056D01*
X208408616Y-174800437D02*
X208980044Y-174800437D01*
X208694330Y-175800437D02*
X208694330Y-174800437D01*
X212428983Y-144593053D02*
X212333745Y-144545434D01*
X212333745Y-144545434D02*
X212190888Y-144545434D01*
X212190888Y-144545434D02*
X212048031Y-144593053D01*
X212048031Y-144593053D02*
X211952793Y-144688291D01*
X211952793Y-144688291D02*
X211905174Y-144783529D01*
X211905174Y-144783529D02*
X211857555Y-144974005D01*
X211857555Y-144974005D02*
X211857555Y-145116862D01*
X211857555Y-145116862D02*
X211905174Y-145307338D01*
X211905174Y-145307338D02*
X211952793Y-145402576D01*
X211952793Y-145402576D02*
X212048031Y-145497815D01*
X212048031Y-145497815D02*
X212190888Y-145545434D01*
X212190888Y-145545434D02*
X212286126Y-145545434D01*
X212286126Y-145545434D02*
X212428983Y-145497815D01*
X212428983Y-145497815D02*
X212476602Y-145450195D01*
X212476602Y-145450195D02*
X212476602Y-145116862D01*
X212476602Y-145116862D02*
X212286126Y-145116862D01*
X213428983Y-145545434D02*
X212857555Y-145545434D01*
X213143269Y-145545434D02*
X213143269Y-144545434D01*
X213143269Y-144545434D02*
X213048031Y-144688291D01*
X213048031Y-144688291D02*
X212952793Y-144783529D01*
X212952793Y-144783529D02*
X212857555Y-144831148D01*
X202578733Y-154753056D02*
X202483495Y-154705437D01*
X202483495Y-154705437D02*
X202340638Y-154705437D01*
X202340638Y-154705437D02*
X202197781Y-154753056D01*
X202197781Y-154753056D02*
X202102543Y-154848294D01*
X202102543Y-154848294D02*
X202054924Y-154943532D01*
X202054924Y-154943532D02*
X202007305Y-155134008D01*
X202007305Y-155134008D02*
X202007305Y-155276865D01*
X202007305Y-155276865D02*
X202054924Y-155467341D01*
X202054924Y-155467341D02*
X202102543Y-155562579D01*
X202102543Y-155562579D02*
X202197781Y-155657818D01*
X202197781Y-155657818D02*
X202340638Y-155705437D01*
X202340638Y-155705437D02*
X202435876Y-155705437D01*
X202435876Y-155705437D02*
X202578733Y-155657818D01*
X202578733Y-155657818D02*
X202626352Y-155610198D01*
X202626352Y-155610198D02*
X202626352Y-155276865D01*
X202626352Y-155276865D02*
X202435876Y-155276865D01*
X203007305Y-154800675D02*
X203054924Y-154753056D01*
X203054924Y-154753056D02*
X203150162Y-154705437D01*
X203150162Y-154705437D02*
X203388257Y-154705437D01*
X203388257Y-154705437D02*
X203483495Y-154753056D01*
X203483495Y-154753056D02*
X203531114Y-154800675D01*
X203531114Y-154800675D02*
X203578733Y-154895913D01*
X203578733Y-154895913D02*
X203578733Y-154991151D01*
X203578733Y-154991151D02*
X203531114Y-155134008D01*
X203531114Y-155134008D02*
X202959686Y-155705437D01*
X202959686Y-155705437D02*
X203578733Y-155705437D01*
X204150162Y-155134008D02*
X204054924Y-155086389D01*
X204054924Y-155086389D02*
X204007305Y-155038770D01*
X204007305Y-155038770D02*
X203959686Y-154943532D01*
X203959686Y-154943532D02*
X203959686Y-154895913D01*
X203959686Y-154895913D02*
X204007305Y-154800675D01*
X204007305Y-154800675D02*
X204054924Y-154753056D01*
X204054924Y-154753056D02*
X204150162Y-154705437D01*
X204150162Y-154705437D02*
X204340638Y-154705437D01*
X204340638Y-154705437D02*
X204435876Y-154753056D01*
X204435876Y-154753056D02*
X204483495Y-154800675D01*
X204483495Y-154800675D02*
X204531114Y-154895913D01*
X204531114Y-154895913D02*
X204531114Y-154943532D01*
X204531114Y-154943532D02*
X204483495Y-155038770D01*
X204483495Y-155038770D02*
X204435876Y-155086389D01*
X204435876Y-155086389D02*
X204340638Y-155134008D01*
X204340638Y-155134008D02*
X204150162Y-155134008D01*
X204150162Y-155134008D02*
X204054924Y-155181627D01*
X204054924Y-155181627D02*
X204007305Y-155229246D01*
X204007305Y-155229246D02*
X203959686Y-155324484D01*
X203959686Y-155324484D02*
X203959686Y-155514960D01*
X203959686Y-155514960D02*
X204007305Y-155610198D01*
X204007305Y-155610198D02*
X204054924Y-155657818D01*
X204054924Y-155657818D02*
X204150162Y-155705437D01*
X204150162Y-155705437D02*
X204340638Y-155705437D01*
X204340638Y-155705437D02*
X204435876Y-155657818D01*
X204435876Y-155657818D02*
X204483495Y-155610198D01*
X204483495Y-155610198D02*
X204531114Y-155514960D01*
X204531114Y-155514960D02*
X204531114Y-155324484D01*
X204531114Y-155324484D02*
X204483495Y-155229246D01*
X204483495Y-155229246D02*
X204435876Y-155181627D01*
X204435876Y-155181627D02*
X204340638Y-155134008D01*
X211333746Y-149673056D02*
X211238508Y-149625437D01*
X211238508Y-149625437D02*
X211095651Y-149625437D01*
X211095651Y-149625437D02*
X210952794Y-149673056D01*
X210952794Y-149673056D02*
X210857556Y-149768294D01*
X210857556Y-149768294D02*
X210809937Y-149863532D01*
X210809937Y-149863532D02*
X210762318Y-150054008D01*
X210762318Y-150054008D02*
X210762318Y-150196865D01*
X210762318Y-150196865D02*
X210809937Y-150387341D01*
X210809937Y-150387341D02*
X210857556Y-150482579D01*
X210857556Y-150482579D02*
X210952794Y-150577818D01*
X210952794Y-150577818D02*
X211095651Y-150625437D01*
X211095651Y-150625437D02*
X211190889Y-150625437D01*
X211190889Y-150625437D02*
X211333746Y-150577818D01*
X211333746Y-150577818D02*
X211381365Y-150530198D01*
X211381365Y-150530198D02*
X211381365Y-150196865D01*
X211381365Y-150196865D02*
X211190889Y-150196865D01*
X211809937Y-150625437D02*
X211809937Y-149625437D01*
X211809937Y-149625437D02*
X212381365Y-150625437D01*
X212381365Y-150625437D02*
X212381365Y-149625437D01*
X212857556Y-150625437D02*
X212857556Y-149625437D01*
X212857556Y-149625437D02*
X213095651Y-149625437D01*
X213095651Y-149625437D02*
X213238508Y-149673056D01*
X213238508Y-149673056D02*
X213333746Y-149768294D01*
X213333746Y-149768294D02*
X213381365Y-149863532D01*
X213381365Y-149863532D02*
X213428984Y-150054008D01*
X213428984Y-150054008D02*
X213428984Y-150196865D01*
X213428984Y-150196865D02*
X213381365Y-150387341D01*
X213381365Y-150387341D02*
X213333746Y-150482579D01*
X213333746Y-150482579D02*
X213238508Y-150577818D01*
X213238508Y-150577818D02*
X213095651Y-150625437D01*
X213095651Y-150625437D02*
X212857556Y-150625437D01*
X202054926Y-140465438D02*
X202054926Y-139465438D01*
X202054926Y-139465438D02*
X202293021Y-139465438D01*
X202293021Y-139465438D02*
X202435878Y-139513057D01*
X202435878Y-139513057D02*
X202531116Y-139608295D01*
X202531116Y-139608295D02*
X202578735Y-139703533D01*
X202578735Y-139703533D02*
X202626354Y-139894009D01*
X202626354Y-139894009D02*
X202626354Y-140036866D01*
X202626354Y-140036866D02*
X202578735Y-140227342D01*
X202578735Y-140227342D02*
X202531116Y-140322580D01*
X202531116Y-140322580D02*
X202435878Y-140417819D01*
X202435878Y-140417819D02*
X202293021Y-140465438D01*
X202293021Y-140465438D02*
X202054926Y-140465438D01*
X203054926Y-140084485D02*
X203816831Y-140084485D01*
X212428982Y-169993055D02*
X212333744Y-169945436D01*
X212333744Y-169945436D02*
X212190887Y-169945436D01*
X212190887Y-169945436D02*
X212048030Y-169993055D01*
X212048030Y-169993055D02*
X211952792Y-170088293D01*
X211952792Y-170088293D02*
X211905173Y-170183531D01*
X211905173Y-170183531D02*
X211857554Y-170374007D01*
X211857554Y-170374007D02*
X211857554Y-170516864D01*
X211857554Y-170516864D02*
X211905173Y-170707340D01*
X211905173Y-170707340D02*
X211952792Y-170802578D01*
X211952792Y-170802578D02*
X212048030Y-170897817D01*
X212048030Y-170897817D02*
X212190887Y-170945436D01*
X212190887Y-170945436D02*
X212286125Y-170945436D01*
X212286125Y-170945436D02*
X212428982Y-170897817D01*
X212428982Y-170897817D02*
X212476601Y-170850197D01*
X212476601Y-170850197D02*
X212476601Y-170516864D01*
X212476601Y-170516864D02*
X212286125Y-170516864D01*
X212952792Y-170945436D02*
X213143268Y-170945436D01*
X213143268Y-170945436D02*
X213238506Y-170897817D01*
X213238506Y-170897817D02*
X213286125Y-170850197D01*
X213286125Y-170850197D02*
X213381363Y-170707340D01*
X213381363Y-170707340D02*
X213428982Y-170516864D01*
X213428982Y-170516864D02*
X213428982Y-170135912D01*
X213428982Y-170135912D02*
X213381363Y-170040674D01*
X213381363Y-170040674D02*
X213333744Y-169993055D01*
X213333744Y-169993055D02*
X213238506Y-169945436D01*
X213238506Y-169945436D02*
X213048030Y-169945436D01*
X213048030Y-169945436D02*
X212952792Y-169993055D01*
X212952792Y-169993055D02*
X212905173Y-170040674D01*
X212905173Y-170040674D02*
X212857554Y-170135912D01*
X212857554Y-170135912D02*
X212857554Y-170374007D01*
X212857554Y-170374007D02*
X212905173Y-170469245D01*
X212905173Y-170469245D02*
X212952792Y-170516864D01*
X212952792Y-170516864D02*
X213048030Y-170564483D01*
X213048030Y-170564483D02*
X213238506Y-170564483D01*
X213238506Y-170564483D02*
X213333744Y-170516864D01*
X213333744Y-170516864D02*
X213381363Y-170469245D01*
X213381363Y-170469245D02*
X213428982Y-170374007D01*
X212428984Y-157293056D02*
X212333746Y-157245437D01*
X212333746Y-157245437D02*
X212190889Y-157245437D01*
X212190889Y-157245437D02*
X212048032Y-157293056D01*
X212048032Y-157293056D02*
X211952794Y-157388294D01*
X211952794Y-157388294D02*
X211905175Y-157483532D01*
X211905175Y-157483532D02*
X211857556Y-157674008D01*
X211857556Y-157674008D02*
X211857556Y-157816865D01*
X211857556Y-157816865D02*
X211905175Y-158007341D01*
X211905175Y-158007341D02*
X211952794Y-158102579D01*
X211952794Y-158102579D02*
X212048032Y-158197818D01*
X212048032Y-158197818D02*
X212190889Y-158245437D01*
X212190889Y-158245437D02*
X212286127Y-158245437D01*
X212286127Y-158245437D02*
X212428984Y-158197818D01*
X212428984Y-158197818D02*
X212476603Y-158150198D01*
X212476603Y-158150198D02*
X212476603Y-157816865D01*
X212476603Y-157816865D02*
X212286127Y-157816865D01*
X213333746Y-157578770D02*
X213333746Y-158245437D01*
X213095651Y-157197818D02*
X212857556Y-157912103D01*
X212857556Y-157912103D02*
X213476603Y-157912103D01*
X202578732Y-169993056D02*
X202483494Y-169945437D01*
X202483494Y-169945437D02*
X202340637Y-169945437D01*
X202340637Y-169945437D02*
X202197780Y-169993056D01*
X202197780Y-169993056D02*
X202102542Y-170088294D01*
X202102542Y-170088294D02*
X202054923Y-170183532D01*
X202054923Y-170183532D02*
X202007304Y-170374008D01*
X202007304Y-170374008D02*
X202007304Y-170516865D01*
X202007304Y-170516865D02*
X202054923Y-170707341D01*
X202054923Y-170707341D02*
X202102542Y-170802579D01*
X202102542Y-170802579D02*
X202197780Y-170897818D01*
X202197780Y-170897818D02*
X202340637Y-170945437D01*
X202340637Y-170945437D02*
X202435875Y-170945437D01*
X202435875Y-170945437D02*
X202578732Y-170897818D01*
X202578732Y-170897818D02*
X202626351Y-170850198D01*
X202626351Y-170850198D02*
X202626351Y-170516865D01*
X202626351Y-170516865D02*
X202435875Y-170516865D01*
X203578732Y-170945437D02*
X203007304Y-170945437D01*
X203293018Y-170945437D02*
X203293018Y-169945437D01*
X203293018Y-169945437D02*
X203197780Y-170088294D01*
X203197780Y-170088294D02*
X203102542Y-170183532D01*
X203102542Y-170183532D02*
X203007304Y-170231151D01*
X204197780Y-169945437D02*
X204293018Y-169945437D01*
X204293018Y-169945437D02*
X204388256Y-169993056D01*
X204388256Y-169993056D02*
X204435875Y-170040675D01*
X204435875Y-170040675D02*
X204483494Y-170135913D01*
X204483494Y-170135913D02*
X204531113Y-170326389D01*
X204531113Y-170326389D02*
X204531113Y-170564484D01*
X204531113Y-170564484D02*
X204483494Y-170754960D01*
X204483494Y-170754960D02*
X204435875Y-170850198D01*
X204435875Y-170850198D02*
X204388256Y-170897818D01*
X204388256Y-170897818D02*
X204293018Y-170945437D01*
X204293018Y-170945437D02*
X204197780Y-170945437D01*
X204197780Y-170945437D02*
X204102542Y-170897818D01*
X204102542Y-170897818D02*
X204054923Y-170850198D01*
X204054923Y-170850198D02*
X204007304Y-170754960D01*
X204007304Y-170754960D02*
X203959685Y-170564484D01*
X203959685Y-170564484D02*
X203959685Y-170326389D01*
X203959685Y-170326389D02*
X204007304Y-170135913D01*
X204007304Y-170135913D02*
X204054923Y-170040675D01*
X204054923Y-170040675D02*
X204102542Y-169993056D01*
X204102542Y-169993056D02*
X204197780Y-169945437D01*
X202578734Y-144593054D02*
X202483496Y-144545435D01*
X202483496Y-144545435D02*
X202340639Y-144545435D01*
X202340639Y-144545435D02*
X202197782Y-144593054D01*
X202197782Y-144593054D02*
X202102544Y-144688292D01*
X202102544Y-144688292D02*
X202054925Y-144783530D01*
X202054925Y-144783530D02*
X202007306Y-144974006D01*
X202007306Y-144974006D02*
X202007306Y-145116863D01*
X202007306Y-145116863D02*
X202054925Y-145307339D01*
X202054925Y-145307339D02*
X202102544Y-145402577D01*
X202102544Y-145402577D02*
X202197782Y-145497816D01*
X202197782Y-145497816D02*
X202340639Y-145545435D01*
X202340639Y-145545435D02*
X202435877Y-145545435D01*
X202435877Y-145545435D02*
X202578734Y-145497816D01*
X202578734Y-145497816D02*
X202626353Y-145450196D01*
X202626353Y-145450196D02*
X202626353Y-145116863D01*
X202626353Y-145116863D02*
X202435877Y-145116863D01*
X203054925Y-145545435D02*
X203054925Y-144545435D01*
X203054925Y-144545435D02*
X203626353Y-145545435D01*
X203626353Y-145545435D02*
X203626353Y-144545435D01*
X204102544Y-145545435D02*
X204102544Y-144545435D01*
X204102544Y-144545435D02*
X204340639Y-144545435D01*
X204340639Y-144545435D02*
X204483496Y-144593054D01*
X204483496Y-144593054D02*
X204578734Y-144688292D01*
X204578734Y-144688292D02*
X204626353Y-144783530D01*
X204626353Y-144783530D02*
X204673972Y-144974006D01*
X204673972Y-144974006D02*
X204673972Y-145116863D01*
X204673972Y-145116863D02*
X204626353Y-145307339D01*
X204626353Y-145307339D02*
X204578734Y-145402577D01*
X204578734Y-145402577D02*
X204483496Y-145497816D01*
X204483496Y-145497816D02*
X204340639Y-145545435D01*
X204340639Y-145545435D02*
X204102544Y-145545435D01*
X202578734Y-164913059D02*
X202483496Y-164865440D01*
X202483496Y-164865440D02*
X202340639Y-164865440D01*
X202340639Y-164865440D02*
X202197782Y-164913059D01*
X202197782Y-164913059D02*
X202102544Y-165008297D01*
X202102544Y-165008297D02*
X202054925Y-165103535D01*
X202054925Y-165103535D02*
X202007306Y-165294011D01*
X202007306Y-165294011D02*
X202007306Y-165436868D01*
X202007306Y-165436868D02*
X202054925Y-165627344D01*
X202054925Y-165627344D02*
X202102544Y-165722582D01*
X202102544Y-165722582D02*
X202197782Y-165817821D01*
X202197782Y-165817821D02*
X202340639Y-165865440D01*
X202340639Y-165865440D02*
X202435877Y-165865440D01*
X202435877Y-165865440D02*
X202578734Y-165817821D01*
X202578734Y-165817821D02*
X202626353Y-165770201D01*
X202626353Y-165770201D02*
X202626353Y-165436868D01*
X202626353Y-165436868D02*
X202435877Y-165436868D01*
X203007306Y-164960678D02*
X203054925Y-164913059D01*
X203054925Y-164913059D02*
X203150163Y-164865440D01*
X203150163Y-164865440D02*
X203388258Y-164865440D01*
X203388258Y-164865440D02*
X203483496Y-164913059D01*
X203483496Y-164913059D02*
X203531115Y-164960678D01*
X203531115Y-164960678D02*
X203578734Y-165055916D01*
X203578734Y-165055916D02*
X203578734Y-165151154D01*
X203578734Y-165151154D02*
X203531115Y-165294011D01*
X203531115Y-165294011D02*
X202959687Y-165865440D01*
X202959687Y-165865440D02*
X203578734Y-165865440D01*
X204197782Y-164865440D02*
X204293020Y-164865440D01*
X204293020Y-164865440D02*
X204388258Y-164913059D01*
X204388258Y-164913059D02*
X204435877Y-164960678D01*
X204435877Y-164960678D02*
X204483496Y-165055916D01*
X204483496Y-165055916D02*
X204531115Y-165246392D01*
X204531115Y-165246392D02*
X204531115Y-165484487D01*
X204531115Y-165484487D02*
X204483496Y-165674963D01*
X204483496Y-165674963D02*
X204435877Y-165770201D01*
X204435877Y-165770201D02*
X204388258Y-165817821D01*
X204388258Y-165817821D02*
X204293020Y-165865440D01*
X204293020Y-165865440D02*
X204197782Y-165865440D01*
X204197782Y-165865440D02*
X204102544Y-165817821D01*
X204102544Y-165817821D02*
X204054925Y-165770201D01*
X204054925Y-165770201D02*
X204007306Y-165674963D01*
X204007306Y-165674963D02*
X203959687Y-165484487D01*
X203959687Y-165484487D02*
X203959687Y-165246392D01*
X203959687Y-165246392D02*
X204007306Y-165055916D01*
X204007306Y-165055916D02*
X204054925Y-164960678D01*
X204054925Y-164960678D02*
X204102544Y-164913059D01*
X204102544Y-164913059D02*
X204197782Y-164865440D01*
X212428984Y-142053057D02*
X212333746Y-142005438D01*
X212333746Y-142005438D02*
X212190889Y-142005438D01*
X212190889Y-142005438D02*
X212048032Y-142053057D01*
X212048032Y-142053057D02*
X211952794Y-142148295D01*
X211952794Y-142148295D02*
X211905175Y-142243533D01*
X211905175Y-142243533D02*
X211857556Y-142434009D01*
X211857556Y-142434009D02*
X211857556Y-142576866D01*
X211857556Y-142576866D02*
X211905175Y-142767342D01*
X211905175Y-142767342D02*
X211952794Y-142862580D01*
X211952794Y-142862580D02*
X212048032Y-142957819D01*
X212048032Y-142957819D02*
X212190889Y-143005438D01*
X212190889Y-143005438D02*
X212286127Y-143005438D01*
X212286127Y-143005438D02*
X212428984Y-142957819D01*
X212428984Y-142957819D02*
X212476603Y-142910199D01*
X212476603Y-142910199D02*
X212476603Y-142576866D01*
X212476603Y-142576866D02*
X212286127Y-142576866D01*
X213095651Y-142005438D02*
X213190889Y-142005438D01*
X213190889Y-142005438D02*
X213286127Y-142053057D01*
X213286127Y-142053057D02*
X213333746Y-142100676D01*
X213333746Y-142100676D02*
X213381365Y-142195914D01*
X213381365Y-142195914D02*
X213428984Y-142386390D01*
X213428984Y-142386390D02*
X213428984Y-142624485D01*
X213428984Y-142624485D02*
X213381365Y-142814961D01*
X213381365Y-142814961D02*
X213333746Y-142910199D01*
X213333746Y-142910199D02*
X213286127Y-142957819D01*
X213286127Y-142957819D02*
X213190889Y-143005438D01*
X213190889Y-143005438D02*
X213095651Y-143005438D01*
X213095651Y-143005438D02*
X213000413Y-142957819D01*
X213000413Y-142957819D02*
X212952794Y-142910199D01*
X212952794Y-142910199D02*
X212905175Y-142814961D01*
X212905175Y-142814961D02*
X212857556Y-142624485D01*
X212857556Y-142624485D02*
X212857556Y-142386390D01*
X212857556Y-142386390D02*
X212905175Y-142195914D01*
X212905175Y-142195914D02*
X212952794Y-142100676D01*
X212952794Y-142100676D02*
X213000413Y-142053057D01*
X213000413Y-142053057D02*
X213095651Y-142005438D01*
X201912067Y-149625438D02*
X202245400Y-150625438D01*
X202245400Y-150625438D02*
X202578733Y-149625438D01*
X203483495Y-150530199D02*
X203435876Y-150577819D01*
X203435876Y-150577819D02*
X203293019Y-150625438D01*
X203293019Y-150625438D02*
X203197781Y-150625438D01*
X203197781Y-150625438D02*
X203054924Y-150577819D01*
X203054924Y-150577819D02*
X202959686Y-150482580D01*
X202959686Y-150482580D02*
X202912067Y-150387342D01*
X202912067Y-150387342D02*
X202864448Y-150196866D01*
X202864448Y-150196866D02*
X202864448Y-150054009D01*
X202864448Y-150054009D02*
X202912067Y-149863533D01*
X202912067Y-149863533D02*
X202959686Y-149768295D01*
X202959686Y-149768295D02*
X203054924Y-149673057D01*
X203054924Y-149673057D02*
X203197781Y-149625438D01*
X203197781Y-149625438D02*
X203293019Y-149625438D01*
X203293019Y-149625438D02*
X203435876Y-149673057D01*
X203435876Y-149673057D02*
X203483495Y-149720676D01*
X204483495Y-150530199D02*
X204435876Y-150577819D01*
X204435876Y-150577819D02*
X204293019Y-150625438D01*
X204293019Y-150625438D02*
X204197781Y-150625438D01*
X204197781Y-150625438D02*
X204054924Y-150577819D01*
X204054924Y-150577819D02*
X203959686Y-150482580D01*
X203959686Y-150482580D02*
X203912067Y-150387342D01*
X203912067Y-150387342D02*
X203864448Y-150196866D01*
X203864448Y-150196866D02*
X203864448Y-150054009D01*
X203864448Y-150054009D02*
X203912067Y-149863533D01*
X203912067Y-149863533D02*
X203959686Y-149768295D01*
X203959686Y-149768295D02*
X204054924Y-149673057D01*
X204054924Y-149673057D02*
X204197781Y-149625438D01*
X204197781Y-149625438D02*
X204293019Y-149625438D01*
X204293019Y-149625438D02*
X204435876Y-149673057D01*
X204435876Y-149673057D02*
X204483495Y-149720676D01*
X212428985Y-167453057D02*
X212333747Y-167405438D01*
X212333747Y-167405438D02*
X212190890Y-167405438D01*
X212190890Y-167405438D02*
X212048033Y-167453057D01*
X212048033Y-167453057D02*
X211952795Y-167548295D01*
X211952795Y-167548295D02*
X211905176Y-167643533D01*
X211905176Y-167643533D02*
X211857557Y-167834009D01*
X211857557Y-167834009D02*
X211857557Y-167976866D01*
X211857557Y-167976866D02*
X211905176Y-168167342D01*
X211905176Y-168167342D02*
X211952795Y-168262580D01*
X211952795Y-168262580D02*
X212048033Y-168357819D01*
X212048033Y-168357819D02*
X212190890Y-168405438D01*
X212190890Y-168405438D02*
X212286128Y-168405438D01*
X212286128Y-168405438D02*
X212428985Y-168357819D01*
X212428985Y-168357819D02*
X212476604Y-168310199D01*
X212476604Y-168310199D02*
X212476604Y-167976866D01*
X212476604Y-167976866D02*
X212286128Y-167976866D01*
X213048033Y-167834009D02*
X212952795Y-167786390D01*
X212952795Y-167786390D02*
X212905176Y-167738771D01*
X212905176Y-167738771D02*
X212857557Y-167643533D01*
X212857557Y-167643533D02*
X212857557Y-167595914D01*
X212857557Y-167595914D02*
X212905176Y-167500676D01*
X212905176Y-167500676D02*
X212952795Y-167453057D01*
X212952795Y-167453057D02*
X213048033Y-167405438D01*
X213048033Y-167405438D02*
X213238509Y-167405438D01*
X213238509Y-167405438D02*
X213333747Y-167453057D01*
X213333747Y-167453057D02*
X213381366Y-167500676D01*
X213381366Y-167500676D02*
X213428985Y-167595914D01*
X213428985Y-167595914D02*
X213428985Y-167643533D01*
X213428985Y-167643533D02*
X213381366Y-167738771D01*
X213381366Y-167738771D02*
X213333747Y-167786390D01*
X213333747Y-167786390D02*
X213238509Y-167834009D01*
X213238509Y-167834009D02*
X213048033Y-167834009D01*
X213048033Y-167834009D02*
X212952795Y-167881628D01*
X212952795Y-167881628D02*
X212905176Y-167929247D01*
X212905176Y-167929247D02*
X212857557Y-168024485D01*
X212857557Y-168024485D02*
X212857557Y-168214961D01*
X212857557Y-168214961D02*
X212905176Y-168310199D01*
X212905176Y-168310199D02*
X212952795Y-168357819D01*
X212952795Y-168357819D02*
X213048033Y-168405438D01*
X213048033Y-168405438D02*
X213238509Y-168405438D01*
X213238509Y-168405438D02*
X213333747Y-168357819D01*
X213333747Y-168357819D02*
X213381366Y-168310199D01*
X213381366Y-168310199D02*
X213428985Y-168214961D01*
X213428985Y-168214961D02*
X213428985Y-168024485D01*
X213428985Y-168024485D02*
X213381366Y-167929247D01*
X213381366Y-167929247D02*
X213333747Y-167881628D01*
X213333747Y-167881628D02*
X213238509Y-167834009D01*
X202578732Y-157293056D02*
X202483494Y-157245437D01*
X202483494Y-157245437D02*
X202340637Y-157245437D01*
X202340637Y-157245437D02*
X202197780Y-157293056D01*
X202197780Y-157293056D02*
X202102542Y-157388294D01*
X202102542Y-157388294D02*
X202054923Y-157483532D01*
X202054923Y-157483532D02*
X202007304Y-157674008D01*
X202007304Y-157674008D02*
X202007304Y-157816865D01*
X202007304Y-157816865D02*
X202054923Y-158007341D01*
X202054923Y-158007341D02*
X202102542Y-158102579D01*
X202102542Y-158102579D02*
X202197780Y-158197818D01*
X202197780Y-158197818D02*
X202340637Y-158245437D01*
X202340637Y-158245437D02*
X202435875Y-158245437D01*
X202435875Y-158245437D02*
X202578732Y-158197818D01*
X202578732Y-158197818D02*
X202626351Y-158150198D01*
X202626351Y-158150198D02*
X202626351Y-157816865D01*
X202626351Y-157816865D02*
X202435875Y-157816865D01*
X203007304Y-157340675D02*
X203054923Y-157293056D01*
X203054923Y-157293056D02*
X203150161Y-157245437D01*
X203150161Y-157245437D02*
X203388256Y-157245437D01*
X203388256Y-157245437D02*
X203483494Y-157293056D01*
X203483494Y-157293056D02*
X203531113Y-157340675D01*
X203531113Y-157340675D02*
X203578732Y-157435913D01*
X203578732Y-157435913D02*
X203578732Y-157531151D01*
X203578732Y-157531151D02*
X203531113Y-157674008D01*
X203531113Y-157674008D02*
X202959685Y-158245437D01*
X202959685Y-158245437D02*
X203578732Y-158245437D01*
X203912066Y-157245437D02*
X204578732Y-157245437D01*
X204578732Y-157245437D02*
X204150161Y-158245437D01*
X202578733Y-167453055D02*
X202483495Y-167405436D01*
X202483495Y-167405436D02*
X202340638Y-167405436D01*
X202340638Y-167405436D02*
X202197781Y-167453055D01*
X202197781Y-167453055D02*
X202102543Y-167548293D01*
X202102543Y-167548293D02*
X202054924Y-167643531D01*
X202054924Y-167643531D02*
X202007305Y-167834007D01*
X202007305Y-167834007D02*
X202007305Y-167976864D01*
X202007305Y-167976864D02*
X202054924Y-168167340D01*
X202054924Y-168167340D02*
X202102543Y-168262578D01*
X202102543Y-168262578D02*
X202197781Y-168357817D01*
X202197781Y-168357817D02*
X202340638Y-168405436D01*
X202340638Y-168405436D02*
X202435876Y-168405436D01*
X202435876Y-168405436D02*
X202578733Y-168357817D01*
X202578733Y-168357817D02*
X202626352Y-168310197D01*
X202626352Y-168310197D02*
X202626352Y-167976864D01*
X202626352Y-167976864D02*
X202435876Y-167976864D01*
X203578733Y-168405436D02*
X203007305Y-168405436D01*
X203293019Y-168405436D02*
X203293019Y-167405436D01*
X203293019Y-167405436D02*
X203197781Y-167548293D01*
X203197781Y-167548293D02*
X203102543Y-167643531D01*
X203102543Y-167643531D02*
X203007305Y-167691150D01*
X204054924Y-168405436D02*
X204245400Y-168405436D01*
X204245400Y-168405436D02*
X204340638Y-168357817D01*
X204340638Y-168357817D02*
X204388257Y-168310197D01*
X204388257Y-168310197D02*
X204483495Y-168167340D01*
X204483495Y-168167340D02*
X204531114Y-167976864D01*
X204531114Y-167976864D02*
X204531114Y-167595912D01*
X204531114Y-167595912D02*
X204483495Y-167500674D01*
X204483495Y-167500674D02*
X204435876Y-167453055D01*
X204435876Y-167453055D02*
X204340638Y-167405436D01*
X204340638Y-167405436D02*
X204150162Y-167405436D01*
X204150162Y-167405436D02*
X204054924Y-167453055D01*
X204054924Y-167453055D02*
X204007305Y-167500674D01*
X204007305Y-167500674D02*
X203959686Y-167595912D01*
X203959686Y-167595912D02*
X203959686Y-167834007D01*
X203959686Y-167834007D02*
X204007305Y-167929245D01*
X204007305Y-167929245D02*
X204054924Y-167976864D01*
X204054924Y-167976864D02*
X204150162Y-168024483D01*
X204150162Y-168024483D02*
X204340638Y-168024483D01*
X204340638Y-168024483D02*
X204435876Y-167976864D01*
X204435876Y-167976864D02*
X204483495Y-167929245D01*
X204483495Y-167929245D02*
X204531114Y-167834007D01*
X202626351Y-143005436D02*
X202293018Y-142529245D01*
X202054923Y-143005436D02*
X202054923Y-142005436D01*
X202054923Y-142005436D02*
X202435875Y-142005436D01*
X202435875Y-142005436D02*
X202531113Y-142053055D01*
X202531113Y-142053055D02*
X202578732Y-142100674D01*
X202578732Y-142100674D02*
X202626351Y-142195912D01*
X202626351Y-142195912D02*
X202626351Y-142338769D01*
X202626351Y-142338769D02*
X202578732Y-142434007D01*
X202578732Y-142434007D02*
X202531113Y-142481626D01*
X202531113Y-142481626D02*
X202435875Y-142529245D01*
X202435875Y-142529245D02*
X202054923Y-142529245D01*
X203007304Y-142719721D02*
X203483494Y-142719721D01*
X202912066Y-143005436D02*
X203245399Y-142005436D01*
X203245399Y-142005436D02*
X203578732Y-143005436D01*
X203816828Y-142005436D02*
X204054923Y-143005436D01*
X204054923Y-143005436D02*
X204245399Y-142291150D01*
X204245399Y-142291150D02*
X204435875Y-143005436D01*
X204435875Y-143005436D02*
X204673971Y-142005436D01*
X202578733Y-162373056D02*
X202483495Y-162325437D01*
X202483495Y-162325437D02*
X202340638Y-162325437D01*
X202340638Y-162325437D02*
X202197781Y-162373056D01*
X202197781Y-162373056D02*
X202102543Y-162468294D01*
X202102543Y-162468294D02*
X202054924Y-162563532D01*
X202054924Y-162563532D02*
X202007305Y-162754008D01*
X202007305Y-162754008D02*
X202007305Y-162896865D01*
X202007305Y-162896865D02*
X202054924Y-163087341D01*
X202054924Y-163087341D02*
X202102543Y-163182579D01*
X202102543Y-163182579D02*
X202197781Y-163277818D01*
X202197781Y-163277818D02*
X202340638Y-163325437D01*
X202340638Y-163325437D02*
X202435876Y-163325437D01*
X202435876Y-163325437D02*
X202578733Y-163277818D01*
X202578733Y-163277818D02*
X202626352Y-163230198D01*
X202626352Y-163230198D02*
X202626352Y-162896865D01*
X202626352Y-162896865D02*
X202435876Y-162896865D01*
X203578733Y-163325437D02*
X203007305Y-163325437D01*
X203293019Y-163325437D02*
X203293019Y-162325437D01*
X203293019Y-162325437D02*
X203197781Y-162468294D01*
X203197781Y-162468294D02*
X203102543Y-162563532D01*
X203102543Y-162563532D02*
X203007305Y-162611151D01*
X204150162Y-162754008D02*
X204054924Y-162706389D01*
X204054924Y-162706389D02*
X204007305Y-162658770D01*
X204007305Y-162658770D02*
X203959686Y-162563532D01*
X203959686Y-162563532D02*
X203959686Y-162515913D01*
X203959686Y-162515913D02*
X204007305Y-162420675D01*
X204007305Y-162420675D02*
X204054924Y-162373056D01*
X204054924Y-162373056D02*
X204150162Y-162325437D01*
X204150162Y-162325437D02*
X204340638Y-162325437D01*
X204340638Y-162325437D02*
X204435876Y-162373056D01*
X204435876Y-162373056D02*
X204483495Y-162420675D01*
X204483495Y-162420675D02*
X204531114Y-162515913D01*
X204531114Y-162515913D02*
X204531114Y-162563532D01*
X204531114Y-162563532D02*
X204483495Y-162658770D01*
X204483495Y-162658770D02*
X204435876Y-162706389D01*
X204435876Y-162706389D02*
X204340638Y-162754008D01*
X204340638Y-162754008D02*
X204150162Y-162754008D01*
X204150162Y-162754008D02*
X204054924Y-162801627D01*
X204054924Y-162801627D02*
X204007305Y-162849246D01*
X204007305Y-162849246D02*
X203959686Y-162944484D01*
X203959686Y-162944484D02*
X203959686Y-163134960D01*
X203959686Y-163134960D02*
X204007305Y-163230198D01*
X204007305Y-163230198D02*
X204054924Y-163277818D01*
X204054924Y-163277818D02*
X204150162Y-163325437D01*
X204150162Y-163325437D02*
X204340638Y-163325437D01*
X204340638Y-163325437D02*
X204435876Y-163277818D01*
X204435876Y-163277818D02*
X204483495Y-163230198D01*
X204483495Y-163230198D02*
X204531114Y-163134960D01*
X204531114Y-163134960D02*
X204531114Y-162944484D01*
X204531114Y-162944484D02*
X204483495Y-162849246D01*
X204483495Y-162849246D02*
X204435876Y-162801627D01*
X204435876Y-162801627D02*
X204340638Y-162754008D01*
X202626352Y-148085437D02*
X202293019Y-147609246D01*
X202054924Y-148085437D02*
X202054924Y-147085437D01*
X202054924Y-147085437D02*
X202435876Y-147085437D01*
X202435876Y-147085437D02*
X202531114Y-147133056D01*
X202531114Y-147133056D02*
X202578733Y-147180675D01*
X202578733Y-147180675D02*
X202626352Y-147275913D01*
X202626352Y-147275913D02*
X202626352Y-147418770D01*
X202626352Y-147418770D02*
X202578733Y-147514008D01*
X202578733Y-147514008D02*
X202531114Y-147561627D01*
X202531114Y-147561627D02*
X202435876Y-147609246D01*
X202435876Y-147609246D02*
X202054924Y-147609246D01*
X203007305Y-148037818D02*
X203150162Y-148085437D01*
X203150162Y-148085437D02*
X203388257Y-148085437D01*
X203388257Y-148085437D02*
X203483495Y-148037818D01*
X203483495Y-148037818D02*
X203531114Y-147990198D01*
X203531114Y-147990198D02*
X203578733Y-147894960D01*
X203578733Y-147894960D02*
X203578733Y-147799722D01*
X203578733Y-147799722D02*
X203531114Y-147704484D01*
X203531114Y-147704484D02*
X203483495Y-147656865D01*
X203483495Y-147656865D02*
X203388257Y-147609246D01*
X203388257Y-147609246D02*
X203197781Y-147561627D01*
X203197781Y-147561627D02*
X203102543Y-147514008D01*
X203102543Y-147514008D02*
X203054924Y-147466389D01*
X203054924Y-147466389D02*
X203007305Y-147371151D01*
X203007305Y-147371151D02*
X203007305Y-147275913D01*
X203007305Y-147275913D02*
X203054924Y-147180675D01*
X203054924Y-147180675D02*
X203102543Y-147133056D01*
X203102543Y-147133056D02*
X203197781Y-147085437D01*
X203197781Y-147085437D02*
X203435876Y-147085437D01*
X203435876Y-147085437D02*
X203578733Y-147133056D01*
X203864448Y-147085437D02*
X204435876Y-147085437D01*
X204150162Y-148085437D02*
X204150162Y-147085437D01*
X212428985Y-152213056D02*
X212333747Y-152165437D01*
X212333747Y-152165437D02*
X212190890Y-152165437D01*
X212190890Y-152165437D02*
X212048033Y-152213056D01*
X212048033Y-152213056D02*
X211952795Y-152308294D01*
X211952795Y-152308294D02*
X211905176Y-152403532D01*
X211905176Y-152403532D02*
X211857557Y-152594008D01*
X211857557Y-152594008D02*
X211857557Y-152736865D01*
X211857557Y-152736865D02*
X211905176Y-152927341D01*
X211905176Y-152927341D02*
X211952795Y-153022579D01*
X211952795Y-153022579D02*
X212048033Y-153117818D01*
X212048033Y-153117818D02*
X212190890Y-153165437D01*
X212190890Y-153165437D02*
X212286128Y-153165437D01*
X212286128Y-153165437D02*
X212428985Y-153117818D01*
X212428985Y-153117818D02*
X212476604Y-153070198D01*
X212476604Y-153070198D02*
X212476604Y-152736865D01*
X212476604Y-152736865D02*
X212286128Y-152736865D01*
X212857557Y-152260675D02*
X212905176Y-152213056D01*
X212905176Y-152213056D02*
X213000414Y-152165437D01*
X213000414Y-152165437D02*
X213238509Y-152165437D01*
X213238509Y-152165437D02*
X213333747Y-152213056D01*
X213333747Y-152213056D02*
X213381366Y-152260675D01*
X213381366Y-152260675D02*
X213428985Y-152355913D01*
X213428985Y-152355913D02*
X213428985Y-152451151D01*
X213428985Y-152451151D02*
X213381366Y-152594008D01*
X213381366Y-152594008D02*
X212809938Y-153165437D01*
X212809938Y-153165437D02*
X213428985Y-153165437D01*
X202578733Y-159833056D02*
X202483495Y-159785437D01*
X202483495Y-159785437D02*
X202340638Y-159785437D01*
X202340638Y-159785437D02*
X202197781Y-159833056D01*
X202197781Y-159833056D02*
X202102543Y-159928294D01*
X202102543Y-159928294D02*
X202054924Y-160023532D01*
X202054924Y-160023532D02*
X202007305Y-160214008D01*
X202007305Y-160214008D02*
X202007305Y-160356865D01*
X202007305Y-160356865D02*
X202054924Y-160547341D01*
X202054924Y-160547341D02*
X202102543Y-160642579D01*
X202102543Y-160642579D02*
X202197781Y-160737818D01*
X202197781Y-160737818D02*
X202340638Y-160785437D01*
X202340638Y-160785437D02*
X202435876Y-160785437D01*
X202435876Y-160785437D02*
X202578733Y-160737818D01*
X202578733Y-160737818D02*
X202626352Y-160690198D01*
X202626352Y-160690198D02*
X202626352Y-160356865D01*
X202626352Y-160356865D02*
X202435876Y-160356865D01*
X203007305Y-159880675D02*
X203054924Y-159833056D01*
X203054924Y-159833056D02*
X203150162Y-159785437D01*
X203150162Y-159785437D02*
X203388257Y-159785437D01*
X203388257Y-159785437D02*
X203483495Y-159833056D01*
X203483495Y-159833056D02*
X203531114Y-159880675D01*
X203531114Y-159880675D02*
X203578733Y-159975913D01*
X203578733Y-159975913D02*
X203578733Y-160071151D01*
X203578733Y-160071151D02*
X203531114Y-160214008D01*
X203531114Y-160214008D02*
X202959686Y-160785437D01*
X202959686Y-160785437D02*
X203578733Y-160785437D01*
X204435876Y-159785437D02*
X204245400Y-159785437D01*
X204245400Y-159785437D02*
X204150162Y-159833056D01*
X204150162Y-159833056D02*
X204102543Y-159880675D01*
X204102543Y-159880675D02*
X204007305Y-160023532D01*
X204007305Y-160023532D02*
X203959686Y-160214008D01*
X203959686Y-160214008D02*
X203959686Y-160594960D01*
X203959686Y-160594960D02*
X204007305Y-160690198D01*
X204007305Y-160690198D02*
X204054924Y-160737818D01*
X204054924Y-160737818D02*
X204150162Y-160785437D01*
X204150162Y-160785437D02*
X204340638Y-160785437D01*
X204340638Y-160785437D02*
X204435876Y-160737818D01*
X204435876Y-160737818D02*
X204483495Y-160690198D01*
X204483495Y-160690198D02*
X204531114Y-160594960D01*
X204531114Y-160594960D02*
X204531114Y-160356865D01*
X204531114Y-160356865D02*
X204483495Y-160261627D01*
X204483495Y-160261627D02*
X204435876Y-160214008D01*
X204435876Y-160214008D02*
X204340638Y-160166389D01*
X204340638Y-160166389D02*
X204150162Y-160166389D01*
X204150162Y-160166389D02*
X204054924Y-160214008D01*
X204054924Y-160214008D02*
X204007305Y-160261627D01*
X204007305Y-160261627D02*
X203959686Y-160356865D01*
X212428983Y-164913058D02*
X212333745Y-164865439D01*
X212333745Y-164865439D02*
X212190888Y-164865439D01*
X212190888Y-164865439D02*
X212048031Y-164913058D01*
X212048031Y-164913058D02*
X211952793Y-165008296D01*
X211952793Y-165008296D02*
X211905174Y-165103534D01*
X211905174Y-165103534D02*
X211857555Y-165294010D01*
X211857555Y-165294010D02*
X211857555Y-165436867D01*
X211857555Y-165436867D02*
X211905174Y-165627343D01*
X211905174Y-165627343D02*
X211952793Y-165722581D01*
X211952793Y-165722581D02*
X212048031Y-165817820D01*
X212048031Y-165817820D02*
X212190888Y-165865439D01*
X212190888Y-165865439D02*
X212286126Y-165865439D01*
X212286126Y-165865439D02*
X212428983Y-165817820D01*
X212428983Y-165817820D02*
X212476602Y-165770200D01*
X212476602Y-165770200D02*
X212476602Y-165436867D01*
X212476602Y-165436867D02*
X212286126Y-165436867D01*
X212809936Y-164865439D02*
X213476602Y-164865439D01*
X213476602Y-164865439D02*
X213048031Y-165865439D01*
X211619462Y-140465437D02*
X211619462Y-139465437D01*
X211619462Y-139465437D02*
X211857557Y-139465437D01*
X211857557Y-139465437D02*
X212000414Y-139513056D01*
X212000414Y-139513056D02*
X212095652Y-139608294D01*
X212095652Y-139608294D02*
X212143271Y-139703532D01*
X212143271Y-139703532D02*
X212190890Y-139894008D01*
X212190890Y-139894008D02*
X212190890Y-140036865D01*
X212190890Y-140036865D02*
X212143271Y-140227341D01*
X212143271Y-140227341D02*
X212095652Y-140322579D01*
X212095652Y-140322579D02*
X212000414Y-140417818D01*
X212000414Y-140417818D02*
X211857557Y-140465437D01*
X211857557Y-140465437D02*
X211619462Y-140465437D01*
X212619462Y-140084484D02*
X213381367Y-140084484D01*
X213000414Y-140465437D02*
X213000414Y-139703532D01*
X212428984Y-159833055D02*
X212333746Y-159785436D01*
X212333746Y-159785436D02*
X212190889Y-159785436D01*
X212190889Y-159785436D02*
X212048032Y-159833055D01*
X212048032Y-159833055D02*
X211952794Y-159928293D01*
X211952794Y-159928293D02*
X211905175Y-160023531D01*
X211905175Y-160023531D02*
X211857556Y-160214007D01*
X211857556Y-160214007D02*
X211857556Y-160356864D01*
X211857556Y-160356864D02*
X211905175Y-160547340D01*
X211905175Y-160547340D02*
X211952794Y-160642578D01*
X211952794Y-160642578D02*
X212048032Y-160737817D01*
X212048032Y-160737817D02*
X212190889Y-160785436D01*
X212190889Y-160785436D02*
X212286127Y-160785436D01*
X212286127Y-160785436D02*
X212428984Y-160737817D01*
X212428984Y-160737817D02*
X212476603Y-160690197D01*
X212476603Y-160690197D02*
X212476603Y-160356864D01*
X212476603Y-160356864D02*
X212286127Y-160356864D01*
X213381365Y-159785436D02*
X212905175Y-159785436D01*
X212905175Y-159785436D02*
X212857556Y-160261626D01*
X212857556Y-160261626D02*
X212905175Y-160214007D01*
X212905175Y-160214007D02*
X213000413Y-160166388D01*
X213000413Y-160166388D02*
X213238508Y-160166388D01*
X213238508Y-160166388D02*
X213333746Y-160214007D01*
X213333746Y-160214007D02*
X213381365Y-160261626D01*
X213381365Y-160261626D02*
X213428984Y-160356864D01*
X213428984Y-160356864D02*
X213428984Y-160594959D01*
X213428984Y-160594959D02*
X213381365Y-160690197D01*
X213381365Y-160690197D02*
X213333746Y-160737817D01*
X213333746Y-160737817D02*
X213238508Y-160785436D01*
X213238508Y-160785436D02*
X213000413Y-160785436D01*
X213000413Y-160785436D02*
X212905175Y-160737817D01*
X212905175Y-160737817D02*
X212857556Y-160690197D01*
X211333746Y-147133056D02*
X211238508Y-147085437D01*
X211238508Y-147085437D02*
X211095651Y-147085437D01*
X211095651Y-147085437D02*
X210952794Y-147133056D01*
X210952794Y-147133056D02*
X210857556Y-147228294D01*
X210857556Y-147228294D02*
X210809937Y-147323532D01*
X210809937Y-147323532D02*
X210762318Y-147514008D01*
X210762318Y-147514008D02*
X210762318Y-147656865D01*
X210762318Y-147656865D02*
X210809937Y-147847341D01*
X210809937Y-147847341D02*
X210857556Y-147942579D01*
X210857556Y-147942579D02*
X210952794Y-148037818D01*
X210952794Y-148037818D02*
X211095651Y-148085437D01*
X211095651Y-148085437D02*
X211190889Y-148085437D01*
X211190889Y-148085437D02*
X211333746Y-148037818D01*
X211333746Y-148037818D02*
X211381365Y-147990198D01*
X211381365Y-147990198D02*
X211381365Y-147656865D01*
X211381365Y-147656865D02*
X211190889Y-147656865D01*
X211809937Y-148085437D02*
X211809937Y-147085437D01*
X211809937Y-147085437D02*
X212381365Y-148085437D01*
X212381365Y-148085437D02*
X212381365Y-147085437D01*
X212857556Y-148085437D02*
X212857556Y-147085437D01*
X212857556Y-147085437D02*
X213095651Y-147085437D01*
X213095651Y-147085437D02*
X213238508Y-147133056D01*
X213238508Y-147133056D02*
X213333746Y-147228294D01*
X213333746Y-147228294D02*
X213381365Y-147323532D01*
X213381365Y-147323532D02*
X213428984Y-147514008D01*
X213428984Y-147514008D02*
X213428984Y-147656865D01*
X213428984Y-147656865D02*
X213381365Y-147847341D01*
X213381365Y-147847341D02*
X213333746Y-147942579D01*
X213333746Y-147942579D02*
X213238508Y-148037818D01*
X213238508Y-148037818D02*
X213095651Y-148085437D01*
X213095651Y-148085437D02*
X212857556Y-148085437D01*
X212428984Y-162373056D02*
X212333746Y-162325437D01*
X212333746Y-162325437D02*
X212190889Y-162325437D01*
X212190889Y-162325437D02*
X212048032Y-162373056D01*
X212048032Y-162373056D02*
X211952794Y-162468294D01*
X211952794Y-162468294D02*
X211905175Y-162563532D01*
X211905175Y-162563532D02*
X211857556Y-162754008D01*
X211857556Y-162754008D02*
X211857556Y-162896865D01*
X211857556Y-162896865D02*
X211905175Y-163087341D01*
X211905175Y-163087341D02*
X211952794Y-163182579D01*
X211952794Y-163182579D02*
X212048032Y-163277818D01*
X212048032Y-163277818D02*
X212190889Y-163325437D01*
X212190889Y-163325437D02*
X212286127Y-163325437D01*
X212286127Y-163325437D02*
X212428984Y-163277818D01*
X212428984Y-163277818D02*
X212476603Y-163230198D01*
X212476603Y-163230198D02*
X212476603Y-162896865D01*
X212476603Y-162896865D02*
X212286127Y-162896865D01*
X213333746Y-162325437D02*
X213143270Y-162325437D01*
X213143270Y-162325437D02*
X213048032Y-162373056D01*
X213048032Y-162373056D02*
X213000413Y-162420675D01*
X213000413Y-162420675D02*
X212905175Y-162563532D01*
X212905175Y-162563532D02*
X212857556Y-162754008D01*
X212857556Y-162754008D02*
X212857556Y-163134960D01*
X212857556Y-163134960D02*
X212905175Y-163230198D01*
X212905175Y-163230198D02*
X212952794Y-163277818D01*
X212952794Y-163277818D02*
X213048032Y-163325437D01*
X213048032Y-163325437D02*
X213238508Y-163325437D01*
X213238508Y-163325437D02*
X213333746Y-163277818D01*
X213333746Y-163277818D02*
X213381365Y-163230198D01*
X213381365Y-163230198D02*
X213428984Y-163134960D01*
X213428984Y-163134960D02*
X213428984Y-162896865D01*
X213428984Y-162896865D02*
X213381365Y-162801627D01*
X213381365Y-162801627D02*
X213333746Y-162754008D01*
X213333746Y-162754008D02*
X213238508Y-162706389D01*
X213238508Y-162706389D02*
X213048032Y-162706389D01*
X213048032Y-162706389D02*
X212952794Y-162754008D01*
X212952794Y-162754008D02*
X212905175Y-162801627D01*
X212905175Y-162801627D02*
X212857556Y-162896865D01*
X212428984Y-154753056D02*
X212333746Y-154705437D01*
X212333746Y-154705437D02*
X212190889Y-154705437D01*
X212190889Y-154705437D02*
X212048032Y-154753056D01*
X212048032Y-154753056D02*
X211952794Y-154848294D01*
X211952794Y-154848294D02*
X211905175Y-154943532D01*
X211905175Y-154943532D02*
X211857556Y-155134008D01*
X211857556Y-155134008D02*
X211857556Y-155276865D01*
X211857556Y-155276865D02*
X211905175Y-155467341D01*
X211905175Y-155467341D02*
X211952794Y-155562579D01*
X211952794Y-155562579D02*
X212048032Y-155657818D01*
X212048032Y-155657818D02*
X212190889Y-155705437D01*
X212190889Y-155705437D02*
X212286127Y-155705437D01*
X212286127Y-155705437D02*
X212428984Y-155657818D01*
X212428984Y-155657818D02*
X212476603Y-155610198D01*
X212476603Y-155610198D02*
X212476603Y-155276865D01*
X212476603Y-155276865D02*
X212286127Y-155276865D01*
X212809937Y-154705437D02*
X213428984Y-154705437D01*
X213428984Y-154705437D02*
X213095651Y-155086389D01*
X213095651Y-155086389D02*
X213238508Y-155086389D01*
X213238508Y-155086389D02*
X213333746Y-155134008D01*
X213333746Y-155134008D02*
X213381365Y-155181627D01*
X213381365Y-155181627D02*
X213428984Y-155276865D01*
X213428984Y-155276865D02*
X213428984Y-155514960D01*
X213428984Y-155514960D02*
X213381365Y-155610198D01*
X213381365Y-155610198D02*
X213333746Y-155657818D01*
X213333746Y-155657818D02*
X213238508Y-155705437D01*
X213238508Y-155705437D02*
X212952794Y-155705437D01*
X212952794Y-155705437D02*
X212857556Y-155657818D01*
X212857556Y-155657818D02*
X212809937Y-155610198D01*
X202578733Y-152213056D02*
X202483495Y-152165437D01*
X202483495Y-152165437D02*
X202340638Y-152165437D01*
X202340638Y-152165437D02*
X202197781Y-152213056D01*
X202197781Y-152213056D02*
X202102543Y-152308294D01*
X202102543Y-152308294D02*
X202054924Y-152403532D01*
X202054924Y-152403532D02*
X202007305Y-152594008D01*
X202007305Y-152594008D02*
X202007305Y-152736865D01*
X202007305Y-152736865D02*
X202054924Y-152927341D01*
X202054924Y-152927341D02*
X202102543Y-153022579D01*
X202102543Y-153022579D02*
X202197781Y-153117818D01*
X202197781Y-153117818D02*
X202340638Y-153165437D01*
X202340638Y-153165437D02*
X202435876Y-153165437D01*
X202435876Y-153165437D02*
X202578733Y-153117818D01*
X202578733Y-153117818D02*
X202626352Y-153070198D01*
X202626352Y-153070198D02*
X202626352Y-152736865D01*
X202626352Y-152736865D02*
X202435876Y-152736865D01*
X203007305Y-152260675D02*
X203054924Y-152213056D01*
X203054924Y-152213056D02*
X203150162Y-152165437D01*
X203150162Y-152165437D02*
X203388257Y-152165437D01*
X203388257Y-152165437D02*
X203483495Y-152213056D01*
X203483495Y-152213056D02*
X203531114Y-152260675D01*
X203531114Y-152260675D02*
X203578733Y-152355913D01*
X203578733Y-152355913D02*
X203578733Y-152451151D01*
X203578733Y-152451151D02*
X203531114Y-152594008D01*
X203531114Y-152594008D02*
X202959686Y-153165437D01*
X202959686Y-153165437D02*
X203578733Y-153165437D01*
X204054924Y-153165437D02*
X204245400Y-153165437D01*
X204245400Y-153165437D02*
X204340638Y-153117818D01*
X204340638Y-153117818D02*
X204388257Y-153070198D01*
X204388257Y-153070198D02*
X204483495Y-152927341D01*
X204483495Y-152927341D02*
X204531114Y-152736865D01*
X204531114Y-152736865D02*
X204531114Y-152355913D01*
X204531114Y-152355913D02*
X204483495Y-152260675D01*
X204483495Y-152260675D02*
X204435876Y-152213056D01*
X204435876Y-152213056D02*
X204340638Y-152165437D01*
X204340638Y-152165437D02*
X204150162Y-152165437D01*
X204150162Y-152165437D02*
X204054924Y-152213056D01*
X204054924Y-152213056D02*
X204007305Y-152260675D01*
X204007305Y-152260675D02*
X203959686Y-152355913D01*
X203959686Y-152355913D02*
X203959686Y-152594008D01*
X203959686Y-152594008D02*
X204007305Y-152689246D01*
X204007305Y-152689246D02*
X204054924Y-152736865D01*
X204054924Y-152736865D02*
X204150162Y-152784484D01*
X204150162Y-152784484D02*
X204340638Y-152784484D01*
X204340638Y-152784484D02*
X204435876Y-152736865D01*
X204435876Y-152736865D02*
X204483495Y-152689246D01*
X204483495Y-152689246D02*
X204531114Y-152594008D01*
D11*
%TO.C,G\u002A\u002A\u002A*%
G36*
X207852936Y-187204574D02*
G01*
X208032248Y-187232892D01*
X208207709Y-187284239D01*
X208376901Y-187358805D01*
X208537405Y-187456781D01*
X208686806Y-187578359D01*
X208822684Y-187723728D01*
X208855915Y-187765993D01*
X208892095Y-187819004D01*
X208933620Y-187887963D01*
X208974099Y-187961958D01*
X208994199Y-188002089D01*
X209068489Y-188188510D01*
X209114967Y-188377691D01*
X209134696Y-188567331D01*
X209128738Y-188755133D01*
X209098156Y-188938796D01*
X209044011Y-189116022D01*
X208967365Y-189284513D01*
X208869282Y-189441968D01*
X208750823Y-189586088D01*
X208613050Y-189714576D01*
X208457026Y-189825130D01*
X208283812Y-189915454D01*
X208094472Y-189983246D01*
X208076579Y-189988190D01*
X208012990Y-190001165D01*
X207929805Y-190012234D01*
X207835355Y-190020885D01*
X207737972Y-190026603D01*
X207645989Y-190028876D01*
X207567738Y-190027191D01*
X207519626Y-190022490D01*
X207397098Y-189996179D01*
X207266549Y-189956960D01*
X207143323Y-189909628D01*
X207109239Y-189894167D01*
X206934916Y-189796162D01*
X206779902Y-189677909D01*
X206645032Y-189541923D01*
X206531141Y-189390716D01*
X206439064Y-189226800D01*
X206369636Y-189052688D01*
X206323692Y-188870892D01*
X206302067Y-188683925D01*
X206305595Y-188494299D01*
X206335111Y-188304528D01*
X206391451Y-188117123D01*
X206464726Y-187954554D01*
X206569906Y-187784192D01*
X206692994Y-187635142D01*
X206831571Y-187507596D01*
X206983221Y-187401744D01*
X207145526Y-187317778D01*
X207316067Y-187255887D01*
X207492428Y-187216262D01*
X207672190Y-187199094D01*
X207852936Y-187204574D01*
G37*
G36*
X207887376Y-190398536D02*
G01*
X208049067Y-190398773D01*
X208199555Y-190399152D01*
X208336495Y-190399660D01*
X208457542Y-190400282D01*
X208560353Y-190401005D01*
X208642582Y-190401816D01*
X208701885Y-190402701D01*
X208735918Y-190403647D01*
X208743457Y-190404362D01*
X208741515Y-190422962D01*
X208736055Y-190466547D01*
X208727630Y-190531074D01*
X208716790Y-190612500D01*
X208704089Y-190706779D01*
X208690076Y-190809870D01*
X208675304Y-190917726D01*
X208660324Y-191026306D01*
X208645688Y-191131565D01*
X208631948Y-191229458D01*
X208619654Y-191315943D01*
X208610317Y-191380451D01*
X208544920Y-191806863D01*
X208474371Y-192229709D01*
X208399487Y-192644806D01*
X208321087Y-193047969D01*
X208239989Y-193435017D01*
X208157011Y-193801765D01*
X208072971Y-194144030D01*
X208059926Y-194194530D01*
X208030547Y-194305711D01*
X208006466Y-194392164D01*
X207986352Y-194457718D01*
X207968874Y-194506199D01*
X207952702Y-194541434D01*
X207936504Y-194567251D01*
X207925789Y-194580291D01*
X207866961Y-194625236D01*
X207792251Y-194653181D01*
X207710593Y-194662728D01*
X207630922Y-194652478D01*
X207583238Y-194633910D01*
X207553802Y-194617247D01*
X207528766Y-194599116D01*
X207506886Y-194576515D01*
X207486919Y-194546438D01*
X207467621Y-194505882D01*
X207447749Y-194451842D01*
X207426059Y-194381313D01*
X207401307Y-194291291D01*
X207372251Y-194178772D01*
X207337645Y-194040751D01*
X207337535Y-194040308D01*
X207245645Y-193654398D01*
X207155933Y-193244365D01*
X207069341Y-192815377D01*
X206986814Y-192372598D01*
X206909295Y-191921194D01*
X206837728Y-191466331D01*
X206773055Y-191013174D01*
X206743344Y-190786856D01*
X206731459Y-190694206D01*
X206720320Y-190608686D01*
X206710633Y-190535621D01*
X206703107Y-190480339D01*
X206698448Y-190448167D01*
X206698111Y-190446088D01*
X206690196Y-190398454D01*
X207716827Y-190398454D01*
X207887376Y-190398536D01*
G37*
G36*
X209154797Y-190428977D02*
G01*
X209212777Y-190440812D01*
X209282082Y-190460477D01*
X209357482Y-190486785D01*
X209396213Y-190502216D01*
X209564943Y-190587619D01*
X209727823Y-190700182D01*
X209882917Y-190838018D01*
X210028292Y-190999235D01*
X210162012Y-191181945D01*
X210262824Y-191348673D01*
X210379156Y-191582974D01*
X210483620Y-191843426D01*
X210576112Y-192129327D01*
X210656523Y-192439977D01*
X210724747Y-192774675D01*
X210780678Y-193132721D01*
X210824210Y-193513414D01*
X210855235Y-193916053D01*
X210873648Y-194339937D01*
X210879341Y-194784367D01*
X210872208Y-195248641D01*
X210869437Y-195337750D01*
X210863497Y-195507552D01*
X210857845Y-195650769D01*
X210852238Y-195770125D01*
X210846429Y-195868344D01*
X210840174Y-195948149D01*
X210833227Y-196012264D01*
X210825344Y-196063414D01*
X210816278Y-196104320D01*
X210805785Y-196137709D01*
X210795128Y-196163136D01*
X210737179Y-196257260D01*
X210660441Y-196338456D01*
X210572376Y-196398972D01*
X210564027Y-196403199D01*
X210519808Y-196423198D01*
X210480223Y-196435482D01*
X210435451Y-196441862D01*
X210375669Y-196444151D01*
X210341034Y-196444328D01*
X210271229Y-196443296D01*
X210220879Y-196438992D01*
X210180163Y-196429605D01*
X210139258Y-196413323D01*
X210118041Y-196403199D01*
X210028921Y-196344624D01*
X209949777Y-196263683D01*
X209887131Y-196167120D01*
X209884395Y-196161694D01*
X209873626Y-196139201D01*
X209865469Y-196117906D01*
X209859660Y-196093658D01*
X209855931Y-196062311D01*
X209854016Y-196019716D01*
X209853649Y-195961724D01*
X209854563Y-195884186D01*
X209856491Y-195782955D01*
X209857364Y-195740808D01*
X209860188Y-195580605D01*
X209862269Y-195409832D01*
X209863630Y-195231954D01*
X209864293Y-195050439D01*
X209864281Y-194868751D01*
X209863617Y-194690358D01*
X209862324Y-194518724D01*
X209860424Y-194357315D01*
X209857940Y-194209599D01*
X209854896Y-194079040D01*
X209851312Y-193969104D01*
X209847214Y-193883258D01*
X209844950Y-193850099D01*
X209814199Y-193519739D01*
X209775839Y-193210629D01*
X209730119Y-192923984D01*
X209677285Y-192661018D01*
X209617584Y-192422946D01*
X209551264Y-192210984D01*
X209478571Y-192026345D01*
X209470236Y-192007842D01*
X209434722Y-191930076D01*
X209433521Y-193371360D01*
X209432321Y-194812644D01*
X209696625Y-198046836D01*
X209721681Y-198354000D01*
X209746096Y-198654428D01*
X209769761Y-198946734D01*
X209792568Y-199229531D01*
X209814407Y-199501432D01*
X209835169Y-199761051D01*
X209854745Y-200007001D01*
X209873026Y-200237895D01*
X209889903Y-200452347D01*
X209905267Y-200648969D01*
X209919009Y-200826376D01*
X209931020Y-200983181D01*
X209941190Y-201117996D01*
X209949411Y-201229436D01*
X209955574Y-201316113D01*
X209959570Y-201376641D01*
X209961289Y-201409633D01*
X209961351Y-201412938D01*
X209950207Y-201560020D01*
X209914779Y-201692783D01*
X209853562Y-201814883D01*
X209765050Y-201929972D01*
X209735381Y-201961226D01*
X209621324Y-202056546D01*
X209493773Y-202126311D01*
X209354743Y-202169836D01*
X209206253Y-202186439D01*
X209087730Y-202180564D01*
X208948687Y-202150072D01*
X208818907Y-202093680D01*
X208701611Y-202014171D01*
X208600023Y-201914329D01*
X208517368Y-201796940D01*
X208456867Y-201664786D01*
X208444083Y-201624641D01*
X208439645Y-201599873D01*
X208433327Y-201549672D01*
X208425102Y-201473741D01*
X208414944Y-201371781D01*
X208402828Y-201243493D01*
X208388726Y-201088580D01*
X208372613Y-200906743D01*
X208354462Y-200697683D01*
X208334247Y-200461102D01*
X208311942Y-200196702D01*
X208287521Y-199904184D01*
X208260957Y-199583249D01*
X208232224Y-199233600D01*
X208210013Y-198961881D01*
X207999441Y-196380549D01*
X208106569Y-195958082D01*
X208210786Y-195536548D01*
X208311906Y-195106711D01*
X208409387Y-194671551D01*
X208502691Y-194234043D01*
X208591279Y-193797165D01*
X208674609Y-193363896D01*
X208752143Y-192937212D01*
X208823341Y-192520092D01*
X208887663Y-192115512D01*
X208944570Y-191726450D01*
X208993522Y-191355884D01*
X209033980Y-191006791D01*
X209065403Y-190682149D01*
X209067710Y-190654946D01*
X209074532Y-190579582D01*
X209081399Y-190514265D01*
X209087633Y-190464783D01*
X209092552Y-190436920D01*
X209093722Y-190433544D01*
X209113369Y-190426159D01*
X209154797Y-190428977D01*
G37*
G36*
X206343429Y-190423147D02*
G01*
X206350404Y-190440484D01*
X206354193Y-190475791D01*
X206354421Y-190487694D01*
X206356180Y-190525950D01*
X206361172Y-190589326D01*
X206368965Y-190673855D01*
X206379129Y-190775572D01*
X206391233Y-190890514D01*
X206404849Y-191014714D01*
X206419544Y-191144207D01*
X206434889Y-191275030D01*
X206450453Y-191403216D01*
X206465807Y-191524801D01*
X206472798Y-191578316D01*
X206569509Y-192252404D01*
X206683787Y-192946042D01*
X206814971Y-193655822D01*
X206962401Y-194378338D01*
X207125416Y-195110183D01*
X207292657Y-195805132D01*
X207436589Y-196382438D01*
X207225767Y-198963643D01*
X207196071Y-199326305D01*
X207168563Y-199660264D01*
X207143198Y-199966044D01*
X207119931Y-200244172D01*
X207098714Y-200495170D01*
X207079501Y-200719566D01*
X207062246Y-200917882D01*
X207046903Y-201090644D01*
X207033425Y-201238378D01*
X207021767Y-201361607D01*
X207011881Y-201460857D01*
X207003722Y-201536652D01*
X206997243Y-201589518D01*
X206992398Y-201619979D01*
X206991076Y-201625459D01*
X206935736Y-201763701D01*
X206857313Y-201887189D01*
X206758694Y-201993047D01*
X206642765Y-202078397D01*
X206512412Y-202140361D01*
X206457018Y-202157916D01*
X206346027Y-202180889D01*
X206236288Y-202186649D01*
X206149228Y-202180747D01*
X206009453Y-202151410D01*
X205878638Y-202095836D01*
X205759947Y-202016521D01*
X205656546Y-201915963D01*
X205571600Y-201796658D01*
X205515685Y-201680879D01*
X205509152Y-201663844D01*
X205503199Y-201646896D01*
X205497895Y-201628905D01*
X205493311Y-201608742D01*
X205489515Y-201585278D01*
X205486579Y-201557382D01*
X205484571Y-201523925D01*
X205483563Y-201483778D01*
X205483622Y-201435811D01*
X205484821Y-201378895D01*
X205487227Y-201311900D01*
X205490912Y-201233697D01*
X205495945Y-201143155D01*
X205502396Y-201039146D01*
X205510335Y-200920541D01*
X205519832Y-200786208D01*
X205530956Y-200635020D01*
X205543778Y-200465846D01*
X205558367Y-200277558D01*
X205574793Y-200069024D01*
X205593127Y-199839117D01*
X205613437Y-199586706D01*
X205635795Y-199310661D01*
X205660269Y-199009854D01*
X205686929Y-198683155D01*
X205715846Y-198329434D01*
X205745221Y-197970400D01*
X206017318Y-194645116D01*
X206017318Y-193291260D01*
X206017173Y-193064556D01*
X206016749Y-192854705D01*
X206016057Y-192663023D01*
X206015112Y-192490827D01*
X206013926Y-192339432D01*
X206012513Y-192210156D01*
X206010885Y-192104315D01*
X206009057Y-192023224D01*
X206007040Y-191968201D01*
X206004849Y-191940561D01*
X206003773Y-191937404D01*
X205992150Y-191950640D01*
X205973555Y-191987313D01*
X205949724Y-192042872D01*
X205922394Y-192112762D01*
X205893302Y-192192433D01*
X205864185Y-192277330D01*
X205836778Y-192362903D01*
X205820027Y-192419078D01*
X205765952Y-192628430D01*
X205716789Y-192862365D01*
X205673247Y-193116454D01*
X205636032Y-193386270D01*
X205605853Y-193667385D01*
X205590098Y-193857427D01*
X205585454Y-193938841D01*
X205581397Y-194046040D01*
X205577952Y-194175498D01*
X205575142Y-194323693D01*
X205572990Y-194487100D01*
X205571519Y-194662194D01*
X205570755Y-194845454D01*
X205570719Y-195033353D01*
X205571435Y-195222369D01*
X205572928Y-195408977D01*
X205575221Y-195589653D01*
X205577618Y-195726152D01*
X205579783Y-195839665D01*
X205581028Y-195927925D01*
X205581126Y-195994985D01*
X205579849Y-196044897D01*
X205576972Y-196081714D01*
X205572268Y-196109487D01*
X205565509Y-196132270D01*
X205556469Y-196154115D01*
X205553275Y-196161098D01*
X205498560Y-196249814D01*
X205423518Y-196329995D01*
X205337131Y-196392466D01*
X205315872Y-196403722D01*
X205272023Y-196423495D01*
X205232459Y-196435634D01*
X205187396Y-196441927D01*
X205127051Y-196444166D01*
X205093948Y-196444328D01*
X205021355Y-196443014D01*
X204968951Y-196438107D01*
X204927691Y-196428157D01*
X204888530Y-196411715D01*
X204887647Y-196411281D01*
X204783060Y-196344577D01*
X204699811Y-196257859D01*
X204655724Y-196188388D01*
X204640891Y-196158816D01*
X204628277Y-196128424D01*
X204617595Y-196094429D01*
X204608558Y-196054051D01*
X204600880Y-196004508D01*
X204594276Y-195943017D01*
X204588459Y-195866797D01*
X204583142Y-195773067D01*
X204578040Y-195659044D01*
X204572866Y-195521947D01*
X204567333Y-195358994D01*
X204565921Y-195315765D01*
X204556940Y-194852584D01*
X204560617Y-194408448D01*
X204576835Y-193984163D01*
X204605479Y-193580532D01*
X204646432Y-193198359D01*
X204699579Y-192838448D01*
X204764804Y-192501604D01*
X204841991Y-192188631D01*
X204931023Y-191900332D01*
X205031786Y-191637513D01*
X205125044Y-191437732D01*
X205240293Y-191235334D01*
X205369774Y-191049991D01*
X205511228Y-190884064D01*
X205662392Y-190739912D01*
X205821007Y-190619896D01*
X205984810Y-190526376D01*
X206008791Y-190515186D01*
X206061244Y-190493916D01*
X206123477Y-190472437D01*
X206188729Y-190452608D01*
X206250236Y-190436288D01*
X206301237Y-190425337D01*
X206334970Y-190421616D01*
X206343429Y-190423147D01*
G37*
D10*
%TO.C,RST1*%
X204718141Y-173595618D02*
X204718140Y-173845618D01*
X204718141Y-177095618D02*
X204718141Y-176845619D01*
X210718139Y-173595618D02*
X204718141Y-173595618D01*
X210718139Y-173595618D02*
X210718139Y-173845617D01*
X210718139Y-177095618D02*
X204718141Y-177095618D01*
X210718139Y-177095618D02*
X210718140Y-176845618D01*
D12*
%TO.C,MCU1*%
X198768144Y-171820618D02*
X201428147Y-171820618D01*
X198768146Y-138680618D02*
X198768144Y-171820618D01*
X198768146Y-138680618D02*
X201428147Y-138680618D01*
X201428147Y-138680618D02*
X201428147Y-171820618D01*
X214008143Y-138680618D02*
X214008143Y-171820618D01*
X214008143Y-138680618D02*
X216668146Y-138680618D01*
X214008143Y-171820618D02*
X216668144Y-171820618D01*
X214008144Y-141220618D02*
X216668146Y-141220618D01*
X216668146Y-138680618D02*
X216668144Y-171820618D01*
%TD*%
M02*
