%TF.GenerationSoftware,KiCad,Pcbnew,8.0.7*%
%TF.CreationDate,2024-12-25T21:28:18-05:00*%
%TF.ProjectId,mx,6d782e6b-6963-4616-945f-706362585858,v1.0.0*%
%TF.SameCoordinates,Original*%
%TF.FileFunction,Soldermask,Top*%
%TF.FilePolarity,Negative*%
%FSLAX46Y46*%
G04 Gerber Fmt 4.6, Leading zero omitted, Abs format (unit mm)*
G04 Created by KiCad (PCBNEW 8.0.7) date 2024-12-25 21:28:18*
%MOMM*%
%LPD*%
G01*
G04 APERTURE LIST*
%ADD10C,0.700000*%
%ADD11C,4.400000*%
%ADD12C,1.700000*%
%ADD13C,1.900000*%
%ADD14C,3.000000*%
%ADD15C,4.100000*%
G04 APERTURE END LIST*
D10*
%TO.C,_69*%
X271608388Y-177915241D03*
X271553304Y-176653589D03*
X272539466Y-178768413D03*
X272406476Y-175722511D03*
D11*
X273103797Y-177217920D03*
D10*
X273801118Y-178713329D03*
X273668128Y-175667427D03*
X274654290Y-177782251D03*
X274599206Y-176520599D03*
%TD*%
%TO.C,_68*%
X141893621Y-174254836D03*
X141838537Y-175516489D03*
X142824698Y-173401664D03*
X144086351Y-173456748D03*
D11*
X143389030Y-174952157D03*
D10*
X142691709Y-176447566D03*
X143953362Y-176502650D03*
X144939523Y-174387825D03*
X144884439Y-175649478D03*
%TD*%
D12*
%TO.C,RST1*%
X204468140Y-175345620D03*
X210968140Y-175345616D03*
%TD*%
D10*
%TO.C,_70*%
X335365181Y-134337575D03*
X335310097Y-133075923D03*
X336296259Y-135190747D03*
X336163269Y-132144845D03*
D11*
X336860590Y-133640254D03*
D10*
X337557911Y-135135663D03*
X337424921Y-132089761D03*
X338411083Y-134204585D03*
X338355999Y-132942933D03*
%TD*%
%TO.C,_65*%
X166046259Y-122459343D03*
X165991175Y-123720996D03*
X166977336Y-121606171D03*
X168238989Y-121661255D03*
D11*
X167541668Y-123156664D03*
D10*
X166844347Y-124652073D03*
X168106000Y-124707157D03*
X169092161Y-122592332D03*
X169037077Y-123853985D03*
%TD*%
%TO.C,_72*%
X247455756Y-126119755D03*
X247400672Y-124858103D03*
X248386834Y-126972927D03*
X248253844Y-123927025D03*
D11*
X248951165Y-125422434D03*
D10*
X249648486Y-126917843D03*
X249515496Y-123871941D03*
X250501658Y-125986765D03*
X250446574Y-124725113D03*
%TD*%
%TO.C,_71*%
X319263425Y-99807243D03*
X319208341Y-98545591D03*
X320194503Y-100660415D03*
X320061513Y-97614513D03*
D11*
X320758834Y-99109922D03*
D10*
X321456155Y-100605331D03*
X321323165Y-97559429D03*
X322309327Y-99674253D03*
X322254243Y-98412601D03*
%TD*%
D12*
%TO.C,MCU1*%
X215338143Y-140010617D03*
X215338145Y-142550618D03*
X215338143Y-145090618D03*
X215338144Y-147630617D03*
X215338146Y-150170618D03*
X215338145Y-152710618D03*
X215338146Y-155250618D03*
X215338144Y-157790618D03*
X215338146Y-160330619D03*
X215338146Y-162870617D03*
X215338144Y-165410618D03*
X215338145Y-167950618D03*
X215338144Y-170490618D03*
X200098147Y-170490619D03*
X200098145Y-167950618D03*
X200098147Y-165410618D03*
X200098146Y-162870619D03*
X200098144Y-160330618D03*
X200098145Y-157790618D03*
X200098144Y-155250618D03*
X200098146Y-152710618D03*
X200098144Y-150170617D03*
X200098144Y-147630619D03*
X200098146Y-145090618D03*
X200098145Y-142550618D03*
X200098146Y-140010618D03*
%TD*%
D10*
%TO.C,_67*%
X77080285Y-132942927D03*
X77025201Y-134204580D03*
X78011362Y-132089755D03*
X79273015Y-132144839D03*
D11*
X78575694Y-133640248D03*
D10*
X77878373Y-135135657D03*
X79140026Y-135190741D03*
X80126187Y-133075916D03*
X80071103Y-134337569D03*
%TD*%
%TO.C,_66*%
X93182040Y-98412602D03*
X93126956Y-99674255D03*
X94113117Y-97559430D03*
X95374770Y-97614514D03*
D11*
X94677449Y-99109923D03*
D10*
X93980128Y-100605332D03*
X95241781Y-100660416D03*
X96227942Y-98545591D03*
X96172858Y-99807244D03*
%TD*%
D13*
%TO.C,S19*%
X126126970Y-177412395D03*
D14*
X128351433Y-175647100D03*
D15*
X130731014Y-179559296D03*
D14*
X135179937Y-176028703D03*
D13*
X135335058Y-181706197D03*
%TD*%
%TO.C,S27*%
X174539100Y-118668388D03*
D14*
X176763563Y-116903093D03*
D15*
X179143144Y-120815289D03*
D14*
X183592067Y-117284696D03*
D13*
X183747188Y-122962190D03*
%TD*%
%TO.C,S35*%
X319598528Y-131180006D03*
D14*
X319676090Y-128341258D03*
D15*
X324202572Y-129033105D03*
D14*
X324357693Y-123355612D03*
D13*
X328806616Y-126886204D03*
%TD*%
%TO.C,S14*%
X109918348Y-167095750D03*
D14*
X112142811Y-165330455D03*
D15*
X114522392Y-169242651D03*
D14*
X118971315Y-165712058D03*
D13*
X119126436Y-171389552D03*
%TD*%
%TO.C,S41*%
X290478917Y-113808950D03*
D14*
X290556479Y-110970202D03*
D15*
X295082961Y-111662049D03*
D14*
X295238082Y-105984556D03*
D13*
X299687005Y-109515148D03*
%TD*%
%TO.C,S7*%
X94680545Y-109621042D03*
D14*
X96905008Y-107855747D03*
D15*
X99284589Y-111767943D03*
D14*
X103733512Y-108237350D03*
D13*
X103888633Y-113914844D03*
%TD*%
%TO.C,S39*%
X306580675Y-148339277D03*
D14*
X306658237Y-145500529D03*
D15*
X311184719Y-146192376D03*
D14*
X311339840Y-140514883D03*
D13*
X315788763Y-144045475D03*
%TD*%
%TO.C,S45*%
X280208089Y-136859222D03*
D14*
X280285651Y-134020474D03*
D15*
X284812133Y-134712321D03*
D14*
X284967254Y-129034828D03*
D13*
X289416177Y-132565420D03*
%TD*%
%TO.C,S21*%
X142228722Y-142882068D03*
D14*
X144453185Y-141116773D03*
D15*
X146832766Y-145028969D03*
D14*
X151281689Y-141498376D03*
D13*
X151436810Y-147175870D03*
%TD*%
%TO.C,S31*%
X336863693Y-123129129D03*
D14*
X336941255Y-120290381D03*
D15*
X341467737Y-120982228D03*
D14*
X341622858Y-115304735D03*
D13*
X346071781Y-118835327D03*
%TD*%
%TO.C,S11*%
X107698398Y-126780314D03*
D14*
X109922861Y-125015019D03*
D15*
X112302442Y-128927215D03*
D14*
X116751365Y-125396622D03*
D13*
X116906486Y-131074116D03*
%TD*%
%TO.C,S58*%
X245780753Y-203681934D03*
D14*
X248277958Y-202329731D03*
D15*
X249942043Y-206595702D03*
D14*
X254936458Y-203891293D03*
D13*
X254103333Y-209509470D03*
%TD*%
%TO.C,S6*%
X86629669Y-126886203D03*
D14*
X88854132Y-125120908D03*
D15*
X91233713Y-129033104D03*
D14*
X95682636Y-125502511D03*
D13*
X95837757Y-131180005D03*
%TD*%
%TO.C,S54*%
X247790854Y-157492517D03*
D14*
X247868416Y-154653769D03*
D15*
X252394898Y-155345616D03*
D14*
X252550019Y-149668123D03*
D13*
X256998942Y-153198715D03*
%TD*%
%TO.C,S12*%
X115749274Y-109515153D03*
D14*
X117973737Y-107749858D03*
D15*
X120353318Y-111662054D03*
D14*
X124802241Y-108131461D03*
D13*
X124957362Y-113808955D03*
%TD*%
%TO.C,S24*%
X150386462Y-170463879D03*
D14*
X152610925Y-168698584D03*
D15*
X154990506Y-172610780D03*
D14*
X159439429Y-169080187D03*
D13*
X159594550Y-174757681D03*
%TD*%
%TO.C,S34*%
X327649403Y-148445169D03*
D14*
X327726965Y-145606421D03*
D15*
X332253447Y-146298268D03*
D14*
X332408568Y-140620775D03*
D13*
X336857491Y-144151367D03*
%TD*%
%TO.C,S52*%
X247897716Y-112645543D03*
D14*
X247975278Y-109806795D03*
D15*
X252501760Y-110498642D03*
D14*
X252656881Y-104821149D03*
D13*
X257105804Y-108351741D03*
%TD*%
%TO.C,S49*%
X272050348Y-164441035D03*
D14*
X272127910Y-161602287D03*
D15*
X276654392Y-162294134D03*
D14*
X276809513Y-156616641D03*
D13*
X281258436Y-160147233D03*
%TD*%
%TO.C,S20*%
X134177843Y-160147231D03*
D14*
X136402306Y-158381936D03*
D15*
X138781887Y-162294132D03*
D14*
X143230810Y-158763539D03*
D13*
X143385931Y-164441033D03*
%TD*%
%TO.C,S51*%
X255948592Y-129910707D03*
D14*
X256026154Y-127071959D03*
D15*
X260552636Y-127763806D03*
D14*
X260707757Y-122086313D03*
D13*
X265156680Y-125616905D03*
%TD*%
%TO.C,S47*%
X264106333Y-102328895D03*
D14*
X264183895Y-99490147D03*
D15*
X268710377Y-100181994D03*
D14*
X268865498Y-94504501D03*
D13*
X273314421Y-98035093D03*
%TD*%
%TO.C,S53*%
X255841731Y-174757683D03*
D14*
X255919293Y-171918935D03*
D15*
X260445775Y-172610782D03*
D14*
X260600896Y-166933289D03*
D13*
X265049819Y-170463881D03*
%TD*%
%TO.C,S23*%
X158330479Y-108351743D03*
D14*
X160554942Y-106586448D03*
D15*
X162934523Y-110498644D03*
D14*
X167383446Y-106968051D03*
D13*
X167538567Y-112645545D03*
%TD*%
%TO.C,S33*%
X320761938Y-88598803D03*
D14*
X320839500Y-85760055D03*
D15*
X325365982Y-86451902D03*
D14*
X325521103Y-80774409D03*
D13*
X329970026Y-84305001D03*
%TD*%
%TO.C,S26*%
X166488218Y-135933552D03*
D14*
X168712681Y-134168257D03*
D15*
X171092262Y-138080453D03*
D14*
X175541185Y-134549860D03*
D13*
X175696306Y-140227354D03*
%TD*%
%TO.C,S15*%
X117969233Y-149830584D03*
D14*
X120193696Y-148065289D03*
D15*
X122573277Y-151977485D03*
D14*
X127022200Y-148446892D03*
D13*
X127177321Y-154124386D03*
%TD*%
%TO.C,S46*%
X272157205Y-119594061D03*
D14*
X272234767Y-116755313D03*
D15*
X276761249Y-117447160D03*
D14*
X276916370Y-111769667D03*
D13*
X281365293Y-115300259D03*
%TD*%
%TO.C,S57*%
X263329436Y-196958167D03*
D14*
X262291643Y-194314782D03*
D15*
X266728619Y-193182991D03*
D14*
X264653034Y-187896221D03*
D13*
X270127802Y-189407815D03*
%TD*%
%TO.C,S36*%
X311547645Y-113914845D03*
D14*
X311625207Y-111076097D03*
D15*
X316151689Y-111767944D03*
D14*
X316306810Y-106090451D03*
D13*
X320755733Y-109621043D03*
%TD*%
%TO.C,S3*%
X77415385Y-101570165D03*
D14*
X79639848Y-99804870D03*
D15*
X82019429Y-103717066D03*
D14*
X86468352Y-100186473D03*
D13*
X86623473Y-105863967D03*
%TD*%
%TO.C,S18*%
X142121863Y-98035097D03*
D14*
X144346326Y-96269802D03*
D15*
X146725907Y-100181998D03*
D14*
X151174830Y-96651405D03*
D13*
X151329951Y-102328899D03*
%TD*%
%TO.C,S48*%
X280101227Y-181706200D03*
D14*
X280178789Y-178867452D03*
D15*
X284705271Y-179559299D03*
D14*
X284860392Y-173881806D03*
D13*
X289309315Y-177412398D03*
%TD*%
%TO.C,S28*%
X145308479Y-189407817D03*
D14*
X148045862Y-188652018D03*
D15*
X148707662Y-193182993D03*
D14*
X154182427Y-191671397D03*
D13*
X152106845Y-196958169D03*
%TD*%
%TO.C,S42*%
X282428041Y-96543789D03*
D14*
X282505603Y-93705041D03*
D15*
X287032085Y-94396888D03*
D14*
X287187206Y-88719395D03*
D13*
X291636129Y-92249987D03*
%TD*%
%TO.C,S13*%
X123800150Y-92249986D03*
D14*
X126024613Y-90484691D03*
D15*
X128404194Y-94396887D03*
D14*
X132853117Y-90866294D03*
D13*
X133008238Y-96543788D03*
%TD*%
%TO.C,S38*%
X314631549Y-165604443D03*
D14*
X314709111Y-162765695D03*
D15*
X319235593Y-163457542D03*
D14*
X319390714Y-157780049D03*
D13*
X323839637Y-161310641D03*
%TD*%
%TO.C,S4*%
X85466261Y-84305001D03*
D14*
X87690724Y-82539706D03*
D15*
X90070305Y-86451902D03*
D14*
X94519228Y-82921309D03*
D13*
X94674349Y-88598803D03*
%TD*%
%TO.C,S8*%
X102731427Y-92355879D03*
D14*
X104955890Y-90590584D03*
D15*
X107335471Y-94502780D03*
D14*
X111784394Y-90972187D03*
D13*
X111939515Y-96649681D03*
%TD*%
%TO.C,S17*%
X134070985Y-115300259D03*
D14*
X136295448Y-113534964D03*
D15*
X138675029Y-117447160D03*
D14*
X143123952Y-113916567D03*
D13*
X143279073Y-119594061D03*
%TD*%
%TO.C,S16*%
X126020106Y-132565421D03*
D14*
X128244569Y-130800126D03*
D15*
X130624150Y-134712322D03*
D14*
X135073073Y-131181729D03*
D13*
X135228194Y-136859223D03*
%TD*%
%TO.C,S29*%
X161332947Y-209509472D03*
D14*
X160916387Y-206700385D03*
D15*
X165494240Y-206595705D03*
D14*
X164661118Y-200977528D03*
D13*
X169655533Y-203681938D03*
%TD*%
%TO.C,S5*%
X78578792Y-144151371D03*
D14*
X80803255Y-142386076D03*
D15*
X83182836Y-146298272D03*
D14*
X87631759Y-142767679D03*
D13*
X87786880Y-148445173D03*
%TD*%
%TO.C,S30*%
X344914567Y-140394292D03*
D14*
X344992129Y-137555544D03*
D15*
X349518611Y-138247391D03*
D14*
X349673732Y-132569898D03*
D13*
X354122655Y-136100490D03*
%TD*%
%TO.C,S2*%
X69364509Y-118835326D03*
D14*
X71588972Y-117070031D03*
D15*
X73968553Y-120982227D03*
D14*
X78417476Y-117451634D03*
D13*
X78572597Y-123129128D03*
%TD*%
%TO.C,S37*%
X303496771Y-96649679D03*
D14*
X303574333Y-93810931D03*
D15*
X308100815Y-94502778D03*
D14*
X308255936Y-88825285D03*
D13*
X312704859Y-92355877D03*
%TD*%
%TO.C,S44*%
X288258965Y-154124387D03*
D14*
X288336527Y-151285639D03*
D15*
X292863009Y-151977486D03*
D14*
X293018130Y-146299993D03*
D13*
X297467053Y-149830585D03*
%TD*%
%TO.C,S56*%
X231689100Y-122962192D03*
D14*
X231766662Y-120123444D03*
D15*
X236293144Y-120815291D03*
D14*
X236448265Y-115137798D03*
D13*
X240897188Y-118668390D03*
%TD*%
%TO.C,S25*%
X158437341Y-153198715D03*
D14*
X160661804Y-151433420D03*
D15*
X163041385Y-155345616D03*
D14*
X167490308Y-151815023D03*
D13*
X167645429Y-157492517D03*
%TD*%
%TO.C,S55*%
X239739973Y-140227356D03*
D14*
X239817535Y-137388608D03*
D15*
X244344017Y-138080455D03*
D14*
X244499138Y-132402962D03*
D13*
X248948061Y-135933554D03*
%TD*%
%TO.C,S10*%
X99647521Y-144045478D03*
D14*
X101871984Y-142280183D03*
D15*
X104251565Y-146192379D03*
D14*
X108700488Y-142661786D03*
D13*
X108855609Y-148339280D03*
%TD*%
%TO.C,S1*%
X61313630Y-136100491D03*
D14*
X63538093Y-134335196D03*
D15*
X65917674Y-138247392D03*
D14*
X70366597Y-134716799D03*
D13*
X70521718Y-140394293D03*
%TD*%
%TO.C,S9*%
X91596640Y-161310638D03*
D14*
X93821103Y-159545343D03*
D15*
X96200684Y-163457539D03*
D14*
X100649607Y-159926946D03*
D13*
X100804728Y-165604440D03*
%TD*%
%TO.C,S40*%
X298529797Y-131074112D03*
D14*
X298607359Y-128235364D03*
D15*
X303133841Y-128927211D03*
D14*
X303288962Y-123249718D03*
D13*
X307737885Y-126780310D03*
%TD*%
%TO.C,S50*%
X263999471Y-147175869D03*
D14*
X264077033Y-144337121D03*
D15*
X268603515Y-145028968D03*
D14*
X268758636Y-139351475D03*
D13*
X273207559Y-142882067D03*
%TD*%
%TO.C,S43*%
X296309845Y-171389549D03*
D14*
X296387407Y-168550801D03*
D15*
X300913889Y-169242648D03*
D14*
X301069010Y-163565155D03*
D13*
X305517933Y-167095747D03*
%TD*%
%TO.C,S32*%
X328812809Y-105863968D03*
D14*
X328890371Y-103025220D03*
D15*
X333416853Y-103717067D03*
D14*
X333571974Y-98039574D03*
D13*
X338020897Y-101570166D03*
%TD*%
%TO.C,S22*%
X150279600Y-125616905D03*
D14*
X152504063Y-123851610D03*
D15*
X154883644Y-127763806D03*
D14*
X159332567Y-124233213D03*
D13*
X159487688Y-129910707D03*
%TD*%
M02*
