M48
; DRILL file {KiCad 8.0.7} date 2024-12-25T21:28:24-0500
; FORMAT={-:-/ absolute / metric / decimal}
; #@! TF.CreationDate,2024-12-25T21:28:24-05:00
; #@! TF.GenerationSoftware,Kicad,Pcbnew,8.0.7
; #@! TF.FileFunction,Plated,1,2,PTH
FMAT,2
METRIC
; #@! TA.AperFunction,Plated,PTH,ComponentDrill
T1C0.300
; #@! TA.AperFunction,Plated,PTH,ComponentDrill
T2C0.400
; #@! TA.AperFunction,Plated,PTH,ComponentDrill
T3C1.000
; #@! TA.AperFunction,Plated,PTH,ComponentDrill
T4C2.200
%
G90
G05
T1
X71.727Y-145.37
X79.778Y-128.105
X87.829Y-110.839
X88.992Y-153.421
X95.88Y-93.574
X97.043Y-136.156
X102.01Y-170.58
X105.094Y-118.89
X110.061Y-153.315
X113.145Y-101.625
X118.112Y-136.05
X120.332Y-176.365
X126.163Y-118.784
X127.584Y-124.468
X128.382Y-159.1
X134.213Y-101.519
X136.433Y-141.835
X136.54Y-186.682
X143.793Y-134.784
X144.484Y-124.57
X144.591Y-169.417
X151.272Y-202.009
X152.535Y-107.304
X152.642Y-152.151
X160.001Y-145.101
X160.693Y-134.886
X160.8Y-179.733
X168.744Y-117.621
X168.851Y-162.468
X173.942Y-151.55
X174.567Y-205.126
X174.979Y-149.327
X176.035Y-147.061
X176.901Y-145.203
X184.952Y-127.938
X230.484Y-127.938
X238.535Y-145.203
X239.401Y-147.061
X240.458Y-149.327
X241.514Y-151.592
X245.483Y-120.943
X246.586Y-162.468
X253.534Y-138.209
X254.426Y-214.619
X254.637Y-179.733
X261.585Y-155.474
X261.692Y-110.627
X269.636Y-172.739
X269.743Y-127.892
X275.238Y-189.71
X277.794Y-145.157
X277.901Y-100.31
X285.845Y-162.422
X285.951Y-117.575
X292.265Y-122.383
X293.895Y-179.687
X294.002Y-134.84
X296.222Y-94.525
X302.053Y-152.106
X304.273Y-111.79
X310.104Y-169.371
X312.324Y-129.055
X313.333Y-122.488
X317.291Y-94.631
X320.375Y-146.32
X325.342Y-111.896
X328.426Y-163.586
X330.598Y-114.438
X333.393Y-129.161
X334.556Y-86.58
X341.444Y-146.426
X342.607Y-103.845
X350.658Y-121.11
X358.709Y-138.375
T2
X77.025Y-134.205
X77.08Y-132.943
X77.878Y-135.136
X78.011Y-132.09
X79.14Y-135.191
X79.273Y-132.145
X80.071Y-134.338
X80.126Y-133.076
X93.127Y-99.674
X93.182Y-98.413
X93.98Y-100.605
X94.113Y-97.559
X95.242Y-100.66
X95.375Y-97.615
X96.173Y-99.807
X96.228Y-98.546
X141.839Y-175.516
X141.894Y-174.255
X142.692Y-176.448
X142.825Y-173.402
X143.953Y-176.503
X144.086Y-173.457
X144.884Y-175.649
X144.94Y-174.388
X165.991Y-123.721
X166.046Y-122.459
X166.844Y-124.652
X166.977Y-121.606
X168.106Y-124.707
X168.239Y-121.661
X169.037Y-123.854
X169.092Y-122.592
X247.401Y-124.858
X247.456Y-126.12
X248.254Y-123.927
X248.387Y-126.973
X249.515Y-123.872
X249.648Y-126.918
X250.447Y-124.725
X250.502Y-125.987
X271.553Y-176.654
X271.608Y-177.915
X272.406Y-175.723
X272.539Y-178.768
X273.668Y-175.667
X273.801Y-178.713
X274.599Y-176.521
X274.654Y-177.782
X319.208Y-98.546
X319.263Y-99.807
X320.062Y-97.615
X320.195Y-100.66
X321.323Y-97.559
X321.456Y-100.605
X322.254Y-98.413
X322.309Y-99.674
X335.31Y-133.076
X335.365Y-134.338
X336.163Y-132.145
X336.296Y-135.191
X337.425Y-132.09
X337.558Y-135.136
X338.356Y-132.943
X338.411Y-134.205
T3
X200.098Y-147.631
X200.098Y-150.171
X200.098Y-155.251
X200.098Y-160.331
X200.098Y-142.551
X200.098Y-157.791
X200.098Y-167.951
X200.098Y-140.011
X200.098Y-145.091
X200.098Y-152.711
X200.098Y-162.871
X200.098Y-165.411
X200.098Y-170.491
X204.468Y-175.346
X210.968Y-175.346
X215.338Y-140.011
X215.338Y-145.091
X215.338Y-147.631
X215.338Y-157.791
X215.338Y-165.411
X215.338Y-170.491
X215.338Y-142.551
X215.338Y-152.711
X215.338Y-167.951
X215.338Y-150.171
X215.338Y-155.251
X215.338Y-160.331
X215.338Y-162.871
T4
X78.576Y-133.64
X94.677Y-99.11
X143.389Y-174.952
X167.542Y-123.157
X248.951Y-125.422
X273.104Y-177.218
X320.759Y-99.11
X336.861Y-133.64
M30
