%TF.GenerationSoftware,KiCad,Pcbnew,8.0.7*%
%TF.CreationDate,2024-12-25T21:28:27-05:00*%
%TF.ProjectId,mx,6d782e6b-6963-4616-945f-706362585858,v1.0.0*%
%TF.SameCoordinates,Original*%
%TF.FileFunction,Drillmap*%
%TF.FilePolarity,Positive*%
%FSLAX45Y45*%
G04 Gerber Fmt 4.5, Leading zero omitted, Abs format (unit mm)*
G04 Created by KiCad (PCBNEW 8.0.7) date 2024-12-25 21:28:27*
%MOMM*%
%LPD*%
G01*
G04 APERTURE LIST*
%ADD10C,0.150000*%
%ADD11C,0.200000*%
%ADD12C,0.100000*%
%ADD13C,0.220000*%
G04 APERTURE END LIST*
D10*
X14048078Y-8347818D02*
X12249127Y-7779796D01*
X22299017Y-13202224D02*
X19244612Y-13202224D01*
X25803076Y-22397092D02*
X26756733Y-21099194D01*
X33617872Y-16926740D02*
X36438710Y-14578435D01*
X13343414Y-19493834D02*
X14768083Y-21076090D01*
X19356753Y-11334381D02*
G75*
G02*
X19467559Y-11714249I-161073J-253079D01*
G01*
X13247406Y-19422751D02*
G75*
G02*
X13343412Y-19493835I-126946J-271829D01*
G01*
X14786895Y-21099194D02*
X15740552Y-22397092D01*
X5104919Y-14578436D02*
G75*
G02*
X5024968Y-14221089I191961J230566D01*
G01*
X26756733Y-21099194D02*
G75*
G02*
X26775546Y-21076090I241797J-177676D01*
G01*
X7990760Y-16967999D02*
G75*
G02*
X7925755Y-16926741I126990J271919D01*
G01*
X7990760Y-16967999D02*
X13247406Y-19422751D01*
X18216333Y-21021408D02*
G75*
G02*
X18388406Y-20967153I172057J-245692D01*
G01*
X32909969Y-7028887D02*
G75*
G02*
X33242745Y-7195858I60891J-293743D01*
G01*
X29294502Y-7779796D02*
X27495550Y-8347818D01*
X8300884Y-7195859D02*
G75*
G02*
X8633661Y-7028881I271896J-126781D01*
G01*
X14048078Y-8347818D02*
G75*
G02*
X14084534Y-8362003I-90398J-286262D01*
G01*
X22570909Y-12775439D02*
G75*
G02*
X22299017Y-13202224I-271899J-126781D01*
G01*
X12219681Y-7772117D02*
G75*
G02*
X12249126Y-7779796I-60961J-294023D01*
G01*
X25190022Y-9422903D02*
X22186875Y-11334381D01*
X36518662Y-14221087D02*
G75*
G02*
X36438707Y-14578432I-271892J-126783D01*
G01*
X33617872Y-16926740D02*
G75*
G02*
X33552868Y-16967999I-191832J230400D01*
G01*
X19244612Y-13202224D02*
G75*
G02*
X18972709Y-12775434I-22J299994D01*
G01*
X16319306Y-9404095D02*
G75*
G02*
X16353606Y-9422904I-126806J-271925D01*
G01*
X22076068Y-11714250D02*
X22570909Y-12775439D01*
X26775545Y-21076090D02*
X28200215Y-19493834D01*
X16154381Y-22465203D02*
G75*
G02*
X15740557Y-22397088I-172071J245733D01*
G01*
X36518662Y-14221087D02*
X33242744Y-7195859D01*
X5104919Y-14578436D02*
X7925756Y-16926740D01*
X27459094Y-8362003D02*
G75*
G02*
X27495550Y-8347818I126806J-271937D01*
G01*
X25190022Y-9422903D02*
G75*
G02*
X25224322Y-9404095I161148J-253197D01*
G01*
X14768083Y-21076090D02*
G75*
G02*
X14786895Y-21099194I-223293J-201030D01*
G01*
X16154381Y-22465203D02*
X18216333Y-21021408D01*
X18388406Y-20967154D02*
X23155222Y-20967154D01*
X22076068Y-11714250D02*
G75*
G02*
X22186871Y-11334376I271892J126791D01*
G01*
X18972719Y-12775439D02*
X19467560Y-11714250D01*
X23327295Y-21021409D02*
X25389248Y-22465203D01*
X32909969Y-7028887D02*
X29323948Y-7772117D01*
X23155222Y-20967154D02*
G75*
G02*
X23327294Y-21021410I-12J-300026D01*
G01*
X8300884Y-7195859D02*
X5024966Y-14221088D01*
X27459094Y-8362003D02*
X25224322Y-9404095D01*
X28296222Y-19422751D02*
X33552868Y-16968000D01*
X29294502Y-7779796D02*
G75*
G02*
X29323948Y-7772117I90298J-285964D01*
G01*
X19356753Y-11334381D02*
X16353606Y-9422904D01*
X16319306Y-9404095D02*
X14084534Y-8362003D01*
X12219681Y-7772117D02*
X8633660Y-7028887D01*
X28200215Y-19493834D02*
G75*
G02*
X28296222Y-19422749I222895J-200666D01*
G01*
X25803076Y-22397092D02*
G75*
G02*
X25389251Y-22465198I-241756J177662D01*
G01*
D11*
D12*
X7157689Y-14521979D02*
X7187689Y-14551979D01*
X7187689Y-14521979D02*
X7157689Y-14551979D01*
X7962777Y-12795463D02*
X7992777Y-12825463D01*
X7992777Y-12795463D02*
X7962777Y-12825463D01*
X8767865Y-11068946D02*
X8797865Y-11098946D01*
X8797865Y-11068946D02*
X8767865Y-11098946D01*
X8884206Y-15327067D02*
X8914206Y-15357067D01*
X8914206Y-15327067D02*
X8884206Y-15357067D01*
X9572953Y-9342430D02*
X9602953Y-9372430D01*
X9602953Y-9342430D02*
X9572953Y-9372430D01*
X9689294Y-13600550D02*
X9719294Y-13630550D01*
X9719294Y-13600550D02*
X9689294Y-13630550D01*
X10185991Y-17042994D02*
X10215991Y-17072994D01*
X10215991Y-17042994D02*
X10185991Y-17072994D01*
X10494382Y-11874034D02*
X10524382Y-11904034D01*
X10524382Y-11874034D02*
X10494382Y-11904034D01*
X10991079Y-15316478D02*
X11021079Y-15346478D01*
X11021079Y-15316478D02*
X10991079Y-15346478D01*
X11299469Y-10147518D02*
X11329469Y-10177518D01*
X11329469Y-10147518D02*
X11299469Y-10177518D01*
X11796167Y-13589961D02*
X11826167Y-13619961D01*
X11826167Y-13589961D02*
X11796167Y-13619961D01*
X12018162Y-17621505D02*
X12048162Y-17651505D01*
X12048162Y-17621505D02*
X12018162Y-17651505D01*
X12601254Y-11863445D02*
X12631254Y-11893445D01*
X12631254Y-11863445D02*
X12601254Y-11893445D01*
X12743390Y-12431761D02*
X12773390Y-12461761D01*
X12773390Y-12431761D02*
X12743390Y-12461761D01*
X12823250Y-15894988D02*
X12853250Y-15924988D01*
X12853250Y-15894988D02*
X12823250Y-15924988D01*
X13406342Y-10136929D02*
X13436342Y-10166929D01*
X13436342Y-10136929D02*
X13406342Y-10166929D01*
X13628337Y-14168472D02*
X13658337Y-14198472D01*
X13658337Y-14168472D02*
X13628337Y-14198472D01*
X13639023Y-18653169D02*
X13669023Y-18683169D01*
X13669023Y-18653169D02*
X13639023Y-18683169D01*
X14364252Y-13463426D02*
X14394252Y-13493426D01*
X14394252Y-13463426D02*
X14364252Y-13493426D01*
X14433425Y-12441955D02*
X14463425Y-12471955D01*
X14463425Y-12441955D02*
X14433425Y-12471955D01*
X14444111Y-16926653D02*
X14474111Y-16956653D01*
X14474111Y-16926653D02*
X14444111Y-16956653D01*
X15112214Y-20185904D02*
X15142214Y-20215904D01*
X15142214Y-20185904D02*
X15112214Y-20215904D01*
X15238513Y-10715439D02*
X15268513Y-10745439D01*
X15268513Y-10715439D02*
X15238513Y-10745439D01*
X15249199Y-15200137D02*
X15279199Y-15230137D01*
X15279199Y-15200137D02*
X15249199Y-15230137D01*
X15985114Y-14495090D02*
X16015114Y-14525090D01*
X16015114Y-14495090D02*
X15985114Y-14525090D01*
X16054287Y-13473620D02*
X16084287Y-13503620D01*
X16084287Y-13473620D02*
X16054287Y-13503620D01*
X16064973Y-17958318D02*
X16094973Y-17988318D01*
X16094973Y-17958318D02*
X16064973Y-17988318D01*
X16859375Y-11747104D02*
X16889375Y-11777104D01*
X16889375Y-11747104D02*
X16859375Y-11777104D01*
X16870061Y-16231801D02*
X16900061Y-16261801D01*
X16900061Y-16231801D02*
X16870061Y-16261801D01*
X17379169Y-15140016D02*
X17409169Y-15170016D01*
X17409169Y-15140016D02*
X17379169Y-15170016D01*
X17441703Y-20497597D02*
X17471703Y-20527597D01*
X17471703Y-20497597D02*
X17441703Y-20527597D01*
X17482857Y-14917655D02*
X17512857Y-14947655D01*
X17512857Y-14917655D02*
X17482857Y-14947655D01*
X17588512Y-14691078D02*
X17618512Y-14721078D01*
X17618512Y-14691078D02*
X17588512Y-14721078D01*
X17675149Y-14505285D02*
X17705149Y-14535285D01*
X17705149Y-14505285D02*
X17675149Y-14535285D01*
X18480237Y-12778769D02*
X18510237Y-12808769D01*
X18510237Y-12778769D02*
X18480237Y-12808769D01*
X23033392Y-12778769D02*
X23063392Y-12808769D01*
X23063392Y-12778769D02*
X23033392Y-12808769D01*
X23838480Y-14505285D02*
X23868480Y-14535285D01*
X23868480Y-14505285D02*
X23838480Y-14535285D01*
X23925116Y-14691077D02*
X23955116Y-14721077D01*
X23955116Y-14691077D02*
X23925116Y-14721077D01*
X24030771Y-14917655D02*
X24060771Y-14947655D01*
X24060771Y-14917655D02*
X24030771Y-14947655D01*
X24136426Y-15144232D02*
X24166426Y-15174232D01*
X24166426Y-15144232D02*
X24136426Y-15174232D01*
X24533331Y-12079335D02*
X24563331Y-12109335D01*
X24563331Y-12079335D02*
X24533331Y-12109335D01*
X24643568Y-16231801D02*
X24673568Y-16261801D01*
X24673568Y-16231801D02*
X24643568Y-16261801D01*
X25338419Y-13805852D02*
X25368419Y-13835852D01*
X25368419Y-13805852D02*
X25338419Y-13835852D01*
X25427622Y-21446866D02*
X25457622Y-21476866D01*
X25457622Y-21446866D02*
X25427622Y-21476866D01*
X25448655Y-17958317D02*
X25478655Y-17988317D01*
X25478655Y-17958317D02*
X25448655Y-17988317D01*
X26143507Y-15532368D02*
X26173507Y-15562368D01*
X26173507Y-15532368D02*
X26143507Y-15562368D01*
X26154193Y-11047671D02*
X26184193Y-11077671D01*
X26184193Y-11047671D02*
X26154193Y-11077671D01*
X26948595Y-17258884D02*
X26978595Y-17288884D01*
X26978595Y-17258884D02*
X26948595Y-17288884D01*
X26959281Y-12774187D02*
X26989281Y-12804187D01*
X26989281Y-12774187D02*
X26959281Y-12804187D01*
X27508825Y-18955999D02*
X27538825Y-18985999D01*
X27538825Y-18955999D02*
X27508825Y-18985999D01*
X27764368Y-14500703D02*
X27794368Y-14530703D01*
X27794368Y-14500703D02*
X27764368Y-14530703D01*
X27775055Y-10016006D02*
X27805055Y-10046006D01*
X27805055Y-10016006D02*
X27775055Y-10046006D01*
X28569456Y-16227220D02*
X28599456Y-16257220D01*
X28599456Y-16227220D02*
X28569456Y-16257220D01*
X28580142Y-11742522D02*
X28610142Y-11772522D01*
X28610142Y-11742522D02*
X28580142Y-11772522D01*
X29211459Y-12223258D02*
X29241459Y-12253258D01*
X29241459Y-12223258D02*
X29211459Y-12253258D01*
X29374544Y-17953736D02*
X29404544Y-17983736D01*
X29404544Y-17953736D02*
X29374544Y-17983736D01*
X29385230Y-13469038D02*
X29415230Y-13499038D01*
X29415230Y-13469038D02*
X29385230Y-13499038D01*
X29607225Y-9437495D02*
X29637225Y-9467495D01*
X29637225Y-9437495D02*
X29607225Y-9467495D01*
X30190318Y-15195555D02*
X30220318Y-15225555D01*
X30220318Y-15195555D02*
X30190318Y-15225555D01*
X30412313Y-11164012D02*
X30442313Y-11194011D01*
X30442313Y-11164012D02*
X30412313Y-11194011D01*
X30995406Y-16922071D02*
X31025406Y-16952071D01*
X31025406Y-16922071D02*
X30995406Y-16952071D01*
X31217401Y-12890528D02*
X31247401Y-12920528D01*
X31247401Y-12890528D02*
X31217401Y-12920528D01*
X31318332Y-12233847D02*
X31348332Y-12263847D01*
X31348332Y-12233847D02*
X31318332Y-12263847D01*
X31714098Y-9448084D02*
X31744098Y-9478084D01*
X31744098Y-9448084D02*
X31714098Y-9478084D01*
X32022489Y-14617044D02*
X32052489Y-14647044D01*
X32052489Y-14617044D02*
X32022489Y-14647044D01*
X32519186Y-11174601D02*
X32549186Y-11204601D01*
X32549186Y-11174601D02*
X32519186Y-11204601D01*
X32827576Y-16343561D02*
X32857576Y-16373561D01*
X32857576Y-16343561D02*
X32827576Y-16373561D01*
X33044849Y-11428759D02*
X33074849Y-11458759D01*
X33074849Y-11428759D02*
X33044849Y-11458759D01*
X33324274Y-12901117D02*
X33354274Y-12931117D01*
X33354274Y-12901117D02*
X33324274Y-12931117D01*
X33440614Y-8642997D02*
X33470614Y-8672997D01*
X33470614Y-8642997D02*
X33440614Y-8672997D01*
X34129362Y-14627633D02*
X34159362Y-14657633D01*
X34159362Y-14627633D02*
X34129362Y-14657633D01*
X34245702Y-10369513D02*
X34275702Y-10399513D01*
X34275702Y-10369513D02*
X34245702Y-10399513D01*
X35050790Y-12096029D02*
X35080790Y-12126029D01*
X35080790Y-12096029D02*
X35050790Y-12126029D01*
X35855878Y-13822545D02*
X35885878Y-13852545D01*
X35885878Y-13822545D02*
X35855878Y-13852545D01*
X7722520Y-13420458D02*
G75*
G02*
X7682520Y-13420458I-20000J0D01*
G01*
X7682520Y-13420458D02*
G75*
G02*
X7722520Y-13420458I20000J0D01*
G01*
X7728028Y-13294293D02*
G75*
G02*
X7688028Y-13294293I-20000J0D01*
G01*
X7688028Y-13294293D02*
G75*
G02*
X7728028Y-13294293I20000J0D01*
G01*
X7807837Y-13513566D02*
G75*
G02*
X7767837Y-13513566I-20000J0D01*
G01*
X7767837Y-13513566D02*
G75*
G02*
X7807837Y-13513566I20000J0D01*
G01*
X7821136Y-13208975D02*
G75*
G02*
X7781136Y-13208975I-20000J0D01*
G01*
X7781136Y-13208975D02*
G75*
G02*
X7821136Y-13208975I20000J0D01*
G01*
X7934003Y-13519074D02*
G75*
G02*
X7894003Y-13519074I-20000J0D01*
G01*
X7894003Y-13519074D02*
G75*
G02*
X7934003Y-13519074I20000J0D01*
G01*
X7947301Y-13214484D02*
G75*
G02*
X7907301Y-13214484I-20000J0D01*
G01*
X7907301Y-13214484D02*
G75*
G02*
X7947301Y-13214484I20000J0D01*
G01*
X8027110Y-13433757D02*
G75*
G02*
X7987110Y-13433757I-20000J0D01*
G01*
X7987110Y-13433757D02*
G75*
G02*
X8027110Y-13433757I20000J0D01*
G01*
X8032619Y-13307592D02*
G75*
G02*
X7992619Y-13307592I-20000J0D01*
G01*
X7992619Y-13307592D02*
G75*
G02*
X8032619Y-13307592I20000J0D01*
G01*
X9332696Y-9967426D02*
G75*
G02*
X9292696Y-9967426I-20000J0D01*
G01*
X9292696Y-9967426D02*
G75*
G02*
X9332696Y-9967426I20000J0D01*
G01*
X9338204Y-9841260D02*
G75*
G02*
X9298204Y-9841260I-20000J0D01*
G01*
X9298204Y-9841260D02*
G75*
G02*
X9338204Y-9841260I20000J0D01*
G01*
X9418013Y-10060533D02*
G75*
G02*
X9378013Y-10060533I-20000J0D01*
G01*
X9378013Y-10060533D02*
G75*
G02*
X9418013Y-10060533I20000J0D01*
G01*
X9431312Y-9755943D02*
G75*
G02*
X9391312Y-9755943I-20000J0D01*
G01*
X9391312Y-9755943D02*
G75*
G02*
X9431312Y-9755943I20000J0D01*
G01*
X9544178Y-10066042D02*
G75*
G02*
X9504178Y-10066042I-20000J0D01*
G01*
X9504178Y-10066042D02*
G75*
G02*
X9544178Y-10066042I20000J0D01*
G01*
X9557477Y-9761451D02*
G75*
G02*
X9517477Y-9761451I-20000J0D01*
G01*
X9517477Y-9761451D02*
G75*
G02*
X9557477Y-9761451I20000J0D01*
G01*
X9637286Y-9980724D02*
G75*
G02*
X9597286Y-9980724I-20000J0D01*
G01*
X9597286Y-9980724D02*
G75*
G02*
X9637286Y-9980724I20000J0D01*
G01*
X9642794Y-9854559D02*
G75*
G02*
X9602794Y-9854559I-20000J0D01*
G01*
X9602794Y-9854559D02*
G75*
G02*
X9642794Y-9854559I20000J0D01*
G01*
X14203854Y-17551649D02*
G75*
G02*
X14163854Y-17551649I-20000J0D01*
G01*
X14163854Y-17551649D02*
G75*
G02*
X14203854Y-17551649I20000J0D01*
G01*
X14209362Y-17425484D02*
G75*
G02*
X14169362Y-17425484I-20000J0D01*
G01*
X14169362Y-17425484D02*
G75*
G02*
X14209362Y-17425484I20000J0D01*
G01*
X14289171Y-17644757D02*
G75*
G02*
X14249171Y-17644757I-20000J0D01*
G01*
X14249171Y-17644757D02*
G75*
G02*
X14289171Y-17644757I20000J0D01*
G01*
X14302470Y-17340166D02*
G75*
G02*
X14262470Y-17340166I-20000J0D01*
G01*
X14262470Y-17340166D02*
G75*
G02*
X14302470Y-17340166I20000J0D01*
G01*
X14415336Y-17650265D02*
G75*
G02*
X14375336Y-17650265I-20000J0D01*
G01*
X14375336Y-17650265D02*
G75*
G02*
X14415336Y-17650265I20000J0D01*
G01*
X14428635Y-17345675D02*
G75*
G02*
X14388635Y-17345675I-20000J0D01*
G01*
X14388635Y-17345675D02*
G75*
G02*
X14428635Y-17345675I20000J0D01*
G01*
X14508444Y-17564948D02*
G75*
G02*
X14468444Y-17564948I-20000J0D01*
G01*
X14468444Y-17564948D02*
G75*
G02*
X14508444Y-17564948I20000J0D01*
G01*
X14513952Y-17438783D02*
G75*
G02*
X14473952Y-17438783I-20000J0D01*
G01*
X14473952Y-17438783D02*
G75*
G02*
X14513952Y-17438783I20000J0D01*
G01*
X16619117Y-12372100D02*
G75*
G02*
X16579117Y-12372100I-20000J0D01*
G01*
X16579117Y-12372100D02*
G75*
G02*
X16619117Y-12372100I20000J0D01*
G01*
X16624626Y-12245934D02*
G75*
G02*
X16584626Y-12245934I-20000J0D01*
G01*
X16584626Y-12245934D02*
G75*
G02*
X16624626Y-12245934I20000J0D01*
G01*
X16704435Y-12465207D02*
G75*
G02*
X16664435Y-12465207I-20000J0D01*
G01*
X16664435Y-12465207D02*
G75*
G02*
X16704435Y-12465207I20000J0D01*
G01*
X16717734Y-12160617D02*
G75*
G02*
X16677734Y-12160617I-20000J0D01*
G01*
X16677734Y-12160617D02*
G75*
G02*
X16717734Y-12160617I20000J0D01*
G01*
X16830600Y-12470716D02*
G75*
G02*
X16790600Y-12470716I-20000J0D01*
G01*
X16790600Y-12470716D02*
G75*
G02*
X16830600Y-12470716I20000J0D01*
G01*
X16843899Y-12166125D02*
G75*
G02*
X16803899Y-12166125I-20000J0D01*
G01*
X16803899Y-12166125D02*
G75*
G02*
X16843899Y-12166125I20000J0D01*
G01*
X16923708Y-12385398D02*
G75*
G02*
X16883708Y-12385398I-20000J0D01*
G01*
X16883708Y-12385398D02*
G75*
G02*
X16923708Y-12385398I20000J0D01*
G01*
X16929216Y-12259233D02*
G75*
G02*
X16889216Y-12259233I-20000J0D01*
G01*
X16889216Y-12259233D02*
G75*
G02*
X16929216Y-12259233I20000J0D01*
G01*
X24760067Y-12485810D02*
G75*
G02*
X24720067Y-12485810I-20000J0D01*
G01*
X24720067Y-12485810D02*
G75*
G02*
X24760067Y-12485810I20000J0D01*
G01*
X24765576Y-12611975D02*
G75*
G02*
X24725576Y-12611975I-20000J0D01*
G01*
X24725576Y-12611975D02*
G75*
G02*
X24765576Y-12611975I20000J0D01*
G01*
X24845384Y-12392702D02*
G75*
G02*
X24805384Y-12392702I-20000J0D01*
G01*
X24805384Y-12392702D02*
G75*
G02*
X24845384Y-12392702I20000J0D01*
G01*
X24858683Y-12697293D02*
G75*
G02*
X24818683Y-12697293I-20000J0D01*
G01*
X24818683Y-12697293D02*
G75*
G02*
X24858683Y-12697293I20000J0D01*
G01*
X24971550Y-12387194D02*
G75*
G02*
X24931550Y-12387194I-20000J0D01*
G01*
X24931550Y-12387194D02*
G75*
G02*
X24971550Y-12387194I20000J0D01*
G01*
X24984849Y-12691784D02*
G75*
G02*
X24944849Y-12691784I-20000J0D01*
G01*
X24944849Y-12691784D02*
G75*
G02*
X24984849Y-12691784I20000J0D01*
G01*
X25064657Y-12472511D02*
G75*
G02*
X25024657Y-12472511I-20000J0D01*
G01*
X25024657Y-12472511D02*
G75*
G02*
X25064657Y-12472511I20000J0D01*
G01*
X25070166Y-12598676D02*
G75*
G02*
X25030166Y-12598676I-20000J0D01*
G01*
X25030166Y-12598676D02*
G75*
G02*
X25070166Y-12598676I20000J0D01*
G01*
X27175330Y-17665359D02*
G75*
G02*
X27135330Y-17665359I-20000J0D01*
G01*
X27135330Y-17665359D02*
G75*
G02*
X27175330Y-17665359I20000J0D01*
G01*
X27180839Y-17791524D02*
G75*
G02*
X27140839Y-17791524I-20000J0D01*
G01*
X27140839Y-17791524D02*
G75*
G02*
X27180839Y-17791524I20000J0D01*
G01*
X27260648Y-17572251D02*
G75*
G02*
X27220648Y-17572251I-20000J0D01*
G01*
X27220648Y-17572251D02*
G75*
G02*
X27260648Y-17572251I20000J0D01*
G01*
X27273947Y-17876841D02*
G75*
G02*
X27233947Y-17876841I-20000J0D01*
G01*
X27233947Y-17876841D02*
G75*
G02*
X27273947Y-17876841I20000J0D01*
G01*
X27386813Y-17566743D02*
G75*
G02*
X27346813Y-17566743I-20000J0D01*
G01*
X27346813Y-17566743D02*
G75*
G02*
X27386813Y-17566743I20000J0D01*
G01*
X27400112Y-17871333D02*
G75*
G02*
X27360112Y-17871333I-20000J0D01*
G01*
X27360112Y-17871333D02*
G75*
G02*
X27400112Y-17871333I20000J0D01*
G01*
X27479921Y-17652060D02*
G75*
G02*
X27439921Y-17652060I-20000J0D01*
G01*
X27439921Y-17652060D02*
G75*
G02*
X27479921Y-17652060I20000J0D01*
G01*
X27485429Y-17778225D02*
G75*
G02*
X27445429Y-17778225I-20000J0D01*
G01*
X27445429Y-17778225D02*
G75*
G02*
X27485429Y-17778225I20000J0D01*
G01*
X31940834Y-9854559D02*
G75*
G02*
X31900834Y-9854559I-20000J0D01*
G01*
X31900834Y-9854559D02*
G75*
G02*
X31940834Y-9854559I20000J0D01*
G01*
X31946342Y-9980724D02*
G75*
G02*
X31906342Y-9980724I-20000J0D01*
G01*
X31906342Y-9980724D02*
G75*
G02*
X31946342Y-9980724I20000J0D01*
G01*
X32026151Y-9761451D02*
G75*
G02*
X31986151Y-9761451I-20000J0D01*
G01*
X31986151Y-9761451D02*
G75*
G02*
X32026151Y-9761451I20000J0D01*
G01*
X32039450Y-10066042D02*
G75*
G02*
X31999450Y-10066042I-20000J0D01*
G01*
X31999450Y-10066042D02*
G75*
G02*
X32039450Y-10066042I20000J0D01*
G01*
X32152316Y-9755943D02*
G75*
G02*
X32112316Y-9755943I-20000J0D01*
G01*
X32112316Y-9755943D02*
G75*
G02*
X32152316Y-9755943I20000J0D01*
G01*
X32165615Y-10060533D02*
G75*
G02*
X32125615Y-10060533I-20000J0D01*
G01*
X32125615Y-10060533D02*
G75*
G02*
X32165615Y-10060533I20000J0D01*
G01*
X32245424Y-9841260D02*
G75*
G02*
X32205424Y-9841260I-20000J0D01*
G01*
X32205424Y-9841260D02*
G75*
G02*
X32245424Y-9841260I20000J0D01*
G01*
X32250933Y-9967425D02*
G75*
G02*
X32210933Y-9967425I-20000J0D01*
G01*
X32210933Y-9967425D02*
G75*
G02*
X32250933Y-9967425I20000J0D01*
G01*
X33551010Y-13307592D02*
G75*
G02*
X33511010Y-13307592I-20000J0D01*
G01*
X33511010Y-13307592D02*
G75*
G02*
X33551010Y-13307592I20000J0D01*
G01*
X33556518Y-13433757D02*
G75*
G02*
X33516518Y-13433757I-20000J0D01*
G01*
X33516518Y-13433757D02*
G75*
G02*
X33556518Y-13433757I20000J0D01*
G01*
X33636327Y-13214484D02*
G75*
G02*
X33596327Y-13214484I-20000J0D01*
G01*
X33596327Y-13214484D02*
G75*
G02*
X33636327Y-13214484I20000J0D01*
G01*
X33649626Y-13519075D02*
G75*
G02*
X33609626Y-13519075I-20000J0D01*
G01*
X33609626Y-13519075D02*
G75*
G02*
X33649626Y-13519075I20000J0D01*
G01*
X33762492Y-13208976D02*
G75*
G02*
X33722492Y-13208976I-20000J0D01*
G01*
X33722492Y-13208976D02*
G75*
G02*
X33762492Y-13208976I20000J0D01*
G01*
X33775791Y-13513566D02*
G75*
G02*
X33735791Y-13513566I-20000J0D01*
G01*
X33735791Y-13513566D02*
G75*
G02*
X33775791Y-13513566I20000J0D01*
G01*
X33855600Y-13294293D02*
G75*
G02*
X33815600Y-13294293I-20000J0D01*
G01*
X33815600Y-13294293D02*
G75*
G02*
X33855600Y-13294293I20000J0D01*
G01*
X33861108Y-13420458D02*
G75*
G02*
X33821108Y-13420458I-20000J0D01*
G01*
X33821108Y-13420458D02*
G75*
G02*
X33861108Y-13420458I20000J0D01*
G01*
X20009814Y-14713062D02*
X20009814Y-14813062D01*
X19959814Y-14763062D02*
X20059814Y-14763062D01*
X20009814Y-14967062D02*
X20009814Y-15067062D01*
X19959814Y-15017062D02*
X20059814Y-15017062D01*
X20009814Y-15475062D02*
X20009814Y-15575062D01*
X19959814Y-15525062D02*
X20059814Y-15525062D01*
X20009814Y-15983062D02*
X20009814Y-16083062D01*
X19959814Y-16033062D02*
X20059814Y-16033062D01*
X20009815Y-14205062D02*
X20009815Y-14305062D01*
X19959815Y-14255062D02*
X20059815Y-14255062D01*
X20009815Y-15729062D02*
X20009815Y-15829062D01*
X19959815Y-15779062D02*
X20059815Y-15779062D01*
X20009815Y-16745062D02*
X20009815Y-16845062D01*
X19959815Y-16795062D02*
X20059815Y-16795062D01*
X20009815Y-13951062D02*
X20009815Y-14051062D01*
X19959815Y-14001062D02*
X20059815Y-14001062D01*
X20009815Y-14459062D02*
X20009815Y-14559062D01*
X19959815Y-14509062D02*
X20059815Y-14509062D01*
X20009815Y-15221062D02*
X20009815Y-15321062D01*
X19959815Y-15271062D02*
X20059815Y-15271062D01*
X20009815Y-16237062D02*
X20009815Y-16337062D01*
X19959815Y-16287062D02*
X20059815Y-16287062D01*
X20009815Y-16491062D02*
X20009815Y-16591062D01*
X19959815Y-16541062D02*
X20059815Y-16541062D01*
X20009815Y-16999062D02*
X20009815Y-17099062D01*
X19959815Y-17049062D02*
X20059815Y-17049062D01*
X20446814Y-17484562D02*
X20446814Y-17584562D01*
X20396814Y-17534562D02*
X20496814Y-17534562D01*
X21096814Y-17484562D02*
X21096814Y-17584562D01*
X21046814Y-17534562D02*
X21146814Y-17534562D01*
X21533814Y-13951062D02*
X21533814Y-14051062D01*
X21483814Y-14001062D02*
X21583814Y-14001062D01*
X21533814Y-14459062D02*
X21533814Y-14559062D01*
X21483814Y-14509062D02*
X21583814Y-14509062D01*
X21533814Y-14713062D02*
X21533814Y-14813062D01*
X21483814Y-14763062D02*
X21583814Y-14763062D01*
X21533814Y-15729062D02*
X21533814Y-15829062D01*
X21483814Y-15779062D02*
X21583814Y-15779062D01*
X21533814Y-16491062D02*
X21533814Y-16591062D01*
X21483814Y-16541062D02*
X21583814Y-16541062D01*
X21533814Y-16999062D02*
X21533814Y-17099062D01*
X21483814Y-17049062D02*
X21583814Y-17049062D01*
X21533815Y-14205062D02*
X21533815Y-14305062D01*
X21483815Y-14255062D02*
X21583815Y-14255062D01*
X21533815Y-15221062D02*
X21533815Y-15321062D01*
X21483815Y-15271062D02*
X21583815Y-15271062D01*
X21533815Y-16745062D02*
X21533815Y-16845062D01*
X21483815Y-16795062D02*
X21583815Y-16795062D01*
X21533815Y-14967062D02*
X21533815Y-15067062D01*
X21483815Y-15017062D02*
X21583815Y-15017062D01*
X21533815Y-15475062D02*
X21533815Y-15575062D01*
X21483815Y-15525062D02*
X21583815Y-15525062D01*
X21533815Y-15983062D02*
X21533815Y-16083062D01*
X21483815Y-16033062D02*
X21583815Y-16033062D01*
X21533815Y-16237062D02*
X21533815Y-16337062D01*
X21483815Y-16287062D02*
X21583815Y-16287062D01*
D13*
X7935352Y-13441807D02*
X7935352Y-13286242D01*
X7779787Y-13286242D01*
X7779787Y-13441807D01*
X7935352Y-13441807D01*
X9545527Y-9988775D02*
X9545527Y-9833210D01*
X9389962Y-9833210D01*
X9389962Y-9988775D01*
X9545527Y-9988775D01*
X14416685Y-17572998D02*
X14416685Y-17417433D01*
X14261120Y-17417433D01*
X14261120Y-17572998D01*
X14416685Y-17572998D01*
X16831949Y-12393449D02*
X16831949Y-12237884D01*
X16676384Y-12237884D01*
X16676384Y-12393449D01*
X16831949Y-12393449D01*
X24972899Y-12620026D02*
X24972899Y-12464461D01*
X24817334Y-12464461D01*
X24817334Y-12620026D01*
X24972899Y-12620026D01*
X27388162Y-17799575D02*
X27388162Y-17644010D01*
X27232597Y-17644010D01*
X27232597Y-17799575D01*
X27388162Y-17799575D01*
X32153666Y-9988775D02*
X32153666Y-9833210D01*
X31998101Y-9833210D01*
X31998101Y-9988775D01*
X32153666Y-9988775D01*
X33763842Y-13441808D02*
X33763842Y-13286243D01*
X33608277Y-13286243D01*
X33608277Y-13441808D01*
X33763842Y-13441808D01*
D11*
X5250141Y-22838442D02*
X5250141Y-22638442D01*
X5250141Y-22638442D02*
X5297760Y-22638442D01*
X5297760Y-22638442D02*
X5326331Y-22647966D01*
X5326331Y-22647966D02*
X5345379Y-22667013D01*
X5345379Y-22667013D02*
X5354903Y-22686061D01*
X5354903Y-22686061D02*
X5364426Y-22724156D01*
X5364426Y-22724156D02*
X5364426Y-22752728D01*
X5364426Y-22752728D02*
X5354903Y-22790823D01*
X5354903Y-22790823D02*
X5345379Y-22809871D01*
X5345379Y-22809871D02*
X5326331Y-22828918D01*
X5326331Y-22828918D02*
X5297760Y-22838442D01*
X5297760Y-22838442D02*
X5250141Y-22838442D01*
X5450141Y-22838442D02*
X5450141Y-22705109D01*
X5450141Y-22743204D02*
X5459665Y-22724156D01*
X5459665Y-22724156D02*
X5469188Y-22714632D01*
X5469188Y-22714632D02*
X5488236Y-22705109D01*
X5488236Y-22705109D02*
X5507284Y-22705109D01*
X5573950Y-22838442D02*
X5573950Y-22705109D01*
X5573950Y-22638442D02*
X5564426Y-22647966D01*
X5564426Y-22647966D02*
X5573950Y-22657490D01*
X5573950Y-22657490D02*
X5583474Y-22647966D01*
X5583474Y-22647966D02*
X5573950Y-22638442D01*
X5573950Y-22638442D02*
X5573950Y-22657490D01*
X5697760Y-22838442D02*
X5678712Y-22828918D01*
X5678712Y-22828918D02*
X5669188Y-22809871D01*
X5669188Y-22809871D02*
X5669188Y-22638442D01*
X5802522Y-22838442D02*
X5783474Y-22828918D01*
X5783474Y-22828918D02*
X5773950Y-22809871D01*
X5773950Y-22809871D02*
X5773950Y-22638442D01*
X6031093Y-22838442D02*
X6031093Y-22638442D01*
X6031093Y-22638442D02*
X6097760Y-22781299D01*
X6097760Y-22781299D02*
X6164426Y-22638442D01*
X6164426Y-22638442D02*
X6164426Y-22838442D01*
X6345379Y-22838442D02*
X6345379Y-22733680D01*
X6345379Y-22733680D02*
X6335855Y-22714632D01*
X6335855Y-22714632D02*
X6316807Y-22705109D01*
X6316807Y-22705109D02*
X6278712Y-22705109D01*
X6278712Y-22705109D02*
X6259664Y-22714632D01*
X6345379Y-22828918D02*
X6326331Y-22838442D01*
X6326331Y-22838442D02*
X6278712Y-22838442D01*
X6278712Y-22838442D02*
X6259664Y-22828918D01*
X6259664Y-22828918D02*
X6250141Y-22809871D01*
X6250141Y-22809871D02*
X6250141Y-22790823D01*
X6250141Y-22790823D02*
X6259664Y-22771775D01*
X6259664Y-22771775D02*
X6278712Y-22762252D01*
X6278712Y-22762252D02*
X6326331Y-22762252D01*
X6326331Y-22762252D02*
X6345379Y-22752728D01*
X6440617Y-22705109D02*
X6440617Y-22905109D01*
X6440617Y-22714632D02*
X6459664Y-22705109D01*
X6459664Y-22705109D02*
X6497760Y-22705109D01*
X6497760Y-22705109D02*
X6516807Y-22714632D01*
X6516807Y-22714632D02*
X6526331Y-22724156D01*
X6526331Y-22724156D02*
X6535855Y-22743204D01*
X6535855Y-22743204D02*
X6535855Y-22800347D01*
X6535855Y-22800347D02*
X6526331Y-22819394D01*
X6526331Y-22819394D02*
X6516807Y-22828918D01*
X6516807Y-22828918D02*
X6497760Y-22838442D01*
X6497760Y-22838442D02*
X6459664Y-22838442D01*
X6459664Y-22838442D02*
X6440617Y-22828918D01*
X6621569Y-22819394D02*
X6631093Y-22828918D01*
X6631093Y-22828918D02*
X6621569Y-22838442D01*
X6621569Y-22838442D02*
X6612045Y-22828918D01*
X6612045Y-22828918D02*
X6621569Y-22819394D01*
X6621569Y-22819394D02*
X6621569Y-22838442D01*
X6621569Y-22714632D02*
X6631093Y-22724156D01*
X6631093Y-22724156D02*
X6621569Y-22733680D01*
X6621569Y-22733680D02*
X6612045Y-22724156D01*
X6612045Y-22724156D02*
X6621569Y-22714632D01*
X6621569Y-22714632D02*
X6621569Y-22733680D01*
D12*
X4959364Y-23151958D02*
X4989364Y-23181958D01*
X4989364Y-23151958D02*
X4959364Y-23181958D01*
D11*
X5288236Y-23058442D02*
X5307284Y-23058442D01*
X5307284Y-23058442D02*
X5326331Y-23067966D01*
X5326331Y-23067966D02*
X5335855Y-23077490D01*
X5335855Y-23077490D02*
X5345379Y-23096537D01*
X5345379Y-23096537D02*
X5354903Y-23134632D01*
X5354903Y-23134632D02*
X5354903Y-23182252D01*
X5354903Y-23182252D02*
X5345379Y-23220347D01*
X5345379Y-23220347D02*
X5335855Y-23239394D01*
X5335855Y-23239394D02*
X5326331Y-23248918D01*
X5326331Y-23248918D02*
X5307284Y-23258442D01*
X5307284Y-23258442D02*
X5288236Y-23258442D01*
X5288236Y-23258442D02*
X5269188Y-23248918D01*
X5269188Y-23248918D02*
X5259665Y-23239394D01*
X5259665Y-23239394D02*
X5250141Y-23220347D01*
X5250141Y-23220347D02*
X5240617Y-23182252D01*
X5240617Y-23182252D02*
X5240617Y-23134632D01*
X5240617Y-23134632D02*
X5250141Y-23096537D01*
X5250141Y-23096537D02*
X5259665Y-23077490D01*
X5259665Y-23077490D02*
X5269188Y-23067966D01*
X5269188Y-23067966D02*
X5288236Y-23058442D01*
X5440617Y-23239394D02*
X5450141Y-23248918D01*
X5450141Y-23248918D02*
X5440617Y-23258442D01*
X5440617Y-23258442D02*
X5431093Y-23248918D01*
X5431093Y-23248918D02*
X5440617Y-23239394D01*
X5440617Y-23239394D02*
X5440617Y-23258442D01*
X5516807Y-23058442D02*
X5640617Y-23058442D01*
X5640617Y-23058442D02*
X5573950Y-23134632D01*
X5573950Y-23134632D02*
X5602522Y-23134632D01*
X5602522Y-23134632D02*
X5621569Y-23144156D01*
X5621569Y-23144156D02*
X5631093Y-23153680D01*
X5631093Y-23153680D02*
X5640617Y-23172728D01*
X5640617Y-23172728D02*
X5640617Y-23220347D01*
X5640617Y-23220347D02*
X5631093Y-23239394D01*
X5631093Y-23239394D02*
X5621569Y-23248918D01*
X5621569Y-23248918D02*
X5602522Y-23258442D01*
X5602522Y-23258442D02*
X5545379Y-23258442D01*
X5545379Y-23258442D02*
X5526331Y-23248918D01*
X5526331Y-23248918D02*
X5516807Y-23239394D01*
X5764426Y-23058442D02*
X5783474Y-23058442D01*
X5783474Y-23058442D02*
X5802522Y-23067966D01*
X5802522Y-23067966D02*
X5812045Y-23077490D01*
X5812045Y-23077490D02*
X5821569Y-23096537D01*
X5821569Y-23096537D02*
X5831093Y-23134632D01*
X5831093Y-23134632D02*
X5831093Y-23182252D01*
X5831093Y-23182252D02*
X5821569Y-23220347D01*
X5821569Y-23220347D02*
X5812045Y-23239394D01*
X5812045Y-23239394D02*
X5802522Y-23248918D01*
X5802522Y-23248918D02*
X5783474Y-23258442D01*
X5783474Y-23258442D02*
X5764426Y-23258442D01*
X5764426Y-23258442D02*
X5745379Y-23248918D01*
X5745379Y-23248918D02*
X5735855Y-23239394D01*
X5735855Y-23239394D02*
X5726331Y-23220347D01*
X5726331Y-23220347D02*
X5716807Y-23182252D01*
X5716807Y-23182252D02*
X5716807Y-23134632D01*
X5716807Y-23134632D02*
X5726331Y-23096537D01*
X5726331Y-23096537D02*
X5735855Y-23077490D01*
X5735855Y-23077490D02*
X5745379Y-23067966D01*
X5745379Y-23067966D02*
X5764426Y-23058442D01*
X5954903Y-23058442D02*
X5973950Y-23058442D01*
X5973950Y-23058442D02*
X5992998Y-23067966D01*
X5992998Y-23067966D02*
X6002522Y-23077490D01*
X6002522Y-23077490D02*
X6012045Y-23096537D01*
X6012045Y-23096537D02*
X6021569Y-23134632D01*
X6021569Y-23134632D02*
X6021569Y-23182252D01*
X6021569Y-23182252D02*
X6012045Y-23220347D01*
X6012045Y-23220347D02*
X6002522Y-23239394D01*
X6002522Y-23239394D02*
X5992998Y-23248918D01*
X5992998Y-23248918D02*
X5973950Y-23258442D01*
X5973950Y-23258442D02*
X5954903Y-23258442D01*
X5954903Y-23258442D02*
X5935855Y-23248918D01*
X5935855Y-23248918D02*
X5926331Y-23239394D01*
X5926331Y-23239394D02*
X5916807Y-23220347D01*
X5916807Y-23220347D02*
X5907284Y-23182252D01*
X5907284Y-23182252D02*
X5907284Y-23134632D01*
X5907284Y-23134632D02*
X5916807Y-23096537D01*
X5916807Y-23096537D02*
X5926331Y-23077490D01*
X5926331Y-23077490D02*
X5935855Y-23067966D01*
X5935855Y-23067966D02*
X5954903Y-23058442D01*
X6107284Y-23258442D02*
X6107284Y-23125109D01*
X6107284Y-23144156D02*
X6116807Y-23134632D01*
X6116807Y-23134632D02*
X6135855Y-23125109D01*
X6135855Y-23125109D02*
X6164426Y-23125109D01*
X6164426Y-23125109D02*
X6183474Y-23134632D01*
X6183474Y-23134632D02*
X6192998Y-23153680D01*
X6192998Y-23153680D02*
X6192998Y-23258442D01*
X6192998Y-23153680D02*
X6202522Y-23134632D01*
X6202522Y-23134632D02*
X6221569Y-23125109D01*
X6221569Y-23125109D02*
X6250141Y-23125109D01*
X6250141Y-23125109D02*
X6269188Y-23134632D01*
X6269188Y-23134632D02*
X6278712Y-23153680D01*
X6278712Y-23153680D02*
X6278712Y-23258442D01*
X6373950Y-23258442D02*
X6373950Y-23125109D01*
X6373950Y-23144156D02*
X6383474Y-23134632D01*
X6383474Y-23134632D02*
X6402522Y-23125109D01*
X6402522Y-23125109D02*
X6431093Y-23125109D01*
X6431093Y-23125109D02*
X6450141Y-23134632D01*
X6450141Y-23134632D02*
X6459665Y-23153680D01*
X6459665Y-23153680D02*
X6459665Y-23258442D01*
X6459665Y-23153680D02*
X6469188Y-23134632D01*
X6469188Y-23134632D02*
X6488236Y-23125109D01*
X6488236Y-23125109D02*
X6516807Y-23125109D01*
X6516807Y-23125109D02*
X6535855Y-23134632D01*
X6535855Y-23134632D02*
X6545379Y-23153680D01*
X6545379Y-23153680D02*
X6545379Y-23258442D01*
X6935855Y-23048918D02*
X6764427Y-23306061D01*
X7192998Y-23058442D02*
X7212046Y-23058442D01*
X7212046Y-23058442D02*
X7231093Y-23067966D01*
X7231093Y-23067966D02*
X7240617Y-23077490D01*
X7240617Y-23077490D02*
X7250141Y-23096537D01*
X7250141Y-23096537D02*
X7259665Y-23134632D01*
X7259665Y-23134632D02*
X7259665Y-23182252D01*
X7259665Y-23182252D02*
X7250141Y-23220347D01*
X7250141Y-23220347D02*
X7240617Y-23239394D01*
X7240617Y-23239394D02*
X7231093Y-23248918D01*
X7231093Y-23248918D02*
X7212046Y-23258442D01*
X7212046Y-23258442D02*
X7192998Y-23258442D01*
X7192998Y-23258442D02*
X7173950Y-23248918D01*
X7173950Y-23248918D02*
X7164427Y-23239394D01*
X7164427Y-23239394D02*
X7154903Y-23220347D01*
X7154903Y-23220347D02*
X7145379Y-23182252D01*
X7145379Y-23182252D02*
X7145379Y-23134632D01*
X7145379Y-23134632D02*
X7154903Y-23096537D01*
X7154903Y-23096537D02*
X7164427Y-23077490D01*
X7164427Y-23077490D02*
X7173950Y-23067966D01*
X7173950Y-23067966D02*
X7192998Y-23058442D01*
X7345379Y-23239394D02*
X7354903Y-23248918D01*
X7354903Y-23248918D02*
X7345379Y-23258442D01*
X7345379Y-23258442D02*
X7335855Y-23248918D01*
X7335855Y-23248918D02*
X7345379Y-23239394D01*
X7345379Y-23239394D02*
X7345379Y-23258442D01*
X7478712Y-23058442D02*
X7497760Y-23058442D01*
X7497760Y-23058442D02*
X7516808Y-23067966D01*
X7516808Y-23067966D02*
X7526331Y-23077490D01*
X7526331Y-23077490D02*
X7535855Y-23096537D01*
X7535855Y-23096537D02*
X7545379Y-23134632D01*
X7545379Y-23134632D02*
X7545379Y-23182252D01*
X7545379Y-23182252D02*
X7535855Y-23220347D01*
X7535855Y-23220347D02*
X7526331Y-23239394D01*
X7526331Y-23239394D02*
X7516808Y-23248918D01*
X7516808Y-23248918D02*
X7497760Y-23258442D01*
X7497760Y-23258442D02*
X7478712Y-23258442D01*
X7478712Y-23258442D02*
X7459665Y-23248918D01*
X7459665Y-23248918D02*
X7450141Y-23239394D01*
X7450141Y-23239394D02*
X7440617Y-23220347D01*
X7440617Y-23220347D02*
X7431093Y-23182252D01*
X7431093Y-23182252D02*
X7431093Y-23134632D01*
X7431093Y-23134632D02*
X7440617Y-23096537D01*
X7440617Y-23096537D02*
X7450141Y-23077490D01*
X7450141Y-23077490D02*
X7459665Y-23067966D01*
X7459665Y-23067966D02*
X7478712Y-23058442D01*
X7735855Y-23258442D02*
X7621569Y-23258442D01*
X7678712Y-23258442D02*
X7678712Y-23058442D01*
X7678712Y-23058442D02*
X7659665Y-23087013D01*
X7659665Y-23087013D02*
X7640617Y-23106061D01*
X7640617Y-23106061D02*
X7621569Y-23115585D01*
X7926331Y-23258442D02*
X7812046Y-23258442D01*
X7869188Y-23258442D02*
X7869188Y-23058442D01*
X7869188Y-23058442D02*
X7850141Y-23087013D01*
X7850141Y-23087013D02*
X7831093Y-23106061D01*
X7831093Y-23106061D02*
X7812046Y-23115585D01*
X8040617Y-23144156D02*
X8021569Y-23134632D01*
X8021569Y-23134632D02*
X8012046Y-23125109D01*
X8012046Y-23125109D02*
X8002522Y-23106061D01*
X8002522Y-23106061D02*
X8002522Y-23096537D01*
X8002522Y-23096537D02*
X8012046Y-23077490D01*
X8012046Y-23077490D02*
X8021569Y-23067966D01*
X8021569Y-23067966D02*
X8040617Y-23058442D01*
X8040617Y-23058442D02*
X8078712Y-23058442D01*
X8078712Y-23058442D02*
X8097760Y-23067966D01*
X8097760Y-23067966D02*
X8107284Y-23077490D01*
X8107284Y-23077490D02*
X8116808Y-23096537D01*
X8116808Y-23096537D02*
X8116808Y-23106061D01*
X8116808Y-23106061D02*
X8107284Y-23125109D01*
X8107284Y-23125109D02*
X8097760Y-23134632D01*
X8097760Y-23134632D02*
X8078712Y-23144156D01*
X8078712Y-23144156D02*
X8040617Y-23144156D01*
X8040617Y-23144156D02*
X8021569Y-23153680D01*
X8021569Y-23153680D02*
X8012046Y-23163204D01*
X8012046Y-23163204D02*
X8002522Y-23182252D01*
X8002522Y-23182252D02*
X8002522Y-23220347D01*
X8002522Y-23220347D02*
X8012046Y-23239394D01*
X8012046Y-23239394D02*
X8021569Y-23248918D01*
X8021569Y-23248918D02*
X8040617Y-23258442D01*
X8040617Y-23258442D02*
X8078712Y-23258442D01*
X8078712Y-23258442D02*
X8097760Y-23248918D01*
X8097760Y-23248918D02*
X8107284Y-23239394D01*
X8107284Y-23239394D02*
X8116808Y-23220347D01*
X8116808Y-23220347D02*
X8116808Y-23182252D01*
X8116808Y-23182252D02*
X8107284Y-23163204D01*
X8107284Y-23163204D02*
X8097760Y-23153680D01*
X8097760Y-23153680D02*
X8078712Y-23144156D01*
X8192998Y-23058442D02*
X8192998Y-23096537D01*
X8269189Y-23058442D02*
X8269189Y-23096537D01*
X8564427Y-23334632D02*
X8554903Y-23325109D01*
X8554903Y-23325109D02*
X8535855Y-23296537D01*
X8535855Y-23296537D02*
X8526332Y-23277490D01*
X8526332Y-23277490D02*
X8516808Y-23248918D01*
X8516808Y-23248918D02*
X8507284Y-23201299D01*
X8507284Y-23201299D02*
X8507284Y-23163204D01*
X8507284Y-23163204D02*
X8516808Y-23115585D01*
X8516808Y-23115585D02*
X8526332Y-23087013D01*
X8526332Y-23087013D02*
X8535855Y-23067966D01*
X8535855Y-23067966D02*
X8554903Y-23039394D01*
X8554903Y-23039394D02*
X8564427Y-23029871D01*
X8621570Y-23058442D02*
X8754903Y-23058442D01*
X8754903Y-23058442D02*
X8669189Y-23258442D01*
X8916808Y-23125109D02*
X8916808Y-23258442D01*
X8869189Y-23048918D02*
X8821570Y-23191775D01*
X8821570Y-23191775D02*
X8945379Y-23191775D01*
X9173951Y-23258442D02*
X9173951Y-23058442D01*
X9259665Y-23258442D02*
X9259665Y-23153680D01*
X9259665Y-23153680D02*
X9250141Y-23134632D01*
X9250141Y-23134632D02*
X9231094Y-23125109D01*
X9231094Y-23125109D02*
X9202522Y-23125109D01*
X9202522Y-23125109D02*
X9183474Y-23134632D01*
X9183474Y-23134632D02*
X9173951Y-23144156D01*
X9383474Y-23258442D02*
X9364427Y-23248918D01*
X9364427Y-23248918D02*
X9354903Y-23239394D01*
X9354903Y-23239394D02*
X9345379Y-23220347D01*
X9345379Y-23220347D02*
X9345379Y-23163204D01*
X9345379Y-23163204D02*
X9354903Y-23144156D01*
X9354903Y-23144156D02*
X9364427Y-23134632D01*
X9364427Y-23134632D02*
X9383474Y-23125109D01*
X9383474Y-23125109D02*
X9412046Y-23125109D01*
X9412046Y-23125109D02*
X9431094Y-23134632D01*
X9431094Y-23134632D02*
X9440617Y-23144156D01*
X9440617Y-23144156D02*
X9450141Y-23163204D01*
X9450141Y-23163204D02*
X9450141Y-23220347D01*
X9450141Y-23220347D02*
X9440617Y-23239394D01*
X9440617Y-23239394D02*
X9431094Y-23248918D01*
X9431094Y-23248918D02*
X9412046Y-23258442D01*
X9412046Y-23258442D02*
X9383474Y-23258442D01*
X9564427Y-23258442D02*
X9545379Y-23248918D01*
X9545379Y-23248918D02*
X9535855Y-23229871D01*
X9535855Y-23229871D02*
X9535855Y-23058442D01*
X9716808Y-23248918D02*
X9697760Y-23258442D01*
X9697760Y-23258442D02*
X9659665Y-23258442D01*
X9659665Y-23258442D02*
X9640617Y-23248918D01*
X9640617Y-23248918D02*
X9631094Y-23229871D01*
X9631094Y-23229871D02*
X9631094Y-23153680D01*
X9631094Y-23153680D02*
X9640617Y-23134632D01*
X9640617Y-23134632D02*
X9659665Y-23125109D01*
X9659665Y-23125109D02*
X9697760Y-23125109D01*
X9697760Y-23125109D02*
X9716808Y-23134632D01*
X9716808Y-23134632D02*
X9726332Y-23153680D01*
X9726332Y-23153680D02*
X9726332Y-23172728D01*
X9726332Y-23172728D02*
X9631094Y-23191775D01*
X9802522Y-23248918D02*
X9821570Y-23258442D01*
X9821570Y-23258442D02*
X9859665Y-23258442D01*
X9859665Y-23258442D02*
X9878713Y-23248918D01*
X9878713Y-23248918D02*
X9888236Y-23229871D01*
X9888236Y-23229871D02*
X9888236Y-23220347D01*
X9888236Y-23220347D02*
X9878713Y-23201299D01*
X9878713Y-23201299D02*
X9859665Y-23191775D01*
X9859665Y-23191775D02*
X9831094Y-23191775D01*
X9831094Y-23191775D02*
X9812046Y-23182252D01*
X9812046Y-23182252D02*
X9802522Y-23163204D01*
X9802522Y-23163204D02*
X9802522Y-23153680D01*
X9802522Y-23153680D02*
X9812046Y-23134632D01*
X9812046Y-23134632D02*
X9831094Y-23125109D01*
X9831094Y-23125109D02*
X9859665Y-23125109D01*
X9859665Y-23125109D02*
X9878713Y-23134632D01*
X9954903Y-23334632D02*
X9964427Y-23325109D01*
X9964427Y-23325109D02*
X9983475Y-23296537D01*
X9983475Y-23296537D02*
X9992998Y-23277490D01*
X9992998Y-23277490D02*
X10002522Y-23248918D01*
X10002522Y-23248918D02*
X10012046Y-23201299D01*
X10012046Y-23201299D02*
X10012046Y-23163204D01*
X10012046Y-23163204D02*
X10002522Y-23115585D01*
X10002522Y-23115585D02*
X9992998Y-23087013D01*
X9992998Y-23087013D02*
X9983475Y-23067966D01*
X9983475Y-23067966D02*
X9964427Y-23039394D01*
X9964427Y-23039394D02*
X9954903Y-23029871D01*
D12*
X4989364Y-23430958D02*
G75*
G02*
X4949364Y-23430958I-20000J0D01*
G01*
X4949364Y-23430958D02*
G75*
G02*
X4989364Y-23430958I20000J0D01*
G01*
D11*
X5288236Y-23322442D02*
X5307284Y-23322442D01*
X5307284Y-23322442D02*
X5326331Y-23331966D01*
X5326331Y-23331966D02*
X5335855Y-23341490D01*
X5335855Y-23341490D02*
X5345379Y-23360537D01*
X5345379Y-23360537D02*
X5354903Y-23398632D01*
X5354903Y-23398632D02*
X5354903Y-23446252D01*
X5354903Y-23446252D02*
X5345379Y-23484347D01*
X5345379Y-23484347D02*
X5335855Y-23503394D01*
X5335855Y-23503394D02*
X5326331Y-23512918D01*
X5326331Y-23512918D02*
X5307284Y-23522442D01*
X5307284Y-23522442D02*
X5288236Y-23522442D01*
X5288236Y-23522442D02*
X5269188Y-23512918D01*
X5269188Y-23512918D02*
X5259665Y-23503394D01*
X5259665Y-23503394D02*
X5250141Y-23484347D01*
X5250141Y-23484347D02*
X5240617Y-23446252D01*
X5240617Y-23446252D02*
X5240617Y-23398632D01*
X5240617Y-23398632D02*
X5250141Y-23360537D01*
X5250141Y-23360537D02*
X5259665Y-23341490D01*
X5259665Y-23341490D02*
X5269188Y-23331966D01*
X5269188Y-23331966D02*
X5288236Y-23322442D01*
X5440617Y-23503394D02*
X5450141Y-23512918D01*
X5450141Y-23512918D02*
X5440617Y-23522442D01*
X5440617Y-23522442D02*
X5431093Y-23512918D01*
X5431093Y-23512918D02*
X5440617Y-23503394D01*
X5440617Y-23503394D02*
X5440617Y-23522442D01*
X5621569Y-23389109D02*
X5621569Y-23522442D01*
X5573950Y-23312918D02*
X5526331Y-23455775D01*
X5526331Y-23455775D02*
X5650141Y-23455775D01*
X5764426Y-23322442D02*
X5783474Y-23322442D01*
X5783474Y-23322442D02*
X5802522Y-23331966D01*
X5802522Y-23331966D02*
X5812045Y-23341490D01*
X5812045Y-23341490D02*
X5821569Y-23360537D01*
X5821569Y-23360537D02*
X5831093Y-23398632D01*
X5831093Y-23398632D02*
X5831093Y-23446252D01*
X5831093Y-23446252D02*
X5821569Y-23484347D01*
X5821569Y-23484347D02*
X5812045Y-23503394D01*
X5812045Y-23503394D02*
X5802522Y-23512918D01*
X5802522Y-23512918D02*
X5783474Y-23522442D01*
X5783474Y-23522442D02*
X5764426Y-23522442D01*
X5764426Y-23522442D02*
X5745379Y-23512918D01*
X5745379Y-23512918D02*
X5735855Y-23503394D01*
X5735855Y-23503394D02*
X5726331Y-23484347D01*
X5726331Y-23484347D02*
X5716807Y-23446252D01*
X5716807Y-23446252D02*
X5716807Y-23398632D01*
X5716807Y-23398632D02*
X5726331Y-23360537D01*
X5726331Y-23360537D02*
X5735855Y-23341490D01*
X5735855Y-23341490D02*
X5745379Y-23331966D01*
X5745379Y-23331966D02*
X5764426Y-23322442D01*
X5954903Y-23322442D02*
X5973950Y-23322442D01*
X5973950Y-23322442D02*
X5992998Y-23331966D01*
X5992998Y-23331966D02*
X6002522Y-23341490D01*
X6002522Y-23341490D02*
X6012045Y-23360537D01*
X6012045Y-23360537D02*
X6021569Y-23398632D01*
X6021569Y-23398632D02*
X6021569Y-23446252D01*
X6021569Y-23446252D02*
X6012045Y-23484347D01*
X6012045Y-23484347D02*
X6002522Y-23503394D01*
X6002522Y-23503394D02*
X5992998Y-23512918D01*
X5992998Y-23512918D02*
X5973950Y-23522442D01*
X5973950Y-23522442D02*
X5954903Y-23522442D01*
X5954903Y-23522442D02*
X5935855Y-23512918D01*
X5935855Y-23512918D02*
X5926331Y-23503394D01*
X5926331Y-23503394D02*
X5916807Y-23484347D01*
X5916807Y-23484347D02*
X5907284Y-23446252D01*
X5907284Y-23446252D02*
X5907284Y-23398632D01*
X5907284Y-23398632D02*
X5916807Y-23360537D01*
X5916807Y-23360537D02*
X5926331Y-23341490D01*
X5926331Y-23341490D02*
X5935855Y-23331966D01*
X5935855Y-23331966D02*
X5954903Y-23322442D01*
X6107284Y-23522442D02*
X6107284Y-23389109D01*
X6107284Y-23408156D02*
X6116807Y-23398632D01*
X6116807Y-23398632D02*
X6135855Y-23389109D01*
X6135855Y-23389109D02*
X6164426Y-23389109D01*
X6164426Y-23389109D02*
X6183474Y-23398632D01*
X6183474Y-23398632D02*
X6192998Y-23417680D01*
X6192998Y-23417680D02*
X6192998Y-23522442D01*
X6192998Y-23417680D02*
X6202522Y-23398632D01*
X6202522Y-23398632D02*
X6221569Y-23389109D01*
X6221569Y-23389109D02*
X6250141Y-23389109D01*
X6250141Y-23389109D02*
X6269188Y-23398632D01*
X6269188Y-23398632D02*
X6278712Y-23417680D01*
X6278712Y-23417680D02*
X6278712Y-23522442D01*
X6373950Y-23522442D02*
X6373950Y-23389109D01*
X6373950Y-23408156D02*
X6383474Y-23398632D01*
X6383474Y-23398632D02*
X6402522Y-23389109D01*
X6402522Y-23389109D02*
X6431093Y-23389109D01*
X6431093Y-23389109D02*
X6450141Y-23398632D01*
X6450141Y-23398632D02*
X6459665Y-23417680D01*
X6459665Y-23417680D02*
X6459665Y-23522442D01*
X6459665Y-23417680D02*
X6469188Y-23398632D01*
X6469188Y-23398632D02*
X6488236Y-23389109D01*
X6488236Y-23389109D02*
X6516807Y-23389109D01*
X6516807Y-23389109D02*
X6535855Y-23398632D01*
X6535855Y-23398632D02*
X6545379Y-23417680D01*
X6545379Y-23417680D02*
X6545379Y-23522442D01*
X6935855Y-23312918D02*
X6764427Y-23570061D01*
X7192998Y-23322442D02*
X7212046Y-23322442D01*
X7212046Y-23322442D02*
X7231093Y-23331966D01*
X7231093Y-23331966D02*
X7240617Y-23341490D01*
X7240617Y-23341490D02*
X7250141Y-23360537D01*
X7250141Y-23360537D02*
X7259665Y-23398632D01*
X7259665Y-23398632D02*
X7259665Y-23446252D01*
X7259665Y-23446252D02*
X7250141Y-23484347D01*
X7250141Y-23484347D02*
X7240617Y-23503394D01*
X7240617Y-23503394D02*
X7231093Y-23512918D01*
X7231093Y-23512918D02*
X7212046Y-23522442D01*
X7212046Y-23522442D02*
X7192998Y-23522442D01*
X7192998Y-23522442D02*
X7173950Y-23512918D01*
X7173950Y-23512918D02*
X7164427Y-23503394D01*
X7164427Y-23503394D02*
X7154903Y-23484347D01*
X7154903Y-23484347D02*
X7145379Y-23446252D01*
X7145379Y-23446252D02*
X7145379Y-23398632D01*
X7145379Y-23398632D02*
X7154903Y-23360537D01*
X7154903Y-23360537D02*
X7164427Y-23341490D01*
X7164427Y-23341490D02*
X7173950Y-23331966D01*
X7173950Y-23331966D02*
X7192998Y-23322442D01*
X7345379Y-23503394D02*
X7354903Y-23512918D01*
X7354903Y-23512918D02*
X7345379Y-23522442D01*
X7345379Y-23522442D02*
X7335855Y-23512918D01*
X7335855Y-23512918D02*
X7345379Y-23503394D01*
X7345379Y-23503394D02*
X7345379Y-23522442D01*
X7478712Y-23322442D02*
X7497760Y-23322442D01*
X7497760Y-23322442D02*
X7516808Y-23331966D01*
X7516808Y-23331966D02*
X7526331Y-23341490D01*
X7526331Y-23341490D02*
X7535855Y-23360537D01*
X7535855Y-23360537D02*
X7545379Y-23398632D01*
X7545379Y-23398632D02*
X7545379Y-23446252D01*
X7545379Y-23446252D02*
X7535855Y-23484347D01*
X7535855Y-23484347D02*
X7526331Y-23503394D01*
X7526331Y-23503394D02*
X7516808Y-23512918D01*
X7516808Y-23512918D02*
X7497760Y-23522442D01*
X7497760Y-23522442D02*
X7478712Y-23522442D01*
X7478712Y-23522442D02*
X7459665Y-23512918D01*
X7459665Y-23512918D02*
X7450141Y-23503394D01*
X7450141Y-23503394D02*
X7440617Y-23484347D01*
X7440617Y-23484347D02*
X7431093Y-23446252D01*
X7431093Y-23446252D02*
X7431093Y-23398632D01*
X7431093Y-23398632D02*
X7440617Y-23360537D01*
X7440617Y-23360537D02*
X7450141Y-23341490D01*
X7450141Y-23341490D02*
X7459665Y-23331966D01*
X7459665Y-23331966D02*
X7478712Y-23322442D01*
X7735855Y-23522442D02*
X7621569Y-23522442D01*
X7678712Y-23522442D02*
X7678712Y-23322442D01*
X7678712Y-23322442D02*
X7659665Y-23351013D01*
X7659665Y-23351013D02*
X7640617Y-23370061D01*
X7640617Y-23370061D02*
X7621569Y-23379585D01*
X7916808Y-23322442D02*
X7821569Y-23322442D01*
X7821569Y-23322442D02*
X7812046Y-23417680D01*
X7812046Y-23417680D02*
X7821569Y-23408156D01*
X7821569Y-23408156D02*
X7840617Y-23398632D01*
X7840617Y-23398632D02*
X7888236Y-23398632D01*
X7888236Y-23398632D02*
X7907284Y-23408156D01*
X7907284Y-23408156D02*
X7916808Y-23417680D01*
X7916808Y-23417680D02*
X7926331Y-23436728D01*
X7926331Y-23436728D02*
X7926331Y-23484347D01*
X7926331Y-23484347D02*
X7916808Y-23503394D01*
X7916808Y-23503394D02*
X7907284Y-23512918D01*
X7907284Y-23512918D02*
X7888236Y-23522442D01*
X7888236Y-23522442D02*
X7840617Y-23522442D01*
X7840617Y-23522442D02*
X7821569Y-23512918D01*
X7821569Y-23512918D02*
X7812046Y-23503394D01*
X7992998Y-23322442D02*
X8126331Y-23322442D01*
X8126331Y-23322442D02*
X8040617Y-23522442D01*
X8192998Y-23322442D02*
X8192998Y-23360537D01*
X8269189Y-23322442D02*
X8269189Y-23360537D01*
X8564427Y-23598632D02*
X8554903Y-23589109D01*
X8554903Y-23589109D02*
X8535855Y-23560537D01*
X8535855Y-23560537D02*
X8526332Y-23541490D01*
X8526332Y-23541490D02*
X8516808Y-23512918D01*
X8516808Y-23512918D02*
X8507284Y-23465299D01*
X8507284Y-23465299D02*
X8507284Y-23427204D01*
X8507284Y-23427204D02*
X8516808Y-23379585D01*
X8516808Y-23379585D02*
X8526332Y-23351013D01*
X8526332Y-23351013D02*
X8535855Y-23331966D01*
X8535855Y-23331966D02*
X8554903Y-23303394D01*
X8554903Y-23303394D02*
X8564427Y-23293871D01*
X8726332Y-23322442D02*
X8688236Y-23322442D01*
X8688236Y-23322442D02*
X8669189Y-23331966D01*
X8669189Y-23331966D02*
X8659665Y-23341490D01*
X8659665Y-23341490D02*
X8640617Y-23370061D01*
X8640617Y-23370061D02*
X8631093Y-23408156D01*
X8631093Y-23408156D02*
X8631093Y-23484347D01*
X8631093Y-23484347D02*
X8640617Y-23503394D01*
X8640617Y-23503394D02*
X8650141Y-23512918D01*
X8650141Y-23512918D02*
X8669189Y-23522442D01*
X8669189Y-23522442D02*
X8707284Y-23522442D01*
X8707284Y-23522442D02*
X8726332Y-23512918D01*
X8726332Y-23512918D02*
X8735855Y-23503394D01*
X8735855Y-23503394D02*
X8745379Y-23484347D01*
X8745379Y-23484347D02*
X8745379Y-23436728D01*
X8745379Y-23436728D02*
X8735855Y-23417680D01*
X8735855Y-23417680D02*
X8726332Y-23408156D01*
X8726332Y-23408156D02*
X8707284Y-23398632D01*
X8707284Y-23398632D02*
X8669189Y-23398632D01*
X8669189Y-23398632D02*
X8650141Y-23408156D01*
X8650141Y-23408156D02*
X8640617Y-23417680D01*
X8640617Y-23417680D02*
X8631093Y-23436728D01*
X8916808Y-23389109D02*
X8916808Y-23522442D01*
X8869189Y-23312918D02*
X8821570Y-23455775D01*
X8821570Y-23455775D02*
X8945379Y-23455775D01*
X9173951Y-23522442D02*
X9173951Y-23322442D01*
X9259665Y-23522442D02*
X9259665Y-23417680D01*
X9259665Y-23417680D02*
X9250141Y-23398632D01*
X9250141Y-23398632D02*
X9231094Y-23389109D01*
X9231094Y-23389109D02*
X9202522Y-23389109D01*
X9202522Y-23389109D02*
X9183474Y-23398632D01*
X9183474Y-23398632D02*
X9173951Y-23408156D01*
X9383474Y-23522442D02*
X9364427Y-23512918D01*
X9364427Y-23512918D02*
X9354903Y-23503394D01*
X9354903Y-23503394D02*
X9345379Y-23484347D01*
X9345379Y-23484347D02*
X9345379Y-23427204D01*
X9345379Y-23427204D02*
X9354903Y-23408156D01*
X9354903Y-23408156D02*
X9364427Y-23398632D01*
X9364427Y-23398632D02*
X9383474Y-23389109D01*
X9383474Y-23389109D02*
X9412046Y-23389109D01*
X9412046Y-23389109D02*
X9431094Y-23398632D01*
X9431094Y-23398632D02*
X9440617Y-23408156D01*
X9440617Y-23408156D02*
X9450141Y-23427204D01*
X9450141Y-23427204D02*
X9450141Y-23484347D01*
X9450141Y-23484347D02*
X9440617Y-23503394D01*
X9440617Y-23503394D02*
X9431094Y-23512918D01*
X9431094Y-23512918D02*
X9412046Y-23522442D01*
X9412046Y-23522442D02*
X9383474Y-23522442D01*
X9564427Y-23522442D02*
X9545379Y-23512918D01*
X9545379Y-23512918D02*
X9535855Y-23493871D01*
X9535855Y-23493871D02*
X9535855Y-23322442D01*
X9716808Y-23512918D02*
X9697760Y-23522442D01*
X9697760Y-23522442D02*
X9659665Y-23522442D01*
X9659665Y-23522442D02*
X9640617Y-23512918D01*
X9640617Y-23512918D02*
X9631094Y-23493871D01*
X9631094Y-23493871D02*
X9631094Y-23417680D01*
X9631094Y-23417680D02*
X9640617Y-23398632D01*
X9640617Y-23398632D02*
X9659665Y-23389109D01*
X9659665Y-23389109D02*
X9697760Y-23389109D01*
X9697760Y-23389109D02*
X9716808Y-23398632D01*
X9716808Y-23398632D02*
X9726332Y-23417680D01*
X9726332Y-23417680D02*
X9726332Y-23436728D01*
X9726332Y-23436728D02*
X9631094Y-23455775D01*
X9802522Y-23512918D02*
X9821570Y-23522442D01*
X9821570Y-23522442D02*
X9859665Y-23522442D01*
X9859665Y-23522442D02*
X9878713Y-23512918D01*
X9878713Y-23512918D02*
X9888236Y-23493871D01*
X9888236Y-23493871D02*
X9888236Y-23484347D01*
X9888236Y-23484347D02*
X9878713Y-23465299D01*
X9878713Y-23465299D02*
X9859665Y-23455775D01*
X9859665Y-23455775D02*
X9831094Y-23455775D01*
X9831094Y-23455775D02*
X9812046Y-23446252D01*
X9812046Y-23446252D02*
X9802522Y-23427204D01*
X9802522Y-23427204D02*
X9802522Y-23417680D01*
X9802522Y-23417680D02*
X9812046Y-23398632D01*
X9812046Y-23398632D02*
X9831094Y-23389109D01*
X9831094Y-23389109D02*
X9859665Y-23389109D01*
X9859665Y-23389109D02*
X9878713Y-23398632D01*
X9954903Y-23598632D02*
X9964427Y-23589109D01*
X9964427Y-23589109D02*
X9983475Y-23560537D01*
X9983475Y-23560537D02*
X9992998Y-23541490D01*
X9992998Y-23541490D02*
X10002522Y-23512918D01*
X10002522Y-23512918D02*
X10012046Y-23465299D01*
X10012046Y-23465299D02*
X10012046Y-23427204D01*
X10012046Y-23427204D02*
X10002522Y-23379585D01*
X10002522Y-23379585D02*
X9992998Y-23351013D01*
X9992998Y-23351013D02*
X9983475Y-23331966D01*
X9983475Y-23331966D02*
X9964427Y-23303394D01*
X9964427Y-23303394D02*
X9954903Y-23293871D01*
D12*
X4939364Y-23644958D02*
X4939364Y-23744958D01*
X4889364Y-23694958D02*
X4989364Y-23694958D01*
D11*
X5354903Y-23786442D02*
X5240617Y-23786442D01*
X5297760Y-23786442D02*
X5297760Y-23586442D01*
X5297760Y-23586442D02*
X5278712Y-23615013D01*
X5278712Y-23615013D02*
X5259665Y-23634061D01*
X5259665Y-23634061D02*
X5240617Y-23643585D01*
X5440617Y-23767394D02*
X5450141Y-23776918D01*
X5450141Y-23776918D02*
X5440617Y-23786442D01*
X5440617Y-23786442D02*
X5431093Y-23776918D01*
X5431093Y-23776918D02*
X5440617Y-23767394D01*
X5440617Y-23767394D02*
X5440617Y-23786442D01*
X5573950Y-23586442D02*
X5592998Y-23586442D01*
X5592998Y-23586442D02*
X5612045Y-23595966D01*
X5612045Y-23595966D02*
X5621569Y-23605490D01*
X5621569Y-23605490D02*
X5631093Y-23624537D01*
X5631093Y-23624537D02*
X5640617Y-23662632D01*
X5640617Y-23662632D02*
X5640617Y-23710252D01*
X5640617Y-23710252D02*
X5631093Y-23748347D01*
X5631093Y-23748347D02*
X5621569Y-23767394D01*
X5621569Y-23767394D02*
X5612045Y-23776918D01*
X5612045Y-23776918D02*
X5592998Y-23786442D01*
X5592998Y-23786442D02*
X5573950Y-23786442D01*
X5573950Y-23786442D02*
X5554903Y-23776918D01*
X5554903Y-23776918D02*
X5545379Y-23767394D01*
X5545379Y-23767394D02*
X5535855Y-23748347D01*
X5535855Y-23748347D02*
X5526331Y-23710252D01*
X5526331Y-23710252D02*
X5526331Y-23662632D01*
X5526331Y-23662632D02*
X5535855Y-23624537D01*
X5535855Y-23624537D02*
X5545379Y-23605490D01*
X5545379Y-23605490D02*
X5554903Y-23595966D01*
X5554903Y-23595966D02*
X5573950Y-23586442D01*
X5764426Y-23586442D02*
X5783474Y-23586442D01*
X5783474Y-23586442D02*
X5802522Y-23595966D01*
X5802522Y-23595966D02*
X5812045Y-23605490D01*
X5812045Y-23605490D02*
X5821569Y-23624537D01*
X5821569Y-23624537D02*
X5831093Y-23662632D01*
X5831093Y-23662632D02*
X5831093Y-23710252D01*
X5831093Y-23710252D02*
X5821569Y-23748347D01*
X5821569Y-23748347D02*
X5812045Y-23767394D01*
X5812045Y-23767394D02*
X5802522Y-23776918D01*
X5802522Y-23776918D02*
X5783474Y-23786442D01*
X5783474Y-23786442D02*
X5764426Y-23786442D01*
X5764426Y-23786442D02*
X5745379Y-23776918D01*
X5745379Y-23776918D02*
X5735855Y-23767394D01*
X5735855Y-23767394D02*
X5726331Y-23748347D01*
X5726331Y-23748347D02*
X5716807Y-23710252D01*
X5716807Y-23710252D02*
X5716807Y-23662632D01*
X5716807Y-23662632D02*
X5726331Y-23624537D01*
X5726331Y-23624537D02*
X5735855Y-23605490D01*
X5735855Y-23605490D02*
X5745379Y-23595966D01*
X5745379Y-23595966D02*
X5764426Y-23586442D01*
X5954903Y-23586442D02*
X5973950Y-23586442D01*
X5973950Y-23586442D02*
X5992998Y-23595966D01*
X5992998Y-23595966D02*
X6002522Y-23605490D01*
X6002522Y-23605490D02*
X6012045Y-23624537D01*
X6012045Y-23624537D02*
X6021569Y-23662632D01*
X6021569Y-23662632D02*
X6021569Y-23710252D01*
X6021569Y-23710252D02*
X6012045Y-23748347D01*
X6012045Y-23748347D02*
X6002522Y-23767394D01*
X6002522Y-23767394D02*
X5992998Y-23776918D01*
X5992998Y-23776918D02*
X5973950Y-23786442D01*
X5973950Y-23786442D02*
X5954903Y-23786442D01*
X5954903Y-23786442D02*
X5935855Y-23776918D01*
X5935855Y-23776918D02*
X5926331Y-23767394D01*
X5926331Y-23767394D02*
X5916807Y-23748347D01*
X5916807Y-23748347D02*
X5907284Y-23710252D01*
X5907284Y-23710252D02*
X5907284Y-23662632D01*
X5907284Y-23662632D02*
X5916807Y-23624537D01*
X5916807Y-23624537D02*
X5926331Y-23605490D01*
X5926331Y-23605490D02*
X5935855Y-23595966D01*
X5935855Y-23595966D02*
X5954903Y-23586442D01*
X6107284Y-23786442D02*
X6107284Y-23653109D01*
X6107284Y-23672156D02*
X6116807Y-23662632D01*
X6116807Y-23662632D02*
X6135855Y-23653109D01*
X6135855Y-23653109D02*
X6164426Y-23653109D01*
X6164426Y-23653109D02*
X6183474Y-23662632D01*
X6183474Y-23662632D02*
X6192998Y-23681680D01*
X6192998Y-23681680D02*
X6192998Y-23786442D01*
X6192998Y-23681680D02*
X6202522Y-23662632D01*
X6202522Y-23662632D02*
X6221569Y-23653109D01*
X6221569Y-23653109D02*
X6250141Y-23653109D01*
X6250141Y-23653109D02*
X6269188Y-23662632D01*
X6269188Y-23662632D02*
X6278712Y-23681680D01*
X6278712Y-23681680D02*
X6278712Y-23786442D01*
X6373950Y-23786442D02*
X6373950Y-23653109D01*
X6373950Y-23672156D02*
X6383474Y-23662632D01*
X6383474Y-23662632D02*
X6402522Y-23653109D01*
X6402522Y-23653109D02*
X6431093Y-23653109D01*
X6431093Y-23653109D02*
X6450141Y-23662632D01*
X6450141Y-23662632D02*
X6459665Y-23681680D01*
X6459665Y-23681680D02*
X6459665Y-23786442D01*
X6459665Y-23681680D02*
X6469188Y-23662632D01*
X6469188Y-23662632D02*
X6488236Y-23653109D01*
X6488236Y-23653109D02*
X6516807Y-23653109D01*
X6516807Y-23653109D02*
X6535855Y-23662632D01*
X6535855Y-23662632D02*
X6545379Y-23681680D01*
X6545379Y-23681680D02*
X6545379Y-23786442D01*
X6935855Y-23576918D02*
X6764427Y-23834061D01*
X7192998Y-23586442D02*
X7212046Y-23586442D01*
X7212046Y-23586442D02*
X7231093Y-23595966D01*
X7231093Y-23595966D02*
X7240617Y-23605490D01*
X7240617Y-23605490D02*
X7250141Y-23624537D01*
X7250141Y-23624537D02*
X7259665Y-23662632D01*
X7259665Y-23662632D02*
X7259665Y-23710252D01*
X7259665Y-23710252D02*
X7250141Y-23748347D01*
X7250141Y-23748347D02*
X7240617Y-23767394D01*
X7240617Y-23767394D02*
X7231093Y-23776918D01*
X7231093Y-23776918D02*
X7212046Y-23786442D01*
X7212046Y-23786442D02*
X7192998Y-23786442D01*
X7192998Y-23786442D02*
X7173950Y-23776918D01*
X7173950Y-23776918D02*
X7164427Y-23767394D01*
X7164427Y-23767394D02*
X7154903Y-23748347D01*
X7154903Y-23748347D02*
X7145379Y-23710252D01*
X7145379Y-23710252D02*
X7145379Y-23662632D01*
X7145379Y-23662632D02*
X7154903Y-23624537D01*
X7154903Y-23624537D02*
X7164427Y-23605490D01*
X7164427Y-23605490D02*
X7173950Y-23595966D01*
X7173950Y-23595966D02*
X7192998Y-23586442D01*
X7345379Y-23767394D02*
X7354903Y-23776918D01*
X7354903Y-23776918D02*
X7345379Y-23786442D01*
X7345379Y-23786442D02*
X7335855Y-23776918D01*
X7335855Y-23776918D02*
X7345379Y-23767394D01*
X7345379Y-23767394D02*
X7345379Y-23786442D01*
X7478712Y-23586442D02*
X7497760Y-23586442D01*
X7497760Y-23586442D02*
X7516808Y-23595966D01*
X7516808Y-23595966D02*
X7526331Y-23605490D01*
X7526331Y-23605490D02*
X7535855Y-23624537D01*
X7535855Y-23624537D02*
X7545379Y-23662632D01*
X7545379Y-23662632D02*
X7545379Y-23710252D01*
X7545379Y-23710252D02*
X7535855Y-23748347D01*
X7535855Y-23748347D02*
X7526331Y-23767394D01*
X7526331Y-23767394D02*
X7516808Y-23776918D01*
X7516808Y-23776918D02*
X7497760Y-23786442D01*
X7497760Y-23786442D02*
X7478712Y-23786442D01*
X7478712Y-23786442D02*
X7459665Y-23776918D01*
X7459665Y-23776918D02*
X7450141Y-23767394D01*
X7450141Y-23767394D02*
X7440617Y-23748347D01*
X7440617Y-23748347D02*
X7431093Y-23710252D01*
X7431093Y-23710252D02*
X7431093Y-23662632D01*
X7431093Y-23662632D02*
X7440617Y-23624537D01*
X7440617Y-23624537D02*
X7450141Y-23605490D01*
X7450141Y-23605490D02*
X7459665Y-23595966D01*
X7459665Y-23595966D02*
X7478712Y-23586442D01*
X7612046Y-23586442D02*
X7735855Y-23586442D01*
X7735855Y-23586442D02*
X7669188Y-23662632D01*
X7669188Y-23662632D02*
X7697760Y-23662632D01*
X7697760Y-23662632D02*
X7716808Y-23672156D01*
X7716808Y-23672156D02*
X7726331Y-23681680D01*
X7726331Y-23681680D02*
X7735855Y-23700728D01*
X7735855Y-23700728D02*
X7735855Y-23748347D01*
X7735855Y-23748347D02*
X7726331Y-23767394D01*
X7726331Y-23767394D02*
X7716808Y-23776918D01*
X7716808Y-23776918D02*
X7697760Y-23786442D01*
X7697760Y-23786442D02*
X7640617Y-23786442D01*
X7640617Y-23786442D02*
X7621569Y-23776918D01*
X7621569Y-23776918D02*
X7612046Y-23767394D01*
X7831093Y-23786442D02*
X7869188Y-23786442D01*
X7869188Y-23786442D02*
X7888236Y-23776918D01*
X7888236Y-23776918D02*
X7897760Y-23767394D01*
X7897760Y-23767394D02*
X7916808Y-23738823D01*
X7916808Y-23738823D02*
X7926331Y-23700728D01*
X7926331Y-23700728D02*
X7926331Y-23624537D01*
X7926331Y-23624537D02*
X7916808Y-23605490D01*
X7916808Y-23605490D02*
X7907284Y-23595966D01*
X7907284Y-23595966D02*
X7888236Y-23586442D01*
X7888236Y-23586442D02*
X7850141Y-23586442D01*
X7850141Y-23586442D02*
X7831093Y-23595966D01*
X7831093Y-23595966D02*
X7821569Y-23605490D01*
X7821569Y-23605490D02*
X7812046Y-23624537D01*
X7812046Y-23624537D02*
X7812046Y-23672156D01*
X7812046Y-23672156D02*
X7821569Y-23691204D01*
X7821569Y-23691204D02*
X7831093Y-23700728D01*
X7831093Y-23700728D02*
X7850141Y-23710252D01*
X7850141Y-23710252D02*
X7888236Y-23710252D01*
X7888236Y-23710252D02*
X7907284Y-23700728D01*
X7907284Y-23700728D02*
X7916808Y-23691204D01*
X7916808Y-23691204D02*
X7926331Y-23672156D01*
X8097760Y-23653109D02*
X8097760Y-23786442D01*
X8050141Y-23576918D02*
X8002522Y-23719775D01*
X8002522Y-23719775D02*
X8126331Y-23719775D01*
X8192998Y-23586442D02*
X8192998Y-23624537D01*
X8269189Y-23586442D02*
X8269189Y-23624537D01*
X8564427Y-23862632D02*
X8554903Y-23853109D01*
X8554903Y-23853109D02*
X8535855Y-23824537D01*
X8535855Y-23824537D02*
X8526332Y-23805490D01*
X8526332Y-23805490D02*
X8516808Y-23776918D01*
X8516808Y-23776918D02*
X8507284Y-23729299D01*
X8507284Y-23729299D02*
X8507284Y-23691204D01*
X8507284Y-23691204D02*
X8516808Y-23643585D01*
X8516808Y-23643585D02*
X8526332Y-23615013D01*
X8526332Y-23615013D02*
X8535855Y-23595966D01*
X8535855Y-23595966D02*
X8554903Y-23567394D01*
X8554903Y-23567394D02*
X8564427Y-23557871D01*
X8631093Y-23605490D02*
X8640617Y-23595966D01*
X8640617Y-23595966D02*
X8659665Y-23586442D01*
X8659665Y-23586442D02*
X8707284Y-23586442D01*
X8707284Y-23586442D02*
X8726332Y-23595966D01*
X8726332Y-23595966D02*
X8735855Y-23605490D01*
X8735855Y-23605490D02*
X8745379Y-23624537D01*
X8745379Y-23624537D02*
X8745379Y-23643585D01*
X8745379Y-23643585D02*
X8735855Y-23672156D01*
X8735855Y-23672156D02*
X8621570Y-23786442D01*
X8621570Y-23786442D02*
X8745379Y-23786442D01*
X8859665Y-23672156D02*
X8840617Y-23662632D01*
X8840617Y-23662632D02*
X8831093Y-23653109D01*
X8831093Y-23653109D02*
X8821570Y-23634061D01*
X8821570Y-23634061D02*
X8821570Y-23624537D01*
X8821570Y-23624537D02*
X8831093Y-23605490D01*
X8831093Y-23605490D02*
X8840617Y-23595966D01*
X8840617Y-23595966D02*
X8859665Y-23586442D01*
X8859665Y-23586442D02*
X8897760Y-23586442D01*
X8897760Y-23586442D02*
X8916808Y-23595966D01*
X8916808Y-23595966D02*
X8926332Y-23605490D01*
X8926332Y-23605490D02*
X8935855Y-23624537D01*
X8935855Y-23624537D02*
X8935855Y-23634061D01*
X8935855Y-23634061D02*
X8926332Y-23653109D01*
X8926332Y-23653109D02*
X8916808Y-23662632D01*
X8916808Y-23662632D02*
X8897760Y-23672156D01*
X8897760Y-23672156D02*
X8859665Y-23672156D01*
X8859665Y-23672156D02*
X8840617Y-23681680D01*
X8840617Y-23681680D02*
X8831093Y-23691204D01*
X8831093Y-23691204D02*
X8821570Y-23710252D01*
X8821570Y-23710252D02*
X8821570Y-23748347D01*
X8821570Y-23748347D02*
X8831093Y-23767394D01*
X8831093Y-23767394D02*
X8840617Y-23776918D01*
X8840617Y-23776918D02*
X8859665Y-23786442D01*
X8859665Y-23786442D02*
X8897760Y-23786442D01*
X8897760Y-23786442D02*
X8916808Y-23776918D01*
X8916808Y-23776918D02*
X8926332Y-23767394D01*
X8926332Y-23767394D02*
X8935855Y-23748347D01*
X8935855Y-23748347D02*
X8935855Y-23710252D01*
X8935855Y-23710252D02*
X8926332Y-23691204D01*
X8926332Y-23691204D02*
X8916808Y-23681680D01*
X8916808Y-23681680D02*
X8897760Y-23672156D01*
X9173951Y-23786442D02*
X9173951Y-23586442D01*
X9259665Y-23786442D02*
X9259665Y-23681680D01*
X9259665Y-23681680D02*
X9250141Y-23662632D01*
X9250141Y-23662632D02*
X9231094Y-23653109D01*
X9231094Y-23653109D02*
X9202522Y-23653109D01*
X9202522Y-23653109D02*
X9183474Y-23662632D01*
X9183474Y-23662632D02*
X9173951Y-23672156D01*
X9383474Y-23786442D02*
X9364427Y-23776918D01*
X9364427Y-23776918D02*
X9354903Y-23767394D01*
X9354903Y-23767394D02*
X9345379Y-23748347D01*
X9345379Y-23748347D02*
X9345379Y-23691204D01*
X9345379Y-23691204D02*
X9354903Y-23672156D01*
X9354903Y-23672156D02*
X9364427Y-23662632D01*
X9364427Y-23662632D02*
X9383474Y-23653109D01*
X9383474Y-23653109D02*
X9412046Y-23653109D01*
X9412046Y-23653109D02*
X9431094Y-23662632D01*
X9431094Y-23662632D02*
X9440617Y-23672156D01*
X9440617Y-23672156D02*
X9450141Y-23691204D01*
X9450141Y-23691204D02*
X9450141Y-23748347D01*
X9450141Y-23748347D02*
X9440617Y-23767394D01*
X9440617Y-23767394D02*
X9431094Y-23776918D01*
X9431094Y-23776918D02*
X9412046Y-23786442D01*
X9412046Y-23786442D02*
X9383474Y-23786442D01*
X9564427Y-23786442D02*
X9545379Y-23776918D01*
X9545379Y-23776918D02*
X9535855Y-23757871D01*
X9535855Y-23757871D02*
X9535855Y-23586442D01*
X9716808Y-23776918D02*
X9697760Y-23786442D01*
X9697760Y-23786442D02*
X9659665Y-23786442D01*
X9659665Y-23786442D02*
X9640617Y-23776918D01*
X9640617Y-23776918D02*
X9631094Y-23757871D01*
X9631094Y-23757871D02*
X9631094Y-23681680D01*
X9631094Y-23681680D02*
X9640617Y-23662632D01*
X9640617Y-23662632D02*
X9659665Y-23653109D01*
X9659665Y-23653109D02*
X9697760Y-23653109D01*
X9697760Y-23653109D02*
X9716808Y-23662632D01*
X9716808Y-23662632D02*
X9726332Y-23681680D01*
X9726332Y-23681680D02*
X9726332Y-23700728D01*
X9726332Y-23700728D02*
X9631094Y-23719775D01*
X9802522Y-23776918D02*
X9821570Y-23786442D01*
X9821570Y-23786442D02*
X9859665Y-23786442D01*
X9859665Y-23786442D02*
X9878713Y-23776918D01*
X9878713Y-23776918D02*
X9888236Y-23757871D01*
X9888236Y-23757871D02*
X9888236Y-23748347D01*
X9888236Y-23748347D02*
X9878713Y-23729299D01*
X9878713Y-23729299D02*
X9859665Y-23719775D01*
X9859665Y-23719775D02*
X9831094Y-23719775D01*
X9831094Y-23719775D02*
X9812046Y-23710252D01*
X9812046Y-23710252D02*
X9802522Y-23691204D01*
X9802522Y-23691204D02*
X9802522Y-23681680D01*
X9802522Y-23681680D02*
X9812046Y-23662632D01*
X9812046Y-23662632D02*
X9831094Y-23653109D01*
X9831094Y-23653109D02*
X9859665Y-23653109D01*
X9859665Y-23653109D02*
X9878713Y-23662632D01*
X9954903Y-23862632D02*
X9964427Y-23853109D01*
X9964427Y-23853109D02*
X9983475Y-23824537D01*
X9983475Y-23824537D02*
X9992998Y-23805490D01*
X9992998Y-23805490D02*
X10002522Y-23776918D01*
X10002522Y-23776918D02*
X10012046Y-23729299D01*
X10012046Y-23729299D02*
X10012046Y-23691204D01*
X10012046Y-23691204D02*
X10002522Y-23643585D01*
X10002522Y-23643585D02*
X9992998Y-23615013D01*
X9992998Y-23615013D02*
X9983475Y-23595966D01*
X9983475Y-23595966D02*
X9964427Y-23567394D01*
X9964427Y-23567394D02*
X9954903Y-23557871D01*
X4960075Y-24029670D02*
X4960075Y-23888247D01*
X4818653Y-23888247D01*
X4818653Y-24029670D01*
X4960075Y-24029670D01*
X5240617Y-23869490D02*
X5250141Y-23859966D01*
X5250141Y-23859966D02*
X5269188Y-23850442D01*
X5269188Y-23850442D02*
X5316807Y-23850442D01*
X5316807Y-23850442D02*
X5335855Y-23859966D01*
X5335855Y-23859966D02*
X5345379Y-23869490D01*
X5345379Y-23869490D02*
X5354903Y-23888537D01*
X5354903Y-23888537D02*
X5354903Y-23907585D01*
X5354903Y-23907585D02*
X5345379Y-23936156D01*
X5345379Y-23936156D02*
X5231093Y-24050442D01*
X5231093Y-24050442D02*
X5354903Y-24050442D01*
X5440617Y-24031394D02*
X5450141Y-24040918D01*
X5450141Y-24040918D02*
X5440617Y-24050442D01*
X5440617Y-24050442D02*
X5431093Y-24040918D01*
X5431093Y-24040918D02*
X5440617Y-24031394D01*
X5440617Y-24031394D02*
X5440617Y-24050442D01*
X5526331Y-23869490D02*
X5535855Y-23859966D01*
X5535855Y-23859966D02*
X5554903Y-23850442D01*
X5554903Y-23850442D02*
X5602522Y-23850442D01*
X5602522Y-23850442D02*
X5621569Y-23859966D01*
X5621569Y-23859966D02*
X5631093Y-23869490D01*
X5631093Y-23869490D02*
X5640617Y-23888537D01*
X5640617Y-23888537D02*
X5640617Y-23907585D01*
X5640617Y-23907585D02*
X5631093Y-23936156D01*
X5631093Y-23936156D02*
X5516807Y-24050442D01*
X5516807Y-24050442D02*
X5640617Y-24050442D01*
X5764426Y-23850442D02*
X5783474Y-23850442D01*
X5783474Y-23850442D02*
X5802522Y-23859966D01*
X5802522Y-23859966D02*
X5812045Y-23869490D01*
X5812045Y-23869490D02*
X5821569Y-23888537D01*
X5821569Y-23888537D02*
X5831093Y-23926632D01*
X5831093Y-23926632D02*
X5831093Y-23974252D01*
X5831093Y-23974252D02*
X5821569Y-24012347D01*
X5821569Y-24012347D02*
X5812045Y-24031394D01*
X5812045Y-24031394D02*
X5802522Y-24040918D01*
X5802522Y-24040918D02*
X5783474Y-24050442D01*
X5783474Y-24050442D02*
X5764426Y-24050442D01*
X5764426Y-24050442D02*
X5745379Y-24040918D01*
X5745379Y-24040918D02*
X5735855Y-24031394D01*
X5735855Y-24031394D02*
X5726331Y-24012347D01*
X5726331Y-24012347D02*
X5716807Y-23974252D01*
X5716807Y-23974252D02*
X5716807Y-23926632D01*
X5716807Y-23926632D02*
X5726331Y-23888537D01*
X5726331Y-23888537D02*
X5735855Y-23869490D01*
X5735855Y-23869490D02*
X5745379Y-23859966D01*
X5745379Y-23859966D02*
X5764426Y-23850442D01*
X5954903Y-23850442D02*
X5973950Y-23850442D01*
X5973950Y-23850442D02*
X5992998Y-23859966D01*
X5992998Y-23859966D02*
X6002522Y-23869490D01*
X6002522Y-23869490D02*
X6012045Y-23888537D01*
X6012045Y-23888537D02*
X6021569Y-23926632D01*
X6021569Y-23926632D02*
X6021569Y-23974252D01*
X6021569Y-23974252D02*
X6012045Y-24012347D01*
X6012045Y-24012347D02*
X6002522Y-24031394D01*
X6002522Y-24031394D02*
X5992998Y-24040918D01*
X5992998Y-24040918D02*
X5973950Y-24050442D01*
X5973950Y-24050442D02*
X5954903Y-24050442D01*
X5954903Y-24050442D02*
X5935855Y-24040918D01*
X5935855Y-24040918D02*
X5926331Y-24031394D01*
X5926331Y-24031394D02*
X5916807Y-24012347D01*
X5916807Y-24012347D02*
X5907284Y-23974252D01*
X5907284Y-23974252D02*
X5907284Y-23926632D01*
X5907284Y-23926632D02*
X5916807Y-23888537D01*
X5916807Y-23888537D02*
X5926331Y-23869490D01*
X5926331Y-23869490D02*
X5935855Y-23859966D01*
X5935855Y-23859966D02*
X5954903Y-23850442D01*
X6107284Y-24050442D02*
X6107284Y-23917109D01*
X6107284Y-23936156D02*
X6116807Y-23926632D01*
X6116807Y-23926632D02*
X6135855Y-23917109D01*
X6135855Y-23917109D02*
X6164426Y-23917109D01*
X6164426Y-23917109D02*
X6183474Y-23926632D01*
X6183474Y-23926632D02*
X6192998Y-23945680D01*
X6192998Y-23945680D02*
X6192998Y-24050442D01*
X6192998Y-23945680D02*
X6202522Y-23926632D01*
X6202522Y-23926632D02*
X6221569Y-23917109D01*
X6221569Y-23917109D02*
X6250141Y-23917109D01*
X6250141Y-23917109D02*
X6269188Y-23926632D01*
X6269188Y-23926632D02*
X6278712Y-23945680D01*
X6278712Y-23945680D02*
X6278712Y-24050442D01*
X6373950Y-24050442D02*
X6373950Y-23917109D01*
X6373950Y-23936156D02*
X6383474Y-23926632D01*
X6383474Y-23926632D02*
X6402522Y-23917109D01*
X6402522Y-23917109D02*
X6431093Y-23917109D01*
X6431093Y-23917109D02*
X6450141Y-23926632D01*
X6450141Y-23926632D02*
X6459665Y-23945680D01*
X6459665Y-23945680D02*
X6459665Y-24050442D01*
X6459665Y-23945680D02*
X6469188Y-23926632D01*
X6469188Y-23926632D02*
X6488236Y-23917109D01*
X6488236Y-23917109D02*
X6516807Y-23917109D01*
X6516807Y-23917109D02*
X6535855Y-23926632D01*
X6535855Y-23926632D02*
X6545379Y-23945680D01*
X6545379Y-23945680D02*
X6545379Y-24050442D01*
X6935855Y-23840918D02*
X6764427Y-24098061D01*
X7192998Y-23850442D02*
X7212046Y-23850442D01*
X7212046Y-23850442D02*
X7231093Y-23859966D01*
X7231093Y-23859966D02*
X7240617Y-23869490D01*
X7240617Y-23869490D02*
X7250141Y-23888537D01*
X7250141Y-23888537D02*
X7259665Y-23926632D01*
X7259665Y-23926632D02*
X7259665Y-23974252D01*
X7259665Y-23974252D02*
X7250141Y-24012347D01*
X7250141Y-24012347D02*
X7240617Y-24031394D01*
X7240617Y-24031394D02*
X7231093Y-24040918D01*
X7231093Y-24040918D02*
X7212046Y-24050442D01*
X7212046Y-24050442D02*
X7192998Y-24050442D01*
X7192998Y-24050442D02*
X7173950Y-24040918D01*
X7173950Y-24040918D02*
X7164427Y-24031394D01*
X7164427Y-24031394D02*
X7154903Y-24012347D01*
X7154903Y-24012347D02*
X7145379Y-23974252D01*
X7145379Y-23974252D02*
X7145379Y-23926632D01*
X7145379Y-23926632D02*
X7154903Y-23888537D01*
X7154903Y-23888537D02*
X7164427Y-23869490D01*
X7164427Y-23869490D02*
X7173950Y-23859966D01*
X7173950Y-23859966D02*
X7192998Y-23850442D01*
X7345379Y-24031394D02*
X7354903Y-24040918D01*
X7354903Y-24040918D02*
X7345379Y-24050442D01*
X7345379Y-24050442D02*
X7335855Y-24040918D01*
X7335855Y-24040918D02*
X7345379Y-24031394D01*
X7345379Y-24031394D02*
X7345379Y-24050442D01*
X7478712Y-23850442D02*
X7497760Y-23850442D01*
X7497760Y-23850442D02*
X7516808Y-23859966D01*
X7516808Y-23859966D02*
X7526331Y-23869490D01*
X7526331Y-23869490D02*
X7535855Y-23888537D01*
X7535855Y-23888537D02*
X7545379Y-23926632D01*
X7545379Y-23926632D02*
X7545379Y-23974252D01*
X7545379Y-23974252D02*
X7535855Y-24012347D01*
X7535855Y-24012347D02*
X7526331Y-24031394D01*
X7526331Y-24031394D02*
X7516808Y-24040918D01*
X7516808Y-24040918D02*
X7497760Y-24050442D01*
X7497760Y-24050442D02*
X7478712Y-24050442D01*
X7478712Y-24050442D02*
X7459665Y-24040918D01*
X7459665Y-24040918D02*
X7450141Y-24031394D01*
X7450141Y-24031394D02*
X7440617Y-24012347D01*
X7440617Y-24012347D02*
X7431093Y-23974252D01*
X7431093Y-23974252D02*
X7431093Y-23926632D01*
X7431093Y-23926632D02*
X7440617Y-23888537D01*
X7440617Y-23888537D02*
X7450141Y-23869490D01*
X7450141Y-23869490D02*
X7459665Y-23859966D01*
X7459665Y-23859966D02*
X7478712Y-23850442D01*
X7659665Y-23936156D02*
X7640617Y-23926632D01*
X7640617Y-23926632D02*
X7631093Y-23917109D01*
X7631093Y-23917109D02*
X7621569Y-23898061D01*
X7621569Y-23898061D02*
X7621569Y-23888537D01*
X7621569Y-23888537D02*
X7631093Y-23869490D01*
X7631093Y-23869490D02*
X7640617Y-23859966D01*
X7640617Y-23859966D02*
X7659665Y-23850442D01*
X7659665Y-23850442D02*
X7697760Y-23850442D01*
X7697760Y-23850442D02*
X7716808Y-23859966D01*
X7716808Y-23859966D02*
X7726331Y-23869490D01*
X7726331Y-23869490D02*
X7735855Y-23888537D01*
X7735855Y-23888537D02*
X7735855Y-23898061D01*
X7735855Y-23898061D02*
X7726331Y-23917109D01*
X7726331Y-23917109D02*
X7716808Y-23926632D01*
X7716808Y-23926632D02*
X7697760Y-23936156D01*
X7697760Y-23936156D02*
X7659665Y-23936156D01*
X7659665Y-23936156D02*
X7640617Y-23945680D01*
X7640617Y-23945680D02*
X7631093Y-23955204D01*
X7631093Y-23955204D02*
X7621569Y-23974252D01*
X7621569Y-23974252D02*
X7621569Y-24012347D01*
X7621569Y-24012347D02*
X7631093Y-24031394D01*
X7631093Y-24031394D02*
X7640617Y-24040918D01*
X7640617Y-24040918D02*
X7659665Y-24050442D01*
X7659665Y-24050442D02*
X7697760Y-24050442D01*
X7697760Y-24050442D02*
X7716808Y-24040918D01*
X7716808Y-24040918D02*
X7726331Y-24031394D01*
X7726331Y-24031394D02*
X7735855Y-24012347D01*
X7735855Y-24012347D02*
X7735855Y-23974252D01*
X7735855Y-23974252D02*
X7726331Y-23955204D01*
X7726331Y-23955204D02*
X7716808Y-23945680D01*
X7716808Y-23945680D02*
X7697760Y-23936156D01*
X7907284Y-23850442D02*
X7869188Y-23850442D01*
X7869188Y-23850442D02*
X7850141Y-23859966D01*
X7850141Y-23859966D02*
X7840617Y-23869490D01*
X7840617Y-23869490D02*
X7821569Y-23898061D01*
X7821569Y-23898061D02*
X7812046Y-23936156D01*
X7812046Y-23936156D02*
X7812046Y-24012347D01*
X7812046Y-24012347D02*
X7821569Y-24031394D01*
X7821569Y-24031394D02*
X7831093Y-24040918D01*
X7831093Y-24040918D02*
X7850141Y-24050442D01*
X7850141Y-24050442D02*
X7888236Y-24050442D01*
X7888236Y-24050442D02*
X7907284Y-24040918D01*
X7907284Y-24040918D02*
X7916808Y-24031394D01*
X7916808Y-24031394D02*
X7926331Y-24012347D01*
X7926331Y-24012347D02*
X7926331Y-23964728D01*
X7926331Y-23964728D02*
X7916808Y-23945680D01*
X7916808Y-23945680D02*
X7907284Y-23936156D01*
X7907284Y-23936156D02*
X7888236Y-23926632D01*
X7888236Y-23926632D02*
X7850141Y-23926632D01*
X7850141Y-23926632D02*
X7831093Y-23936156D01*
X7831093Y-23936156D02*
X7821569Y-23945680D01*
X7821569Y-23945680D02*
X7812046Y-23964728D01*
X8097760Y-23850442D02*
X8059665Y-23850442D01*
X8059665Y-23850442D02*
X8040617Y-23859966D01*
X8040617Y-23859966D02*
X8031093Y-23869490D01*
X8031093Y-23869490D02*
X8012046Y-23898061D01*
X8012046Y-23898061D02*
X8002522Y-23936156D01*
X8002522Y-23936156D02*
X8002522Y-24012347D01*
X8002522Y-24012347D02*
X8012046Y-24031394D01*
X8012046Y-24031394D02*
X8021569Y-24040918D01*
X8021569Y-24040918D02*
X8040617Y-24050442D01*
X8040617Y-24050442D02*
X8078712Y-24050442D01*
X8078712Y-24050442D02*
X8097760Y-24040918D01*
X8097760Y-24040918D02*
X8107284Y-24031394D01*
X8107284Y-24031394D02*
X8116808Y-24012347D01*
X8116808Y-24012347D02*
X8116808Y-23964728D01*
X8116808Y-23964728D02*
X8107284Y-23945680D01*
X8107284Y-23945680D02*
X8097760Y-23936156D01*
X8097760Y-23936156D02*
X8078712Y-23926632D01*
X8078712Y-23926632D02*
X8040617Y-23926632D01*
X8040617Y-23926632D02*
X8021569Y-23936156D01*
X8021569Y-23936156D02*
X8012046Y-23945680D01*
X8012046Y-23945680D02*
X8002522Y-23964728D01*
X8192998Y-23850442D02*
X8192998Y-23888537D01*
X8269189Y-23850442D02*
X8269189Y-23888537D01*
X8564427Y-24126632D02*
X8554903Y-24117109D01*
X8554903Y-24117109D02*
X8535855Y-24088537D01*
X8535855Y-24088537D02*
X8526332Y-24069490D01*
X8526332Y-24069490D02*
X8516808Y-24040918D01*
X8516808Y-24040918D02*
X8507284Y-23993299D01*
X8507284Y-23993299D02*
X8507284Y-23955204D01*
X8507284Y-23955204D02*
X8516808Y-23907585D01*
X8516808Y-23907585D02*
X8526332Y-23879013D01*
X8526332Y-23879013D02*
X8535855Y-23859966D01*
X8535855Y-23859966D02*
X8554903Y-23831394D01*
X8554903Y-23831394D02*
X8564427Y-23821871D01*
X8669189Y-23936156D02*
X8650141Y-23926632D01*
X8650141Y-23926632D02*
X8640617Y-23917109D01*
X8640617Y-23917109D02*
X8631093Y-23898061D01*
X8631093Y-23898061D02*
X8631093Y-23888537D01*
X8631093Y-23888537D02*
X8640617Y-23869490D01*
X8640617Y-23869490D02*
X8650141Y-23859966D01*
X8650141Y-23859966D02*
X8669189Y-23850442D01*
X8669189Y-23850442D02*
X8707284Y-23850442D01*
X8707284Y-23850442D02*
X8726332Y-23859966D01*
X8726332Y-23859966D02*
X8735855Y-23869490D01*
X8735855Y-23869490D02*
X8745379Y-23888537D01*
X8745379Y-23888537D02*
X8745379Y-23898061D01*
X8745379Y-23898061D02*
X8735855Y-23917109D01*
X8735855Y-23917109D02*
X8726332Y-23926632D01*
X8726332Y-23926632D02*
X8707284Y-23936156D01*
X8707284Y-23936156D02*
X8669189Y-23936156D01*
X8669189Y-23936156D02*
X8650141Y-23945680D01*
X8650141Y-23945680D02*
X8640617Y-23955204D01*
X8640617Y-23955204D02*
X8631093Y-23974252D01*
X8631093Y-23974252D02*
X8631093Y-24012347D01*
X8631093Y-24012347D02*
X8640617Y-24031394D01*
X8640617Y-24031394D02*
X8650141Y-24040918D01*
X8650141Y-24040918D02*
X8669189Y-24050442D01*
X8669189Y-24050442D02*
X8707284Y-24050442D01*
X8707284Y-24050442D02*
X8726332Y-24040918D01*
X8726332Y-24040918D02*
X8735855Y-24031394D01*
X8735855Y-24031394D02*
X8745379Y-24012347D01*
X8745379Y-24012347D02*
X8745379Y-23974252D01*
X8745379Y-23974252D02*
X8735855Y-23955204D01*
X8735855Y-23955204D02*
X8726332Y-23945680D01*
X8726332Y-23945680D02*
X8707284Y-23936156D01*
X8983474Y-24050442D02*
X8983474Y-23850442D01*
X9069189Y-24050442D02*
X9069189Y-23945680D01*
X9069189Y-23945680D02*
X9059665Y-23926632D01*
X9059665Y-23926632D02*
X9040617Y-23917109D01*
X9040617Y-23917109D02*
X9012046Y-23917109D01*
X9012046Y-23917109D02*
X8992998Y-23926632D01*
X8992998Y-23926632D02*
X8983474Y-23936156D01*
X9192998Y-24050442D02*
X9173951Y-24040918D01*
X9173951Y-24040918D02*
X9164427Y-24031394D01*
X9164427Y-24031394D02*
X9154903Y-24012347D01*
X9154903Y-24012347D02*
X9154903Y-23955204D01*
X9154903Y-23955204D02*
X9164427Y-23936156D01*
X9164427Y-23936156D02*
X9173951Y-23926632D01*
X9173951Y-23926632D02*
X9192998Y-23917109D01*
X9192998Y-23917109D02*
X9221570Y-23917109D01*
X9221570Y-23917109D02*
X9240617Y-23926632D01*
X9240617Y-23926632D02*
X9250141Y-23936156D01*
X9250141Y-23936156D02*
X9259665Y-23955204D01*
X9259665Y-23955204D02*
X9259665Y-24012347D01*
X9259665Y-24012347D02*
X9250141Y-24031394D01*
X9250141Y-24031394D02*
X9240617Y-24040918D01*
X9240617Y-24040918D02*
X9221570Y-24050442D01*
X9221570Y-24050442D02*
X9192998Y-24050442D01*
X9373951Y-24050442D02*
X9354903Y-24040918D01*
X9354903Y-24040918D02*
X9345379Y-24021871D01*
X9345379Y-24021871D02*
X9345379Y-23850442D01*
X9526332Y-24040918D02*
X9507284Y-24050442D01*
X9507284Y-24050442D02*
X9469189Y-24050442D01*
X9469189Y-24050442D02*
X9450141Y-24040918D01*
X9450141Y-24040918D02*
X9440617Y-24021871D01*
X9440617Y-24021871D02*
X9440617Y-23945680D01*
X9440617Y-23945680D02*
X9450141Y-23926632D01*
X9450141Y-23926632D02*
X9469189Y-23917109D01*
X9469189Y-23917109D02*
X9507284Y-23917109D01*
X9507284Y-23917109D02*
X9526332Y-23926632D01*
X9526332Y-23926632D02*
X9535855Y-23945680D01*
X9535855Y-23945680D02*
X9535855Y-23964728D01*
X9535855Y-23964728D02*
X9440617Y-23983775D01*
X9612046Y-24040918D02*
X9631094Y-24050442D01*
X9631094Y-24050442D02*
X9669189Y-24050442D01*
X9669189Y-24050442D02*
X9688236Y-24040918D01*
X9688236Y-24040918D02*
X9697760Y-24021871D01*
X9697760Y-24021871D02*
X9697760Y-24012347D01*
X9697760Y-24012347D02*
X9688236Y-23993299D01*
X9688236Y-23993299D02*
X9669189Y-23983775D01*
X9669189Y-23983775D02*
X9640617Y-23983775D01*
X9640617Y-23983775D02*
X9621570Y-23974252D01*
X9621570Y-23974252D02*
X9612046Y-23955204D01*
X9612046Y-23955204D02*
X9612046Y-23945680D01*
X9612046Y-23945680D02*
X9621570Y-23926632D01*
X9621570Y-23926632D02*
X9640617Y-23917109D01*
X9640617Y-23917109D02*
X9669189Y-23917109D01*
X9669189Y-23917109D02*
X9688236Y-23926632D01*
X9764427Y-24126632D02*
X9773951Y-24117109D01*
X9773951Y-24117109D02*
X9792998Y-24088537D01*
X9792998Y-24088537D02*
X9802522Y-24069490D01*
X9802522Y-24069490D02*
X9812046Y-24040918D01*
X9812046Y-24040918D02*
X9821570Y-23993299D01*
X9821570Y-23993299D02*
X9821570Y-23955204D01*
X9821570Y-23955204D02*
X9812046Y-23907585D01*
X9812046Y-23907585D02*
X9802522Y-23879013D01*
X9802522Y-23879013D02*
X9792998Y-23859966D01*
X9792998Y-23859966D02*
X9773951Y-23831394D01*
X9773951Y-23831394D02*
X9764427Y-23821871D01*
M02*
