%TF.GenerationSoftware,KiCad,Pcbnew,8.0.7*%
%TF.CreationDate,2024-12-25T21:28:18-05:00*%
%TF.ProjectId,mx,6d782e6b-6963-4616-945f-706362585858,v1.0.0*%
%TF.SameCoordinates,Original*%
%TF.FileFunction,Copper,L2,Bot*%
%TF.FilePolarity,Positive*%
%FSLAX46Y46*%
G04 Gerber Fmt 4.6, Leading zero omitted, Abs format (unit mm)*
G04 Created by KiCad (PCBNEW 8.0.7) date 2024-12-25 21:28:18*
%MOMM*%
%LPD*%
G01*
G04 APERTURE LIST*
G04 Aperture macros list*
%AMRotRect*
0 Rectangle, with rotation*
0 The origin of the aperture is its center*
0 $1 length*
0 $2 width*
0 $3 Rotation angle, in degrees counterclockwise*
0 Add horizontal line*
21,1,$1,$2,0,0,$3*%
G04 Aperture macros list end*
%TA.AperFunction,ComponentPad*%
%ADD10C,0.600000*%
%TD*%
%TA.AperFunction,ComponentPad*%
%ADD11C,0.700000*%
%TD*%
%TA.AperFunction,ComponentPad*%
%ADD12C,4.400000*%
%TD*%
%TA.AperFunction,ComponentPad*%
%ADD13C,1.700000*%
%TD*%
%TA.AperFunction,SMDPad,CuDef*%
%ADD14RotRect,2.550000X2.500000X335.000000*%
%TD*%
%TA.AperFunction,SMDPad,CuDef*%
%ADD15RotRect,0.900000X1.200000X65.000000*%
%TD*%
%TA.AperFunction,SMDPad,CuDef*%
%ADD16RotRect,2.550000X2.500000X25.000000*%
%TD*%
%TA.AperFunction,SMDPad,CuDef*%
%ADD17RotRect,0.900000X1.200000X115.000000*%
%TD*%
%TA.AperFunction,SMDPad,CuDef*%
%ADD18RotRect,0.900000X1.200000X55.000000*%
%TD*%
%TA.AperFunction,SMDPad,CuDef*%
%ADD19RotRect,2.550000X2.500000X325.000000*%
%TD*%
%TA.AperFunction,SMDPad,CuDef*%
%ADD20RotRect,0.900000X1.200000X125.000000*%
%TD*%
%TA.AperFunction,SMDPad,CuDef*%
%ADD21RotRect,0.900000X1.200000X138.000000*%
%TD*%
%TA.AperFunction,SMDPad,CuDef*%
%ADD22RotRect,2.550000X2.500000X48.000000*%
%TD*%
%TA.AperFunction,SMDPad,CuDef*%
%ADD23RotRect,2.550000X2.500000X312.000000*%
%TD*%
%TA.AperFunction,SMDPad,CuDef*%
%ADD24RotRect,0.900000X1.200000X42.000000*%
%TD*%
%TA.AperFunction,SMDPad,CuDef*%
%ADD25RotRect,2.550000X2.500000X35.000000*%
%TD*%
%TA.AperFunction,Conductor*%
%ADD26C,0.250000*%
%TD*%
G04 APERTURE END LIST*
D10*
%TO.P,REF\u002A\u002A,1*%
%TO.N,G4*%
X239401165Y-147060775D03*
%TD*%
%TO.P,REF\u002A\u002A,1*%
%TO.N,G8*%
X341443616Y-146426334D03*
%TD*%
%TO.P,REF\u002A\u002A,1*%
%TO.N,G2*%
X317290980Y-94630843D03*
%TD*%
%TO.P,REF\u002A\u002A,1*%
%TO.N,G20*%
X97042937Y-136155501D03*
%TD*%
%TO.P,REF\u002A\u002A,1*%
%TO.N,G9*%
X328425765Y-163585607D03*
%TD*%
D11*
%TO.P,_69,1*%
%TO.N,N/C*%
X271608388Y-177915241D03*
X271553304Y-176653589D03*
X272539466Y-178768413D03*
X272406476Y-175722511D03*
D12*
X273103797Y-177217920D03*
D11*
X273801118Y-178713329D03*
X273668128Y-175667427D03*
X274654290Y-177782251D03*
X274599206Y-176520599D03*
%TD*%
D10*
%TO.P,REF\u002A\u002A,1*%
%TO.N,G8*%
X302053183Y-152105547D03*
%TD*%
%TO.P,REF\u002A\u002A,1*%
%TO.N,G20*%
X136433374Y-141834722D03*
%TD*%
%TO.P,REF\u002A\u002A,1*%
%TO.N,G8*%
X269635946Y-172738843D03*
%TD*%
%TO.P,REF\u002A\u002A,1*%
%TO.N,G10*%
X151272137Y-202009037D03*
%TD*%
%TO.P,REF\u002A\u002A,1*%
%TO.N,G18*%
X173941688Y-151550164D03*
%TD*%
D11*
%TO.P,_68,1*%
%TO.N,N/C*%
X141893621Y-174254836D03*
X141838537Y-175516489D03*
X142824698Y-173401664D03*
X144086351Y-173456748D03*
D12*
X143389030Y-174952157D03*
D11*
X142691709Y-176447566D03*
X143953362Y-176502650D03*
X144939523Y-174387825D03*
X144884439Y-175649478D03*
%TD*%
D10*
%TO.P,REF\u002A\u002A,1*%
%TO.N,G29*%
X152535129Y-107304393D03*
%TD*%
%TO.P,REF\u002A\u002A,1*%
%TO.N,G10*%
X174567025Y-205125970D03*
%TD*%
%TO.P,REF\u002A\u002A,1*%
%TO.N,G8*%
X254636554Y-179733171D03*
%TD*%
%TO.P,REF\u002A\u002A,1*%
%TO.N,G19*%
X110060789Y-153314778D03*
%TD*%
%TO.P,REF\u002A\u002A,1*%
%TO.N,G7*%
X246585680Y-162468012D03*
%TD*%
%TO.P,REF\u002A\u002A,1*%
%TO.N,G8*%
X285844563Y-162422198D03*
%TD*%
D13*
%TO.P,RST1,1*%
%TO.N,RST*%
X204468140Y-175345620D03*
%TO.P,RST1,2*%
%TO.N,GND*%
X210968140Y-175345616D03*
%TD*%
D10*
%TO.P,REF\u002A\u002A,1*%
%TO.N,G6*%
X292264593Y-122382578D03*
%TD*%
%TO.P,REF\u002A\u002A,1*%
%TO.N,G6*%
X241514258Y-151592316D03*
%TD*%
%TO.P,REF\u002A\u002A,1*%
%TO.N,G2*%
X245483312Y-120943354D03*
%TD*%
D11*
%TO.P,_70,1*%
%TO.N,N/C*%
X335365181Y-134337575D03*
X335310097Y-133075923D03*
X336296259Y-135190747D03*
X336163269Y-132144845D03*
D12*
X336860590Y-133640254D03*
D11*
X337557911Y-135135663D03*
X337424921Y-132089761D03*
X338411083Y-134204585D03*
X338355999Y-132942933D03*
%TD*%
D10*
%TO.P,REF\u002A\u002A,1*%
%TO.N,G28*%
X160692872Y-134886202D03*
%TD*%
%TO.P,REF\u002A\u002A,1*%
%TO.N,G10*%
X136540235Y-186681693D03*
%TD*%
%TO.P,REF\u002A\u002A,1*%
%TO.N,G27*%
X176035119Y-147060778D03*
%TD*%
%TO.P,REF\u002A\u002A,1*%
%TO.N,G5*%
X313333323Y-122488468D03*
%TD*%
%TO.P,REF\u002A\u002A,1*%
%TO.N,G26*%
X143792520Y-134784259D03*
%TD*%
%TO.P,REF\u002A\u002A,1*%
%TO.N,G20*%
X79777774Y-128104626D03*
%TD*%
D11*
%TO.P,_65,1*%
%TO.N,N/C*%
X166046259Y-122459343D03*
X165991175Y-123720996D03*
X166977336Y-121606171D03*
X168238989Y-121661255D03*
D12*
X167541668Y-123156664D03*
D11*
X166844347Y-124652073D03*
X168106000Y-124707157D03*
X169092161Y-122592332D03*
X169037077Y-123853985D03*
%TD*%
D10*
%TO.P,REF\u002A\u002A,1*%
%TO.N,G7*%
X312324015Y-129055282D03*
%TD*%
%TO.P,REF\u002A\u002A,1*%
%TO.N,G3*%
X342607023Y-103845130D03*
%TD*%
D11*
%TO.P,_72,1*%
%TO.N,N/C*%
X247455756Y-126119755D03*
X247400672Y-124858103D03*
X248386834Y-126972927D03*
X248253844Y-123927025D03*
D12*
X248951165Y-125422434D03*
D11*
X249648486Y-126917843D03*
X249515496Y-123871941D03*
X250501658Y-125986765D03*
X250446574Y-124725113D03*
%TD*%
D10*
%TO.P,REF\u002A\u002A,1*%
%TO.N,G28*%
X144484250Y-124569554D03*
%TD*%
%TO.P,REF\u002A\u002A,1*%
%TO.N,G9*%
X254426222Y-214618658D03*
%TD*%
%TO.P,REF\u002A\u002A,1*%
%TO.N,G3*%
X285951425Y-117575225D03*
%TD*%
%TO.P,REF\u002A\u002A,1*%
%TO.N,G2*%
X277900546Y-100310057D03*
%TD*%
%TO.P,REF\u002A\u002A,1*%
%TO.N,G28*%
X126162545Y-118784448D03*
%TD*%
%TO.P,REF\u002A\u002A,1*%
%TO.N,G3*%
X269742810Y-127891874D03*
%TD*%
%TO.P,REF\u002A\u002A,1*%
%TO.N,G7*%
X333392744Y-129161172D03*
%TD*%
D11*
%TO.P,_71,1*%
%TO.N,N/C*%
X319263425Y-99807243D03*
X319208341Y-98545591D03*
X320194503Y-100660415D03*
X320061513Y-97614513D03*
D12*
X320758834Y-99109922D03*
D11*
X321456155Y-100605331D03*
X321323165Y-97559429D03*
X322309327Y-99674253D03*
X322254243Y-98412601D03*
%TD*%
D10*
%TO.P,REF\u002A\u002A,1*%
%TO.N,G19*%
X144591111Y-169416530D03*
%TD*%
%TO.P,REF\u002A\u002A,1*%
%TO.N,G10*%
X120331619Y-176365046D03*
%TD*%
%TO.P,REF\u002A\u002A,1*%
%TO.N,G29*%
X184952368Y-127937687D03*
%TD*%
%TO.P,REF\u002A\u002A,1*%
%TO.N,G4*%
X330598487Y-114437587D03*
%TD*%
%TO.P,REF\u002A\u002A,1*%
%TO.N,G7*%
X294002302Y-134840385D03*
%TD*%
%TO.P,REF\u002A\u002A,1*%
%TO.N,G28*%
X176901487Y-145202849D03*
%TD*%
%TO.P,REF\u002A\u002A,1*%
%TO.N,G2*%
X230483920Y-127937687D03*
%TD*%
%TO.P,REF\u002A\u002A,1*%
%TO.N,G28*%
X105093816Y-118890340D03*
%TD*%
%TO.P,REF\u002A\u002A,1*%
%TO.N,G9*%
X275238254Y-189709991D03*
%TD*%
%TO.P,REF\u002A\u002A,1*%
%TO.N,G29*%
X113144695Y-101625176D03*
%TD*%
D13*
%TO.P,MCU1,1*%
%TO.N,D+*%
X215338143Y-140010617D03*
%TO.P,MCU1,2*%
%TO.N,G0*%
X215338145Y-142550618D03*
%TO.P,MCU1,3*%
%TO.N,G1*%
X215338143Y-145090618D03*
%TO.P,MCU1,4*%
%TO.N,GND*%
X215338144Y-147630617D03*
%TO.P,MCU1,5*%
X215338146Y-150170618D03*
%TO.P,MCU1,6*%
%TO.N,G2*%
X215338145Y-152710618D03*
%TO.P,MCU1,7*%
%TO.N,G3*%
X215338146Y-155250618D03*
%TO.P,MCU1,8*%
%TO.N,G4*%
X215338144Y-157790618D03*
%TO.P,MCU1,9*%
%TO.N,G5*%
X215338146Y-160330619D03*
%TO.P,MCU1,10*%
%TO.N,G6*%
X215338146Y-162870617D03*
%TO.P,MCU1,11*%
%TO.N,G7*%
X215338144Y-165410618D03*
%TO.P,MCU1,12*%
%TO.N,G8*%
X215338145Y-167950618D03*
%TO.P,MCU1,13*%
%TO.N,G9*%
X215338144Y-170490618D03*
%TO.P,MCU1,14*%
%TO.N,G10*%
X200098147Y-170490619D03*
%TO.P,MCU1,15*%
%TO.N,G19*%
X200098145Y-167950618D03*
%TO.P,MCU1,16*%
%TO.N,G20*%
X200098147Y-165410618D03*
%TO.P,MCU1,17*%
%TO.N,G18*%
X200098146Y-162870619D03*
%TO.P,MCU1,18*%
%TO.N,G26*%
X200098144Y-160330618D03*
%TO.P,MCU1,19*%
%TO.N,G27*%
X200098145Y-157790618D03*
%TO.P,MCU1,20*%
%TO.N,G28*%
X200098144Y-155250618D03*
%TO.P,MCU1,21*%
%TO.N,G29*%
X200098146Y-152710618D03*
%TO.P,MCU1,22*%
%TO.N,VCC*%
X200098144Y-150170617D03*
%TO.P,MCU1,23*%
%TO.N,RST*%
X200098144Y-147630619D03*
%TO.P,MCU1,24*%
%TO.N,GND*%
X200098146Y-145090618D03*
%TO.P,MCU1,25*%
%TO.N,RAW*%
X200098145Y-142550618D03*
%TO.P,MCU1,26*%
%TO.N,D-*%
X200098146Y-140010618D03*
%TD*%
D10*
%TO.P,REF\u002A\u002A,1*%
%TO.N,G2*%
X261691931Y-110626707D03*
%TD*%
%TO.P,REF\u002A\u002A,1*%
%TO.N,G3*%
X325341857Y-111896009D03*
%TD*%
%TO.P,REF\u002A\u002A,1*%
%TO.N,G5*%
X240457710Y-149326549D03*
%TD*%
%TO.P,REF\u002A\u002A,1*%
%TO.N,G8*%
X320374889Y-146320441D03*
%TD*%
%TO.P,REF\u002A\u002A,1*%
%TO.N,G20*%
X118111666Y-136049610D03*
%TD*%
%TO.P,REF\u002A\u002A,1*%
%TO.N,G29*%
X168743747Y-117621036D03*
%TD*%
%TO.P,REF\u002A\u002A,1*%
%TO.N,G19*%
X88992060Y-153420668D03*
%TD*%
%TO.P,REF\u002A\u002A,1*%
%TO.N,G7*%
X277793685Y-145157033D03*
%TD*%
%TO.P,REF\u002A\u002A,1*%
%TO.N,G2*%
X296222255Y-94524953D03*
%TD*%
D11*
%TO.P,_67,1*%
%TO.N,N/C*%
X77080285Y-132942927D03*
X77025201Y-134204580D03*
X78011362Y-132089755D03*
X79273015Y-132144839D03*
D12*
X78575694Y-133640248D03*
D11*
X77878373Y-135135657D03*
X79140026Y-135190741D03*
X80126187Y-133075916D03*
X80071103Y-134337569D03*
%TD*%
D10*
%TO.P,REF\u002A\u002A,1*%
%TO.N,G7*%
X261585068Y-155473683D03*
%TD*%
%TO.P,REF\u002A\u002A,1*%
%TO.N,G3*%
X253534189Y-138208519D03*
%TD*%
%TO.P,REF\u002A\u002A,1*%
%TO.N,G28*%
X87828650Y-110839461D03*
%TD*%
%TO.P,REF\u002A\u002A,1*%
%TO.N,G10*%
X102009910Y-170579941D03*
%TD*%
%TO.P,REF\u002A\u002A,1*%
%TO.N,G19*%
X128382497Y-159099881D03*
%TD*%
%TO.P,REF\u002A\u002A,1*%
%TO.N,G20*%
X152641990Y-152151368D03*
%TD*%
%TO.P,REF\u002A\u002A,1*%
%TO.N,G27*%
X127583903Y-124467608D03*
%TD*%
%TO.P,REF\u002A\u002A,1*%
%TO.N,G20*%
X168850609Y-162468014D03*
%TD*%
%TO.P,REF\u002A\u002A,1*%
%TO.N,G3*%
X304273134Y-111790115D03*
%TD*%
%TO.P,REF\u002A\u002A,1*%
%TO.N,G19*%
X160799730Y-179733175D03*
%TD*%
%TO.P,REF\u002A\u002A,1*%
%TO.N,G26*%
X174978573Y-149326552D03*
%TD*%
%TO.P,REF\u002A\u002A,1*%
%TO.N,G29*%
X134213422Y-101519286D03*
%TD*%
%TO.P,REF\u002A\u002A,1*%
%TO.N,G7*%
X350657903Y-121110291D03*
%TD*%
%TO.P,REF\u002A\u002A,1*%
%TO.N,G3*%
X238534797Y-145202846D03*
%TD*%
D11*
%TO.P,_66,1*%
%TO.N,N/C*%
X93182040Y-98412602D03*
X93126956Y-99674255D03*
X94113117Y-97559430D03*
X95374770Y-97614514D03*
D12*
X94677449Y-99109923D03*
D11*
X93980128Y-100605332D03*
X95241781Y-100660416D03*
X96227942Y-98545591D03*
X96172858Y-99807244D03*
%TD*%
D10*
%TO.P,REF\u002A\u002A,1*%
%TO.N,G9*%
X310104056Y-169370714D03*
%TD*%
%TO.P,REF\u002A\u002A,1*%
%TO.N,G18*%
X160001142Y-145100904D03*
%TD*%
%TO.P,REF\u002A\u002A,1*%
%TO.N,G2*%
X334556145Y-86579969D03*
%TD*%
%TO.P,REF\u002A\u002A,1*%
%TO.N,G29*%
X95879530Y-93574298D03*
%TD*%
%TO.P,REF\u002A\u002A,1*%
%TO.N,G8*%
X358708781Y-138375452D03*
%TD*%
%TO.P,REF\u002A\u002A,1*%
%TO.N,G19*%
X71726894Y-145369787D03*
%TD*%
%TO.P,REF\u002A\u002A,1*%
%TO.N,G9*%
X293895445Y-179687359D03*
%TD*%
D14*
%TO.P,S19,1*%
%TO.N,G27*%
X125383274Y-174263024D03*
%TO.P,S19,2*%
%TO.N,index_mod*%
X138172566Y-177424184D03*
%TD*%
D15*
%TO.P,D27,1*%
%TO.N,G29*%
X185734205Y-126261014D03*
%TO.P,D27,2*%
%TO.N,inner_num*%
X187128847Y-123270196D03*
%TD*%
D14*
%TO.P,S27,1*%
%TO.N,G18*%
X173795404Y-115519017D03*
%TO.P,S27,2*%
%TO.N,inner_num*%
X186584696Y-118680177D03*
%TD*%
D15*
%TO.P,D26,1*%
%TO.N,G28*%
X177683333Y-143526185D03*
%TO.P,D26,2*%
%TO.N,inner_top*%
X179077975Y-140535367D03*
%TD*%
D16*
%TO.P,S35,1*%
%TO.N,G5*%
X316707930Y-129725334D03*
%TO.P,S35,2*%
%TO.N,mirror_pinky_home*%
X327350321Y-121960126D03*
%TD*%
D17*
%TO.P,D54,1*%
%TO.N,G7*%
X260803222Y-153797014D03*
%TO.P,D54,2*%
%TO.N,mirror_inner_home*%
X259408580Y-150806196D03*
%TD*%
%TO.P,D43,1*%
%TO.N,G9*%
X309322214Y-167694043D03*
%TO.P,D43,2*%
%TO.N,mirror_middle_mod*%
X307927572Y-164703225D03*
%TD*%
D14*
%TO.P,S14,1*%
%TO.N,G6*%
X109174652Y-163946379D03*
%TO.P,S14,2*%
%TO.N,middle_mod*%
X121963944Y-167107539D03*
%TD*%
D15*
%TO.P,D25,1*%
%TO.N,G20*%
X169632451Y-160791347D03*
%TO.P,D25,2*%
%TO.N,inner_home*%
X171027093Y-157800529D03*
%TD*%
%TO.P,D2,1*%
%TO.N,G20*%
X80559616Y-126427956D03*
%TO.P,D2,2*%
%TO.N,outer_home*%
X81954258Y-123437138D03*
%TD*%
%TO.P,D12,1*%
%TO.N,G28*%
X126944388Y-117107779D03*
%TO.P,D12,2*%
%TO.N,ring_top*%
X128339030Y-114116961D03*
%TD*%
D16*
%TO.P,S41,1*%
%TO.N,G6*%
X287588319Y-112354278D03*
%TO.P,S41,2*%
%TO.N,mirror_ring_top*%
X298230710Y-104589070D03*
%TD*%
D14*
%TO.P,S7,1*%
%TO.N,G5*%
X93936849Y-106471671D03*
%TO.P,S7,2*%
%TO.N,pinky_top*%
X106726141Y-109632831D03*
%TD*%
D18*
%TO.P,D58,1*%
%TO.N,G9*%
X255487339Y-213103225D03*
%TO.P,D58,2*%
%TO.N,mirror_space_fan*%
X257380141Y-210400023D03*
%TD*%
D17*
%TO.P,D51,1*%
%TO.N,G3*%
X268960965Y-126215203D03*
%TO.P,D51,2*%
%TO.N,mirror_index_top*%
X267566323Y-123224385D03*
%TD*%
D16*
%TO.P,S39,1*%
%TO.N,G6*%
X303690077Y-146884605D03*
%TO.P,S39,2*%
%TO.N,mirror_ring_bottom*%
X314332468Y-139119397D03*
%TD*%
%TO.P,S45,1*%
%TO.N,G27*%
X277317491Y-135404550D03*
%TO.P,S45,2*%
%TO.N,mirror_middle_home*%
X287959882Y-127639342D03*
%TD*%
D15*
%TO.P,D20,1*%
%TO.N,G19*%
X145372956Y-167739861D03*
%TO.P,D20,2*%
%TO.N,index_bottom*%
X146767598Y-164749043D03*
%TD*%
%TO.P,D21,1*%
%TO.N,G20*%
X153423834Y-150474697D03*
%TO.P,D21,2*%
%TO.N,index_home*%
X154818476Y-147483879D03*
%TD*%
D17*
%TO.P,D41,1*%
%TO.N,G3*%
X303491288Y-110113445D03*
%TO.P,D41,2*%
%TO.N,mirror_ring_top*%
X302096646Y-107122627D03*
%TD*%
D14*
%TO.P,S21,1*%
%TO.N,G26*%
X141485026Y-139732697D03*
%TO.P,S21,2*%
%TO.N,index_home*%
X154274318Y-142893857D03*
%TD*%
D16*
%TO.P,S31,1*%
%TO.N,G4*%
X333973095Y-121674457D03*
%TO.P,S31,2*%
%TO.N,mirror_outer_home*%
X344615486Y-113909249D03*
%TD*%
D14*
%TO.P,S11,1*%
%TO.N,G6*%
X106954702Y-123630943D03*
%TO.P,S11,2*%
%TO.N,ring_home*%
X119743994Y-126792103D03*
%TD*%
D19*
%TO.P,S58,1*%
%TO.N,G18*%
X245595235Y-200451268D03*
%TO.P,S58,2*%
%TO.N,mirror_space_fan*%
X257641299Y-205785243D03*
%TD*%
D14*
%TO.P,S6,1*%
%TO.N,G5*%
X85885973Y-123736832D03*
%TO.P,S6,2*%
%TO.N,pinky_home*%
X98675265Y-126897992D03*
%TD*%
D17*
%TO.P,D52,1*%
%TO.N,G2*%
X260910084Y-108950041D03*
%TO.P,D52,2*%
%TO.N,mirror_index_num*%
X259515442Y-105959223D03*
%TD*%
D16*
%TO.P,S54,1*%
%TO.N,G18*%
X244900256Y-156037845D03*
%TO.P,S54,2*%
%TO.N,mirror_inner_home*%
X255542647Y-148272637D03*
%TD*%
D14*
%TO.P,S12,1*%
%TO.N,G6*%
X115005578Y-106365782D03*
%TO.P,S12,2*%
%TO.N,ring_top*%
X127794870Y-109526942D03*
%TD*%
D15*
%TO.P,D18,1*%
%TO.N,G29*%
X153316973Y-105627726D03*
%TO.P,D18,2*%
%TO.N,middle_num*%
X154711615Y-102636908D03*
%TD*%
D17*
%TO.P,D37,1*%
%TO.N,G2*%
X316509141Y-92954175D03*
%TO.P,D37,2*%
%TO.N,mirror_pinky_num*%
X315114499Y-89963357D03*
%TD*%
D14*
%TO.P,S24,1*%
%TO.N,G18*%
X149642766Y-167314508D03*
%TO.P,S24,2*%
%TO.N,inner_bottom*%
X162432058Y-170475668D03*
%TD*%
D16*
%TO.P,S34,1*%
%TO.N,G5*%
X324758805Y-146990497D03*
%TO.P,S34,2*%
%TO.N,mirror_pinky_bottom*%
X335401196Y-139225289D03*
%TD*%
%TO.P,S52,1*%
%TO.N,G26*%
X245007118Y-111190871D03*
%TO.P,S52,2*%
%TO.N,mirror_index_num*%
X255649509Y-103425663D03*
%TD*%
%TO.P,S49,1*%
%TO.N,G26*%
X269159750Y-162986363D03*
%TO.P,S49,2*%
%TO.N,mirror_index_bottom*%
X279802141Y-155221155D03*
%TD*%
D15*
%TO.P,D24,1*%
%TO.N,G19*%
X161581577Y-178056508D03*
%TO.P,D24,2*%
%TO.N,inner_bottom*%
X162976219Y-175065690D03*
%TD*%
D14*
%TO.P,S20,1*%
%TO.N,G26*%
X133434147Y-156997860D03*
%TO.P,S20,2*%
%TO.N,index_bottom*%
X146223439Y-160159020D03*
%TD*%
D15*
%TO.P,D23,1*%
%TO.N,G29*%
X169525588Y-115944372D03*
%TO.P,D23,2*%
%TO.N,index_num*%
X170920230Y-112953554D03*
%TD*%
D17*
%TO.P,D53,1*%
%TO.N,G8*%
X268854098Y-171062177D03*
%TO.P,D53,2*%
%TO.N,mirror_inner_bottom*%
X267459456Y-168071359D03*
%TD*%
D15*
%TO.P,D15,1*%
%TO.N,G19*%
X129164338Y-157423215D03*
%TO.P,D15,2*%
%TO.N,middle_bottom*%
X130558980Y-154432397D03*
%TD*%
D16*
%TO.P,S51,1*%
%TO.N,G26*%
X253057994Y-128456035D03*
%TO.P,S51,2*%
%TO.N,mirror_index_top*%
X263700385Y-120690827D03*
%TD*%
%TO.P,S47,1*%
%TO.N,G27*%
X261215735Y-100874223D03*
%TO.P,S47,2*%
%TO.N,mirror_middle_num*%
X271858126Y-93109015D03*
%TD*%
%TO.P,S53,1*%
%TO.N,G18*%
X252951133Y-173303011D03*
%TO.P,S53,2*%
%TO.N,mirror_inner_bottom*%
X263593524Y-165537803D03*
%TD*%
D20*
%TO.P,D29,1*%
%TO.N,G10*%
X173505910Y-203610536D03*
%TO.P,D29,2*%
%TO.N,space_fan*%
X171613108Y-200907332D03*
%TD*%
D17*
%TO.P,D56,1*%
%TO.N,G2*%
X244701463Y-119266689D03*
%TO.P,D56,2*%
%TO.N,mirror_inner_num*%
X243306821Y-116275871D03*
%TD*%
D15*
%TO.P,D8,1*%
%TO.N,G29*%
X113926540Y-99948508D03*
%TO.P,D8,2*%
%TO.N,pinky_num*%
X115321182Y-96957690D03*
%TD*%
D14*
%TO.P,S23,1*%
%TO.N,G26*%
X157586783Y-105202372D03*
%TO.P,S23,2*%
%TO.N,index_num*%
X170376075Y-108363532D03*
%TD*%
D17*
%TO.P,D47,1*%
%TO.N,G2*%
X277118703Y-98633393D03*
%TO.P,D47,2*%
%TO.N,mirror_middle_num*%
X275724061Y-95642575D03*
%TD*%
%TO.P,D38,1*%
%TO.N,G9*%
X327643923Y-161908936D03*
%TO.P,D38,2*%
%TO.N,mirror_ring_mod*%
X326249281Y-158918118D03*
%TD*%
%TO.P,D35,1*%
%TO.N,G7*%
X332610900Y-127484504D03*
%TO.P,D35,2*%
%TO.N,mirror_pinky_home*%
X331216258Y-124493686D03*
%TD*%
D21*
%TO.P,D57,1*%
%TO.N,G9*%
X273863438Y-188472098D03*
%TO.P,D57,2*%
%TO.N,mirror_select_fan*%
X271411062Y-186263964D03*
%TD*%
D16*
%TO.P,S33,1*%
%TO.N,G4*%
X317871340Y-87144131D03*
%TO.P,S33,2*%
%TO.N,mirror_outer_num*%
X328513731Y-79378923D03*
%TD*%
D17*
%TO.P,D36,1*%
%TO.N,G3*%
X324560015Y-110219338D03*
%TO.P,D36,2*%
%TO.N,mirror_pinky_top*%
X323165373Y-107228520D03*
%TD*%
D14*
%TO.P,S26,1*%
%TO.N,G18*%
X165744522Y-132784181D03*
%TO.P,S26,2*%
%TO.N,inner_top*%
X178533814Y-135945341D03*
%TD*%
D17*
%TO.P,D50,1*%
%TO.N,G7*%
X277011842Y-143480367D03*
%TO.P,D50,2*%
%TO.N,mirror_index_home*%
X275617200Y-140489549D03*
%TD*%
D14*
%TO.P,S15,1*%
%TO.N,G27*%
X117225537Y-146681213D03*
%TO.P,S15,2*%
%TO.N,middle_bottom*%
X130014829Y-149842373D03*
%TD*%
D16*
%TO.P,S46,1*%
%TO.N,G27*%
X269266607Y-118139389D03*
%TO.P,S46,2*%
%TO.N,mirror_middle_top*%
X279908998Y-110374181D03*
%TD*%
D17*
%TO.P,D32,1*%
%TO.N,G3*%
X341825180Y-102168466D03*
%TO.P,D32,2*%
%TO.N,mirror_outer_top*%
X340430538Y-99177648D03*
%TD*%
D22*
%TO.P,S57,1*%
%TO.N,G26*%
X260100240Y-196748580D03*
%TO.P,S57,2*%
%TO.N,mirror_select_fan*%
X266862506Y-185442355D03*
%TD*%
D17*
%TO.P,D34,1*%
%TO.N,G8*%
X340661774Y-144749670D03*
%TO.P,D34,2*%
%TO.N,mirror_pinky_bottom*%
X339267132Y-141758852D03*
%TD*%
%TO.P,D55,1*%
%TO.N,G3*%
X252752344Y-136531852D03*
%TO.P,D55,2*%
%TO.N,mirror_inner_top*%
X251357702Y-133541034D03*
%TD*%
D15*
%TO.P,D14,1*%
%TO.N,G10*%
X121113463Y-174688374D03*
%TO.P,D14,2*%
%TO.N,middle_mod*%
X122508105Y-171697556D03*
%TD*%
D16*
%TO.P,S36,1*%
%TO.N,G5*%
X308657047Y-112460173D03*
%TO.P,S36,2*%
%TO.N,mirror_pinky_top*%
X319299438Y-104694965D03*
%TD*%
D14*
%TO.P,S3,1*%
%TO.N,G4*%
X76671689Y-98420794D03*
%TO.P,S3,2*%
%TO.N,outer_top*%
X89460981Y-101581954D03*
%TD*%
%TO.P,S18,1*%
%TO.N,G27*%
X141378167Y-94885726D03*
%TO.P,S18,2*%
%TO.N,middle_num*%
X154167459Y-98046886D03*
%TD*%
D17*
%TO.P,D40,1*%
%TO.N,G7*%
X311542169Y-127378611D03*
%TO.P,D40,2*%
%TO.N,mirror_ring_home*%
X310147527Y-124387793D03*
%TD*%
D16*
%TO.P,S48,1*%
%TO.N,G27*%
X277210629Y-180251528D03*
%TO.P,S48,2*%
%TO.N,mirror_index_mod*%
X287853020Y-172486320D03*
%TD*%
D15*
%TO.P,D13,1*%
%TO.N,G29*%
X134995260Y-99842613D03*
%TO.P,D13,2*%
%TO.N,ring_num*%
X136389902Y-96851795D03*
%TD*%
D17*
%TO.P,D46,1*%
%TO.N,G3*%
X285169581Y-115898559D03*
%TO.P,D46,2*%
%TO.N,mirror_middle_top*%
X283774939Y-112907741D03*
%TD*%
D23*
%TO.P,S28,1*%
%TO.N,G26*%
X145854461Y-186218220D03*
%TO.P,S28,2*%
%TO.N,select_fan*%
X156391899Y-194125264D03*
%TD*%
D16*
%TO.P,S42,1*%
%TO.N,G6*%
X279537443Y-95089117D03*
%TO.P,S42,2*%
%TO.N,mirror_ring_num*%
X290179834Y-87323909D03*
%TD*%
D14*
%TO.P,S13,1*%
%TO.N,G6*%
X123056454Y-89100615D03*
%TO.P,S13,2*%
%TO.N,ring_num*%
X135845746Y-92261775D03*
%TD*%
D16*
%TO.P,S38,1*%
%TO.N,G5*%
X311740951Y-164149771D03*
%TO.P,S38,2*%
%TO.N,mirror_ring_mod*%
X322383342Y-156384563D03*
%TD*%
D14*
%TO.P,S4,1*%
%TO.N,G4*%
X84722565Y-81155630D03*
%TO.P,S4,2*%
%TO.N,outer_num*%
X97511857Y-84316790D03*
%TD*%
D15*
%TO.P,D19,1*%
%TO.N,G10*%
X137322079Y-185005026D03*
%TO.P,D19,2*%
%TO.N,index_mod*%
X138716721Y-182014208D03*
%TD*%
D24*
%TO.P,D28,1*%
%TO.N,G10*%
X152646958Y-200771146D03*
%TO.P,D28,2*%
%TO.N,select_fan*%
X155099334Y-198563014D03*
%TD*%
D14*
%TO.P,S8,1*%
%TO.N,G5*%
X101987731Y-89206508D03*
%TO.P,S8,2*%
%TO.N,pinky_num*%
X114777023Y-92367668D03*
%TD*%
%TO.P,S17,1*%
%TO.N,G27*%
X133327289Y-112150888D03*
%TO.P,S17,2*%
%TO.N,middle_top*%
X146116581Y-115312048D03*
%TD*%
%TO.P,S16,1*%
%TO.N,G27*%
X125276410Y-129416050D03*
%TO.P,S16,2*%
%TO.N,middle_home*%
X138065702Y-132577210D03*
%TD*%
D25*
%TO.P,S29,1*%
%TO.N,G18*%
X158233664Y-208578849D03*
%TO.P,S29,2*%
%TO.N,space_fan*%
X167365959Y-199083579D03*
%TD*%
D14*
%TO.P,S5,1*%
%TO.N,G5*%
X77835096Y-141002000D03*
%TO.P,S5,2*%
%TO.N,pinky_bottom*%
X90624388Y-144163160D03*
%TD*%
D16*
%TO.P,S30,1*%
%TO.N,G4*%
X342023969Y-138939620D03*
%TO.P,S30,2*%
%TO.N,mirror_outer_bottom*%
X352666360Y-131174412D03*
%TD*%
D15*
%TO.P,D16,1*%
%TO.N,G20*%
X137215217Y-140158051D03*
%TO.P,D16,2*%
%TO.N,middle_home*%
X138609859Y-137167233D03*
%TD*%
D14*
%TO.P,S2,1*%
%TO.N,G4*%
X68620813Y-115685955D03*
%TO.P,S2,2*%
%TO.N,outer_home*%
X81410105Y-118847115D03*
%TD*%
D15*
%TO.P,D3,1*%
%TO.N,G28*%
X88610495Y-109162795D03*
%TO.P,D3,2*%
%TO.N,outer_top*%
X90005137Y-106171977D03*
%TD*%
D16*
%TO.P,S37,1*%
%TO.N,G5*%
X300606173Y-95195007D03*
%TO.P,S37,2*%
%TO.N,mirror_pinky_num*%
X311248564Y-87429799D03*
%TD*%
%TO.P,S44,1*%
%TO.N,G27*%
X285368367Y-152669715D03*
%TO.P,S44,2*%
%TO.N,mirror_middle_bottom*%
X296010758Y-144904507D03*
%TD*%
D17*
%TO.P,D49,1*%
%TO.N,G8*%
X285062720Y-160745531D03*
%TO.P,D49,2*%
%TO.N,mirror_index_bottom*%
X283668078Y-157754713D03*
%TD*%
%TO.P,D42,1*%
%TO.N,G2*%
X295440413Y-92848282D03*
%TO.P,D42,2*%
%TO.N,mirror_ring_num*%
X294045771Y-89857464D03*
%TD*%
%TO.P,D45,1*%
%TO.N,G7*%
X293220460Y-133163721D03*
%TO.P,D45,2*%
%TO.N,mirror_middle_home*%
X291825818Y-130172903D03*
%TD*%
D16*
%TO.P,S56,1*%
%TO.N,G18*%
X228798502Y-121507520D03*
%TO.P,S56,2*%
%TO.N,mirror_inner_num*%
X239440893Y-113742312D03*
%TD*%
D17*
%TO.P,D31,1*%
%TO.N,G7*%
X349876059Y-119433623D03*
%TO.P,D31,2*%
%TO.N,mirror_outer_home*%
X348481417Y-116442805D03*
%TD*%
D14*
%TO.P,S25,1*%
%TO.N,G18*%
X157693645Y-150049344D03*
%TO.P,S25,2*%
%TO.N,inner_home*%
X170482937Y-153210504D03*
%TD*%
D16*
%TO.P,S55,1*%
%TO.N,G18*%
X236849375Y-138772684D03*
%TO.P,S55,2*%
%TO.N,mirror_inner_top*%
X247491766Y-131007476D03*
%TD*%
D14*
%TO.P,S10,1*%
%TO.N,G6*%
X98903825Y-140896107D03*
%TO.P,S10,2*%
%TO.N,ring_bottom*%
X111693117Y-144057267D03*
%TD*%
%TO.P,S1,1*%
%TO.N,G4*%
X60569934Y-132951120D03*
%TO.P,S1,2*%
%TO.N,outer_bottom*%
X73359226Y-136112280D03*
%TD*%
D15*
%TO.P,D6,1*%
%TO.N,G20*%
X97824782Y-134478832D03*
%TO.P,D6,2*%
%TO.N,pinky_home*%
X99219424Y-131488014D03*
%TD*%
D17*
%TO.P,D39,1*%
%TO.N,G8*%
X319593045Y-144643773D03*
%TO.P,D39,2*%
%TO.N,mirror_ring_bottom*%
X318198403Y-141652955D03*
%TD*%
D15*
%TO.P,D9,1*%
%TO.N,G10*%
X102791750Y-168903268D03*
%TO.P,D9,2*%
%TO.N,ring_mod*%
X104186392Y-165912450D03*
%TD*%
D14*
%TO.P,S9,1*%
%TO.N,G5*%
X90852944Y-158161267D03*
%TO.P,S9,2*%
%TO.N,ring_mod*%
X103642236Y-161322427D03*
%TD*%
D15*
%TO.P,D11,1*%
%TO.N,G20*%
X118893507Y-134372945D03*
%TO.P,D11,2*%
%TO.N,ring_home*%
X120288149Y-131382127D03*
%TD*%
D16*
%TO.P,S40,1*%
%TO.N,G6*%
X295639199Y-129619440D03*
%TO.P,S40,2*%
%TO.N,mirror_ring_home*%
X306281590Y-121854232D03*
%TD*%
D17*
%TO.P,D48,1*%
%TO.N,G9*%
X293113599Y-178010693D03*
%TO.P,D48,2*%
%TO.N,mirror_index_mod*%
X291718957Y-175019875D03*
%TD*%
D15*
%TO.P,D17,1*%
%TO.N,G28*%
X145266095Y-122892888D03*
%TO.P,D17,2*%
%TO.N,middle_top*%
X146660737Y-119902070D03*
%TD*%
D17*
%TO.P,D33,1*%
%TO.N,G2*%
X333774307Y-84903297D03*
%TO.P,D33,2*%
%TO.N,mirror_outer_num*%
X332379665Y-81912479D03*
%TD*%
D16*
%TO.P,S50,1*%
%TO.N,G26*%
X261108873Y-145721197D03*
%TO.P,S50,2*%
%TO.N,mirror_index_home*%
X271751264Y-137955989D03*
%TD*%
D17*
%TO.P,D30,1*%
%TO.N,G8*%
X357926938Y-136698787D03*
%TO.P,D30,2*%
%TO.N,mirror_outer_bottom*%
X356532296Y-133707969D03*
%TD*%
D15*
%TO.P,D4,1*%
%TO.N,G29*%
X96661369Y-91897633D03*
%TO.P,D4,2*%
%TO.N,outer_num*%
X98056011Y-88906815D03*
%TD*%
%TO.P,D10,1*%
%TO.N,G19*%
X110842632Y-151638106D03*
%TO.P,D10,2*%
%TO.N,ring_bottom*%
X112237274Y-148647288D03*
%TD*%
D16*
%TO.P,S43,1*%
%TO.N,G6*%
X293419247Y-169934877D03*
%TO.P,S43,2*%
%TO.N,mirror_middle_mod*%
X304061638Y-162169669D03*
%TD*%
D17*
%TO.P,D44,1*%
%TO.N,G8*%
X301271338Y-150428881D03*
%TO.P,D44,2*%
%TO.N,mirror_middle_bottom*%
X299876696Y-147438063D03*
%TD*%
D15*
%TO.P,D1,1*%
%TO.N,G19*%
X72508742Y-143693118D03*
%TO.P,D1,2*%
%TO.N,outer_bottom*%
X73903384Y-140702300D03*
%TD*%
%TO.P,D5,1*%
%TO.N,G19*%
X89773904Y-151743998D03*
%TO.P,D5,2*%
%TO.N,pinky_bottom*%
X91168546Y-148753180D03*
%TD*%
D16*
%TO.P,S32,1*%
%TO.N,G4*%
X325922211Y-104409296D03*
%TO.P,S32,2*%
%TO.N,mirror_outer_top*%
X336564602Y-96644088D03*
%TD*%
D15*
%TO.P,D7,1*%
%TO.N,G28*%
X105875656Y-117213670D03*
%TO.P,D7,2*%
%TO.N,pinky_top*%
X107270298Y-114222852D03*
%TD*%
%TO.P,D22,1*%
%TO.N,G28*%
X161474714Y-133209539D03*
%TO.P,D22,2*%
%TO.N,index_top*%
X162869356Y-130218721D03*
%TD*%
D14*
%TO.P,S22,1*%
%TO.N,G26*%
X149535904Y-122467534D03*
%TO.P,S22,2*%
%TO.N,index_top*%
X162325196Y-125628694D03*
%TD*%
D26*
%TO.N,G4*%
X215338143Y-157790616D02*
X217378143Y-159830619D01*
X335340038Y-168664799D02*
X349591206Y-156800918D01*
X238303191Y-150077435D02*
X242121818Y-158266507D01*
X257224907Y-223379180D02*
X266879233Y-210239934D01*
X266879233Y-210239934D02*
X281802778Y-193665662D01*
X340061079Y-134820358D02*
X340111716Y-134838790D01*
X158211375Y-223379176D02*
X160970229Y-223833251D01*
X68620806Y-115685955D02*
X68620810Y-115685956D01*
X254466050Y-223833249D02*
X257224907Y-223379180D01*
X133633507Y-193665660D02*
X148557050Y-210239933D01*
X80096242Y-168664803D02*
X133633507Y-193665660D01*
X340111716Y-134838790D02*
X342023969Y-138939619D01*
X239401165Y-147060775D02*
X238303191Y-150077435D01*
X342023969Y-138939619D02*
X349925080Y-155883610D01*
X54372599Y-146241339D02*
X54899458Y-147688860D01*
X324128997Y-100563741D02*
X325922211Y-104409296D01*
X321782854Y-95532412D02*
X322975029Y-95966328D01*
X60569931Y-132951121D02*
X54372599Y-146241339D01*
X182622864Y-208671912D02*
X232813418Y-208671914D01*
X242121818Y-158266507D02*
X241553208Y-159828746D01*
X160970229Y-223833251D02*
X182622864Y-208671912D01*
X349925080Y-155883610D02*
X349591206Y-156800918D01*
X54899458Y-147688860D02*
X80096242Y-168664803D01*
X317871338Y-87144130D02*
X321782854Y-95532412D01*
X241553208Y-159828746D02*
X241549194Y-159830618D01*
X338256214Y-130859636D02*
X339252820Y-131222370D01*
X84722563Y-81155631D02*
X76671687Y-98420792D01*
X76671689Y-98420793D02*
X68620810Y-115685956D01*
X217378143Y-159830619D02*
X241549194Y-159830618D01*
X322975029Y-95966328D02*
X324562915Y-99371564D01*
X281802778Y-193665662D02*
X335340038Y-168664799D01*
X232813418Y-208671914D02*
X254466050Y-223833249D01*
X148557050Y-210239933D02*
X158211375Y-223379176D01*
X339252820Y-131222370D02*
X340442250Y-133773110D01*
X340442250Y-133773110D02*
X340061079Y-134820358D01*
X60569931Y-132951121D02*
X68620806Y-115685955D01*
X333973092Y-121674459D02*
X338256214Y-130859636D01*
X324562915Y-99371564D02*
X324128997Y-100563741D01*
X76671687Y-98420792D02*
X76671689Y-98420793D01*
%TO.N,outer_bottom*%
X75111116Y-136929203D02*
X75352965Y-137593665D01*
X73359223Y-136112282D02*
X75111116Y-136929203D01*
X73903384Y-140702302D02*
X75352965Y-137593665D01*
%TO.N,GND*%
X205743649Y-145090618D02*
X200098146Y-145090618D01*
X215338146Y-147630619D02*
X215338144Y-147630617D01*
X215338144Y-147630617D02*
X208283649Y-147630617D01*
X210968141Y-175345616D02*
X210968141Y-151227923D01*
X215338146Y-150170618D02*
X215338146Y-147630619D01*
X208283649Y-147630617D02*
X205743649Y-145090618D01*
X210968141Y-151227923D02*
X212025447Y-150170618D01*
X212025447Y-150170618D02*
X215338146Y-150170618D01*
%TO.N,outer_home*%
X81954259Y-123437139D02*
X83402721Y-120330904D01*
X83402721Y-120330904D02*
X83159595Y-119662918D01*
X83159595Y-119662918D02*
X81410102Y-118847115D01*
%TO.N,outer_top*%
X91511744Y-102941041D02*
X90005133Y-106171975D01*
X91335172Y-102455903D02*
X91511744Y-102941041D01*
X89460979Y-101581955D02*
X91335172Y-102455903D01*
%TO.N,outer_num*%
X99500745Y-85808570D02*
X99253354Y-85128864D01*
X99253354Y-85128864D02*
X97511856Y-84316790D01*
X98056011Y-88906815D02*
X99500745Y-85808570D01*
%TO.N,G5*%
X215338141Y-160330619D02*
X241886280Y-160330619D01*
X74531934Y-150550655D02*
X74292277Y-149892211D01*
X311740951Y-164149771D02*
X317170247Y-175792923D01*
X324758807Y-146990497D02*
X308316239Y-154657790D01*
X266491030Y-209923841D02*
X281499174Y-193255605D01*
X85625392Y-170694972D02*
X133937105Y-193255604D01*
X308316239Y-154657790D02*
X307877223Y-155863976D01*
X281499174Y-193255605D02*
X316817259Y-176762748D01*
X324758807Y-146990497D02*
X316707928Y-129725335D01*
X240457710Y-149326549D02*
X239601581Y-151678744D01*
X160850366Y-223306796D02*
X182465211Y-208171911D01*
X182465211Y-208171911D02*
X232971070Y-208171916D01*
X90852942Y-158161268D02*
X85354914Y-169951836D01*
X241905972Y-160321436D02*
X241886280Y-160330619D01*
X300606172Y-95195007D02*
X308657048Y-112460168D01*
X79912216Y-136547603D02*
X80596813Y-136298432D01*
X74028049Y-149166240D02*
X77835095Y-141002000D01*
X101987729Y-89206508D02*
X102028846Y-89319464D01*
X133937105Y-193255604D02*
X148945257Y-209923842D01*
X102028846Y-89319464D02*
X97925693Y-98118697D01*
X80596813Y-136298432D02*
X81928972Y-133441603D01*
X77835095Y-141002000D02*
X79912216Y-136547603D01*
X254585918Y-223306793D02*
X256942640Y-222918907D01*
X98199416Y-98870756D02*
X96891046Y-101676569D01*
X96026029Y-101991409D02*
X93936850Y-106471673D01*
X242662498Y-158242900D02*
X241905972Y-160321436D01*
X93936850Y-106471673D02*
X85885973Y-123736835D01*
X97925693Y-98118697D02*
X98199416Y-98870756D01*
X85354914Y-169951836D02*
X85625392Y-170694972D01*
X307877223Y-155863976D02*
X311740951Y-164149771D01*
X85885973Y-123736835D02*
X85885971Y-123736834D01*
X74292277Y-149892211D02*
X74028049Y-149166240D01*
X317170247Y-175792923D02*
X316817259Y-176762748D01*
X148945257Y-209923842D02*
X158493643Y-222918906D01*
X81679799Y-132757003D02*
X85885971Y-123736834D01*
X308657048Y-112460168D02*
X308657045Y-112460171D01*
X96891046Y-101676569D02*
X96026029Y-101991409D01*
X256942640Y-222918907D02*
X266491030Y-209923841D01*
X81928972Y-133441603D02*
X81679799Y-132757003D01*
X232971070Y-208171916D02*
X254585918Y-223306793D01*
X239601581Y-151678744D02*
X242662498Y-158242900D01*
X90852942Y-158161268D02*
X74531934Y-150550655D01*
X158493643Y-222918906D02*
X160850366Y-223306796D01*
%TO.N,pinky_bottom*%
X92540058Y-145850819D02*
X92191830Y-144894072D01*
X92518236Y-145858760D02*
X92540058Y-145850819D01*
X91168544Y-148753180D02*
X92518236Y-145858760D01*
X92191830Y-144894072D02*
X90624390Y-144163160D01*
%TO.N,pinky_home*%
X99219422Y-131488016D02*
X100644738Y-128431417D01*
X100644738Y-128431417D02*
X100375125Y-127690654D01*
X100375125Y-127690654D02*
X98675262Y-126897997D01*
%TO.N,pinky_top*%
X106726141Y-109632835D02*
X108409630Y-110417857D01*
X108409630Y-110417857D02*
X108687979Y-111182619D01*
X108687979Y-111182619D02*
X107270299Y-114222852D01*
%TO.N,pinky_num*%
X116744386Y-93905616D02*
X116472349Y-93158214D01*
X115321180Y-96957689D02*
X116744386Y-93905616D01*
X116472349Y-93158214D02*
X114777023Y-92367669D01*
%TO.N,ring_mod*%
X104186393Y-165912451D02*
X105638146Y-162799156D01*
X103642235Y-161322430D02*
X105398785Y-162141522D01*
X105398785Y-162141522D02*
X105638146Y-162799156D01*
%TO.N,G6*%
X254705784Y-222780339D02*
X256660371Y-222458639D01*
X111564798Y-158820688D02*
X111328918Y-158172601D01*
X240574556Y-152582195D02*
X243203178Y-158219293D01*
X111328918Y-158172601D02*
X95284766Y-150691092D01*
X291021380Y-160955511D02*
X290231819Y-163124811D01*
X123056457Y-89100615D02*
X115005577Y-106365780D01*
X233128721Y-207671915D02*
X254705784Y-222780339D01*
X109174652Y-163946379D02*
X102781164Y-177657258D01*
X98903824Y-140896106D02*
X106954698Y-123630945D01*
X215338145Y-162870616D02*
X217378141Y-160830617D01*
X290246077Y-163129998D02*
X293419245Y-169934880D01*
X149333463Y-209607754D02*
X158775913Y-222458638D01*
X256660371Y-222458639D02*
X266102824Y-209607751D01*
X102781164Y-177657258D02*
X102999231Y-178256388D01*
X106954702Y-123630944D02*
X106954698Y-123630945D01*
X299649993Y-183296761D02*
X299241781Y-184418323D01*
X306195357Y-152257204D02*
X305484074Y-154211443D01*
X134240705Y-192845548D02*
X149333463Y-209607754D01*
X102999231Y-178256388D02*
X134240705Y-192845548D01*
X240816402Y-151917732D02*
X240574556Y-152582195D01*
X303690077Y-146884604D02*
X306195357Y-152257204D01*
X158775913Y-222458638D02*
X160730499Y-222780338D01*
X241514258Y-151592316D02*
X240816402Y-151917732D01*
X293419245Y-169934880D02*
X299649993Y-183296761D01*
X109174652Y-163946379D02*
X111564798Y-158820688D01*
X295639198Y-129619440D02*
X303690077Y-146884604D01*
X115005578Y-106365782D02*
X106954702Y-123630944D01*
X279537445Y-95089114D02*
X287588320Y-112354276D01*
X95284766Y-150691092D02*
X94869005Y-149548802D01*
X182307565Y-207671912D02*
X233128721Y-207671915D01*
X281195577Y-192845550D02*
X299241781Y-184418323D01*
X290231819Y-163124811D02*
X290246077Y-163129998D01*
X242253869Y-160827501D02*
X242247182Y-160830619D01*
X94869005Y-149548802D02*
X98903824Y-140896106D01*
X217378141Y-160830617D02*
X228929241Y-160830617D01*
X228929241Y-160830617D02*
X242247182Y-160830619D01*
X160730499Y-222780338D02*
X182307565Y-207671912D01*
X266102824Y-209607751D02*
X281195577Y-192845550D01*
X305484074Y-154211443D02*
X291021380Y-160955511D01*
X243203178Y-158219293D02*
X242253869Y-160827501D01*
X115005577Y-106365780D02*
X115005578Y-106365782D01*
X287588320Y-112354276D02*
X287588317Y-112354279D01*
%TO.N,ring_bottom*%
X113496573Y-144898234D02*
X113710898Y-145487089D01*
X111693116Y-144057268D02*
X113496573Y-144898234D01*
X113710898Y-145487089D02*
X112237273Y-148647290D01*
%TO.N,ring_home*%
X121635287Y-127674033D02*
X119743994Y-126792105D01*
X120288148Y-131382127D02*
X121802735Y-128134084D01*
X121802735Y-128134084D02*
X121635287Y-127674033D01*
%TO.N,ring_top*%
X129641124Y-110387864D02*
X127794866Y-109526939D01*
X129832604Y-110913966D02*
X129641124Y-110387864D01*
X128339029Y-114116961D02*
X129832604Y-110913966D01*
%TO.N,ring_num*%
X135845747Y-92261776D02*
X137576006Y-93068610D01*
X137576006Y-93068610D02*
X137829396Y-93764794D01*
X137829396Y-93764794D02*
X136389902Y-96851795D01*
%TO.N,middle_mod*%
X123797662Y-167962616D02*
X123995842Y-168507094D01*
X122508103Y-171697557D02*
X123995842Y-168507094D01*
X121963941Y-167107537D02*
X123797662Y-167962616D01*
%TO.N,G27*%
X127583909Y-124467607D02*
X127583904Y-124467608D01*
X141378164Y-94885722D02*
X133327288Y-112150888D01*
X254825649Y-222253884D02*
X256378096Y-221998370D01*
X173316243Y-158262712D02*
X173882661Y-159818926D01*
X159058179Y-221998371D02*
X160610631Y-222253882D01*
X133327287Y-112150887D02*
X127583909Y-124467607D01*
X125383270Y-174263024D02*
X120408626Y-184931185D01*
X277571801Y-135949926D02*
X285368370Y-152669715D01*
X265714615Y-209291660D02*
X280891978Y-192435493D01*
X233286367Y-207171914D02*
X254825649Y-222253884D01*
X120408626Y-184931185D02*
X120804691Y-186019362D01*
X277210629Y-180251527D02*
X282145155Y-190833648D01*
X285368370Y-152669715D02*
X289594717Y-161733149D01*
X269266611Y-118139389D02*
X269512147Y-118665943D01*
X173882661Y-159818926D02*
X173907733Y-159830617D01*
X256378096Y-221998370D02*
X265714615Y-209291660D01*
X269266609Y-118139386D02*
X269266611Y-118139389D01*
X113022239Y-155695211D02*
X114090750Y-158630929D01*
X176035119Y-147060778D02*
X177133095Y-150077447D01*
X134544306Y-192435496D02*
X149721668Y-209291658D01*
X127380101Y-164827854D02*
X128433449Y-167721893D01*
X288531106Y-164655390D02*
X275955962Y-170519278D01*
X114090750Y-158630929D02*
X127380101Y-164827854D01*
X269512147Y-118665943D02*
X269512145Y-118665942D01*
X277571801Y-135949924D02*
X277571801Y-135949926D01*
X120804691Y-186019362D02*
X134544306Y-192435496D01*
X133327288Y-112150888D02*
X133327287Y-112150887D01*
X149721668Y-209291658D02*
X159058179Y-221998371D01*
X261215735Y-100874223D02*
X269266609Y-118139386D01*
X173316243Y-158262712D02*
X177133095Y-150077447D01*
X280891978Y-192435493D02*
X281699355Y-192058464D01*
X125276411Y-129416049D02*
X127583904Y-124467608D01*
X277317494Y-135404549D02*
X277571801Y-135949924D01*
X276134169Y-177943052D02*
X277210629Y-180251527D01*
X200098143Y-157790618D02*
X198058143Y-159830616D01*
X275180017Y-172651175D02*
X276797639Y-176120180D01*
X160610631Y-222253882D02*
X182149917Y-207171913D01*
X282145155Y-190833648D02*
X281699355Y-192058464D01*
X128433449Y-167721893D02*
X125383270Y-174263024D01*
X182149917Y-207171913D02*
X233286367Y-207171914D01*
X198058143Y-159830616D02*
X173907733Y-159830617D01*
X289594717Y-161733149D02*
X288531106Y-164655390D01*
X275955962Y-170519278D02*
X275180017Y-172651175D01*
X269512145Y-118665942D02*
X277317494Y-135404549D01*
X117225533Y-146681212D02*
X113022239Y-155695211D01*
X276797639Y-176120180D02*
X276134169Y-177943052D01*
X125276411Y-129416049D02*
X117225533Y-146681212D01*
%TO.N,middle_bottom*%
X131775004Y-150663156D02*
X130014824Y-149842372D01*
X132012426Y-151315474D02*
X131775004Y-150663156D01*
X130558981Y-154432398D02*
X132012426Y-151315474D01*
%TO.N,middle_home*%
X138065702Y-132577210D02*
X139868096Y-133417681D01*
X139868096Y-133417681D02*
X140082990Y-134008096D01*
X140082990Y-134008096D02*
X138609862Y-137167234D01*
%TO.N,middle_top*%
X146660738Y-119902071D02*
X148126199Y-116759374D01*
X148063803Y-116587949D02*
X147902530Y-116144850D01*
X147902530Y-116144850D02*
X146116577Y-115312052D01*
X148126199Y-116759374D02*
X148063803Y-116587949D01*
%TO.N,middle_num*%
X154711614Y-102636908D02*
X156157490Y-99536219D01*
X154167458Y-98046884D02*
X155911403Y-98860100D01*
X155911403Y-98860100D02*
X156157490Y-99536219D01*
%TO.N,index_mod*%
X139827745Y-178196007D02*
X140121202Y-179002283D01*
X138716718Y-182014208D02*
X140121202Y-179002283D01*
X138172564Y-177424185D02*
X139827745Y-178196007D01*
%TO.N,G26*%
X252248283Y-125613956D02*
X252022274Y-126234920D01*
X147101236Y-172378117D02*
X149383823Y-178649472D01*
X157586784Y-105202372D02*
X149535906Y-122467532D01*
X255817394Y-192892286D02*
X255723390Y-191098697D01*
X130994865Y-164867593D02*
X147101236Y-172378117D01*
X250868546Y-122655098D02*
X252248283Y-125613956D01*
X159340447Y-221538101D02*
X160490762Y-221727426D01*
X233444018Y-206671913D02*
X254945521Y-221727431D01*
X181992264Y-206671911D02*
X233444018Y-206671913D01*
X160490762Y-221727426D02*
X181992264Y-206671911D01*
X137738024Y-195235241D02*
X150109869Y-208975569D01*
X273206681Y-171665039D02*
X273196602Y-171692727D01*
X269159752Y-162986361D02*
X269159749Y-162986363D01*
X261108874Y-145721200D02*
X269159752Y-162986361D01*
X150109869Y-208975569D02*
X159340447Y-221538101D01*
X149383823Y-178649472D02*
X145854460Y-186218220D01*
X269159749Y-162986363D02*
X273206681Y-171665039D01*
X253057996Y-128456034D02*
X253303882Y-128983336D01*
X253303882Y-128983336D02*
X253303881Y-128983340D01*
X174978573Y-149326552D02*
X175834706Y-151678754D01*
X253303881Y-128983340D02*
X261108874Y-145721200D01*
X256095833Y-221538102D02*
X265326410Y-208975567D01*
X141485027Y-139732699D02*
X143792520Y-134784259D01*
X260100243Y-196748577D02*
X255817394Y-192892286D01*
X260100243Y-196748577D02*
X268122679Y-203972011D01*
X268216676Y-205765603D02*
X268122679Y-203972011D01*
X149535906Y-122467532D02*
X149535907Y-122467533D01*
X149535907Y-122467533D02*
X143792522Y-134784258D01*
X145854462Y-186218216D02*
X137832026Y-193441651D01*
X175834706Y-151678754D02*
X172775564Y-158239104D01*
X200098142Y-160330617D02*
X173546736Y-160330617D01*
X250247580Y-122429085D02*
X250868546Y-122655098D01*
X254945521Y-221727431D02*
X256095833Y-221538102D01*
X141485026Y-139732701D02*
X141485027Y-139732699D01*
X265326410Y-208975567D02*
X268216676Y-205765603D01*
X143792522Y-134784258D02*
X143792520Y-134784259D01*
X137832026Y-193441651D02*
X137738024Y-195235241D01*
X172775564Y-158239104D02*
X173534784Y-160325043D01*
X133434149Y-156997859D02*
X130455479Y-163385637D01*
X173534784Y-160325043D02*
X173546736Y-160330617D01*
X245007117Y-111190871D02*
X250247580Y-122429085D01*
X133434149Y-156997859D02*
X141485026Y-139732701D01*
X130455479Y-163385637D02*
X130994865Y-164867593D01*
X255723390Y-191098697D02*
X273196602Y-171692727D01*
X252022274Y-126234920D02*
X253057996Y-128456034D01*
%TO.N,index_bottom*%
X148210643Y-161654423D02*
X147961315Y-160969408D01*
X146767599Y-164749044D02*
X148210643Y-161654423D01*
X147961315Y-160969408D02*
X146223439Y-160159023D01*
%TO.N,index_home*%
X154274318Y-142893859D02*
X156003527Y-143700204D01*
X156003527Y-143700204D02*
X156257476Y-144397929D01*
X156257476Y-144397929D02*
X154818473Y-147483882D01*
%TO.N,index_top*%
X164162947Y-126485649D02*
X164358970Y-127024223D01*
X162869355Y-130218720D02*
X164358970Y-127024223D01*
X164162947Y-126485649D02*
X162325194Y-125628693D01*
%TO.N,index_num*%
X172275571Y-109249285D02*
X172438640Y-109697312D01*
X172438640Y-109697312D02*
X170920233Y-112953553D01*
X170376076Y-108363531D02*
X172275571Y-109249285D01*
%TO.N,G18*%
X245595236Y-200451269D02*
X246914006Y-198567867D01*
X264477036Y-209283866D02*
X264428715Y-209352874D01*
X244940715Y-156124614D02*
X244940717Y-156124619D01*
X244940717Y-156124619D02*
X252951133Y-173303011D01*
X158233662Y-208578849D02*
X157433074Y-206379245D01*
X237099403Y-139308862D02*
X237099406Y-139308866D01*
X156560799Y-203982695D02*
X162672662Y-190875768D01*
X181834618Y-206171911D02*
X233601665Y-206171916D01*
X244900258Y-156037845D02*
X244940715Y-156124614D01*
X162164437Y-189479438D02*
X162672662Y-190875768D01*
X172234881Y-158215497D02*
X173186622Y-160830385D01*
X157433074Y-206379245D02*
X156560799Y-203982695D01*
X170684183Y-122191051D02*
X173795401Y-115519020D01*
X173186622Y-160830385D02*
X173187126Y-160830617D01*
X228798503Y-121507519D02*
X236849374Y-138772679D01*
X200098146Y-162870619D02*
X198058140Y-160830618D01*
X165744523Y-132784183D02*
X165450435Y-133414854D01*
X173187126Y-160830617D02*
X198058140Y-160830618D01*
X165744523Y-132784183D02*
X168698687Y-126448954D01*
X165450435Y-133414854D02*
X160001142Y-145100904D01*
X255065384Y-221200972D02*
X255813566Y-221077832D01*
X149252508Y-182195656D02*
X149806101Y-183716650D01*
X237099406Y-139308866D02*
X244900258Y-156037845D01*
X169033962Y-126326923D02*
X169761219Y-126062227D01*
X149806101Y-183716650D02*
X162164437Y-189479438D01*
X252951133Y-173303011D02*
X257808821Y-183720354D01*
X255813566Y-221077832D02*
X264428715Y-209352874D01*
X236849374Y-138772679D02*
X236849378Y-138772683D01*
X153923703Y-213321649D02*
X159622719Y-221077830D01*
X169761219Y-126062227D02*
X171070911Y-123253578D01*
X157693644Y-150049343D02*
X160001142Y-145100904D01*
X159622719Y-221077830D02*
X160370896Y-221200971D01*
X150580703Y-179347331D02*
X149252508Y-182195656D01*
X173941688Y-151550164D02*
X174639547Y-151875579D01*
X174639547Y-151875579D02*
X174881390Y-152540042D01*
X246914006Y-198567867D02*
X250453687Y-197943730D01*
X233601665Y-206171916D02*
X255065384Y-221200972D01*
X257811351Y-183736917D02*
X257808821Y-183720354D01*
X264171091Y-207548757D02*
X264477036Y-209283866D01*
X236849378Y-138772683D02*
X237099403Y-139308862D01*
X147709838Y-171459695D02*
X149642769Y-167314509D01*
X154195151Y-211546228D02*
X153923703Y-213321649D01*
X158233660Y-208578849D02*
X154195151Y-211546228D01*
X149642768Y-167314506D02*
X149642769Y-167314509D01*
X171070911Y-123253578D02*
X170684183Y-122191051D01*
X174881390Y-152540042D02*
X172234881Y-158215497D01*
X246914006Y-198567867D02*
X257811351Y-183736917D01*
X160370896Y-221200971D02*
X181834618Y-206171911D01*
X168698687Y-126448954D02*
X169033962Y-126326923D01*
X150580703Y-179347331D02*
X147709838Y-171459695D01*
X250453687Y-197943730D02*
X264171091Y-207548757D01*
X157693644Y-150049343D02*
X149642768Y-167314506D01*
%TO.N,inner_bottom*%
X164107957Y-171257154D02*
X164390362Y-172033049D01*
X164390362Y-172033049D02*
X162976214Y-175065691D01*
X162432056Y-170475669D02*
X164107957Y-171257154D01*
%TO.N,inner_home*%
X172232994Y-154026570D02*
X172475816Y-154693727D01*
X170482937Y-153210505D02*
X172232994Y-154026570D01*
X172475816Y-154693727D02*
X171027094Y-157800528D01*
%TO.N,inner_top*%
X180264977Y-136752598D02*
X180517887Y-137447461D01*
X179077973Y-140535366D02*
X180517887Y-137447461D01*
X180264977Y-136752598D02*
X178533814Y-135945343D01*
%TO.N,inner_num*%
X188341438Y-119499360D02*
X188341438Y-119499364D01*
X186584691Y-118680178D02*
X188341438Y-119499360D01*
X187128849Y-123270200D02*
X188580694Y-120156711D01*
X188341438Y-119499364D02*
X188580694Y-120156711D01*
%TO.N,select_fan*%
X157685327Y-195561761D02*
X157648319Y-196267896D01*
X157685329Y-195561759D02*
X157685327Y-195561761D01*
X156391898Y-194125261D02*
X157685329Y-195561759D01*
X155099336Y-198563013D02*
X157648319Y-196267896D01*
%TO.N,space_fan*%
X171613107Y-200907335D02*
X169645740Y-198097642D01*
X168949377Y-197974858D02*
X169645740Y-198097642D01*
X167365951Y-199083579D02*
X168949377Y-197974858D01*
%TO.N,mirror_outer_bottom*%
X352666359Y-131174407D02*
X354231467Y-130444585D01*
X354231467Y-130444585D02*
X355169814Y-130786118D01*
X355169814Y-130786118D02*
X356532295Y-133707972D01*
%TO.N,mirror_outer_home*%
X346254079Y-113145160D02*
X344615485Y-113909248D01*
X348481414Y-116442807D02*
X347084666Y-113447470D01*
X347084666Y-113447470D02*
X346254079Y-113145160D01*
%TO.N,mirror_outer_top*%
X340430540Y-99177646D02*
X338948161Y-95998675D01*
X338948161Y-95998675D02*
X338715450Y-95913974D01*
X338386830Y-95794369D02*
X336564603Y-96644087D01*
X338715450Y-95913974D02*
X338386830Y-95794369D01*
%TO.N,mirror_outer_num*%
X330904322Y-78748596D02*
X332379661Y-81912479D01*
X328513728Y-79378919D02*
X330320866Y-78536238D01*
X330320866Y-78536238D02*
X330904322Y-78748596D01*
%TO.N,mirror_pinky_bottom*%
X337141513Y-138413766D02*
X337822950Y-138661789D01*
X335401196Y-139225288D02*
X337141513Y-138413766D01*
X337822950Y-138661789D02*
X339267134Y-141758849D01*
%TO.N,mirror_pinky_home*%
X329172628Y-121110370D02*
X329733841Y-121314635D01*
X327350320Y-121960125D02*
X329172628Y-121110370D01*
X329733841Y-121314635D02*
X331216257Y-124493685D01*
%TO.N,mirror_pinky_top*%
X320914264Y-103941959D02*
X321779712Y-104256955D01*
X319299437Y-104694964D02*
X320914264Y-103941959D01*
X321779712Y-104256955D02*
X323165375Y-107228522D01*
%TO.N,mirror_pinky_num*%
X313762481Y-87063949D02*
X315114501Y-89963361D01*
X313767502Y-87050157D02*
X313762481Y-87063949D01*
X312810041Y-86701671D02*
X313767502Y-87050157D01*
X311248561Y-87429800D02*
X312810041Y-86701671D01*
%TO.N,mirror_ring_mod*%
X322383346Y-156384561D02*
X324106549Y-155581021D01*
X324813083Y-155838177D02*
X326249282Y-158918118D01*
X324106549Y-155581021D02*
X324813083Y-155838177D01*
%TO.N,mirror_ring_bottom*%
X318198404Y-141652957D02*
X316790869Y-138634497D01*
X315994187Y-138344526D02*
X314332469Y-139119399D01*
X316790869Y-138634497D02*
X315994187Y-138344526D01*
%TO.N,mirror_ring_home*%
X309006286Y-121948748D02*
X309010976Y-121950455D01*
X306281590Y-121854232D02*
X307948853Y-121076773D01*
X309010976Y-121950455D02*
X310147528Y-124387793D01*
X307948853Y-121076773D02*
X308732720Y-121362078D01*
X308732720Y-121362078D02*
X309006286Y-121948748D01*
%TO.N,mirror_ring_top*%
X300506572Y-103946831D02*
X300001905Y-103763149D01*
X300001905Y-103763149D02*
X298230708Y-104589070D01*
X300638070Y-103994694D02*
X300506572Y-103946831D01*
X302096649Y-107122627D02*
X300638070Y-103994694D01*
%TO.N,mirror_ring_num*%
X291862600Y-86539220D02*
X292628425Y-86817959D01*
X290179833Y-87323906D02*
X291862600Y-86539220D01*
X292628425Y-86817959D02*
X294045772Y-89857463D01*
%TO.N,mirror_middle_mod*%
X306467098Y-161571223D02*
X307927572Y-164703226D01*
X304061636Y-162169668D02*
X305836898Y-161341850D01*
X305836898Y-161341850D02*
X306467098Y-161571223D01*
%TO.N,mirror_middle_bottom*%
X297718158Y-144108330D02*
X296010761Y-144904504D01*
X298447863Y-144373920D02*
X297718158Y-144108330D01*
X299876694Y-147438065D02*
X298447863Y-144373920D01*
%TO.N,mirror_middle_home*%
X287959884Y-127639344D02*
X289747226Y-126805890D01*
X290359708Y-127028813D02*
X291825818Y-130172902D01*
X289747226Y-126805890D02*
X290359708Y-127028813D01*
%TO.N,mirror_middle_top*%
X279909003Y-110374179D02*
X281604718Y-109583453D01*
X282351552Y-109855277D02*
X283774939Y-112907740D01*
X281604718Y-109583453D02*
X282351552Y-109855277D01*
%TO.N,mirror_middle_num*%
X273660966Y-92268334D02*
X271858126Y-93109013D01*
X275724065Y-95642576D02*
X274250724Y-92482986D01*
X274250724Y-92482986D02*
X273660966Y-92268334D01*
%TO.N,mirror_index_mod*%
X290291639Y-171958987D02*
X291718956Y-175019877D01*
X289557162Y-171691663D02*
X290291639Y-171958987D01*
X287853016Y-172486319D02*
X289557162Y-171691663D01*
%TO.N,mirror_index_bottom*%
X281482681Y-154437507D02*
X279802141Y-155221157D01*
X282251773Y-154717436D02*
X281482681Y-154437507D01*
X283668081Y-157754713D02*
X282251773Y-154717436D01*
%TO.N,mirror_index_home*%
X274192358Y-137433968D02*
X275617200Y-140489549D01*
X271751265Y-137955991D02*
X273450105Y-137163809D01*
X273450105Y-137163809D02*
X274192358Y-137433968D01*
%TO.N,mirror_index_top*%
X266134744Y-120154357D02*
X265791747Y-120029515D01*
X265791747Y-120029515D02*
X265413672Y-119891909D01*
X265413672Y-119891909D02*
X263700390Y-120690828D01*
X267566325Y-123224386D02*
X266134744Y-120154357D01*
%TO.N,mirror_index_num*%
X259515443Y-105959222D02*
X258077938Y-102876479D01*
X257375505Y-102620816D02*
X258077938Y-102876479D01*
X257375505Y-102620816D02*
X255649509Y-103425666D01*
%TO.N,mirror_inner_bottom*%
X265234443Y-164772628D02*
X263593522Y-165537800D01*
X267459457Y-168071358D02*
X266061628Y-165073698D01*
X266061628Y-165073698D02*
X265234443Y-164772628D01*
%TO.N,mirror_inner_home*%
X259408580Y-150806194D02*
X257927875Y-147630806D01*
X257361292Y-147424591D02*
X255542648Y-148272638D01*
X257927875Y-147630806D02*
X257361292Y-147424591D01*
%TO.N,mirror_inner_top*%
X249339262Y-130145973D02*
X249863541Y-130336794D01*
X249339262Y-130145973D02*
X247491767Y-131007473D01*
X251357706Y-133541034D02*
X249863541Y-130336794D01*
%TO.N,mirror_inner_num*%
X241227179Y-112909351D02*
X239440892Y-113742309D01*
X241645030Y-113061439D02*
X241227179Y-112909351D01*
X243306827Y-116275870D02*
X241841207Y-113132840D01*
X241841207Y-113132840D02*
X241645030Y-113061439D01*
%TO.N,mirror_select_fan*%
X266862507Y-185442355D02*
X268155937Y-184005855D01*
X268155937Y-184005855D02*
X268862074Y-183968846D01*
X271411060Y-186263964D02*
X268862074Y-183968846D01*
%TO.N,mirror_space_fan*%
X257380140Y-210400027D02*
X259347508Y-207590334D01*
X259224721Y-206893968D02*
X259347508Y-207590334D01*
X257641299Y-205785245D02*
X259224721Y-206893968D01*
%TO.N,G19*%
X193978145Y-161830618D02*
X200098141Y-167950617D01*
X160799730Y-179733175D02*
X161581572Y-178056510D01*
X144591111Y-169416530D02*
X145372955Y-167739866D01*
X145372955Y-167739866D02*
X145372958Y-167739865D01*
X128382497Y-159099881D02*
X129164338Y-157423218D01*
X110842634Y-151638109D02*
X110842636Y-151638107D01*
X161581572Y-178056510D02*
X161581581Y-178056511D01*
X160799730Y-179733175D02*
X161252888Y-179944485D01*
X161252888Y-179944485D02*
X162940625Y-179330199D01*
X162940625Y-179330199D02*
X171100813Y-161830617D01*
X129164338Y-157423218D02*
X129164344Y-157423215D01*
X171100813Y-161830617D02*
X193978145Y-161830618D01*
X88992060Y-153420668D02*
X89773903Y-151744001D01*
X110060789Y-153314778D02*
X110842634Y-151638109D01*
X72508743Y-143693119D02*
X71726902Y-145369786D01*
X71726902Y-145369786D02*
X71726894Y-145369787D01*
%TO.N,G20*%
X118111666Y-136049610D02*
X118893511Y-134372946D01*
X200098147Y-165410618D02*
X196018143Y-161330617D01*
X170782020Y-161331168D02*
X170783533Y-161330618D01*
X152641990Y-152151368D02*
X153423831Y-150474700D01*
X97042937Y-136155501D02*
X97824779Y-134478837D01*
X168850609Y-162468014D02*
X169548468Y-162793431D01*
X153423831Y-150474700D02*
X153423837Y-150474700D01*
X168850609Y-162468014D02*
X169632447Y-160791351D01*
X79777774Y-128104626D02*
X80559620Y-126427958D01*
X169632447Y-160791351D02*
X169632456Y-160791347D01*
X170212932Y-162551586D02*
X170782020Y-161331168D01*
X136433374Y-141834722D02*
X137215216Y-140158054D01*
X80559620Y-126427958D02*
X80559623Y-126427955D01*
X170783533Y-161330618D02*
X196018143Y-161330617D01*
X137215216Y-140158054D02*
X137215221Y-140158051D01*
X97824779Y-134478837D02*
X97824786Y-134478836D01*
X169548468Y-162793431D02*
X170212932Y-162551586D01*
%TO.N,G28*%
X145266094Y-122892888D02*
X145266099Y-122892888D01*
X176901487Y-145202849D02*
X178241309Y-148883979D01*
X200098140Y-155250617D02*
X196018141Y-159330618D01*
X126162545Y-118784448D02*
X126944389Y-117107779D01*
X144484250Y-124569554D02*
X145266094Y-122892888D01*
X178241309Y-148883979D02*
X173856924Y-158286318D01*
X88610492Y-109162795D02*
X88610495Y-109162794D01*
X160692872Y-134886202D02*
X161474711Y-133209537D01*
X105093816Y-118890340D02*
X105875659Y-117213675D01*
X196018141Y-159330618D02*
X174278888Y-159330617D01*
X176901487Y-145202849D02*
X177683328Y-143526186D01*
X87828650Y-110839461D02*
X88610492Y-109162795D01*
X177683328Y-143526186D02*
X177683334Y-143526187D01*
X174228461Y-159307104D02*
X174278888Y-159330617D01*
X161474711Y-133209537D02*
X161474714Y-133209537D01*
X173856924Y-158286318D02*
X174228461Y-159307104D01*
%TO.N,G29*%
X174587124Y-158830616D02*
X193978145Y-158830618D01*
X113926541Y-99948510D02*
X113144696Y-101625173D01*
X152535129Y-107304393D02*
X153316972Y-105627729D01*
X113144696Y-101625173D02*
X113144695Y-101625176D01*
X174397607Y-158309922D02*
X174587124Y-158830616D01*
X184952368Y-127937687D02*
X186534032Y-132283275D01*
X185734207Y-126261017D02*
X185734212Y-126261015D01*
X184952368Y-127937687D02*
X185734207Y-126261017D01*
X153316972Y-105627729D02*
X153316975Y-105627726D01*
X186534032Y-132283275D02*
X174397607Y-158309922D01*
X200098146Y-152710618D02*
X193978145Y-158830618D01*
X134213422Y-101519286D02*
X134995265Y-99842617D01*
X168743747Y-117621036D02*
X169525590Y-115944373D01*
X95879530Y-93574298D02*
X96661373Y-91897633D01*
X96661373Y-91897633D02*
X96661369Y-91897633D01*
X134995265Y-99842617D02*
X134995264Y-99842614D01*
X169525590Y-115944373D02*
X169525592Y-115944370D01*
%TO.N,G10*%
X121113460Y-174688378D02*
X121113462Y-174688377D01*
X197558141Y-205671911D02*
X200098139Y-203131913D01*
X102009910Y-170579941D02*
X102791752Y-168903269D01*
X136540238Y-186681696D02*
X136540235Y-186681693D01*
X152646956Y-200771145D02*
X151272138Y-202009037D01*
X173505908Y-203610538D02*
X174567025Y-205125970D01*
X120331619Y-176365046D02*
X121113460Y-174688378D01*
X181676968Y-205671912D02*
X197558141Y-205671911D01*
X176434193Y-207792560D02*
X178202957Y-208104439D01*
X200098139Y-203131913D02*
X200098140Y-170490615D01*
X151272138Y-202009037D02*
X151272137Y-202009037D01*
X174567025Y-205125970D02*
X176434193Y-207792560D01*
X178202957Y-208104439D02*
X181676968Y-205671912D01*
X102791752Y-168903269D02*
X102791749Y-168903269D01*
X137322080Y-185005024D02*
X136540238Y-186681696D01*
%TO.N,G8*%
X269635941Y-172738845D02*
X269635946Y-172738843D01*
X340661775Y-144749669D02*
X341443616Y-146426334D01*
X302053177Y-152105547D02*
X302053183Y-152105547D01*
X319593046Y-144643775D02*
X320374889Y-146320439D01*
X244335479Y-161830617D02*
X252495664Y-179330194D01*
X252495664Y-179330194D02*
X254183401Y-179944480D01*
X254183401Y-179944480D02*
X254636554Y-179733171D01*
X222341805Y-161830619D02*
X244335479Y-161830617D01*
X221458140Y-161830618D02*
X222341805Y-161830619D01*
X285062719Y-160745529D02*
X285844562Y-162422199D01*
X215338143Y-167950617D02*
X221458140Y-161830618D01*
X320374889Y-146320439D02*
X320374889Y-146320441D01*
X268854099Y-171062175D02*
X269635941Y-172738845D01*
X357926936Y-136698787D02*
X358708781Y-138375452D01*
X285844562Y-162422199D02*
X285844563Y-162422198D01*
X301271335Y-150428880D02*
X302053177Y-152105547D01*
%TO.N,G7*%
X349876063Y-119433626D02*
X349876057Y-119433626D01*
X277011838Y-143480367D02*
X277793683Y-145157035D01*
X311542169Y-127378611D02*
X312324015Y-129055282D01*
X215338142Y-165410616D02*
X219418140Y-161330618D01*
X293220460Y-133163722D02*
X294002302Y-134840385D01*
X333392741Y-129161171D02*
X333392744Y-129161172D01*
X332610898Y-127484503D02*
X333392741Y-129161171D01*
X261585068Y-155473683D02*
X260803225Y-153797014D01*
X219418140Y-161330618D02*
X223108849Y-161330619D01*
X350657903Y-121110291D02*
X349876063Y-119433626D01*
X244655113Y-161332974D02*
X244655969Y-161330618D01*
X245223360Y-162551584D02*
X244655113Y-161332974D01*
X246585680Y-162468012D02*
X245887822Y-162793429D01*
X245887822Y-162793429D02*
X245223360Y-162551584D01*
X277793683Y-145157035D02*
X277793685Y-145157033D01*
X223108849Y-161330619D02*
X244655969Y-161330618D01*
%TO.N,G3*%
X341825183Y-102168464D02*
X341825179Y-102168463D01*
X324560016Y-110219340D02*
X325341859Y-111896008D01*
X238534797Y-145202846D02*
X237194979Y-148883968D01*
X241200144Y-159328351D02*
X241201200Y-159330619D01*
X325341859Y-111896008D02*
X325341857Y-111896009D01*
X268960964Y-126215204D02*
X269742806Y-127891871D01*
X303491288Y-110113447D02*
X304273134Y-111790115D01*
X215338144Y-155250618D02*
X219418145Y-159330617D01*
X237194979Y-148883968D02*
X241579393Y-158286373D01*
X241579393Y-158286373D02*
X241200144Y-159328351D01*
X252752345Y-136531848D02*
X253534189Y-138208519D01*
X285169579Y-115898555D02*
X285951425Y-117575225D01*
X342607023Y-103845130D02*
X341825183Y-102168464D01*
X219418145Y-159330617D02*
X241201200Y-159330619D01*
X269742806Y-127891871D02*
X269742810Y-127891874D01*
%TO.N,G2*%
X215338144Y-152710617D02*
X221458144Y-158830618D01*
X244701469Y-119266687D02*
X245483312Y-120943354D01*
X334556145Y-86579969D02*
X333774303Y-84903297D01*
X296222257Y-94524950D02*
X296222255Y-94524953D01*
X241038712Y-158309980D02*
X240849215Y-158830618D01*
X228902258Y-132283270D02*
X241038712Y-158309980D01*
X221458144Y-158830618D02*
X240849215Y-158830618D01*
X295440413Y-92848281D02*
X296222257Y-94524950D01*
X260910086Y-108950039D02*
X261691931Y-110626707D01*
X316509140Y-92954177D02*
X317290980Y-94630843D01*
X333774303Y-84903297D02*
X333774305Y-84903294D01*
X277118706Y-98633393D02*
X277900546Y-100310057D01*
X230483920Y-127937687D02*
X228902258Y-132283270D01*
%TO.N,G9*%
X310104056Y-169370714D02*
X309322215Y-167694049D01*
X309322215Y-167694049D02*
X309322213Y-167694046D01*
X233759313Y-205671915D02*
X250790290Y-217597133D01*
X252559056Y-217285246D02*
X250790290Y-217597133D01*
X293113598Y-178010695D02*
X293895440Y-179687359D01*
X275238254Y-189709991D02*
X273863439Y-188472100D01*
X215338143Y-170490619D02*
X215338141Y-203131914D01*
X215338141Y-203131914D02*
X217878143Y-205671914D01*
X327643923Y-161908937D02*
X328425766Y-163585602D01*
X217878143Y-205671914D02*
X233759313Y-205671915D01*
X254426222Y-214618658D02*
X252559056Y-217285246D01*
X328425766Y-163585602D02*
X328425765Y-163585607D01*
X255487338Y-213103223D02*
X254426222Y-214618658D01*
X293895440Y-179687359D02*
X293895445Y-179687359D01*
%TO.N,RST*%
X203151817Y-147630619D02*
X200098143Y-147630619D01*
X204468141Y-148946943D02*
X203151817Y-147630619D01*
X204468140Y-175345619D02*
X204468141Y-148946943D01*
%TD*%
%TA.AperFunction,Conductor*%
%TO.N,G18*%
G36*
X174162051Y-151345597D02*
G01*
X174529909Y-151683676D01*
X174533682Y-151691797D01*
X174532596Y-151697235D01*
X174434198Y-151908250D01*
X174427596Y-151914299D01*
X174422031Y-151914900D01*
X173951794Y-151851526D01*
X173944053Y-151847025D01*
X173941657Y-151839966D01*
X173940796Y-151554627D01*
X173944197Y-151546348D01*
X174145889Y-151345912D01*
X174154173Y-151342512D01*
X174162051Y-151345597D01*
G37*
%TD.AperFunction*%
%TD*%
%TA.AperFunction,Conductor*%
%TO.N,G8*%
G36*
X285711046Y-161833976D02*
G01*
X285802354Y-161933325D01*
X286049128Y-162201833D01*
X286052204Y-162210243D01*
X286048813Y-162217997D01*
X285848431Y-162419636D01*
X285840169Y-162423089D01*
X285840097Y-162423089D01*
X285554760Y-162422228D01*
X285546497Y-162418776D01*
X285543201Y-162412093D01*
X285479824Y-161941852D01*
X285482115Y-161933197D01*
X285486470Y-161929690D01*
X285697491Y-161831289D01*
X285706436Y-161830900D01*
X285711046Y-161833976D01*
G37*
%TD.AperFunction*%
%TD*%
%TA.AperFunction,Conductor*%
%TO.N,G7*%
G36*
X350524388Y-120522069D02*
G01*
X350623535Y-120629948D01*
X350862468Y-120889925D01*
X350865544Y-120898335D01*
X350862153Y-120906089D01*
X350661771Y-121107729D01*
X350653509Y-121111182D01*
X350653437Y-121111182D01*
X350368100Y-121110321D01*
X350359837Y-121106869D01*
X350356541Y-121100186D01*
X350293166Y-120629946D01*
X350295457Y-120621291D01*
X350299815Y-120617781D01*
X350510833Y-120519382D01*
X350519778Y-120518993D01*
X350524388Y-120522069D01*
G37*
%TD.AperFunction*%
%TD*%
%TA.AperFunction,Conductor*%
%TO.N,G28*%
G36*
X87975720Y-110248552D02*
G01*
X88186738Y-110346951D01*
X88192786Y-110353552D01*
X88193387Y-110359117D01*
X88130012Y-110829354D01*
X88125511Y-110837095D01*
X88118452Y-110839491D01*
X87833115Y-110840352D01*
X87824832Y-110836950D01*
X87624398Y-110635259D01*
X87620998Y-110626976D01*
X87624083Y-110619097D01*
X87962165Y-110251238D01*
X87970284Y-110247467D01*
X87975720Y-110248552D01*
G37*
%TD.AperFunction*%
%TD*%
%TA.AperFunction,Conductor*%
%TO.N,G9*%
G36*
X254160851Y-214508693D02*
G01*
X254424605Y-214616940D01*
X254428463Y-214619518D01*
X254628990Y-214821364D01*
X254632390Y-214829648D01*
X254628936Y-214837910D01*
X254627821Y-214838886D01*
X254194544Y-215171947D01*
X254185896Y-215174272D01*
X254180702Y-215172255D01*
X253989963Y-215038698D01*
X253985152Y-215031146D01*
X253985509Y-215025617D01*
X254145245Y-214516016D01*
X254150989Y-214509148D01*
X254159909Y-214508353D01*
X254160851Y-214508693D01*
G37*
%TD.AperFunction*%
%TD*%
%TA.AperFunction,Conductor*%
%TO.N,G2*%
G36*
X277767031Y-99721835D02*
G01*
X277866178Y-99829714D01*
X278105111Y-100089691D01*
X278108187Y-100098101D01*
X278104796Y-100105855D01*
X277904414Y-100307495D01*
X277896152Y-100310948D01*
X277896080Y-100310948D01*
X277610743Y-100310087D01*
X277602480Y-100306635D01*
X277599184Y-100299952D01*
X277535809Y-99829712D01*
X277538100Y-99821057D01*
X277542458Y-99817547D01*
X277753476Y-99719148D01*
X277762421Y-99718759D01*
X277767031Y-99721835D01*
G37*
%TD.AperFunction*%
%TD*%
%TA.AperFunction,Conductor*%
%TO.N,G28*%
G36*
X177048557Y-144611940D02*
G01*
X177259575Y-144710339D01*
X177265623Y-144716940D01*
X177266224Y-144722505D01*
X177202849Y-145192742D01*
X177198348Y-145200483D01*
X177191289Y-145202879D01*
X176905952Y-145203740D01*
X176897669Y-145200338D01*
X176697235Y-144998647D01*
X176693835Y-144990364D01*
X176696920Y-144982485D01*
X177035002Y-144614626D01*
X177043121Y-144610855D01*
X177048557Y-144611940D01*
G37*
%TD.AperFunction*%
%TD*%
%TA.AperFunction,Conductor*%
%TO.N,G29*%
G36*
X185099437Y-127346777D02*
G01*
X185251228Y-127417558D01*
X185310454Y-127445176D01*
X185316503Y-127451778D01*
X185317104Y-127457343D01*
X185253730Y-127927580D01*
X185249229Y-127935321D01*
X185242170Y-127937717D01*
X184956833Y-127938578D01*
X184948550Y-127935176D01*
X184748117Y-127733485D01*
X184744716Y-127725201D01*
X184747800Y-127717323D01*
X185085882Y-127349463D01*
X185094001Y-127345692D01*
X185099437Y-127346777D01*
G37*
%TD.AperFunction*%
%TD*%
%TA.AperFunction,Conductor*%
%TO.N,G2*%
G36*
X261558414Y-110038485D02*
G01*
X261649723Y-110137835D01*
X261896496Y-110406342D01*
X261899572Y-110414752D01*
X261896181Y-110422506D01*
X261695799Y-110624145D01*
X261687537Y-110627598D01*
X261687465Y-110627598D01*
X261402128Y-110626737D01*
X261393865Y-110623285D01*
X261390569Y-110616602D01*
X261327192Y-110146362D01*
X261329483Y-110137707D01*
X261333838Y-110134199D01*
X261544859Y-110035798D01*
X261553804Y-110035409D01*
X261558414Y-110038485D01*
G37*
%TD.AperFunction*%
%TD*%
%TA.AperFunction,Conductor*%
%TO.N,G19*%
G36*
X110207860Y-152723869D02*
G01*
X110418878Y-152822269D01*
X110424926Y-152828870D01*
X110425527Y-152834435D01*
X110362151Y-153304671D01*
X110357650Y-153312412D01*
X110350591Y-153314808D01*
X110065254Y-153315669D01*
X110056971Y-153312267D01*
X109856537Y-153110576D01*
X109853137Y-153102293D01*
X109856222Y-153094414D01*
X110194305Y-152726555D01*
X110202424Y-152722784D01*
X110207860Y-152723869D01*
G37*
%TD.AperFunction*%
%TD*%
%TA.AperFunction,Conductor*%
%TO.N,G6*%
G36*
X241310055Y-151388064D02*
G01*
X241511696Y-151588448D01*
X241515149Y-151596709D01*
X241515149Y-151596781D01*
X241514288Y-151882118D01*
X241510836Y-151890381D01*
X241504151Y-151893678D01*
X241033914Y-151957053D01*
X241025257Y-151954762D01*
X241021748Y-151950405D01*
X240923349Y-151739386D01*
X240922960Y-151730441D01*
X240926034Y-151725832D01*
X241293894Y-151387749D01*
X241302303Y-151384674D01*
X241310055Y-151388064D01*
G37*
%TD.AperFunction*%
%TD*%
%TA.AperFunction,Conductor*%
%TO.N,G26*%
G36*
X143796336Y-134786768D02*
G01*
X143996770Y-134988459D01*
X144000171Y-134996743D01*
X143997085Y-135004623D01*
X143659006Y-135372479D01*
X143650885Y-135376252D01*
X143645447Y-135375166D01*
X143602237Y-135355017D01*
X143434431Y-135276768D01*
X143428383Y-135270167D01*
X143427782Y-135264604D01*
X143491158Y-134794362D01*
X143495658Y-134786624D01*
X143502716Y-134784228D01*
X143788055Y-134783367D01*
X143796336Y-134786768D01*
G37*
%TD.AperFunction*%
%TD*%
%TA.AperFunction,Conductor*%
%TO.N,G28*%
G36*
X177190305Y-145202814D02*
G01*
X177198567Y-145206267D01*
X177201958Y-145214021D01*
X177223013Y-145713193D01*
X177219937Y-145721603D01*
X177215325Y-145724680D01*
X176996539Y-145804312D01*
X176987592Y-145803922D01*
X176983234Y-145800413D01*
X176695538Y-145423090D01*
X176693247Y-145414433D01*
X176696543Y-145407749D01*
X176897699Y-145205376D01*
X176905960Y-145201925D01*
X177190305Y-145202814D01*
G37*
%TD.AperFunction*%
%TD*%
%TA.AperFunction,Conductor*%
%TO.N,G19*%
G36*
X144738182Y-168825621D02*
G01*
X144949200Y-168924021D01*
X144955248Y-168930622D01*
X144955849Y-168936187D01*
X144892473Y-169406423D01*
X144887972Y-169414164D01*
X144880913Y-169416560D01*
X144595576Y-169417421D01*
X144587293Y-169414019D01*
X144386859Y-169212328D01*
X144383459Y-169204045D01*
X144386544Y-169196166D01*
X144724627Y-168828307D01*
X144732746Y-168824536D01*
X144738182Y-168825621D01*
G37*
%TD.AperFunction*%
%TD*%
%TA.AperFunction,Conductor*%
%TO.N,G28*%
G36*
X126309615Y-118193539D02*
G01*
X126520633Y-118291938D01*
X126526681Y-118298539D01*
X126527282Y-118304104D01*
X126463907Y-118774341D01*
X126459406Y-118782082D01*
X126452347Y-118784478D01*
X126167010Y-118785339D01*
X126158727Y-118781937D01*
X125958293Y-118580246D01*
X125954893Y-118571963D01*
X125957978Y-118564084D01*
X126296060Y-118196225D01*
X126304179Y-118192454D01*
X126309615Y-118193539D01*
G37*
%TD.AperFunction*%
%TD*%
%TA.AperFunction,Conductor*%
%TO.N,G20*%
G36*
X168997678Y-161877105D02*
G01*
X169149469Y-161947886D01*
X169208695Y-161975504D01*
X169214744Y-161982106D01*
X169215345Y-161987671D01*
X169151971Y-162457907D01*
X169147470Y-162465648D01*
X169140411Y-162468044D01*
X168855074Y-162468905D01*
X168846791Y-162465503D01*
X168646358Y-162263812D01*
X168642957Y-162255528D01*
X168646041Y-162247650D01*
X168984123Y-161879791D01*
X168992242Y-161876020D01*
X168997678Y-161877105D01*
G37*
%TD.AperFunction*%
%TD*%
%TA.AperFunction,Conductor*%
%TO.N,G28*%
G36*
X160839941Y-134295293D02*
G01*
X160991732Y-134366074D01*
X161050958Y-134393692D01*
X161057007Y-134400294D01*
X161057608Y-134405859D01*
X160994234Y-134876095D01*
X160989733Y-134883836D01*
X160982674Y-134886232D01*
X160697337Y-134887093D01*
X160689054Y-134883691D01*
X160488621Y-134682000D01*
X160485220Y-134673716D01*
X160488304Y-134665838D01*
X160826386Y-134297979D01*
X160834505Y-134294208D01*
X160839941Y-134295293D01*
G37*
%TD.AperFunction*%
%TD*%
%TA.AperFunction,Conductor*%
%TO.N,G20*%
G36*
X97190008Y-135564592D02*
G01*
X97401025Y-135662991D01*
X97407073Y-135669592D01*
X97407674Y-135675157D01*
X97344299Y-136145394D01*
X97339798Y-136153135D01*
X97332739Y-136155531D01*
X97047402Y-136156392D01*
X97039119Y-136152990D01*
X96838685Y-135951299D01*
X96835285Y-135943016D01*
X96838370Y-135935137D01*
X97176453Y-135567278D01*
X97184572Y-135563507D01*
X97190008Y-135564592D01*
G37*
%TD.AperFunction*%
%TD*%
%TA.AperFunction,Conductor*%
%TO.N,G3*%
G36*
X238538534Y-145205323D02*
G01*
X238538585Y-145205374D01*
X238739739Y-145407745D01*
X238743141Y-145416028D01*
X238740745Y-145423087D01*
X238453050Y-145800409D01*
X238445309Y-145804910D01*
X238439744Y-145804309D01*
X238220958Y-145724677D01*
X238214356Y-145718628D01*
X238213270Y-145713194D01*
X238234325Y-145214016D01*
X238238098Y-145205897D01*
X238245977Y-145202811D01*
X238530250Y-145201922D01*
X238538534Y-145205323D01*
G37*
%TD.AperFunction*%
%TD*%
%TA.AperFunction,Conductor*%
%TO.N,G7*%
G36*
X312190498Y-128467060D02*
G01*
X312281807Y-128566410D01*
X312528580Y-128834917D01*
X312531656Y-128843327D01*
X312528265Y-128851081D01*
X312327883Y-129052720D01*
X312319621Y-129056173D01*
X312319549Y-129056173D01*
X312034212Y-129055312D01*
X312025949Y-129051860D01*
X312022653Y-129045177D01*
X311959276Y-128574937D01*
X311961567Y-128566282D01*
X311965922Y-128562774D01*
X312176943Y-128464373D01*
X312185888Y-128463984D01*
X312190498Y-128467060D01*
G37*
%TD.AperFunction*%
%TD*%
%TA.AperFunction,Conductor*%
%TO.N,G2*%
G36*
X317157465Y-94042621D02*
G01*
X317256612Y-94150500D01*
X317495545Y-94410477D01*
X317498621Y-94418887D01*
X317495230Y-94426641D01*
X317294848Y-94628281D01*
X317286586Y-94631734D01*
X317286514Y-94631734D01*
X317001177Y-94630873D01*
X316992914Y-94627421D01*
X316989618Y-94620738D01*
X316926243Y-94150498D01*
X316928534Y-94141843D01*
X316932892Y-94138333D01*
X317143910Y-94039934D01*
X317152855Y-94039545D01*
X317157465Y-94042621D01*
G37*
%TD.AperFunction*%
%TD*%
%TA.AperFunction,Conductor*%
%TO.N,G7*%
G36*
X261451552Y-154885461D02*
G01*
X261624285Y-155073407D01*
X261789633Y-155253318D01*
X261792709Y-155261728D01*
X261789318Y-155269482D01*
X261588936Y-155471121D01*
X261580674Y-155474574D01*
X261580602Y-155474574D01*
X261295265Y-155473713D01*
X261287002Y-155470261D01*
X261283706Y-155463578D01*
X261220330Y-154993337D01*
X261222621Y-154984682D01*
X261226976Y-154981175D01*
X261437997Y-154882774D01*
X261446942Y-154882385D01*
X261451552Y-154885461D01*
G37*
%TD.AperFunction*%
%TD*%
%TA.AperFunction,Conductor*%
%TO.N,G10*%
G36*
X136687308Y-186090786D02*
G01*
X136898326Y-186189185D01*
X136904374Y-186195786D01*
X136904975Y-186201351D01*
X136841597Y-186671586D01*
X136837096Y-186679327D01*
X136830037Y-186681723D01*
X136544700Y-186682584D01*
X136536417Y-186679182D01*
X136335983Y-186477491D01*
X136332583Y-186469208D01*
X136335668Y-186461329D01*
X136673753Y-186093472D01*
X136681872Y-186089701D01*
X136687308Y-186090786D01*
G37*
%TD.AperFunction*%
%TD*%
%TA.AperFunction,Conductor*%
%TO.N,G7*%
G36*
X293868785Y-134252163D02*
G01*
X293960094Y-134351513D01*
X294206867Y-134620020D01*
X294209943Y-134628430D01*
X294206552Y-134636184D01*
X294006170Y-134837823D01*
X293997908Y-134841276D01*
X293997836Y-134841276D01*
X293712499Y-134840415D01*
X293704236Y-134836963D01*
X293700940Y-134830280D01*
X293637563Y-134360040D01*
X293639854Y-134351385D01*
X293644209Y-134347877D01*
X293855230Y-134249476D01*
X293864175Y-134249087D01*
X293868785Y-134252163D01*
G37*
%TD.AperFunction*%
%TD*%
%TA.AperFunction,Conductor*%
%TO.N,G8*%
G36*
X358575264Y-137787230D02*
G01*
X358666573Y-137886580D01*
X358913346Y-138155087D01*
X358916422Y-138163497D01*
X358913031Y-138171251D01*
X358712649Y-138372890D01*
X358704387Y-138376343D01*
X358704315Y-138376343D01*
X358418978Y-138375482D01*
X358410715Y-138372030D01*
X358407419Y-138365347D01*
X358344042Y-137895107D01*
X358346333Y-137886452D01*
X358350688Y-137882944D01*
X358561709Y-137784543D01*
X358570654Y-137784154D01*
X358575264Y-137787230D01*
G37*
%TD.AperFunction*%
%TD*%
%TA.AperFunction,Conductor*%
%TO.N,G27*%
G36*
X127730977Y-123876702D02*
G01*
X127941995Y-123975101D01*
X127948043Y-123981702D01*
X127948644Y-123987267D01*
X127885265Y-124457501D01*
X127880764Y-124465242D01*
X127873705Y-124467638D01*
X127588368Y-124468499D01*
X127580085Y-124465097D01*
X127379651Y-124263406D01*
X127376251Y-124255123D01*
X127379336Y-124247244D01*
X127717422Y-123879388D01*
X127725541Y-123875617D01*
X127730977Y-123876702D01*
G37*
%TD.AperFunction*%
%TD*%
%TA.AperFunction,Conductor*%
%TO.N,G29*%
G36*
X113291766Y-101034267D02*
G01*
X113502784Y-101132667D01*
X113508832Y-101139268D01*
X113509433Y-101144833D01*
X113446057Y-101615069D01*
X113441556Y-101622810D01*
X113434497Y-101625206D01*
X113149160Y-101626067D01*
X113140877Y-101622665D01*
X112940443Y-101420974D01*
X112937043Y-101412691D01*
X112940128Y-101404812D01*
X113278211Y-101036953D01*
X113286330Y-101033182D01*
X113291766Y-101034267D01*
G37*
%TD.AperFunction*%
%TD*%
%TA.AperFunction,Conductor*%
%TO.N,G7*%
G36*
X246381477Y-162263760D02*
G01*
X246583118Y-162464144D01*
X246586571Y-162472405D01*
X246586571Y-162472477D01*
X246585710Y-162757814D01*
X246582258Y-162766077D01*
X246575573Y-162769374D01*
X246105336Y-162832749D01*
X246096679Y-162830458D01*
X246093170Y-162826101D01*
X245994771Y-162615083D01*
X245994382Y-162606138D01*
X245997456Y-162601529D01*
X246365316Y-162263445D01*
X246373725Y-162260370D01*
X246381477Y-162263760D01*
G37*
%TD.AperFunction*%
%TD*%
%TA.AperFunction,Conductor*%
%TO.N,G9*%
G36*
X254671740Y-214065060D02*
G01*
X254862479Y-214198617D01*
X254867290Y-214206169D01*
X254866932Y-214211700D01*
X254707199Y-214721298D01*
X254701455Y-214728168D01*
X254692536Y-214728963D01*
X254691593Y-214728623D01*
X254427838Y-214620375D01*
X254423980Y-214617797D01*
X254223453Y-214415951D01*
X254220053Y-214407667D01*
X254223507Y-214399405D01*
X254224612Y-214398437D01*
X254657898Y-214065367D01*
X254666546Y-214063043D01*
X254671740Y-214065060D01*
G37*
%TD.AperFunction*%
%TD*%
%TA.AperFunction,Conductor*%
%TO.N,G19*%
G36*
X89139130Y-152829759D02*
G01*
X89350148Y-152928158D01*
X89356196Y-152934759D01*
X89356797Y-152940324D01*
X89293422Y-153410561D01*
X89288921Y-153418302D01*
X89281862Y-153420698D01*
X88996525Y-153421559D01*
X88988242Y-153418157D01*
X88787808Y-153216466D01*
X88784408Y-153208183D01*
X88787493Y-153200304D01*
X89125575Y-152832445D01*
X89133694Y-152828674D01*
X89139130Y-152829759D01*
G37*
%TD.AperFunction*%
%TD*%
%TA.AperFunction,Conductor*%
%TO.N,G10*%
G36*
X174841350Y-205016034D02*
G01*
X174847661Y-205022387D01*
X174848001Y-205023329D01*
X175007736Y-205532926D01*
X175006941Y-205541846D01*
X175003283Y-205546010D01*
X174812545Y-205679567D01*
X174803802Y-205681505D01*
X174798703Y-205679259D01*
X174365425Y-205346198D01*
X174360955Y-205338439D01*
X174363280Y-205329791D01*
X174364245Y-205328687D01*
X174564785Y-205126828D01*
X174568638Y-205124253D01*
X174832395Y-205016005D01*
X174841350Y-205016034D01*
G37*
%TD.AperFunction*%
%TD*%
%TA.AperFunction,Conductor*%
%TO.N,G3*%
G36*
X325208343Y-111307785D02*
G01*
X325546422Y-111675643D01*
X325549498Y-111684053D01*
X325546107Y-111691807D01*
X325345725Y-111893447D01*
X325337463Y-111896900D01*
X325337391Y-111896900D01*
X325052054Y-111896039D01*
X325043791Y-111892587D01*
X325040495Y-111885904D01*
X324977121Y-111415662D01*
X324979412Y-111407007D01*
X324983770Y-111403497D01*
X325194788Y-111305098D01*
X325203733Y-111304709D01*
X325208343Y-111307785D01*
G37*
%TD.AperFunction*%
%TD*%
%TA.AperFunction,Conductor*%
%TO.N,G20*%
G36*
X152789059Y-151560459D02*
G01*
X152940850Y-151631240D01*
X153000076Y-151658858D01*
X153006125Y-151665460D01*
X153006726Y-151671025D01*
X152943352Y-152141261D01*
X152938851Y-152149002D01*
X152931792Y-152151398D01*
X152646455Y-152152259D01*
X152638172Y-152148857D01*
X152437739Y-151947166D01*
X152434338Y-151938882D01*
X152437422Y-151931004D01*
X152775504Y-151563145D01*
X152783623Y-151559374D01*
X152789059Y-151560459D01*
G37*
%TD.AperFunction*%
%TD*%
%TA.AperFunction,Conductor*%
%TO.N,G20*%
G36*
X79924845Y-127513717D02*
G01*
X80135863Y-127612117D01*
X80141911Y-127618718D01*
X80142512Y-127624283D01*
X80079136Y-128094519D01*
X80074635Y-128102260D01*
X80067576Y-128104656D01*
X79782239Y-128105517D01*
X79773956Y-128102115D01*
X79573522Y-127900424D01*
X79570122Y-127892141D01*
X79573207Y-127884262D01*
X79911290Y-127516403D01*
X79919409Y-127512632D01*
X79924845Y-127513717D01*
G37*
%TD.AperFunction*%
%TD*%
%TA.AperFunction,Conductor*%
%TO.N,G8*%
G36*
X341310100Y-145838112D02*
G01*
X341482833Y-146026058D01*
X341648181Y-146205969D01*
X341651257Y-146214379D01*
X341647866Y-146222133D01*
X341447484Y-146423772D01*
X341439222Y-146427225D01*
X341439150Y-146427225D01*
X341153813Y-146426364D01*
X341145550Y-146422912D01*
X341142254Y-146416229D01*
X341078878Y-145945988D01*
X341081169Y-145937333D01*
X341085524Y-145933826D01*
X341296545Y-145835425D01*
X341305490Y-145835036D01*
X341310100Y-145838112D01*
G37*
%TD.AperFunction*%
%TD*%
%TA.AperFunction,Conductor*%
%TO.N,G20*%
G36*
X169070973Y-162263448D02*
G01*
X169438829Y-162601527D01*
X169442602Y-162609648D01*
X169441516Y-162615086D01*
X169343119Y-162826101D01*
X169336517Y-162832150D01*
X169330952Y-162832751D01*
X168860715Y-162769376D01*
X168852974Y-162764875D01*
X168850578Y-162757816D01*
X168849717Y-162472477D01*
X168853118Y-162464198D01*
X169054811Y-162263761D01*
X169063093Y-162260362D01*
X169070973Y-162263448D01*
G37*
%TD.AperFunction*%
%TD*%
%TA.AperFunction,Conductor*%
%TO.N,G29*%
G36*
X134360492Y-100928377D02*
G01*
X134571510Y-101026776D01*
X134577558Y-101033377D01*
X134578159Y-101038942D01*
X134514784Y-101509179D01*
X134510283Y-101516920D01*
X134503224Y-101519316D01*
X134217887Y-101520177D01*
X134209604Y-101516775D01*
X134009170Y-101315084D01*
X134005770Y-101306801D01*
X134008855Y-101298922D01*
X134346937Y-100931063D01*
X134355056Y-100927292D01*
X134360492Y-100928377D01*
G37*
%TD.AperFunction*%
%TD*%
%TA.AperFunction,Conductor*%
%TO.N,G4*%
G36*
X239404902Y-147063252D02*
G01*
X239404953Y-147063303D01*
X239606107Y-147265674D01*
X239609509Y-147273957D01*
X239607113Y-147281016D01*
X239319418Y-147658338D01*
X239311677Y-147662839D01*
X239306112Y-147662238D01*
X239087326Y-147582606D01*
X239080724Y-147576557D01*
X239079638Y-147571123D01*
X239100693Y-147071945D01*
X239104466Y-147063826D01*
X239112345Y-147060740D01*
X239396618Y-147059851D01*
X239404902Y-147063252D01*
G37*
%TD.AperFunction*%
%TD*%
%TA.AperFunction,Conductor*%
%TO.N,G10*%
G36*
X120478688Y-175774137D02*
G01*
X120630479Y-175844918D01*
X120689705Y-175872536D01*
X120695754Y-175879138D01*
X120696355Y-175884703D01*
X120632981Y-176354939D01*
X120628480Y-176362680D01*
X120621421Y-176365076D01*
X120336084Y-176365937D01*
X120327801Y-176362535D01*
X120127368Y-176160844D01*
X120123967Y-176152560D01*
X120127051Y-176144682D01*
X120465133Y-175776823D01*
X120473252Y-175773052D01*
X120478688Y-175774137D01*
G37*
%TD.AperFunction*%
%TD*%
%TA.AperFunction,Conductor*%
%TO.N,G19*%
G36*
X161020115Y-179528798D02*
G01*
X161299911Y-179791704D01*
X161302893Y-179796228D01*
X161381777Y-180012960D01*
X161381387Y-180021907D01*
X161374785Y-180027956D01*
X161370875Y-180028662D01*
X160811485Y-180033082D01*
X160803185Y-180029720D01*
X160799693Y-180021474D01*
X160799693Y-180021419D01*
X160798806Y-179738394D01*
X160802207Y-179730111D01*
X160802221Y-179730096D01*
X161003843Y-179529038D01*
X161012119Y-179525625D01*
X161020115Y-179528798D01*
G37*
%TD.AperFunction*%
%TD*%
%TA.AperFunction,Conductor*%
%TO.N,G29*%
G36*
X168890818Y-117030127D02*
G01*
X169101836Y-117128527D01*
X169107884Y-117135128D01*
X169108485Y-117140693D01*
X169045109Y-117610929D01*
X169040608Y-117618670D01*
X169033549Y-117621066D01*
X168748212Y-117621927D01*
X168739929Y-117618525D01*
X168539495Y-117416834D01*
X168536095Y-117408551D01*
X168539180Y-117400672D01*
X168877263Y-117032813D01*
X168885382Y-117029042D01*
X168890818Y-117030127D01*
G37*
%TD.AperFunction*%
%TD*%
%TA.AperFunction,Conductor*%
%TO.N,G19*%
G36*
X160946800Y-179142266D02*
G01*
X161157818Y-179240665D01*
X161163866Y-179247266D01*
X161164467Y-179252831D01*
X161101092Y-179723068D01*
X161096591Y-179730809D01*
X161089532Y-179733205D01*
X160804195Y-179734066D01*
X160795912Y-179730664D01*
X160595478Y-179528973D01*
X160592078Y-179520690D01*
X160595163Y-179512811D01*
X160933245Y-179144952D01*
X160941364Y-179141181D01*
X160946800Y-179142266D01*
G37*
%TD.AperFunction*%
%TD*%
%TA.AperFunction,Conductor*%
%TO.N,G7*%
G36*
X333259228Y-128572952D02*
G01*
X333597309Y-128940807D01*
X333600385Y-128949217D01*
X333596994Y-128956971D01*
X333396612Y-129158610D01*
X333388350Y-129162063D01*
X333388278Y-129162063D01*
X333102941Y-129161202D01*
X333094678Y-129157750D01*
X333091382Y-129151067D01*
X333028004Y-128680827D01*
X333030295Y-128672172D01*
X333034650Y-128668665D01*
X333245671Y-128570264D01*
X333254616Y-128569875D01*
X333259228Y-128572952D01*
G37*
%TD.AperFunction*%
%TD*%
%TA.AperFunction,Conductor*%
%TO.N,G19*%
G36*
X71873969Y-144778881D02*
G01*
X72084987Y-144877280D01*
X72091035Y-144883881D01*
X72091636Y-144889446D01*
X72028256Y-145359680D01*
X72023755Y-145367421D01*
X72016696Y-145369817D01*
X71731359Y-145370678D01*
X71723076Y-145367276D01*
X71522642Y-145165585D01*
X71519242Y-145157302D01*
X71522327Y-145149423D01*
X71860414Y-144781567D01*
X71868533Y-144777796D01*
X71873969Y-144778881D01*
G37*
%TD.AperFunction*%
%TD*%
%TA.AperFunction,Conductor*%
%TO.N,G8*%
G36*
X320241373Y-145732218D02*
G01*
X320340520Y-145840097D01*
X320579454Y-146100075D01*
X320582530Y-146108485D01*
X320579139Y-146116239D01*
X320378757Y-146317879D01*
X320370495Y-146321332D01*
X320370423Y-146321332D01*
X320085086Y-146320471D01*
X320076823Y-146317019D01*
X320073527Y-146310336D01*
X320010151Y-145840095D01*
X320012442Y-145831440D01*
X320016797Y-145827932D01*
X320227818Y-145729531D01*
X320236763Y-145729142D01*
X320241373Y-145732218D01*
G37*
%TD.AperFunction*%
%TD*%
%TA.AperFunction,Conductor*%
%TO.N,G9*%
G36*
X309970540Y-168782492D02*
G01*
X310143273Y-168970438D01*
X310308621Y-169150349D01*
X310311697Y-169158759D01*
X310308306Y-169166513D01*
X310107924Y-169368152D01*
X310099662Y-169371605D01*
X310099590Y-169371605D01*
X309814253Y-169370744D01*
X309805990Y-169367292D01*
X309802694Y-169360609D01*
X309739318Y-168890368D01*
X309741609Y-168881713D01*
X309745964Y-168878206D01*
X309956985Y-168779805D01*
X309965930Y-168779416D01*
X309970540Y-168782492D01*
G37*
%TD.AperFunction*%
%TD*%
%TA.AperFunction,Conductor*%
%TO.N,G2*%
G36*
X296088741Y-93936729D02*
G01*
X296426820Y-94304587D01*
X296429896Y-94312997D01*
X296426505Y-94320751D01*
X296226123Y-94522391D01*
X296217861Y-94525844D01*
X296217789Y-94525844D01*
X295932452Y-94524983D01*
X295924189Y-94521531D01*
X295920893Y-94514848D01*
X295857519Y-94044606D01*
X295859810Y-94035951D01*
X295864165Y-94032443D01*
X296075186Y-93934042D01*
X296084131Y-93933653D01*
X296088741Y-93936729D01*
G37*
%TD.AperFunction*%
%TD*%
%TA.AperFunction,Conductor*%
%TO.N,G8*%
G36*
X269502427Y-172150624D02*
G01*
X269686265Y-172350649D01*
X269840511Y-172518478D01*
X269843587Y-172526888D01*
X269840196Y-172534642D01*
X269639814Y-172736281D01*
X269631552Y-172739734D01*
X269631480Y-172739734D01*
X269346143Y-172738873D01*
X269337880Y-172735421D01*
X269334584Y-172728738D01*
X269271204Y-172258500D01*
X269273495Y-172249845D01*
X269277850Y-172246338D01*
X269488871Y-172147937D01*
X269497816Y-172147548D01*
X269502427Y-172150624D01*
G37*
%TD.AperFunction*%
%TD*%
%TA.AperFunction,Conductor*%
%TO.N,G10*%
G36*
X151638112Y-201522825D02*
G01*
X151793905Y-201695852D01*
X151796894Y-201704292D01*
X151795270Y-201709654D01*
X151554460Y-202115154D01*
X151547289Y-202120518D01*
X151539955Y-202120003D01*
X151275915Y-202011562D01*
X151269564Y-202005249D01*
X151269537Y-202005182D01*
X151236004Y-201923503D01*
X151161617Y-201742310D01*
X151161645Y-201733358D01*
X151167607Y-201727213D01*
X151624589Y-201519999D01*
X151633537Y-201519705D01*
X151638112Y-201522825D01*
G37*
%TD.AperFunction*%
%TD*%
%TA.AperFunction,Conductor*%
%TO.N,G28*%
G36*
X144631321Y-123978645D02*
G01*
X144842339Y-124077045D01*
X144848387Y-124083646D01*
X144848988Y-124089211D01*
X144785612Y-124559447D01*
X144781111Y-124567188D01*
X144774052Y-124569584D01*
X144488715Y-124570445D01*
X144480432Y-124567043D01*
X144279998Y-124365352D01*
X144276598Y-124357069D01*
X144279683Y-124349190D01*
X144617766Y-123981331D01*
X144625885Y-123977560D01*
X144631321Y-123978645D01*
G37*
%TD.AperFunction*%
%TD*%
%TA.AperFunction,Conductor*%
%TO.N,G20*%
G36*
X136580444Y-141243813D02*
G01*
X136791462Y-141342212D01*
X136797510Y-141348813D01*
X136798111Y-141354378D01*
X136734736Y-141824615D01*
X136730235Y-141832356D01*
X136723176Y-141834752D01*
X136437839Y-141835613D01*
X136429556Y-141832211D01*
X136229122Y-141630520D01*
X136225722Y-141622237D01*
X136228807Y-141614358D01*
X136566889Y-141246499D01*
X136575008Y-141242728D01*
X136580444Y-141243813D01*
G37*
%TD.AperFunction*%
%TD*%
%TA.AperFunction,Conductor*%
%TO.N,G2*%
G36*
X334422630Y-85991747D02*
G01*
X334521777Y-86099626D01*
X334760710Y-86359603D01*
X334763786Y-86368013D01*
X334760395Y-86375767D01*
X334560013Y-86577407D01*
X334551751Y-86580860D01*
X334551679Y-86580860D01*
X334266342Y-86579999D01*
X334258079Y-86576547D01*
X334254783Y-86569864D01*
X334191408Y-86099624D01*
X334193699Y-86090969D01*
X334198057Y-86087459D01*
X334409075Y-85989060D01*
X334418020Y-85988671D01*
X334422630Y-85991747D01*
G37*
%TD.AperFunction*%
%TD*%
%TA.AperFunction,Conductor*%
%TO.N,G29*%
G36*
X185241186Y-127937652D02*
G01*
X185249448Y-127941105D01*
X185252839Y-127948859D01*
X185273894Y-128448031D01*
X185270818Y-128456441D01*
X185266206Y-128459518D01*
X185047420Y-128539150D01*
X185038473Y-128538760D01*
X185034115Y-128535251D01*
X184746419Y-128157928D01*
X184744128Y-128149271D01*
X184747424Y-128142587D01*
X184948580Y-127940214D01*
X184956841Y-127936763D01*
X185241186Y-127937652D01*
G37*
%TD.AperFunction*%
%TD*%
%TA.AperFunction,Conductor*%
%TO.N,G9*%
G36*
X328292251Y-162997383D02*
G01*
X328630330Y-163365241D01*
X328633406Y-163373651D01*
X328630015Y-163381405D01*
X328429633Y-163583045D01*
X328421371Y-163586498D01*
X328421299Y-163586498D01*
X328135962Y-163585637D01*
X328127699Y-163582185D01*
X328124403Y-163575502D01*
X328061029Y-163105260D01*
X328063320Y-163096605D01*
X328067675Y-163093097D01*
X328278696Y-162994696D01*
X328287641Y-162994307D01*
X328292251Y-162997383D01*
G37*
%TD.AperFunction*%
%TD*%
%TA.AperFunction,Conductor*%
%TO.N,G10*%
G36*
X102156979Y-169989032D02*
G01*
X102308770Y-170059813D01*
X102367996Y-170087431D01*
X102374045Y-170094033D01*
X102374646Y-170099598D01*
X102311272Y-170569834D01*
X102306771Y-170577575D01*
X102299712Y-170579971D01*
X102014375Y-170580832D01*
X102006092Y-170577430D01*
X101805659Y-170375739D01*
X101802258Y-170367455D01*
X101805342Y-170359577D01*
X102143424Y-169991718D01*
X102151543Y-169987947D01*
X102156979Y-169989032D01*
G37*
%TD.AperFunction*%
%TD*%
%TA.AperFunction,Conductor*%
%TO.N,G5*%
G36*
X240461447Y-149329026D02*
G01*
X240461498Y-149329077D01*
X240662652Y-149531448D01*
X240666054Y-149539731D01*
X240663658Y-149546790D01*
X240375963Y-149924112D01*
X240368222Y-149928613D01*
X240362657Y-149928012D01*
X240143871Y-149848380D01*
X240137269Y-149842331D01*
X240136183Y-149836897D01*
X240157238Y-149337719D01*
X240161011Y-149329600D01*
X240168890Y-149326514D01*
X240453163Y-149325625D01*
X240461447Y-149329026D01*
G37*
%TD.AperFunction*%
%TD*%
%TA.AperFunction,Conductor*%
%TO.N,G29*%
G36*
X152682200Y-106713484D02*
G01*
X152893218Y-106811884D01*
X152899266Y-106818485D01*
X152899867Y-106824050D01*
X152836491Y-107294286D01*
X152831990Y-107302027D01*
X152824931Y-107304423D01*
X152539594Y-107305284D01*
X152531311Y-107301882D01*
X152330877Y-107100191D01*
X152327477Y-107091908D01*
X152330562Y-107084029D01*
X152668645Y-106716170D01*
X152676764Y-106712399D01*
X152682200Y-106713484D01*
G37*
%TD.AperFunction*%
%TD*%
%TA.AperFunction,Conductor*%
%TO.N,G18*%
G36*
X160004958Y-145103413D02*
G01*
X160205392Y-145305104D01*
X160208793Y-145313388D01*
X160205707Y-145321268D01*
X159867627Y-145689124D01*
X159859506Y-145692897D01*
X159854068Y-145691811D01*
X159825450Y-145678466D01*
X159643052Y-145593412D01*
X159637004Y-145586811D01*
X159636403Y-145581248D01*
X159699780Y-145111007D01*
X159704280Y-145103269D01*
X159711338Y-145100873D01*
X159996677Y-145100012D01*
X160004958Y-145103413D01*
G37*
%TD.AperFunction*%
%TD*%
%TA.AperFunction,Conductor*%
%TO.N,G2*%
G36*
X245349796Y-120355132D02*
G01*
X245522529Y-120543078D01*
X245687877Y-120722989D01*
X245690953Y-120731399D01*
X245687562Y-120739153D01*
X245487180Y-120940792D01*
X245478918Y-120944245D01*
X245478846Y-120944245D01*
X245193509Y-120943384D01*
X245185246Y-120939932D01*
X245181950Y-120933249D01*
X245118574Y-120463008D01*
X245120865Y-120454353D01*
X245125220Y-120450846D01*
X245336241Y-120352445D01*
X245345186Y-120352056D01*
X245349796Y-120355132D01*
G37*
%TD.AperFunction*%
%TD*%
%TA.AperFunction,Conductor*%
%TO.N,G26*%
G36*
X143939592Y-134193351D02*
G01*
X144150609Y-134291750D01*
X144156657Y-134298351D01*
X144157258Y-134303916D01*
X144093882Y-134774152D01*
X144089381Y-134781893D01*
X144082322Y-134784289D01*
X143796985Y-134785150D01*
X143788702Y-134781748D01*
X143588268Y-134580057D01*
X143584868Y-134571774D01*
X143587953Y-134563895D01*
X143926037Y-134196037D01*
X143934156Y-134192266D01*
X143939592Y-134193351D01*
G37*
%TD.AperFunction*%
%TD*%
%TA.AperFunction,Conductor*%
%TO.N,G26*%
G36*
X175267391Y-149326517D02*
G01*
X175275653Y-149329970D01*
X175279044Y-149337724D01*
X175300099Y-149836896D01*
X175297023Y-149845306D01*
X175292411Y-149848383D01*
X175073625Y-149928015D01*
X175064678Y-149927625D01*
X175060320Y-149924116D01*
X174772624Y-149546793D01*
X174770333Y-149538136D01*
X174773629Y-149531452D01*
X174974785Y-149329079D01*
X174983046Y-149325628D01*
X175267391Y-149326517D01*
G37*
%TD.AperFunction*%
%TD*%
%TA.AperFunction,Conductor*%
%TO.N,G3*%
G36*
X285817908Y-116987003D02*
G01*
X285909217Y-117086353D01*
X286155990Y-117354860D01*
X286159066Y-117363270D01*
X286155675Y-117371024D01*
X285955293Y-117572663D01*
X285947031Y-117576116D01*
X285946959Y-117576116D01*
X285661622Y-117575255D01*
X285653359Y-117571803D01*
X285650063Y-117565120D01*
X285586686Y-117094880D01*
X285588977Y-117086225D01*
X285593332Y-117082717D01*
X285804353Y-116984316D01*
X285813298Y-116983927D01*
X285817908Y-116987003D01*
G37*
%TD.AperFunction*%
%TD*%
%TA.AperFunction,Conductor*%
%TO.N,G7*%
G36*
X277660168Y-144568813D02*
G01*
X277998250Y-144936668D01*
X278001326Y-144945078D01*
X277997935Y-144952832D01*
X277797553Y-145154471D01*
X277789291Y-145157924D01*
X277789219Y-145157924D01*
X277503882Y-145157063D01*
X277495619Y-145153611D01*
X277492323Y-145146928D01*
X277428944Y-144676689D01*
X277431235Y-144668034D01*
X277435590Y-144664526D01*
X277646611Y-144566125D01*
X277655556Y-144565736D01*
X277660168Y-144568813D01*
G37*
%TD.AperFunction*%
%TD*%
%TA.AperFunction,Conductor*%
%TO.N,G20*%
G36*
X118258737Y-135458701D02*
G01*
X118469755Y-135557101D01*
X118475803Y-135563702D01*
X118476404Y-135569267D01*
X118413028Y-136039503D01*
X118408527Y-136047244D01*
X118401468Y-136049640D01*
X118116131Y-136050501D01*
X118107848Y-136047099D01*
X117907414Y-135845408D01*
X117904014Y-135837125D01*
X117907099Y-135829246D01*
X118245182Y-135461387D01*
X118253301Y-135457616D01*
X118258737Y-135458701D01*
G37*
%TD.AperFunction*%
%TD*%
%TA.AperFunction,Conductor*%
%TO.N,G28*%
G36*
X105240887Y-118299431D02*
G01*
X105451905Y-118397831D01*
X105457953Y-118404432D01*
X105458554Y-118409997D01*
X105395178Y-118880233D01*
X105390677Y-118887974D01*
X105383618Y-118890370D01*
X105098281Y-118891231D01*
X105089998Y-118887829D01*
X104889564Y-118686138D01*
X104886164Y-118677855D01*
X104889249Y-118669976D01*
X105227332Y-118302117D01*
X105235451Y-118298346D01*
X105240887Y-118299431D01*
G37*
%TD.AperFunction*%
%TD*%
%TA.AperFunction,Conductor*%
%TO.N,G3*%
G36*
X253400673Y-137620297D02*
G01*
X253573406Y-137808243D01*
X253738754Y-137988154D01*
X253741830Y-137996564D01*
X253738439Y-138004318D01*
X253538057Y-138205957D01*
X253529795Y-138209410D01*
X253529723Y-138209410D01*
X253244386Y-138208549D01*
X253236123Y-138205097D01*
X253232827Y-138198414D01*
X253169451Y-137728173D01*
X253171742Y-137719518D01*
X253176097Y-137716011D01*
X253387118Y-137617610D01*
X253396063Y-137617221D01*
X253400673Y-137620297D01*
G37*
%TD.AperFunction*%
%TD*%
%TA.AperFunction,Conductor*%
%TO.N,G8*%
G36*
X301919664Y-151517328D02*
G01*
X302103502Y-151717353D01*
X302257748Y-151885182D01*
X302260824Y-151893592D01*
X302257433Y-151901346D01*
X302057051Y-152102985D01*
X302048789Y-152106438D01*
X302048717Y-152106438D01*
X301763380Y-152105577D01*
X301755117Y-152102125D01*
X301751821Y-152095442D01*
X301688441Y-151625204D01*
X301690732Y-151616549D01*
X301695087Y-151613042D01*
X301906108Y-151514641D01*
X301915053Y-151514252D01*
X301919664Y-151517328D01*
G37*
%TD.AperFunction*%
%TD*%
%TA.AperFunction,Conductor*%
%TO.N,G9*%
G36*
X274885802Y-189220952D02*
G01*
X275273616Y-189396804D01*
X275342782Y-189428167D01*
X275348901Y-189434705D01*
X275348773Y-189443266D01*
X275240853Y-189706136D01*
X275234541Y-189712488D01*
X275234475Y-189712516D01*
X274970435Y-189820957D01*
X274961480Y-189820930D01*
X274955931Y-189816109D01*
X274715119Y-189410606D01*
X274713842Y-189401744D01*
X274716482Y-189396808D01*
X274872279Y-189223778D01*
X274880360Y-189219925D01*
X274885802Y-189220952D01*
G37*
%TD.AperFunction*%
%TD*%
%TA.AperFunction,Conductor*%
%TO.N,G3*%
G36*
X342473508Y-103256908D02*
G01*
X342572655Y-103364787D01*
X342811588Y-103624764D01*
X342814664Y-103633174D01*
X342811273Y-103640928D01*
X342610891Y-103842568D01*
X342602629Y-103846021D01*
X342602557Y-103846021D01*
X342317220Y-103845160D01*
X342308957Y-103841708D01*
X342305661Y-103835025D01*
X342242286Y-103364785D01*
X342244577Y-103356130D01*
X342248935Y-103352620D01*
X342459953Y-103254221D01*
X342468898Y-103253832D01*
X342473508Y-103256908D01*
G37*
%TD.AperFunction*%
%TD*%
%TA.AperFunction,Conductor*%
%TO.N,G3*%
G36*
X269609294Y-127303654D02*
G01*
X269947375Y-127671509D01*
X269950451Y-127679919D01*
X269947060Y-127687673D01*
X269746678Y-127889312D01*
X269738416Y-127892765D01*
X269738344Y-127892765D01*
X269453007Y-127891904D01*
X269444744Y-127888452D01*
X269441448Y-127881769D01*
X269378070Y-127411529D01*
X269380361Y-127402874D01*
X269384716Y-127399367D01*
X269595737Y-127300966D01*
X269604682Y-127300577D01*
X269609294Y-127303654D01*
G37*
%TD.AperFunction*%
%TD*%
%TA.AperFunction,Conductor*%
%TO.N,G8*%
G36*
X254432441Y-179529035D02*
G01*
X254557706Y-179653949D01*
X254634039Y-179730069D01*
X254637477Y-179738338D01*
X254637477Y-179738391D01*
X254636590Y-180021415D01*
X254633137Y-180029677D01*
X254624853Y-180033078D01*
X254624797Y-180033078D01*
X254065407Y-180028655D01*
X254057162Y-180025162D01*
X254053800Y-180016862D01*
X254054505Y-180012957D01*
X254133392Y-179796217D01*
X254136369Y-179791699D01*
X254416169Y-179528793D01*
X254424544Y-179525627D01*
X254432441Y-179529035D01*
G37*
%TD.AperFunction*%
%TD*%
%TA.AperFunction,Conductor*%
%TO.N,G27*%
G36*
X176323937Y-147060743D02*
G01*
X176332199Y-147064196D01*
X176335590Y-147071950D01*
X176356644Y-147571122D01*
X176353568Y-147579532D01*
X176348956Y-147582609D01*
X176130170Y-147662241D01*
X176121223Y-147661851D01*
X176116865Y-147658342D01*
X175829170Y-147281019D01*
X175826879Y-147272362D01*
X175830175Y-147265678D01*
X176031331Y-147063305D01*
X176039592Y-147059854D01*
X176323937Y-147060743D01*
G37*
%TD.AperFunction*%
%TD*%
%TA.AperFunction,Conductor*%
%TO.N,G10*%
G36*
X174335347Y-204572680D02*
G01*
X174768624Y-204905741D01*
X174773094Y-204913500D01*
X174770769Y-204922148D01*
X174769793Y-204923263D01*
X174569266Y-205125109D01*
X174565408Y-205127687D01*
X174301654Y-205235934D01*
X174292699Y-205235905D01*
X174286388Y-205229552D01*
X174286048Y-205228610D01*
X174190336Y-204923263D01*
X174126313Y-204719011D01*
X174127108Y-204710093D01*
X174130764Y-204705930D01*
X174321506Y-204572371D01*
X174330248Y-204570434D01*
X174335347Y-204572680D01*
G37*
%TD.AperFunction*%
%TD*%
%TA.AperFunction,Conductor*%
%TO.N,G27*%
G36*
X127587719Y-124470117D02*
G01*
X127704462Y-124587593D01*
X127788153Y-124671809D01*
X127791554Y-124680093D01*
X127788468Y-124687973D01*
X127450390Y-125055829D01*
X127442269Y-125059602D01*
X127436831Y-125058516D01*
X127225816Y-124960118D01*
X127219767Y-124953516D01*
X127219166Y-124947954D01*
X127282541Y-124477711D01*
X127287041Y-124469973D01*
X127294099Y-124467577D01*
X127579438Y-124466716D01*
X127587719Y-124470117D01*
G37*
%TD.AperFunction*%
%TD*%
%TA.AperFunction,Conductor*%
%TO.N,G18*%
G36*
X160148212Y-144509995D02*
G01*
X160359230Y-144608394D01*
X160365278Y-144614995D01*
X160365879Y-144620560D01*
X160302504Y-145090797D01*
X160298003Y-145098538D01*
X160290944Y-145100934D01*
X160005607Y-145101795D01*
X159997324Y-145098393D01*
X159796890Y-144896702D01*
X159793490Y-144888419D01*
X159796575Y-144880540D01*
X160134657Y-144512681D01*
X160142776Y-144508910D01*
X160148212Y-144509995D01*
G37*
%TD.AperFunction*%
%TD*%
%TA.AperFunction,Conductor*%
%TO.N,G3*%
G36*
X304139617Y-111201893D02*
G01*
X304230926Y-111301243D01*
X304477699Y-111569750D01*
X304480775Y-111578160D01*
X304477384Y-111585914D01*
X304277002Y-111787553D01*
X304268740Y-111791006D01*
X304268668Y-111791006D01*
X303983331Y-111790145D01*
X303975068Y-111786693D01*
X303971772Y-111780010D01*
X303908395Y-111309770D01*
X303910686Y-111301115D01*
X303915041Y-111297607D01*
X304126062Y-111199206D01*
X304135007Y-111198817D01*
X304139617Y-111201893D01*
G37*
%TD.AperFunction*%
%TD*%
%TA.AperFunction,Conductor*%
%TO.N,G9*%
G36*
X293761925Y-179099139D02*
G01*
X293945954Y-179299372D01*
X294100010Y-179466994D01*
X294103086Y-179475404D01*
X294099695Y-179483158D01*
X293899313Y-179684797D01*
X293891051Y-179688250D01*
X293890979Y-179688250D01*
X293605642Y-179687389D01*
X293597379Y-179683937D01*
X293594083Y-179677254D01*
X293530703Y-179207015D01*
X293532994Y-179198360D01*
X293537349Y-179194853D01*
X293748369Y-179096452D01*
X293757314Y-179096063D01*
X293761925Y-179099139D01*
G37*
%TD.AperFunction*%
%TD*%
%TA.AperFunction,Conductor*%
%TO.N,G19*%
G36*
X128529567Y-158508972D02*
G01*
X128740585Y-158607371D01*
X128746633Y-158613972D01*
X128747234Y-158619537D01*
X128683859Y-159089774D01*
X128679358Y-159097515D01*
X128672299Y-159099911D01*
X128386962Y-159100772D01*
X128378679Y-159097370D01*
X128178245Y-158895679D01*
X128174845Y-158887396D01*
X128177930Y-158879517D01*
X128516012Y-158511658D01*
X128524131Y-158507887D01*
X128529567Y-158508972D01*
G37*
%TD.AperFunction*%
%TD*%
%TA.AperFunction,Conductor*%
%TO.N,G29*%
G36*
X96026601Y-92983389D02*
G01*
X96237619Y-93081789D01*
X96243667Y-93088390D01*
X96244268Y-93093955D01*
X96180892Y-93564191D01*
X96176391Y-93571932D01*
X96169332Y-93574328D01*
X95883995Y-93575189D01*
X95875712Y-93571787D01*
X95675278Y-93370096D01*
X95671878Y-93361813D01*
X95674963Y-93353934D01*
X96013046Y-92986075D01*
X96021165Y-92982304D01*
X96026601Y-92983389D01*
G37*
%TD.AperFunction*%
%TD*%
%TA.AperFunction,Conductor*%
%TO.N,G2*%
G36*
X230487657Y-127940164D02*
G01*
X230487708Y-127940215D01*
X230688862Y-128142586D01*
X230692264Y-128150869D01*
X230689868Y-128157928D01*
X230402173Y-128535250D01*
X230394432Y-128539751D01*
X230388867Y-128539150D01*
X230170081Y-128459518D01*
X230163479Y-128453469D01*
X230162393Y-128448035D01*
X230183448Y-127948857D01*
X230187221Y-127940738D01*
X230195100Y-127937652D01*
X230479373Y-127936763D01*
X230487657Y-127940164D01*
G37*
%TD.AperFunction*%
%TD*%
M02*
