%TF.GenerationSoftware,KiCad,Pcbnew,8.0.7*%
%TF.CreationDate,2024-12-25T21:28:18-05:00*%
%TF.ProjectId,mx,6d782e6b-6963-4616-945f-706362585858,v1.0.0*%
%TF.SameCoordinates,Original*%
%TF.FileFunction,Legend,Bot*%
%TF.FilePolarity,Positive*%
%FSLAX46Y46*%
G04 Gerber Fmt 4.6, Leading zero omitted, Abs format (unit mm)*
G04 Created by KiCad (PCBNEW 8.0.7) date 2024-12-25 21:28:18*
%MOMM*%
%LPD*%
G01*
G04 APERTURE LIST*
%ADD10C,0.150000*%
%ADD11C,0.400000*%
%ADD12C,0.100000*%
G04 APERTURE END LIST*
D10*
X211680050Y-200497466D02*
X211680050Y-199497466D01*
X211680050Y-199878418D02*
X211603860Y-199830799D01*
X211603860Y-199830799D02*
X211451479Y-199830799D01*
X211451479Y-199830799D02*
X211375288Y-199878418D01*
X211375288Y-199878418D02*
X211337193Y-199926037D01*
X211337193Y-199926037D02*
X211299098Y-200021275D01*
X211299098Y-200021275D02*
X211299098Y-200306989D01*
X211299098Y-200306989D02*
X211337193Y-200402227D01*
X211337193Y-200402227D02*
X211375288Y-200449847D01*
X211375288Y-200449847D02*
X211451479Y-200497466D01*
X211451479Y-200497466D02*
X211603860Y-200497466D01*
X211603860Y-200497466D02*
X211680050Y-200449847D01*
X211032431Y-199830799D02*
X210841955Y-200497466D01*
X210651478Y-199830799D02*
X210841955Y-200497466D01*
X210841955Y-200497466D02*
X210918145Y-200735561D01*
X210918145Y-200735561D02*
X210956240Y-200783180D01*
X210956240Y-200783180D02*
X211032431Y-200830799D01*
X209241954Y-200021275D02*
X209280049Y-199973656D01*
X209280049Y-199973656D02*
X209356240Y-199926037D01*
X209356240Y-199926037D02*
X209432430Y-199926037D01*
X209432430Y-199926037D02*
X209508621Y-199973656D01*
X209508621Y-199973656D02*
X209546716Y-200021275D01*
X209546716Y-200021275D02*
X209584811Y-200116513D01*
X209584811Y-200116513D02*
X209584811Y-200211751D01*
X209584811Y-200211751D02*
X209546716Y-200306989D01*
X209546716Y-200306989D02*
X209508621Y-200354608D01*
X209508621Y-200354608D02*
X209432430Y-200402227D01*
X209432430Y-200402227D02*
X209356240Y-200402227D01*
X209356240Y-200402227D02*
X209280049Y-200354608D01*
X209280049Y-200354608D02*
X209241954Y-200306989D01*
X209241954Y-199926037D02*
X209241954Y-200306989D01*
X209241954Y-200306989D02*
X209203859Y-200354608D01*
X209203859Y-200354608D02*
X209165764Y-200354608D01*
X209165764Y-200354608D02*
X209089573Y-200306989D01*
X209089573Y-200306989D02*
X209051478Y-200211751D01*
X209051478Y-200211751D02*
X209051478Y-199973656D01*
X209051478Y-199973656D02*
X209127669Y-199830799D01*
X209127669Y-199830799D02*
X209241954Y-199735561D01*
X209241954Y-199735561D02*
X209394335Y-199687942D01*
X209394335Y-199687942D02*
X209546716Y-199735561D01*
X209546716Y-199735561D02*
X209661002Y-199830799D01*
X209661002Y-199830799D02*
X209737192Y-199973656D01*
X209737192Y-199973656D02*
X209775288Y-200164132D01*
X209775288Y-200164132D02*
X209737192Y-200354608D01*
X209737192Y-200354608D02*
X209661002Y-200497466D01*
X209661002Y-200497466D02*
X209546716Y-200592704D01*
X209546716Y-200592704D02*
X209394335Y-200640323D01*
X209394335Y-200640323D02*
X209241954Y-200592704D01*
X209241954Y-200592704D02*
X209127669Y-200497466D01*
X208708621Y-199830799D02*
X208708621Y-200687942D01*
X208708621Y-200687942D02*
X208746717Y-200783180D01*
X208746717Y-200783180D02*
X208822907Y-200830799D01*
X208822907Y-200830799D02*
X208861002Y-200830799D01*
X208708621Y-199497466D02*
X208746717Y-199545085D01*
X208746717Y-199545085D02*
X208708621Y-199592704D01*
X208708621Y-199592704D02*
X208670526Y-199545085D01*
X208670526Y-199545085D02*
X208708621Y-199497466D01*
X208708621Y-199497466D02*
X208708621Y-199592704D01*
X207984812Y-200497466D02*
X207984812Y-199973656D01*
X207984812Y-199973656D02*
X208022907Y-199878418D01*
X208022907Y-199878418D02*
X208099098Y-199830799D01*
X208099098Y-199830799D02*
X208251479Y-199830799D01*
X208251479Y-199830799D02*
X208327669Y-199878418D01*
X207984812Y-200449847D02*
X208061003Y-200497466D01*
X208061003Y-200497466D02*
X208251479Y-200497466D01*
X208251479Y-200497466D02*
X208327669Y-200449847D01*
X208327669Y-200449847D02*
X208365765Y-200354608D01*
X208365765Y-200354608D02*
X208365765Y-200259370D01*
X208365765Y-200259370D02*
X208327669Y-200164132D01*
X208327669Y-200164132D02*
X208251479Y-200116513D01*
X208251479Y-200116513D02*
X208061003Y-200116513D01*
X208061003Y-200116513D02*
X207984812Y-200068894D01*
X207680050Y-199830799D02*
X207489574Y-200497466D01*
X207299097Y-199830799D02*
X207489574Y-200497466D01*
X207489574Y-200497466D02*
X207565764Y-200735561D01*
X207565764Y-200735561D02*
X207603859Y-200783180D01*
X207603859Y-200783180D02*
X207680050Y-200830799D01*
X206994335Y-200497466D02*
X206994335Y-199497466D01*
X206994335Y-199878418D02*
X206918145Y-199830799D01*
X206918145Y-199830799D02*
X206765764Y-199830799D01*
X206765764Y-199830799D02*
X206689573Y-199878418D01*
X206689573Y-199878418D02*
X206651478Y-199926037D01*
X206651478Y-199926037D02*
X206613383Y-200021275D01*
X206613383Y-200021275D02*
X206613383Y-200306989D01*
X206613383Y-200306989D02*
X206651478Y-200402227D01*
X206651478Y-200402227D02*
X206689573Y-200449847D01*
X206689573Y-200449847D02*
X206765764Y-200497466D01*
X206765764Y-200497466D02*
X206918145Y-200497466D01*
X206918145Y-200497466D02*
X206994335Y-200449847D01*
X205927668Y-199830799D02*
X205927668Y-200497466D01*
X206270525Y-199830799D02*
X206270525Y-200354608D01*
X206270525Y-200354608D02*
X206232430Y-200449847D01*
X206232430Y-200449847D02*
X206156240Y-200497466D01*
X206156240Y-200497466D02*
X206041954Y-200497466D01*
X206041954Y-200497466D02*
X205965763Y-200449847D01*
X205965763Y-200449847D02*
X205927668Y-200402227D01*
X205546715Y-200497466D02*
X205546715Y-199830799D01*
X205546715Y-199497466D02*
X205584811Y-199545085D01*
X205584811Y-199545085D02*
X205546715Y-199592704D01*
X205546715Y-199592704D02*
X205508620Y-199545085D01*
X205508620Y-199545085D02*
X205546715Y-199497466D01*
X205546715Y-199497466D02*
X205546715Y-199592704D01*
X205051478Y-200497466D02*
X205127668Y-200449847D01*
X205127668Y-200449847D02*
X205165763Y-200354608D01*
X205165763Y-200354608D02*
X205165763Y-199497466D01*
X204403858Y-200497466D02*
X204403858Y-199497466D01*
X204403858Y-200449847D02*
X204480049Y-200497466D01*
X204480049Y-200497466D02*
X204632430Y-200497466D01*
X204632430Y-200497466D02*
X204708620Y-200449847D01*
X204708620Y-200449847D02*
X204746715Y-200402227D01*
X204746715Y-200402227D02*
X204784811Y-200306989D01*
X204784811Y-200306989D02*
X204784811Y-200021275D01*
X204784811Y-200021275D02*
X204746715Y-199926037D01*
X204746715Y-199926037D02*
X204708620Y-199878418D01*
X204708620Y-199878418D02*
X204632430Y-199830799D01*
X204632430Y-199830799D02*
X204480049Y-199830799D01*
X204480049Y-199830799D02*
X204403858Y-199878418D01*
X204061001Y-200449847D02*
X203984810Y-200497466D01*
X203984810Y-200497466D02*
X203832429Y-200497466D01*
X203832429Y-200497466D02*
X203756239Y-200449847D01*
X203756239Y-200449847D02*
X203718143Y-200354608D01*
X203718143Y-200354608D02*
X203718143Y-200306989D01*
X203718143Y-200306989D02*
X203756239Y-200211751D01*
X203756239Y-200211751D02*
X203832429Y-200164132D01*
X203832429Y-200164132D02*
X203946715Y-200164132D01*
X203946715Y-200164132D02*
X204022905Y-200116513D01*
X204022905Y-200116513D02*
X204061001Y-200021275D01*
X204061001Y-200021275D02*
X204061001Y-199973656D01*
X204061001Y-199973656D02*
X204022905Y-199878418D01*
X204022905Y-199878418D02*
X203946715Y-199830799D01*
X203946715Y-199830799D02*
X203832429Y-199830799D01*
X203832429Y-199830799D02*
X203756239Y-199878418D01*
X213765765Y-199040494D02*
X213813384Y-199088114D01*
X213813384Y-199088114D02*
X213956241Y-199135733D01*
X213956241Y-199135733D02*
X214051479Y-199135733D01*
X214051479Y-199135733D02*
X214194336Y-199088114D01*
X214194336Y-199088114D02*
X214289574Y-198992875D01*
X214289574Y-198992875D02*
X214337193Y-198897637D01*
X214337193Y-198897637D02*
X214384812Y-198707161D01*
X214384812Y-198707161D02*
X214384812Y-198564304D01*
X214384812Y-198564304D02*
X214337193Y-198373828D01*
X214337193Y-198373828D02*
X214289574Y-198278590D01*
X214289574Y-198278590D02*
X214194336Y-198183352D01*
X214194336Y-198183352D02*
X214051479Y-198135733D01*
X214051479Y-198135733D02*
X213956241Y-198135733D01*
X213956241Y-198135733D02*
X213813384Y-198183352D01*
X213813384Y-198183352D02*
X213765765Y-198230971D01*
X213337193Y-199135733D02*
X213337193Y-198135733D01*
X212908622Y-199135733D02*
X212908622Y-198611923D01*
X212908622Y-198611923D02*
X212956241Y-198516685D01*
X212956241Y-198516685D02*
X213051479Y-198469066D01*
X213051479Y-198469066D02*
X213194336Y-198469066D01*
X213194336Y-198469066D02*
X213289574Y-198516685D01*
X213289574Y-198516685D02*
X213337193Y-198564304D01*
X212051479Y-199088114D02*
X212146717Y-199135733D01*
X212146717Y-199135733D02*
X212337193Y-199135733D01*
X212337193Y-199135733D02*
X212432431Y-199088114D01*
X212432431Y-199088114D02*
X212480050Y-198992875D01*
X212480050Y-198992875D02*
X212480050Y-198611923D01*
X212480050Y-198611923D02*
X212432431Y-198516685D01*
X212432431Y-198516685D02*
X212337193Y-198469066D01*
X212337193Y-198469066D02*
X212146717Y-198469066D01*
X212146717Y-198469066D02*
X212051479Y-198516685D01*
X212051479Y-198516685D02*
X212003860Y-198611923D01*
X212003860Y-198611923D02*
X212003860Y-198707161D01*
X212003860Y-198707161D02*
X212480050Y-198802399D01*
X211575288Y-199135733D02*
X211575288Y-198469066D01*
X211575288Y-198659542D02*
X211527669Y-198564304D01*
X211527669Y-198564304D02*
X211480050Y-198516685D01*
X211480050Y-198516685D02*
X211384812Y-198469066D01*
X211384812Y-198469066D02*
X211289574Y-198469066D01*
X210956240Y-199135733D02*
X210956240Y-198469066D01*
X210956240Y-198659542D02*
X210908621Y-198564304D01*
X210908621Y-198564304D02*
X210861002Y-198516685D01*
X210861002Y-198516685D02*
X210765764Y-198469066D01*
X210765764Y-198469066D02*
X210670526Y-198469066D01*
X210432430Y-198469066D02*
X210194335Y-199135733D01*
X209956240Y-198469066D02*
X210194335Y-199135733D01*
X210194335Y-199135733D02*
X210289573Y-199373828D01*
X210289573Y-199373828D02*
X210337192Y-199421447D01*
X210337192Y-199421447D02*
X210432430Y-199469066D01*
X208813382Y-199135733D02*
X208813382Y-198135733D01*
X208813382Y-198135733D02*
X208480049Y-198850018D01*
X208480049Y-198850018D02*
X208146716Y-198135733D01*
X208146716Y-198135733D02*
X208146716Y-199135733D01*
X207765763Y-198135733D02*
X207099097Y-199135733D01*
X207099097Y-198135733D02*
X207765763Y-199135733D01*
X206051477Y-198469066D02*
X205813382Y-199135733D01*
X205813382Y-199135733D02*
X205575287Y-198469066D01*
X204813382Y-199088114D02*
X204908620Y-199135733D01*
X204908620Y-199135733D02*
X205099096Y-199135733D01*
X205099096Y-199135733D02*
X205194334Y-199088114D01*
X205194334Y-199088114D02*
X205241953Y-198992875D01*
X205241953Y-198992875D02*
X205241953Y-198611923D01*
X205241953Y-198611923D02*
X205194334Y-198516685D01*
X205194334Y-198516685D02*
X205099096Y-198469066D01*
X205099096Y-198469066D02*
X204908620Y-198469066D01*
X204908620Y-198469066D02*
X204813382Y-198516685D01*
X204813382Y-198516685D02*
X204765763Y-198611923D01*
X204765763Y-198611923D02*
X204765763Y-198707161D01*
X204765763Y-198707161D02*
X205241953Y-198802399D01*
X204337191Y-199135733D02*
X204337191Y-198469066D01*
X204337191Y-198659542D02*
X204289572Y-198564304D01*
X204289572Y-198564304D02*
X204241953Y-198516685D01*
X204241953Y-198516685D02*
X204146715Y-198469066D01*
X204146715Y-198469066D02*
X204051477Y-198469066D01*
X203765762Y-199088114D02*
X203670524Y-199135733D01*
X203670524Y-199135733D02*
X203480048Y-199135733D01*
X203480048Y-199135733D02*
X203384810Y-199088114D01*
X203384810Y-199088114D02*
X203337191Y-198992875D01*
X203337191Y-198992875D02*
X203337191Y-198945256D01*
X203337191Y-198945256D02*
X203384810Y-198850018D01*
X203384810Y-198850018D02*
X203480048Y-198802399D01*
X203480048Y-198802399D02*
X203622905Y-198802399D01*
X203622905Y-198802399D02*
X203718143Y-198754780D01*
X203718143Y-198754780D02*
X203765762Y-198659542D01*
X203765762Y-198659542D02*
X203765762Y-198611923D01*
X203765762Y-198611923D02*
X203718143Y-198516685D01*
X203718143Y-198516685D02*
X203622905Y-198469066D01*
X203622905Y-198469066D02*
X203480048Y-198469066D01*
X203480048Y-198469066D02*
X203384810Y-198516685D01*
X202908619Y-199135733D02*
X202908619Y-198469066D01*
X202908619Y-198135733D02*
X202956238Y-198183352D01*
X202956238Y-198183352D02*
X202908619Y-198230971D01*
X202908619Y-198230971D02*
X202861000Y-198183352D01*
X202861000Y-198183352D02*
X202908619Y-198135733D01*
X202908619Y-198135733D02*
X202908619Y-198230971D01*
X202289572Y-199135733D02*
X202384810Y-199088114D01*
X202384810Y-199088114D02*
X202432429Y-199040494D01*
X202432429Y-199040494D02*
X202480048Y-198945256D01*
X202480048Y-198945256D02*
X202480048Y-198659542D01*
X202480048Y-198659542D02*
X202432429Y-198564304D01*
X202432429Y-198564304D02*
X202384810Y-198516685D01*
X202384810Y-198516685D02*
X202289572Y-198469066D01*
X202289572Y-198469066D02*
X202146715Y-198469066D01*
X202146715Y-198469066D02*
X202051477Y-198516685D01*
X202051477Y-198516685D02*
X202003858Y-198564304D01*
X202003858Y-198564304D02*
X201956239Y-198659542D01*
X201956239Y-198659542D02*
X201956239Y-198945256D01*
X201956239Y-198945256D02*
X202003858Y-199040494D01*
X202003858Y-199040494D02*
X202051477Y-199088114D01*
X202051477Y-199088114D02*
X202146715Y-199135733D01*
X202146715Y-199135733D02*
X202289572Y-199135733D01*
X201527667Y-198469066D02*
X201527667Y-199135733D01*
X201527667Y-198564304D02*
X201480048Y-198516685D01*
X201480048Y-198516685D02*
X201384810Y-198469066D01*
X201384810Y-198469066D02*
X201241953Y-198469066D01*
X201241953Y-198469066D02*
X201146715Y-198516685D01*
X201146715Y-198516685D02*
X201099096Y-198611923D01*
X201099096Y-198611923D02*
X201099096Y-199135733D01*
X220251480Y-202700375D02*
X220251480Y-201700375D01*
X219908623Y-202700375D02*
X219908623Y-202176565D01*
X219908623Y-202176565D02*
X219946718Y-202081327D01*
X219946718Y-202081327D02*
X220022909Y-202033708D01*
X220022909Y-202033708D02*
X220137195Y-202033708D01*
X220137195Y-202033708D02*
X220213385Y-202081327D01*
X220213385Y-202081327D02*
X220251480Y-202128946D01*
X219641956Y-202033708D02*
X219337194Y-202033708D01*
X219527670Y-201700375D02*
X219527670Y-202557517D01*
X219527670Y-202557517D02*
X219489575Y-202652756D01*
X219489575Y-202652756D02*
X219413385Y-202700375D01*
X219413385Y-202700375D02*
X219337194Y-202700375D01*
X219184813Y-202033708D02*
X218880051Y-202033708D01*
X219070527Y-201700375D02*
X219070527Y-202557517D01*
X219070527Y-202557517D02*
X219032432Y-202652756D01*
X219032432Y-202652756D02*
X218956242Y-202700375D01*
X218956242Y-202700375D02*
X218880051Y-202700375D01*
X218613384Y-202033708D02*
X218613384Y-203033708D01*
X218613384Y-202081327D02*
X218537194Y-202033708D01*
X218537194Y-202033708D02*
X218384813Y-202033708D01*
X218384813Y-202033708D02*
X218308622Y-202081327D01*
X218308622Y-202081327D02*
X218270527Y-202128946D01*
X218270527Y-202128946D02*
X218232432Y-202224184D01*
X218232432Y-202224184D02*
X218232432Y-202509898D01*
X218232432Y-202509898D02*
X218270527Y-202605136D01*
X218270527Y-202605136D02*
X218308622Y-202652756D01*
X218308622Y-202652756D02*
X218384813Y-202700375D01*
X218384813Y-202700375D02*
X218537194Y-202700375D01*
X218537194Y-202700375D02*
X218613384Y-202652756D01*
X217927670Y-202652756D02*
X217851479Y-202700375D01*
X217851479Y-202700375D02*
X217699098Y-202700375D01*
X217699098Y-202700375D02*
X217622908Y-202652756D01*
X217622908Y-202652756D02*
X217584812Y-202557517D01*
X217584812Y-202557517D02*
X217584812Y-202509898D01*
X217584812Y-202509898D02*
X217622908Y-202414660D01*
X217622908Y-202414660D02*
X217699098Y-202367041D01*
X217699098Y-202367041D02*
X217813384Y-202367041D01*
X217813384Y-202367041D02*
X217889574Y-202319422D01*
X217889574Y-202319422D02*
X217927670Y-202224184D01*
X217927670Y-202224184D02*
X217927670Y-202176565D01*
X217927670Y-202176565D02*
X217889574Y-202081327D01*
X217889574Y-202081327D02*
X217813384Y-202033708D01*
X217813384Y-202033708D02*
X217699098Y-202033708D01*
X217699098Y-202033708D02*
X217622908Y-202081327D01*
X217241955Y-202605136D02*
X217203860Y-202652756D01*
X217203860Y-202652756D02*
X217241955Y-202700375D01*
X217241955Y-202700375D02*
X217280051Y-202652756D01*
X217280051Y-202652756D02*
X217241955Y-202605136D01*
X217241955Y-202605136D02*
X217241955Y-202700375D01*
X217241955Y-202081327D02*
X217203860Y-202128946D01*
X217203860Y-202128946D02*
X217241955Y-202176565D01*
X217241955Y-202176565D02*
X217280051Y-202128946D01*
X217280051Y-202128946D02*
X217241955Y-202081327D01*
X217241955Y-202081327D02*
X217241955Y-202176565D01*
X216289575Y-201652756D02*
X216975289Y-202938470D01*
X215451480Y-201652756D02*
X216137194Y-202938470D01*
X214841956Y-202033708D02*
X214841956Y-202843232D01*
X214841956Y-202843232D02*
X214880051Y-202938470D01*
X214880051Y-202938470D02*
X214918147Y-202986089D01*
X214918147Y-202986089D02*
X214994337Y-203033708D01*
X214994337Y-203033708D02*
X215108623Y-203033708D01*
X215108623Y-203033708D02*
X215184813Y-202986089D01*
X214841956Y-202652756D02*
X214918147Y-202700375D01*
X214918147Y-202700375D02*
X215070528Y-202700375D01*
X215070528Y-202700375D02*
X215146718Y-202652756D01*
X215146718Y-202652756D02*
X215184813Y-202605136D01*
X215184813Y-202605136D02*
X215222909Y-202509898D01*
X215222909Y-202509898D02*
X215222909Y-202224184D01*
X215222909Y-202224184D02*
X215184813Y-202128946D01*
X215184813Y-202128946D02*
X215146718Y-202081327D01*
X215146718Y-202081327D02*
X215070528Y-202033708D01*
X215070528Y-202033708D02*
X214918147Y-202033708D01*
X214918147Y-202033708D02*
X214841956Y-202081327D01*
X214461003Y-202700375D02*
X214461003Y-202033708D01*
X214461003Y-201700375D02*
X214499099Y-201747994D01*
X214499099Y-201747994D02*
X214461003Y-201795613D01*
X214461003Y-201795613D02*
X214422908Y-201747994D01*
X214422908Y-201747994D02*
X214461003Y-201700375D01*
X214461003Y-201700375D02*
X214461003Y-201795613D01*
X214194337Y-202033708D02*
X213889575Y-202033708D01*
X214080051Y-201700375D02*
X214080051Y-202557517D01*
X214080051Y-202557517D02*
X214041956Y-202652756D01*
X214041956Y-202652756D02*
X213965766Y-202700375D01*
X213965766Y-202700375D02*
X213889575Y-202700375D01*
X213622908Y-202700375D02*
X213622908Y-201700375D01*
X213280051Y-202700375D02*
X213280051Y-202176565D01*
X213280051Y-202176565D02*
X213318146Y-202081327D01*
X213318146Y-202081327D02*
X213394337Y-202033708D01*
X213394337Y-202033708D02*
X213508623Y-202033708D01*
X213508623Y-202033708D02*
X213584813Y-202081327D01*
X213584813Y-202081327D02*
X213622908Y-202128946D01*
X212556241Y-202033708D02*
X212556241Y-202700375D01*
X212899098Y-202033708D02*
X212899098Y-202557517D01*
X212899098Y-202557517D02*
X212861003Y-202652756D01*
X212861003Y-202652756D02*
X212784813Y-202700375D01*
X212784813Y-202700375D02*
X212670527Y-202700375D01*
X212670527Y-202700375D02*
X212594336Y-202652756D01*
X212594336Y-202652756D02*
X212556241Y-202605136D01*
X212175288Y-202700375D02*
X212175288Y-201700375D01*
X212175288Y-202081327D02*
X212099098Y-202033708D01*
X212099098Y-202033708D02*
X211946717Y-202033708D01*
X211946717Y-202033708D02*
X211870526Y-202081327D01*
X211870526Y-202081327D02*
X211832431Y-202128946D01*
X211832431Y-202128946D02*
X211794336Y-202224184D01*
X211794336Y-202224184D02*
X211794336Y-202509898D01*
X211794336Y-202509898D02*
X211832431Y-202605136D01*
X211832431Y-202605136D02*
X211870526Y-202652756D01*
X211870526Y-202652756D02*
X211946717Y-202700375D01*
X211946717Y-202700375D02*
X212099098Y-202700375D01*
X212099098Y-202700375D02*
X212175288Y-202652756D01*
X211451478Y-202605136D02*
X211413383Y-202652756D01*
X211413383Y-202652756D02*
X211451478Y-202700375D01*
X211451478Y-202700375D02*
X211489574Y-202652756D01*
X211489574Y-202652756D02*
X211451478Y-202605136D01*
X211451478Y-202605136D02*
X211451478Y-202700375D01*
X210727669Y-202652756D02*
X210803860Y-202700375D01*
X210803860Y-202700375D02*
X210956241Y-202700375D01*
X210956241Y-202700375D02*
X211032431Y-202652756D01*
X211032431Y-202652756D02*
X211070526Y-202605136D01*
X211070526Y-202605136D02*
X211108622Y-202509898D01*
X211108622Y-202509898D02*
X211108622Y-202224184D01*
X211108622Y-202224184D02*
X211070526Y-202128946D01*
X211070526Y-202128946D02*
X211032431Y-202081327D01*
X211032431Y-202081327D02*
X210956241Y-202033708D01*
X210956241Y-202033708D02*
X210803860Y-202033708D01*
X210803860Y-202033708D02*
X210727669Y-202081327D01*
X210270527Y-202700375D02*
X210346717Y-202652756D01*
X210346717Y-202652756D02*
X210384812Y-202605136D01*
X210384812Y-202605136D02*
X210422908Y-202509898D01*
X210422908Y-202509898D02*
X210422908Y-202224184D01*
X210422908Y-202224184D02*
X210384812Y-202128946D01*
X210384812Y-202128946D02*
X210346717Y-202081327D01*
X210346717Y-202081327D02*
X210270527Y-202033708D01*
X210270527Y-202033708D02*
X210156241Y-202033708D01*
X210156241Y-202033708D02*
X210080050Y-202081327D01*
X210080050Y-202081327D02*
X210041955Y-202128946D01*
X210041955Y-202128946D02*
X210003860Y-202224184D01*
X210003860Y-202224184D02*
X210003860Y-202509898D01*
X210003860Y-202509898D02*
X210041955Y-202605136D01*
X210041955Y-202605136D02*
X210080050Y-202652756D01*
X210080050Y-202652756D02*
X210156241Y-202700375D01*
X210156241Y-202700375D02*
X210270527Y-202700375D01*
X209661002Y-202700375D02*
X209661002Y-202033708D01*
X209661002Y-202128946D02*
X209622907Y-202081327D01*
X209622907Y-202081327D02*
X209546717Y-202033708D01*
X209546717Y-202033708D02*
X209432431Y-202033708D01*
X209432431Y-202033708D02*
X209356240Y-202081327D01*
X209356240Y-202081327D02*
X209318145Y-202176565D01*
X209318145Y-202176565D02*
X209318145Y-202700375D01*
X209318145Y-202176565D02*
X209280050Y-202081327D01*
X209280050Y-202081327D02*
X209203859Y-202033708D01*
X209203859Y-202033708D02*
X209089574Y-202033708D01*
X209089574Y-202033708D02*
X209013383Y-202081327D01*
X209013383Y-202081327D02*
X208975288Y-202176565D01*
X208975288Y-202176565D02*
X208975288Y-202700375D01*
X208022907Y-201652756D02*
X208708621Y-202938470D01*
X207756240Y-202033708D02*
X207756240Y-202890851D01*
X207756240Y-202890851D02*
X207794336Y-202986089D01*
X207794336Y-202986089D02*
X207870526Y-203033708D01*
X207870526Y-203033708D02*
X207908621Y-203033708D01*
X207756240Y-201700375D02*
X207794336Y-201747994D01*
X207794336Y-201747994D02*
X207756240Y-201795613D01*
X207756240Y-201795613D02*
X207718145Y-201747994D01*
X207718145Y-201747994D02*
X207756240Y-201700375D01*
X207756240Y-201700375D02*
X207756240Y-201795613D01*
X207032431Y-202700375D02*
X207032431Y-202176565D01*
X207032431Y-202176565D02*
X207070526Y-202081327D01*
X207070526Y-202081327D02*
X207146717Y-202033708D01*
X207146717Y-202033708D02*
X207299098Y-202033708D01*
X207299098Y-202033708D02*
X207375288Y-202081327D01*
X207032431Y-202652756D02*
X207108622Y-202700375D01*
X207108622Y-202700375D02*
X207299098Y-202700375D01*
X207299098Y-202700375D02*
X207375288Y-202652756D01*
X207375288Y-202652756D02*
X207413384Y-202557517D01*
X207413384Y-202557517D02*
X207413384Y-202462279D01*
X207413384Y-202462279D02*
X207375288Y-202367041D01*
X207375288Y-202367041D02*
X207299098Y-202319422D01*
X207299098Y-202319422D02*
X207108622Y-202319422D01*
X207108622Y-202319422D02*
X207032431Y-202271803D01*
X206727669Y-202033708D02*
X206537193Y-202700375D01*
X206346716Y-202033708D02*
X206537193Y-202700375D01*
X206537193Y-202700375D02*
X206613383Y-202938470D01*
X206613383Y-202938470D02*
X206651478Y-202986089D01*
X206651478Y-202986089D02*
X206727669Y-203033708D01*
X206041954Y-202700375D02*
X206041954Y-201700375D01*
X206041954Y-202081327D02*
X205965764Y-202033708D01*
X205965764Y-202033708D02*
X205813383Y-202033708D01*
X205813383Y-202033708D02*
X205737192Y-202081327D01*
X205737192Y-202081327D02*
X205699097Y-202128946D01*
X205699097Y-202128946D02*
X205661002Y-202224184D01*
X205661002Y-202224184D02*
X205661002Y-202509898D01*
X205661002Y-202509898D02*
X205699097Y-202605136D01*
X205699097Y-202605136D02*
X205737192Y-202652756D01*
X205737192Y-202652756D02*
X205813383Y-202700375D01*
X205813383Y-202700375D02*
X205965764Y-202700375D01*
X205965764Y-202700375D02*
X206041954Y-202652756D01*
X204975287Y-202033708D02*
X204975287Y-202700375D01*
X205318144Y-202033708D02*
X205318144Y-202557517D01*
X205318144Y-202557517D02*
X205280049Y-202652756D01*
X205280049Y-202652756D02*
X205203859Y-202700375D01*
X205203859Y-202700375D02*
X205089573Y-202700375D01*
X205089573Y-202700375D02*
X205013382Y-202652756D01*
X205013382Y-202652756D02*
X204975287Y-202605136D01*
X204594334Y-202700375D02*
X204594334Y-202033708D01*
X204594334Y-201700375D02*
X204632430Y-201747994D01*
X204632430Y-201747994D02*
X204594334Y-201795613D01*
X204594334Y-201795613D02*
X204556239Y-201747994D01*
X204556239Y-201747994D02*
X204594334Y-201700375D01*
X204594334Y-201700375D02*
X204594334Y-201795613D01*
X204099097Y-202700375D02*
X204175287Y-202652756D01*
X204175287Y-202652756D02*
X204213382Y-202557517D01*
X204213382Y-202557517D02*
X204213382Y-201700375D01*
X203451477Y-202700375D02*
X203451477Y-201700375D01*
X203451477Y-202652756D02*
X203527668Y-202700375D01*
X203527668Y-202700375D02*
X203680049Y-202700375D01*
X203680049Y-202700375D02*
X203756239Y-202652756D01*
X203756239Y-202652756D02*
X203794334Y-202605136D01*
X203794334Y-202605136D02*
X203832430Y-202509898D01*
X203832430Y-202509898D02*
X203832430Y-202224184D01*
X203832430Y-202224184D02*
X203794334Y-202128946D01*
X203794334Y-202128946D02*
X203756239Y-202081327D01*
X203756239Y-202081327D02*
X203680049Y-202033708D01*
X203680049Y-202033708D02*
X203527668Y-202033708D01*
X203527668Y-202033708D02*
X203451477Y-202081327D01*
X203108620Y-202652756D02*
X203032429Y-202700375D01*
X203032429Y-202700375D02*
X202880048Y-202700375D01*
X202880048Y-202700375D02*
X202803858Y-202652756D01*
X202803858Y-202652756D02*
X202765762Y-202557517D01*
X202765762Y-202557517D02*
X202765762Y-202509898D01*
X202765762Y-202509898D02*
X202803858Y-202414660D01*
X202803858Y-202414660D02*
X202880048Y-202367041D01*
X202880048Y-202367041D02*
X202994334Y-202367041D01*
X202994334Y-202367041D02*
X203070524Y-202319422D01*
X203070524Y-202319422D02*
X203108620Y-202224184D01*
X203108620Y-202224184D02*
X203108620Y-202176565D01*
X203108620Y-202176565D02*
X203070524Y-202081327D01*
X203070524Y-202081327D02*
X202994334Y-202033708D01*
X202994334Y-202033708D02*
X202880048Y-202033708D01*
X202880048Y-202033708D02*
X202803858Y-202081327D01*
X202461001Y-201795613D02*
X202422905Y-201747994D01*
X202422905Y-201747994D02*
X202346715Y-201700375D01*
X202346715Y-201700375D02*
X202156239Y-201700375D01*
X202156239Y-201700375D02*
X202080048Y-201747994D01*
X202080048Y-201747994D02*
X202041953Y-201795613D01*
X202041953Y-201795613D02*
X202003858Y-201890851D01*
X202003858Y-201890851D02*
X202003858Y-201986089D01*
X202003858Y-201986089D02*
X202041953Y-202128946D01*
X202041953Y-202128946D02*
X202499096Y-202700375D01*
X202499096Y-202700375D02*
X202003858Y-202700375D01*
X201699096Y-201795613D02*
X201661000Y-201747994D01*
X201661000Y-201747994D02*
X201584810Y-201700375D01*
X201584810Y-201700375D02*
X201394334Y-201700375D01*
X201394334Y-201700375D02*
X201318143Y-201747994D01*
X201318143Y-201747994D02*
X201280048Y-201795613D01*
X201280048Y-201795613D02*
X201241953Y-201890851D01*
X201241953Y-201890851D02*
X201241953Y-201986089D01*
X201241953Y-201986089D02*
X201280048Y-202128946D01*
X201280048Y-202128946D02*
X201737191Y-202700375D01*
X201737191Y-202700375D02*
X201241953Y-202700375D01*
X200937191Y-201795613D02*
X200899095Y-201747994D01*
X200899095Y-201747994D02*
X200822905Y-201700375D01*
X200822905Y-201700375D02*
X200632429Y-201700375D01*
X200632429Y-201700375D02*
X200556238Y-201747994D01*
X200556238Y-201747994D02*
X200518143Y-201795613D01*
X200518143Y-201795613D02*
X200480048Y-201890851D01*
X200480048Y-201890851D02*
X200480048Y-201986089D01*
X200480048Y-201986089D02*
X200518143Y-202128946D01*
X200518143Y-202128946D02*
X200975286Y-202700375D01*
X200975286Y-202700375D02*
X200480048Y-202700375D01*
X199565762Y-201652756D02*
X200251476Y-202938470D01*
X199299095Y-202700375D02*
X199299095Y-201700375D01*
X199299095Y-201700375D02*
X199032429Y-202414660D01*
X199032429Y-202414660D02*
X198765762Y-201700375D01*
X198765762Y-201700375D02*
X198765762Y-202700375D01*
X198041952Y-202700375D02*
X198041952Y-202176565D01*
X198041952Y-202176565D02*
X198080047Y-202081327D01*
X198080047Y-202081327D02*
X198156238Y-202033708D01*
X198156238Y-202033708D02*
X198308619Y-202033708D01*
X198308619Y-202033708D02*
X198384809Y-202081327D01*
X198041952Y-202652756D02*
X198118143Y-202700375D01*
X198118143Y-202700375D02*
X198308619Y-202700375D01*
X198308619Y-202700375D02*
X198384809Y-202652756D01*
X198384809Y-202652756D02*
X198422905Y-202557517D01*
X198422905Y-202557517D02*
X198422905Y-202462279D01*
X198422905Y-202462279D02*
X198384809Y-202367041D01*
X198384809Y-202367041D02*
X198308619Y-202319422D01*
X198308619Y-202319422D02*
X198118143Y-202319422D01*
X198118143Y-202319422D02*
X198041952Y-202271803D01*
X197660999Y-202033708D02*
X197660999Y-202700375D01*
X197660999Y-202128946D02*
X197622904Y-202081327D01*
X197622904Y-202081327D02*
X197546714Y-202033708D01*
X197546714Y-202033708D02*
X197432428Y-202033708D01*
X197432428Y-202033708D02*
X197356237Y-202081327D01*
X197356237Y-202081327D02*
X197318142Y-202176565D01*
X197318142Y-202176565D02*
X197318142Y-202700375D01*
X196937189Y-202700375D02*
X196937189Y-201700375D01*
X196860999Y-202319422D02*
X196632427Y-202700375D01*
X196632427Y-202033708D02*
X196937189Y-202414660D01*
X196289570Y-202700375D02*
X196289570Y-202033708D01*
X196289570Y-201700375D02*
X196327666Y-201747994D01*
X196327666Y-201747994D02*
X196289570Y-201795613D01*
X196289570Y-201795613D02*
X196251475Y-201747994D01*
X196251475Y-201747994D02*
X196289570Y-201700375D01*
X196289570Y-201700375D02*
X196289570Y-201795613D01*
X195908618Y-202033708D02*
X195908618Y-202700375D01*
X195908618Y-202128946D02*
X195870523Y-202081327D01*
X195870523Y-202081327D02*
X195794333Y-202033708D01*
X195794333Y-202033708D02*
X195680047Y-202033708D01*
X195680047Y-202033708D02*
X195603856Y-202081327D01*
X195603856Y-202081327D02*
X195565761Y-202176565D01*
X195565761Y-202176565D02*
X195565761Y-202700375D01*
X195184808Y-202700375D02*
X195184808Y-202033708D01*
X195184808Y-201700375D02*
X195222904Y-201747994D01*
X195222904Y-201747994D02*
X195184808Y-201795613D01*
X195184808Y-201795613D02*
X195146713Y-201747994D01*
X195146713Y-201747994D02*
X195184808Y-201700375D01*
X195184808Y-201700375D02*
X195184808Y-201795613D01*
X217051478Y-196386333D02*
X215908621Y-196386333D01*
X216480050Y-197386333D02*
X216480050Y-196386333D01*
X215241954Y-197386333D02*
X215241954Y-196386333D01*
X215241954Y-196862523D02*
X214099097Y-196862523D01*
X214099097Y-197386333D02*
X214099097Y-196386333D01*
X213146716Y-196862523D02*
X212480049Y-196862523D01*
X212194335Y-197386333D02*
X213146716Y-197386333D01*
X213146716Y-197386333D02*
X213146716Y-196386333D01*
X213146716Y-196386333D02*
X212194335Y-196386333D01*
X209813382Y-197386333D02*
X209813382Y-196386333D01*
X209813382Y-196386333D02*
X209146715Y-197100618D01*
X209146715Y-197100618D02*
X208480049Y-196386333D01*
X208480049Y-196386333D02*
X208480049Y-197386333D01*
X207622906Y-197100618D02*
X206670525Y-197100618D01*
X207813382Y-197386333D02*
X207146716Y-196386333D01*
X207146716Y-196386333D02*
X206480049Y-197386333D01*
X205813382Y-197386333D02*
X205813382Y-196386333D01*
X205813382Y-196386333D02*
X204670525Y-197386333D01*
X204670525Y-197386333D02*
X204670525Y-196386333D01*
X203718144Y-197386333D02*
X203718144Y-196386333D01*
X202575287Y-197386333D02*
X203432430Y-196814904D01*
X202575287Y-196386333D02*
X203718144Y-196957761D01*
X201718144Y-197386333D02*
X201718144Y-196386333D01*
X200765763Y-197386333D02*
X200765763Y-196386333D01*
X200765763Y-196386333D02*
X199622906Y-197386333D01*
X199622906Y-197386333D02*
X199622906Y-196386333D01*
X198670525Y-197386333D02*
X198670525Y-196386333D01*
D11*
%TO.C,S19*%
X129741040Y-171980875D02*
X130034062Y-172062346D01*
X130215325Y-172146869D01*
X134157764Y-173985258D01*
X133695693Y-174266313D01*
X133390699Y-174565442D01*
X133239730Y-174770889D01*
X133091813Y-175088094D01*
X132965029Y-175359989D01*
X132886610Y-175764774D01*
X132874642Y-176145374D01*
X132904932Y-176435345D01*
X133028908Y-176879338D01*
X133170961Y-177166253D01*
X133473146Y-177583008D01*
X131615215Y-176716641D01*
X131140930Y-176550648D01*
X130781459Y-176493362D01*
X130470360Y-176568967D01*
X130615223Y-176139999D01*
X130666400Y-175557006D01*
X130536318Y-174889489D01*
X130370080Y-174536128D01*
X130043712Y-174052927D01*
X129563319Y-173663407D01*
X129110166Y-173452099D01*
X128660063Y-173352552D01*
X128391227Y-173337527D01*
X127877734Y-173373927D01*
X127784050Y-173219903D01*
X127690366Y-173065880D01*
X127859413Y-172703359D01*
X128119091Y-172383094D01*
X128360691Y-172219911D01*
X128581161Y-172102042D01*
X128780500Y-172029489D01*
X129025152Y-171978066D01*
X129203361Y-171950831D01*
X129426887Y-171944721D01*
X129741040Y-171980875D01*
G36*
X129741040Y-171980875D02*
G01*
X130034062Y-172062346D01*
X130215325Y-172146869D01*
X134157764Y-173985258D01*
X133695693Y-174266313D01*
X133390699Y-174565442D01*
X133239730Y-174770889D01*
X133091813Y-175088094D01*
X132965029Y-175359989D01*
X132886610Y-175764774D01*
X132874642Y-176145374D01*
X132904932Y-176435345D01*
X133028908Y-176879338D01*
X133170961Y-177166253D01*
X133473146Y-177583008D01*
X131615215Y-176716641D01*
X131140930Y-176550648D01*
X130781459Y-176493362D01*
X130470360Y-176568967D01*
X130615223Y-176139999D01*
X130666400Y-175557006D01*
X130536318Y-174889489D01*
X130370080Y-174536128D01*
X130043712Y-174052927D01*
X129563319Y-173663407D01*
X129110166Y-173452099D01*
X128660063Y-173352552D01*
X128391227Y-173337527D01*
X127877734Y-173373927D01*
X127784050Y-173219903D01*
X127690366Y-173065880D01*
X127859413Y-172703359D01*
X128119091Y-172383094D01*
X128360691Y-172219911D01*
X128581161Y-172102042D01*
X128780500Y-172029489D01*
X129025152Y-171978066D01*
X129203361Y-171950831D01*
X129426887Y-171944721D01*
X129741040Y-171980875D01*
G37*
D12*
%TO.C,D27*%
X186114562Y-125445336D02*
X186283609Y-125082815D01*
X186174657Y-124369980D02*
X186899704Y-124708075D01*
X186283609Y-125082815D02*
X185785140Y-124850373D01*
X186283609Y-125082815D02*
X186174657Y-124369980D01*
X186283609Y-125082815D02*
X186782078Y-125315253D01*
X186537181Y-124539028D02*
X186748490Y-124085874D01*
X186899704Y-124708075D02*
X186283609Y-125082815D01*
D11*
%TO.C,S27*%
X178153170Y-113236868D02*
X178446192Y-113318339D01*
X178627455Y-113402862D01*
X182569894Y-115241251D01*
X182107823Y-115522306D01*
X181802829Y-115821435D01*
X181651860Y-116026882D01*
X181503943Y-116344087D01*
X181377159Y-116615982D01*
X181298740Y-117020767D01*
X181286772Y-117401367D01*
X181317062Y-117691338D01*
X181441038Y-118135331D01*
X181583091Y-118422246D01*
X181885276Y-118839001D01*
X180027345Y-117972634D01*
X179553060Y-117806641D01*
X179193589Y-117749355D01*
X178882490Y-117824960D01*
X179027353Y-117395992D01*
X179078530Y-116812999D01*
X178948448Y-116145482D01*
X178782210Y-115792121D01*
X178455842Y-115308920D01*
X177975449Y-114919400D01*
X177522296Y-114708092D01*
X177072193Y-114608545D01*
X176803357Y-114593520D01*
X176289864Y-114629920D01*
X176196180Y-114475896D01*
X176102496Y-114321873D01*
X176271543Y-113959352D01*
X176531221Y-113639087D01*
X176772821Y-113475904D01*
X176993291Y-113358035D01*
X177192630Y-113285482D01*
X177437282Y-113234059D01*
X177615491Y-113206824D01*
X177839017Y-113200714D01*
X178153170Y-113236868D01*
G36*
X178153170Y-113236868D02*
G01*
X178446192Y-113318339D01*
X178627455Y-113402862D01*
X182569894Y-115241251D01*
X182107823Y-115522306D01*
X181802829Y-115821435D01*
X181651860Y-116026882D01*
X181503943Y-116344087D01*
X181377159Y-116615982D01*
X181298740Y-117020767D01*
X181286772Y-117401367D01*
X181317062Y-117691338D01*
X181441038Y-118135331D01*
X181583091Y-118422246D01*
X181885276Y-118839001D01*
X180027345Y-117972634D01*
X179553060Y-117806641D01*
X179193589Y-117749355D01*
X178882490Y-117824960D01*
X179027353Y-117395992D01*
X179078530Y-116812999D01*
X178948448Y-116145482D01*
X178782210Y-115792121D01*
X178455842Y-115308920D01*
X177975449Y-114919400D01*
X177522296Y-114708092D01*
X177072193Y-114608545D01*
X176803357Y-114593520D01*
X176289864Y-114629920D01*
X176196180Y-114475896D01*
X176102496Y-114321873D01*
X176271543Y-113959352D01*
X176531221Y-113639087D01*
X176772821Y-113475904D01*
X176993291Y-113358035D01*
X177192630Y-113285482D01*
X177437282Y-113234059D01*
X177615491Y-113206824D01*
X177839017Y-113200714D01*
X178153170Y-113236868D01*
G37*
D12*
%TO.C,D26*%
X178063690Y-142710507D02*
X178232737Y-142347986D01*
X178123785Y-141635151D02*
X178848832Y-141973246D01*
X178232737Y-142347986D02*
X177734268Y-142115544D01*
X178232737Y-142347986D02*
X178123785Y-141635151D01*
X178232737Y-142347986D02*
X178731206Y-142580424D01*
X178486309Y-141804199D02*
X178697618Y-141351045D01*
X178848832Y-141973246D02*
X178232737Y-142347986D01*
D11*
%TO.C,S35*%
X322053570Y-123359765D02*
X322086672Y-123785681D01*
X322147011Y-124033387D01*
X322294927Y-124350596D01*
X322421712Y-124622488D01*
X322681390Y-124942750D01*
X322965252Y-125196564D01*
X323206855Y-125359750D01*
X323626662Y-125550171D01*
X323937763Y-125625778D01*
X324451257Y-125662177D01*
X322593326Y-126528545D01*
X322161302Y-126785170D01*
X321886354Y-127023716D01*
X321744301Y-127310633D01*
X321508809Y-126923924D01*
X321095108Y-126509979D01*
X320500144Y-126180557D01*
X320122597Y-126080764D01*
X319542658Y-126020182D01*
X318935481Y-126137808D01*
X318482329Y-126349116D01*
X318116751Y-126629925D01*
X317932436Y-126826210D01*
X317630250Y-127242966D01*
X317452043Y-127215729D01*
X317273835Y-127188490D01*
X317104787Y-126825969D01*
X317026373Y-126421183D01*
X317056663Y-126131213D01*
X317108086Y-125886556D01*
X317180637Y-125687219D01*
X317298507Y-125466748D01*
X317392194Y-125312724D01*
X317531190Y-125137572D01*
X317760821Y-124920155D01*
X318011585Y-124748055D01*
X318192844Y-124663530D01*
X322135284Y-122825141D01*
X322053570Y-123359765D01*
G36*
X322053570Y-123359765D02*
G01*
X322086672Y-123785681D01*
X322147011Y-124033387D01*
X322294927Y-124350596D01*
X322421712Y-124622488D01*
X322681390Y-124942750D01*
X322965252Y-125196564D01*
X323206855Y-125359750D01*
X323626662Y-125550171D01*
X323937763Y-125625778D01*
X324451257Y-125662177D01*
X322593326Y-126528545D01*
X322161302Y-126785170D01*
X321886354Y-127023716D01*
X321744301Y-127310633D01*
X321508809Y-126923924D01*
X321095108Y-126509979D01*
X320500144Y-126180557D01*
X320122597Y-126080764D01*
X319542658Y-126020182D01*
X318935481Y-126137808D01*
X318482329Y-126349116D01*
X318116751Y-126629925D01*
X317932436Y-126826210D01*
X317630250Y-127242966D01*
X317452043Y-127215729D01*
X317273835Y-127188490D01*
X317104787Y-126825969D01*
X317026373Y-126421183D01*
X317056663Y-126131213D01*
X317108086Y-125886556D01*
X317180637Y-125687219D01*
X317298507Y-125466748D01*
X317392194Y-125312724D01*
X317531190Y-125137572D01*
X317760821Y-124920155D01*
X318011585Y-124748055D01*
X318192844Y-124663530D01*
X322135284Y-122825141D01*
X322053570Y-123359765D01*
G37*
D12*
%TO.C,D54*%
X259637723Y-152244075D02*
X260362771Y-151905980D01*
X260000246Y-152075027D02*
X259788938Y-151621874D01*
X260253817Y-152618814D02*
X259637723Y-152244075D01*
X260253817Y-152618814D02*
X259755348Y-152851254D01*
X260253817Y-152618814D02*
X260752289Y-152386373D01*
X260362771Y-151905980D02*
X260253817Y-152618814D01*
X260422864Y-152981336D02*
X260253817Y-152618814D01*
%TO.C,D43*%
X308156715Y-166141104D02*
X308881763Y-165803009D01*
X308519238Y-165972056D02*
X308307930Y-165518903D01*
X308772809Y-166515843D02*
X308156715Y-166141104D01*
X308772809Y-166515843D02*
X308274340Y-166748283D01*
X308772809Y-166515843D02*
X309271281Y-166283402D01*
X308881763Y-165803009D02*
X308772809Y-166515843D01*
X308941856Y-166878365D02*
X308772809Y-166515843D01*
D11*
%TO.C,S14*%
X113532418Y-161664230D02*
X113825440Y-161745701D01*
X114006703Y-161830224D01*
X117949142Y-163668613D01*
X117487071Y-163949668D01*
X117182077Y-164248797D01*
X117031108Y-164454244D01*
X116883191Y-164771449D01*
X116756407Y-165043344D01*
X116677988Y-165448129D01*
X116666020Y-165828729D01*
X116696310Y-166118700D01*
X116820286Y-166562693D01*
X116962339Y-166849608D01*
X117264524Y-167266363D01*
X115406593Y-166399996D01*
X114932308Y-166234003D01*
X114572837Y-166176717D01*
X114261738Y-166252322D01*
X114406601Y-165823354D01*
X114457778Y-165240361D01*
X114327696Y-164572844D01*
X114161458Y-164219483D01*
X113835090Y-163736282D01*
X113354697Y-163346762D01*
X112901544Y-163135454D01*
X112451441Y-163035907D01*
X112182605Y-163020882D01*
X111669112Y-163057282D01*
X111575428Y-162903258D01*
X111481744Y-162749235D01*
X111650791Y-162386714D01*
X111910469Y-162066449D01*
X112152069Y-161903266D01*
X112372539Y-161785397D01*
X112571878Y-161712844D01*
X112816530Y-161661421D01*
X112994739Y-161634186D01*
X113218265Y-161628076D01*
X113532418Y-161664230D01*
G36*
X113532418Y-161664230D02*
G01*
X113825440Y-161745701D01*
X114006703Y-161830224D01*
X117949142Y-163668613D01*
X117487071Y-163949668D01*
X117182077Y-164248797D01*
X117031108Y-164454244D01*
X116883191Y-164771449D01*
X116756407Y-165043344D01*
X116677988Y-165448129D01*
X116666020Y-165828729D01*
X116696310Y-166118700D01*
X116820286Y-166562693D01*
X116962339Y-166849608D01*
X117264524Y-167266363D01*
X115406593Y-166399996D01*
X114932308Y-166234003D01*
X114572837Y-166176717D01*
X114261738Y-166252322D01*
X114406601Y-165823354D01*
X114457778Y-165240361D01*
X114327696Y-164572844D01*
X114161458Y-164219483D01*
X113835090Y-163736282D01*
X113354697Y-163346762D01*
X112901544Y-163135454D01*
X112451441Y-163035907D01*
X112182605Y-163020882D01*
X111669112Y-163057282D01*
X111575428Y-162903258D01*
X111481744Y-162749235D01*
X111650791Y-162386714D01*
X111910469Y-162066449D01*
X112152069Y-161903266D01*
X112372539Y-161785397D01*
X112571878Y-161712844D01*
X112816530Y-161661421D01*
X112994739Y-161634186D01*
X113218265Y-161628076D01*
X113532418Y-161664230D01*
G37*
D12*
%TO.C,D25*%
X170012808Y-159975669D02*
X170181855Y-159613148D01*
X170072903Y-158900313D02*
X170797950Y-159238408D01*
X170181855Y-159613148D02*
X169683386Y-159380706D01*
X170181855Y-159613148D02*
X170072903Y-158900313D01*
X170181855Y-159613148D02*
X170680324Y-159845586D01*
X170435427Y-159069361D02*
X170646736Y-158616207D01*
X170797950Y-159238408D02*
X170181855Y-159613148D01*
%TO.C,D2*%
X80939973Y-125612278D02*
X81109020Y-125249757D01*
X81000068Y-124536922D02*
X81725115Y-124875017D01*
X81109020Y-125249757D02*
X80610551Y-125017315D01*
X81109020Y-125249757D02*
X81000068Y-124536922D01*
X81109020Y-125249757D02*
X81607489Y-125482195D01*
X81362592Y-124705970D02*
X81573901Y-124252816D01*
X81725115Y-124875017D02*
X81109020Y-125249757D01*
%TO.C,D12*%
X127324745Y-116292101D02*
X127493792Y-115929580D01*
X127384840Y-115216745D02*
X128109887Y-115554840D01*
X127493792Y-115929580D02*
X126995323Y-115697138D01*
X127493792Y-115929580D02*
X127384840Y-115216745D01*
X127493792Y-115929580D02*
X127992261Y-116162018D01*
X127747364Y-115385793D02*
X127958673Y-114932639D01*
X128109887Y-115554840D02*
X127493792Y-115929580D01*
D11*
%TO.C,S41*%
X292933959Y-105988709D02*
X292967061Y-106414625D01*
X293027400Y-106662331D01*
X293175316Y-106979540D01*
X293302101Y-107251432D01*
X293561779Y-107571694D01*
X293845641Y-107825508D01*
X294087244Y-107988694D01*
X294507051Y-108179115D01*
X294818152Y-108254722D01*
X295331646Y-108291121D01*
X293473715Y-109157489D01*
X293041691Y-109414114D01*
X292766743Y-109652660D01*
X292624690Y-109939577D01*
X292389198Y-109552868D01*
X291975497Y-109138923D01*
X291380533Y-108809501D01*
X291002986Y-108709708D01*
X290423047Y-108649126D01*
X289815870Y-108766752D01*
X289362718Y-108978060D01*
X288997140Y-109258869D01*
X288812825Y-109455154D01*
X288510639Y-109871910D01*
X288332432Y-109844673D01*
X288154224Y-109817434D01*
X287985176Y-109454913D01*
X287906762Y-109050127D01*
X287937052Y-108760157D01*
X287988475Y-108515500D01*
X288061026Y-108316163D01*
X288178896Y-108095692D01*
X288272583Y-107941668D01*
X288411579Y-107766516D01*
X288641210Y-107549099D01*
X288891974Y-107376999D01*
X289073233Y-107292474D01*
X293015673Y-105454085D01*
X292933959Y-105988709D01*
G36*
X292933959Y-105988709D02*
G01*
X292967061Y-106414625D01*
X293027400Y-106662331D01*
X293175316Y-106979540D01*
X293302101Y-107251432D01*
X293561779Y-107571694D01*
X293845641Y-107825508D01*
X294087244Y-107988694D01*
X294507051Y-108179115D01*
X294818152Y-108254722D01*
X295331646Y-108291121D01*
X293473715Y-109157489D01*
X293041691Y-109414114D01*
X292766743Y-109652660D01*
X292624690Y-109939577D01*
X292389198Y-109552868D01*
X291975497Y-109138923D01*
X291380533Y-108809501D01*
X291002986Y-108709708D01*
X290423047Y-108649126D01*
X289815870Y-108766752D01*
X289362718Y-108978060D01*
X288997140Y-109258869D01*
X288812825Y-109455154D01*
X288510639Y-109871910D01*
X288332432Y-109844673D01*
X288154224Y-109817434D01*
X287985176Y-109454913D01*
X287906762Y-109050127D01*
X287937052Y-108760157D01*
X287988475Y-108515500D01*
X288061026Y-108316163D01*
X288178896Y-108095692D01*
X288272583Y-107941668D01*
X288411579Y-107766516D01*
X288641210Y-107549099D01*
X288891974Y-107376999D01*
X289073233Y-107292474D01*
X293015673Y-105454085D01*
X292933959Y-105988709D01*
G37*
%TO.C,S7*%
X98294615Y-104189522D02*
X98587637Y-104270993D01*
X98768900Y-104355516D01*
X102711339Y-106193905D01*
X102249268Y-106474960D01*
X101944274Y-106774089D01*
X101793305Y-106979536D01*
X101645388Y-107296741D01*
X101518604Y-107568636D01*
X101440185Y-107973421D01*
X101428217Y-108354021D01*
X101458507Y-108643992D01*
X101582483Y-109087985D01*
X101724536Y-109374900D01*
X102026721Y-109791655D01*
X100168790Y-108925288D01*
X99694505Y-108759295D01*
X99335034Y-108702009D01*
X99023935Y-108777614D01*
X99168798Y-108348646D01*
X99219975Y-107765653D01*
X99089893Y-107098136D01*
X98923655Y-106744775D01*
X98597287Y-106261574D01*
X98116894Y-105872054D01*
X97663741Y-105660746D01*
X97213638Y-105561199D01*
X96944802Y-105546174D01*
X96431309Y-105582574D01*
X96337625Y-105428550D01*
X96243941Y-105274527D01*
X96412988Y-104912006D01*
X96672666Y-104591741D01*
X96914266Y-104428558D01*
X97134736Y-104310689D01*
X97334075Y-104238136D01*
X97578727Y-104186713D01*
X97756936Y-104159478D01*
X97980462Y-104153368D01*
X98294615Y-104189522D01*
G36*
X98294615Y-104189522D02*
G01*
X98587637Y-104270993D01*
X98768900Y-104355516D01*
X102711339Y-106193905D01*
X102249268Y-106474960D01*
X101944274Y-106774089D01*
X101793305Y-106979536D01*
X101645388Y-107296741D01*
X101518604Y-107568636D01*
X101440185Y-107973421D01*
X101428217Y-108354021D01*
X101458507Y-108643992D01*
X101582483Y-109087985D01*
X101724536Y-109374900D01*
X102026721Y-109791655D01*
X100168790Y-108925288D01*
X99694505Y-108759295D01*
X99335034Y-108702009D01*
X99023935Y-108777614D01*
X99168798Y-108348646D01*
X99219975Y-107765653D01*
X99089893Y-107098136D01*
X98923655Y-106744775D01*
X98597287Y-106261574D01*
X98116894Y-105872054D01*
X97663741Y-105660746D01*
X97213638Y-105561199D01*
X96944802Y-105546174D01*
X96431309Y-105582574D01*
X96337625Y-105428550D01*
X96243941Y-105274527D01*
X96412988Y-104912006D01*
X96672666Y-104591741D01*
X96914266Y-104428558D01*
X97134736Y-104310689D01*
X97334075Y-104238136D01*
X97578727Y-104186713D01*
X97756936Y-104159478D01*
X97980462Y-104153368D01*
X98294615Y-104189522D01*
G37*
D12*
%TO.C,D58*%
X256003558Y-212365987D02*
X256232990Y-212038325D01*
X256232990Y-212038325D02*
X255782457Y-211722860D01*
X256232990Y-212038325D02*
X256249473Y-211317406D01*
X256232990Y-212038325D02*
X256683522Y-212353794D01*
X256249473Y-211317406D02*
X256904795Y-211776267D01*
X256577134Y-211546837D02*
X256863922Y-211137261D01*
X256904795Y-211776267D02*
X256232990Y-212038325D01*
%TO.C,D51*%
X267795466Y-124662264D02*
X268520514Y-124324169D01*
X268157989Y-124493216D02*
X267946681Y-124040063D01*
X268411560Y-125037003D02*
X267795466Y-124662264D01*
X268411560Y-125037003D02*
X267913091Y-125269443D01*
X268411560Y-125037003D02*
X268910032Y-124804562D01*
X268520514Y-124324169D02*
X268411560Y-125037003D01*
X268580607Y-125399525D02*
X268411560Y-125037003D01*
D11*
%TO.C,S39*%
X309035717Y-140519036D02*
X309068819Y-140944952D01*
X309129158Y-141192658D01*
X309277074Y-141509867D01*
X309403859Y-141781759D01*
X309663537Y-142102021D01*
X309947399Y-142355835D01*
X310189002Y-142519021D01*
X310608809Y-142709442D01*
X310919910Y-142785049D01*
X311433404Y-142821448D01*
X309575473Y-143687816D01*
X309143449Y-143944441D01*
X308868501Y-144182987D01*
X308726448Y-144469904D01*
X308490956Y-144083195D01*
X308077255Y-143669250D01*
X307482291Y-143339828D01*
X307104744Y-143240035D01*
X306524805Y-143179453D01*
X305917628Y-143297079D01*
X305464476Y-143508387D01*
X305098898Y-143789196D01*
X304914583Y-143985481D01*
X304612397Y-144402237D01*
X304434190Y-144375000D01*
X304255982Y-144347761D01*
X304086934Y-143985240D01*
X304008520Y-143580454D01*
X304038810Y-143290484D01*
X304090233Y-143045827D01*
X304162784Y-142846490D01*
X304280654Y-142626019D01*
X304374341Y-142471995D01*
X304513337Y-142296843D01*
X304742968Y-142079426D01*
X304993732Y-141907326D01*
X305174991Y-141822801D01*
X309117431Y-139984412D01*
X309035717Y-140519036D01*
G36*
X309035717Y-140519036D02*
G01*
X309068819Y-140944952D01*
X309129158Y-141192658D01*
X309277074Y-141509867D01*
X309403859Y-141781759D01*
X309663537Y-142102021D01*
X309947399Y-142355835D01*
X310189002Y-142519021D01*
X310608809Y-142709442D01*
X310919910Y-142785049D01*
X311433404Y-142821448D01*
X309575473Y-143687816D01*
X309143449Y-143944441D01*
X308868501Y-144182987D01*
X308726448Y-144469904D01*
X308490956Y-144083195D01*
X308077255Y-143669250D01*
X307482291Y-143339828D01*
X307104744Y-143240035D01*
X306524805Y-143179453D01*
X305917628Y-143297079D01*
X305464476Y-143508387D01*
X305098898Y-143789196D01*
X304914583Y-143985481D01*
X304612397Y-144402237D01*
X304434190Y-144375000D01*
X304255982Y-144347761D01*
X304086934Y-143985240D01*
X304008520Y-143580454D01*
X304038810Y-143290484D01*
X304090233Y-143045827D01*
X304162784Y-142846490D01*
X304280654Y-142626019D01*
X304374341Y-142471995D01*
X304513337Y-142296843D01*
X304742968Y-142079426D01*
X304993732Y-141907326D01*
X305174991Y-141822801D01*
X309117431Y-139984412D01*
X309035717Y-140519036D01*
G37*
%TO.C,S45*%
X282663131Y-129038981D02*
X282696233Y-129464897D01*
X282756572Y-129712603D01*
X282904488Y-130029812D01*
X283031273Y-130301704D01*
X283290951Y-130621966D01*
X283574813Y-130875780D01*
X283816416Y-131038966D01*
X284236223Y-131229387D01*
X284547324Y-131304994D01*
X285060818Y-131341393D01*
X283202887Y-132207761D01*
X282770863Y-132464386D01*
X282495915Y-132702932D01*
X282353862Y-132989849D01*
X282118370Y-132603140D01*
X281704669Y-132189195D01*
X281109705Y-131859773D01*
X280732158Y-131759980D01*
X280152219Y-131699398D01*
X279545042Y-131817024D01*
X279091890Y-132028332D01*
X278726312Y-132309141D01*
X278541997Y-132505426D01*
X278239811Y-132922182D01*
X278061604Y-132894945D01*
X277883396Y-132867706D01*
X277714348Y-132505185D01*
X277635934Y-132100399D01*
X277666224Y-131810429D01*
X277717647Y-131565772D01*
X277790198Y-131366435D01*
X277908068Y-131145964D01*
X278001755Y-130991940D01*
X278140751Y-130816788D01*
X278370382Y-130599371D01*
X278621146Y-130427271D01*
X278802405Y-130342746D01*
X282744845Y-128504357D01*
X282663131Y-129038981D01*
G36*
X282663131Y-129038981D02*
G01*
X282696233Y-129464897D01*
X282756572Y-129712603D01*
X282904488Y-130029812D01*
X283031273Y-130301704D01*
X283290951Y-130621966D01*
X283574813Y-130875780D01*
X283816416Y-131038966D01*
X284236223Y-131229387D01*
X284547324Y-131304994D01*
X285060818Y-131341393D01*
X283202887Y-132207761D01*
X282770863Y-132464386D01*
X282495915Y-132702932D01*
X282353862Y-132989849D01*
X282118370Y-132603140D01*
X281704669Y-132189195D01*
X281109705Y-131859773D01*
X280732158Y-131759980D01*
X280152219Y-131699398D01*
X279545042Y-131817024D01*
X279091890Y-132028332D01*
X278726312Y-132309141D01*
X278541997Y-132505426D01*
X278239811Y-132922182D01*
X278061604Y-132894945D01*
X277883396Y-132867706D01*
X277714348Y-132505185D01*
X277635934Y-132100399D01*
X277666224Y-131810429D01*
X277717647Y-131565772D01*
X277790198Y-131366435D01*
X277908068Y-131145964D01*
X278001755Y-130991940D01*
X278140751Y-130816788D01*
X278370382Y-130599371D01*
X278621146Y-130427271D01*
X278802405Y-130342746D01*
X282744845Y-128504357D01*
X282663131Y-129038981D01*
G37*
D12*
%TO.C,D20*%
X145753313Y-166924183D02*
X145922360Y-166561662D01*
X145813408Y-165848827D02*
X146538455Y-166186922D01*
X145922360Y-166561662D02*
X145423891Y-166329220D01*
X145922360Y-166561662D02*
X145813408Y-165848827D01*
X145922360Y-166561662D02*
X146420829Y-166794100D01*
X146175932Y-166017875D02*
X146387241Y-165564721D01*
X146538455Y-166186922D02*
X145922360Y-166561662D01*
%TO.C,D21*%
X153804191Y-149659019D02*
X153973238Y-149296498D01*
X153864286Y-148583663D02*
X154589333Y-148921758D01*
X153973238Y-149296498D02*
X153474769Y-149064056D01*
X153973238Y-149296498D02*
X153864286Y-148583663D01*
X153973238Y-149296498D02*
X154471707Y-149528936D01*
X154226810Y-148752711D02*
X154438119Y-148299557D01*
X154589333Y-148921758D02*
X153973238Y-149296498D01*
%TO.C,D41*%
X302325789Y-108560506D02*
X303050837Y-108222411D01*
X302688312Y-108391458D02*
X302477004Y-107938305D01*
X302941883Y-108935245D02*
X302325789Y-108560506D01*
X302941883Y-108935245D02*
X302443414Y-109167685D01*
X302941883Y-108935245D02*
X303440355Y-108702804D01*
X303050837Y-108222411D02*
X302941883Y-108935245D01*
X303110930Y-109297767D02*
X302941883Y-108935245D01*
D11*
%TO.C,S21*%
X145842792Y-137450548D02*
X146135814Y-137532019D01*
X146317077Y-137616542D01*
X150259516Y-139454931D01*
X149797445Y-139735986D01*
X149492451Y-140035115D01*
X149341482Y-140240562D01*
X149193565Y-140557767D01*
X149066781Y-140829662D01*
X148988362Y-141234447D01*
X148976394Y-141615047D01*
X149006684Y-141905018D01*
X149130660Y-142349011D01*
X149272713Y-142635926D01*
X149574898Y-143052681D01*
X147716967Y-142186314D01*
X147242682Y-142020321D01*
X146883211Y-141963035D01*
X146572112Y-142038640D01*
X146716975Y-141609672D01*
X146768152Y-141026679D01*
X146638070Y-140359162D01*
X146471832Y-140005801D01*
X146145464Y-139522600D01*
X145665071Y-139133080D01*
X145211918Y-138921772D01*
X144761815Y-138822225D01*
X144492979Y-138807200D01*
X143979486Y-138843600D01*
X143885802Y-138689576D01*
X143792118Y-138535553D01*
X143961165Y-138173032D01*
X144220843Y-137852767D01*
X144462443Y-137689584D01*
X144682913Y-137571715D01*
X144882252Y-137499162D01*
X145126904Y-137447739D01*
X145305113Y-137420504D01*
X145528639Y-137414394D01*
X145842792Y-137450548D01*
G36*
X145842792Y-137450548D02*
G01*
X146135814Y-137532019D01*
X146317077Y-137616542D01*
X150259516Y-139454931D01*
X149797445Y-139735986D01*
X149492451Y-140035115D01*
X149341482Y-140240562D01*
X149193565Y-140557767D01*
X149066781Y-140829662D01*
X148988362Y-141234447D01*
X148976394Y-141615047D01*
X149006684Y-141905018D01*
X149130660Y-142349011D01*
X149272713Y-142635926D01*
X149574898Y-143052681D01*
X147716967Y-142186314D01*
X147242682Y-142020321D01*
X146883211Y-141963035D01*
X146572112Y-142038640D01*
X146716975Y-141609672D01*
X146768152Y-141026679D01*
X146638070Y-140359162D01*
X146471832Y-140005801D01*
X146145464Y-139522600D01*
X145665071Y-139133080D01*
X145211918Y-138921772D01*
X144761815Y-138822225D01*
X144492979Y-138807200D01*
X143979486Y-138843600D01*
X143885802Y-138689576D01*
X143792118Y-138535553D01*
X143961165Y-138173032D01*
X144220843Y-137852767D01*
X144462443Y-137689584D01*
X144682913Y-137571715D01*
X144882252Y-137499162D01*
X145126904Y-137447739D01*
X145305113Y-137420504D01*
X145528639Y-137414394D01*
X145842792Y-137450548D01*
G37*
%TO.C,S31*%
X339318735Y-115308888D02*
X339351837Y-115734804D01*
X339412176Y-115982510D01*
X339560092Y-116299719D01*
X339686877Y-116571611D01*
X339946555Y-116891873D01*
X340230417Y-117145687D01*
X340472020Y-117308873D01*
X340891827Y-117499294D01*
X341202928Y-117574901D01*
X341716422Y-117611300D01*
X339858491Y-118477668D01*
X339426467Y-118734293D01*
X339151519Y-118972839D01*
X339009466Y-119259756D01*
X338773974Y-118873047D01*
X338360273Y-118459102D01*
X337765309Y-118129680D01*
X337387762Y-118029887D01*
X336807823Y-117969305D01*
X336200646Y-118086931D01*
X335747494Y-118298239D01*
X335381916Y-118579048D01*
X335197601Y-118775333D01*
X334895415Y-119192089D01*
X334717208Y-119164852D01*
X334539000Y-119137613D01*
X334369952Y-118775092D01*
X334291538Y-118370306D01*
X334321828Y-118080336D01*
X334373251Y-117835679D01*
X334445802Y-117636342D01*
X334563672Y-117415871D01*
X334657359Y-117261847D01*
X334796355Y-117086695D01*
X335025986Y-116869278D01*
X335276750Y-116697178D01*
X335458009Y-116612653D01*
X339400449Y-114774264D01*
X339318735Y-115308888D01*
G36*
X339318735Y-115308888D02*
G01*
X339351837Y-115734804D01*
X339412176Y-115982510D01*
X339560092Y-116299719D01*
X339686877Y-116571611D01*
X339946555Y-116891873D01*
X340230417Y-117145687D01*
X340472020Y-117308873D01*
X340891827Y-117499294D01*
X341202928Y-117574901D01*
X341716422Y-117611300D01*
X339858491Y-118477668D01*
X339426467Y-118734293D01*
X339151519Y-118972839D01*
X339009466Y-119259756D01*
X338773974Y-118873047D01*
X338360273Y-118459102D01*
X337765309Y-118129680D01*
X337387762Y-118029887D01*
X336807823Y-117969305D01*
X336200646Y-118086931D01*
X335747494Y-118298239D01*
X335381916Y-118579048D01*
X335197601Y-118775333D01*
X334895415Y-119192089D01*
X334717208Y-119164852D01*
X334539000Y-119137613D01*
X334369952Y-118775092D01*
X334291538Y-118370306D01*
X334321828Y-118080336D01*
X334373251Y-117835679D01*
X334445802Y-117636342D01*
X334563672Y-117415871D01*
X334657359Y-117261847D01*
X334796355Y-117086695D01*
X335025986Y-116869278D01*
X335276750Y-116697178D01*
X335458009Y-116612653D01*
X339400449Y-114774264D01*
X339318735Y-115308888D01*
G37*
%TO.C,S11*%
X111312468Y-121348794D02*
X111605490Y-121430265D01*
X111786753Y-121514788D01*
X115729192Y-123353177D01*
X115267121Y-123634232D01*
X114962127Y-123933361D01*
X114811158Y-124138808D01*
X114663241Y-124456013D01*
X114536457Y-124727908D01*
X114458038Y-125132693D01*
X114446070Y-125513293D01*
X114476360Y-125803264D01*
X114600336Y-126247257D01*
X114742389Y-126534172D01*
X115044574Y-126950927D01*
X113186643Y-126084560D01*
X112712358Y-125918567D01*
X112352887Y-125861281D01*
X112041788Y-125936886D01*
X112186651Y-125507918D01*
X112237828Y-124924925D01*
X112107746Y-124257408D01*
X111941508Y-123904047D01*
X111615140Y-123420846D01*
X111134747Y-123031326D01*
X110681594Y-122820018D01*
X110231491Y-122720471D01*
X109962655Y-122705446D01*
X109449162Y-122741846D01*
X109355478Y-122587822D01*
X109261794Y-122433799D01*
X109430841Y-122071278D01*
X109690519Y-121751013D01*
X109932119Y-121587830D01*
X110152589Y-121469961D01*
X110351928Y-121397408D01*
X110596580Y-121345985D01*
X110774789Y-121318750D01*
X110998315Y-121312640D01*
X111312468Y-121348794D01*
G36*
X111312468Y-121348794D02*
G01*
X111605490Y-121430265D01*
X111786753Y-121514788D01*
X115729192Y-123353177D01*
X115267121Y-123634232D01*
X114962127Y-123933361D01*
X114811158Y-124138808D01*
X114663241Y-124456013D01*
X114536457Y-124727908D01*
X114458038Y-125132693D01*
X114446070Y-125513293D01*
X114476360Y-125803264D01*
X114600336Y-126247257D01*
X114742389Y-126534172D01*
X115044574Y-126950927D01*
X113186643Y-126084560D01*
X112712358Y-125918567D01*
X112352887Y-125861281D01*
X112041788Y-125936886D01*
X112186651Y-125507918D01*
X112237828Y-124924925D01*
X112107746Y-124257408D01*
X111941508Y-123904047D01*
X111615140Y-123420846D01*
X111134747Y-123031326D01*
X110681594Y-122820018D01*
X110231491Y-122720471D01*
X109962655Y-122705446D01*
X109449162Y-122741846D01*
X109355478Y-122587822D01*
X109261794Y-122433799D01*
X109430841Y-122071278D01*
X109690519Y-121751013D01*
X109932119Y-121587830D01*
X110152589Y-121469961D01*
X110351928Y-121397408D01*
X110596580Y-121345985D01*
X110774789Y-121318750D01*
X110998315Y-121312640D01*
X111312468Y-121348794D01*
G37*
%TO.C,S58*%
X249758796Y-198837550D02*
X249979984Y-198870351D01*
X250283088Y-198960509D01*
X250557512Y-199091625D01*
X250721345Y-199206340D01*
X254284656Y-201701395D01*
X253780799Y-201897942D01*
X253428495Y-202139566D01*
X253244143Y-202315674D01*
X253043393Y-202602379D01*
X252871319Y-202848126D01*
X252723804Y-203233144D01*
X252645924Y-203605878D01*
X252625403Y-203896706D01*
X252670397Y-204355482D01*
X252760471Y-204662704D01*
X252985695Y-205125606D01*
X251306435Y-203949772D01*
X250868179Y-203703943D01*
X250524118Y-203585106D01*
X250204612Y-203605543D01*
X250421765Y-203208245D01*
X250573401Y-202642998D01*
X250561207Y-201963032D01*
X250458856Y-201586173D01*
X250221354Y-201053637D01*
X249815899Y-200586617D01*
X249406323Y-200299829D01*
X248980348Y-200123636D01*
X248718200Y-200062156D01*
X248206190Y-200008835D01*
X248140675Y-199840886D01*
X248075159Y-199672931D01*
X248304588Y-199345272D01*
X248615934Y-199074967D01*
X248882201Y-198956217D01*
X249119789Y-198878424D01*
X249328698Y-198841587D01*
X249578566Y-198833428D01*
X249758796Y-198837550D01*
G36*
X249758796Y-198837550D02*
G01*
X249979984Y-198870351D01*
X250283088Y-198960509D01*
X250557512Y-199091625D01*
X250721345Y-199206340D01*
X254284656Y-201701395D01*
X253780799Y-201897942D01*
X253428495Y-202139566D01*
X253244143Y-202315674D01*
X253043393Y-202602379D01*
X252871319Y-202848126D01*
X252723804Y-203233144D01*
X252645924Y-203605878D01*
X252625403Y-203896706D01*
X252670397Y-204355482D01*
X252760471Y-204662704D01*
X252985695Y-205125606D01*
X251306435Y-203949772D01*
X250868179Y-203703943D01*
X250524118Y-203585106D01*
X250204612Y-203605543D01*
X250421765Y-203208245D01*
X250573401Y-202642998D01*
X250561207Y-201963032D01*
X250458856Y-201586173D01*
X250221354Y-201053637D01*
X249815899Y-200586617D01*
X249406323Y-200299829D01*
X248980348Y-200123636D01*
X248718200Y-200062156D01*
X248206190Y-200008835D01*
X248140675Y-199840886D01*
X248075159Y-199672931D01*
X248304588Y-199345272D01*
X248615934Y-199074967D01*
X248882201Y-198956217D01*
X249119789Y-198878424D01*
X249328698Y-198841587D01*
X249578566Y-198833428D01*
X249758796Y-198837550D01*
G37*
%TO.C,S6*%
X90243739Y-121454683D02*
X90536761Y-121536154D01*
X90718024Y-121620677D01*
X94660463Y-123459066D01*
X94198392Y-123740121D01*
X93893398Y-124039250D01*
X93742429Y-124244697D01*
X93594512Y-124561902D01*
X93467728Y-124833797D01*
X93389309Y-125238582D01*
X93377341Y-125619182D01*
X93407631Y-125909153D01*
X93531607Y-126353146D01*
X93673660Y-126640061D01*
X93975845Y-127056816D01*
X92117914Y-126190449D01*
X91643629Y-126024456D01*
X91284158Y-125967170D01*
X90973059Y-126042775D01*
X91117922Y-125613807D01*
X91169099Y-125030814D01*
X91039017Y-124363297D01*
X90872779Y-124009936D01*
X90546411Y-123526735D01*
X90066018Y-123137215D01*
X89612865Y-122925907D01*
X89162762Y-122826360D01*
X88893926Y-122811335D01*
X88380433Y-122847735D01*
X88286749Y-122693711D01*
X88193065Y-122539688D01*
X88362112Y-122177167D01*
X88621790Y-121856902D01*
X88863390Y-121693719D01*
X89083860Y-121575850D01*
X89283199Y-121503297D01*
X89527851Y-121451874D01*
X89706060Y-121424639D01*
X89929586Y-121418529D01*
X90243739Y-121454683D01*
G36*
X90243739Y-121454683D02*
G01*
X90536761Y-121536154D01*
X90718024Y-121620677D01*
X94660463Y-123459066D01*
X94198392Y-123740121D01*
X93893398Y-124039250D01*
X93742429Y-124244697D01*
X93594512Y-124561902D01*
X93467728Y-124833797D01*
X93389309Y-125238582D01*
X93377341Y-125619182D01*
X93407631Y-125909153D01*
X93531607Y-126353146D01*
X93673660Y-126640061D01*
X93975845Y-127056816D01*
X92117914Y-126190449D01*
X91643629Y-126024456D01*
X91284158Y-125967170D01*
X90973059Y-126042775D01*
X91117922Y-125613807D01*
X91169099Y-125030814D01*
X91039017Y-124363297D01*
X90872779Y-124009936D01*
X90546411Y-123526735D01*
X90066018Y-123137215D01*
X89612865Y-122925907D01*
X89162762Y-122826360D01*
X88893926Y-122811335D01*
X88380433Y-122847735D01*
X88286749Y-122693711D01*
X88193065Y-122539688D01*
X88362112Y-122177167D01*
X88621790Y-121856902D01*
X88863390Y-121693719D01*
X89083860Y-121575850D01*
X89283199Y-121503297D01*
X89527851Y-121451874D01*
X89706060Y-121424639D01*
X89929586Y-121418529D01*
X90243739Y-121454683D01*
G37*
D12*
%TO.C,D52*%
X259744585Y-107397102D02*
X260469633Y-107059007D01*
X260107108Y-107228054D02*
X259895800Y-106774901D01*
X260360679Y-107771841D02*
X259744585Y-107397102D01*
X260360679Y-107771841D02*
X259862210Y-108004281D01*
X260360679Y-107771841D02*
X260859151Y-107539400D01*
X260469633Y-107059007D02*
X260360679Y-107771841D01*
X260529726Y-108134363D02*
X260360679Y-107771841D01*
D11*
%TO.C,S54*%
X250245896Y-149672276D02*
X250278998Y-150098192D01*
X250339337Y-150345898D01*
X250487253Y-150663107D01*
X250614038Y-150934999D01*
X250873716Y-151255261D01*
X251157578Y-151509075D01*
X251399181Y-151672261D01*
X251818988Y-151862682D01*
X252130089Y-151938289D01*
X252643583Y-151974688D01*
X250785652Y-152841056D01*
X250353628Y-153097681D01*
X250078680Y-153336227D01*
X249936627Y-153623144D01*
X249701135Y-153236435D01*
X249287434Y-152822490D01*
X248692470Y-152493068D01*
X248314923Y-152393275D01*
X247734984Y-152332693D01*
X247127807Y-152450319D01*
X246674655Y-152661627D01*
X246309077Y-152942436D01*
X246124762Y-153138721D01*
X245822576Y-153555477D01*
X245644369Y-153528240D01*
X245466161Y-153501001D01*
X245297113Y-153138480D01*
X245218699Y-152733694D01*
X245248989Y-152443724D01*
X245300412Y-152199067D01*
X245372963Y-151999730D01*
X245490833Y-151779259D01*
X245584520Y-151625235D01*
X245723516Y-151450083D01*
X245953147Y-151232666D01*
X246203911Y-151060566D01*
X246385170Y-150976041D01*
X250327610Y-149137652D01*
X250245896Y-149672276D01*
G36*
X250245896Y-149672276D02*
G01*
X250278998Y-150098192D01*
X250339337Y-150345898D01*
X250487253Y-150663107D01*
X250614038Y-150934999D01*
X250873716Y-151255261D01*
X251157578Y-151509075D01*
X251399181Y-151672261D01*
X251818988Y-151862682D01*
X252130089Y-151938289D01*
X252643583Y-151974688D01*
X250785652Y-152841056D01*
X250353628Y-153097681D01*
X250078680Y-153336227D01*
X249936627Y-153623144D01*
X249701135Y-153236435D01*
X249287434Y-152822490D01*
X248692470Y-152493068D01*
X248314923Y-152393275D01*
X247734984Y-152332693D01*
X247127807Y-152450319D01*
X246674655Y-152661627D01*
X246309077Y-152942436D01*
X246124762Y-153138721D01*
X245822576Y-153555477D01*
X245644369Y-153528240D01*
X245466161Y-153501001D01*
X245297113Y-153138480D01*
X245218699Y-152733694D01*
X245248989Y-152443724D01*
X245300412Y-152199067D01*
X245372963Y-151999730D01*
X245490833Y-151779259D01*
X245584520Y-151625235D01*
X245723516Y-151450083D01*
X245953147Y-151232666D01*
X246203911Y-151060566D01*
X246385170Y-150976041D01*
X250327610Y-149137652D01*
X250245896Y-149672276D01*
G37*
%TO.C,S12*%
X119363344Y-104083633D02*
X119656366Y-104165104D01*
X119837629Y-104249627D01*
X123780068Y-106088016D01*
X123317997Y-106369071D01*
X123013003Y-106668200D01*
X122862034Y-106873647D01*
X122714117Y-107190852D01*
X122587333Y-107462747D01*
X122508914Y-107867532D01*
X122496946Y-108248132D01*
X122527236Y-108538103D01*
X122651212Y-108982096D01*
X122793265Y-109269011D01*
X123095450Y-109685766D01*
X121237519Y-108819399D01*
X120763234Y-108653406D01*
X120403763Y-108596120D01*
X120092664Y-108671725D01*
X120237527Y-108242757D01*
X120288704Y-107659764D01*
X120158622Y-106992247D01*
X119992384Y-106638886D01*
X119666016Y-106155685D01*
X119185623Y-105766165D01*
X118732470Y-105554857D01*
X118282367Y-105455310D01*
X118013531Y-105440285D01*
X117500038Y-105476685D01*
X117406354Y-105322661D01*
X117312670Y-105168638D01*
X117481717Y-104806117D01*
X117741395Y-104485852D01*
X117982995Y-104322669D01*
X118203465Y-104204800D01*
X118402804Y-104132247D01*
X118647456Y-104080824D01*
X118825665Y-104053589D01*
X119049191Y-104047479D01*
X119363344Y-104083633D01*
G36*
X119363344Y-104083633D02*
G01*
X119656366Y-104165104D01*
X119837629Y-104249627D01*
X123780068Y-106088016D01*
X123317997Y-106369071D01*
X123013003Y-106668200D01*
X122862034Y-106873647D01*
X122714117Y-107190852D01*
X122587333Y-107462747D01*
X122508914Y-107867532D01*
X122496946Y-108248132D01*
X122527236Y-108538103D01*
X122651212Y-108982096D01*
X122793265Y-109269011D01*
X123095450Y-109685766D01*
X121237519Y-108819399D01*
X120763234Y-108653406D01*
X120403763Y-108596120D01*
X120092664Y-108671725D01*
X120237527Y-108242757D01*
X120288704Y-107659764D01*
X120158622Y-106992247D01*
X119992384Y-106638886D01*
X119666016Y-106155685D01*
X119185623Y-105766165D01*
X118732470Y-105554857D01*
X118282367Y-105455310D01*
X118013531Y-105440285D01*
X117500038Y-105476685D01*
X117406354Y-105322661D01*
X117312670Y-105168638D01*
X117481717Y-104806117D01*
X117741395Y-104485852D01*
X117982995Y-104322669D01*
X118203465Y-104204800D01*
X118402804Y-104132247D01*
X118647456Y-104080824D01*
X118825665Y-104053589D01*
X119049191Y-104047479D01*
X119363344Y-104083633D01*
G37*
D12*
%TO.C,D18*%
X153697330Y-104812048D02*
X153866377Y-104449527D01*
X153757425Y-103736692D02*
X154482472Y-104074787D01*
X153866377Y-104449527D02*
X153367908Y-104217085D01*
X153866377Y-104449527D02*
X153757425Y-103736692D01*
X153866377Y-104449527D02*
X154364846Y-104681965D01*
X154119949Y-103905740D02*
X154331258Y-103452586D01*
X154482472Y-104074787D02*
X153866377Y-104449527D01*
%TO.C,D37*%
X315343642Y-91401236D02*
X316068690Y-91063141D01*
X315706165Y-91232188D02*
X315494857Y-90779035D01*
X315959736Y-91775975D02*
X315343642Y-91401236D01*
X315959736Y-91775975D02*
X315461267Y-92008415D01*
X315959736Y-91775975D02*
X316458208Y-91543534D01*
X316068690Y-91063141D02*
X315959736Y-91775975D01*
X316128783Y-92138497D02*
X315959736Y-91775975D01*
D11*
%TO.C,S24*%
X154000532Y-165032359D02*
X154293554Y-165113830D01*
X154474817Y-165198353D01*
X158417256Y-167036742D01*
X157955185Y-167317797D01*
X157650191Y-167616926D01*
X157499222Y-167822373D01*
X157351305Y-168139578D01*
X157224521Y-168411473D01*
X157146102Y-168816258D01*
X157134134Y-169196858D01*
X157164424Y-169486829D01*
X157288400Y-169930822D01*
X157430453Y-170217737D01*
X157732638Y-170634492D01*
X155874707Y-169768125D01*
X155400422Y-169602132D01*
X155040951Y-169544846D01*
X154729852Y-169620451D01*
X154874715Y-169191483D01*
X154925892Y-168608490D01*
X154795810Y-167940973D01*
X154629572Y-167587612D01*
X154303204Y-167104411D01*
X153822811Y-166714891D01*
X153369658Y-166503583D01*
X152919555Y-166404036D01*
X152650719Y-166389011D01*
X152137226Y-166425411D01*
X152043542Y-166271387D01*
X151949858Y-166117364D01*
X152118905Y-165754843D01*
X152378583Y-165434578D01*
X152620183Y-165271395D01*
X152840653Y-165153526D01*
X153039992Y-165080973D01*
X153284644Y-165029550D01*
X153462853Y-165002315D01*
X153686379Y-164996205D01*
X154000532Y-165032359D01*
G36*
X154000532Y-165032359D02*
G01*
X154293554Y-165113830D01*
X154474817Y-165198353D01*
X158417256Y-167036742D01*
X157955185Y-167317797D01*
X157650191Y-167616926D01*
X157499222Y-167822373D01*
X157351305Y-168139578D01*
X157224521Y-168411473D01*
X157146102Y-168816258D01*
X157134134Y-169196858D01*
X157164424Y-169486829D01*
X157288400Y-169930822D01*
X157430453Y-170217737D01*
X157732638Y-170634492D01*
X155874707Y-169768125D01*
X155400422Y-169602132D01*
X155040951Y-169544846D01*
X154729852Y-169620451D01*
X154874715Y-169191483D01*
X154925892Y-168608490D01*
X154795810Y-167940973D01*
X154629572Y-167587612D01*
X154303204Y-167104411D01*
X153822811Y-166714891D01*
X153369658Y-166503583D01*
X152919555Y-166404036D01*
X152650719Y-166389011D01*
X152137226Y-166425411D01*
X152043542Y-166271387D01*
X151949858Y-166117364D01*
X152118905Y-165754843D01*
X152378583Y-165434578D01*
X152620183Y-165271395D01*
X152840653Y-165153526D01*
X153039992Y-165080973D01*
X153284644Y-165029550D01*
X153462853Y-165002315D01*
X153686379Y-164996205D01*
X154000532Y-165032359D01*
G37*
%TO.C,S34*%
X330104445Y-140624928D02*
X330137547Y-141050844D01*
X330197886Y-141298550D01*
X330345802Y-141615759D01*
X330472587Y-141887651D01*
X330732265Y-142207913D01*
X331016127Y-142461727D01*
X331257730Y-142624913D01*
X331677537Y-142815334D01*
X331988638Y-142890941D01*
X332502132Y-142927340D01*
X330644201Y-143793708D01*
X330212177Y-144050333D01*
X329937229Y-144288879D01*
X329795176Y-144575796D01*
X329559684Y-144189087D01*
X329145983Y-143775142D01*
X328551019Y-143445720D01*
X328173472Y-143345927D01*
X327593533Y-143285345D01*
X326986356Y-143402971D01*
X326533204Y-143614279D01*
X326167626Y-143895088D01*
X325983311Y-144091373D01*
X325681125Y-144508129D01*
X325502918Y-144480892D01*
X325324710Y-144453653D01*
X325155662Y-144091132D01*
X325077248Y-143686346D01*
X325107538Y-143396376D01*
X325158961Y-143151719D01*
X325231512Y-142952382D01*
X325349382Y-142731911D01*
X325443069Y-142577887D01*
X325582065Y-142402735D01*
X325811696Y-142185318D01*
X326062460Y-142013218D01*
X326243719Y-141928693D01*
X330186159Y-140090304D01*
X330104445Y-140624928D01*
G36*
X330104445Y-140624928D02*
G01*
X330137547Y-141050844D01*
X330197886Y-141298550D01*
X330345802Y-141615759D01*
X330472587Y-141887651D01*
X330732265Y-142207913D01*
X331016127Y-142461727D01*
X331257730Y-142624913D01*
X331677537Y-142815334D01*
X331988638Y-142890941D01*
X332502132Y-142927340D01*
X330644201Y-143793708D01*
X330212177Y-144050333D01*
X329937229Y-144288879D01*
X329795176Y-144575796D01*
X329559684Y-144189087D01*
X329145983Y-143775142D01*
X328551019Y-143445720D01*
X328173472Y-143345927D01*
X327593533Y-143285345D01*
X326986356Y-143402971D01*
X326533204Y-143614279D01*
X326167626Y-143895088D01*
X325983311Y-144091373D01*
X325681125Y-144508129D01*
X325502918Y-144480892D01*
X325324710Y-144453653D01*
X325155662Y-144091132D01*
X325077248Y-143686346D01*
X325107538Y-143396376D01*
X325158961Y-143151719D01*
X325231512Y-142952382D01*
X325349382Y-142731911D01*
X325443069Y-142577887D01*
X325582065Y-142402735D01*
X325811696Y-142185318D01*
X326062460Y-142013218D01*
X326243719Y-141928693D01*
X330186159Y-140090304D01*
X330104445Y-140624928D01*
G37*
%TO.C,S52*%
X250352758Y-104825302D02*
X250385860Y-105251218D01*
X250446199Y-105498924D01*
X250594115Y-105816133D01*
X250720900Y-106088025D01*
X250980578Y-106408287D01*
X251264440Y-106662101D01*
X251506043Y-106825287D01*
X251925850Y-107015708D01*
X252236951Y-107091315D01*
X252750445Y-107127714D01*
X250892514Y-107994082D01*
X250460490Y-108250707D01*
X250185542Y-108489253D01*
X250043489Y-108776170D01*
X249807997Y-108389461D01*
X249394296Y-107975516D01*
X248799332Y-107646094D01*
X248421785Y-107546301D01*
X247841846Y-107485719D01*
X247234669Y-107603345D01*
X246781517Y-107814653D01*
X246415939Y-108095462D01*
X246231624Y-108291747D01*
X245929438Y-108708503D01*
X245751231Y-108681266D01*
X245573023Y-108654027D01*
X245403975Y-108291506D01*
X245325561Y-107886720D01*
X245355851Y-107596750D01*
X245407274Y-107352093D01*
X245479825Y-107152756D01*
X245597695Y-106932285D01*
X245691382Y-106778261D01*
X245830378Y-106603109D01*
X246060009Y-106385692D01*
X246310773Y-106213592D01*
X246492032Y-106129067D01*
X250434472Y-104290678D01*
X250352758Y-104825302D01*
G36*
X250352758Y-104825302D02*
G01*
X250385860Y-105251218D01*
X250446199Y-105498924D01*
X250594115Y-105816133D01*
X250720900Y-106088025D01*
X250980578Y-106408287D01*
X251264440Y-106662101D01*
X251506043Y-106825287D01*
X251925850Y-107015708D01*
X252236951Y-107091315D01*
X252750445Y-107127714D01*
X250892514Y-107994082D01*
X250460490Y-108250707D01*
X250185542Y-108489253D01*
X250043489Y-108776170D01*
X249807997Y-108389461D01*
X249394296Y-107975516D01*
X248799332Y-107646094D01*
X248421785Y-107546301D01*
X247841846Y-107485719D01*
X247234669Y-107603345D01*
X246781517Y-107814653D01*
X246415939Y-108095462D01*
X246231624Y-108291747D01*
X245929438Y-108708503D01*
X245751231Y-108681266D01*
X245573023Y-108654027D01*
X245403975Y-108291506D01*
X245325561Y-107886720D01*
X245355851Y-107596750D01*
X245407274Y-107352093D01*
X245479825Y-107152756D01*
X245597695Y-106932285D01*
X245691382Y-106778261D01*
X245830378Y-106603109D01*
X246060009Y-106385692D01*
X246310773Y-106213592D01*
X246492032Y-106129067D01*
X250434472Y-104290678D01*
X250352758Y-104825302D01*
G37*
%TO.C,S49*%
X274505390Y-156620794D02*
X274538492Y-157046710D01*
X274598831Y-157294416D01*
X274746747Y-157611625D01*
X274873532Y-157883517D01*
X275133210Y-158203779D01*
X275417072Y-158457593D01*
X275658675Y-158620779D01*
X276078482Y-158811200D01*
X276389583Y-158886807D01*
X276903077Y-158923206D01*
X275045146Y-159789574D01*
X274613122Y-160046199D01*
X274338174Y-160284745D01*
X274196121Y-160571662D01*
X273960629Y-160184953D01*
X273546928Y-159771008D01*
X272951964Y-159441586D01*
X272574417Y-159341793D01*
X271994478Y-159281211D01*
X271387301Y-159398837D01*
X270934149Y-159610145D01*
X270568571Y-159890954D01*
X270384256Y-160087239D01*
X270082070Y-160503995D01*
X269903863Y-160476758D01*
X269725655Y-160449519D01*
X269556607Y-160086998D01*
X269478193Y-159682212D01*
X269508483Y-159392242D01*
X269559906Y-159147585D01*
X269632457Y-158948248D01*
X269750327Y-158727777D01*
X269844014Y-158573753D01*
X269983010Y-158398601D01*
X270212641Y-158181184D01*
X270463405Y-158009084D01*
X270644664Y-157924559D01*
X274587104Y-156086170D01*
X274505390Y-156620794D01*
G36*
X274505390Y-156620794D02*
G01*
X274538492Y-157046710D01*
X274598831Y-157294416D01*
X274746747Y-157611625D01*
X274873532Y-157883517D01*
X275133210Y-158203779D01*
X275417072Y-158457593D01*
X275658675Y-158620779D01*
X276078482Y-158811200D01*
X276389583Y-158886807D01*
X276903077Y-158923206D01*
X275045146Y-159789574D01*
X274613122Y-160046199D01*
X274338174Y-160284745D01*
X274196121Y-160571662D01*
X273960629Y-160184953D01*
X273546928Y-159771008D01*
X272951964Y-159441586D01*
X272574417Y-159341793D01*
X271994478Y-159281211D01*
X271387301Y-159398837D01*
X270934149Y-159610145D01*
X270568571Y-159890954D01*
X270384256Y-160087239D01*
X270082070Y-160503995D01*
X269903863Y-160476758D01*
X269725655Y-160449519D01*
X269556607Y-160086998D01*
X269478193Y-159682212D01*
X269508483Y-159392242D01*
X269559906Y-159147585D01*
X269632457Y-158948248D01*
X269750327Y-158727777D01*
X269844014Y-158573753D01*
X269983010Y-158398601D01*
X270212641Y-158181184D01*
X270463405Y-158009084D01*
X270644664Y-157924559D01*
X274587104Y-156086170D01*
X274505390Y-156620794D01*
G37*
D12*
%TO.C,D24*%
X161961934Y-177240830D02*
X162130981Y-176878309D01*
X162022029Y-176165474D02*
X162747076Y-176503569D01*
X162130981Y-176878309D02*
X161632512Y-176645867D01*
X162130981Y-176878309D02*
X162022029Y-176165474D01*
X162130981Y-176878309D02*
X162629450Y-177110747D01*
X162384553Y-176334522D02*
X162595862Y-175881368D01*
X162747076Y-176503569D02*
X162130981Y-176878309D01*
D11*
%TO.C,S20*%
X137791913Y-154715711D02*
X138084935Y-154797182D01*
X138266198Y-154881705D01*
X142208637Y-156720094D01*
X141746566Y-157001149D01*
X141441572Y-157300278D01*
X141290603Y-157505725D01*
X141142686Y-157822930D01*
X141015902Y-158094825D01*
X140937483Y-158499610D01*
X140925515Y-158880210D01*
X140955805Y-159170181D01*
X141079781Y-159614174D01*
X141221834Y-159901089D01*
X141524019Y-160317844D01*
X139666088Y-159451477D01*
X139191803Y-159285484D01*
X138832332Y-159228198D01*
X138521233Y-159303803D01*
X138666096Y-158874835D01*
X138717273Y-158291842D01*
X138587191Y-157624325D01*
X138420953Y-157270964D01*
X138094585Y-156787763D01*
X137614192Y-156398243D01*
X137161039Y-156186935D01*
X136710936Y-156087388D01*
X136442100Y-156072363D01*
X135928607Y-156108763D01*
X135834923Y-155954739D01*
X135741239Y-155800716D01*
X135910286Y-155438195D01*
X136169964Y-155117930D01*
X136411564Y-154954747D01*
X136632034Y-154836878D01*
X136831373Y-154764325D01*
X137076025Y-154712902D01*
X137254234Y-154685667D01*
X137477760Y-154679557D01*
X137791913Y-154715711D01*
G36*
X137791913Y-154715711D02*
G01*
X138084935Y-154797182D01*
X138266198Y-154881705D01*
X142208637Y-156720094D01*
X141746566Y-157001149D01*
X141441572Y-157300278D01*
X141290603Y-157505725D01*
X141142686Y-157822930D01*
X141015902Y-158094825D01*
X140937483Y-158499610D01*
X140925515Y-158880210D01*
X140955805Y-159170181D01*
X141079781Y-159614174D01*
X141221834Y-159901089D01*
X141524019Y-160317844D01*
X139666088Y-159451477D01*
X139191803Y-159285484D01*
X138832332Y-159228198D01*
X138521233Y-159303803D01*
X138666096Y-158874835D01*
X138717273Y-158291842D01*
X138587191Y-157624325D01*
X138420953Y-157270964D01*
X138094585Y-156787763D01*
X137614192Y-156398243D01*
X137161039Y-156186935D01*
X136710936Y-156087388D01*
X136442100Y-156072363D01*
X135928607Y-156108763D01*
X135834923Y-155954739D01*
X135741239Y-155800716D01*
X135910286Y-155438195D01*
X136169964Y-155117930D01*
X136411564Y-154954747D01*
X136632034Y-154836878D01*
X136831373Y-154764325D01*
X137076025Y-154712902D01*
X137254234Y-154685667D01*
X137477760Y-154679557D01*
X137791913Y-154715711D01*
G37*
D12*
%TO.C,D23*%
X169905945Y-115128694D02*
X170074992Y-114766173D01*
X169966040Y-114053338D02*
X170691087Y-114391433D01*
X170074992Y-114766173D02*
X169576523Y-114533731D01*
X170074992Y-114766173D02*
X169966040Y-114053338D01*
X170074992Y-114766173D02*
X170573461Y-114998611D01*
X170328564Y-114222386D02*
X170539873Y-113769232D01*
X170691087Y-114391433D02*
X170074992Y-114766173D01*
%TO.C,D53*%
X267688599Y-169509238D02*
X268413647Y-169171143D01*
X268051122Y-169340190D02*
X267839814Y-168887037D01*
X268304693Y-169883977D02*
X267688599Y-169509238D01*
X268304693Y-169883977D02*
X267806224Y-170116417D01*
X268304693Y-169883977D02*
X268803165Y-169651536D01*
X268413647Y-169171143D02*
X268304693Y-169883977D01*
X268473740Y-170246499D02*
X268304693Y-169883977D01*
%TO.C,D15*%
X129544695Y-156607537D02*
X129713742Y-156245016D01*
X129604790Y-155532181D02*
X130329837Y-155870276D01*
X129713742Y-156245016D02*
X129215273Y-156012574D01*
X129713742Y-156245016D02*
X129604790Y-155532181D01*
X129713742Y-156245016D02*
X130212211Y-156477454D01*
X129967314Y-155701229D02*
X130178623Y-155248075D01*
X130329837Y-155870276D02*
X129713742Y-156245016D01*
D11*
%TO.C,S51*%
X258403634Y-122090466D02*
X258436736Y-122516382D01*
X258497075Y-122764088D01*
X258644991Y-123081297D01*
X258771776Y-123353189D01*
X259031454Y-123673451D01*
X259315316Y-123927265D01*
X259556919Y-124090451D01*
X259976726Y-124280872D01*
X260287827Y-124356479D01*
X260801321Y-124392878D01*
X258943390Y-125259246D01*
X258511366Y-125515871D01*
X258236418Y-125754417D01*
X258094365Y-126041334D01*
X257858873Y-125654625D01*
X257445172Y-125240680D01*
X256850208Y-124911258D01*
X256472661Y-124811465D01*
X255892722Y-124750883D01*
X255285545Y-124868509D01*
X254832393Y-125079817D01*
X254466815Y-125360626D01*
X254282500Y-125556911D01*
X253980314Y-125973667D01*
X253802107Y-125946430D01*
X253623899Y-125919191D01*
X253454851Y-125556670D01*
X253376437Y-125151884D01*
X253406727Y-124861914D01*
X253458150Y-124617257D01*
X253530701Y-124417920D01*
X253648571Y-124197449D01*
X253742258Y-124043425D01*
X253881254Y-123868273D01*
X254110885Y-123650856D01*
X254361649Y-123478756D01*
X254542908Y-123394231D01*
X258485348Y-121555842D01*
X258403634Y-122090466D01*
G36*
X258403634Y-122090466D02*
G01*
X258436736Y-122516382D01*
X258497075Y-122764088D01*
X258644991Y-123081297D01*
X258771776Y-123353189D01*
X259031454Y-123673451D01*
X259315316Y-123927265D01*
X259556919Y-124090451D01*
X259976726Y-124280872D01*
X260287827Y-124356479D01*
X260801321Y-124392878D01*
X258943390Y-125259246D01*
X258511366Y-125515871D01*
X258236418Y-125754417D01*
X258094365Y-126041334D01*
X257858873Y-125654625D01*
X257445172Y-125240680D01*
X256850208Y-124911258D01*
X256472661Y-124811465D01*
X255892722Y-124750883D01*
X255285545Y-124868509D01*
X254832393Y-125079817D01*
X254466815Y-125360626D01*
X254282500Y-125556911D01*
X253980314Y-125973667D01*
X253802107Y-125946430D01*
X253623899Y-125919191D01*
X253454851Y-125556670D01*
X253376437Y-125151884D01*
X253406727Y-124861914D01*
X253458150Y-124617257D01*
X253530701Y-124417920D01*
X253648571Y-124197449D01*
X253742258Y-124043425D01*
X253881254Y-123868273D01*
X254110885Y-123650856D01*
X254361649Y-123478756D01*
X254542908Y-123394231D01*
X258485348Y-121555842D01*
X258403634Y-122090466D01*
G37*
%TO.C,S47*%
X266561375Y-94508654D02*
X266594477Y-94934570D01*
X266654816Y-95182276D01*
X266802732Y-95499485D01*
X266929517Y-95771377D01*
X267189195Y-96091639D01*
X267473057Y-96345453D01*
X267714660Y-96508639D01*
X268134467Y-96699060D01*
X268445568Y-96774667D01*
X268959062Y-96811066D01*
X267101131Y-97677434D01*
X266669107Y-97934059D01*
X266394159Y-98172605D01*
X266252106Y-98459522D01*
X266016614Y-98072813D01*
X265602913Y-97658868D01*
X265007949Y-97329446D01*
X264630402Y-97229653D01*
X264050463Y-97169071D01*
X263443286Y-97286697D01*
X262990134Y-97498005D01*
X262624556Y-97778814D01*
X262440241Y-97975099D01*
X262138055Y-98391855D01*
X261959848Y-98364618D01*
X261781640Y-98337379D01*
X261612592Y-97974858D01*
X261534178Y-97570072D01*
X261564468Y-97280102D01*
X261615891Y-97035445D01*
X261688442Y-96836108D01*
X261806312Y-96615637D01*
X261899999Y-96461613D01*
X262038995Y-96286461D01*
X262268626Y-96069044D01*
X262519390Y-95896944D01*
X262700649Y-95812419D01*
X266643089Y-93974030D01*
X266561375Y-94508654D01*
G36*
X266561375Y-94508654D02*
G01*
X266594477Y-94934570D01*
X266654816Y-95182276D01*
X266802732Y-95499485D01*
X266929517Y-95771377D01*
X267189195Y-96091639D01*
X267473057Y-96345453D01*
X267714660Y-96508639D01*
X268134467Y-96699060D01*
X268445568Y-96774667D01*
X268959062Y-96811066D01*
X267101131Y-97677434D01*
X266669107Y-97934059D01*
X266394159Y-98172605D01*
X266252106Y-98459522D01*
X266016614Y-98072813D01*
X265602913Y-97658868D01*
X265007949Y-97329446D01*
X264630402Y-97229653D01*
X264050463Y-97169071D01*
X263443286Y-97286697D01*
X262990134Y-97498005D01*
X262624556Y-97778814D01*
X262440241Y-97975099D01*
X262138055Y-98391855D01*
X261959848Y-98364618D01*
X261781640Y-98337379D01*
X261612592Y-97974858D01*
X261534178Y-97570072D01*
X261564468Y-97280102D01*
X261615891Y-97035445D01*
X261688442Y-96836108D01*
X261806312Y-96615637D01*
X261899999Y-96461613D01*
X262038995Y-96286461D01*
X262268626Y-96069044D01*
X262519390Y-95896944D01*
X262700649Y-95812419D01*
X266643089Y-93974030D01*
X266561375Y-94508654D01*
G37*
%TO.C,S53*%
X258296773Y-166937442D02*
X258329875Y-167363358D01*
X258390214Y-167611064D01*
X258538130Y-167928273D01*
X258664915Y-168200165D01*
X258924593Y-168520427D01*
X259208455Y-168774241D01*
X259450058Y-168937427D01*
X259869865Y-169127848D01*
X260180966Y-169203455D01*
X260694460Y-169239854D01*
X258836529Y-170106222D01*
X258404505Y-170362847D01*
X258129557Y-170601393D01*
X257987504Y-170888310D01*
X257752012Y-170501601D01*
X257338311Y-170087656D01*
X256743347Y-169758234D01*
X256365800Y-169658441D01*
X255785861Y-169597859D01*
X255178684Y-169715485D01*
X254725532Y-169926793D01*
X254359954Y-170207602D01*
X254175639Y-170403887D01*
X253873453Y-170820643D01*
X253695246Y-170793406D01*
X253517038Y-170766167D01*
X253347990Y-170403646D01*
X253269576Y-169998860D01*
X253299866Y-169708890D01*
X253351289Y-169464233D01*
X253423840Y-169264896D01*
X253541710Y-169044425D01*
X253635397Y-168890401D01*
X253774393Y-168715249D01*
X254004024Y-168497832D01*
X254254788Y-168325732D01*
X254436047Y-168241207D01*
X258378487Y-166402818D01*
X258296773Y-166937442D01*
G36*
X258296773Y-166937442D02*
G01*
X258329875Y-167363358D01*
X258390214Y-167611064D01*
X258538130Y-167928273D01*
X258664915Y-168200165D01*
X258924593Y-168520427D01*
X259208455Y-168774241D01*
X259450058Y-168937427D01*
X259869865Y-169127848D01*
X260180966Y-169203455D01*
X260694460Y-169239854D01*
X258836529Y-170106222D01*
X258404505Y-170362847D01*
X258129557Y-170601393D01*
X257987504Y-170888310D01*
X257752012Y-170501601D01*
X257338311Y-170087656D01*
X256743347Y-169758234D01*
X256365800Y-169658441D01*
X255785861Y-169597859D01*
X255178684Y-169715485D01*
X254725532Y-169926793D01*
X254359954Y-170207602D01*
X254175639Y-170403887D01*
X253873453Y-170820643D01*
X253695246Y-170793406D01*
X253517038Y-170766167D01*
X253347990Y-170403646D01*
X253269576Y-169998860D01*
X253299866Y-169708890D01*
X253351289Y-169464233D01*
X253423840Y-169264896D01*
X253541710Y-169044425D01*
X253635397Y-168890401D01*
X253774393Y-168715249D01*
X254004024Y-168497832D01*
X254254788Y-168325732D01*
X254436047Y-168241207D01*
X258378487Y-166402818D01*
X258296773Y-166937442D01*
G37*
D12*
%TO.C,D29*%
X172088454Y-202283577D02*
X172743776Y-201824716D01*
X172416114Y-202054147D02*
X172129327Y-201644570D01*
X172743776Y-201824716D02*
X172760259Y-202545637D01*
X172760259Y-202545637D02*
X172088454Y-202283577D01*
X172760259Y-202545637D02*
X172309727Y-202861104D01*
X172760259Y-202545637D02*
X173210792Y-202230171D01*
X172989691Y-202873298D02*
X172760259Y-202545637D01*
%TO.C,D56*%
X243535964Y-117713750D02*
X244261012Y-117375655D01*
X243898487Y-117544702D02*
X243687179Y-117091549D01*
X244152058Y-118088489D02*
X243535964Y-117713750D01*
X244152058Y-118088489D02*
X243653589Y-118320929D01*
X244152058Y-118088489D02*
X244650530Y-117856048D01*
X244261012Y-117375655D02*
X244152058Y-118088489D01*
X244321105Y-118451011D02*
X244152058Y-118088489D01*
%TO.C,D8*%
X114306897Y-99132830D02*
X114475944Y-98770309D01*
X114366992Y-98057474D02*
X115092039Y-98395569D01*
X114475944Y-98770309D02*
X113977475Y-98537867D01*
X114475944Y-98770309D02*
X114366992Y-98057474D01*
X114475944Y-98770309D02*
X114974413Y-99002747D01*
X114729516Y-98226522D02*
X114940825Y-97773368D01*
X115092039Y-98395569D02*
X114475944Y-98770309D01*
D11*
%TO.C,S23*%
X161944549Y-102920223D02*
X162237571Y-103001694D01*
X162418834Y-103086217D01*
X166361273Y-104924606D01*
X165899202Y-105205661D01*
X165594208Y-105504790D01*
X165443239Y-105710237D01*
X165295322Y-106027442D01*
X165168538Y-106299337D01*
X165090119Y-106704122D01*
X165078151Y-107084722D01*
X165108441Y-107374693D01*
X165232417Y-107818686D01*
X165374470Y-108105601D01*
X165676655Y-108522356D01*
X163818724Y-107655989D01*
X163344439Y-107489996D01*
X162984968Y-107432710D01*
X162673869Y-107508315D01*
X162818732Y-107079347D01*
X162869909Y-106496354D01*
X162739827Y-105828837D01*
X162573589Y-105475476D01*
X162247221Y-104992275D01*
X161766828Y-104602755D01*
X161313675Y-104391447D01*
X160863572Y-104291900D01*
X160594736Y-104276875D01*
X160081243Y-104313275D01*
X159987559Y-104159251D01*
X159893875Y-104005228D01*
X160062922Y-103642707D01*
X160322600Y-103322442D01*
X160564200Y-103159259D01*
X160784670Y-103041390D01*
X160984009Y-102968837D01*
X161228661Y-102917414D01*
X161406870Y-102890179D01*
X161630396Y-102884069D01*
X161944549Y-102920223D01*
G36*
X161944549Y-102920223D02*
G01*
X162237571Y-103001694D01*
X162418834Y-103086217D01*
X166361273Y-104924606D01*
X165899202Y-105205661D01*
X165594208Y-105504790D01*
X165443239Y-105710237D01*
X165295322Y-106027442D01*
X165168538Y-106299337D01*
X165090119Y-106704122D01*
X165078151Y-107084722D01*
X165108441Y-107374693D01*
X165232417Y-107818686D01*
X165374470Y-108105601D01*
X165676655Y-108522356D01*
X163818724Y-107655989D01*
X163344439Y-107489996D01*
X162984968Y-107432710D01*
X162673869Y-107508315D01*
X162818732Y-107079347D01*
X162869909Y-106496354D01*
X162739827Y-105828837D01*
X162573589Y-105475476D01*
X162247221Y-104992275D01*
X161766828Y-104602755D01*
X161313675Y-104391447D01*
X160863572Y-104291900D01*
X160594736Y-104276875D01*
X160081243Y-104313275D01*
X159987559Y-104159251D01*
X159893875Y-104005228D01*
X160062922Y-103642707D01*
X160322600Y-103322442D01*
X160564200Y-103159259D01*
X160784670Y-103041390D01*
X160984009Y-102968837D01*
X161228661Y-102917414D01*
X161406870Y-102890179D01*
X161630396Y-102884069D01*
X161944549Y-102920223D01*
G37*
D12*
%TO.C,D47*%
X275953204Y-97080454D02*
X276678252Y-96742359D01*
X276315727Y-96911406D02*
X276104419Y-96458253D01*
X276569298Y-97455193D02*
X275953204Y-97080454D01*
X276569298Y-97455193D02*
X276070829Y-97687633D01*
X276569298Y-97455193D02*
X277067770Y-97222752D01*
X276678252Y-96742359D02*
X276569298Y-97455193D01*
X276738345Y-97817715D02*
X276569298Y-97455193D01*
%TO.C,D38*%
X326478424Y-160355997D02*
X327203472Y-160017902D01*
X326840947Y-160186949D02*
X326629639Y-159733796D01*
X327094518Y-160730736D02*
X326478424Y-160355997D01*
X327094518Y-160730736D02*
X326596049Y-160963176D01*
X327094518Y-160730736D02*
X327592990Y-160498295D01*
X327203472Y-160017902D02*
X327094518Y-160730736D01*
X327263565Y-161093258D02*
X327094518Y-160730736D01*
%TO.C,D35*%
X331445401Y-125931565D02*
X332170449Y-125593470D01*
X331807924Y-125762517D02*
X331596616Y-125309364D01*
X332061495Y-126306304D02*
X331445401Y-125931565D01*
X332061495Y-126306304D02*
X331563026Y-126538744D01*
X332061495Y-126306304D02*
X332559967Y-126073863D01*
X332170449Y-125593470D02*
X332061495Y-126306304D01*
X332230542Y-126668826D02*
X332061495Y-126306304D01*
%TO.C,D57*%
X272183813Y-187498006D02*
X272719116Y-186903488D01*
X272451465Y-187200748D02*
X272079891Y-186866183D01*
X272719116Y-186903488D02*
X272897352Y-187602227D01*
X272897352Y-187602227D02*
X272183813Y-187498006D01*
X272897352Y-187602227D02*
X272529330Y-188010953D01*
X272897352Y-187602227D02*
X273265374Y-187193498D01*
X273194609Y-187869879D02*
X272897352Y-187602227D01*
D11*
%TO.C,S33*%
X323216980Y-80778562D02*
X323250082Y-81204478D01*
X323310421Y-81452184D01*
X323458337Y-81769393D01*
X323585122Y-82041285D01*
X323844800Y-82361547D01*
X324128662Y-82615361D01*
X324370265Y-82778547D01*
X324790072Y-82968968D01*
X325101173Y-83044575D01*
X325614667Y-83080974D01*
X323756736Y-83947342D01*
X323324712Y-84203967D01*
X323049764Y-84442513D01*
X322907711Y-84729430D01*
X322672219Y-84342721D01*
X322258518Y-83928776D01*
X321663554Y-83599354D01*
X321286007Y-83499561D01*
X320706068Y-83438979D01*
X320098891Y-83556605D01*
X319645739Y-83767913D01*
X319280161Y-84048722D01*
X319095846Y-84245007D01*
X318793660Y-84661763D01*
X318615453Y-84634526D01*
X318437245Y-84607287D01*
X318268197Y-84244766D01*
X318189783Y-83839980D01*
X318220073Y-83550010D01*
X318271496Y-83305353D01*
X318344047Y-83106016D01*
X318461917Y-82885545D01*
X318555604Y-82731521D01*
X318694600Y-82556369D01*
X318924231Y-82338952D01*
X319174995Y-82166852D01*
X319356254Y-82082327D01*
X323298694Y-80243938D01*
X323216980Y-80778562D01*
G36*
X323216980Y-80778562D02*
G01*
X323250082Y-81204478D01*
X323310421Y-81452184D01*
X323458337Y-81769393D01*
X323585122Y-82041285D01*
X323844800Y-82361547D01*
X324128662Y-82615361D01*
X324370265Y-82778547D01*
X324790072Y-82968968D01*
X325101173Y-83044575D01*
X325614667Y-83080974D01*
X323756736Y-83947342D01*
X323324712Y-84203967D01*
X323049764Y-84442513D01*
X322907711Y-84729430D01*
X322672219Y-84342721D01*
X322258518Y-83928776D01*
X321663554Y-83599354D01*
X321286007Y-83499561D01*
X320706068Y-83438979D01*
X320098891Y-83556605D01*
X319645739Y-83767913D01*
X319280161Y-84048722D01*
X319095846Y-84245007D01*
X318793660Y-84661763D01*
X318615453Y-84634526D01*
X318437245Y-84607287D01*
X318268197Y-84244766D01*
X318189783Y-83839980D01*
X318220073Y-83550010D01*
X318271496Y-83305353D01*
X318344047Y-83106016D01*
X318461917Y-82885545D01*
X318555604Y-82731521D01*
X318694600Y-82556369D01*
X318924231Y-82338952D01*
X319174995Y-82166852D01*
X319356254Y-82082327D01*
X323298694Y-80243938D01*
X323216980Y-80778562D01*
G37*
D12*
%TO.C,D36*%
X323394516Y-108666399D02*
X324119564Y-108328304D01*
X323757039Y-108497351D02*
X323545731Y-108044198D01*
X324010610Y-109041138D02*
X323394516Y-108666399D01*
X324010610Y-109041138D02*
X323512141Y-109273578D01*
X324010610Y-109041138D02*
X324509082Y-108808697D01*
X324119564Y-108328304D02*
X324010610Y-109041138D01*
X324179657Y-109403660D02*
X324010610Y-109041138D01*
D11*
%TO.C,S26*%
X170102288Y-130502032D02*
X170395310Y-130583503D01*
X170576573Y-130668026D01*
X174519012Y-132506415D01*
X174056941Y-132787470D01*
X173751947Y-133086599D01*
X173600978Y-133292046D01*
X173453061Y-133609251D01*
X173326277Y-133881146D01*
X173247858Y-134285931D01*
X173235890Y-134666531D01*
X173266180Y-134956502D01*
X173390156Y-135400495D01*
X173532209Y-135687410D01*
X173834394Y-136104165D01*
X171976463Y-135237798D01*
X171502178Y-135071805D01*
X171142707Y-135014519D01*
X170831608Y-135090124D01*
X170976471Y-134661156D01*
X171027648Y-134078163D01*
X170897566Y-133410646D01*
X170731328Y-133057285D01*
X170404960Y-132574084D01*
X169924567Y-132184564D01*
X169471414Y-131973256D01*
X169021311Y-131873709D01*
X168752475Y-131858684D01*
X168238982Y-131895084D01*
X168145298Y-131741060D01*
X168051614Y-131587037D01*
X168220661Y-131224516D01*
X168480339Y-130904251D01*
X168721939Y-130741068D01*
X168942409Y-130623199D01*
X169141748Y-130550646D01*
X169386400Y-130499223D01*
X169564609Y-130471988D01*
X169788135Y-130465878D01*
X170102288Y-130502032D01*
G36*
X170102288Y-130502032D02*
G01*
X170395310Y-130583503D01*
X170576573Y-130668026D01*
X174519012Y-132506415D01*
X174056941Y-132787470D01*
X173751947Y-133086599D01*
X173600978Y-133292046D01*
X173453061Y-133609251D01*
X173326277Y-133881146D01*
X173247858Y-134285931D01*
X173235890Y-134666531D01*
X173266180Y-134956502D01*
X173390156Y-135400495D01*
X173532209Y-135687410D01*
X173834394Y-136104165D01*
X171976463Y-135237798D01*
X171502178Y-135071805D01*
X171142707Y-135014519D01*
X170831608Y-135090124D01*
X170976471Y-134661156D01*
X171027648Y-134078163D01*
X170897566Y-133410646D01*
X170731328Y-133057285D01*
X170404960Y-132574084D01*
X169924567Y-132184564D01*
X169471414Y-131973256D01*
X169021311Y-131873709D01*
X168752475Y-131858684D01*
X168238982Y-131895084D01*
X168145298Y-131741060D01*
X168051614Y-131587037D01*
X168220661Y-131224516D01*
X168480339Y-130904251D01*
X168721939Y-130741068D01*
X168942409Y-130623199D01*
X169141748Y-130550646D01*
X169386400Y-130499223D01*
X169564609Y-130471988D01*
X169788135Y-130465878D01*
X170102288Y-130502032D01*
G37*
D12*
%TO.C,D50*%
X275846343Y-141927428D02*
X276571391Y-141589333D01*
X276208866Y-141758380D02*
X275997558Y-141305227D01*
X276462437Y-142302167D02*
X275846343Y-141927428D01*
X276462437Y-142302167D02*
X275963968Y-142534607D01*
X276462437Y-142302167D02*
X276960909Y-142069726D01*
X276571391Y-141589333D02*
X276462437Y-142302167D01*
X276631484Y-142664689D02*
X276462437Y-142302167D01*
D11*
%TO.C,S15*%
X121583303Y-144399064D02*
X121876325Y-144480535D01*
X122057588Y-144565058D01*
X126000027Y-146403447D01*
X125537956Y-146684502D01*
X125232962Y-146983631D01*
X125081993Y-147189078D01*
X124934076Y-147506283D01*
X124807292Y-147778178D01*
X124728873Y-148182963D01*
X124716905Y-148563563D01*
X124747195Y-148853534D01*
X124871171Y-149297527D01*
X125013224Y-149584442D01*
X125315409Y-150001197D01*
X123457478Y-149134830D01*
X122983193Y-148968837D01*
X122623722Y-148911551D01*
X122312623Y-148987156D01*
X122457486Y-148558188D01*
X122508663Y-147975195D01*
X122378581Y-147307678D01*
X122212343Y-146954317D01*
X121885975Y-146471116D01*
X121405582Y-146081596D01*
X120952429Y-145870288D01*
X120502326Y-145770741D01*
X120233490Y-145755716D01*
X119719997Y-145792116D01*
X119626313Y-145638092D01*
X119532629Y-145484069D01*
X119701676Y-145121548D01*
X119961354Y-144801283D01*
X120202954Y-144638100D01*
X120423424Y-144520231D01*
X120622763Y-144447678D01*
X120867415Y-144396255D01*
X121045624Y-144369020D01*
X121269150Y-144362910D01*
X121583303Y-144399064D01*
G36*
X121583303Y-144399064D02*
G01*
X121876325Y-144480535D01*
X122057588Y-144565058D01*
X126000027Y-146403447D01*
X125537956Y-146684502D01*
X125232962Y-146983631D01*
X125081993Y-147189078D01*
X124934076Y-147506283D01*
X124807292Y-147778178D01*
X124728873Y-148182963D01*
X124716905Y-148563563D01*
X124747195Y-148853534D01*
X124871171Y-149297527D01*
X125013224Y-149584442D01*
X125315409Y-150001197D01*
X123457478Y-149134830D01*
X122983193Y-148968837D01*
X122623722Y-148911551D01*
X122312623Y-148987156D01*
X122457486Y-148558188D01*
X122508663Y-147975195D01*
X122378581Y-147307678D01*
X122212343Y-146954317D01*
X121885975Y-146471116D01*
X121405582Y-146081596D01*
X120952429Y-145870288D01*
X120502326Y-145770741D01*
X120233490Y-145755716D01*
X119719997Y-145792116D01*
X119626313Y-145638092D01*
X119532629Y-145484069D01*
X119701676Y-145121548D01*
X119961354Y-144801283D01*
X120202954Y-144638100D01*
X120423424Y-144520231D01*
X120622763Y-144447678D01*
X120867415Y-144396255D01*
X121045624Y-144369020D01*
X121269150Y-144362910D01*
X121583303Y-144399064D01*
G37*
%TO.C,S46*%
X274612247Y-111773820D02*
X274645349Y-112199736D01*
X274705688Y-112447442D01*
X274853604Y-112764651D01*
X274980389Y-113036543D01*
X275240067Y-113356805D01*
X275523929Y-113610619D01*
X275765532Y-113773805D01*
X276185339Y-113964226D01*
X276496440Y-114039833D01*
X277009934Y-114076232D01*
X275152003Y-114942600D01*
X274719979Y-115199225D01*
X274445031Y-115437771D01*
X274302978Y-115724688D01*
X274067486Y-115337979D01*
X273653785Y-114924034D01*
X273058821Y-114594612D01*
X272681274Y-114494819D01*
X272101335Y-114434237D01*
X271494158Y-114551863D01*
X271041006Y-114763171D01*
X270675428Y-115043980D01*
X270491113Y-115240265D01*
X270188927Y-115657021D01*
X270010720Y-115629784D01*
X269832512Y-115602545D01*
X269663464Y-115240024D01*
X269585050Y-114835238D01*
X269615340Y-114545268D01*
X269666763Y-114300611D01*
X269739314Y-114101274D01*
X269857184Y-113880803D01*
X269950871Y-113726779D01*
X270089867Y-113551627D01*
X270319498Y-113334210D01*
X270570262Y-113162110D01*
X270751521Y-113077585D01*
X274693961Y-111239196D01*
X274612247Y-111773820D01*
G36*
X274612247Y-111773820D02*
G01*
X274645349Y-112199736D01*
X274705688Y-112447442D01*
X274853604Y-112764651D01*
X274980389Y-113036543D01*
X275240067Y-113356805D01*
X275523929Y-113610619D01*
X275765532Y-113773805D01*
X276185339Y-113964226D01*
X276496440Y-114039833D01*
X277009934Y-114076232D01*
X275152003Y-114942600D01*
X274719979Y-115199225D01*
X274445031Y-115437771D01*
X274302978Y-115724688D01*
X274067486Y-115337979D01*
X273653785Y-114924034D01*
X273058821Y-114594612D01*
X272681274Y-114494819D01*
X272101335Y-114434237D01*
X271494158Y-114551863D01*
X271041006Y-114763171D01*
X270675428Y-115043980D01*
X270491113Y-115240265D01*
X270188927Y-115657021D01*
X270010720Y-115629784D01*
X269832512Y-115602545D01*
X269663464Y-115240024D01*
X269585050Y-114835238D01*
X269615340Y-114545268D01*
X269666763Y-114300611D01*
X269739314Y-114101274D01*
X269857184Y-113880803D01*
X269950871Y-113726779D01*
X270089867Y-113551627D01*
X270319498Y-113334210D01*
X270570262Y-113162110D01*
X270751521Y-113077585D01*
X274693961Y-111239196D01*
X274612247Y-111773820D01*
G37*
D12*
%TO.C,D32*%
X340659681Y-100615527D02*
X341384729Y-100277432D01*
X341022204Y-100446479D02*
X340810896Y-99993326D01*
X341275775Y-100990266D02*
X340659681Y-100615527D01*
X341275775Y-100990266D02*
X340777306Y-101222706D01*
X341275775Y-100990266D02*
X341774247Y-100757825D01*
X341384729Y-100277432D02*
X341275775Y-100990266D01*
X341444822Y-101352788D02*
X341275775Y-100990266D01*
D11*
%TO.C,S57*%
X262533703Y-188800336D02*
X262730591Y-189179458D01*
X262882923Y-189383899D01*
X263143020Y-189618096D01*
X263365965Y-189818833D01*
X263730135Y-190012171D01*
X264090605Y-190134896D01*
X264376761Y-190190706D01*
X264837600Y-190201959D01*
X265153511Y-190149999D01*
X265640407Y-189982867D01*
X264268689Y-191506314D01*
X263971281Y-191911343D01*
X263811399Y-192238354D01*
X263792747Y-192557969D01*
X263424875Y-192294016D01*
X262882320Y-192074624D01*
X262205937Y-192003858D01*
X261819410Y-192059521D01*
X261261904Y-192230355D01*
X260748954Y-192575872D01*
X260414388Y-192947443D01*
X260187592Y-193348772D01*
X260094625Y-193601472D01*
X259979301Y-194103170D01*
X259804618Y-194147727D01*
X259629934Y-194192287D01*
X259332677Y-193924635D01*
X259102332Y-193582670D01*
X259016914Y-193303913D01*
X258968656Y-193058616D01*
X258957554Y-192846774D01*
X258979908Y-192597777D01*
X259005962Y-192419392D01*
X259065475Y-192203850D01*
X259191898Y-191913990D01*
X259355481Y-191657593D01*
X259489309Y-191508963D01*
X262400026Y-188276283D01*
X262533703Y-188800336D01*
G36*
X262533703Y-188800336D02*
G01*
X262730591Y-189179458D01*
X262882923Y-189383899D01*
X263143020Y-189618096D01*
X263365965Y-189818833D01*
X263730135Y-190012171D01*
X264090605Y-190134896D01*
X264376761Y-190190706D01*
X264837600Y-190201959D01*
X265153511Y-190149999D01*
X265640407Y-189982867D01*
X264268689Y-191506314D01*
X263971281Y-191911343D01*
X263811399Y-192238354D01*
X263792747Y-192557969D01*
X263424875Y-192294016D01*
X262882320Y-192074624D01*
X262205937Y-192003858D01*
X261819410Y-192059521D01*
X261261904Y-192230355D01*
X260748954Y-192575872D01*
X260414388Y-192947443D01*
X260187592Y-193348772D01*
X260094625Y-193601472D01*
X259979301Y-194103170D01*
X259804618Y-194147727D01*
X259629934Y-194192287D01*
X259332677Y-193924635D01*
X259102332Y-193582670D01*
X259016914Y-193303913D01*
X258968656Y-193058616D01*
X258957554Y-192846774D01*
X258979908Y-192597777D01*
X259005962Y-192419392D01*
X259065475Y-192203850D01*
X259191898Y-191913990D01*
X259355481Y-191657593D01*
X259489309Y-191508963D01*
X262400026Y-188276283D01*
X262533703Y-188800336D01*
G37*
D12*
%TO.C,D34*%
X339496275Y-143196731D02*
X340221323Y-142858636D01*
X339858798Y-143027683D02*
X339647490Y-142574530D01*
X340112369Y-143571470D02*
X339496275Y-143196731D01*
X340112369Y-143571470D02*
X339613900Y-143803910D01*
X340112369Y-143571470D02*
X340610841Y-143339029D01*
X340221323Y-142858636D02*
X340112369Y-143571470D01*
X340281416Y-143933992D02*
X340112369Y-143571470D01*
%TO.C,D55*%
X251586845Y-134978913D02*
X252311893Y-134640818D01*
X251949368Y-134809865D02*
X251738060Y-134356712D01*
X252202939Y-135353652D02*
X251586845Y-134978913D01*
X252202939Y-135353652D02*
X251704470Y-135586092D01*
X252202939Y-135353652D02*
X252701411Y-135121211D01*
X252311893Y-134640818D02*
X252202939Y-135353652D01*
X252371986Y-135716174D02*
X252202939Y-135353652D01*
%TO.C,D14*%
X121493820Y-173872696D02*
X121662867Y-173510175D01*
X121553915Y-172797340D02*
X122278962Y-173135435D01*
X121662867Y-173510175D02*
X121164398Y-173277733D01*
X121662867Y-173510175D02*
X121553915Y-172797340D01*
X121662867Y-173510175D02*
X122161336Y-173742613D01*
X121916439Y-172966388D02*
X122127748Y-172513234D01*
X122278962Y-173135435D02*
X121662867Y-173510175D01*
D11*
%TO.C,S36*%
X314002687Y-106094604D02*
X314035789Y-106520520D01*
X314096128Y-106768226D01*
X314244044Y-107085435D01*
X314370829Y-107357327D01*
X314630507Y-107677589D01*
X314914369Y-107931403D01*
X315155972Y-108094589D01*
X315575779Y-108285010D01*
X315886880Y-108360617D01*
X316400374Y-108397016D01*
X314542443Y-109263384D01*
X314110419Y-109520009D01*
X313835471Y-109758555D01*
X313693418Y-110045472D01*
X313457926Y-109658763D01*
X313044225Y-109244818D01*
X312449261Y-108915396D01*
X312071714Y-108815603D01*
X311491775Y-108755021D01*
X310884598Y-108872647D01*
X310431446Y-109083955D01*
X310065868Y-109364764D01*
X309881553Y-109561049D01*
X309579367Y-109977805D01*
X309401160Y-109950568D01*
X309222952Y-109923329D01*
X309053904Y-109560808D01*
X308975490Y-109156022D01*
X309005780Y-108866052D01*
X309057203Y-108621395D01*
X309129754Y-108422058D01*
X309247624Y-108201587D01*
X309341311Y-108047563D01*
X309480307Y-107872411D01*
X309709938Y-107654994D01*
X309960702Y-107482894D01*
X310141961Y-107398369D01*
X314084401Y-105559980D01*
X314002687Y-106094604D01*
G36*
X314002687Y-106094604D02*
G01*
X314035789Y-106520520D01*
X314096128Y-106768226D01*
X314244044Y-107085435D01*
X314370829Y-107357327D01*
X314630507Y-107677589D01*
X314914369Y-107931403D01*
X315155972Y-108094589D01*
X315575779Y-108285010D01*
X315886880Y-108360617D01*
X316400374Y-108397016D01*
X314542443Y-109263384D01*
X314110419Y-109520009D01*
X313835471Y-109758555D01*
X313693418Y-110045472D01*
X313457926Y-109658763D01*
X313044225Y-109244818D01*
X312449261Y-108915396D01*
X312071714Y-108815603D01*
X311491775Y-108755021D01*
X310884598Y-108872647D01*
X310431446Y-109083955D01*
X310065868Y-109364764D01*
X309881553Y-109561049D01*
X309579367Y-109977805D01*
X309401160Y-109950568D01*
X309222952Y-109923329D01*
X309053904Y-109560808D01*
X308975490Y-109156022D01*
X309005780Y-108866052D01*
X309057203Y-108621395D01*
X309129754Y-108422058D01*
X309247624Y-108201587D01*
X309341311Y-108047563D01*
X309480307Y-107872411D01*
X309709938Y-107654994D01*
X309960702Y-107482894D01*
X310141961Y-107398369D01*
X314084401Y-105559980D01*
X314002687Y-106094604D01*
G37*
%TO.C,S3*%
X81029455Y-96138645D02*
X81322477Y-96220116D01*
X81503740Y-96304639D01*
X85446179Y-98143028D01*
X84984108Y-98424083D01*
X84679114Y-98723212D01*
X84528145Y-98928659D01*
X84380228Y-99245864D01*
X84253444Y-99517759D01*
X84175025Y-99922544D01*
X84163057Y-100303144D01*
X84193347Y-100593115D01*
X84317323Y-101037108D01*
X84459376Y-101324023D01*
X84761561Y-101740778D01*
X82903630Y-100874411D01*
X82429345Y-100708418D01*
X82069874Y-100651132D01*
X81758775Y-100726737D01*
X81903638Y-100297769D01*
X81954815Y-99714776D01*
X81824733Y-99047259D01*
X81658495Y-98693898D01*
X81332127Y-98210697D01*
X80851734Y-97821177D01*
X80398581Y-97609869D01*
X79948478Y-97510322D01*
X79679642Y-97495297D01*
X79166149Y-97531697D01*
X79072465Y-97377673D01*
X78978781Y-97223650D01*
X79147828Y-96861129D01*
X79407506Y-96540864D01*
X79649106Y-96377681D01*
X79869576Y-96259812D01*
X80068915Y-96187259D01*
X80313567Y-96135836D01*
X80491776Y-96108601D01*
X80715302Y-96102491D01*
X81029455Y-96138645D01*
G36*
X81029455Y-96138645D02*
G01*
X81322477Y-96220116D01*
X81503740Y-96304639D01*
X85446179Y-98143028D01*
X84984108Y-98424083D01*
X84679114Y-98723212D01*
X84528145Y-98928659D01*
X84380228Y-99245864D01*
X84253444Y-99517759D01*
X84175025Y-99922544D01*
X84163057Y-100303144D01*
X84193347Y-100593115D01*
X84317323Y-101037108D01*
X84459376Y-101324023D01*
X84761561Y-101740778D01*
X82903630Y-100874411D01*
X82429345Y-100708418D01*
X82069874Y-100651132D01*
X81758775Y-100726737D01*
X81903638Y-100297769D01*
X81954815Y-99714776D01*
X81824733Y-99047259D01*
X81658495Y-98693898D01*
X81332127Y-98210697D01*
X80851734Y-97821177D01*
X80398581Y-97609869D01*
X79948478Y-97510322D01*
X79679642Y-97495297D01*
X79166149Y-97531697D01*
X79072465Y-97377673D01*
X78978781Y-97223650D01*
X79147828Y-96861129D01*
X79407506Y-96540864D01*
X79649106Y-96377681D01*
X79869576Y-96259812D01*
X80068915Y-96187259D01*
X80313567Y-96135836D01*
X80491776Y-96108601D01*
X80715302Y-96102491D01*
X81029455Y-96138645D01*
G37*
%TO.C,S18*%
X145735933Y-92603577D02*
X146028955Y-92685048D01*
X146210218Y-92769571D01*
X150152657Y-94607960D01*
X149690586Y-94889015D01*
X149385592Y-95188144D01*
X149234623Y-95393591D01*
X149086706Y-95710796D01*
X148959922Y-95982691D01*
X148881503Y-96387476D01*
X148869535Y-96768076D01*
X148899825Y-97058047D01*
X149023801Y-97502040D01*
X149165854Y-97788955D01*
X149468039Y-98205710D01*
X147610108Y-97339343D01*
X147135823Y-97173350D01*
X146776352Y-97116064D01*
X146465253Y-97191669D01*
X146610116Y-96762701D01*
X146661293Y-96179708D01*
X146531211Y-95512191D01*
X146364973Y-95158830D01*
X146038605Y-94675629D01*
X145558212Y-94286109D01*
X145105059Y-94074801D01*
X144654956Y-93975254D01*
X144386120Y-93960229D01*
X143872627Y-93996629D01*
X143778943Y-93842605D01*
X143685259Y-93688582D01*
X143854306Y-93326061D01*
X144113984Y-93005796D01*
X144355584Y-92842613D01*
X144576054Y-92724744D01*
X144775393Y-92652191D01*
X145020045Y-92600768D01*
X145198254Y-92573533D01*
X145421780Y-92567423D01*
X145735933Y-92603577D01*
G36*
X145735933Y-92603577D02*
G01*
X146028955Y-92685048D01*
X146210218Y-92769571D01*
X150152657Y-94607960D01*
X149690586Y-94889015D01*
X149385592Y-95188144D01*
X149234623Y-95393591D01*
X149086706Y-95710796D01*
X148959922Y-95982691D01*
X148881503Y-96387476D01*
X148869535Y-96768076D01*
X148899825Y-97058047D01*
X149023801Y-97502040D01*
X149165854Y-97788955D01*
X149468039Y-98205710D01*
X147610108Y-97339343D01*
X147135823Y-97173350D01*
X146776352Y-97116064D01*
X146465253Y-97191669D01*
X146610116Y-96762701D01*
X146661293Y-96179708D01*
X146531211Y-95512191D01*
X146364973Y-95158830D01*
X146038605Y-94675629D01*
X145558212Y-94286109D01*
X145105059Y-94074801D01*
X144654956Y-93975254D01*
X144386120Y-93960229D01*
X143872627Y-93996629D01*
X143778943Y-93842605D01*
X143685259Y-93688582D01*
X143854306Y-93326061D01*
X144113984Y-93005796D01*
X144355584Y-92842613D01*
X144576054Y-92724744D01*
X144775393Y-92652191D01*
X145020045Y-92600768D01*
X145198254Y-92573533D01*
X145421780Y-92567423D01*
X145735933Y-92603577D01*
G37*
D12*
%TO.C,D40*%
X310376670Y-125825672D02*
X311101718Y-125487577D01*
X310739193Y-125656624D02*
X310527885Y-125203471D01*
X310992764Y-126200411D02*
X310376670Y-125825672D01*
X310992764Y-126200411D02*
X310494295Y-126432851D01*
X310992764Y-126200411D02*
X311491236Y-125967970D01*
X311101718Y-125487577D02*
X310992764Y-126200411D01*
X311161811Y-126562933D02*
X310992764Y-126200411D01*
D11*
%TO.C,S48*%
X282556269Y-173885959D02*
X282589371Y-174311875D01*
X282649710Y-174559581D01*
X282797626Y-174876790D01*
X282924411Y-175148682D01*
X283184089Y-175468944D01*
X283467951Y-175722758D01*
X283709554Y-175885944D01*
X284129361Y-176076365D01*
X284440462Y-176151972D01*
X284953956Y-176188371D01*
X283096025Y-177054739D01*
X282664001Y-177311364D01*
X282389053Y-177549910D01*
X282247000Y-177836827D01*
X282011508Y-177450118D01*
X281597807Y-177036173D01*
X281002843Y-176706751D01*
X280625296Y-176606958D01*
X280045357Y-176546376D01*
X279438180Y-176664002D01*
X278985028Y-176875310D01*
X278619450Y-177156119D01*
X278435135Y-177352404D01*
X278132949Y-177769160D01*
X277954742Y-177741923D01*
X277776534Y-177714684D01*
X277607486Y-177352163D01*
X277529072Y-176947377D01*
X277559362Y-176657407D01*
X277610785Y-176412750D01*
X277683336Y-176213413D01*
X277801206Y-175992942D01*
X277894893Y-175838918D01*
X278033889Y-175663766D01*
X278263520Y-175446349D01*
X278514284Y-175274249D01*
X278695543Y-175189724D01*
X282637983Y-173351335D01*
X282556269Y-173885959D01*
G36*
X282556269Y-173885959D02*
G01*
X282589371Y-174311875D01*
X282649710Y-174559581D01*
X282797626Y-174876790D01*
X282924411Y-175148682D01*
X283184089Y-175468944D01*
X283467951Y-175722758D01*
X283709554Y-175885944D01*
X284129361Y-176076365D01*
X284440462Y-176151972D01*
X284953956Y-176188371D01*
X283096025Y-177054739D01*
X282664001Y-177311364D01*
X282389053Y-177549910D01*
X282247000Y-177836827D01*
X282011508Y-177450118D01*
X281597807Y-177036173D01*
X281002843Y-176706751D01*
X280625296Y-176606958D01*
X280045357Y-176546376D01*
X279438180Y-176664002D01*
X278985028Y-176875310D01*
X278619450Y-177156119D01*
X278435135Y-177352404D01*
X278132949Y-177769160D01*
X277954742Y-177741923D01*
X277776534Y-177714684D01*
X277607486Y-177352163D01*
X277529072Y-176947377D01*
X277559362Y-176657407D01*
X277610785Y-176412750D01*
X277683336Y-176213413D01*
X277801206Y-175992942D01*
X277894893Y-175838918D01*
X278033889Y-175663766D01*
X278263520Y-175446349D01*
X278514284Y-175274249D01*
X278695543Y-175189724D01*
X282637983Y-173351335D01*
X282556269Y-173885959D01*
G37*
D12*
%TO.C,D13*%
X135375617Y-99026935D02*
X135544664Y-98664414D01*
X135435712Y-97951579D02*
X136160759Y-98289674D01*
X135544664Y-98664414D02*
X135046195Y-98431972D01*
X135544664Y-98664414D02*
X135435712Y-97951579D01*
X135544664Y-98664414D02*
X136043133Y-98896852D01*
X135798236Y-98120627D02*
X136009545Y-97667473D01*
X136160759Y-98289674D02*
X135544664Y-98664414D01*
%TO.C,D46*%
X284004082Y-114345620D02*
X284729130Y-114007525D01*
X284366605Y-114176572D02*
X284155297Y-113723419D01*
X284620176Y-114720359D02*
X284004082Y-114345620D01*
X284620176Y-114720359D02*
X284121707Y-114952799D01*
X284620176Y-114720359D02*
X285118648Y-114487918D01*
X284729130Y-114007525D02*
X284620176Y-114720359D01*
X284789223Y-115082881D02*
X284620176Y-114720359D01*
D11*
%TO.C,S28*%
X149854335Y-185489643D02*
X150099632Y-185537902D01*
X150274317Y-185582461D01*
X150482457Y-185664175D01*
X150757511Y-185820207D01*
X150995406Y-186009694D01*
X151129233Y-186158322D01*
X154039951Y-189391004D01*
X153504798Y-189469168D01*
X153107168Y-189625350D01*
X152887927Y-189755475D01*
X152627826Y-189989671D01*
X152404883Y-190190409D01*
X152174537Y-190532375D01*
X152014808Y-190878043D01*
X151929390Y-191156797D01*
X151870028Y-191613939D01*
X151888682Y-191933548D01*
X152004005Y-192435247D01*
X150632287Y-190911801D01*
X150260564Y-190573683D01*
X149952054Y-190380497D01*
X149636142Y-190328535D01*
X149937102Y-189990270D01*
X150212005Y-189473620D01*
X150353081Y-188808340D01*
X150338129Y-188418113D01*
X150226506Y-187845803D01*
X149936500Y-187299545D01*
X149601935Y-186927973D01*
X149226510Y-186660469D01*
X148984915Y-186541598D01*
X148498021Y-186374465D01*
X148471965Y-186196080D01*
X148445909Y-186017696D01*
X148743168Y-185750043D01*
X149107340Y-185556706D01*
X149393494Y-185500895D01*
X149642493Y-185478542D01*
X149854335Y-185489643D01*
G36*
X149854335Y-185489643D02*
G01*
X150099632Y-185537902D01*
X150274317Y-185582461D01*
X150482457Y-185664175D01*
X150757511Y-185820207D01*
X150995406Y-186009694D01*
X151129233Y-186158322D01*
X154039951Y-189391004D01*
X153504798Y-189469168D01*
X153107168Y-189625350D01*
X152887927Y-189755475D01*
X152627826Y-189989671D01*
X152404883Y-190190409D01*
X152174537Y-190532375D01*
X152014808Y-190878043D01*
X151929390Y-191156797D01*
X151870028Y-191613939D01*
X151888682Y-191933548D01*
X152004005Y-192435247D01*
X150632287Y-190911801D01*
X150260564Y-190573683D01*
X149952054Y-190380497D01*
X149636142Y-190328535D01*
X149937102Y-189990270D01*
X150212005Y-189473620D01*
X150353081Y-188808340D01*
X150338129Y-188418113D01*
X150226506Y-187845803D01*
X149936500Y-187299545D01*
X149601935Y-186927973D01*
X149226510Y-186660469D01*
X148984915Y-186541598D01*
X148498021Y-186374465D01*
X148471965Y-186196080D01*
X148445909Y-186017696D01*
X148743168Y-185750043D01*
X149107340Y-185556706D01*
X149393494Y-185500895D01*
X149642493Y-185478542D01*
X149854335Y-185489643D01*
G37*
%TO.C,S42*%
X284883083Y-88723548D02*
X284916185Y-89149464D01*
X284976524Y-89397170D01*
X285124440Y-89714379D01*
X285251225Y-89986271D01*
X285510903Y-90306533D01*
X285794765Y-90560347D01*
X286036368Y-90723533D01*
X286456175Y-90913954D01*
X286767276Y-90989561D01*
X287280770Y-91025960D01*
X285422839Y-91892328D01*
X284990815Y-92148953D01*
X284715867Y-92387499D01*
X284573814Y-92674416D01*
X284338322Y-92287707D01*
X283924621Y-91873762D01*
X283329657Y-91544340D01*
X282952110Y-91444547D01*
X282372171Y-91383965D01*
X281764994Y-91501591D01*
X281311842Y-91712899D01*
X280946264Y-91993708D01*
X280761949Y-92189993D01*
X280459763Y-92606749D01*
X280281556Y-92579512D01*
X280103348Y-92552273D01*
X279934300Y-92189752D01*
X279855886Y-91784966D01*
X279886176Y-91494996D01*
X279937599Y-91250339D01*
X280010150Y-91051002D01*
X280128020Y-90830531D01*
X280221707Y-90676507D01*
X280360703Y-90501355D01*
X280590334Y-90283938D01*
X280841098Y-90111838D01*
X281022357Y-90027313D01*
X284964797Y-88188924D01*
X284883083Y-88723548D01*
G36*
X284883083Y-88723548D02*
G01*
X284916185Y-89149464D01*
X284976524Y-89397170D01*
X285124440Y-89714379D01*
X285251225Y-89986271D01*
X285510903Y-90306533D01*
X285794765Y-90560347D01*
X286036368Y-90723533D01*
X286456175Y-90913954D01*
X286767276Y-90989561D01*
X287280770Y-91025960D01*
X285422839Y-91892328D01*
X284990815Y-92148953D01*
X284715867Y-92387499D01*
X284573814Y-92674416D01*
X284338322Y-92287707D01*
X283924621Y-91873762D01*
X283329657Y-91544340D01*
X282952110Y-91444547D01*
X282372171Y-91383965D01*
X281764994Y-91501591D01*
X281311842Y-91712899D01*
X280946264Y-91993708D01*
X280761949Y-92189993D01*
X280459763Y-92606749D01*
X280281556Y-92579512D01*
X280103348Y-92552273D01*
X279934300Y-92189752D01*
X279855886Y-91784966D01*
X279886176Y-91494996D01*
X279937599Y-91250339D01*
X280010150Y-91051002D01*
X280128020Y-90830531D01*
X280221707Y-90676507D01*
X280360703Y-90501355D01*
X280590334Y-90283938D01*
X280841098Y-90111838D01*
X281022357Y-90027313D01*
X284964797Y-88188924D01*
X284883083Y-88723548D01*
G37*
%TO.C,S13*%
X127414220Y-86818466D02*
X127707242Y-86899937D01*
X127888505Y-86984460D01*
X131830944Y-88822849D01*
X131368873Y-89103904D01*
X131063879Y-89403033D01*
X130912910Y-89608480D01*
X130764993Y-89925685D01*
X130638209Y-90197580D01*
X130559790Y-90602365D01*
X130547822Y-90982965D01*
X130578112Y-91272936D01*
X130702088Y-91716929D01*
X130844141Y-92003844D01*
X131146326Y-92420599D01*
X129288395Y-91554232D01*
X128814110Y-91388239D01*
X128454639Y-91330953D01*
X128143540Y-91406558D01*
X128288403Y-90977590D01*
X128339580Y-90394597D01*
X128209498Y-89727080D01*
X128043260Y-89373719D01*
X127716892Y-88890518D01*
X127236499Y-88500998D01*
X126783346Y-88289690D01*
X126333243Y-88190143D01*
X126064407Y-88175118D01*
X125550914Y-88211518D01*
X125457230Y-88057494D01*
X125363546Y-87903471D01*
X125532593Y-87540950D01*
X125792271Y-87220685D01*
X126033871Y-87057502D01*
X126254341Y-86939633D01*
X126453680Y-86867080D01*
X126698332Y-86815657D01*
X126876541Y-86788422D01*
X127100067Y-86782312D01*
X127414220Y-86818466D01*
G36*
X127414220Y-86818466D02*
G01*
X127707242Y-86899937D01*
X127888505Y-86984460D01*
X131830944Y-88822849D01*
X131368873Y-89103904D01*
X131063879Y-89403033D01*
X130912910Y-89608480D01*
X130764993Y-89925685D01*
X130638209Y-90197580D01*
X130559790Y-90602365D01*
X130547822Y-90982965D01*
X130578112Y-91272936D01*
X130702088Y-91716929D01*
X130844141Y-92003844D01*
X131146326Y-92420599D01*
X129288395Y-91554232D01*
X128814110Y-91388239D01*
X128454639Y-91330953D01*
X128143540Y-91406558D01*
X128288403Y-90977590D01*
X128339580Y-90394597D01*
X128209498Y-89727080D01*
X128043260Y-89373719D01*
X127716892Y-88890518D01*
X127236499Y-88500998D01*
X126783346Y-88289690D01*
X126333243Y-88190143D01*
X126064407Y-88175118D01*
X125550914Y-88211518D01*
X125457230Y-88057494D01*
X125363546Y-87903471D01*
X125532593Y-87540950D01*
X125792271Y-87220685D01*
X126033871Y-87057502D01*
X126254341Y-86939633D01*
X126453680Y-86867080D01*
X126698332Y-86815657D01*
X126876541Y-86788422D01*
X127100067Y-86782312D01*
X127414220Y-86818466D01*
G37*
%TO.C,S38*%
X317086591Y-157784202D02*
X317119693Y-158210118D01*
X317180032Y-158457824D01*
X317327948Y-158775033D01*
X317454733Y-159046925D01*
X317714411Y-159367187D01*
X317998273Y-159621001D01*
X318239876Y-159784187D01*
X318659683Y-159974608D01*
X318970784Y-160050215D01*
X319484278Y-160086614D01*
X317626347Y-160952982D01*
X317194323Y-161209607D01*
X316919375Y-161448153D01*
X316777322Y-161735070D01*
X316541830Y-161348361D01*
X316128129Y-160934416D01*
X315533165Y-160604994D01*
X315155618Y-160505201D01*
X314575679Y-160444619D01*
X313968502Y-160562245D01*
X313515350Y-160773553D01*
X313149772Y-161054362D01*
X312965457Y-161250647D01*
X312663271Y-161667403D01*
X312485064Y-161640166D01*
X312306856Y-161612927D01*
X312137808Y-161250406D01*
X312059394Y-160845620D01*
X312089684Y-160555650D01*
X312141107Y-160310993D01*
X312213658Y-160111656D01*
X312331528Y-159891185D01*
X312425215Y-159737161D01*
X312564211Y-159562009D01*
X312793842Y-159344592D01*
X313044606Y-159172492D01*
X313225865Y-159087967D01*
X317168305Y-157249578D01*
X317086591Y-157784202D01*
G36*
X317086591Y-157784202D02*
G01*
X317119693Y-158210118D01*
X317180032Y-158457824D01*
X317327948Y-158775033D01*
X317454733Y-159046925D01*
X317714411Y-159367187D01*
X317998273Y-159621001D01*
X318239876Y-159784187D01*
X318659683Y-159974608D01*
X318970784Y-160050215D01*
X319484278Y-160086614D01*
X317626347Y-160952982D01*
X317194323Y-161209607D01*
X316919375Y-161448153D01*
X316777322Y-161735070D01*
X316541830Y-161348361D01*
X316128129Y-160934416D01*
X315533165Y-160604994D01*
X315155618Y-160505201D01*
X314575679Y-160444619D01*
X313968502Y-160562245D01*
X313515350Y-160773553D01*
X313149772Y-161054362D01*
X312965457Y-161250647D01*
X312663271Y-161667403D01*
X312485064Y-161640166D01*
X312306856Y-161612927D01*
X312137808Y-161250406D01*
X312059394Y-160845620D01*
X312089684Y-160555650D01*
X312141107Y-160310993D01*
X312213658Y-160111656D01*
X312331528Y-159891185D01*
X312425215Y-159737161D01*
X312564211Y-159562009D01*
X312793842Y-159344592D01*
X313044606Y-159172492D01*
X313225865Y-159087967D01*
X317168305Y-157249578D01*
X317086591Y-157784202D01*
G37*
%TO.C,S4*%
X89080331Y-78873481D02*
X89373353Y-78954952D01*
X89554616Y-79039475D01*
X93497055Y-80877864D01*
X93034984Y-81158919D01*
X92729990Y-81458048D01*
X92579021Y-81663495D01*
X92431104Y-81980700D01*
X92304320Y-82252595D01*
X92225901Y-82657380D01*
X92213933Y-83037980D01*
X92244223Y-83327951D01*
X92368199Y-83771944D01*
X92510252Y-84058859D01*
X92812437Y-84475614D01*
X90954506Y-83609247D01*
X90480221Y-83443254D01*
X90120750Y-83385968D01*
X89809651Y-83461573D01*
X89954514Y-83032605D01*
X90005691Y-82449612D01*
X89875609Y-81782095D01*
X89709371Y-81428734D01*
X89383003Y-80945533D01*
X88902610Y-80556013D01*
X88449457Y-80344705D01*
X87999354Y-80245158D01*
X87730518Y-80230133D01*
X87217025Y-80266533D01*
X87123341Y-80112509D01*
X87029657Y-79958486D01*
X87198704Y-79595965D01*
X87458382Y-79275700D01*
X87699982Y-79112517D01*
X87920452Y-78994648D01*
X88119791Y-78922095D01*
X88364443Y-78870672D01*
X88542652Y-78843437D01*
X88766178Y-78837327D01*
X89080331Y-78873481D01*
G36*
X89080331Y-78873481D02*
G01*
X89373353Y-78954952D01*
X89554616Y-79039475D01*
X93497055Y-80877864D01*
X93034984Y-81158919D01*
X92729990Y-81458048D01*
X92579021Y-81663495D01*
X92431104Y-81980700D01*
X92304320Y-82252595D01*
X92225901Y-82657380D01*
X92213933Y-83037980D01*
X92244223Y-83327951D01*
X92368199Y-83771944D01*
X92510252Y-84058859D01*
X92812437Y-84475614D01*
X90954506Y-83609247D01*
X90480221Y-83443254D01*
X90120750Y-83385968D01*
X89809651Y-83461573D01*
X89954514Y-83032605D01*
X90005691Y-82449612D01*
X89875609Y-81782095D01*
X89709371Y-81428734D01*
X89383003Y-80945533D01*
X88902610Y-80556013D01*
X88449457Y-80344705D01*
X87999354Y-80245158D01*
X87730518Y-80230133D01*
X87217025Y-80266533D01*
X87123341Y-80112509D01*
X87029657Y-79958486D01*
X87198704Y-79595965D01*
X87458382Y-79275700D01*
X87699982Y-79112517D01*
X87920452Y-78994648D01*
X88119791Y-78922095D01*
X88364443Y-78870672D01*
X88542652Y-78843437D01*
X88766178Y-78837327D01*
X89080331Y-78873481D01*
G37*
D12*
%TO.C,D19*%
X137702436Y-184189348D02*
X137871483Y-183826827D01*
X137762531Y-183113992D02*
X138487578Y-183452087D01*
X137871483Y-183826827D02*
X137373014Y-183594385D01*
X137871483Y-183826827D02*
X137762531Y-183113992D01*
X137871483Y-183826827D02*
X138369952Y-184059265D01*
X138125055Y-183283040D02*
X138336364Y-182829886D01*
X138487578Y-183452087D02*
X137871483Y-183826827D01*
%TO.C,D28*%
X153315787Y-200168928D02*
X153613044Y-199901276D01*
X153613044Y-199901276D02*
X153245022Y-199492547D01*
X153613044Y-199901276D02*
X153791279Y-199202539D01*
X153613044Y-199901276D02*
X153981069Y-200310004D01*
X153791279Y-199202539D02*
X154326583Y-199797054D01*
X154058931Y-199499797D02*
X154430505Y-199165232D01*
X154326583Y-199797054D02*
X153613044Y-199901276D01*
D11*
%TO.C,S8*%
X106345497Y-86924359D02*
X106638519Y-87005830D01*
X106819782Y-87090353D01*
X110762221Y-88928742D01*
X110300150Y-89209797D01*
X109995156Y-89508926D01*
X109844187Y-89714373D01*
X109696270Y-90031578D01*
X109569486Y-90303473D01*
X109491067Y-90708258D01*
X109479099Y-91088858D01*
X109509389Y-91378829D01*
X109633365Y-91822822D01*
X109775418Y-92109737D01*
X110077603Y-92526492D01*
X108219672Y-91660125D01*
X107745387Y-91494132D01*
X107385916Y-91436846D01*
X107074817Y-91512451D01*
X107219680Y-91083483D01*
X107270857Y-90500490D01*
X107140775Y-89832973D01*
X106974537Y-89479612D01*
X106648169Y-88996411D01*
X106167776Y-88606891D01*
X105714623Y-88395583D01*
X105264520Y-88296036D01*
X104995684Y-88281011D01*
X104482191Y-88317411D01*
X104388507Y-88163387D01*
X104294823Y-88009364D01*
X104463870Y-87646843D01*
X104723548Y-87326578D01*
X104965148Y-87163395D01*
X105185618Y-87045526D01*
X105384957Y-86972973D01*
X105629609Y-86921550D01*
X105807818Y-86894315D01*
X106031344Y-86888205D01*
X106345497Y-86924359D01*
G36*
X106345497Y-86924359D02*
G01*
X106638519Y-87005830D01*
X106819782Y-87090353D01*
X110762221Y-88928742D01*
X110300150Y-89209797D01*
X109995156Y-89508926D01*
X109844187Y-89714373D01*
X109696270Y-90031578D01*
X109569486Y-90303473D01*
X109491067Y-90708258D01*
X109479099Y-91088858D01*
X109509389Y-91378829D01*
X109633365Y-91822822D01*
X109775418Y-92109737D01*
X110077603Y-92526492D01*
X108219672Y-91660125D01*
X107745387Y-91494132D01*
X107385916Y-91436846D01*
X107074817Y-91512451D01*
X107219680Y-91083483D01*
X107270857Y-90500490D01*
X107140775Y-89832973D01*
X106974537Y-89479612D01*
X106648169Y-88996411D01*
X106167776Y-88606891D01*
X105714623Y-88395583D01*
X105264520Y-88296036D01*
X104995684Y-88281011D01*
X104482191Y-88317411D01*
X104388507Y-88163387D01*
X104294823Y-88009364D01*
X104463870Y-87646843D01*
X104723548Y-87326578D01*
X104965148Y-87163395D01*
X105185618Y-87045526D01*
X105384957Y-86972973D01*
X105629609Y-86921550D01*
X105807818Y-86894315D01*
X106031344Y-86888205D01*
X106345497Y-86924359D01*
G37*
%TO.C,S17*%
X137685055Y-109868739D02*
X137978077Y-109950210D01*
X138159340Y-110034733D01*
X142101779Y-111873122D01*
X141639708Y-112154177D01*
X141334714Y-112453306D01*
X141183745Y-112658753D01*
X141035828Y-112975958D01*
X140909044Y-113247853D01*
X140830625Y-113652638D01*
X140818657Y-114033238D01*
X140848947Y-114323209D01*
X140972923Y-114767202D01*
X141114976Y-115054117D01*
X141417161Y-115470872D01*
X139559230Y-114604505D01*
X139084945Y-114438512D01*
X138725474Y-114381226D01*
X138414375Y-114456831D01*
X138559238Y-114027863D01*
X138610415Y-113444870D01*
X138480333Y-112777353D01*
X138314095Y-112423992D01*
X137987727Y-111940791D01*
X137507334Y-111551271D01*
X137054181Y-111339963D01*
X136604078Y-111240416D01*
X136335242Y-111225391D01*
X135821749Y-111261791D01*
X135728065Y-111107767D01*
X135634381Y-110953744D01*
X135803428Y-110591223D01*
X136063106Y-110270958D01*
X136304706Y-110107775D01*
X136525176Y-109989906D01*
X136724515Y-109917353D01*
X136969167Y-109865930D01*
X137147376Y-109838695D01*
X137370902Y-109832585D01*
X137685055Y-109868739D01*
G36*
X137685055Y-109868739D02*
G01*
X137978077Y-109950210D01*
X138159340Y-110034733D01*
X142101779Y-111873122D01*
X141639708Y-112154177D01*
X141334714Y-112453306D01*
X141183745Y-112658753D01*
X141035828Y-112975958D01*
X140909044Y-113247853D01*
X140830625Y-113652638D01*
X140818657Y-114033238D01*
X140848947Y-114323209D01*
X140972923Y-114767202D01*
X141114976Y-115054117D01*
X141417161Y-115470872D01*
X139559230Y-114604505D01*
X139084945Y-114438512D01*
X138725474Y-114381226D01*
X138414375Y-114456831D01*
X138559238Y-114027863D01*
X138610415Y-113444870D01*
X138480333Y-112777353D01*
X138314095Y-112423992D01*
X137987727Y-111940791D01*
X137507334Y-111551271D01*
X137054181Y-111339963D01*
X136604078Y-111240416D01*
X136335242Y-111225391D01*
X135821749Y-111261791D01*
X135728065Y-111107767D01*
X135634381Y-110953744D01*
X135803428Y-110591223D01*
X136063106Y-110270958D01*
X136304706Y-110107775D01*
X136525176Y-109989906D01*
X136724515Y-109917353D01*
X136969167Y-109865930D01*
X137147376Y-109838695D01*
X137370902Y-109832585D01*
X137685055Y-109868739D01*
G37*
%TO.C,S16*%
X129634176Y-127133901D02*
X129927198Y-127215372D01*
X130108461Y-127299895D01*
X134050900Y-129138284D01*
X133588829Y-129419339D01*
X133283835Y-129718468D01*
X133132866Y-129923915D01*
X132984949Y-130241120D01*
X132858165Y-130513015D01*
X132779746Y-130917800D01*
X132767778Y-131298400D01*
X132798068Y-131588371D01*
X132922044Y-132032364D01*
X133064097Y-132319279D01*
X133366282Y-132736034D01*
X131508351Y-131869667D01*
X131034066Y-131703674D01*
X130674595Y-131646388D01*
X130363496Y-131721993D01*
X130508359Y-131293025D01*
X130559536Y-130710032D01*
X130429454Y-130042515D01*
X130263216Y-129689154D01*
X129936848Y-129205953D01*
X129456455Y-128816433D01*
X129003302Y-128605125D01*
X128553199Y-128505578D01*
X128284363Y-128490553D01*
X127770870Y-128526953D01*
X127677186Y-128372929D01*
X127583502Y-128218906D01*
X127752549Y-127856385D01*
X128012227Y-127536120D01*
X128253827Y-127372937D01*
X128474297Y-127255068D01*
X128673636Y-127182515D01*
X128918288Y-127131092D01*
X129096497Y-127103857D01*
X129320023Y-127097747D01*
X129634176Y-127133901D01*
G36*
X129634176Y-127133901D02*
G01*
X129927198Y-127215372D01*
X130108461Y-127299895D01*
X134050900Y-129138284D01*
X133588829Y-129419339D01*
X133283835Y-129718468D01*
X133132866Y-129923915D01*
X132984949Y-130241120D01*
X132858165Y-130513015D01*
X132779746Y-130917800D01*
X132767778Y-131298400D01*
X132798068Y-131588371D01*
X132922044Y-132032364D01*
X133064097Y-132319279D01*
X133366282Y-132736034D01*
X131508351Y-131869667D01*
X131034066Y-131703674D01*
X130674595Y-131646388D01*
X130363496Y-131721993D01*
X130508359Y-131293025D01*
X130559536Y-130710032D01*
X130429454Y-130042515D01*
X130263216Y-129689154D01*
X129936848Y-129205953D01*
X129456455Y-128816433D01*
X129003302Y-128605125D01*
X128553199Y-128505578D01*
X128284363Y-128490553D01*
X127770870Y-128526953D01*
X127677186Y-128372929D01*
X127583502Y-128218906D01*
X127752549Y-127856385D01*
X128012227Y-127536120D01*
X128253827Y-127372937D01*
X128474297Y-127255068D01*
X128673636Y-127182515D01*
X128918288Y-127131092D01*
X129096497Y-127103857D01*
X129320023Y-127097747D01*
X129634176Y-127133901D01*
G37*
%TO.C,S29*%
X162392719Y-201381725D02*
X162499279Y-201795423D01*
X162601714Y-202028891D01*
X162802466Y-202315594D01*
X162974540Y-202561339D01*
X163285887Y-202831643D01*
X163609511Y-203032309D01*
X163875777Y-203151058D01*
X164322275Y-203265690D01*
X164641779Y-203286128D01*
X165153790Y-203232806D01*
X163474530Y-204408637D01*
X163093631Y-204736383D01*
X162864287Y-205019051D01*
X162774209Y-205326274D01*
X162475145Y-204986335D01*
X161995849Y-204650516D01*
X161352719Y-204429414D01*
X160963580Y-204396698D01*
X160381932Y-204437742D01*
X159804405Y-204659014D01*
X159394829Y-204945801D01*
X159083568Y-205285828D01*
X158936138Y-205511135D01*
X158710915Y-205974031D01*
X158530683Y-205978155D01*
X158350453Y-205982277D01*
X158121023Y-205654614D01*
X157973506Y-205269598D01*
X157952985Y-204978772D01*
X157961142Y-204728903D01*
X157997978Y-204519998D01*
X158075771Y-204282409D01*
X158141285Y-204114455D01*
X158247762Y-203917826D01*
X158436148Y-203663838D01*
X158653216Y-203450807D01*
X158817048Y-203336093D01*
X162380356Y-200841036D01*
X162392719Y-201381725D01*
G36*
X162392719Y-201381725D02*
G01*
X162499279Y-201795423D01*
X162601714Y-202028891D01*
X162802466Y-202315594D01*
X162974540Y-202561339D01*
X163285887Y-202831643D01*
X163609511Y-203032309D01*
X163875777Y-203151058D01*
X164322275Y-203265690D01*
X164641779Y-203286128D01*
X165153790Y-203232806D01*
X163474530Y-204408637D01*
X163093631Y-204736383D01*
X162864287Y-205019051D01*
X162774209Y-205326274D01*
X162475145Y-204986335D01*
X161995849Y-204650516D01*
X161352719Y-204429414D01*
X160963580Y-204396698D01*
X160381932Y-204437742D01*
X159804405Y-204659014D01*
X159394829Y-204945801D01*
X159083568Y-205285828D01*
X158936138Y-205511135D01*
X158710915Y-205974031D01*
X158530683Y-205978155D01*
X158350453Y-205982277D01*
X158121023Y-205654614D01*
X157973506Y-205269598D01*
X157952985Y-204978772D01*
X157961142Y-204728903D01*
X157997978Y-204519998D01*
X158075771Y-204282409D01*
X158141285Y-204114455D01*
X158247762Y-203917826D01*
X158436148Y-203663838D01*
X158653216Y-203450807D01*
X158817048Y-203336093D01*
X162380356Y-200841036D01*
X162392719Y-201381725D01*
G37*
%TO.C,S5*%
X82192862Y-138719851D02*
X82485884Y-138801322D01*
X82667147Y-138885845D01*
X86609586Y-140724234D01*
X86147515Y-141005289D01*
X85842521Y-141304418D01*
X85691552Y-141509865D01*
X85543635Y-141827070D01*
X85416851Y-142098965D01*
X85338432Y-142503750D01*
X85326464Y-142884350D01*
X85356754Y-143174321D01*
X85480730Y-143618314D01*
X85622783Y-143905229D01*
X85924968Y-144321984D01*
X84067037Y-143455617D01*
X83592752Y-143289624D01*
X83233281Y-143232338D01*
X82922182Y-143307943D01*
X83067045Y-142878975D01*
X83118222Y-142295982D01*
X82988140Y-141628465D01*
X82821902Y-141275104D01*
X82495534Y-140791903D01*
X82015141Y-140402383D01*
X81561988Y-140191075D01*
X81111885Y-140091528D01*
X80843049Y-140076503D01*
X80329556Y-140112903D01*
X80235872Y-139958879D01*
X80142188Y-139804856D01*
X80311235Y-139442335D01*
X80570913Y-139122070D01*
X80812513Y-138958887D01*
X81032983Y-138841018D01*
X81232322Y-138768465D01*
X81476974Y-138717042D01*
X81655183Y-138689807D01*
X81878709Y-138683697D01*
X82192862Y-138719851D01*
G36*
X82192862Y-138719851D02*
G01*
X82485884Y-138801322D01*
X82667147Y-138885845D01*
X86609586Y-140724234D01*
X86147515Y-141005289D01*
X85842521Y-141304418D01*
X85691552Y-141509865D01*
X85543635Y-141827070D01*
X85416851Y-142098965D01*
X85338432Y-142503750D01*
X85326464Y-142884350D01*
X85356754Y-143174321D01*
X85480730Y-143618314D01*
X85622783Y-143905229D01*
X85924968Y-144321984D01*
X84067037Y-143455617D01*
X83592752Y-143289624D01*
X83233281Y-143232338D01*
X82922182Y-143307943D01*
X83067045Y-142878975D01*
X83118222Y-142295982D01*
X82988140Y-141628465D01*
X82821902Y-141275104D01*
X82495534Y-140791903D01*
X82015141Y-140402383D01*
X81561988Y-140191075D01*
X81111885Y-140091528D01*
X80843049Y-140076503D01*
X80329556Y-140112903D01*
X80235872Y-139958879D01*
X80142188Y-139804856D01*
X80311235Y-139442335D01*
X80570913Y-139122070D01*
X80812513Y-138958887D01*
X81032983Y-138841018D01*
X81232322Y-138768465D01*
X81476974Y-138717042D01*
X81655183Y-138689807D01*
X81878709Y-138683697D01*
X82192862Y-138719851D01*
G37*
%TO.C,S30*%
X347369609Y-132574051D02*
X347402711Y-132999967D01*
X347463050Y-133247673D01*
X347610966Y-133564882D01*
X347737751Y-133836774D01*
X347997429Y-134157036D01*
X348281291Y-134410850D01*
X348522894Y-134574036D01*
X348942701Y-134764457D01*
X349253802Y-134840064D01*
X349767296Y-134876463D01*
X347909365Y-135742831D01*
X347477341Y-135999456D01*
X347202393Y-136238002D01*
X347060340Y-136524919D01*
X346824848Y-136138210D01*
X346411147Y-135724265D01*
X345816183Y-135394843D01*
X345438636Y-135295050D01*
X344858697Y-135234468D01*
X344251520Y-135352094D01*
X343798368Y-135563402D01*
X343432790Y-135844211D01*
X343248475Y-136040496D01*
X342946289Y-136457252D01*
X342768082Y-136430015D01*
X342589874Y-136402776D01*
X342420826Y-136040255D01*
X342342412Y-135635469D01*
X342372702Y-135345499D01*
X342424125Y-135100842D01*
X342496676Y-134901505D01*
X342614546Y-134681034D01*
X342708233Y-134527010D01*
X342847229Y-134351858D01*
X343076860Y-134134441D01*
X343327624Y-133962341D01*
X343508883Y-133877816D01*
X347451323Y-132039427D01*
X347369609Y-132574051D01*
G36*
X347369609Y-132574051D02*
G01*
X347402711Y-132999967D01*
X347463050Y-133247673D01*
X347610966Y-133564882D01*
X347737751Y-133836774D01*
X347997429Y-134157036D01*
X348281291Y-134410850D01*
X348522894Y-134574036D01*
X348942701Y-134764457D01*
X349253802Y-134840064D01*
X349767296Y-134876463D01*
X347909365Y-135742831D01*
X347477341Y-135999456D01*
X347202393Y-136238002D01*
X347060340Y-136524919D01*
X346824848Y-136138210D01*
X346411147Y-135724265D01*
X345816183Y-135394843D01*
X345438636Y-135295050D01*
X344858697Y-135234468D01*
X344251520Y-135352094D01*
X343798368Y-135563402D01*
X343432790Y-135844211D01*
X343248475Y-136040496D01*
X342946289Y-136457252D01*
X342768082Y-136430015D01*
X342589874Y-136402776D01*
X342420826Y-136040255D01*
X342342412Y-135635469D01*
X342372702Y-135345499D01*
X342424125Y-135100842D01*
X342496676Y-134901505D01*
X342614546Y-134681034D01*
X342708233Y-134527010D01*
X342847229Y-134351858D01*
X343076860Y-134134441D01*
X343327624Y-133962341D01*
X343508883Y-133877816D01*
X347451323Y-132039427D01*
X347369609Y-132574051D01*
G37*
D12*
%TO.C,D16*%
X137595574Y-139342373D02*
X137764621Y-138979852D01*
X137655669Y-138267017D02*
X138380716Y-138605112D01*
X137764621Y-138979852D02*
X137266152Y-138747410D01*
X137764621Y-138979852D02*
X137655669Y-138267017D01*
X137764621Y-138979852D02*
X138263090Y-139212290D01*
X138018193Y-138436065D02*
X138229502Y-137982911D01*
X138380716Y-138605112D02*
X137764621Y-138979852D01*
D11*
%TO.C,S2*%
X72978579Y-113403806D02*
X73271601Y-113485277D01*
X73452864Y-113569800D01*
X77395303Y-115408189D01*
X76933232Y-115689244D01*
X76628238Y-115988373D01*
X76477269Y-116193820D01*
X76329352Y-116511025D01*
X76202568Y-116782920D01*
X76124149Y-117187705D01*
X76112181Y-117568305D01*
X76142471Y-117858276D01*
X76266447Y-118302269D01*
X76408500Y-118589184D01*
X76710685Y-119005939D01*
X74852754Y-118139572D01*
X74378469Y-117973579D01*
X74018998Y-117916293D01*
X73707899Y-117991898D01*
X73852762Y-117562930D01*
X73903939Y-116979937D01*
X73773857Y-116312420D01*
X73607619Y-115959059D01*
X73281251Y-115475858D01*
X72800858Y-115086338D01*
X72347705Y-114875030D01*
X71897602Y-114775483D01*
X71628766Y-114760458D01*
X71115273Y-114796858D01*
X71021589Y-114642834D01*
X70927905Y-114488811D01*
X71096952Y-114126290D01*
X71356630Y-113806025D01*
X71598230Y-113642842D01*
X71818700Y-113524973D01*
X72018039Y-113452420D01*
X72262691Y-113400997D01*
X72440900Y-113373762D01*
X72664426Y-113367652D01*
X72978579Y-113403806D01*
G36*
X72978579Y-113403806D02*
G01*
X73271601Y-113485277D01*
X73452864Y-113569800D01*
X77395303Y-115408189D01*
X76933232Y-115689244D01*
X76628238Y-115988373D01*
X76477269Y-116193820D01*
X76329352Y-116511025D01*
X76202568Y-116782920D01*
X76124149Y-117187705D01*
X76112181Y-117568305D01*
X76142471Y-117858276D01*
X76266447Y-118302269D01*
X76408500Y-118589184D01*
X76710685Y-119005939D01*
X74852754Y-118139572D01*
X74378469Y-117973579D01*
X74018998Y-117916293D01*
X73707899Y-117991898D01*
X73852762Y-117562930D01*
X73903939Y-116979937D01*
X73773857Y-116312420D01*
X73607619Y-115959059D01*
X73281251Y-115475858D01*
X72800858Y-115086338D01*
X72347705Y-114875030D01*
X71897602Y-114775483D01*
X71628766Y-114760458D01*
X71115273Y-114796858D01*
X71021589Y-114642834D01*
X70927905Y-114488811D01*
X71096952Y-114126290D01*
X71356630Y-113806025D01*
X71598230Y-113642842D01*
X71818700Y-113524973D01*
X72018039Y-113452420D01*
X72262691Y-113400997D01*
X72440900Y-113373762D01*
X72664426Y-113367652D01*
X72978579Y-113403806D01*
G37*
D12*
%TO.C,D3*%
X88990852Y-108347117D02*
X89159899Y-107984596D01*
X89050947Y-107271761D02*
X89775994Y-107609856D01*
X89159899Y-107984596D02*
X88661430Y-107752154D01*
X89159899Y-107984596D02*
X89050947Y-107271761D01*
X89159899Y-107984596D02*
X89658368Y-108217034D01*
X89413471Y-107440809D02*
X89624780Y-106987655D01*
X89775994Y-107609856D02*
X89159899Y-107984596D01*
D11*
%TO.C,S37*%
X305951813Y-88829438D02*
X305984915Y-89255354D01*
X306045254Y-89503060D01*
X306193170Y-89820269D01*
X306319955Y-90092161D01*
X306579633Y-90412423D01*
X306863495Y-90666237D01*
X307105098Y-90829423D01*
X307524905Y-91019844D01*
X307836006Y-91095451D01*
X308349500Y-91131850D01*
X306491569Y-91998218D01*
X306059545Y-92254843D01*
X305784597Y-92493389D01*
X305642544Y-92780306D01*
X305407052Y-92393597D01*
X304993351Y-91979652D01*
X304398387Y-91650230D01*
X304020840Y-91550437D01*
X303440901Y-91489855D01*
X302833724Y-91607481D01*
X302380572Y-91818789D01*
X302014994Y-92099598D01*
X301830679Y-92295883D01*
X301528493Y-92712639D01*
X301350286Y-92685402D01*
X301172078Y-92658163D01*
X301003030Y-92295642D01*
X300924616Y-91890856D01*
X300954906Y-91600886D01*
X301006329Y-91356229D01*
X301078880Y-91156892D01*
X301196750Y-90936421D01*
X301290437Y-90782397D01*
X301429433Y-90607245D01*
X301659064Y-90389828D01*
X301909828Y-90217728D01*
X302091087Y-90133203D01*
X306033527Y-88294814D01*
X305951813Y-88829438D01*
G36*
X305951813Y-88829438D02*
G01*
X305984915Y-89255354D01*
X306045254Y-89503060D01*
X306193170Y-89820269D01*
X306319955Y-90092161D01*
X306579633Y-90412423D01*
X306863495Y-90666237D01*
X307105098Y-90829423D01*
X307524905Y-91019844D01*
X307836006Y-91095451D01*
X308349500Y-91131850D01*
X306491569Y-91998218D01*
X306059545Y-92254843D01*
X305784597Y-92493389D01*
X305642544Y-92780306D01*
X305407052Y-92393597D01*
X304993351Y-91979652D01*
X304398387Y-91650230D01*
X304020840Y-91550437D01*
X303440901Y-91489855D01*
X302833724Y-91607481D01*
X302380572Y-91818789D01*
X302014994Y-92099598D01*
X301830679Y-92295883D01*
X301528493Y-92712639D01*
X301350286Y-92685402D01*
X301172078Y-92658163D01*
X301003030Y-92295642D01*
X300924616Y-91890856D01*
X300954906Y-91600886D01*
X301006329Y-91356229D01*
X301078880Y-91156892D01*
X301196750Y-90936421D01*
X301290437Y-90782397D01*
X301429433Y-90607245D01*
X301659064Y-90389828D01*
X301909828Y-90217728D01*
X302091087Y-90133203D01*
X306033527Y-88294814D01*
X305951813Y-88829438D01*
G37*
%TO.C,S44*%
X290714007Y-146304146D02*
X290747109Y-146730062D01*
X290807448Y-146977768D01*
X290955364Y-147294977D01*
X291082149Y-147566869D01*
X291341827Y-147887131D01*
X291625689Y-148140945D01*
X291867292Y-148304131D01*
X292287099Y-148494552D01*
X292598200Y-148570159D01*
X293111694Y-148606558D01*
X291253763Y-149472926D01*
X290821739Y-149729551D01*
X290546791Y-149968097D01*
X290404738Y-150255014D01*
X290169246Y-149868305D01*
X289755545Y-149454360D01*
X289160581Y-149124938D01*
X288783034Y-149025145D01*
X288203095Y-148964563D01*
X287595918Y-149082189D01*
X287142766Y-149293497D01*
X286777188Y-149574306D01*
X286592873Y-149770591D01*
X286290687Y-150187347D01*
X286112480Y-150160110D01*
X285934272Y-150132871D01*
X285765224Y-149770350D01*
X285686810Y-149365564D01*
X285717100Y-149075594D01*
X285768523Y-148830937D01*
X285841074Y-148631600D01*
X285958944Y-148411129D01*
X286052631Y-148257105D01*
X286191627Y-148081953D01*
X286421258Y-147864536D01*
X286672022Y-147692436D01*
X286853281Y-147607911D01*
X290795721Y-145769522D01*
X290714007Y-146304146D01*
G36*
X290714007Y-146304146D02*
G01*
X290747109Y-146730062D01*
X290807448Y-146977768D01*
X290955364Y-147294977D01*
X291082149Y-147566869D01*
X291341827Y-147887131D01*
X291625689Y-148140945D01*
X291867292Y-148304131D01*
X292287099Y-148494552D01*
X292598200Y-148570159D01*
X293111694Y-148606558D01*
X291253763Y-149472926D01*
X290821739Y-149729551D01*
X290546791Y-149968097D01*
X290404738Y-150255014D01*
X290169246Y-149868305D01*
X289755545Y-149454360D01*
X289160581Y-149124938D01*
X288783034Y-149025145D01*
X288203095Y-148964563D01*
X287595918Y-149082189D01*
X287142766Y-149293497D01*
X286777188Y-149574306D01*
X286592873Y-149770591D01*
X286290687Y-150187347D01*
X286112480Y-150160110D01*
X285934272Y-150132871D01*
X285765224Y-149770350D01*
X285686810Y-149365564D01*
X285717100Y-149075594D01*
X285768523Y-148830937D01*
X285841074Y-148631600D01*
X285958944Y-148411129D01*
X286052631Y-148257105D01*
X286191627Y-148081953D01*
X286421258Y-147864536D01*
X286672022Y-147692436D01*
X286853281Y-147607911D01*
X290795721Y-145769522D01*
X290714007Y-146304146D01*
G37*
D12*
%TO.C,D49*%
X283897221Y-159192592D02*
X284622269Y-158854497D01*
X284259744Y-159023544D02*
X284048436Y-158570391D01*
X284513315Y-159567331D02*
X283897221Y-159192592D01*
X284513315Y-159567331D02*
X284014846Y-159799771D01*
X284513315Y-159567331D02*
X285011787Y-159334890D01*
X284622269Y-158854497D02*
X284513315Y-159567331D01*
X284682362Y-159929853D02*
X284513315Y-159567331D01*
%TO.C,D42*%
X294274914Y-91295343D02*
X294999962Y-90957248D01*
X294637437Y-91126295D02*
X294426129Y-90673142D01*
X294891008Y-91670082D02*
X294274914Y-91295343D01*
X294891008Y-91670082D02*
X294392539Y-91902522D01*
X294891008Y-91670082D02*
X295389480Y-91437641D01*
X294999962Y-90957248D02*
X294891008Y-91670082D01*
X295060055Y-92032604D02*
X294891008Y-91670082D01*
%TO.C,D45*%
X292054961Y-131610782D02*
X292780009Y-131272687D01*
X292417484Y-131441734D02*
X292206176Y-130988581D01*
X292671055Y-131985521D02*
X292054961Y-131610782D01*
X292671055Y-131985521D02*
X292172586Y-132217961D01*
X292671055Y-131985521D02*
X293169527Y-131753080D01*
X292780009Y-131272687D02*
X292671055Y-131985521D01*
X292840102Y-132348043D02*
X292671055Y-131985521D01*
D11*
%TO.C,S56*%
X234144142Y-115141951D02*
X234177244Y-115567867D01*
X234237583Y-115815573D01*
X234385499Y-116132782D01*
X234512284Y-116404674D01*
X234771962Y-116724936D01*
X235055824Y-116978750D01*
X235297427Y-117141936D01*
X235717234Y-117332357D01*
X236028335Y-117407964D01*
X236541829Y-117444363D01*
X234683898Y-118310731D01*
X234251874Y-118567356D01*
X233976926Y-118805902D01*
X233834873Y-119092819D01*
X233599381Y-118706110D01*
X233185680Y-118292165D01*
X232590716Y-117962743D01*
X232213169Y-117862950D01*
X231633230Y-117802368D01*
X231026053Y-117919994D01*
X230572901Y-118131302D01*
X230207323Y-118412111D01*
X230023008Y-118608396D01*
X229720822Y-119025152D01*
X229542615Y-118997915D01*
X229364407Y-118970676D01*
X229195359Y-118608155D01*
X229116945Y-118203369D01*
X229147235Y-117913399D01*
X229198658Y-117668742D01*
X229271209Y-117469405D01*
X229389079Y-117248934D01*
X229482766Y-117094910D01*
X229621762Y-116919758D01*
X229851393Y-116702341D01*
X230102157Y-116530241D01*
X230283416Y-116445716D01*
X234225856Y-114607327D01*
X234144142Y-115141951D01*
G36*
X234144142Y-115141951D02*
G01*
X234177244Y-115567867D01*
X234237583Y-115815573D01*
X234385499Y-116132782D01*
X234512284Y-116404674D01*
X234771962Y-116724936D01*
X235055824Y-116978750D01*
X235297427Y-117141936D01*
X235717234Y-117332357D01*
X236028335Y-117407964D01*
X236541829Y-117444363D01*
X234683898Y-118310731D01*
X234251874Y-118567356D01*
X233976926Y-118805902D01*
X233834873Y-119092819D01*
X233599381Y-118706110D01*
X233185680Y-118292165D01*
X232590716Y-117962743D01*
X232213169Y-117862950D01*
X231633230Y-117802368D01*
X231026053Y-117919994D01*
X230572901Y-118131302D01*
X230207323Y-118412111D01*
X230023008Y-118608396D01*
X229720822Y-119025152D01*
X229542615Y-118997915D01*
X229364407Y-118970676D01*
X229195359Y-118608155D01*
X229116945Y-118203369D01*
X229147235Y-117913399D01*
X229198658Y-117668742D01*
X229271209Y-117469405D01*
X229389079Y-117248934D01*
X229482766Y-117094910D01*
X229621762Y-116919758D01*
X229851393Y-116702341D01*
X230102157Y-116530241D01*
X230283416Y-116445716D01*
X234225856Y-114607327D01*
X234144142Y-115141951D01*
G37*
D12*
%TO.C,D31*%
X348710560Y-117880684D02*
X349435608Y-117542589D01*
X349073083Y-117711636D02*
X348861775Y-117258483D01*
X349326654Y-118255423D02*
X348710560Y-117880684D01*
X349326654Y-118255423D02*
X348828185Y-118487863D01*
X349326654Y-118255423D02*
X349825126Y-118022982D01*
X349435608Y-117542589D02*
X349326654Y-118255423D01*
X349495701Y-118617945D02*
X349326654Y-118255423D01*
D11*
%TO.C,S25*%
X162051411Y-147767195D02*
X162344433Y-147848666D01*
X162525696Y-147933189D01*
X166468135Y-149771578D01*
X166006064Y-150052633D01*
X165701070Y-150351762D01*
X165550101Y-150557209D01*
X165402184Y-150874414D01*
X165275400Y-151146309D01*
X165196981Y-151551094D01*
X165185013Y-151931694D01*
X165215303Y-152221665D01*
X165339279Y-152665658D01*
X165481332Y-152952573D01*
X165783517Y-153369328D01*
X163925586Y-152502961D01*
X163451301Y-152336968D01*
X163091830Y-152279682D01*
X162780731Y-152355287D01*
X162925594Y-151926319D01*
X162976771Y-151343326D01*
X162846689Y-150675809D01*
X162680451Y-150322448D01*
X162354083Y-149839247D01*
X161873690Y-149449727D01*
X161420537Y-149238419D01*
X160970434Y-149138872D01*
X160701598Y-149123847D01*
X160188105Y-149160247D01*
X160094421Y-149006223D01*
X160000737Y-148852200D01*
X160169784Y-148489679D01*
X160429462Y-148169414D01*
X160671062Y-148006231D01*
X160891532Y-147888362D01*
X161090871Y-147815809D01*
X161335523Y-147764386D01*
X161513732Y-147737151D01*
X161737258Y-147731041D01*
X162051411Y-147767195D01*
G36*
X162051411Y-147767195D02*
G01*
X162344433Y-147848666D01*
X162525696Y-147933189D01*
X166468135Y-149771578D01*
X166006064Y-150052633D01*
X165701070Y-150351762D01*
X165550101Y-150557209D01*
X165402184Y-150874414D01*
X165275400Y-151146309D01*
X165196981Y-151551094D01*
X165185013Y-151931694D01*
X165215303Y-152221665D01*
X165339279Y-152665658D01*
X165481332Y-152952573D01*
X165783517Y-153369328D01*
X163925586Y-152502961D01*
X163451301Y-152336968D01*
X163091830Y-152279682D01*
X162780731Y-152355287D01*
X162925594Y-151926319D01*
X162976771Y-151343326D01*
X162846689Y-150675809D01*
X162680451Y-150322448D01*
X162354083Y-149839247D01*
X161873690Y-149449727D01*
X161420537Y-149238419D01*
X160970434Y-149138872D01*
X160701598Y-149123847D01*
X160188105Y-149160247D01*
X160094421Y-149006223D01*
X160000737Y-148852200D01*
X160169784Y-148489679D01*
X160429462Y-148169414D01*
X160671062Y-148006231D01*
X160891532Y-147888362D01*
X161090871Y-147815809D01*
X161335523Y-147764386D01*
X161513732Y-147737151D01*
X161737258Y-147731041D01*
X162051411Y-147767195D01*
G37*
%TO.C,S55*%
X242195015Y-132407115D02*
X242228117Y-132833031D01*
X242288456Y-133080737D01*
X242436372Y-133397946D01*
X242563157Y-133669838D01*
X242822835Y-133990100D01*
X243106697Y-134243914D01*
X243348300Y-134407100D01*
X243768107Y-134597521D01*
X244079208Y-134673128D01*
X244592702Y-134709527D01*
X242734771Y-135575895D01*
X242302747Y-135832520D01*
X242027799Y-136071066D01*
X241885746Y-136357983D01*
X241650254Y-135971274D01*
X241236553Y-135557329D01*
X240641589Y-135227907D01*
X240264042Y-135128114D01*
X239684103Y-135067532D01*
X239076926Y-135185158D01*
X238623774Y-135396466D01*
X238258196Y-135677275D01*
X238073881Y-135873560D01*
X237771695Y-136290316D01*
X237593488Y-136263079D01*
X237415280Y-136235840D01*
X237246232Y-135873319D01*
X237167818Y-135468533D01*
X237198108Y-135178563D01*
X237249531Y-134933906D01*
X237322082Y-134734569D01*
X237439952Y-134514098D01*
X237533639Y-134360074D01*
X237672635Y-134184922D01*
X237902266Y-133967505D01*
X238153030Y-133795405D01*
X238334289Y-133710880D01*
X242276729Y-131872491D01*
X242195015Y-132407115D01*
G36*
X242195015Y-132407115D02*
G01*
X242228117Y-132833031D01*
X242288456Y-133080737D01*
X242436372Y-133397946D01*
X242563157Y-133669838D01*
X242822835Y-133990100D01*
X243106697Y-134243914D01*
X243348300Y-134407100D01*
X243768107Y-134597521D01*
X244079208Y-134673128D01*
X244592702Y-134709527D01*
X242734771Y-135575895D01*
X242302747Y-135832520D01*
X242027799Y-136071066D01*
X241885746Y-136357983D01*
X241650254Y-135971274D01*
X241236553Y-135557329D01*
X240641589Y-135227907D01*
X240264042Y-135128114D01*
X239684103Y-135067532D01*
X239076926Y-135185158D01*
X238623774Y-135396466D01*
X238258196Y-135677275D01*
X238073881Y-135873560D01*
X237771695Y-136290316D01*
X237593488Y-136263079D01*
X237415280Y-136235840D01*
X237246232Y-135873319D01*
X237167818Y-135468533D01*
X237198108Y-135178563D01*
X237249531Y-134933906D01*
X237322082Y-134734569D01*
X237439952Y-134514098D01*
X237533639Y-134360074D01*
X237672635Y-134184922D01*
X237902266Y-133967505D01*
X238153030Y-133795405D01*
X238334289Y-133710880D01*
X242276729Y-131872491D01*
X242195015Y-132407115D01*
G37*
%TO.C,S10*%
X103261591Y-138613958D02*
X103554613Y-138695429D01*
X103735876Y-138779952D01*
X107678315Y-140618341D01*
X107216244Y-140899396D01*
X106911250Y-141198525D01*
X106760281Y-141403972D01*
X106612364Y-141721177D01*
X106485580Y-141993072D01*
X106407161Y-142397857D01*
X106395193Y-142778457D01*
X106425483Y-143068428D01*
X106549459Y-143512421D01*
X106691512Y-143799336D01*
X106993697Y-144216091D01*
X105135766Y-143349724D01*
X104661481Y-143183731D01*
X104302010Y-143126445D01*
X103990911Y-143202050D01*
X104135774Y-142773082D01*
X104186951Y-142190089D01*
X104056869Y-141522572D01*
X103890631Y-141169211D01*
X103564263Y-140686010D01*
X103083870Y-140296490D01*
X102630717Y-140085182D01*
X102180614Y-139985635D01*
X101911778Y-139970610D01*
X101398285Y-140007010D01*
X101304601Y-139852986D01*
X101210917Y-139698963D01*
X101379964Y-139336442D01*
X101639642Y-139016177D01*
X101881242Y-138852994D01*
X102101712Y-138735125D01*
X102301051Y-138662572D01*
X102545703Y-138611149D01*
X102723912Y-138583914D01*
X102947438Y-138577804D01*
X103261591Y-138613958D01*
G36*
X103261591Y-138613958D02*
G01*
X103554613Y-138695429D01*
X103735876Y-138779952D01*
X107678315Y-140618341D01*
X107216244Y-140899396D01*
X106911250Y-141198525D01*
X106760281Y-141403972D01*
X106612364Y-141721177D01*
X106485580Y-141993072D01*
X106407161Y-142397857D01*
X106395193Y-142778457D01*
X106425483Y-143068428D01*
X106549459Y-143512421D01*
X106691512Y-143799336D01*
X106993697Y-144216091D01*
X105135766Y-143349724D01*
X104661481Y-143183731D01*
X104302010Y-143126445D01*
X103990911Y-143202050D01*
X104135774Y-142773082D01*
X104186951Y-142190089D01*
X104056869Y-141522572D01*
X103890631Y-141169211D01*
X103564263Y-140686010D01*
X103083870Y-140296490D01*
X102630717Y-140085182D01*
X102180614Y-139985635D01*
X101911778Y-139970610D01*
X101398285Y-140007010D01*
X101304601Y-139852986D01*
X101210917Y-139698963D01*
X101379964Y-139336442D01*
X101639642Y-139016177D01*
X101881242Y-138852994D01*
X102101712Y-138735125D01*
X102301051Y-138662572D01*
X102545703Y-138611149D01*
X102723912Y-138583914D01*
X102947438Y-138577804D01*
X103261591Y-138613958D01*
G37*
%TO.C,S1*%
X64927700Y-130668971D02*
X65220722Y-130750442D01*
X65401985Y-130834965D01*
X69344424Y-132673354D01*
X68882353Y-132954409D01*
X68577359Y-133253538D01*
X68426390Y-133458985D01*
X68278473Y-133776190D01*
X68151689Y-134048085D01*
X68073270Y-134452870D01*
X68061302Y-134833470D01*
X68091592Y-135123441D01*
X68215568Y-135567434D01*
X68357621Y-135854349D01*
X68659806Y-136271104D01*
X66801875Y-135404737D01*
X66327590Y-135238744D01*
X65968119Y-135181458D01*
X65657020Y-135257063D01*
X65801883Y-134828095D01*
X65853060Y-134245102D01*
X65722978Y-133577585D01*
X65556740Y-133224224D01*
X65230372Y-132741023D01*
X64749979Y-132351503D01*
X64296826Y-132140195D01*
X63846723Y-132040648D01*
X63577887Y-132025623D01*
X63064394Y-132062023D01*
X62970710Y-131907999D01*
X62877026Y-131753976D01*
X63046073Y-131391455D01*
X63305751Y-131071190D01*
X63547351Y-130908007D01*
X63767821Y-130790138D01*
X63967160Y-130717585D01*
X64211812Y-130666162D01*
X64390021Y-130638927D01*
X64613547Y-130632817D01*
X64927700Y-130668971D01*
G36*
X64927700Y-130668971D02*
G01*
X65220722Y-130750442D01*
X65401985Y-130834965D01*
X69344424Y-132673354D01*
X68882353Y-132954409D01*
X68577359Y-133253538D01*
X68426390Y-133458985D01*
X68278473Y-133776190D01*
X68151689Y-134048085D01*
X68073270Y-134452870D01*
X68061302Y-134833470D01*
X68091592Y-135123441D01*
X68215568Y-135567434D01*
X68357621Y-135854349D01*
X68659806Y-136271104D01*
X66801875Y-135404737D01*
X66327590Y-135238744D01*
X65968119Y-135181458D01*
X65657020Y-135257063D01*
X65801883Y-134828095D01*
X65853060Y-134245102D01*
X65722978Y-133577585D01*
X65556740Y-133224224D01*
X65230372Y-132741023D01*
X64749979Y-132351503D01*
X64296826Y-132140195D01*
X63846723Y-132040648D01*
X63577887Y-132025623D01*
X63064394Y-132062023D01*
X62970710Y-131907999D01*
X62877026Y-131753976D01*
X63046073Y-131391455D01*
X63305751Y-131071190D01*
X63547351Y-130908007D01*
X63767821Y-130790138D01*
X63967160Y-130717585D01*
X64211812Y-130666162D01*
X64390021Y-130638927D01*
X64613547Y-130632817D01*
X64927700Y-130668971D01*
G37*
D12*
%TO.C,D6*%
X98205139Y-133663154D02*
X98374186Y-133300633D01*
X98265234Y-132587798D02*
X98990281Y-132925893D01*
X98374186Y-133300633D02*
X97875717Y-133068191D01*
X98374186Y-133300633D02*
X98265234Y-132587798D01*
X98374186Y-133300633D02*
X98872655Y-133533071D01*
X98627758Y-132756846D02*
X98839067Y-132303692D01*
X98990281Y-132925893D02*
X98374186Y-133300633D01*
%TO.C,D39*%
X318427546Y-143090834D02*
X319152594Y-142752739D01*
X318790069Y-142921786D02*
X318578761Y-142468633D01*
X319043640Y-143465573D02*
X318427546Y-143090834D01*
X319043640Y-143465573D02*
X318545171Y-143698013D01*
X319043640Y-143465573D02*
X319542112Y-143233132D01*
X319152594Y-142752739D02*
X319043640Y-143465573D01*
X319212687Y-143828095D02*
X319043640Y-143465573D01*
%TO.C,D9*%
X103172107Y-168087590D02*
X103341154Y-167725069D01*
X103232202Y-167012234D02*
X103957249Y-167350329D01*
X103341154Y-167725069D02*
X102842685Y-167492627D01*
X103341154Y-167725069D02*
X103232202Y-167012234D01*
X103341154Y-167725069D02*
X103839623Y-167957507D01*
X103594726Y-167181282D02*
X103806035Y-166728128D01*
X103957249Y-167350329D02*
X103341154Y-167725069D01*
D11*
%TO.C,S9*%
X95210710Y-155879118D02*
X95503732Y-155960589D01*
X95684995Y-156045112D01*
X99627434Y-157883501D01*
X99165363Y-158164556D01*
X98860369Y-158463685D01*
X98709400Y-158669132D01*
X98561483Y-158986337D01*
X98434699Y-159258232D01*
X98356280Y-159663017D01*
X98344312Y-160043617D01*
X98374602Y-160333588D01*
X98498578Y-160777581D01*
X98640631Y-161064496D01*
X98942816Y-161481251D01*
X97084885Y-160614884D01*
X96610600Y-160448891D01*
X96251129Y-160391605D01*
X95940030Y-160467210D01*
X96084893Y-160038242D01*
X96136070Y-159455249D01*
X96005988Y-158787732D01*
X95839750Y-158434371D01*
X95513382Y-157951170D01*
X95032989Y-157561650D01*
X94579836Y-157350342D01*
X94129733Y-157250795D01*
X93860897Y-157235770D01*
X93347404Y-157272170D01*
X93253720Y-157118146D01*
X93160036Y-156964123D01*
X93329083Y-156601602D01*
X93588761Y-156281337D01*
X93830361Y-156118154D01*
X94050831Y-156000285D01*
X94250170Y-155927732D01*
X94494822Y-155876309D01*
X94673031Y-155849074D01*
X94896557Y-155842964D01*
X95210710Y-155879118D01*
G36*
X95210710Y-155879118D02*
G01*
X95503732Y-155960589D01*
X95684995Y-156045112D01*
X99627434Y-157883501D01*
X99165363Y-158164556D01*
X98860369Y-158463685D01*
X98709400Y-158669132D01*
X98561483Y-158986337D01*
X98434699Y-159258232D01*
X98356280Y-159663017D01*
X98344312Y-160043617D01*
X98374602Y-160333588D01*
X98498578Y-160777581D01*
X98640631Y-161064496D01*
X98942816Y-161481251D01*
X97084885Y-160614884D01*
X96610600Y-160448891D01*
X96251129Y-160391605D01*
X95940030Y-160467210D01*
X96084893Y-160038242D01*
X96136070Y-159455249D01*
X96005988Y-158787732D01*
X95839750Y-158434371D01*
X95513382Y-157951170D01*
X95032989Y-157561650D01*
X94579836Y-157350342D01*
X94129733Y-157250795D01*
X93860897Y-157235770D01*
X93347404Y-157272170D01*
X93253720Y-157118146D01*
X93160036Y-156964123D01*
X93329083Y-156601602D01*
X93588761Y-156281337D01*
X93830361Y-156118154D01*
X94050831Y-156000285D01*
X94250170Y-155927732D01*
X94494822Y-155876309D01*
X94673031Y-155849074D01*
X94896557Y-155842964D01*
X95210710Y-155879118D01*
G37*
D12*
%TO.C,D11*%
X119273864Y-133557267D02*
X119442911Y-133194746D01*
X119333959Y-132481911D02*
X120059006Y-132820006D01*
X119442911Y-133194746D02*
X118944442Y-132962304D01*
X119442911Y-133194746D02*
X119333959Y-132481911D01*
X119442911Y-133194746D02*
X119941380Y-133427184D01*
X119696483Y-132650959D02*
X119907792Y-132197805D01*
X120059006Y-132820006D02*
X119442911Y-133194746D01*
D11*
%TO.C,S40*%
X300984839Y-123253871D02*
X301017941Y-123679787D01*
X301078280Y-123927493D01*
X301226196Y-124244702D01*
X301352981Y-124516594D01*
X301612659Y-124836856D01*
X301896521Y-125090670D01*
X302138124Y-125253856D01*
X302557931Y-125444277D01*
X302869032Y-125519884D01*
X303382526Y-125556283D01*
X301524595Y-126422651D01*
X301092571Y-126679276D01*
X300817623Y-126917822D01*
X300675570Y-127204739D01*
X300440078Y-126818030D01*
X300026377Y-126404085D01*
X299431413Y-126074663D01*
X299053866Y-125974870D01*
X298473927Y-125914288D01*
X297866750Y-126031914D01*
X297413598Y-126243222D01*
X297048020Y-126524031D01*
X296863705Y-126720316D01*
X296561519Y-127137072D01*
X296383312Y-127109835D01*
X296205104Y-127082596D01*
X296036056Y-126720075D01*
X295957642Y-126315289D01*
X295987932Y-126025319D01*
X296039355Y-125780662D01*
X296111906Y-125581325D01*
X296229776Y-125360854D01*
X296323463Y-125206830D01*
X296462459Y-125031678D01*
X296692090Y-124814261D01*
X296942854Y-124642161D01*
X297124113Y-124557636D01*
X301066553Y-122719247D01*
X300984839Y-123253871D01*
G36*
X300984839Y-123253871D02*
G01*
X301017941Y-123679787D01*
X301078280Y-123927493D01*
X301226196Y-124244702D01*
X301352981Y-124516594D01*
X301612659Y-124836856D01*
X301896521Y-125090670D01*
X302138124Y-125253856D01*
X302557931Y-125444277D01*
X302869032Y-125519884D01*
X303382526Y-125556283D01*
X301524595Y-126422651D01*
X301092571Y-126679276D01*
X300817623Y-126917822D01*
X300675570Y-127204739D01*
X300440078Y-126818030D01*
X300026377Y-126404085D01*
X299431413Y-126074663D01*
X299053866Y-125974870D01*
X298473927Y-125914288D01*
X297866750Y-126031914D01*
X297413598Y-126243222D01*
X297048020Y-126524031D01*
X296863705Y-126720316D01*
X296561519Y-127137072D01*
X296383312Y-127109835D01*
X296205104Y-127082596D01*
X296036056Y-126720075D01*
X295957642Y-126315289D01*
X295987932Y-126025319D01*
X296039355Y-125780662D01*
X296111906Y-125581325D01*
X296229776Y-125360854D01*
X296323463Y-125206830D01*
X296462459Y-125031678D01*
X296692090Y-124814261D01*
X296942854Y-124642161D01*
X297124113Y-124557636D01*
X301066553Y-122719247D01*
X300984839Y-123253871D01*
G37*
D12*
%TO.C,D48*%
X291948100Y-176457754D02*
X292673148Y-176119659D01*
X292310623Y-176288706D02*
X292099315Y-175835553D01*
X292564194Y-176832493D02*
X291948100Y-176457754D01*
X292564194Y-176832493D02*
X292065725Y-177064933D01*
X292564194Y-176832493D02*
X293062666Y-176600052D01*
X292673148Y-176119659D02*
X292564194Y-176832493D01*
X292733241Y-177195015D02*
X292564194Y-176832493D01*
%TO.C,D17*%
X145646452Y-122077210D02*
X145815499Y-121714689D01*
X145706547Y-121001854D02*
X146431594Y-121339949D01*
X145815499Y-121714689D02*
X145317030Y-121482247D01*
X145815499Y-121714689D02*
X145706547Y-121001854D01*
X145815499Y-121714689D02*
X146313968Y-121947127D01*
X146069071Y-121170902D02*
X146280380Y-120717748D01*
X146431594Y-121339949D02*
X145815499Y-121714689D01*
%TO.C,D33*%
X332608808Y-83350358D02*
X333333856Y-83012263D01*
X332971331Y-83181310D02*
X332760023Y-82728157D01*
X333224902Y-83725097D02*
X332608808Y-83350358D01*
X333224902Y-83725097D02*
X332726433Y-83957537D01*
X333224902Y-83725097D02*
X333723374Y-83492656D01*
X333333856Y-83012263D02*
X333224902Y-83725097D01*
X333393949Y-84087619D02*
X333224902Y-83725097D01*
D11*
%TO.C,S50*%
X266454513Y-139355628D02*
X266487615Y-139781544D01*
X266547954Y-140029250D01*
X266695870Y-140346459D01*
X266822655Y-140618351D01*
X267082333Y-140938613D01*
X267366195Y-141192427D01*
X267607798Y-141355613D01*
X268027605Y-141546034D01*
X268338706Y-141621641D01*
X268852200Y-141658040D01*
X266994269Y-142524408D01*
X266562245Y-142781033D01*
X266287297Y-143019579D01*
X266145244Y-143306496D01*
X265909752Y-142919787D01*
X265496051Y-142505842D01*
X264901087Y-142176420D01*
X264523540Y-142076627D01*
X263943601Y-142016045D01*
X263336424Y-142133671D01*
X262883272Y-142344979D01*
X262517694Y-142625788D01*
X262333379Y-142822073D01*
X262031193Y-143238829D01*
X261852986Y-143211592D01*
X261674778Y-143184353D01*
X261505730Y-142821832D01*
X261427316Y-142417046D01*
X261457606Y-142127076D01*
X261509029Y-141882419D01*
X261581580Y-141683082D01*
X261699450Y-141462611D01*
X261793137Y-141308587D01*
X261932133Y-141133435D01*
X262161764Y-140916018D01*
X262412528Y-140743918D01*
X262593787Y-140659393D01*
X266536227Y-138821004D01*
X266454513Y-139355628D01*
G36*
X266454513Y-139355628D02*
G01*
X266487615Y-139781544D01*
X266547954Y-140029250D01*
X266695870Y-140346459D01*
X266822655Y-140618351D01*
X267082333Y-140938613D01*
X267366195Y-141192427D01*
X267607798Y-141355613D01*
X268027605Y-141546034D01*
X268338706Y-141621641D01*
X268852200Y-141658040D01*
X266994269Y-142524408D01*
X266562245Y-142781033D01*
X266287297Y-143019579D01*
X266145244Y-143306496D01*
X265909752Y-142919787D01*
X265496051Y-142505842D01*
X264901087Y-142176420D01*
X264523540Y-142076627D01*
X263943601Y-142016045D01*
X263336424Y-142133671D01*
X262883272Y-142344979D01*
X262517694Y-142625788D01*
X262333379Y-142822073D01*
X262031193Y-143238829D01*
X261852986Y-143211592D01*
X261674778Y-143184353D01*
X261505730Y-142821832D01*
X261427316Y-142417046D01*
X261457606Y-142127076D01*
X261509029Y-141882419D01*
X261581580Y-141683082D01*
X261699450Y-141462611D01*
X261793137Y-141308587D01*
X261932133Y-141133435D01*
X262161764Y-140916018D01*
X262412528Y-140743918D01*
X262593787Y-140659393D01*
X266536227Y-138821004D01*
X266454513Y-139355628D01*
G37*
D12*
%TO.C,D30*%
X356761439Y-135145848D02*
X357486487Y-134807753D01*
X357123962Y-134976800D02*
X356912654Y-134523647D01*
X357377533Y-135520587D02*
X356761439Y-135145848D01*
X357377533Y-135520587D02*
X356879064Y-135753027D01*
X357377533Y-135520587D02*
X357876005Y-135288146D01*
X357486487Y-134807753D02*
X357377533Y-135520587D01*
X357546580Y-135883109D02*
X357377533Y-135520587D01*
%TO.C,D4*%
X97041726Y-91081955D02*
X97210773Y-90719434D01*
X97101821Y-90006599D02*
X97826868Y-90344694D01*
X97210773Y-90719434D02*
X96712304Y-90486992D01*
X97210773Y-90719434D02*
X97101821Y-90006599D01*
X97210773Y-90719434D02*
X97709242Y-90951872D01*
X97464345Y-90175647D02*
X97675654Y-89722493D01*
X97826868Y-90344694D02*
X97210773Y-90719434D01*
%TO.C,D10*%
X111222989Y-150822428D02*
X111392036Y-150459907D01*
X111283084Y-149747072D02*
X112008131Y-150085167D01*
X111392036Y-150459907D02*
X110893567Y-150227465D01*
X111392036Y-150459907D02*
X111283084Y-149747072D01*
X111392036Y-150459907D02*
X111890505Y-150692345D01*
X111645608Y-149916120D02*
X111856917Y-149462966D01*
X112008131Y-150085167D02*
X111392036Y-150459907D01*
D11*
%TO.C,S43*%
X298764887Y-163569308D02*
X298797989Y-163995224D01*
X298858328Y-164242930D01*
X299006244Y-164560139D01*
X299133029Y-164832031D01*
X299392707Y-165152293D01*
X299676569Y-165406107D01*
X299918172Y-165569293D01*
X300337979Y-165759714D01*
X300649080Y-165835321D01*
X301162574Y-165871720D01*
X299304643Y-166738088D01*
X298872619Y-166994713D01*
X298597671Y-167233259D01*
X298455618Y-167520176D01*
X298220126Y-167133467D01*
X297806425Y-166719522D01*
X297211461Y-166390100D01*
X296833914Y-166290307D01*
X296253975Y-166229725D01*
X295646798Y-166347351D01*
X295193646Y-166558659D01*
X294828068Y-166839468D01*
X294643753Y-167035753D01*
X294341567Y-167452509D01*
X294163360Y-167425272D01*
X293985152Y-167398033D01*
X293816104Y-167035512D01*
X293737690Y-166630726D01*
X293767980Y-166340756D01*
X293819403Y-166096099D01*
X293891954Y-165896762D01*
X294009824Y-165676291D01*
X294103511Y-165522267D01*
X294242507Y-165347115D01*
X294472138Y-165129698D01*
X294722902Y-164957598D01*
X294904161Y-164873073D01*
X298846601Y-163034684D01*
X298764887Y-163569308D01*
G36*
X298764887Y-163569308D02*
G01*
X298797989Y-163995224D01*
X298858328Y-164242930D01*
X299006244Y-164560139D01*
X299133029Y-164832031D01*
X299392707Y-165152293D01*
X299676569Y-165406107D01*
X299918172Y-165569293D01*
X300337979Y-165759714D01*
X300649080Y-165835321D01*
X301162574Y-165871720D01*
X299304643Y-166738088D01*
X298872619Y-166994713D01*
X298597671Y-167233259D01*
X298455618Y-167520176D01*
X298220126Y-167133467D01*
X297806425Y-166719522D01*
X297211461Y-166390100D01*
X296833914Y-166290307D01*
X296253975Y-166229725D01*
X295646798Y-166347351D01*
X295193646Y-166558659D01*
X294828068Y-166839468D01*
X294643753Y-167035753D01*
X294341567Y-167452509D01*
X294163360Y-167425272D01*
X293985152Y-167398033D01*
X293816104Y-167035512D01*
X293737690Y-166630726D01*
X293767980Y-166340756D01*
X293819403Y-166096099D01*
X293891954Y-165896762D01*
X294009824Y-165676291D01*
X294103511Y-165522267D01*
X294242507Y-165347115D01*
X294472138Y-165129698D01*
X294722902Y-164957598D01*
X294904161Y-164873073D01*
X298846601Y-163034684D01*
X298764887Y-163569308D01*
G37*
D12*
%TO.C,D44*%
X300105839Y-148875942D02*
X300830887Y-148537847D01*
X300468362Y-148706894D02*
X300257054Y-148253741D01*
X300721933Y-149250681D02*
X300105839Y-148875942D01*
X300721933Y-149250681D02*
X300223464Y-149483121D01*
X300721933Y-149250681D02*
X301220405Y-149018240D01*
X300830887Y-148537847D02*
X300721933Y-149250681D01*
X300890980Y-149613203D02*
X300721933Y-149250681D01*
%TO.C,D1*%
X72889099Y-142877440D02*
X73058146Y-142514919D01*
X72949194Y-141802084D02*
X73674241Y-142140179D01*
X73058146Y-142514919D02*
X72559677Y-142282477D01*
X73058146Y-142514919D02*
X72949194Y-141802084D01*
X73058146Y-142514919D02*
X73556615Y-142747357D01*
X73311718Y-141971132D02*
X73523027Y-141517978D01*
X73674241Y-142140179D02*
X73058146Y-142514919D01*
%TO.C,D5*%
X90154261Y-150928320D02*
X90323308Y-150565799D01*
X90214356Y-149852964D02*
X90939403Y-150191059D01*
X90323308Y-150565799D02*
X89824839Y-150333357D01*
X90323308Y-150565799D02*
X90214356Y-149852964D01*
X90323308Y-150565799D02*
X90821777Y-150798237D01*
X90576880Y-150022012D02*
X90788189Y-149568858D01*
X90939403Y-150191059D02*
X90323308Y-150565799D01*
D11*
%TO.C,S32*%
X331267851Y-98043727D02*
X331300953Y-98469643D01*
X331361292Y-98717349D01*
X331509208Y-99034558D01*
X331635993Y-99306450D01*
X331895671Y-99626712D01*
X332179533Y-99880526D01*
X332421136Y-100043712D01*
X332840943Y-100234133D01*
X333152044Y-100309740D01*
X333665538Y-100346139D01*
X331807607Y-101212507D01*
X331375583Y-101469132D01*
X331100635Y-101707678D01*
X330958582Y-101994595D01*
X330723090Y-101607886D01*
X330309389Y-101193941D01*
X329714425Y-100864519D01*
X329336878Y-100764726D01*
X328756939Y-100704144D01*
X328149762Y-100821770D01*
X327696610Y-101033078D01*
X327331032Y-101313887D01*
X327146717Y-101510172D01*
X326844531Y-101926928D01*
X326666324Y-101899691D01*
X326488116Y-101872452D01*
X326319068Y-101509931D01*
X326240654Y-101105145D01*
X326270944Y-100815175D01*
X326322367Y-100570518D01*
X326394918Y-100371181D01*
X326512788Y-100150710D01*
X326606475Y-99996686D01*
X326745471Y-99821534D01*
X326975102Y-99604117D01*
X327225866Y-99432017D01*
X327407125Y-99347492D01*
X331349565Y-97509103D01*
X331267851Y-98043727D01*
G36*
X331267851Y-98043727D02*
G01*
X331300953Y-98469643D01*
X331361292Y-98717349D01*
X331509208Y-99034558D01*
X331635993Y-99306450D01*
X331895671Y-99626712D01*
X332179533Y-99880526D01*
X332421136Y-100043712D01*
X332840943Y-100234133D01*
X333152044Y-100309740D01*
X333665538Y-100346139D01*
X331807607Y-101212507D01*
X331375583Y-101469132D01*
X331100635Y-101707678D01*
X330958582Y-101994595D01*
X330723090Y-101607886D01*
X330309389Y-101193941D01*
X329714425Y-100864519D01*
X329336878Y-100764726D01*
X328756939Y-100704144D01*
X328149762Y-100821770D01*
X327696610Y-101033078D01*
X327331032Y-101313887D01*
X327146717Y-101510172D01*
X326844531Y-101926928D01*
X326666324Y-101899691D01*
X326488116Y-101872452D01*
X326319068Y-101509931D01*
X326240654Y-101105145D01*
X326270944Y-100815175D01*
X326322367Y-100570518D01*
X326394918Y-100371181D01*
X326512788Y-100150710D01*
X326606475Y-99996686D01*
X326745471Y-99821534D01*
X326975102Y-99604117D01*
X327225866Y-99432017D01*
X327407125Y-99347492D01*
X331349565Y-97509103D01*
X331267851Y-98043727D01*
G37*
D12*
%TO.C,D7*%
X106256013Y-116397992D02*
X106425060Y-116035471D01*
X106316108Y-115322636D02*
X107041155Y-115660731D01*
X106425060Y-116035471D02*
X105926591Y-115803029D01*
X106425060Y-116035471D02*
X106316108Y-115322636D01*
X106425060Y-116035471D02*
X106923529Y-116267909D01*
X106678632Y-115491684D02*
X106889941Y-115038530D01*
X107041155Y-115660731D02*
X106425060Y-116035471D01*
%TO.C,D22*%
X161855071Y-132393861D02*
X162024118Y-132031340D01*
X161915166Y-131318505D02*
X162640213Y-131656600D01*
X162024118Y-132031340D02*
X161525649Y-131798898D01*
X162024118Y-132031340D02*
X161915166Y-131318505D01*
X162024118Y-132031340D02*
X162522587Y-132263778D01*
X162277690Y-131487553D02*
X162488999Y-131034399D01*
X162640213Y-131656600D02*
X162024118Y-132031340D01*
D11*
%TO.C,S22*%
X153893670Y-120185385D02*
X154186692Y-120266856D01*
X154367955Y-120351379D01*
X158310394Y-122189768D01*
X157848323Y-122470823D01*
X157543329Y-122769952D01*
X157392360Y-122975399D01*
X157244443Y-123292604D01*
X157117659Y-123564499D01*
X157039240Y-123969284D01*
X157027272Y-124349884D01*
X157057562Y-124639855D01*
X157181538Y-125083848D01*
X157323591Y-125370763D01*
X157625776Y-125787518D01*
X155767845Y-124921151D01*
X155293560Y-124755158D01*
X154934089Y-124697872D01*
X154622990Y-124773477D01*
X154767853Y-124344509D01*
X154819030Y-123761516D01*
X154688948Y-123093999D01*
X154522710Y-122740638D01*
X154196342Y-122257437D01*
X153715949Y-121867917D01*
X153262796Y-121656609D01*
X152812693Y-121557062D01*
X152543857Y-121542037D01*
X152030364Y-121578437D01*
X151936680Y-121424413D01*
X151842996Y-121270390D01*
X152012043Y-120907869D01*
X152271721Y-120587604D01*
X152513321Y-120424421D01*
X152733791Y-120306552D01*
X152933130Y-120233999D01*
X153177782Y-120182576D01*
X153355991Y-120155341D01*
X153579517Y-120149231D01*
X153893670Y-120185385D01*
G36*
X153893670Y-120185385D02*
G01*
X154186692Y-120266856D01*
X154367955Y-120351379D01*
X158310394Y-122189768D01*
X157848323Y-122470823D01*
X157543329Y-122769952D01*
X157392360Y-122975399D01*
X157244443Y-123292604D01*
X157117659Y-123564499D01*
X157039240Y-123969284D01*
X157027272Y-124349884D01*
X157057562Y-124639855D01*
X157181538Y-125083848D01*
X157323591Y-125370763D01*
X157625776Y-125787518D01*
X155767845Y-124921151D01*
X155293560Y-124755158D01*
X154934089Y-124697872D01*
X154622990Y-124773477D01*
X154767853Y-124344509D01*
X154819030Y-123761516D01*
X154688948Y-123093999D01*
X154522710Y-122740638D01*
X154196342Y-122257437D01*
X153715949Y-121867917D01*
X153262796Y-121656609D01*
X152812693Y-121557062D01*
X152543857Y-121542037D01*
X152030364Y-121578437D01*
X151936680Y-121424413D01*
X151842996Y-121270390D01*
X152012043Y-120907869D01*
X152271721Y-120587604D01*
X152513321Y-120424421D01*
X152733791Y-120306552D01*
X152933130Y-120233999D01*
X153177782Y-120182576D01*
X153355991Y-120155341D01*
X153579517Y-120149231D01*
X153893670Y-120185385D01*
G37*
%TD*%
M02*
