M48
; DRILL file {KiCad 8.0.7} date 2024-12-25T21:28:24-0500
; FORMAT={-:-/ absolute / metric / decimal}
; #@! TF.CreationDate,2024-12-25T21:28:24-05:00
; #@! TF.GenerationSoftware,Kicad,Pcbnew,8.0.7
; #@! TF.FileFunction,NonPlated,1,2,NPTH
FMAT,2
METRIC
; #@! TA.AperFunction,NonPlated,NPTH,ComponentDrill
T1C1.900
; #@! TA.AperFunction,NonPlated,NPTH,ComponentDrill
T2C3.000
; #@! TA.AperFunction,NonPlated,NPTH,ComponentDrill
T3C4.100
%
G90
G05
T1
X61.314Y-136.1
X69.365Y-118.835
X70.522Y-140.394
X77.415Y-101.57
X78.573Y-123.129
X78.579Y-144.151
X85.466Y-84.305
X86.623Y-105.864
X86.63Y-126.886
X87.787Y-148.445
X91.597Y-161.311
X94.674Y-88.599
X94.681Y-109.621
X95.838Y-131.18
X99.648Y-144.045
X100.805Y-165.604
X102.731Y-92.356
X103.889Y-113.915
X107.698Y-126.78
X108.856Y-148.339
X109.918Y-167.096
X111.94Y-96.65
X115.749Y-109.515
X116.906Y-131.074
X117.969Y-149.831
X119.126Y-171.39
X123.8Y-92.25
X124.957Y-113.809
X126.02Y-132.565
X126.127Y-177.412
X127.177Y-154.124
X133.008Y-96.544
X134.071Y-115.3
X134.178Y-160.147
X135.228Y-136.859
X135.335Y-181.706
X142.122Y-98.035
X142.229Y-142.882
X143.279Y-119.594
X143.386Y-164.441
X145.308Y-189.408
X150.28Y-125.617
X150.386Y-170.464
X151.33Y-102.329
X151.437Y-147.176
X152.107Y-196.958
X158.33Y-108.352
X158.437Y-153.199
X159.488Y-129.911
X159.595Y-174.758
X161.333Y-209.509
X166.488Y-135.934
X167.539Y-112.646
X167.645Y-157.493
X169.656Y-203.682
X174.539Y-118.668
X175.696Y-140.227
X183.747Y-122.962
X231.689Y-122.962
X239.74Y-140.227
X240.897Y-118.668
X245.781Y-203.682
X247.791Y-157.493
X247.898Y-112.646
X248.948Y-135.934
X254.103Y-209.509
X255.842Y-174.758
X255.949Y-129.911
X256.999Y-153.199
X257.106Y-108.352
X263.329Y-196.958
X263.999Y-147.176
X264.106Y-102.329
X265.05Y-170.464
X265.157Y-125.617
X270.128Y-189.408
X272.05Y-164.441
X272.157Y-119.594
X273.208Y-142.882
X273.314Y-98.035
X280.101Y-181.706
X280.208Y-136.859
X281.258Y-160.147
X281.365Y-115.3
X282.428Y-96.544
X288.259Y-154.124
X289.309Y-177.412
X289.416Y-132.565
X290.479Y-113.809
X291.636Y-92.25
X296.31Y-171.39
X297.467Y-149.831
X298.53Y-131.074
X299.687Y-109.515
X303.497Y-96.65
X305.518Y-167.096
X306.581Y-148.339
X307.738Y-126.78
X311.548Y-113.915
X312.705Y-92.356
X314.632Y-165.604
X315.789Y-144.045
X319.599Y-131.18
X320.756Y-109.621
X320.762Y-88.599
X323.84Y-161.311
X327.649Y-148.445
X328.807Y-126.886
X328.813Y-105.864
X329.97Y-84.305
X336.857Y-144.151
X336.864Y-123.129
X338.021Y-101.57
X344.915Y-140.394
X346.072Y-118.835
X354.123Y-136.1
T2
X63.538Y-134.335
X70.367Y-134.717
X71.589Y-117.07
X78.417Y-117.452
X79.64Y-99.805
X80.803Y-142.386
X86.468Y-100.186
X87.632Y-142.768
X87.691Y-82.54
X88.854Y-125.121
X93.821Y-159.545
X94.519Y-82.921
X95.683Y-125.503
X96.905Y-107.856
X100.65Y-159.927
X101.872Y-142.28
X103.734Y-108.237
X104.956Y-90.591
X108.7Y-142.662
X109.923Y-125.015
X111.784Y-90.972
X112.143Y-165.33
X116.751Y-125.397
X117.974Y-107.75
X118.971Y-165.712
X120.194Y-148.065
X124.802Y-108.131
X126.025Y-90.485
X127.022Y-148.447
X128.245Y-130.8
X128.351Y-175.647
X132.853Y-90.866
X135.073Y-131.182
X135.18Y-176.029
X136.295Y-113.535
X136.402Y-158.382
X143.124Y-113.917
X143.231Y-158.764
X144.346Y-96.27
X144.453Y-141.117
X148.046Y-188.652
X151.175Y-96.651
X151.282Y-141.498
X152.504Y-123.852
X152.611Y-168.699
X154.182Y-191.671
X159.333Y-124.233
X159.439Y-169.08
X160.555Y-106.586
X160.662Y-151.433
X160.916Y-206.7
X164.661Y-200.978
X167.383Y-106.968
X167.49Y-151.815
X168.713Y-134.168
X175.541Y-134.55
X176.764Y-116.903
X183.592Y-117.285
X231.767Y-120.123
X236.448Y-115.138
X239.818Y-137.389
X244.499Y-132.403
X247.868Y-154.654
X247.975Y-109.807
X248.278Y-202.33
X252.55Y-149.668
X252.657Y-104.821
X254.936Y-203.891
X255.919Y-171.919
X256.026Y-127.072
X260.601Y-166.933
X260.708Y-122.086
X262.292Y-194.315
X264.077Y-144.337
X264.184Y-99.49
X264.653Y-187.896
X268.759Y-139.351
X268.865Y-94.505
X272.128Y-161.602
X272.235Y-116.755
X276.81Y-156.617
X276.916Y-111.77
X280.179Y-178.867
X280.286Y-134.02
X282.506Y-93.705
X284.86Y-173.882
X284.967Y-129.035
X287.187Y-88.719
X288.337Y-151.286
X290.556Y-110.97
X293.018Y-146.3
X295.238Y-105.985
X296.387Y-168.551
X298.607Y-128.235
X301.069Y-163.565
X303.289Y-123.25
X303.574Y-93.811
X306.658Y-145.501
X308.256Y-88.825
X311.34Y-140.515
X311.625Y-111.076
X314.709Y-162.766
X316.307Y-106.09
X319.391Y-157.78
X319.676Y-128.341
X320.839Y-85.76
X324.358Y-123.356
X325.521Y-80.774
X327.727Y-145.606
X328.89Y-103.025
X332.409Y-140.621
X333.572Y-98.04
X336.941Y-120.29
X341.623Y-115.305
X344.992Y-137.556
X349.674Y-132.57
T3
X65.918Y-138.247
X73.969Y-120.982
X82.019Y-103.717
X83.183Y-146.298
X90.07Y-86.452
X91.234Y-129.033
X96.201Y-163.458
X99.285Y-111.768
X104.252Y-146.192
X107.335Y-94.503
X112.302Y-128.927
X114.522Y-169.243
X120.353Y-111.662
X122.573Y-151.977
X128.404Y-94.397
X130.624Y-134.712
X130.731Y-179.559
X138.675Y-117.447
X138.782Y-162.294
X146.726Y-100.182
X146.833Y-145.029
X148.708Y-193.183
X154.884Y-127.764
X154.991Y-172.611
X162.935Y-110.499
X163.041Y-155.346
X165.494Y-206.596
X171.092Y-138.08
X179.143Y-120.815
X236.293Y-120.815
X244.344Y-138.08
X249.942Y-206.596
X252.395Y-155.346
X252.502Y-110.499
X260.446Y-172.611
X260.553Y-127.764
X266.729Y-193.183
X268.604Y-145.029
X268.71Y-100.182
X276.654Y-162.294
X276.761Y-117.447
X284.705Y-179.559
X284.812Y-134.712
X287.032Y-94.397
X292.863Y-151.977
X295.083Y-111.662
X300.914Y-169.243
X303.134Y-128.927
X308.101Y-94.503
X311.185Y-146.192
X316.152Y-111.768
X319.236Y-163.458
X324.203Y-129.033
X325.366Y-86.452
X332.253Y-146.298
X333.417Y-103.717
X341.468Y-120.982
X349.519Y-138.247
M30
