%TF.GenerationSoftware,KiCad,Pcbnew,8.0.7*%
%TF.CreationDate,2024-12-23T04:44:47-05:00*%
%TF.ProjectId,mx,6d782e6b-6963-4616-945f-706362585858,v1.0.0*%
%TF.SameCoordinates,Original*%
%TF.FileFunction,Copper,L2,Bot*%
%TF.FilePolarity,Positive*%
%FSLAX46Y46*%
G04 Gerber Fmt 4.6, Leading zero omitted, Abs format (unit mm)*
G04 Created by KiCad (PCBNEW 8.0.7) date 2024-12-23 04:44:47*
%MOMM*%
%LPD*%
G01*
G04 APERTURE LIST*
G04 Aperture macros list*
%AMRotRect*
0 Rectangle, with rotation*
0 The origin of the aperture is its center*
0 $1 length*
0 $2 width*
0 $3 Rotation angle, in degrees counterclockwise*
0 Add horizontal line*
21,1,$1,$2,0,0,$3*%
G04 Aperture macros list end*
%TA.AperFunction,ComponentPad*%
%ADD10C,0.600000*%
%TD*%
%TA.AperFunction,ComponentPad*%
%ADD11C,0.700000*%
%TD*%
%TA.AperFunction,ComponentPad*%
%ADD12C,4.400000*%
%TD*%
%TA.AperFunction,ComponentPad*%
%ADD13C,1.700000*%
%TD*%
%TA.AperFunction,SMDPad,CuDef*%
%ADD14RotRect,0.900000X1.200000X65.000000*%
%TD*%
%TA.AperFunction,SMDPad,CuDef*%
%ADD15RotRect,2.600000X2.600000X25.000000*%
%TD*%
%TA.AperFunction,SMDPad,CuDef*%
%ADD16RotRect,0.900000X1.200000X115.000000*%
%TD*%
%TA.AperFunction,SMDPad,CuDef*%
%ADD17RotRect,2.600000X2.600000X335.000000*%
%TD*%
%TA.AperFunction,SMDPad,CuDef*%
%ADD18RotRect,0.900000X1.200000X55.000000*%
%TD*%
%TA.AperFunction,SMDPad,CuDef*%
%ADD19RotRect,0.900000X1.200000X125.000000*%
%TD*%
%TA.AperFunction,SMDPad,CuDef*%
%ADD20RotRect,2.600000X2.600000X48.000000*%
%TD*%
%TA.AperFunction,SMDPad,CuDef*%
%ADD21RotRect,0.900000X1.200000X42.000000*%
%TD*%
%TA.AperFunction,SMDPad,CuDef*%
%ADD22RotRect,2.600000X2.600000X312.000000*%
%TD*%
%TA.AperFunction,SMDPad,CuDef*%
%ADD23RotRect,2.600000X2.600000X35.000000*%
%TD*%
%TA.AperFunction,SMDPad,CuDef*%
%ADD24RotRect,2.600000X2.600000X325.000000*%
%TD*%
%TA.AperFunction,SMDPad,CuDef*%
%ADD25RotRect,0.900000X1.200000X138.000000*%
%TD*%
%TA.AperFunction,Conductor*%
%ADD26C,0.250000*%
%TD*%
G04 APERTURE END LIST*
D10*
X336233669Y-120975446D03*
X344284549Y-138240606D03*
X171584677Y-109435315D03*
D11*
X96022972Y-90226875D03*
X95967885Y-91488529D03*
X96954047Y-89373701D03*
X96821059Y-92419604D03*
D12*
X97518380Y-90924196D03*
D11*
X98215701Y-89428788D03*
X98082713Y-92474691D03*
X99068875Y-90359863D03*
X99013788Y-91621517D03*
X250296683Y-117934030D03*
X250241596Y-116672377D03*
X251227759Y-118787204D03*
X251094770Y-115741301D03*
D12*
X251792091Y-117236709D03*
D11*
X252489412Y-118732117D03*
X252356423Y-115686214D03*
X253342586Y-117801041D03*
X253287499Y-116539388D03*
D10*
X280741480Y-92124339D03*
X336892449Y-104641688D03*
X298558558Y-112586675D03*
D13*
X218049070Y-131824890D03*
X218049070Y-134364887D03*
X218049071Y-136904891D03*
X218049070Y-139444889D03*
X218049070Y-141984887D03*
X218049071Y-144524889D03*
X218049070Y-147064888D03*
X218049069Y-149604889D03*
X218049070Y-152144891D03*
X218049070Y-154684889D03*
X218049071Y-157224888D03*
X218049070Y-159764891D03*
X218049069Y-162304889D03*
X202809070Y-162304888D03*
X202809070Y-159764891D03*
X202809069Y-157224887D03*
X202809070Y-154684889D03*
X202809070Y-152144891D03*
X202809069Y-149604889D03*
X202809070Y-147064890D03*
X202809071Y-144524889D03*
X202809070Y-141984887D03*
X202809070Y-139444889D03*
X202809069Y-136904890D03*
X202809070Y-134364887D03*
X202809071Y-131824889D03*
D10*
X337397080Y-78394239D03*
X104850841Y-162394212D03*
X139381167Y-178495965D03*
X179742420Y-137017128D03*
X272476878Y-164553120D03*
X147325177Y-116383834D03*
X177407955Y-196940240D03*
X163640662Y-171547451D03*
X82618709Y-119918899D03*
D11*
X338206112Y-126151843D03*
X338151025Y-124890190D03*
X339137188Y-127005017D03*
X339004199Y-123959114D03*
D12*
X339701520Y-125454522D03*
D11*
X340398841Y-126949930D03*
X340265852Y-123904027D03*
X341252015Y-126018854D03*
X341196928Y-124757201D03*
D10*
X320131912Y-86445115D03*
X171691540Y-154282284D03*
D11*
X274449323Y-169729518D03*
X274394236Y-168467865D03*
X275380399Y-170582692D03*
X275247410Y-167536789D03*
D12*
X275944731Y-169032197D03*
D11*
X276642052Y-170527605D03*
X276509063Y-167481702D03*
X277495226Y-169596529D03*
X277440139Y-168334876D03*
D10*
X151153597Y-125920280D03*
X315164944Y-120869552D03*
X312944989Y-161184988D03*
X272583739Y-119706143D03*
X107934744Y-110704613D03*
X288792354Y-109389497D03*
X307114062Y-103604385D03*
X304894111Y-143919825D03*
X319627285Y-112692564D03*
X288685492Y-154236476D03*
X112901718Y-145129050D03*
X74567827Y-137184059D03*
X264425999Y-147287957D03*
X129003472Y-110598724D03*
X361549707Y-130189734D03*
X139274306Y-133648994D03*
X134944981Y-115603632D03*
X353498830Y-112924568D03*
X299063184Y-86339227D03*
X98720461Y-85388570D03*
X296843235Y-126654661D03*
X120952598Y-127863884D03*
X248324244Y-112757629D03*
X137054351Y-93333560D03*
X155482920Y-143965640D03*
X257267153Y-206432931D03*
X131223425Y-150914154D03*
X90669583Y-102653736D03*
X91832992Y-145234943D03*
X280634617Y-136971309D03*
D13*
X207309072Y-167159890D03*
X213809072Y-167159894D03*
D10*
X345447956Y-95659405D03*
X167362214Y-136236928D03*
X154113071Y-193823305D03*
X163533800Y-126700473D03*
X323215819Y-138134718D03*
X115985624Y-93439450D03*
X99883871Y-127969775D03*
D11*
X144734551Y-166069106D03*
X144679464Y-167330760D03*
X145665626Y-165215932D03*
X145532638Y-168261835D03*
D12*
X146229959Y-166766427D03*
D11*
X146927280Y-165271019D03*
X146794292Y-168316922D03*
X147780454Y-166202094D03*
X147725367Y-167463748D03*
D10*
X264532859Y-102440980D03*
D11*
X322104360Y-91621517D03*
X322049273Y-90359864D03*
X323035436Y-92474691D03*
X322902447Y-89428788D03*
D12*
X323599768Y-90924196D03*
D11*
X324297089Y-92419604D03*
X324164100Y-89373701D03*
X325150263Y-91488528D03*
X325095176Y-90226875D03*
D10*
X331266697Y-155399879D03*
D11*
X79921216Y-124757204D03*
X79866129Y-126018858D03*
X80852291Y-123904030D03*
X80719303Y-126949933D03*
D12*
X81416624Y-125454525D03*
D11*
X82113945Y-123959117D03*
X81980957Y-127005020D03*
X82967119Y-124890192D03*
X82912032Y-126151846D03*
D10*
X123172552Y-168179319D03*
X147432042Y-161230803D03*
X187793297Y-119751960D03*
D11*
X168887188Y-114273616D03*
X168832101Y-115535270D03*
X169818263Y-113420442D03*
X169685275Y-116466345D03*
D12*
X170382596Y-114970937D03*
D11*
X171079917Y-113475529D03*
X170946929Y-116521432D03*
X171933091Y-114406604D03*
X171878004Y-115668258D03*
D10*
X296736372Y-171501634D03*
X256375121Y-130022791D03*
X328182788Y-103710285D03*
X155376060Y-99118667D03*
X278079188Y-181524263D03*
D14*
X172366520Y-107758646D03*
X173761162Y-104767830D03*
D15*
X241702214Y-125886275D03*
X253099832Y-122998910D03*
X305459005Y-82308598D03*
X316856623Y-79421233D03*
D14*
X113683559Y-143452377D03*
X115078201Y-140461561D03*
D16*
X288010512Y-107712829D03*
X286615870Y-104722013D03*
D17*
X141062377Y-102484824D03*
X150600471Y-109359942D03*
D16*
X344666116Y-93982733D03*
X343271474Y-90991917D03*
D14*
X188575140Y-118075294D03*
X189969782Y-115084478D03*
X123954393Y-166502648D03*
X125349035Y-163511832D03*
D15*
X322724172Y-74257720D03*
X334121790Y-71370355D03*
X274012585Y-150099952D03*
X285410203Y-147212587D03*
D16*
X255593273Y-128346121D03*
X254198631Y-125355305D03*
X314383100Y-119192883D03*
X312988458Y-116202067D03*
D15*
X282170322Y-122518139D03*
X293567940Y-119630774D03*
D17*
X114689794Y-113964879D03*
X124227888Y-120839997D03*
D14*
X105632682Y-160717542D03*
X107027324Y-157726726D03*
X108716588Y-109027947D03*
X110111230Y-106037131D03*
D15*
X290221204Y-139783304D03*
X301618822Y-136895939D03*
D18*
X258328267Y-204917500D03*
X260221069Y-202214296D03*
D17*
X101671941Y-96805613D03*
X111210035Y-103680731D03*
D16*
X287903652Y-152559803D03*
X286509010Y-149568987D03*
D14*
X172473378Y-152605624D03*
X173868020Y-149614808D03*
X156157903Y-97441999D03*
X157552545Y-94451183D03*
X140163011Y-176819299D03*
X141557653Y-173828483D03*
X180524261Y-135340458D03*
X181918903Y-132349642D03*
D17*
X149113258Y-85219663D03*
X158651352Y-92094781D03*
X133118365Y-164596962D03*
X142656459Y-171472080D03*
D16*
X322433980Y-136458048D03*
X321039338Y-133467232D03*
D17*
X76355899Y-106019892D03*
X85893993Y-112895010D03*
D15*
X249859954Y-98304465D03*
X261257572Y-95417100D03*
D16*
X279852768Y-135294636D03*
X278458126Y-132303820D03*
X360767863Y-128513062D03*
X359373221Y-125522246D03*
X295954526Y-169824965D03*
X294559884Y-166834149D03*
D19*
X176346840Y-195424812D03*
X174454038Y-192721608D03*
D15*
X274119444Y-105252975D03*
X285517062Y-102365610D03*
D16*
X263644154Y-145611287D03*
X262249512Y-142620471D03*
X312163148Y-159508319D03*
X310768506Y-156517503D03*
D14*
X99502301Y-83711902D03*
X100896943Y-80721086D03*
D17*
X122740672Y-96699717D03*
X132278766Y-103574835D03*
D14*
X137836191Y-91656883D03*
X139230833Y-88666067D03*
X83400548Y-118242232D03*
X84795190Y-115251416D03*
D16*
X296061387Y-124977990D03*
X294666745Y-121987174D03*
D14*
X75349670Y-135507394D03*
X76744312Y-132516578D03*
D16*
X271801895Y-118029476D03*
X270407253Y-115038660D03*
D14*
X140056146Y-131972324D03*
X141450788Y-128981508D03*
D15*
X257803970Y-160416599D03*
X269201588Y-157529234D03*
D17*
X92457655Y-71489569D03*
X101995749Y-78364687D03*
D15*
X300492033Y-116733033D03*
X311889651Y-113845668D03*
D16*
X304112266Y-142243154D03*
X302717624Y-139252338D03*
D17*
X157377862Y-157648447D03*
X166915956Y-164523565D03*
D15*
X265961706Y-132834785D03*
X277359324Y-129947420D03*
D14*
X129785317Y-108922052D03*
X131179959Y-105931236D03*
D17*
X165428732Y-140383286D03*
X174966826Y-147258404D03*
D16*
X343502708Y-136563937D03*
X342108066Y-133573121D03*
D20*
X262956433Y-183449736D03*
X272319813Y-176338502D03*
D14*
X121734438Y-126187218D03*
X123129080Y-123196402D03*
D15*
X292441156Y-99467869D03*
X303838774Y-96580504D03*
D17*
X93621064Y-114070774D03*
X103159158Y-120945892D03*
D14*
X116767467Y-91762779D03*
X118162109Y-88771963D03*
D17*
X130791547Y-79434555D03*
X140329641Y-86309673D03*
X85570185Y-131335934D03*
X95108279Y-138211052D03*
X106638917Y-131230045D03*
X116177011Y-138105163D03*
D14*
X164422502Y-169870782D03*
X165817144Y-166879966D03*
D15*
X249753091Y-143151438D03*
X261150709Y-140264073D03*
D17*
X173479615Y-123118121D03*
X183017709Y-129993239D03*
D16*
X263751017Y-100764315D03*
X262356375Y-97773499D03*
X330484855Y-153723211D03*
X329090213Y-150732395D03*
X336615233Y-76717568D03*
X335220591Y-73726752D03*
D14*
X164315642Y-125023807D03*
X165710284Y-122032991D03*
D21*
X155487887Y-192585418D03*
X157940265Y-190377286D03*
D22*
X153778900Y-178582140D03*
X159872441Y-188637549D03*
D14*
X148107026Y-114707159D03*
X149501668Y-111716343D03*
D15*
X338825922Y-108788047D03*
X350223540Y-105900682D03*
D16*
X306332221Y-101927720D03*
X304937579Y-98936904D03*
D14*
X132005271Y-149237489D03*
X133399913Y-146246673D03*
D17*
X165321874Y-95536312D03*
X174859968Y-102411430D03*
X124960625Y-137015150D03*
X134498719Y-143890268D03*
D16*
X352716991Y-111247899D03*
X351322349Y-108257083D03*
D17*
X98588037Y-148495204D03*
X108126131Y-155370322D03*
D16*
X327400946Y-102033617D03*
X326006304Y-99042801D03*
X279959634Y-90447663D03*
X278564992Y-87456847D03*
D17*
X141169242Y-147331801D03*
X150707336Y-154206919D03*
X109722818Y-79540448D03*
X119260912Y-86415566D03*
D15*
X298272080Y-157048467D03*
X309669698Y-154161102D03*
X282063464Y-167365115D03*
X293461082Y-164477750D03*
X233651335Y-108621111D03*
X245048953Y-105733746D03*
X257910826Y-115569622D03*
X269308444Y-112682257D03*
X330775048Y-91522883D03*
X342172666Y-88635518D03*
X308542914Y-133998194D03*
X319940532Y-131110829D03*
X321560759Y-116838922D03*
X332958377Y-113951557D03*
D14*
X100665711Y-126293106D03*
X102060353Y-123302290D03*
D23*
X162239668Y-195414481D03*
X172962743Y-190591807D03*
D17*
X133011499Y-119749988D03*
X142549593Y-126625106D03*
D14*
X148213884Y-159554132D03*
X149608526Y-156563316D03*
D16*
X319350072Y-84768450D03*
X317955430Y-81777634D03*
D17*
X181530494Y-105852955D03*
X191068588Y-112728073D03*
D16*
X298281341Y-84662555D03*
X296886699Y-81671739D03*
X335451828Y-119298776D03*
X334057186Y-116307960D03*
D14*
X156264767Y-142288968D03*
X157659409Y-139298152D03*
D15*
X313509883Y-99573760D03*
X324907501Y-96686395D03*
D16*
X247542397Y-111080961D03*
X246147755Y-108090145D03*
D14*
X92614838Y-143558272D03*
X94009480Y-140567456D03*
D15*
X329611641Y-134104088D03*
X341009259Y-131216723D03*
D24*
X253513031Y-191657557D03*
X261712367Y-200084501D03*
D17*
X149220122Y-130066633D03*
X158758216Y-136941751D03*
X68305022Y-123285062D03*
X77843116Y-130160180D03*
X157270995Y-112801469D03*
X166809089Y-119676587D03*
D25*
X276704370Y-180286372D03*
X274251990Y-178078238D03*
D15*
X284390278Y-82202705D03*
X295787896Y-79315340D03*
D17*
X116909744Y-154280318D03*
X126447838Y-161155436D03*
D15*
X346876800Y-126053209D03*
X358274418Y-123165844D03*
D16*
X271695036Y-162876452D03*
X270300394Y-159885636D03*
D17*
X84406780Y-88754732D03*
X93944874Y-95629850D03*
D15*
X316593791Y-151263358D03*
X327991409Y-148375993D03*
D14*
X91451424Y-100977066D03*
X92846066Y-97986250D03*
D15*
X266068564Y-87987816D03*
X277466182Y-85100451D03*
D26*
X163471218Y-216091102D02*
X164102450Y-215627288D01*
X257015691Y-215627287D02*
X256899397Y-215545862D01*
X151247620Y-202112225D02*
X151253984Y-202112560D01*
X235606792Y-200636618D02*
X235606778Y-200636618D01*
X68305023Y-123285059D02*
X60177931Y-140713667D01*
X256899397Y-215545862D02*
X235606792Y-200636618D01*
X68305019Y-123285056D02*
X68305022Y-123285060D01*
X136379916Y-185601866D02*
X136381204Y-185601398D01*
X322724173Y-74257719D02*
X330775049Y-91522876D01*
X84406780Y-88754733D02*
X84343637Y-88890139D01*
X346876798Y-126053207D02*
X346876802Y-126053208D01*
X185538005Y-200636625D02*
X185538006Y-200636623D01*
X183348900Y-202150782D02*
X183358732Y-202152510D01*
X284728022Y-185623208D02*
X284709516Y-185631850D01*
X336892445Y-104641689D02*
X336892449Y-104641688D01*
X336892447Y-104641692D02*
X336892449Y-104641688D01*
X76355899Y-106019893D02*
X68305019Y-123285056D01*
X260211638Y-215249340D02*
X257135851Y-215719600D01*
X346876802Y-126053208D02*
X355806499Y-145203007D01*
X160782740Y-215080909D02*
X161278695Y-215755886D01*
X84343637Y-88890139D02*
X84343633Y-88890141D01*
X60177931Y-140713667D02*
X60707719Y-142169243D01*
X338253526Y-160614517D02*
X338247693Y-160613985D01*
X164102450Y-215627288D02*
X183348900Y-202150782D01*
X82856891Y-160608094D02*
X82857677Y-160608020D01*
X82857677Y-160608020D02*
X136379916Y-185601866D01*
X185538006Y-200636623D02*
X235606778Y-200636618D01*
X338825923Y-108788048D02*
X346876798Y-126053207D01*
X330775049Y-91522876D02*
X330775048Y-91522884D01*
X84343633Y-88890141D02*
X76355899Y-106019893D01*
X136381204Y-185601398D02*
X151247620Y-202112225D01*
X338247693Y-160613985D02*
X284735276Y-185603240D01*
X185523646Y-200636620D02*
X185538005Y-200636625D01*
X84406776Y-88754728D02*
X84406780Y-88754733D01*
X60707719Y-142169243D02*
X82856891Y-160608094D01*
X330775048Y-91522884D02*
X336892445Y-104641689D01*
X284709516Y-185631850D02*
X269837258Y-202149166D01*
X161278695Y-215755886D02*
X163471218Y-216091102D01*
X355389302Y-146349244D02*
X338253526Y-160614517D01*
X284735276Y-185603240D02*
X284728022Y-185623208D01*
X355806499Y-145203007D02*
X355389302Y-146349244D01*
X338825923Y-108788048D02*
X336892447Y-104641692D01*
X92457654Y-71489571D02*
X84406776Y-88754728D01*
X269837258Y-202149166D02*
X269662122Y-202387523D01*
X183358732Y-202152510D02*
X185523646Y-200636620D01*
X257135851Y-215719600D02*
X256899397Y-215545862D01*
X151253984Y-202112560D02*
X160782740Y-215080909D01*
X260211638Y-215249340D02*
X269662122Y-202387523D01*
X76744312Y-132516571D02*
X76744312Y-132516574D01*
X77843117Y-130160180D02*
X76744312Y-132516571D01*
X208717318Y-136904890D02*
X211257317Y-139444890D01*
X218179071Y-141984886D02*
X218179070Y-139444886D01*
X215311284Y-141984885D02*
X213809070Y-143487099D01*
X218179071Y-141984886D02*
X215311284Y-141984885D01*
X213809070Y-143487099D02*
X213809071Y-167159892D01*
X211257317Y-139444890D02*
X218179070Y-139444886D01*
X202939071Y-136904890D02*
X208717318Y-136904890D01*
X85893992Y-112895012D02*
X84795186Y-115251405D01*
X84795186Y-115251405D02*
X84795191Y-115251414D01*
X92846069Y-97986247D02*
X92846067Y-97986249D01*
X93944873Y-95629853D02*
X92846069Y-97986247D01*
X101995749Y-78364688D02*
X100896942Y-80721079D01*
X100896942Y-80721079D02*
X100896942Y-80721082D01*
X316593790Y-151263356D02*
X323262733Y-165544339D01*
X163815659Y-215217712D02*
X185353694Y-200136617D01*
X322599121Y-167369362D02*
X284432247Y-185192549D01*
X269449055Y-201833075D02*
X269449019Y-201833120D01*
X98588035Y-148495209D02*
X91771541Y-163092157D01*
X185532829Y-200136621D02*
X185733867Y-200136625D01*
X235764452Y-200136622D02*
X235751613Y-200138887D01*
X109722821Y-79540448D02*
X101671940Y-96805613D01*
X185532824Y-200136622D02*
X185532829Y-200136621D01*
X85570186Y-131335935D02*
X81314530Y-140462217D01*
X91775374Y-163105008D02*
X92263454Y-164446001D01*
X269449019Y-201833120D02*
X269448200Y-201834229D01*
X101671940Y-96805613D02*
X101617113Y-96923195D01*
X319627283Y-112692565D02*
X319627285Y-112692564D01*
X329611638Y-134104086D02*
X329611640Y-134104087D01*
X314592681Y-146971968D02*
X316593791Y-151263359D01*
X257154564Y-215114143D02*
X235764452Y-200136622D01*
X307827564Y-87387991D02*
X313509883Y-99573760D01*
X323262733Y-165544339D02*
X322599562Y-167369523D01*
X98588038Y-148495205D02*
X91775374Y-163105008D01*
X322599562Y-167369523D02*
X322599121Y-167369362D01*
X329611640Y-134104087D02*
X330606895Y-136238420D01*
X323258878Y-165556690D02*
X322599121Y-167369362D01*
X269448200Y-201834229D02*
X269401768Y-201897426D01*
X269348212Y-201970318D02*
X259931343Y-214786386D01*
X91771541Y-163092157D02*
X92263454Y-164446001D01*
X321560757Y-116838920D02*
X329611638Y-134104086D01*
X185733876Y-200136621D02*
X235748376Y-200136626D01*
X284432247Y-185192549D02*
X269449055Y-201833075D01*
X97010530Y-147759600D02*
X98588038Y-148495205D01*
X316593791Y-151263359D02*
X323258878Y-165556690D01*
X185353702Y-200136618D02*
X185532824Y-200136622D01*
X329957528Y-138022542D02*
X315375036Y-144822468D01*
X305459003Y-82308599D02*
X307827561Y-87387989D01*
X82238299Y-143000247D02*
X94446265Y-148692914D01*
X185733867Y-200136625D02*
X185733876Y-200136621D01*
X257268014Y-215193578D02*
X257158980Y-215113466D01*
X315375036Y-144822468D02*
X314592681Y-146971968D01*
X136694162Y-185194273D02*
X151633273Y-201785838D01*
X101617111Y-96923192D02*
X93621064Y-114070774D01*
X321560757Y-116838920D02*
X319627283Y-112692565D01*
X101617113Y-96923195D02*
X101617111Y-96923192D01*
X235751613Y-200138887D02*
X235748376Y-200136626D01*
X81314530Y-140462217D02*
X82238299Y-143000247D01*
X307827561Y-87387989D02*
X307827564Y-87387991D01*
X92263454Y-164446001D02*
X136694162Y-185194273D01*
X257158980Y-215113466D02*
X257154564Y-215114143D01*
X185353694Y-200136617D02*
X185353702Y-200136618D01*
X163342057Y-215565544D02*
X163815588Y-215217607D01*
X151633350Y-201784439D02*
X161558992Y-215292929D01*
X319627278Y-112692561D02*
X319627285Y-112692564D01*
X161558992Y-215292929D02*
X163342057Y-215565544D01*
X330606895Y-136238420D02*
X329957528Y-138022542D01*
X269401768Y-201897426D02*
X269348212Y-201970318D01*
X259931343Y-214786386D02*
X257268014Y-215193578D01*
X93621064Y-114070774D02*
X85570186Y-131335935D01*
X151633273Y-201785838D02*
X151633350Y-201784439D01*
X313509883Y-99573760D02*
X319627278Y-112692561D01*
X94446265Y-148692914D02*
X97010530Y-147759600D01*
X94009477Y-140567446D02*
X94009478Y-140567457D01*
X95108279Y-138211055D02*
X94009477Y-140567446D01*
X102060351Y-123302289D02*
X102060352Y-123302293D01*
X103159158Y-120945892D02*
X102060351Y-123302289D01*
X110111228Y-106037128D02*
X110111229Y-106037132D01*
X111210035Y-103680732D02*
X110111228Y-106037128D01*
X118162109Y-88771961D02*
X118162109Y-88771966D01*
X119260914Y-86415565D02*
X118162109Y-88771961D01*
X108126130Y-155370322D02*
X107027326Y-157726723D01*
X185196050Y-199636620D02*
X185290702Y-199636618D01*
X235922097Y-199636622D02*
X235907909Y-199639123D01*
X306006123Y-173634177D02*
X305597683Y-174756355D01*
X305597683Y-174756355D02*
X284129453Y-184781600D01*
X106638916Y-131230045D02*
X114689793Y-113964883D01*
X284129453Y-184781600D02*
X269060846Y-201516982D01*
X292441155Y-99467869D02*
X292441156Y-99467872D01*
X130791549Y-79434556D02*
X122740668Y-96699713D01*
X298272079Y-157048468D02*
X296761209Y-153808397D01*
X122740671Y-96699719D02*
X114689794Y-113964879D01*
X257385149Y-214665214D02*
X235922097Y-199636622D01*
X311610069Y-140575728D02*
X308542916Y-133998195D01*
X305598309Y-174756576D02*
X305597683Y-174756355D01*
X306011007Y-173620744D02*
X305598309Y-174756576D01*
X116909744Y-154280321D02*
X109399571Y-170385934D01*
X235907909Y-199639123D02*
X235904339Y-199636625D01*
X109395470Y-170371513D02*
X110061913Y-172205701D01*
X284390278Y-82202708D02*
X292441155Y-99467869D01*
X259654897Y-214318188D02*
X257385149Y-214665214D01*
X161839290Y-214829978D02*
X163210229Y-215039583D01*
X163210229Y-215039583D02*
X163451102Y-214862593D01*
X309515693Y-146329977D02*
X311610069Y-140575728D01*
X152030564Y-201480606D02*
X161839290Y-214829978D01*
X110061913Y-172205701D02*
X110067507Y-172203669D01*
X259654897Y-214318188D02*
X269060846Y-201516982D01*
X163451102Y-214862593D02*
X163638297Y-214731521D01*
X109399571Y-170385934D02*
X110061913Y-172205701D01*
X298558553Y-112586672D02*
X298558558Y-112586675D01*
X296761209Y-153808397D02*
X297432316Y-151964550D01*
X298272080Y-157048465D02*
X306011007Y-173620744D01*
X106638916Y-131230045D02*
X100701239Y-143963434D01*
X136992862Y-184777283D02*
X152021541Y-201468329D01*
X297432316Y-151964550D02*
X309515693Y-146329977D01*
X163638297Y-214731521D02*
X163720229Y-214674149D01*
X300492032Y-116733032D02*
X308542908Y-133998194D01*
X122740668Y-96699713D02*
X122740671Y-96699719D01*
X116909745Y-154280318D02*
X109395470Y-170371513D01*
X101910590Y-147286097D02*
X116909744Y-154280321D01*
X185290702Y-199636618D02*
X235904339Y-199636625D01*
X292441156Y-99467872D02*
X298558553Y-112586672D01*
X163528876Y-214808138D02*
X163720229Y-214674149D01*
X110067507Y-172203669D02*
X136992862Y-184777283D01*
X308542908Y-133998194D02*
X308542916Y-133998195D01*
X300492032Y-116733032D02*
X298558556Y-112586679D01*
X298272079Y-157048468D02*
X306006123Y-173634177D01*
X100701239Y-143963434D02*
X101910590Y-147286097D01*
X114689793Y-113964883D02*
X114689794Y-113964879D01*
X152021541Y-201468329D02*
X152030564Y-201480606D01*
X163720229Y-214674149D02*
X185196050Y-199636620D01*
X298558556Y-112586679D02*
X298558558Y-112586675D01*
X115078202Y-140461557D02*
X115078203Y-140461560D01*
X116177008Y-138105161D02*
X115078202Y-140461557D01*
X124227888Y-120839997D02*
X123129081Y-123196400D01*
X132278765Y-103574836D02*
X131179959Y-105931235D01*
X131179959Y-105931235D02*
X131179957Y-105931235D01*
X140329642Y-86309669D02*
X139230836Y-88666065D01*
X139230836Y-88666065D02*
X139230831Y-88666063D01*
X126447838Y-161155439D02*
X125349034Y-163511831D01*
X125349034Y-163511831D02*
X125349032Y-163511832D01*
X185041401Y-199136620D02*
X236067482Y-199136621D01*
X281764255Y-160671975D02*
X280527235Y-164070664D01*
X274119445Y-105252976D02*
X282170321Y-122518140D01*
X259385126Y-213840909D02*
X268637090Y-201249278D01*
X126767896Y-178215587D02*
X127309447Y-179703488D01*
X119120149Y-149540088D02*
X119782725Y-151360498D01*
X124960626Y-137015149D02*
X119120149Y-149540088D01*
X133118369Y-164596959D02*
X126767896Y-178215587D01*
X163077887Y-214513538D02*
X185038395Y-199136622D01*
X288496168Y-181160096D02*
X288044291Y-182401617D01*
X290221198Y-139783304D02*
X290221204Y-139783307D01*
X162119583Y-214367021D02*
X163077887Y-214513538D01*
X127309447Y-179703488D02*
X127310074Y-179703260D01*
X141062378Y-102484825D02*
X141062376Y-102484825D01*
X127310074Y-179703260D02*
X137295652Y-184366334D01*
X137295652Y-184366334D02*
X152409757Y-201152241D01*
X185038395Y-199136622D02*
X185040800Y-199137044D01*
X288499794Y-181147979D02*
X288044291Y-182401617D01*
X288043666Y-182401388D02*
X283826660Y-184370644D01*
X268648986Y-201233080D02*
X268637090Y-201249278D01*
X266068567Y-87987816D02*
X274119445Y-105252976D01*
X134165827Y-158067450D02*
X135041389Y-160473030D01*
X185040800Y-199137044D02*
X185041401Y-199136620D01*
X294343810Y-154806034D02*
X281764255Y-160671975D01*
X257492830Y-214130226D02*
X236079748Y-199136618D01*
X134944976Y-115603634D02*
X134944981Y-115603632D01*
X259385126Y-213840909D02*
X257492830Y-214130226D01*
X134944980Y-115603629D02*
X134944981Y-115603632D01*
X295607463Y-151334171D02*
X294343810Y-154806034D01*
X282170321Y-122518140D02*
X282170322Y-122518145D01*
X132999070Y-119776639D02*
X132999073Y-119776646D01*
X133011500Y-119749989D02*
X134944976Y-115603634D01*
X141062376Y-102484825D02*
X134944980Y-115603629D01*
X119782725Y-151360498D02*
X134165827Y-158067450D01*
X282063464Y-167365114D02*
X288499794Y-181147979D01*
X290221204Y-139783307D02*
X295607463Y-151334171D01*
X236067483Y-199136622D02*
X236067482Y-199136621D01*
X268672644Y-201200886D02*
X268672531Y-201201041D01*
X283826660Y-184370644D02*
X268672644Y-201200886D01*
X236079748Y-199136618D02*
X236067483Y-199136622D01*
X126764409Y-178203431D02*
X127309447Y-179703488D01*
X280527235Y-164070664D02*
X282063463Y-167365115D01*
X268672531Y-201201041D02*
X268648986Y-201233080D01*
X152409930Y-201152479D02*
X162119583Y-214367021D01*
X133011500Y-119749989D02*
X132999070Y-119776639D01*
X149113255Y-85219661D02*
X141062378Y-102484825D01*
X282063463Y-167365115D02*
X288496168Y-181160096D01*
X152409928Y-201152480D02*
X152409930Y-201152479D01*
X152409757Y-201152241D02*
X152409928Y-201152480D01*
X132999073Y-119776646D02*
X124960626Y-137015149D01*
X135041389Y-160473030D02*
X133118366Y-164596962D01*
X282170322Y-122518145D02*
X290221198Y-139783304D01*
X288044291Y-182401617D02*
X288043666Y-182401388D01*
X133118366Y-164596964D02*
X126764409Y-178203431D01*
X134498718Y-143890269D02*
X133399913Y-146246671D01*
X133399913Y-146246671D02*
X133399914Y-146246670D01*
X142549595Y-126625108D02*
X141450789Y-128981505D01*
X141450789Y-128981505D02*
X141450786Y-128981507D01*
X149501666Y-111716337D02*
X149501670Y-111716341D01*
X150600472Y-109359943D02*
X149501666Y-111716337D01*
X157552544Y-94451178D02*
X157552544Y-94451183D01*
X158651351Y-92094778D02*
X157552544Y-94451178D01*
X141557653Y-173828478D02*
X141557654Y-173828483D01*
X142656461Y-171472080D02*
X141557653Y-173828478D01*
X258551369Y-179440643D02*
X259431686Y-177021995D01*
X184880744Y-198636623D02*
X184901701Y-198640316D01*
X257910827Y-115569622D02*
X257910826Y-115569625D01*
X259431686Y-177021995D02*
X269219812Y-172457717D01*
X141169243Y-147331801D02*
X149220120Y-130066634D01*
X269219812Y-172457717D02*
X270772455Y-168191867D01*
X149220120Y-130066634D02*
X149220122Y-130066633D01*
X141169243Y-147331801D02*
X137209419Y-155823668D01*
X236230627Y-198636623D02*
X236230623Y-198636620D01*
X143293250Y-190280100D02*
X152787241Y-200824249D01*
X273686908Y-193111494D02*
X273774723Y-194787213D01*
X265961704Y-132834784D02*
X265961707Y-132834785D01*
X262956437Y-183449737D02*
X273686908Y-193111494D01*
X149220122Y-130066633D02*
X151153597Y-125920280D01*
X270772455Y-168191867D02*
X278394502Y-164637647D01*
X236237395Y-198636619D02*
X236230627Y-198636623D01*
X184906982Y-198636624D02*
X236230623Y-198636620D01*
X165321872Y-95536309D02*
X157270996Y-112801469D01*
X143417375Y-187911698D02*
X143293250Y-190280100D01*
X151153596Y-125920274D02*
X151153597Y-125920280D01*
X152789293Y-200824354D02*
X162399882Y-213904066D01*
X138350844Y-158959712D02*
X155289736Y-166858449D01*
X259109572Y-213371503D02*
X268251774Y-200929251D01*
X249859952Y-98304462D02*
X257910827Y-115569622D01*
X184901701Y-198640316D02*
X184906982Y-198636624D01*
X162955299Y-213988987D02*
X184880744Y-198636623D01*
X279445332Y-161750516D02*
X274012585Y-150099951D01*
X274012587Y-150099949D02*
X274012585Y-150099951D01*
X155289736Y-166858449D02*
X157023938Y-171623129D01*
X257608710Y-213600974D02*
X236237395Y-198636619D01*
X265961707Y-132834785D02*
X274012587Y-150099949D01*
X152787241Y-200824249D02*
X152789293Y-200824354D01*
X273774723Y-194787213D02*
X268284441Y-200884788D01*
X162399882Y-213904066D02*
X162955299Y-213988987D01*
X278394502Y-164637647D02*
X279445332Y-161750516D01*
X257910826Y-115569625D02*
X265961704Y-132834784D01*
X157270996Y-112801469D02*
X157270994Y-112801472D01*
X259109572Y-213371503D02*
X257608710Y-213600974D01*
X258553722Y-179485516D02*
X258551369Y-179440643D01*
X157023938Y-171623129D02*
X153778900Y-178582139D01*
X157270994Y-112801472D02*
X151153596Y-125920274D01*
X138065468Y-158175643D02*
X138350844Y-158959712D01*
X153778899Y-178582135D02*
X143417375Y-187911698D01*
X137209419Y-155823668D02*
X138065468Y-158175643D01*
X262956434Y-183449735D02*
X258553722Y-179485516D01*
X268284441Y-200884788D02*
X268251774Y-200929251D01*
X150707337Y-154206917D02*
X149608532Y-156563314D01*
X149608532Y-156563314D02*
X149608528Y-156563317D01*
X158758215Y-136941752D02*
X157659409Y-139298150D01*
X157659409Y-139298150D02*
X157659409Y-139298158D01*
X165710281Y-122032989D02*
X165710284Y-122032994D01*
X166809088Y-119676588D02*
X165710281Y-122032989D01*
X173761160Y-104767827D02*
X173761163Y-104767829D01*
X174859967Y-102411428D02*
X173761160Y-104767827D01*
X181530492Y-105852954D02*
X173479612Y-123118122D01*
X241702213Y-125886272D02*
X249753091Y-143151435D01*
X253499375Y-178497326D02*
X249755619Y-188783211D01*
X167362211Y-136236927D02*
X167362214Y-136236928D01*
X249804578Y-189060868D02*
X249755619Y-188783211D01*
X258834021Y-212902103D02*
X257724580Y-213071721D01*
X253513032Y-191657556D02*
X249804578Y-189060868D01*
X157377860Y-157648444D02*
X154621276Y-163559959D01*
X173479612Y-123118122D02*
X173479616Y-123118123D01*
X184723097Y-198136623D02*
X184733931Y-198138532D01*
X163583963Y-188184737D02*
X161353759Y-192967422D01*
X257311320Y-189179589D02*
X268016199Y-196675222D01*
X162239668Y-195414484D02*
X170503701Y-207216754D01*
X268016199Y-196675222D02*
X268546643Y-199683519D01*
X162239665Y-195414481D02*
X161613175Y-193693213D01*
X167362217Y-136236925D02*
X167362214Y-136236928D01*
X173479616Y-123118123D02*
X167362217Y-136236925D01*
X262526201Y-174288047D02*
X253499375Y-178497326D01*
X165428731Y-140383288D02*
X167362211Y-136236927D01*
X268546643Y-199683519D02*
X258834021Y-212902103D01*
X249753090Y-143151436D02*
X249805905Y-143264703D01*
X184733931Y-198138532D02*
X184736659Y-198136623D01*
X154621276Y-163559959D02*
X163583963Y-188184737D01*
X161574479Y-193586898D02*
X161577147Y-193581176D01*
X249805908Y-143264702D02*
X257803971Y-160416599D01*
X184736659Y-198136623D02*
X236393766Y-198136620D01*
X157377859Y-157648440D02*
X157377860Y-157648444D01*
X241702214Y-125886272D02*
X241702213Y-125886272D01*
X236394025Y-198136800D02*
X236393766Y-198136620D01*
X171503541Y-207393057D02*
X184723097Y-198136623D01*
X170503701Y-207216754D02*
X171503541Y-207393057D01*
X161613175Y-193693213D02*
X161391569Y-193084354D01*
X165428731Y-140383288D02*
X157377859Y-157648440D01*
X257724580Y-213071721D02*
X236395048Y-198136625D01*
X233651337Y-108621112D02*
X241702214Y-125886272D01*
X161577147Y-193581176D02*
X161353759Y-192967422D01*
X257803971Y-160416599D02*
X263291656Y-172184978D01*
X236395048Y-198136625D02*
X236394025Y-198136800D01*
X161613175Y-193693213D02*
X161574479Y-193586898D01*
X254957512Y-189594623D02*
X257311320Y-189179589D01*
X249805905Y-143264703D02*
X249805908Y-143264702D01*
X263291656Y-172184978D02*
X262526201Y-174288047D01*
X253513028Y-191657554D02*
X254957512Y-189594623D01*
X249753091Y-143151435D02*
X249753090Y-143151436D01*
X165817146Y-166879964D02*
X165817144Y-166879966D01*
X166915955Y-164523562D02*
X165817146Y-166879964D01*
X173868022Y-149614800D02*
X173868023Y-149614806D01*
X174966827Y-147258409D02*
X173868022Y-149614800D01*
X181918901Y-132349638D02*
X181918904Y-132349641D01*
X183017710Y-129993241D02*
X181918901Y-132349638D01*
X191068588Y-112728075D02*
X189969781Y-115084475D01*
X189969781Y-115084475D02*
X189969782Y-115084476D01*
X159872442Y-188637549D02*
X157940268Y-190377287D01*
X174454041Y-192721606D02*
X172962740Y-190591813D01*
X359373224Y-125522242D02*
X359373222Y-125522246D01*
X358274419Y-123165846D02*
X359373224Y-125522242D01*
X350223540Y-105900684D02*
X351322347Y-108257081D01*
X342172664Y-88635515D02*
X343271471Y-90991914D01*
X343271471Y-90991914D02*
X343271472Y-90991916D01*
X335220594Y-73726744D02*
X335220594Y-73726754D01*
X334121791Y-71370355D02*
X335220594Y-73726744D01*
X341009257Y-131216723D02*
X342108065Y-133573122D01*
X332958377Y-113951553D02*
X334057184Y-116307961D01*
X326006306Y-99042791D02*
X326006303Y-99042798D01*
X324907501Y-96686396D02*
X326006306Y-99042791D01*
X316856621Y-79421232D02*
X317955427Y-81777629D01*
X317955427Y-81777629D02*
X317955431Y-81777634D01*
X329090215Y-150732392D02*
X329090211Y-150732393D01*
X327991408Y-148375993D02*
X329090215Y-150732392D01*
X321039340Y-133467225D02*
X321039335Y-133467230D01*
X319940532Y-131110830D02*
X321039340Y-133467225D01*
X311889651Y-113845667D02*
X312988458Y-116202065D01*
X312988458Y-116202065D02*
X312988456Y-116202068D01*
X303838772Y-96580505D02*
X304937581Y-98936899D01*
X304937581Y-98936899D02*
X304937577Y-98936903D01*
X295787896Y-79315343D02*
X296886699Y-81671736D01*
X296886699Y-81671736D02*
X296886700Y-81671739D01*
X309669696Y-154161104D02*
X310768505Y-156517501D01*
X310768505Y-156517501D02*
X310768504Y-156517502D01*
X301618824Y-136895942D02*
X302717624Y-139252330D01*
X302717624Y-139252330D02*
X302717624Y-139252340D01*
X293567939Y-119630778D02*
X294666745Y-121987172D01*
X286615870Y-104722010D02*
X286615868Y-104722013D01*
X285517064Y-102365613D02*
X286615870Y-104722010D01*
X278564991Y-87456850D02*
X278564993Y-87456849D01*
X277466183Y-85100451D02*
X278564991Y-87456850D01*
X294559888Y-166834148D02*
X294559885Y-166834148D01*
X293461080Y-164477748D02*
X294559888Y-166834148D01*
X286509008Y-149568985D02*
X286509008Y-149568985D01*
X285410203Y-147212587D02*
X286509008Y-149568985D01*
X277359327Y-129947422D02*
X278458130Y-132303812D01*
X278458130Y-132303812D02*
X278458128Y-132303823D01*
X270407250Y-115038657D02*
X270407254Y-115038661D01*
X269308441Y-112682258D02*
X270407250Y-115038657D01*
X261257570Y-95417098D02*
X262356375Y-97773491D01*
X262356375Y-97773491D02*
X262356373Y-97773496D01*
X269201587Y-157529235D02*
X270300394Y-159885632D01*
X270300394Y-159885632D02*
X270300393Y-159885631D01*
X262249512Y-142620468D02*
X262249511Y-142620470D01*
X261150707Y-140264071D02*
X262249512Y-142620468D01*
X253099830Y-122998907D02*
X254198633Y-125355300D01*
X254198633Y-125355300D02*
X254198631Y-125355307D01*
X246147758Y-108090138D02*
X246147753Y-108090146D01*
X245048954Y-105733744D02*
X246147758Y-108090138D01*
X274251986Y-178078238D02*
X274251990Y-178078239D01*
X272319813Y-176338502D02*
X274251986Y-178078238D01*
X260221073Y-202214298D02*
X260221068Y-202214299D01*
X261712369Y-200084502D02*
X260221073Y-202214298D01*
X91832992Y-145234938D02*
X91832992Y-145234943D01*
X163640660Y-171547448D02*
X163640662Y-171547451D01*
X147432041Y-161230803D02*
X147432042Y-161230803D01*
X112901715Y-145129046D02*
X112901718Y-145129050D01*
X131223428Y-150914154D02*
X131223425Y-150914154D01*
X113683557Y-143452376D02*
X112901715Y-145129046D01*
X132005271Y-149237486D02*
X131223428Y-150914154D01*
X148213884Y-159554135D02*
X147432041Y-161230803D01*
X75349670Y-135507393D02*
X74567827Y-137184059D01*
X92614835Y-143558272D02*
X91832992Y-145234938D01*
X164422503Y-169870782D02*
X163640660Y-171547448D01*
X139274302Y-133648989D02*
X139274306Y-133648994D01*
X83400549Y-118242228D02*
X82618708Y-119918895D01*
X100665711Y-126293109D02*
X99883869Y-127969772D01*
X156264768Y-142288972D02*
X155482924Y-143965640D01*
X155482924Y-143965640D02*
X155482920Y-143965640D01*
X120952596Y-127863881D02*
X120952598Y-127863884D01*
X172473380Y-152605623D02*
X171691538Y-154282284D01*
X140056146Y-131972325D02*
X139274302Y-133648989D01*
X82618708Y-119918895D02*
X82618709Y-119918899D01*
X99883869Y-127969772D02*
X99883871Y-127969775D01*
X171691538Y-154282284D02*
X171691540Y-154282284D01*
X121734439Y-126187217D02*
X120952596Y-127863881D01*
X129785317Y-108922052D02*
X129003472Y-110598724D01*
X147325180Y-116383831D02*
X147325177Y-116383834D01*
X108716588Y-109027946D02*
X107934745Y-110704612D01*
X164315640Y-125023807D02*
X163533800Y-126700473D01*
X148107027Y-114707156D02*
X147325180Y-116383831D01*
X91451425Y-100977068D02*
X90669582Y-102653733D01*
X107934745Y-110704612D02*
X107934744Y-110704613D01*
X179742419Y-137017119D02*
X179742420Y-137017128D01*
X180524260Y-135340459D02*
X179742419Y-137017119D01*
X90669582Y-102653733D02*
X90669583Y-102653736D01*
X116767467Y-91762778D02*
X115985623Y-93439448D01*
X137836188Y-91656881D02*
X137054348Y-93333548D01*
X137054348Y-93333548D02*
X137054351Y-93333560D01*
X115985623Y-93439448D02*
X115985624Y-93439450D01*
X188575136Y-118075292D02*
X187793297Y-119751958D01*
X98720459Y-85388566D02*
X98720461Y-85388570D01*
X172366520Y-107758646D02*
X171584675Y-109435314D01*
X171584675Y-109435314D02*
X171584677Y-109435315D01*
X155376059Y-99118667D02*
X155376060Y-99118667D01*
X156157902Y-97441998D02*
X155376059Y-99118667D01*
X99502300Y-83711900D02*
X98720459Y-85388566D01*
X187793297Y-119751958D02*
X187793297Y-119751960D01*
X104850838Y-162394209D02*
X104850841Y-162394212D01*
X180620616Y-200398821D02*
X184558266Y-197641646D01*
X105632680Y-160717541D02*
X104850838Y-162394209D01*
X155487884Y-192585418D02*
X154113071Y-193823305D01*
X123954392Y-166502648D02*
X123172549Y-168179314D01*
X176346843Y-195424809D02*
X177407955Y-196940240D01*
X139381168Y-178495965D02*
X139381167Y-178495965D01*
X177407955Y-196940240D02*
X179718275Y-200239716D01*
X140163010Y-176819299D02*
X139381168Y-178495965D01*
X184559155Y-197636621D02*
X201639072Y-197636619D01*
X123172549Y-168179314D02*
X123172552Y-168179319D01*
X202939069Y-196336615D02*
X201639072Y-197636619D01*
X179718275Y-200239716D02*
X180620616Y-200398821D01*
X202939074Y-162304889D02*
X202939069Y-196336615D01*
X271695036Y-162876447D02*
X272476878Y-164553117D01*
X343502708Y-136563940D02*
X344284551Y-138240600D01*
X304112265Y-142243158D02*
X304894110Y-143919828D01*
X323215821Y-138134711D02*
X323215819Y-138134718D01*
X344284551Y-138240600D02*
X344284549Y-138240606D01*
X272476878Y-164553117D02*
X272476878Y-164553120D01*
X361549707Y-130189730D02*
X361549707Y-130189734D01*
X288685491Y-154236465D02*
X288685492Y-154236476D01*
X287903653Y-152559804D02*
X288685491Y-154236465D01*
X360767864Y-128513063D02*
X361549707Y-130189730D01*
X304894110Y-143919828D02*
X304894111Y-143919825D01*
X322433980Y-136458046D02*
X323215821Y-138134711D01*
X264425998Y-147287957D02*
X264425999Y-147287957D01*
X352716992Y-111247903D02*
X353498831Y-112924561D01*
X314383102Y-119192882D02*
X315164944Y-120869552D01*
X296843233Y-126654664D02*
X296843235Y-126654661D01*
X336233672Y-120975445D02*
X336233669Y-120975446D01*
X353498831Y-112924561D02*
X353498830Y-112924568D01*
X280634611Y-136971311D02*
X280634617Y-136971309D01*
X279852770Y-135294640D02*
X280634611Y-136971311D01*
X296061388Y-124977992D02*
X296843233Y-126654664D01*
X335451830Y-119298774D02*
X336233672Y-120975445D01*
X263644155Y-145611287D02*
X264425998Y-147287957D01*
X345447957Y-95659398D02*
X345447956Y-95659405D01*
X272583738Y-119706143D02*
X272583739Y-119706143D01*
X306332222Y-101927721D02*
X307114062Y-103604385D01*
X271801898Y-118029475D02*
X272583738Y-119706143D01*
X344666114Y-93982731D02*
X345447957Y-95659398D01*
X288010511Y-107712831D02*
X288792354Y-109389497D01*
X327400946Y-102033613D02*
X328182789Y-103710281D01*
X256375117Y-130022788D02*
X256375121Y-130022791D01*
X255593275Y-128346120D02*
X256375117Y-130022788D01*
X328182789Y-103710281D02*
X328182788Y-103710285D01*
X298281343Y-84662554D02*
X299063186Y-86339223D01*
X248324240Y-112757631D02*
X248324244Y-112757629D01*
X280741479Y-92124337D02*
X280741480Y-92124339D01*
X320131913Y-86445112D02*
X320131912Y-86445115D01*
X336615233Y-76717572D02*
X337397076Y-78394239D01*
X247542399Y-111080962D02*
X248324240Y-112757631D01*
X337397076Y-78394239D02*
X337397080Y-78394239D01*
X263751015Y-100764315D02*
X264532857Y-102440980D01*
X279959637Y-90447665D02*
X280741479Y-92124337D01*
X299063186Y-86339223D02*
X299063184Y-86339227D01*
X319350074Y-84768448D02*
X320131913Y-86445112D01*
X264532857Y-102440980D02*
X264532859Y-102440980D01*
X257267153Y-206432931D02*
X254980398Y-209698757D01*
X312944990Y-161184984D02*
X312944989Y-161184988D01*
X296736371Y-171501631D02*
X296736372Y-171501634D01*
X218179068Y-196536620D02*
X219279075Y-197636620D01*
X330484856Y-153723212D02*
X331266696Y-155399876D01*
X219279075Y-197636620D02*
X236556909Y-197636623D01*
X312163149Y-159508318D02*
X312944990Y-161184984D01*
X236557499Y-197639983D02*
X236556909Y-197636623D01*
X276704370Y-180286371D02*
X278079189Y-181524265D01*
X254980398Y-209698757D02*
X254020844Y-209867950D01*
X258328267Y-204917502D02*
X257267153Y-206432931D01*
X331266696Y-155399876D02*
X331266697Y-155399879D01*
X295954527Y-169824965D02*
X296736371Y-171501631D01*
X278079189Y-181524265D02*
X278079188Y-181524263D01*
X254020844Y-209867950D02*
X236557499Y-197639983D01*
X218179068Y-162304888D02*
X218179068Y-196536620D01*
X202939070Y-139444889D02*
X205817318Y-139444887D01*
X205817318Y-139444887D02*
X207309073Y-140936643D01*
X207309073Y-140936643D02*
X207309072Y-167159890D01*
M02*
