%TF.GenerationSoftware,KiCad,Pcbnew,8.0.7*%
%TF.CreationDate,2024-12-23T04:44:47-05:00*%
%TF.ProjectId,mx,6d782e6b-6963-4616-945f-706362585858,v1.0.0*%
%TF.SameCoordinates,Original*%
%TF.FileFunction,Legend,Bot*%
%TF.FilePolarity,Positive*%
%FSLAX46Y46*%
G04 Gerber Fmt 4.6, Leading zero omitted, Abs format (unit mm)*
G04 Created by KiCad (PCBNEW 8.0.7) date 2024-12-23 04:44:47*
%MOMM*%
%LPD*%
G01*
G04 APERTURE LIST*
G04 Aperture macros list*
%AMRotRect*
0 Rectangle, with rotation*
0 The origin of the aperture is its center*
0 $1 length*
0 $2 width*
0 $3 Rotation angle, in degrees counterclockwise*
0 Add horizontal line*
21,1,$1,$2,0,0,$3*%
G04 Aperture macros list end*
%ADD10C,0.100000*%
%ADD11C,0.150000*%
%ADD12C,0.700000*%
%ADD13C,4.400000*%
%ADD14C,1.700000*%
%ADD15RotRect,0.900000X1.200000X65.000000*%
%ADD16C,1.900000*%
%ADD17C,3.000000*%
%ADD18C,3.400000*%
%ADD19RotRect,2.600000X2.600000X25.000000*%
%ADD20RotRect,0.900000X1.200000X115.000000*%
%ADD21RotRect,2.600000X2.600000X335.000000*%
%ADD22RotRect,0.900000X1.200000X55.000000*%
%ADD23RotRect,0.900000X1.200000X125.000000*%
%ADD24RotRect,2.600000X2.600000X48.000000*%
%ADD25RotRect,0.900000X1.200000X42.000000*%
%ADD26RotRect,2.600000X2.600000X312.000000*%
%ADD27RotRect,2.600000X2.600000X35.000000*%
%ADD28RotRect,2.600000X2.600000X325.000000*%
%ADD29RotRect,0.900000X1.200000X138.000000*%
G04 APERTURE END LIST*
D10*
X221071927Y-188444927D02*
X220214785Y-188444927D01*
X220643356Y-190444927D02*
X220643356Y-188444927D01*
X219714785Y-190444927D02*
X219714785Y-188444927D01*
X219714785Y-189397308D02*
X218857642Y-189397308D01*
X218857642Y-190444927D02*
X218857642Y-188444927D01*
X218143356Y-189397308D02*
X217643356Y-189397308D01*
X217429070Y-190444927D02*
X218143356Y-190444927D01*
X218143356Y-190444927D02*
X218143356Y-188444927D01*
X218143356Y-188444927D02*
X217429070Y-188444927D01*
X215643356Y-190444927D02*
X215643356Y-188444927D01*
X215643356Y-188444927D02*
X215143356Y-189873498D01*
X215143356Y-189873498D02*
X214643356Y-188444927D01*
X214643356Y-188444927D02*
X214643356Y-190444927D01*
X214000498Y-189873498D02*
X213286213Y-189873498D01*
X214143355Y-190444927D02*
X213643355Y-188444927D01*
X213643355Y-188444927D02*
X213143355Y-190444927D01*
X212643356Y-190444927D02*
X212643356Y-188444927D01*
X212643356Y-188444927D02*
X211786213Y-190444927D01*
X211786213Y-190444927D02*
X211786213Y-188444927D01*
X211071927Y-190444927D02*
X211071927Y-188444927D01*
X210214784Y-190444927D02*
X210857641Y-189302069D01*
X210214784Y-188444927D02*
X211071927Y-189587784D01*
X209571927Y-190444927D02*
X209571927Y-188444927D01*
X208857641Y-190444927D02*
X208857641Y-188444927D01*
X208857641Y-188444927D02*
X208000498Y-190444927D01*
X208000498Y-190444927D02*
X208000498Y-188444927D01*
X207286212Y-190444927D02*
X207286212Y-188444927D01*
X205429069Y-189683022D02*
X204286212Y-189683022D01*
X202429069Y-190444927D02*
X202429069Y-188444927D01*
X202429069Y-188444927D02*
X201929069Y-189873498D01*
X201929069Y-189873498D02*
X201429069Y-188444927D01*
X201429069Y-188444927D02*
X201429069Y-190444927D01*
X200857640Y-188444927D02*
X199857640Y-190444927D01*
X199857640Y-188444927D02*
X200857640Y-190444927D01*
X215508519Y-192907308D02*
X215508519Y-191907308D01*
X215508519Y-192288260D02*
X215413281Y-192240641D01*
X215413281Y-192240641D02*
X215222805Y-192240641D01*
X215222805Y-192240641D02*
X215127567Y-192288260D01*
X215127567Y-192288260D02*
X215079948Y-192335879D01*
X215079948Y-192335879D02*
X215032329Y-192431117D01*
X215032329Y-192431117D02*
X215032329Y-192716831D01*
X215032329Y-192716831D02*
X215079948Y-192812069D01*
X215079948Y-192812069D02*
X215127567Y-192859689D01*
X215127567Y-192859689D02*
X215222805Y-192907308D01*
X215222805Y-192907308D02*
X215413281Y-192907308D01*
X215413281Y-192907308D02*
X215508519Y-192859689D01*
X214698995Y-192240641D02*
X214460900Y-192907308D01*
X214222805Y-192240641D02*
X214460900Y-192907308D01*
X214460900Y-192907308D02*
X214556138Y-193145403D01*
X214556138Y-193145403D02*
X214603757Y-193193022D01*
X214603757Y-193193022D02*
X214698995Y-193240641D01*
X212460900Y-192431117D02*
X212508519Y-192383498D01*
X212508519Y-192383498D02*
X212603757Y-192335879D01*
X212603757Y-192335879D02*
X212698995Y-192335879D01*
X212698995Y-192335879D02*
X212794233Y-192383498D01*
X212794233Y-192383498D02*
X212841852Y-192431117D01*
X212841852Y-192431117D02*
X212889471Y-192526355D01*
X212889471Y-192526355D02*
X212889471Y-192621593D01*
X212889471Y-192621593D02*
X212841852Y-192716831D01*
X212841852Y-192716831D02*
X212794233Y-192764450D01*
X212794233Y-192764450D02*
X212698995Y-192812069D01*
X212698995Y-192812069D02*
X212603757Y-192812069D01*
X212603757Y-192812069D02*
X212508519Y-192764450D01*
X212508519Y-192764450D02*
X212460900Y-192716831D01*
X212460900Y-192335879D02*
X212460900Y-192716831D01*
X212460900Y-192716831D02*
X212413281Y-192764450D01*
X212413281Y-192764450D02*
X212365662Y-192764450D01*
X212365662Y-192764450D02*
X212270423Y-192716831D01*
X212270423Y-192716831D02*
X212222804Y-192621593D01*
X212222804Y-192621593D02*
X212222804Y-192383498D01*
X212222804Y-192383498D02*
X212318043Y-192240641D01*
X212318043Y-192240641D02*
X212460900Y-192145403D01*
X212460900Y-192145403D02*
X212651376Y-192097784D01*
X212651376Y-192097784D02*
X212841852Y-192145403D01*
X212841852Y-192145403D02*
X212984709Y-192240641D01*
X212984709Y-192240641D02*
X213079947Y-192383498D01*
X213079947Y-192383498D02*
X213127566Y-192573974D01*
X213127566Y-192573974D02*
X213079947Y-192764450D01*
X213079947Y-192764450D02*
X212984709Y-192907308D01*
X212984709Y-192907308D02*
X212841852Y-193002546D01*
X212841852Y-193002546D02*
X212651376Y-193050165D01*
X212651376Y-193050165D02*
X212460900Y-193002546D01*
X212460900Y-193002546D02*
X212318043Y-192907308D01*
X211508519Y-191907308D02*
X211508519Y-192621593D01*
X211508519Y-192621593D02*
X211556138Y-192764450D01*
X211556138Y-192764450D02*
X211651376Y-192859689D01*
X211651376Y-192859689D02*
X211794233Y-192907308D01*
X211794233Y-192907308D02*
X211889471Y-192907308D01*
X210603757Y-192907308D02*
X210603757Y-192383498D01*
X210603757Y-192383498D02*
X210651376Y-192288260D01*
X210651376Y-192288260D02*
X210746614Y-192240641D01*
X210746614Y-192240641D02*
X210937090Y-192240641D01*
X210937090Y-192240641D02*
X211032328Y-192288260D01*
X210603757Y-192859689D02*
X210698995Y-192907308D01*
X210698995Y-192907308D02*
X210937090Y-192907308D01*
X210937090Y-192907308D02*
X211032328Y-192859689D01*
X211032328Y-192859689D02*
X211079947Y-192764450D01*
X211079947Y-192764450D02*
X211079947Y-192669212D01*
X211079947Y-192669212D02*
X211032328Y-192573974D01*
X211032328Y-192573974D02*
X210937090Y-192526355D01*
X210937090Y-192526355D02*
X210698995Y-192526355D01*
X210698995Y-192526355D02*
X210603757Y-192478736D01*
X210222804Y-192240641D02*
X209984709Y-192907308D01*
X209746614Y-192240641D02*
X209984709Y-192907308D01*
X209984709Y-192907308D02*
X210079947Y-193145403D01*
X210079947Y-193145403D02*
X210127566Y-193193022D01*
X210127566Y-193193022D02*
X210222804Y-193240641D01*
X209365661Y-192907308D02*
X209365661Y-191907308D01*
X209365661Y-192288260D02*
X209270423Y-192240641D01*
X209270423Y-192240641D02*
X209079947Y-192240641D01*
X209079947Y-192240641D02*
X208984709Y-192288260D01*
X208984709Y-192288260D02*
X208937090Y-192335879D01*
X208937090Y-192335879D02*
X208889471Y-192431117D01*
X208889471Y-192431117D02*
X208889471Y-192716831D01*
X208889471Y-192716831D02*
X208937090Y-192812069D01*
X208937090Y-192812069D02*
X208984709Y-192859689D01*
X208984709Y-192859689D02*
X209079947Y-192907308D01*
X209079947Y-192907308D02*
X209270423Y-192907308D01*
X209270423Y-192907308D02*
X209365661Y-192859689D01*
X208032328Y-192240641D02*
X208032328Y-192907308D01*
X208460899Y-192240641D02*
X208460899Y-192764450D01*
X208460899Y-192764450D02*
X208413280Y-192859689D01*
X208413280Y-192859689D02*
X208318042Y-192907308D01*
X208318042Y-192907308D02*
X208175185Y-192907308D01*
X208175185Y-192907308D02*
X208079947Y-192859689D01*
X208079947Y-192859689D02*
X208032328Y-192812069D01*
X207556137Y-192907308D02*
X207556137Y-192240641D01*
X207556137Y-191907308D02*
X207603756Y-191954927D01*
X207603756Y-191954927D02*
X207556137Y-192002546D01*
X207556137Y-192002546D02*
X207508518Y-191954927D01*
X207508518Y-191954927D02*
X207556137Y-191907308D01*
X207556137Y-191907308D02*
X207556137Y-192002546D01*
X206937090Y-192907308D02*
X207032328Y-192859689D01*
X207032328Y-192859689D02*
X207079947Y-192764450D01*
X207079947Y-192764450D02*
X207079947Y-191907308D01*
X206127566Y-192907308D02*
X206127566Y-191907308D01*
X206127566Y-192859689D02*
X206222804Y-192907308D01*
X206222804Y-192907308D02*
X206413280Y-192907308D01*
X206413280Y-192907308D02*
X206508518Y-192859689D01*
X206508518Y-192859689D02*
X206556137Y-192812069D01*
X206556137Y-192812069D02*
X206603756Y-192716831D01*
X206603756Y-192716831D02*
X206603756Y-192431117D01*
X206603756Y-192431117D02*
X206556137Y-192335879D01*
X206556137Y-192335879D02*
X206508518Y-192288260D01*
X206508518Y-192288260D02*
X206413280Y-192240641D01*
X206413280Y-192240641D02*
X206222804Y-192240641D01*
X206222804Y-192240641D02*
X206127566Y-192288260D01*
X205698994Y-192859689D02*
X205603756Y-192907308D01*
X205603756Y-192907308D02*
X205413280Y-192907308D01*
X205413280Y-192907308D02*
X205318042Y-192859689D01*
X205318042Y-192859689D02*
X205270423Y-192764450D01*
X205270423Y-192764450D02*
X205270423Y-192716831D01*
X205270423Y-192716831D02*
X205318042Y-192621593D01*
X205318042Y-192621593D02*
X205413280Y-192573974D01*
X205413280Y-192573974D02*
X205556137Y-192573974D01*
X205556137Y-192573974D02*
X205651375Y-192526355D01*
X205651375Y-192526355D02*
X205698994Y-192431117D01*
X205698994Y-192431117D02*
X205698994Y-192383498D01*
X205698994Y-192383498D02*
X205651375Y-192288260D01*
X205651375Y-192288260D02*
X205556137Y-192240641D01*
X205556137Y-192240641D02*
X205413280Y-192240641D01*
X205413280Y-192240641D02*
X205318042Y-192288260D01*
X217365661Y-196677308D02*
X217365661Y-196010641D01*
X217365661Y-195677308D02*
X217413280Y-195724927D01*
X217413280Y-195724927D02*
X217365661Y-195772546D01*
X217365661Y-195772546D02*
X217318042Y-195724927D01*
X217318042Y-195724927D02*
X217365661Y-195677308D01*
X217365661Y-195677308D02*
X217365661Y-195772546D01*
X216889471Y-196010641D02*
X216889471Y-196677308D01*
X216889471Y-196105879D02*
X216841852Y-196058260D01*
X216841852Y-196058260D02*
X216746614Y-196010641D01*
X216746614Y-196010641D02*
X216603757Y-196010641D01*
X216603757Y-196010641D02*
X216508519Y-196058260D01*
X216508519Y-196058260D02*
X216460900Y-196153498D01*
X216460900Y-196153498D02*
X216460900Y-196677308D01*
X216127566Y-196010641D02*
X215746614Y-196010641D01*
X215984709Y-196677308D02*
X215984709Y-195820165D01*
X215984709Y-195820165D02*
X215937090Y-195724927D01*
X215937090Y-195724927D02*
X215841852Y-195677308D01*
X215841852Y-195677308D02*
X215746614Y-195677308D01*
X215270423Y-196677308D02*
X215365661Y-196629689D01*
X215365661Y-196629689D02*
X215413280Y-196582069D01*
X215413280Y-196582069D02*
X215460899Y-196486831D01*
X215460899Y-196486831D02*
X215460899Y-196201117D01*
X215460899Y-196201117D02*
X215413280Y-196105879D01*
X215413280Y-196105879D02*
X215365661Y-196058260D01*
X215365661Y-196058260D02*
X215270423Y-196010641D01*
X215270423Y-196010641D02*
X215127566Y-196010641D01*
X215127566Y-196010641D02*
X215032328Y-196058260D01*
X215032328Y-196058260D02*
X214984709Y-196105879D01*
X214984709Y-196105879D02*
X214937090Y-196201117D01*
X214937090Y-196201117D02*
X214937090Y-196486831D01*
X214937090Y-196486831D02*
X214984709Y-196582069D01*
X214984709Y-196582069D02*
X215032328Y-196629689D01*
X215032328Y-196629689D02*
X215127566Y-196677308D01*
X215127566Y-196677308D02*
X215270423Y-196677308D01*
X213889471Y-196201117D02*
X213937090Y-196153498D01*
X213937090Y-196153498D02*
X214032328Y-196105879D01*
X214032328Y-196105879D02*
X214127566Y-196105879D01*
X214127566Y-196105879D02*
X214222804Y-196153498D01*
X214222804Y-196153498D02*
X214270423Y-196201117D01*
X214270423Y-196201117D02*
X214318042Y-196296355D01*
X214318042Y-196296355D02*
X214318042Y-196391593D01*
X214318042Y-196391593D02*
X214270423Y-196486831D01*
X214270423Y-196486831D02*
X214222804Y-196534450D01*
X214222804Y-196534450D02*
X214127566Y-196582069D01*
X214127566Y-196582069D02*
X214032328Y-196582069D01*
X214032328Y-196582069D02*
X213937090Y-196534450D01*
X213937090Y-196534450D02*
X213889471Y-196486831D01*
X213889471Y-196105879D02*
X213889471Y-196486831D01*
X213889471Y-196486831D02*
X213841852Y-196534450D01*
X213841852Y-196534450D02*
X213794233Y-196534450D01*
X213794233Y-196534450D02*
X213698994Y-196486831D01*
X213698994Y-196486831D02*
X213651375Y-196391593D01*
X213651375Y-196391593D02*
X213651375Y-196153498D01*
X213651375Y-196153498D02*
X213746614Y-196010641D01*
X213746614Y-196010641D02*
X213889471Y-195915403D01*
X213889471Y-195915403D02*
X214079947Y-195867784D01*
X214079947Y-195867784D02*
X214270423Y-195915403D01*
X214270423Y-195915403D02*
X214413280Y-196010641D01*
X214413280Y-196010641D02*
X214508518Y-196153498D01*
X214508518Y-196153498D02*
X214556137Y-196343974D01*
X214556137Y-196343974D02*
X214508518Y-196534450D01*
X214508518Y-196534450D02*
X214413280Y-196677308D01*
X214413280Y-196677308D02*
X214270423Y-196772546D01*
X214270423Y-196772546D02*
X214079947Y-196820165D01*
X214079947Y-196820165D02*
X213889471Y-196772546D01*
X213889471Y-196772546D02*
X213746614Y-196677308D01*
X213222804Y-196010641D02*
X213222804Y-196867784D01*
X213222804Y-196867784D02*
X213270423Y-196963022D01*
X213270423Y-196963022D02*
X213365661Y-197010641D01*
X213365661Y-197010641D02*
X213413280Y-197010641D01*
X213222804Y-195677308D02*
X213270423Y-195724927D01*
X213270423Y-195724927D02*
X213222804Y-195772546D01*
X213222804Y-195772546D02*
X213175185Y-195724927D01*
X213175185Y-195724927D02*
X213222804Y-195677308D01*
X213222804Y-195677308D02*
X213222804Y-195772546D01*
X212318043Y-196677308D02*
X212318043Y-196153498D01*
X212318043Y-196153498D02*
X212365662Y-196058260D01*
X212365662Y-196058260D02*
X212460900Y-196010641D01*
X212460900Y-196010641D02*
X212651376Y-196010641D01*
X212651376Y-196010641D02*
X212746614Y-196058260D01*
X212318043Y-196629689D02*
X212413281Y-196677308D01*
X212413281Y-196677308D02*
X212651376Y-196677308D01*
X212651376Y-196677308D02*
X212746614Y-196629689D01*
X212746614Y-196629689D02*
X212794233Y-196534450D01*
X212794233Y-196534450D02*
X212794233Y-196439212D01*
X212794233Y-196439212D02*
X212746614Y-196343974D01*
X212746614Y-196343974D02*
X212651376Y-196296355D01*
X212651376Y-196296355D02*
X212413281Y-196296355D01*
X212413281Y-196296355D02*
X212318043Y-196248736D01*
X211937090Y-196010641D02*
X211698995Y-196677308D01*
X211460900Y-196010641D02*
X211698995Y-196677308D01*
X211698995Y-196677308D02*
X211794233Y-196915403D01*
X211794233Y-196915403D02*
X211841852Y-196963022D01*
X211841852Y-196963022D02*
X211937090Y-197010641D01*
X211079947Y-196677308D02*
X211079947Y-195677308D01*
X211079947Y-196058260D02*
X210984709Y-196010641D01*
X210984709Y-196010641D02*
X210794233Y-196010641D01*
X210794233Y-196010641D02*
X210698995Y-196058260D01*
X210698995Y-196058260D02*
X210651376Y-196105879D01*
X210651376Y-196105879D02*
X210603757Y-196201117D01*
X210603757Y-196201117D02*
X210603757Y-196486831D01*
X210603757Y-196486831D02*
X210651376Y-196582069D01*
X210651376Y-196582069D02*
X210698995Y-196629689D01*
X210698995Y-196629689D02*
X210794233Y-196677308D01*
X210794233Y-196677308D02*
X210984709Y-196677308D01*
X210984709Y-196677308D02*
X211079947Y-196629689D01*
X209746614Y-196010641D02*
X209746614Y-196677308D01*
X210175185Y-196010641D02*
X210175185Y-196534450D01*
X210175185Y-196534450D02*
X210127566Y-196629689D01*
X210127566Y-196629689D02*
X210032328Y-196677308D01*
X210032328Y-196677308D02*
X209889471Y-196677308D01*
X209889471Y-196677308D02*
X209794233Y-196629689D01*
X209794233Y-196629689D02*
X209746614Y-196582069D01*
X209270423Y-196677308D02*
X209270423Y-196010641D01*
X209270423Y-195677308D02*
X209318042Y-195724927D01*
X209318042Y-195724927D02*
X209270423Y-195772546D01*
X209270423Y-195772546D02*
X209222804Y-195724927D01*
X209222804Y-195724927D02*
X209270423Y-195677308D01*
X209270423Y-195677308D02*
X209270423Y-195772546D01*
X208651376Y-196677308D02*
X208746614Y-196629689D01*
X208746614Y-196629689D02*
X208794233Y-196534450D01*
X208794233Y-196534450D02*
X208794233Y-195677308D01*
X207841852Y-196677308D02*
X207841852Y-195677308D01*
X207841852Y-196629689D02*
X207937090Y-196677308D01*
X207937090Y-196677308D02*
X208127566Y-196677308D01*
X208127566Y-196677308D02*
X208222804Y-196629689D01*
X208222804Y-196629689D02*
X208270423Y-196582069D01*
X208270423Y-196582069D02*
X208318042Y-196486831D01*
X208318042Y-196486831D02*
X208318042Y-196201117D01*
X208318042Y-196201117D02*
X208270423Y-196105879D01*
X208270423Y-196105879D02*
X208222804Y-196058260D01*
X208222804Y-196058260D02*
X208127566Y-196010641D01*
X208127566Y-196010641D02*
X207937090Y-196010641D01*
X207937090Y-196010641D02*
X207841852Y-196058260D01*
X207413280Y-196629689D02*
X207318042Y-196677308D01*
X207318042Y-196677308D02*
X207127566Y-196677308D01*
X207127566Y-196677308D02*
X207032328Y-196629689D01*
X207032328Y-196629689D02*
X206984709Y-196534450D01*
X206984709Y-196534450D02*
X206984709Y-196486831D01*
X206984709Y-196486831D02*
X207032328Y-196391593D01*
X207032328Y-196391593D02*
X207127566Y-196343974D01*
X207127566Y-196343974D02*
X207270423Y-196343974D01*
X207270423Y-196343974D02*
X207365661Y-196296355D01*
X207365661Y-196296355D02*
X207413280Y-196201117D01*
X207413280Y-196201117D02*
X207413280Y-196153498D01*
X207413280Y-196153498D02*
X207365661Y-196058260D01*
X207365661Y-196058260D02*
X207270423Y-196010641D01*
X207270423Y-196010641D02*
X207127566Y-196010641D01*
X207127566Y-196010641D02*
X207032328Y-196058260D01*
X206556137Y-196582069D02*
X206508518Y-196629689D01*
X206508518Y-196629689D02*
X206556137Y-196677308D01*
X206556137Y-196677308D02*
X206603756Y-196629689D01*
X206603756Y-196629689D02*
X206556137Y-196582069D01*
X206556137Y-196582069D02*
X206556137Y-196677308D01*
X205651376Y-196629689D02*
X205746614Y-196677308D01*
X205746614Y-196677308D02*
X205937090Y-196677308D01*
X205937090Y-196677308D02*
X206032328Y-196629689D01*
X206032328Y-196629689D02*
X206079947Y-196582069D01*
X206079947Y-196582069D02*
X206127566Y-196486831D01*
X206127566Y-196486831D02*
X206127566Y-196201117D01*
X206127566Y-196201117D02*
X206079947Y-196105879D01*
X206079947Y-196105879D02*
X206032328Y-196058260D01*
X206032328Y-196058260D02*
X205937090Y-196010641D01*
X205937090Y-196010641D02*
X205746614Y-196010641D01*
X205746614Y-196010641D02*
X205651376Y-196058260D01*
X205079947Y-196677308D02*
X205175185Y-196629689D01*
X205175185Y-196629689D02*
X205222804Y-196582069D01*
X205222804Y-196582069D02*
X205270423Y-196486831D01*
X205270423Y-196486831D02*
X205270423Y-196201117D01*
X205270423Y-196201117D02*
X205222804Y-196105879D01*
X205222804Y-196105879D02*
X205175185Y-196058260D01*
X205175185Y-196058260D02*
X205079947Y-196010641D01*
X205079947Y-196010641D02*
X204937090Y-196010641D01*
X204937090Y-196010641D02*
X204841852Y-196058260D01*
X204841852Y-196058260D02*
X204794233Y-196105879D01*
X204794233Y-196105879D02*
X204746614Y-196201117D01*
X204746614Y-196201117D02*
X204746614Y-196486831D01*
X204746614Y-196486831D02*
X204794233Y-196582069D01*
X204794233Y-196582069D02*
X204841852Y-196629689D01*
X204841852Y-196629689D02*
X204937090Y-196677308D01*
X204937090Y-196677308D02*
X205079947Y-196677308D01*
X204318042Y-196677308D02*
X204318042Y-196010641D01*
X204318042Y-196105879D02*
X204270423Y-196058260D01*
X204270423Y-196058260D02*
X204175185Y-196010641D01*
X204175185Y-196010641D02*
X204032328Y-196010641D01*
X204032328Y-196010641D02*
X203937090Y-196058260D01*
X203937090Y-196058260D02*
X203889471Y-196153498D01*
X203889471Y-196153498D02*
X203889471Y-196677308D01*
X203889471Y-196153498D02*
X203841852Y-196058260D01*
X203841852Y-196058260D02*
X203746614Y-196010641D01*
X203746614Y-196010641D02*
X203603757Y-196010641D01*
X203603757Y-196010641D02*
X203508518Y-196058260D01*
X203508518Y-196058260D02*
X203460899Y-196153498D01*
X203460899Y-196153498D02*
X203460899Y-196677308D01*
X227413281Y-194837308D02*
X227413281Y-193837308D01*
X226984710Y-194837308D02*
X226984710Y-194313498D01*
X226984710Y-194313498D02*
X227032329Y-194218260D01*
X227032329Y-194218260D02*
X227127567Y-194170641D01*
X227127567Y-194170641D02*
X227270424Y-194170641D01*
X227270424Y-194170641D02*
X227365662Y-194218260D01*
X227365662Y-194218260D02*
X227413281Y-194265879D01*
X226651376Y-194170641D02*
X226270424Y-194170641D01*
X226508519Y-193837308D02*
X226508519Y-194694450D01*
X226508519Y-194694450D02*
X226460900Y-194789689D01*
X226460900Y-194789689D02*
X226365662Y-194837308D01*
X226365662Y-194837308D02*
X226270424Y-194837308D01*
X226079947Y-194170641D02*
X225698995Y-194170641D01*
X225937090Y-193837308D02*
X225937090Y-194694450D01*
X225937090Y-194694450D02*
X225889471Y-194789689D01*
X225889471Y-194789689D02*
X225794233Y-194837308D01*
X225794233Y-194837308D02*
X225698995Y-194837308D01*
X225365661Y-194170641D02*
X225365661Y-195170641D01*
X225365661Y-194218260D02*
X225270423Y-194170641D01*
X225270423Y-194170641D02*
X225079947Y-194170641D01*
X225079947Y-194170641D02*
X224984709Y-194218260D01*
X224984709Y-194218260D02*
X224937090Y-194265879D01*
X224937090Y-194265879D02*
X224889471Y-194361117D01*
X224889471Y-194361117D02*
X224889471Y-194646831D01*
X224889471Y-194646831D02*
X224937090Y-194742069D01*
X224937090Y-194742069D02*
X224984709Y-194789689D01*
X224984709Y-194789689D02*
X225079947Y-194837308D01*
X225079947Y-194837308D02*
X225270423Y-194837308D01*
X225270423Y-194837308D02*
X225365661Y-194789689D01*
X224508518Y-194789689D02*
X224413280Y-194837308D01*
X224413280Y-194837308D02*
X224222804Y-194837308D01*
X224222804Y-194837308D02*
X224127566Y-194789689D01*
X224127566Y-194789689D02*
X224079947Y-194694450D01*
X224079947Y-194694450D02*
X224079947Y-194646831D01*
X224079947Y-194646831D02*
X224127566Y-194551593D01*
X224127566Y-194551593D02*
X224222804Y-194503974D01*
X224222804Y-194503974D02*
X224365661Y-194503974D01*
X224365661Y-194503974D02*
X224460899Y-194456355D01*
X224460899Y-194456355D02*
X224508518Y-194361117D01*
X224508518Y-194361117D02*
X224508518Y-194313498D01*
X224508518Y-194313498D02*
X224460899Y-194218260D01*
X224460899Y-194218260D02*
X224365661Y-194170641D01*
X224365661Y-194170641D02*
X224222804Y-194170641D01*
X224222804Y-194170641D02*
X224127566Y-194218260D01*
X223651375Y-194742069D02*
X223603756Y-194789689D01*
X223603756Y-194789689D02*
X223651375Y-194837308D01*
X223651375Y-194837308D02*
X223698994Y-194789689D01*
X223698994Y-194789689D02*
X223651375Y-194742069D01*
X223651375Y-194742069D02*
X223651375Y-194837308D01*
X223651375Y-194218260D02*
X223603756Y-194265879D01*
X223603756Y-194265879D02*
X223651375Y-194313498D01*
X223651375Y-194313498D02*
X223698994Y-194265879D01*
X223698994Y-194265879D02*
X223651375Y-194218260D01*
X223651375Y-194218260D02*
X223651375Y-194313498D01*
X222460900Y-193789689D02*
X223318042Y-195075403D01*
X221698995Y-194170641D02*
X221698995Y-194980165D01*
X221698995Y-194980165D02*
X221746614Y-195075403D01*
X221746614Y-195075403D02*
X221794233Y-195123022D01*
X221794233Y-195123022D02*
X221889471Y-195170641D01*
X221889471Y-195170641D02*
X222032328Y-195170641D01*
X222032328Y-195170641D02*
X222127566Y-195123022D01*
X221698995Y-194789689D02*
X221794233Y-194837308D01*
X221794233Y-194837308D02*
X221984709Y-194837308D01*
X221984709Y-194837308D02*
X222079947Y-194789689D01*
X222079947Y-194789689D02*
X222127566Y-194742069D01*
X222127566Y-194742069D02*
X222175185Y-194646831D01*
X222175185Y-194646831D02*
X222175185Y-194361117D01*
X222175185Y-194361117D02*
X222127566Y-194265879D01*
X222127566Y-194265879D02*
X222079947Y-194218260D01*
X222079947Y-194218260D02*
X221984709Y-194170641D01*
X221984709Y-194170641D02*
X221794233Y-194170641D01*
X221794233Y-194170641D02*
X221698995Y-194218260D01*
X221222804Y-194837308D02*
X221222804Y-194170641D01*
X221222804Y-193837308D02*
X221270423Y-193884927D01*
X221270423Y-193884927D02*
X221222804Y-193932546D01*
X221222804Y-193932546D02*
X221175185Y-193884927D01*
X221175185Y-193884927D02*
X221222804Y-193837308D01*
X221222804Y-193837308D02*
X221222804Y-193932546D01*
X220889471Y-194170641D02*
X220508519Y-194170641D01*
X220746614Y-193837308D02*
X220746614Y-194694450D01*
X220746614Y-194694450D02*
X220698995Y-194789689D01*
X220698995Y-194789689D02*
X220603757Y-194837308D01*
X220603757Y-194837308D02*
X220508519Y-194837308D01*
X220175185Y-194837308D02*
X220175185Y-193837308D01*
X219746614Y-194837308D02*
X219746614Y-194313498D01*
X219746614Y-194313498D02*
X219794233Y-194218260D01*
X219794233Y-194218260D02*
X219889471Y-194170641D01*
X219889471Y-194170641D02*
X220032328Y-194170641D01*
X220032328Y-194170641D02*
X220127566Y-194218260D01*
X220127566Y-194218260D02*
X220175185Y-194265879D01*
X218841852Y-194170641D02*
X218841852Y-194837308D01*
X219270423Y-194170641D02*
X219270423Y-194694450D01*
X219270423Y-194694450D02*
X219222804Y-194789689D01*
X219222804Y-194789689D02*
X219127566Y-194837308D01*
X219127566Y-194837308D02*
X218984709Y-194837308D01*
X218984709Y-194837308D02*
X218889471Y-194789689D01*
X218889471Y-194789689D02*
X218841852Y-194742069D01*
X218365661Y-194837308D02*
X218365661Y-193837308D01*
X218365661Y-194218260D02*
X218270423Y-194170641D01*
X218270423Y-194170641D02*
X218079947Y-194170641D01*
X218079947Y-194170641D02*
X217984709Y-194218260D01*
X217984709Y-194218260D02*
X217937090Y-194265879D01*
X217937090Y-194265879D02*
X217889471Y-194361117D01*
X217889471Y-194361117D02*
X217889471Y-194646831D01*
X217889471Y-194646831D02*
X217937090Y-194742069D01*
X217937090Y-194742069D02*
X217984709Y-194789689D01*
X217984709Y-194789689D02*
X218079947Y-194837308D01*
X218079947Y-194837308D02*
X218270423Y-194837308D01*
X218270423Y-194837308D02*
X218365661Y-194789689D01*
X217460899Y-194742069D02*
X217413280Y-194789689D01*
X217413280Y-194789689D02*
X217460899Y-194837308D01*
X217460899Y-194837308D02*
X217508518Y-194789689D01*
X217508518Y-194789689D02*
X217460899Y-194742069D01*
X217460899Y-194742069D02*
X217460899Y-194837308D01*
X216556138Y-194789689D02*
X216651376Y-194837308D01*
X216651376Y-194837308D02*
X216841852Y-194837308D01*
X216841852Y-194837308D02*
X216937090Y-194789689D01*
X216937090Y-194789689D02*
X216984709Y-194742069D01*
X216984709Y-194742069D02*
X217032328Y-194646831D01*
X217032328Y-194646831D02*
X217032328Y-194361117D01*
X217032328Y-194361117D02*
X216984709Y-194265879D01*
X216984709Y-194265879D02*
X216937090Y-194218260D01*
X216937090Y-194218260D02*
X216841852Y-194170641D01*
X216841852Y-194170641D02*
X216651376Y-194170641D01*
X216651376Y-194170641D02*
X216556138Y-194218260D01*
X215984709Y-194837308D02*
X216079947Y-194789689D01*
X216079947Y-194789689D02*
X216127566Y-194742069D01*
X216127566Y-194742069D02*
X216175185Y-194646831D01*
X216175185Y-194646831D02*
X216175185Y-194361117D01*
X216175185Y-194361117D02*
X216127566Y-194265879D01*
X216127566Y-194265879D02*
X216079947Y-194218260D01*
X216079947Y-194218260D02*
X215984709Y-194170641D01*
X215984709Y-194170641D02*
X215841852Y-194170641D01*
X215841852Y-194170641D02*
X215746614Y-194218260D01*
X215746614Y-194218260D02*
X215698995Y-194265879D01*
X215698995Y-194265879D02*
X215651376Y-194361117D01*
X215651376Y-194361117D02*
X215651376Y-194646831D01*
X215651376Y-194646831D02*
X215698995Y-194742069D01*
X215698995Y-194742069D02*
X215746614Y-194789689D01*
X215746614Y-194789689D02*
X215841852Y-194837308D01*
X215841852Y-194837308D02*
X215984709Y-194837308D01*
X215222804Y-194837308D02*
X215222804Y-194170641D01*
X215222804Y-194265879D02*
X215175185Y-194218260D01*
X215175185Y-194218260D02*
X215079947Y-194170641D01*
X215079947Y-194170641D02*
X214937090Y-194170641D01*
X214937090Y-194170641D02*
X214841852Y-194218260D01*
X214841852Y-194218260D02*
X214794233Y-194313498D01*
X214794233Y-194313498D02*
X214794233Y-194837308D01*
X214794233Y-194313498D02*
X214746614Y-194218260D01*
X214746614Y-194218260D02*
X214651376Y-194170641D01*
X214651376Y-194170641D02*
X214508519Y-194170641D01*
X214508519Y-194170641D02*
X214413280Y-194218260D01*
X214413280Y-194218260D02*
X214365661Y-194313498D01*
X214365661Y-194313498D02*
X214365661Y-194837308D01*
X213175186Y-193789689D02*
X214032328Y-195075403D01*
X212841852Y-194170641D02*
X212841852Y-195027784D01*
X212841852Y-195027784D02*
X212889471Y-195123022D01*
X212889471Y-195123022D02*
X212984709Y-195170641D01*
X212984709Y-195170641D02*
X213032328Y-195170641D01*
X212841852Y-193837308D02*
X212889471Y-193884927D01*
X212889471Y-193884927D02*
X212841852Y-193932546D01*
X212841852Y-193932546D02*
X212794233Y-193884927D01*
X212794233Y-193884927D02*
X212841852Y-193837308D01*
X212841852Y-193837308D02*
X212841852Y-193932546D01*
X211937091Y-194837308D02*
X211937091Y-194313498D01*
X211937091Y-194313498D02*
X211984710Y-194218260D01*
X211984710Y-194218260D02*
X212079948Y-194170641D01*
X212079948Y-194170641D02*
X212270424Y-194170641D01*
X212270424Y-194170641D02*
X212365662Y-194218260D01*
X211937091Y-194789689D02*
X212032329Y-194837308D01*
X212032329Y-194837308D02*
X212270424Y-194837308D01*
X212270424Y-194837308D02*
X212365662Y-194789689D01*
X212365662Y-194789689D02*
X212413281Y-194694450D01*
X212413281Y-194694450D02*
X212413281Y-194599212D01*
X212413281Y-194599212D02*
X212365662Y-194503974D01*
X212365662Y-194503974D02*
X212270424Y-194456355D01*
X212270424Y-194456355D02*
X212032329Y-194456355D01*
X212032329Y-194456355D02*
X211937091Y-194408736D01*
X211556138Y-194170641D02*
X211318043Y-194837308D01*
X211079948Y-194170641D02*
X211318043Y-194837308D01*
X211318043Y-194837308D02*
X211413281Y-195075403D01*
X211413281Y-195075403D02*
X211460900Y-195123022D01*
X211460900Y-195123022D02*
X211556138Y-195170641D01*
X210698995Y-194837308D02*
X210698995Y-193837308D01*
X210698995Y-194218260D02*
X210603757Y-194170641D01*
X210603757Y-194170641D02*
X210413281Y-194170641D01*
X210413281Y-194170641D02*
X210318043Y-194218260D01*
X210318043Y-194218260D02*
X210270424Y-194265879D01*
X210270424Y-194265879D02*
X210222805Y-194361117D01*
X210222805Y-194361117D02*
X210222805Y-194646831D01*
X210222805Y-194646831D02*
X210270424Y-194742069D01*
X210270424Y-194742069D02*
X210318043Y-194789689D01*
X210318043Y-194789689D02*
X210413281Y-194837308D01*
X210413281Y-194837308D02*
X210603757Y-194837308D01*
X210603757Y-194837308D02*
X210698995Y-194789689D01*
X209365662Y-194170641D02*
X209365662Y-194837308D01*
X209794233Y-194170641D02*
X209794233Y-194694450D01*
X209794233Y-194694450D02*
X209746614Y-194789689D01*
X209746614Y-194789689D02*
X209651376Y-194837308D01*
X209651376Y-194837308D02*
X209508519Y-194837308D01*
X209508519Y-194837308D02*
X209413281Y-194789689D01*
X209413281Y-194789689D02*
X209365662Y-194742069D01*
X208889471Y-194837308D02*
X208889471Y-194170641D01*
X208889471Y-193837308D02*
X208937090Y-193884927D01*
X208937090Y-193884927D02*
X208889471Y-193932546D01*
X208889471Y-193932546D02*
X208841852Y-193884927D01*
X208841852Y-193884927D02*
X208889471Y-193837308D01*
X208889471Y-193837308D02*
X208889471Y-193932546D01*
X208270424Y-194837308D02*
X208365662Y-194789689D01*
X208365662Y-194789689D02*
X208413281Y-194694450D01*
X208413281Y-194694450D02*
X208413281Y-193837308D01*
X207460900Y-194837308D02*
X207460900Y-193837308D01*
X207460900Y-194789689D02*
X207556138Y-194837308D01*
X207556138Y-194837308D02*
X207746614Y-194837308D01*
X207746614Y-194837308D02*
X207841852Y-194789689D01*
X207841852Y-194789689D02*
X207889471Y-194742069D01*
X207889471Y-194742069D02*
X207937090Y-194646831D01*
X207937090Y-194646831D02*
X207937090Y-194361117D01*
X207937090Y-194361117D02*
X207889471Y-194265879D01*
X207889471Y-194265879D02*
X207841852Y-194218260D01*
X207841852Y-194218260D02*
X207746614Y-194170641D01*
X207746614Y-194170641D02*
X207556138Y-194170641D01*
X207556138Y-194170641D02*
X207460900Y-194218260D01*
X207032328Y-194789689D02*
X206937090Y-194837308D01*
X206937090Y-194837308D02*
X206746614Y-194837308D01*
X206746614Y-194837308D02*
X206651376Y-194789689D01*
X206651376Y-194789689D02*
X206603757Y-194694450D01*
X206603757Y-194694450D02*
X206603757Y-194646831D01*
X206603757Y-194646831D02*
X206651376Y-194551593D01*
X206651376Y-194551593D02*
X206746614Y-194503974D01*
X206746614Y-194503974D02*
X206889471Y-194503974D01*
X206889471Y-194503974D02*
X206984709Y-194456355D01*
X206984709Y-194456355D02*
X207032328Y-194361117D01*
X207032328Y-194361117D02*
X207032328Y-194313498D01*
X207032328Y-194313498D02*
X206984709Y-194218260D01*
X206984709Y-194218260D02*
X206889471Y-194170641D01*
X206889471Y-194170641D02*
X206746614Y-194170641D01*
X206746614Y-194170641D02*
X206651376Y-194218260D01*
X206222804Y-194789689D02*
X206127566Y-194837308D01*
X206127566Y-194837308D02*
X205937090Y-194837308D01*
X205937090Y-194837308D02*
X205841852Y-194789689D01*
X205841852Y-194789689D02*
X205794233Y-194694450D01*
X205794233Y-194694450D02*
X205794233Y-194646831D01*
X205794233Y-194646831D02*
X205841852Y-194551593D01*
X205841852Y-194551593D02*
X205937090Y-194503974D01*
X205937090Y-194503974D02*
X206079947Y-194503974D01*
X206079947Y-194503974D02*
X206175185Y-194456355D01*
X206175185Y-194456355D02*
X206222804Y-194361117D01*
X206222804Y-194361117D02*
X206222804Y-194313498D01*
X206222804Y-194313498D02*
X206175185Y-194218260D01*
X206175185Y-194218260D02*
X206079947Y-194170641D01*
X206079947Y-194170641D02*
X205937090Y-194170641D01*
X205937090Y-194170641D02*
X205841852Y-194218260D01*
X205508518Y-194170641D02*
X205127566Y-194170641D01*
X205365661Y-193837308D02*
X205365661Y-194694450D01*
X205365661Y-194694450D02*
X205318042Y-194789689D01*
X205318042Y-194789689D02*
X205222804Y-194837308D01*
X205222804Y-194837308D02*
X205127566Y-194837308D01*
X204365661Y-194170641D02*
X204365661Y-194837308D01*
X204794232Y-194170641D02*
X204794232Y-194694450D01*
X204794232Y-194694450D02*
X204746613Y-194789689D01*
X204746613Y-194789689D02*
X204651375Y-194837308D01*
X204651375Y-194837308D02*
X204508518Y-194837308D01*
X204508518Y-194837308D02*
X204413280Y-194789689D01*
X204413280Y-194789689D02*
X204365661Y-194742069D01*
X204032327Y-194170641D02*
X203651375Y-194170641D01*
X203889470Y-194837308D02*
X203889470Y-193980165D01*
X203889470Y-193980165D02*
X203841851Y-193884927D01*
X203841851Y-193884927D02*
X203746613Y-193837308D01*
X203746613Y-193837308D02*
X203651375Y-193837308D01*
X203460898Y-194170641D02*
X203079946Y-194170641D01*
X203318041Y-194837308D02*
X203318041Y-193980165D01*
X203318041Y-193980165D02*
X203270422Y-193884927D01*
X203270422Y-193884927D02*
X203175184Y-193837308D01*
X203175184Y-193837308D02*
X203079946Y-193837308D01*
X202032327Y-193789689D02*
X202889469Y-195075403D01*
X201698993Y-194837308D02*
X201698993Y-193837308D01*
X201698993Y-193837308D02*
X201365660Y-194551593D01*
X201365660Y-194551593D02*
X201032327Y-193837308D01*
X201032327Y-193837308D02*
X201032327Y-194837308D01*
X200127565Y-194837308D02*
X200127565Y-194313498D01*
X200127565Y-194313498D02*
X200175184Y-194218260D01*
X200175184Y-194218260D02*
X200270422Y-194170641D01*
X200270422Y-194170641D02*
X200460898Y-194170641D01*
X200460898Y-194170641D02*
X200556136Y-194218260D01*
X200127565Y-194789689D02*
X200222803Y-194837308D01*
X200222803Y-194837308D02*
X200460898Y-194837308D01*
X200460898Y-194837308D02*
X200556136Y-194789689D01*
X200556136Y-194789689D02*
X200603755Y-194694450D01*
X200603755Y-194694450D02*
X200603755Y-194599212D01*
X200603755Y-194599212D02*
X200556136Y-194503974D01*
X200556136Y-194503974D02*
X200460898Y-194456355D01*
X200460898Y-194456355D02*
X200222803Y-194456355D01*
X200222803Y-194456355D02*
X200127565Y-194408736D01*
X199651374Y-194170641D02*
X199651374Y-194837308D01*
X199651374Y-194265879D02*
X199603755Y-194218260D01*
X199603755Y-194218260D02*
X199508517Y-194170641D01*
X199508517Y-194170641D02*
X199365660Y-194170641D01*
X199365660Y-194170641D02*
X199270422Y-194218260D01*
X199270422Y-194218260D02*
X199222803Y-194313498D01*
X199222803Y-194313498D02*
X199222803Y-194837308D01*
X198746612Y-194837308D02*
X198746612Y-193837308D01*
X198651374Y-194456355D02*
X198365660Y-194837308D01*
X198365660Y-194170641D02*
X198746612Y-194551593D01*
X197937088Y-194837308D02*
X197937088Y-194170641D01*
X197937088Y-193837308D02*
X197984707Y-193884927D01*
X197984707Y-193884927D02*
X197937088Y-193932546D01*
X197937088Y-193932546D02*
X197889469Y-193884927D01*
X197889469Y-193884927D02*
X197937088Y-193837308D01*
X197937088Y-193837308D02*
X197937088Y-193932546D01*
X197460898Y-194170641D02*
X197460898Y-194837308D01*
X197460898Y-194265879D02*
X197413279Y-194218260D01*
X197413279Y-194218260D02*
X197318041Y-194170641D01*
X197318041Y-194170641D02*
X197175184Y-194170641D01*
X197175184Y-194170641D02*
X197079946Y-194218260D01*
X197079946Y-194218260D02*
X197032327Y-194313498D01*
X197032327Y-194313498D02*
X197032327Y-194837308D01*
X196556136Y-194837308D02*
X196556136Y-194170641D01*
X196556136Y-193837308D02*
X196603755Y-193884927D01*
X196603755Y-193884927D02*
X196556136Y-193932546D01*
X196556136Y-193932546D02*
X196508517Y-193884927D01*
X196508517Y-193884927D02*
X196556136Y-193837308D01*
X196556136Y-193837308D02*
X196556136Y-193932546D01*
X195365661Y-193789689D02*
X196222803Y-195075403D01*
X195032327Y-194837308D02*
X195032327Y-193837308D01*
X195032327Y-193837308D02*
X194698994Y-194551593D01*
X194698994Y-194551593D02*
X194365661Y-193837308D01*
X194365661Y-193837308D02*
X194365661Y-194837308D01*
X193984708Y-193837308D02*
X193318042Y-194837308D01*
X193318042Y-193837308D02*
X193984708Y-194837308D01*
X172746875Y-106942969D02*
X172915925Y-106580447D01*
X172806974Y-105867615D02*
X173532019Y-106205707D01*
X172915925Y-106580447D02*
X172417455Y-106348007D01*
X172915925Y-106580447D02*
X172806974Y-105867615D01*
X172915925Y-106580447D02*
X173414396Y-106812886D01*
X173169495Y-106036660D02*
X173380807Y-105583507D01*
X173532019Y-106205707D02*
X172915925Y-106580447D01*
D11*
X242360023Y-123096935D02*
X242118176Y-123761397D01*
X244261804Y-127175318D02*
X243597340Y-126933474D01*
X245078944Y-121829078D02*
X242360023Y-123096935D01*
X245743406Y-122070925D02*
X245078944Y-121829078D01*
X245743406Y-122070925D02*
X246132216Y-122904724D01*
X246346310Y-126203297D02*
X244261804Y-127175318D01*
X246848614Y-123210624D02*
X250908873Y-121317292D01*
X248816794Y-127478724D02*
X248520959Y-126844304D01*
X250908873Y-121317292D02*
X251162444Y-121861079D01*
X252683870Y-125123787D02*
X252895180Y-125576939D01*
X252895180Y-125576939D02*
X248816794Y-127478724D01*
X246346310Y-126203297D02*
G75*
G02*
X248512511Y-126826180I771656J-1394553D01*
G01*
X246848614Y-123210624D02*
G75*
G02*
X246132215Y-122904724I-205250J511148D01*
G01*
X306116814Y-79519258D02*
X305874967Y-80183720D01*
X308018595Y-83597641D02*
X307354131Y-83355797D01*
X308835735Y-78251401D02*
X306116814Y-79519258D01*
X309500197Y-78493248D02*
X308835735Y-78251401D01*
X309500197Y-78493248D02*
X309889007Y-79327047D01*
X310103101Y-82625620D02*
X308018595Y-83597641D01*
X310605405Y-79632947D02*
X314665664Y-77739615D01*
X312573585Y-83901047D02*
X312277750Y-83266627D01*
X314665664Y-77739615D02*
X314919235Y-78283402D01*
X316440661Y-81546110D02*
X316651971Y-81999262D01*
X316651971Y-81999262D02*
X312573585Y-83901047D01*
X310103101Y-82625620D02*
G75*
G02*
X312269302Y-83248503I771656J-1394553D01*
G01*
X310605405Y-79632947D02*
G75*
G02*
X309889006Y-79327047I-205250J511148D01*
G01*
D10*
X114063914Y-142636700D02*
X114232964Y-142274178D01*
X114124013Y-141561346D02*
X114849058Y-141899438D01*
X114232964Y-142274178D02*
X113734494Y-142041738D01*
X114232964Y-142274178D02*
X114124013Y-141561346D01*
X114232964Y-142274178D02*
X114731435Y-142506617D01*
X114486534Y-141730391D02*
X114697846Y-141277238D01*
X114849058Y-141899438D02*
X114232964Y-142274178D01*
X286845013Y-106159891D02*
X287570058Y-105821798D01*
X287207537Y-105990843D02*
X286996225Y-105537690D01*
X287461107Y-106534629D02*
X286845013Y-106159891D01*
X287461107Y-106534629D02*
X286962639Y-106767070D01*
X287461107Y-106534629D02*
X287959577Y-106302190D01*
X287570058Y-105821798D02*
X287461107Y-106534629D01*
X287630157Y-106897152D02*
X287461107Y-106534629D01*
D11*
X141720183Y-105274164D02*
X141478336Y-104609701D01*
X143621964Y-101195778D02*
X142957500Y-101437626D01*
X143804689Y-106246187D02*
X141720183Y-105274164D01*
X144415652Y-108958514D02*
X144711485Y-108324099D01*
X146340887Y-102463635D02*
X143621964Y-101195778D01*
X146420084Y-104707320D02*
X150480344Y-106600650D01*
X146582732Y-103128097D02*
X146193923Y-103961901D01*
X146582732Y-103128097D02*
X146340887Y-102463635D01*
X148494038Y-110860296D02*
X144415652Y-108958514D01*
X148705346Y-110407142D02*
X148494038Y-110860296D01*
X150480344Y-106600650D02*
X150226775Y-107144433D01*
X143804689Y-106246187D02*
G75*
G02*
X144719936Y-108305972I-572268J-1487516D01*
G01*
X146420084Y-104707320D02*
G75*
G02*
X146193922Y-103961901I259630J485791D01*
G01*
D10*
X343500617Y-92429795D02*
X344225662Y-92091702D01*
X343863141Y-92260747D02*
X343651829Y-91807594D01*
X344116711Y-92804533D02*
X343500617Y-92429795D01*
X344116711Y-92804533D02*
X343618243Y-93036974D01*
X344116711Y-92804533D02*
X344615181Y-92572094D01*
X344225662Y-92091702D02*
X344116711Y-92804533D01*
X344285761Y-93167056D02*
X344116711Y-92804533D01*
X188955495Y-117259617D02*
X189124545Y-116897095D01*
X189015594Y-116184263D02*
X189740639Y-116522355D01*
X189124545Y-116897095D02*
X188626075Y-116664655D01*
X189124545Y-116897095D02*
X189015594Y-116184263D01*
X189124545Y-116897095D02*
X189623016Y-117129534D01*
X189378115Y-116353308D02*
X189589427Y-115900155D01*
X189740639Y-116522355D02*
X189124545Y-116897095D01*
X124334748Y-165686971D02*
X124503798Y-165324449D01*
X124394847Y-164611617D02*
X125119892Y-164949709D01*
X124503798Y-165324449D02*
X124005328Y-165092009D01*
X124503798Y-165324449D02*
X124394847Y-164611617D01*
X124503798Y-165324449D02*
X125002269Y-165556888D01*
X124757368Y-164780662D02*
X124968680Y-164327509D01*
X125119892Y-164949709D02*
X124503798Y-165324449D01*
D11*
X323381981Y-71468380D02*
X323140134Y-72132842D01*
X325283762Y-75546763D02*
X324619298Y-75304919D01*
X326100902Y-70200523D02*
X323381981Y-71468380D01*
X326765364Y-70442370D02*
X326100902Y-70200523D01*
X326765364Y-70442370D02*
X327154174Y-71276169D01*
X327368268Y-74574742D02*
X325283762Y-75546763D01*
X327870572Y-71582069D02*
X331930831Y-69688737D01*
X329838752Y-75850169D02*
X329542917Y-75215749D01*
X331930831Y-69688737D02*
X332184402Y-70232524D01*
X333705828Y-73495232D02*
X333917138Y-73948384D01*
X333917138Y-73948384D02*
X329838752Y-75850169D01*
X327368268Y-74574742D02*
G75*
G02*
X329534469Y-75197625I771656J-1394553D01*
G01*
X327870572Y-71582069D02*
G75*
G02*
X327154173Y-71276169I-205250J511148D01*
G01*
X274670394Y-147310612D02*
X274428547Y-147975074D01*
X276572175Y-151388995D02*
X275907711Y-151147151D01*
X277389315Y-146042755D02*
X274670394Y-147310612D01*
X278053777Y-146284602D02*
X277389315Y-146042755D01*
X278053777Y-146284602D02*
X278442587Y-147118401D01*
X278656681Y-150416974D02*
X276572175Y-151388995D01*
X279158985Y-147424301D02*
X283219244Y-145530969D01*
X281127165Y-151692401D02*
X280831330Y-151057981D01*
X283219244Y-145530969D02*
X283472815Y-146074756D01*
X284994241Y-149337464D02*
X285205551Y-149790616D01*
X285205551Y-149790616D02*
X281127165Y-151692401D01*
X278656681Y-150416974D02*
G75*
G02*
X280822882Y-151039857I771656J-1394553D01*
G01*
X279158985Y-147424301D02*
G75*
G02*
X278442586Y-147118401I-205250J511148D01*
G01*
D10*
X254427774Y-126793183D02*
X255152819Y-126455090D01*
X254790298Y-126624135D02*
X254578986Y-126170982D01*
X255043868Y-127167921D02*
X254427774Y-126793183D01*
X255043868Y-127167921D02*
X254545400Y-127400362D01*
X255043868Y-127167921D02*
X255542338Y-126935482D01*
X255152819Y-126455090D02*
X255043868Y-127167921D01*
X255212918Y-127530444D02*
X255043868Y-127167921D01*
X313217601Y-117639945D02*
X313942646Y-117301852D01*
X313580125Y-117470897D02*
X313368813Y-117017744D01*
X313833695Y-118014683D02*
X313217601Y-117639945D01*
X313833695Y-118014683D02*
X313335227Y-118247124D01*
X313833695Y-118014683D02*
X314332165Y-117782244D01*
X313942646Y-117301852D02*
X313833695Y-118014683D01*
X314002745Y-118377206D02*
X313833695Y-118014683D01*
D11*
X282828131Y-119728799D02*
X282586284Y-120393261D01*
X284729912Y-123807182D02*
X284065448Y-123565338D01*
X285547052Y-118460942D02*
X282828131Y-119728799D01*
X286211514Y-118702789D02*
X285547052Y-118460942D01*
X286211514Y-118702789D02*
X286600324Y-119536588D01*
X286814418Y-122835161D02*
X284729912Y-123807182D01*
X287316722Y-119842488D02*
X291376981Y-117949156D01*
X289284902Y-124110588D02*
X288989067Y-123476168D01*
X291376981Y-117949156D02*
X291630552Y-118492943D01*
X293151978Y-121755651D02*
X293363288Y-122208803D01*
X293363288Y-122208803D02*
X289284902Y-124110588D01*
X286814418Y-122835161D02*
G75*
G02*
X288980619Y-123458044I771656J-1394553D01*
G01*
X287316722Y-119842488D02*
G75*
G02*
X286600323Y-119536588I-205250J511148D01*
G01*
X115347600Y-116754219D02*
X115105753Y-116089756D01*
X117249381Y-112675833D02*
X116584917Y-112917681D01*
X117432106Y-117726242D02*
X115347600Y-116754219D01*
X118043069Y-120438569D02*
X118338902Y-119804154D01*
X119968304Y-113943690D02*
X117249381Y-112675833D01*
X120047501Y-116187375D02*
X124107761Y-118080705D01*
X120210149Y-114608152D02*
X119821340Y-115441956D01*
X120210149Y-114608152D02*
X119968304Y-113943690D01*
X122121455Y-122340351D02*
X118043069Y-120438569D01*
X122332763Y-121887197D02*
X122121455Y-122340351D01*
X124107761Y-118080705D02*
X123854192Y-118624488D01*
X117432106Y-117726242D02*
G75*
G02*
X118347353Y-119786027I-572268J-1487516D01*
G01*
X120047501Y-116187375D02*
G75*
G02*
X119821339Y-115441956I259630J485791D01*
G01*
D10*
X106013037Y-159901865D02*
X106182087Y-159539343D01*
X106073136Y-158826511D02*
X106798181Y-159164603D01*
X106182087Y-159539343D02*
X105683617Y-159306903D01*
X106182087Y-159539343D02*
X106073136Y-158826511D01*
X106182087Y-159539343D02*
X106680558Y-159771782D01*
X106435657Y-158995556D02*
X106646969Y-158542403D01*
X106798181Y-159164603D02*
X106182087Y-159539343D01*
X109096943Y-108212270D02*
X109265993Y-107849748D01*
X109157042Y-107136916D02*
X109882087Y-107475008D01*
X109265993Y-107849748D02*
X108767523Y-107617308D01*
X109265993Y-107849748D02*
X109157042Y-107136916D01*
X109265993Y-107849748D02*
X109764464Y-108082187D01*
X109519563Y-107305961D02*
X109730875Y-106852808D01*
X109882087Y-107475008D02*
X109265993Y-107849748D01*
D11*
X290879013Y-136993964D02*
X290637166Y-137658426D01*
X292780794Y-141072347D02*
X292116330Y-140830503D01*
X293597934Y-135726107D02*
X290879013Y-136993964D01*
X294262396Y-135967954D02*
X293597934Y-135726107D01*
X294262396Y-135967954D02*
X294651206Y-136801753D01*
X294865300Y-140100326D02*
X292780794Y-141072347D01*
X295367604Y-137107653D02*
X299427863Y-135214321D01*
X297335784Y-141375753D02*
X297039949Y-140741333D01*
X299427863Y-135214321D02*
X299681434Y-135758108D01*
X301202860Y-139020816D02*
X301414170Y-139473968D01*
X301414170Y-139473968D02*
X297335784Y-141375753D01*
X294865300Y-140100326D02*
G75*
G02*
X297031501Y-140723209I771656J-1394553D01*
G01*
X295367604Y-137107653D02*
G75*
G02*
X294651205Y-136801753I-205250J511148D01*
G01*
D10*
X258844486Y-204180260D02*
X259073918Y-203852599D01*
X259073918Y-203852599D02*
X258623383Y-203537134D01*
X259073918Y-203852599D02*
X259090401Y-203131680D01*
X259073918Y-203852599D02*
X259524450Y-204168068D01*
X259090401Y-203131680D02*
X259745723Y-203590541D01*
X259418062Y-203361112D02*
X259704850Y-202951536D01*
X259745723Y-203590541D02*
X259073918Y-203852599D01*
D11*
X102329747Y-99594953D02*
X102087900Y-98930490D01*
X104231528Y-95516567D02*
X103567064Y-95758415D01*
X104414253Y-100566976D02*
X102329747Y-99594953D01*
X105025216Y-103279303D02*
X105321049Y-102644888D01*
X106950451Y-96784424D02*
X104231528Y-95516567D01*
X107029648Y-99028109D02*
X111089908Y-100921439D01*
X107192296Y-97448886D02*
X106803487Y-98282690D01*
X107192296Y-97448886D02*
X106950451Y-96784424D01*
X109103602Y-105181085D02*
X105025216Y-103279303D01*
X109314910Y-104727931D02*
X109103602Y-105181085D01*
X111089908Y-100921439D02*
X110836339Y-101465222D01*
X104414253Y-100566976D02*
G75*
G02*
X105329500Y-102626761I-572268J-1487516D01*
G01*
X107029648Y-99028109D02*
G75*
G02*
X106803486Y-98282690I259630J485791D01*
G01*
D10*
X286738153Y-151006865D02*
X287463198Y-150668772D01*
X287100677Y-150837817D02*
X286889365Y-150384664D01*
X287354247Y-151381603D02*
X286738153Y-151006865D01*
X287354247Y-151381603D02*
X286855779Y-151614044D01*
X287354247Y-151381603D02*
X287852717Y-151149164D01*
X287463198Y-150668772D02*
X287354247Y-151381603D01*
X287523297Y-151744126D02*
X287354247Y-151381603D01*
X172853733Y-151789947D02*
X173022783Y-151427425D01*
X172913832Y-150714593D02*
X173638877Y-151052685D01*
X173022783Y-151427425D02*
X172524313Y-151194985D01*
X173022783Y-151427425D02*
X172913832Y-150714593D01*
X173022783Y-151427425D02*
X173521254Y-151659864D01*
X173276353Y-150883638D02*
X173487665Y-150430485D01*
X173638877Y-151052685D02*
X173022783Y-151427425D01*
X156538258Y-96626322D02*
X156707308Y-96263800D01*
X156598357Y-95550968D02*
X157323402Y-95889060D01*
X156707308Y-96263800D02*
X156208838Y-96031360D01*
X156707308Y-96263800D02*
X156598357Y-95550968D01*
X156707308Y-96263800D02*
X157205779Y-96496239D01*
X156960878Y-95720013D02*
X157172190Y-95266860D01*
X157323402Y-95889060D02*
X156707308Y-96263800D01*
X140543366Y-176003622D02*
X140712416Y-175641100D01*
X140603465Y-174928268D02*
X141328510Y-175266360D01*
X140712416Y-175641100D02*
X140213946Y-175408660D01*
X140712416Y-175641100D02*
X140603465Y-174928268D01*
X140712416Y-175641100D02*
X141210887Y-175873539D01*
X140965986Y-175097313D02*
X141177298Y-174644160D01*
X141328510Y-175266360D02*
X140712416Y-175641100D01*
X180904616Y-134524781D02*
X181073666Y-134162259D01*
X180964715Y-133449427D02*
X181689760Y-133787519D01*
X181073666Y-134162259D02*
X180575196Y-133929819D01*
X181073666Y-134162259D02*
X180964715Y-133449427D01*
X181073666Y-134162259D02*
X181572137Y-134394698D01*
X181327236Y-133618472D02*
X181538548Y-133165319D01*
X181689760Y-133787519D02*
X181073666Y-134162259D01*
D11*
X149771064Y-88009003D02*
X149529217Y-87344540D01*
X151672845Y-83930617D02*
X151008381Y-84172465D01*
X151855570Y-88981026D02*
X149771064Y-88009003D01*
X152466533Y-91693353D02*
X152762366Y-91058938D01*
X154391768Y-85198474D02*
X151672845Y-83930617D01*
X154470965Y-87442159D02*
X158531225Y-89335489D01*
X154633613Y-85862936D02*
X154244804Y-86696740D01*
X154633613Y-85862936D02*
X154391768Y-85198474D01*
X156544919Y-93595135D02*
X152466533Y-91693353D01*
X156756227Y-93141981D02*
X156544919Y-93595135D01*
X158531225Y-89335489D02*
X158277656Y-89879272D01*
X151855570Y-88981026D02*
G75*
G02*
X152770817Y-91040811I-572268J-1487516D01*
G01*
X154470965Y-87442159D02*
G75*
G02*
X154244803Y-86696740I259630J485791D01*
G01*
X133776171Y-167386302D02*
X133534324Y-166721839D01*
X135677952Y-163307916D02*
X135013488Y-163549764D01*
X135860677Y-168358325D02*
X133776171Y-167386302D01*
X136471640Y-171070652D02*
X136767473Y-170436237D01*
X138396875Y-164575773D02*
X135677952Y-163307916D01*
X138476072Y-166819458D02*
X142536332Y-168712788D01*
X138638720Y-165240235D02*
X138249911Y-166074039D01*
X138638720Y-165240235D02*
X138396875Y-164575773D01*
X140550026Y-172972434D02*
X136471640Y-171070652D01*
X140761334Y-172519280D02*
X140550026Y-172972434D01*
X142536332Y-168712788D02*
X142282763Y-169256571D01*
X135860677Y-168358325D02*
G75*
G02*
X136775924Y-170418110I-572268J-1487516D01*
G01*
X138476072Y-166819458D02*
G75*
G02*
X138249910Y-166074039I259630J485791D01*
G01*
D10*
X321268481Y-134905110D02*
X321993526Y-134567017D01*
X321631005Y-134736062D02*
X321419693Y-134282909D01*
X321884575Y-135279848D02*
X321268481Y-134905110D01*
X321884575Y-135279848D02*
X321386107Y-135512289D01*
X321884575Y-135279848D02*
X322383045Y-135047409D01*
X321993526Y-134567017D02*
X321884575Y-135279848D01*
X322053625Y-135642371D02*
X321884575Y-135279848D01*
D11*
X77013705Y-108809232D02*
X76771858Y-108144769D01*
X78915486Y-104730846D02*
X78251022Y-104972694D01*
X79098211Y-109781255D02*
X77013705Y-108809232D01*
X79709174Y-112493582D02*
X80005007Y-111859167D01*
X81634409Y-105998703D02*
X78915486Y-104730846D01*
X81713606Y-108242388D02*
X85773866Y-110135718D01*
X81876254Y-106663165D02*
X81487445Y-107496969D01*
X81876254Y-106663165D02*
X81634409Y-105998703D01*
X83787560Y-114395364D02*
X79709174Y-112493582D01*
X83998868Y-113942210D02*
X83787560Y-114395364D01*
X85773866Y-110135718D02*
X85520297Y-110679501D01*
X79098211Y-109781255D02*
G75*
G02*
X80013458Y-111841040I-572268J-1487516D01*
G01*
X81713606Y-108242388D02*
G75*
G02*
X81487444Y-107496969I259630J485791D01*
G01*
X250517763Y-95515125D02*
X250275916Y-96179587D01*
X252419544Y-99593508D02*
X251755080Y-99351664D01*
X253236684Y-94247268D02*
X250517763Y-95515125D01*
X253901146Y-94489115D02*
X253236684Y-94247268D01*
X253901146Y-94489115D02*
X254289956Y-95322914D01*
X254504050Y-98621487D02*
X252419544Y-99593508D01*
X255006354Y-95628814D02*
X259066613Y-93735482D01*
X256974534Y-99896914D02*
X256678699Y-99262494D01*
X259066613Y-93735482D02*
X259320184Y-94279269D01*
X260841610Y-97541977D02*
X261052920Y-97995129D01*
X261052920Y-97995129D02*
X256974534Y-99896914D01*
X254504050Y-98621487D02*
G75*
G02*
X256670251Y-99244370I771656J-1394553D01*
G01*
X255006354Y-95628814D02*
G75*
G02*
X254289955Y-95322914I-205250J511148D01*
G01*
D10*
X278687269Y-133741698D02*
X279412314Y-133403605D01*
X279049793Y-133572650D02*
X278838481Y-133119497D01*
X279303363Y-134116436D02*
X278687269Y-133741698D01*
X279303363Y-134116436D02*
X278804895Y-134348877D01*
X279303363Y-134116436D02*
X279801833Y-133883997D01*
X279412314Y-133403605D02*
X279303363Y-134116436D01*
X279472413Y-134478959D02*
X279303363Y-134116436D01*
X359602364Y-126960124D02*
X360327409Y-126622031D01*
X359964888Y-126791076D02*
X359753576Y-126337923D01*
X360218458Y-127334862D02*
X359602364Y-126960124D01*
X360218458Y-127334862D02*
X359719990Y-127567303D01*
X360218458Y-127334862D02*
X360716928Y-127102423D01*
X360327409Y-126622031D02*
X360218458Y-127334862D01*
X360387508Y-127697385D02*
X360218458Y-127334862D01*
X294789027Y-168272027D02*
X295514072Y-167933934D01*
X295151551Y-168102979D02*
X294940239Y-167649826D01*
X295405121Y-168646765D02*
X294789027Y-168272027D01*
X295405121Y-168646765D02*
X294906653Y-168879206D01*
X295405121Y-168646765D02*
X295903591Y-168414326D01*
X295514072Y-167933934D02*
X295405121Y-168646765D01*
X295574171Y-169009288D02*
X295405121Y-168646765D01*
X174929384Y-194097853D02*
X175584706Y-193638992D01*
X175257044Y-193868423D02*
X174970257Y-193458847D01*
X175584706Y-193638992D02*
X175601189Y-194359913D01*
X175601189Y-194359913D02*
X174929384Y-194097853D01*
X175601189Y-194359913D02*
X175150657Y-194675380D01*
X175601189Y-194359913D02*
X176051724Y-194044446D01*
X175830621Y-194687573D02*
X175601189Y-194359913D01*
D11*
X274777253Y-102463635D02*
X274535406Y-103128097D01*
X276679034Y-106542018D02*
X276014570Y-106300174D01*
X277496174Y-101195778D02*
X274777253Y-102463635D01*
X278160636Y-101437625D02*
X277496174Y-101195778D01*
X278160636Y-101437625D02*
X278549446Y-102271424D01*
X278763540Y-105569997D02*
X276679034Y-106542018D01*
X279265844Y-102577324D02*
X283326103Y-100683992D01*
X281234024Y-106845424D02*
X280938189Y-106211004D01*
X283326103Y-100683992D02*
X283579674Y-101227779D01*
X285101100Y-104490487D02*
X285312410Y-104943639D01*
X285312410Y-104943639D02*
X281234024Y-106845424D01*
X278763540Y-105569997D02*
G75*
G02*
X280929741Y-106192880I771656J-1394553D01*
G01*
X279265844Y-102577324D02*
G75*
G02*
X278549445Y-102271424I-205250J511148D01*
G01*
D10*
X262478655Y-144058349D02*
X263203700Y-143720256D01*
X262841179Y-143889301D02*
X262629867Y-143436148D01*
X263094749Y-144433087D02*
X262478655Y-144058349D01*
X263094749Y-144433087D02*
X262596281Y-144665528D01*
X263094749Y-144433087D02*
X263593219Y-144200648D01*
X263203700Y-143720256D02*
X263094749Y-144433087D01*
X263263799Y-144795610D02*
X263094749Y-144433087D01*
X310997649Y-157955381D02*
X311722694Y-157617288D01*
X311360173Y-157786333D02*
X311148861Y-157333180D01*
X311613743Y-158330119D02*
X310997649Y-157955381D01*
X311613743Y-158330119D02*
X311115275Y-158562560D01*
X311613743Y-158330119D02*
X312112213Y-158097680D01*
X311722694Y-157617288D02*
X311613743Y-158330119D01*
X311782793Y-158692642D02*
X311613743Y-158330119D01*
X99882656Y-82896225D02*
X100051706Y-82533703D01*
X99942755Y-81820871D02*
X100667800Y-82158963D01*
X100051706Y-82533703D02*
X99553236Y-82301263D01*
X100051706Y-82533703D02*
X99942755Y-81820871D01*
X100051706Y-82533703D02*
X100550177Y-82766142D01*
X100305276Y-81989916D02*
X100516588Y-81536763D01*
X100667800Y-82158963D02*
X100051706Y-82533703D01*
D11*
X123398478Y-99489057D02*
X123156631Y-98824594D01*
X125300259Y-95410671D02*
X124635795Y-95652519D01*
X125482984Y-100461080D02*
X123398478Y-99489057D01*
X126093947Y-103173407D02*
X126389780Y-102538992D01*
X128019182Y-96678528D02*
X125300259Y-95410671D01*
X128098379Y-98922213D02*
X132158639Y-100815543D01*
X128261027Y-97342990D02*
X127872218Y-98176794D01*
X128261027Y-97342990D02*
X128019182Y-96678528D01*
X130172333Y-105075189D02*
X126093947Y-103173407D01*
X130383641Y-104622035D02*
X130172333Y-105075189D01*
X132158639Y-100815543D02*
X131905070Y-101359326D01*
X125482984Y-100461080D02*
G75*
G02*
X126398231Y-102520865I-572268J-1487516D01*
G01*
X128098379Y-98922213D02*
G75*
G02*
X127872217Y-98176794I259630J485791D01*
G01*
D10*
X138216546Y-90841206D02*
X138385596Y-90478684D01*
X138276645Y-89765852D02*
X139001690Y-90103944D01*
X138385596Y-90478684D02*
X137887126Y-90246244D01*
X138385596Y-90478684D02*
X138276645Y-89765852D01*
X138385596Y-90478684D02*
X138884067Y-90711123D01*
X138639166Y-89934897D02*
X138850478Y-89481744D01*
X139001690Y-90103944D02*
X138385596Y-90478684D01*
X83780903Y-117426555D02*
X83949953Y-117064033D01*
X83841002Y-116351201D02*
X84566047Y-116689293D01*
X83949953Y-117064033D02*
X83451483Y-116831593D01*
X83949953Y-117064033D02*
X83841002Y-116351201D01*
X83949953Y-117064033D02*
X84448424Y-117296472D01*
X84203523Y-116520246D02*
X84414835Y-116067093D01*
X84566047Y-116689293D02*
X83949953Y-117064033D01*
X294895888Y-123425052D02*
X295620933Y-123086959D01*
X295258412Y-123256004D02*
X295047100Y-122802851D01*
X295511982Y-123799790D02*
X294895888Y-123425052D01*
X295511982Y-123799790D02*
X295013514Y-124032231D01*
X295511982Y-123799790D02*
X296010452Y-123567351D01*
X295620933Y-123086959D02*
X295511982Y-123799790D01*
X295681032Y-124162313D02*
X295511982Y-123799790D01*
X75730025Y-134691717D02*
X75899075Y-134329195D01*
X75790124Y-133616363D02*
X76515169Y-133954455D01*
X75899075Y-134329195D02*
X75400605Y-134096755D01*
X75899075Y-134329195D02*
X75790124Y-133616363D01*
X75899075Y-134329195D02*
X76397546Y-134561634D01*
X76152645Y-133785408D02*
X76363957Y-133332255D01*
X76515169Y-133954455D02*
X75899075Y-134329195D01*
X270636396Y-116476538D02*
X271361441Y-116138445D01*
X270998920Y-116307490D02*
X270787608Y-115854337D01*
X271252490Y-116851276D02*
X270636396Y-116476538D01*
X271252490Y-116851276D02*
X270754022Y-117083717D01*
X271252490Y-116851276D02*
X271750960Y-116618837D01*
X271361441Y-116138445D02*
X271252490Y-116851276D01*
X271421540Y-117213799D02*
X271252490Y-116851276D01*
X140436501Y-131156647D02*
X140605551Y-130794125D01*
X140496600Y-130081293D02*
X141221645Y-130419385D01*
X140605551Y-130794125D02*
X140107081Y-130561685D01*
X140605551Y-130794125D02*
X140496600Y-130081293D01*
X140605551Y-130794125D02*
X141104022Y-131026564D01*
X140859121Y-130250338D02*
X141070433Y-129797185D01*
X141221645Y-130419385D02*
X140605551Y-130794125D01*
D11*
X258461779Y-157627259D02*
X258219932Y-158291721D01*
X260363560Y-161705642D02*
X259699096Y-161463798D01*
X261180700Y-156359402D02*
X258461779Y-157627259D01*
X261845162Y-156601249D02*
X261180700Y-156359402D01*
X261845162Y-156601249D02*
X262233972Y-157435048D01*
X262448066Y-160733621D02*
X260363560Y-161705642D01*
X262950370Y-157740948D02*
X267010629Y-155847616D01*
X264918550Y-162009048D02*
X264622715Y-161374628D01*
X267010629Y-155847616D02*
X267264200Y-156391403D01*
X268785626Y-159654111D02*
X268996936Y-160107263D01*
X268996936Y-160107263D02*
X264918550Y-162009048D01*
X262448066Y-160733621D02*
G75*
G02*
X264614267Y-161356504I771656J-1394553D01*
G01*
X262950370Y-157740948D02*
G75*
G02*
X262233971Y-157435048I-205250J511148D01*
G01*
X93115461Y-74278909D02*
X92873614Y-73614446D01*
X95017242Y-70200523D02*
X94352778Y-70442371D01*
X95199967Y-75250932D02*
X93115461Y-74278909D01*
X95810930Y-77963259D02*
X96106763Y-77328844D01*
X97736165Y-71468380D02*
X95017242Y-70200523D01*
X97815362Y-73712065D02*
X101875622Y-75605395D01*
X97978010Y-72132842D02*
X97589201Y-72966646D01*
X97978010Y-72132842D02*
X97736165Y-71468380D01*
X99889316Y-79865041D02*
X95810930Y-77963259D01*
X100100624Y-79411887D02*
X99889316Y-79865041D01*
X101875622Y-75605395D02*
X101622053Y-76149178D01*
X95199967Y-75250932D02*
G75*
G02*
X96115214Y-77310717I-572268J-1487516D01*
G01*
X97815362Y-73712065D02*
G75*
G02*
X97589200Y-72966646I259630J485791D01*
G01*
X301149842Y-113943693D02*
X300907995Y-114608155D01*
X303051623Y-118022076D02*
X302387159Y-117780232D01*
X303868763Y-112675836D02*
X301149842Y-113943693D01*
X304533225Y-112917683D02*
X303868763Y-112675836D01*
X304533225Y-112917683D02*
X304922035Y-113751482D01*
X305136129Y-117050055D02*
X303051623Y-118022076D01*
X305638433Y-114057382D02*
X309698692Y-112164050D01*
X307606613Y-118325482D02*
X307310778Y-117691062D01*
X309698692Y-112164050D02*
X309952263Y-112707837D01*
X311473689Y-115970545D02*
X311684999Y-116423697D01*
X311684999Y-116423697D02*
X307606613Y-118325482D01*
X305136129Y-117050055D02*
G75*
G02*
X307302330Y-117672938I771656J-1394553D01*
G01*
X305638433Y-114057382D02*
G75*
G02*
X304922034Y-113751482I-205250J511148D01*
G01*
D10*
X302946767Y-140690216D02*
X303671812Y-140352123D01*
X303309291Y-140521168D02*
X303097979Y-140068015D01*
X303562861Y-141064954D02*
X302946767Y-140690216D01*
X303562861Y-141064954D02*
X303064393Y-141297395D01*
X303562861Y-141064954D02*
X304061331Y-140832515D01*
X303671812Y-140352123D02*
X303562861Y-141064954D01*
X303731911Y-141427477D02*
X303562861Y-141064954D01*
D11*
X158035668Y-160437787D02*
X157793821Y-159773324D01*
X159937449Y-156359401D02*
X159272985Y-156601249D01*
X160120174Y-161409810D02*
X158035668Y-160437787D01*
X160731137Y-164122137D02*
X161026970Y-163487722D01*
X162656372Y-157627258D02*
X159937449Y-156359401D01*
X162735569Y-159870943D02*
X166795829Y-161764273D01*
X162898217Y-158291720D02*
X162509408Y-159125524D01*
X162898217Y-158291720D02*
X162656372Y-157627258D01*
X164809523Y-166023919D02*
X160731137Y-164122137D01*
X165020831Y-165570765D02*
X164809523Y-166023919D01*
X166795829Y-161764273D02*
X166542260Y-162308056D01*
X160120174Y-161409810D02*
G75*
G02*
X161035421Y-163469595I-572268J-1487516D01*
G01*
X162735569Y-159870943D02*
G75*
G02*
X162509407Y-159125524I259630J485791D01*
G01*
X266619515Y-130045445D02*
X266377668Y-130709907D01*
X268521296Y-134123828D02*
X267856832Y-133881984D01*
X269338436Y-128777588D02*
X266619515Y-130045445D01*
X270002898Y-129019435D02*
X269338436Y-128777588D01*
X270002898Y-129019435D02*
X270391708Y-129853234D01*
X270605802Y-133151807D02*
X268521296Y-134123828D01*
X271108106Y-130159134D02*
X275168365Y-128265802D01*
X273076286Y-134427234D02*
X272780451Y-133792814D01*
X275168365Y-128265802D02*
X275421936Y-128809589D01*
X276943362Y-132072297D02*
X277154672Y-132525449D01*
X277154672Y-132525449D02*
X273076286Y-134427234D01*
X270605802Y-133151807D02*
G75*
G02*
X272772003Y-133774690I771656J-1394553D01*
G01*
X271108106Y-130159134D02*
G75*
G02*
X270391707Y-129853234I-205250J511148D01*
G01*
D10*
X130165672Y-108106375D02*
X130334722Y-107743853D01*
X130225771Y-107031021D02*
X130950816Y-107369113D01*
X130334722Y-107743853D02*
X129836252Y-107511413D01*
X130334722Y-107743853D02*
X130225771Y-107031021D01*
X130334722Y-107743853D02*
X130833193Y-107976292D01*
X130588292Y-107200066D02*
X130799604Y-106746913D01*
X130950816Y-107369113D02*
X130334722Y-107743853D01*
D11*
X166086538Y-143172626D02*
X165844691Y-142508163D01*
X167988319Y-139094240D02*
X167323855Y-139336088D01*
X168171044Y-144144649D02*
X166086538Y-143172626D01*
X168782007Y-146856976D02*
X169077840Y-146222561D01*
X170707242Y-140362097D02*
X167988319Y-139094240D01*
X170786439Y-142605782D02*
X174846699Y-144499112D01*
X170949087Y-141026559D02*
X170560278Y-141860363D01*
X170949087Y-141026559D02*
X170707242Y-140362097D01*
X172860393Y-148758758D02*
X168782007Y-146856976D01*
X173071701Y-148305604D02*
X172860393Y-148758758D01*
X174846699Y-144499112D02*
X174593130Y-145042895D01*
X168171044Y-144144649D02*
G75*
G02*
X169086291Y-146204434I-572268J-1487516D01*
G01*
X170786439Y-142605782D02*
G75*
G02*
X170560277Y-141860363I259630J485791D01*
G01*
D10*
X342337209Y-135010999D02*
X343062254Y-134672906D01*
X342699733Y-134841951D02*
X342488421Y-134388798D01*
X342953303Y-135385737D02*
X342337209Y-135010999D01*
X342953303Y-135385737D02*
X342454835Y-135618178D01*
X342953303Y-135385737D02*
X343451773Y-135153298D01*
X343062254Y-134672906D02*
X342953303Y-135385737D01*
X343122353Y-135748260D02*
X342953303Y-135385737D01*
D11*
X262472067Y-180625107D02*
X262509074Y-181331249D01*
X264479457Y-178395676D02*
X262472067Y-180625107D01*
X265185596Y-178358671D02*
X264479457Y-178395676D01*
X265185596Y-178358671D02*
X265869289Y-178974270D01*
X265816218Y-183636197D02*
X265110081Y-183673205D01*
X266648261Y-178975925D02*
X269645969Y-175646636D01*
X267355220Y-181926965D02*
X265816218Y-183636197D01*
X269645969Y-175646636D02*
X270091854Y-176048118D01*
X270127658Y-182135705D02*
X269607457Y-181667313D01*
X272767175Y-178456988D02*
X273138746Y-178791554D01*
X273138746Y-178791554D02*
X270127658Y-182135705D01*
X266648261Y-178975925D02*
G75*
G02*
X265869292Y-178974268I-388656J390313D01*
G01*
X267355220Y-181926965D02*
G75*
G02*
X269592594Y-181653933I1255203J-982171D01*
G01*
D10*
X122114793Y-125371541D02*
X122283843Y-125009019D01*
X122174892Y-124296187D02*
X122899937Y-124634279D01*
X122283843Y-125009019D02*
X121785373Y-124776579D01*
X122283843Y-125009019D02*
X122174892Y-124296187D01*
X122283843Y-125009019D02*
X122782314Y-125241458D01*
X122537413Y-124465232D02*
X122748725Y-124012079D01*
X122899937Y-124634279D02*
X122283843Y-125009019D01*
D11*
X293098965Y-96678529D02*
X292857118Y-97342991D01*
X295000746Y-100756912D02*
X294336282Y-100515068D01*
X295817886Y-95410672D02*
X293098965Y-96678529D01*
X296482348Y-95652519D02*
X295817886Y-95410672D01*
X296482348Y-95652519D02*
X296871158Y-96486318D01*
X297085252Y-99784891D02*
X295000746Y-100756912D01*
X297587556Y-96792218D02*
X301647815Y-94898886D01*
X299555736Y-101060318D02*
X299259901Y-100425898D01*
X301647815Y-94898886D02*
X301901386Y-95442673D01*
X303422812Y-98705381D02*
X303634122Y-99158533D01*
X303634122Y-99158533D02*
X299555736Y-101060318D01*
X297085252Y-99784891D02*
G75*
G02*
X299251453Y-100407774I771656J-1394553D01*
G01*
X297587556Y-96792218D02*
G75*
G02*
X296871157Y-96486318I-205250J511148D01*
G01*
X94278870Y-116860114D02*
X94037023Y-116195651D01*
X96180651Y-112781728D02*
X95516187Y-113023576D01*
X96363376Y-117832137D02*
X94278870Y-116860114D01*
X96974339Y-120544464D02*
X97270172Y-119910049D01*
X98899574Y-114049585D02*
X96180651Y-112781728D01*
X98978771Y-116293270D02*
X103039031Y-118186600D01*
X99141419Y-114714047D02*
X98752610Y-115547851D01*
X99141419Y-114714047D02*
X98899574Y-114049585D01*
X101052725Y-122446246D02*
X96974339Y-120544464D01*
X101264033Y-121993092D02*
X101052725Y-122446246D01*
X103039031Y-118186600D02*
X102785462Y-118730383D01*
X96363376Y-117832137D02*
G75*
G02*
X97278623Y-119891922I-572268J-1487516D01*
G01*
X98978771Y-116293270D02*
G75*
G02*
X98752609Y-115547851I259630J485791D01*
G01*
D10*
X117147822Y-90947102D02*
X117316872Y-90584580D01*
X117207921Y-89871748D02*
X117932966Y-90209840D01*
X117316872Y-90584580D02*
X116818402Y-90352140D01*
X117316872Y-90584580D02*
X117207921Y-89871748D01*
X117316872Y-90584580D02*
X117815343Y-90817019D01*
X117570442Y-90040793D02*
X117781754Y-89587640D01*
X117932966Y-90209840D02*
X117316872Y-90584580D01*
D11*
X131449353Y-82223895D02*
X131207506Y-81559432D01*
X133351134Y-78145509D02*
X132686670Y-78387357D01*
X133533859Y-83195918D02*
X131449353Y-82223895D01*
X134144822Y-85908245D02*
X134440655Y-85273830D01*
X136070057Y-79413366D02*
X133351134Y-78145509D01*
X136149254Y-81657051D02*
X140209514Y-83550381D01*
X136311902Y-80077828D02*
X135923093Y-80911632D01*
X136311902Y-80077828D02*
X136070057Y-79413366D01*
X138223208Y-87810027D02*
X134144822Y-85908245D01*
X138434516Y-87356873D02*
X138223208Y-87810027D01*
X140209514Y-83550381D02*
X139955945Y-84094164D01*
X133533859Y-83195918D02*
G75*
G02*
X134449106Y-85255703I-572268J-1487516D01*
G01*
X136149254Y-81657051D02*
G75*
G02*
X135923092Y-80911632I259630J485791D01*
G01*
X86227991Y-134125274D02*
X85986144Y-133460811D01*
X88129772Y-130046888D02*
X87465308Y-130288736D01*
X88312497Y-135097297D02*
X86227991Y-134125274D01*
X88923460Y-137809624D02*
X89219293Y-137175209D01*
X90848695Y-131314745D02*
X88129772Y-130046888D01*
X90927892Y-133558430D02*
X94988152Y-135451760D01*
X91090540Y-131979207D02*
X90701731Y-132813011D01*
X91090540Y-131979207D02*
X90848695Y-131314745D01*
X93001846Y-139711406D02*
X88923460Y-137809624D01*
X93213154Y-139258252D02*
X93001846Y-139711406D01*
X94988152Y-135451760D02*
X94734583Y-135995543D01*
X88312497Y-135097297D02*
G75*
G02*
X89227744Y-137157082I-572268J-1487516D01*
G01*
X90927892Y-133558430D02*
G75*
G02*
X90701730Y-132813011I259630J485791D01*
G01*
X107296723Y-134019385D02*
X107054876Y-133354922D01*
X109198504Y-129940999D02*
X108534040Y-130182847D01*
X109381229Y-134991408D02*
X107296723Y-134019385D01*
X109992192Y-137703735D02*
X110288025Y-137069320D01*
X111917427Y-131208856D02*
X109198504Y-129940999D01*
X111996624Y-133452541D02*
X116056884Y-135345871D01*
X112159272Y-131873318D02*
X111770463Y-132707122D01*
X112159272Y-131873318D02*
X111917427Y-131208856D01*
X114070578Y-139605517D02*
X109992192Y-137703735D01*
X114281886Y-139152363D02*
X114070578Y-139605517D01*
X116056884Y-135345871D02*
X115803315Y-135889654D01*
X109381229Y-134991408D02*
G75*
G02*
X110296476Y-137051193I-572268J-1487516D01*
G01*
X111996624Y-133452541D02*
G75*
G02*
X111770462Y-132707122I259630J485791D01*
G01*
D10*
X164802857Y-169055105D02*
X164971907Y-168692583D01*
X164862956Y-167979751D02*
X165588001Y-168317843D01*
X164971907Y-168692583D02*
X164473437Y-168460143D01*
X164971907Y-168692583D02*
X164862956Y-167979751D01*
X164971907Y-168692583D02*
X165470378Y-168925022D01*
X165225477Y-168148796D02*
X165436789Y-167695643D01*
X165588001Y-168317843D02*
X164971907Y-168692583D01*
D11*
X250410900Y-140362098D02*
X250169053Y-141026560D01*
X252312681Y-144440481D02*
X251648217Y-144198637D01*
X253129821Y-139094241D02*
X250410900Y-140362098D01*
X253794283Y-139336088D02*
X253129821Y-139094241D01*
X253794283Y-139336088D02*
X254183093Y-140169887D01*
X254397187Y-143468460D02*
X252312681Y-144440481D01*
X254899491Y-140475787D02*
X258959750Y-138582455D01*
X256867671Y-144743887D02*
X256571836Y-144109467D01*
X258959750Y-138582455D02*
X259213321Y-139126242D01*
X260734747Y-142388950D02*
X260946057Y-142842102D01*
X260946057Y-142842102D02*
X256867671Y-144743887D01*
X254397187Y-143468460D02*
G75*
G02*
X256563388Y-144091343I771656J-1394553D01*
G01*
X254899491Y-140475787D02*
G75*
G02*
X254183092Y-140169887I-205250J511148D01*
G01*
X174137421Y-125907461D02*
X173895574Y-125242998D01*
X176039202Y-121829075D02*
X175374738Y-122070923D01*
X176221927Y-126879484D02*
X174137421Y-125907461D01*
X176832890Y-129591811D02*
X177128723Y-128957396D01*
X178758125Y-123096932D02*
X176039202Y-121829075D01*
X178837322Y-125340617D02*
X182897582Y-127233947D01*
X178999970Y-123761394D02*
X178611161Y-124595198D01*
X178999970Y-123761394D02*
X178758125Y-123096932D01*
X180911276Y-131493593D02*
X176832890Y-129591811D01*
X181122584Y-131040439D02*
X180911276Y-131493593D01*
X182897582Y-127233947D02*
X182644013Y-127777730D01*
X176221927Y-126879484D02*
G75*
G02*
X177137174Y-128939269I-572268J-1487516D01*
G01*
X178837322Y-125340617D02*
G75*
G02*
X178611160Y-124595198I259630J485791D01*
G01*
D10*
X262585518Y-99211377D02*
X263310563Y-98873284D01*
X262948042Y-99042329D02*
X262736730Y-98589176D01*
X263201612Y-99586115D02*
X262585518Y-99211377D01*
X263201612Y-99586115D02*
X262703144Y-99818556D01*
X263201612Y-99586115D02*
X263700082Y-99353676D01*
X263310563Y-98873284D02*
X263201612Y-99586115D01*
X263370662Y-99948638D02*
X263201612Y-99586115D01*
X329319356Y-152170273D02*
X330044401Y-151832180D01*
X329681880Y-152001225D02*
X329470568Y-151548072D01*
X329935450Y-152545011D02*
X329319356Y-152170273D01*
X329935450Y-152545011D02*
X329436982Y-152777452D01*
X329935450Y-152545011D02*
X330433920Y-152312572D01*
X330044401Y-151832180D02*
X329935450Y-152545011D01*
X330104500Y-152907534D02*
X329935450Y-152545011D01*
X335449734Y-75164630D02*
X336174779Y-74826537D01*
X335812258Y-74995582D02*
X335600946Y-74542429D01*
X336065828Y-75539368D02*
X335449734Y-75164630D01*
X336065828Y-75539368D02*
X335567360Y-75771809D01*
X336065828Y-75539368D02*
X336564298Y-75306929D01*
X336174779Y-74826537D02*
X336065828Y-75539368D01*
X336234878Y-75901891D02*
X336065828Y-75539368D01*
X164695997Y-124208130D02*
X164865047Y-123845608D01*
X164756096Y-123132776D02*
X165481141Y-123470868D01*
X164865047Y-123845608D02*
X164366577Y-123613168D01*
X164865047Y-123845608D02*
X164756096Y-123132776D01*
X164865047Y-123845608D02*
X165363518Y-124078047D01*
X165118617Y-123301821D02*
X165329929Y-122848668D01*
X165481141Y-123470868D02*
X164865047Y-123845608D01*
X156156717Y-191983200D02*
X156453974Y-191715548D01*
X156453974Y-191715548D02*
X156085952Y-191306819D01*
X156453974Y-191715548D02*
X156632209Y-191016811D01*
X156453974Y-191715548D02*
X156821999Y-192124277D01*
X156632209Y-191016811D02*
X157167511Y-191611326D01*
X156899863Y-191314070D02*
X157271435Y-190979504D01*
X157167511Y-191611326D02*
X156453974Y-191715548D01*
D11*
X153294532Y-181406767D02*
X153331536Y-180700628D01*
X154336136Y-185851431D02*
X154856335Y-185383042D01*
X154833530Y-183115999D02*
X153294532Y-181406767D01*
X156638682Y-178395676D02*
X155932545Y-178358674D01*
X157347224Y-189195585D02*
X154336136Y-185851431D01*
X157718795Y-188861020D02*
X157347224Y-189195585D01*
X157842298Y-182721381D02*
X160840003Y-186050671D01*
X158609067Y-181331251D02*
X157925374Y-181946850D01*
X158609067Y-181331251D02*
X158646075Y-180625110D01*
X158646075Y-180625110D02*
X156638682Y-178395676D01*
X160840003Y-186050671D02*
X160394115Y-186452148D01*
X154833530Y-183115999D02*
G75*
G02*
X154871198Y-185369658I-1107995J-1145663D01*
G01*
X157842298Y-182721381D02*
G75*
G02*
X157925374Y-181946850I428804J345727D01*
G01*
D10*
X148487381Y-113891482D02*
X148656431Y-113528960D01*
X148547480Y-112816128D02*
X149272525Y-113154220D01*
X148656431Y-113528960D02*
X148157961Y-113296520D01*
X148656431Y-113528960D02*
X148547480Y-112816128D01*
X148656431Y-113528960D02*
X149154902Y-113761399D01*
X148910001Y-112985173D02*
X149121313Y-112532020D01*
X149272525Y-113154220D02*
X148656431Y-113528960D01*
D11*
X339483731Y-105998707D02*
X339241884Y-106663169D01*
X341385512Y-110077090D02*
X340721048Y-109835246D01*
X342202652Y-104730850D02*
X339483731Y-105998707D01*
X342867114Y-104972697D02*
X342202652Y-104730850D01*
X342867114Y-104972697D02*
X343255924Y-105806496D01*
X343470018Y-109105069D02*
X341385512Y-110077090D01*
X343972322Y-106112396D02*
X348032581Y-104219064D01*
X345940502Y-110380496D02*
X345644667Y-109746076D01*
X348032581Y-104219064D02*
X348286152Y-104762851D01*
X349807578Y-108025559D02*
X350018888Y-108478711D01*
X350018888Y-108478711D02*
X345940502Y-110380496D01*
X343470018Y-109105069D02*
G75*
G02*
X345636219Y-109727952I771656J-1394553D01*
G01*
X343972322Y-106112396D02*
G75*
G02*
X343255923Y-105806496I-205250J511148D01*
G01*
D10*
X305166722Y-100374782D02*
X305891767Y-100036689D01*
X305529246Y-100205734D02*
X305317934Y-99752581D01*
X305782816Y-100749520D02*
X305166722Y-100374782D01*
X305782816Y-100749520D02*
X305284348Y-100981961D01*
X305782816Y-100749520D02*
X306281286Y-100517081D01*
X305891767Y-100036689D02*
X305782816Y-100749520D01*
X305951866Y-101112043D02*
X305782816Y-100749520D01*
X132385626Y-148421812D02*
X132554676Y-148059290D01*
X132445725Y-147346458D02*
X133170770Y-147684550D01*
X132554676Y-148059290D02*
X132056206Y-147826850D01*
X132554676Y-148059290D02*
X132445725Y-147346458D01*
X132554676Y-148059290D02*
X133053147Y-148291729D01*
X132808246Y-147515503D02*
X133019558Y-147062350D01*
X133170770Y-147684550D02*
X132554676Y-148059290D01*
D11*
X165979680Y-98325652D02*
X165737833Y-97661189D01*
X167881461Y-94247266D02*
X167216997Y-94489114D01*
X168064186Y-99297675D02*
X165979680Y-98325652D01*
X168675149Y-102010002D02*
X168970982Y-101375587D01*
X170600384Y-95515123D02*
X167881461Y-94247266D01*
X170679581Y-97758808D02*
X174739841Y-99652138D01*
X170842229Y-96179585D02*
X170453420Y-97013389D01*
X170842229Y-96179585D02*
X170600384Y-95515123D01*
X172753535Y-103911784D02*
X168675149Y-102010002D01*
X172964843Y-103458630D02*
X172753535Y-103911784D01*
X174739841Y-99652138D02*
X174486272Y-100195921D01*
X168064186Y-99297675D02*
G75*
G02*
X168979433Y-101357460I-572268J-1487516D01*
G01*
X170679581Y-97758808D02*
G75*
G02*
X170453419Y-97013389I259630J485791D01*
G01*
X125618431Y-139804490D02*
X125376584Y-139140027D01*
X127520212Y-135726104D02*
X126855748Y-135967952D01*
X127702937Y-140776513D02*
X125618431Y-139804490D01*
X128313900Y-143488840D02*
X128609733Y-142854425D01*
X130239135Y-136993961D02*
X127520212Y-135726104D01*
X130318332Y-139237646D02*
X134378592Y-141130976D01*
X130480980Y-137658423D02*
X130092171Y-138492227D01*
X130480980Y-137658423D02*
X130239135Y-136993961D01*
X132392286Y-145390622D02*
X128313900Y-143488840D01*
X132603594Y-144937468D02*
X132392286Y-145390622D01*
X134378592Y-141130976D02*
X134125023Y-141674759D01*
X127702937Y-140776513D02*
G75*
G02*
X128618184Y-142836298I-572268J-1487516D01*
G01*
X130318332Y-139237646D02*
G75*
G02*
X130092170Y-138492227I259630J485791D01*
G01*
D10*
X351551492Y-109694961D02*
X352276537Y-109356868D01*
X351914016Y-109525913D02*
X351702704Y-109072760D01*
X352167586Y-110069699D02*
X351551492Y-109694961D01*
X352167586Y-110069699D02*
X351669118Y-110302140D01*
X352167586Y-110069699D02*
X352666056Y-109837260D01*
X352276537Y-109356868D02*
X352167586Y-110069699D01*
X352336636Y-110432222D02*
X352167586Y-110069699D01*
D11*
X99245843Y-151284544D02*
X99003996Y-150620081D01*
X101147624Y-147206158D02*
X100483160Y-147448006D01*
X101330349Y-152256567D02*
X99245843Y-151284544D01*
X101941312Y-154968894D02*
X102237145Y-154334479D01*
X103866547Y-148474015D02*
X101147624Y-147206158D01*
X103945744Y-150717700D02*
X108006004Y-152611030D01*
X104108392Y-149138477D02*
X103719583Y-149972281D01*
X104108392Y-149138477D02*
X103866547Y-148474015D01*
X106019698Y-156870676D02*
X101941312Y-154968894D01*
X106231006Y-156417522D02*
X106019698Y-156870676D01*
X108006004Y-152611030D02*
X107752435Y-153154813D01*
X101330349Y-152256567D02*
G75*
G02*
X102245596Y-154316352I-572268J-1487516D01*
G01*
X103945744Y-150717700D02*
G75*
G02*
X103719582Y-149972281I259630J485791D01*
G01*
D10*
X326235447Y-100480679D02*
X326960492Y-100142586D01*
X326597971Y-100311631D02*
X326386659Y-99858478D01*
X326851541Y-100855417D02*
X326235447Y-100480679D01*
X326851541Y-100855417D02*
X326353073Y-101087858D01*
X326851541Y-100855417D02*
X327350011Y-100622978D01*
X326960492Y-100142586D02*
X326851541Y-100855417D01*
X327020591Y-101217940D02*
X326851541Y-100855417D01*
X278794135Y-88894725D02*
X279519180Y-88556632D01*
X279156659Y-88725677D02*
X278945347Y-88272524D01*
X279410229Y-89269463D02*
X278794135Y-88894725D01*
X279410229Y-89269463D02*
X278911761Y-89501904D01*
X279410229Y-89269463D02*
X279908699Y-89037024D01*
X279519180Y-88556632D02*
X279410229Y-89269463D01*
X279579279Y-89631986D02*
X279410229Y-89269463D01*
D11*
X141827048Y-150121141D02*
X141585201Y-149456678D01*
X143728829Y-146042755D02*
X143064365Y-146284603D01*
X143911554Y-151093164D02*
X141827048Y-150121141D01*
X144522517Y-153805491D02*
X144818350Y-153171076D01*
X146447752Y-147310612D02*
X143728829Y-146042755D01*
X146526949Y-149554297D02*
X150587209Y-151447627D01*
X146689597Y-147975074D02*
X146300788Y-148808878D01*
X146689597Y-147975074D02*
X146447752Y-147310612D01*
X148600903Y-155707273D02*
X144522517Y-153805491D01*
X148812211Y-155254119D02*
X148600903Y-155707273D01*
X150587209Y-151447627D02*
X150333640Y-151991410D01*
X143911554Y-151093164D02*
G75*
G02*
X144826801Y-153152949I-572268J-1487516D01*
G01*
X146526949Y-149554297D02*
G75*
G02*
X146300787Y-148808878I259630J485791D01*
G01*
X110380624Y-82329788D02*
X110138777Y-81665325D01*
X112282405Y-78251402D02*
X111617941Y-78493250D01*
X112465130Y-83301811D02*
X110380624Y-82329788D01*
X113076093Y-86014138D02*
X113371926Y-85379723D01*
X115001328Y-79519259D02*
X112282405Y-78251402D01*
X115080525Y-81762944D02*
X119140785Y-83656274D01*
X115243173Y-80183721D02*
X114854364Y-81017525D01*
X115243173Y-80183721D02*
X115001328Y-79519259D01*
X117154479Y-87915920D02*
X113076093Y-86014138D01*
X117365787Y-87462766D02*
X117154479Y-87915920D01*
X119140785Y-83656274D02*
X118887216Y-84200057D01*
X112465130Y-83301811D02*
G75*
G02*
X113380377Y-85361596I-572268J-1487516D01*
G01*
X115080525Y-81762944D02*
G75*
G02*
X114854363Y-81017525I259630J485791D01*
G01*
X298929889Y-154259127D02*
X298688042Y-154923589D01*
X300831670Y-158337510D02*
X300167206Y-158095666D01*
X301648810Y-152991270D02*
X298929889Y-154259127D01*
X302313272Y-153233117D02*
X301648810Y-152991270D01*
X302313272Y-153233117D02*
X302702082Y-154066916D01*
X302916176Y-157365489D02*
X300831670Y-158337510D01*
X303418480Y-154372816D02*
X307478739Y-152479484D01*
X305386660Y-158640916D02*
X305090825Y-158006496D01*
X307478739Y-152479484D02*
X307732310Y-153023271D01*
X309253736Y-156285979D02*
X309465046Y-156739131D01*
X309465046Y-156739131D02*
X305386660Y-158640916D01*
X302916176Y-157365489D02*
G75*
G02*
X305082377Y-157988372I771656J-1394553D01*
G01*
X303418480Y-154372816D02*
G75*
G02*
X302702081Y-154066916I-205250J511148D01*
G01*
X282721273Y-164575775D02*
X282479426Y-165240237D01*
X284623054Y-168654158D02*
X283958590Y-168412314D01*
X285440194Y-163307918D02*
X282721273Y-164575775D01*
X286104656Y-163549765D02*
X285440194Y-163307918D01*
X286104656Y-163549765D02*
X286493466Y-164383564D01*
X286707560Y-167682137D02*
X284623054Y-168654158D01*
X287209864Y-164689464D02*
X291270123Y-162796132D01*
X289178044Y-168957564D02*
X288882209Y-168323144D01*
X291270123Y-162796132D02*
X291523694Y-163339919D01*
X293045120Y-166602627D02*
X293256430Y-167055779D01*
X293256430Y-167055779D02*
X289178044Y-168957564D01*
X286707560Y-167682137D02*
G75*
G02*
X288873761Y-168305020I771656J-1394553D01*
G01*
X287209864Y-164689464D02*
G75*
G02*
X286493465Y-164383564I-205250J511148D01*
G01*
X234309144Y-105831771D02*
X234067297Y-106496233D01*
X236210925Y-109910154D02*
X235546461Y-109668310D01*
X237028065Y-104563914D02*
X234309144Y-105831771D01*
X237692527Y-104805761D02*
X237028065Y-104563914D01*
X237692527Y-104805761D02*
X238081337Y-105639560D01*
X238295431Y-108938133D02*
X236210925Y-109910154D01*
X238797735Y-105945460D02*
X242857994Y-104052128D01*
X240765915Y-110213560D02*
X240470080Y-109579140D01*
X242857994Y-104052128D02*
X243111565Y-104595915D01*
X244632991Y-107858623D02*
X244844301Y-108311775D01*
X244844301Y-108311775D02*
X240765915Y-110213560D01*
X238295431Y-108938133D02*
G75*
G02*
X240461632Y-109561016I771656J-1394553D01*
G01*
X238797735Y-105945460D02*
G75*
G02*
X238081336Y-105639560I-205250J511148D01*
G01*
X258568635Y-112780282D02*
X258326788Y-113444744D01*
X260470416Y-116858665D02*
X259805952Y-116616821D01*
X261287556Y-111512425D02*
X258568635Y-112780282D01*
X261952018Y-111754272D02*
X261287556Y-111512425D01*
X261952018Y-111754272D02*
X262340828Y-112588071D01*
X262554922Y-115886644D02*
X260470416Y-116858665D01*
X263057226Y-112893971D02*
X267117485Y-111000639D01*
X265025406Y-117162071D02*
X264729571Y-116527651D01*
X267117485Y-111000639D02*
X267371056Y-111544426D01*
X268892482Y-114807134D02*
X269103792Y-115260286D01*
X269103792Y-115260286D02*
X265025406Y-117162071D01*
X262554922Y-115886644D02*
G75*
G02*
X264721123Y-116509527I771656J-1394553D01*
G01*
X263057226Y-112893971D02*
G75*
G02*
X262340827Y-112588071I-205250J511148D01*
G01*
X331432857Y-88733543D02*
X331191010Y-89398005D01*
X333334638Y-92811926D02*
X332670174Y-92570082D01*
X334151778Y-87465686D02*
X331432857Y-88733543D01*
X334816240Y-87707533D02*
X334151778Y-87465686D01*
X334816240Y-87707533D02*
X335205050Y-88541332D01*
X335419144Y-91839905D02*
X333334638Y-92811926D01*
X335921448Y-88847232D02*
X339981707Y-86953900D01*
X337889628Y-93115332D02*
X337593793Y-92480912D01*
X339981707Y-86953900D02*
X340235278Y-87497687D01*
X341756704Y-90760395D02*
X341968014Y-91213547D01*
X341968014Y-91213547D02*
X337889628Y-93115332D01*
X335419144Y-91839905D02*
G75*
G02*
X337585345Y-92462788I771656J-1394553D01*
G01*
X335921448Y-88847232D02*
G75*
G02*
X335205049Y-88541332I-205250J511148D01*
G01*
X309200723Y-131208854D02*
X308958876Y-131873316D01*
X311102504Y-135287237D02*
X310438040Y-135045393D01*
X311919644Y-129940997D02*
X309200723Y-131208854D01*
X312584106Y-130182844D02*
X311919644Y-129940997D01*
X312584106Y-130182844D02*
X312972916Y-131016643D01*
X313187010Y-134315216D02*
X311102504Y-135287237D01*
X313689314Y-131322543D02*
X317749573Y-129429211D01*
X315657494Y-135590643D02*
X315361659Y-134956223D01*
X317749573Y-129429211D02*
X318003144Y-129972998D01*
X319524570Y-133235706D02*
X319735880Y-133688858D01*
X319735880Y-133688858D02*
X315657494Y-135590643D01*
X313187010Y-134315216D02*
G75*
G02*
X315353211Y-134938099I771656J-1394553D01*
G01*
X313689314Y-131322543D02*
G75*
G02*
X312972915Y-131016643I-205250J511148D01*
G01*
X322218568Y-114049582D02*
X321976721Y-114714044D01*
X324120349Y-118127965D02*
X323455885Y-117886121D01*
X324937489Y-112781725D02*
X322218568Y-114049582D01*
X325601951Y-113023572D02*
X324937489Y-112781725D01*
X325601951Y-113023572D02*
X325990761Y-113857371D01*
X326204855Y-117155944D02*
X324120349Y-118127965D01*
X326707159Y-114163271D02*
X330767418Y-112269939D01*
X328675339Y-118431371D02*
X328379504Y-117796951D01*
X330767418Y-112269939D02*
X331020989Y-112813726D01*
X332542415Y-116076434D02*
X332753725Y-116529586D01*
X332753725Y-116529586D02*
X328675339Y-118431371D01*
X326204855Y-117155944D02*
G75*
G02*
X328371056Y-117778827I771656J-1394553D01*
G01*
X326707159Y-114163271D02*
G75*
G02*
X325990760Y-113857371I-205250J511148D01*
G01*
D10*
X101046066Y-125477429D02*
X101215116Y-125114907D01*
X101106165Y-124402075D02*
X101831210Y-124740167D01*
X101215116Y-125114907D02*
X100716646Y-124882467D01*
X101215116Y-125114907D02*
X101106165Y-124402075D01*
X101215116Y-125114907D02*
X101713587Y-125347346D01*
X101468686Y-124571120D02*
X101679998Y-124117967D01*
X101831210Y-124740167D02*
X101215116Y-125114907D01*
D11*
X162403112Y-192553292D02*
X162280326Y-193249659D01*
X164860570Y-190832563D02*
X162403112Y-192553292D01*
X164984207Y-196239476D02*
X164287844Y-196116689D01*
X165556934Y-190955351D02*
X164860570Y-190832563D01*
X165556934Y-190955351D02*
X166084624Y-191708970D01*
X166843255Y-191885819D02*
X170513057Y-189316196D01*
X166868256Y-194920251D02*
X164984207Y-196239476D01*
X169522682Y-195747307D02*
X169121180Y-195173898D01*
X170513057Y-189316196D02*
X170857204Y-189807687D01*
X172922077Y-192756634D02*
X173208868Y-193166209D01*
X173208868Y-193166209D02*
X169522682Y-195747307D01*
X166843255Y-191885819D02*
G75*
G02*
X166084625Y-191708969I-290890J467741D01*
G01*
X166868256Y-194920251D02*
G75*
G02*
X169109708Y-195157517I1002094J-1239353D01*
G01*
X133669305Y-122539328D02*
X133427458Y-121874865D01*
X135571086Y-118460942D02*
X134906622Y-118702790D01*
X135753811Y-123511351D02*
X133669305Y-122539328D01*
X136364774Y-126223678D02*
X136660607Y-125589263D01*
X138290009Y-119728799D02*
X135571086Y-118460942D01*
X138369206Y-121972484D02*
X142429466Y-123865814D01*
X138531854Y-120393261D02*
X138143045Y-121227065D01*
X138531854Y-120393261D02*
X138290009Y-119728799D01*
X140443160Y-128125460D02*
X136364774Y-126223678D01*
X140654468Y-127672306D02*
X140443160Y-128125460D01*
X142429466Y-123865814D02*
X142175897Y-124409597D01*
X135753811Y-123511351D02*
G75*
G02*
X136669058Y-125571136I-572268J-1487516D01*
G01*
X138369206Y-121972484D02*
G75*
G02*
X138143044Y-121227065I259630J485791D01*
G01*
D10*
X148594239Y-158738455D02*
X148763289Y-158375933D01*
X148654338Y-157663101D02*
X149379383Y-158001193D01*
X148763289Y-158375933D02*
X148264819Y-158143493D01*
X148763289Y-158375933D02*
X148654338Y-157663101D01*
X148763289Y-158375933D02*
X149261760Y-158608372D01*
X149016859Y-157832146D02*
X149228171Y-157378993D01*
X149379383Y-158001193D02*
X148763289Y-158375933D01*
X318184573Y-83215512D02*
X318909618Y-82877419D01*
X318547097Y-83046464D02*
X318335785Y-82593311D01*
X318800667Y-83590250D02*
X318184573Y-83215512D01*
X318800667Y-83590250D02*
X318302199Y-83822691D01*
X318800667Y-83590250D02*
X319299137Y-83357811D01*
X318909618Y-82877419D02*
X318800667Y-83590250D01*
X318969717Y-83952773D02*
X318800667Y-83590250D01*
D11*
X182188300Y-108642295D02*
X181946453Y-107977832D01*
X184090081Y-104563909D02*
X183425617Y-104805757D01*
X184272806Y-109614318D02*
X182188300Y-108642295D01*
X184883769Y-112326645D02*
X185179602Y-111692230D01*
X186809004Y-105831766D02*
X184090081Y-104563909D01*
X186888201Y-108075451D02*
X190948461Y-109968781D01*
X187050849Y-106496228D02*
X186662040Y-107330032D01*
X187050849Y-106496228D02*
X186809004Y-105831766D01*
X188962155Y-114228427D02*
X184883769Y-112326645D01*
X189173463Y-113775273D02*
X188962155Y-114228427D01*
X190948461Y-109968781D02*
X190694892Y-110512564D01*
X184272806Y-109614318D02*
G75*
G02*
X185188053Y-111674103I-572268J-1487516D01*
G01*
X186888201Y-108075451D02*
G75*
G02*
X186662039Y-107330032I259630J485791D01*
G01*
D10*
X297115842Y-83109617D02*
X297840887Y-82771524D01*
X297478366Y-82940569D02*
X297267054Y-82487416D01*
X297731936Y-83484355D02*
X297115842Y-83109617D01*
X297731936Y-83484355D02*
X297233468Y-83716796D01*
X297731936Y-83484355D02*
X298230406Y-83251916D01*
X297840887Y-82771524D02*
X297731936Y-83484355D01*
X297900986Y-83846878D02*
X297731936Y-83484355D01*
X334286329Y-117745838D02*
X335011374Y-117407745D01*
X334648853Y-117576790D02*
X334437541Y-117123637D01*
X334902423Y-118120576D02*
X334286329Y-117745838D01*
X334902423Y-118120576D02*
X334403955Y-118353017D01*
X334902423Y-118120576D02*
X335400893Y-117888137D01*
X335011374Y-117407745D02*
X334902423Y-118120576D01*
X335071473Y-118483099D02*
X334902423Y-118120576D01*
X156645122Y-141473291D02*
X156814172Y-141110769D01*
X156705221Y-140397937D02*
X157430266Y-140736029D01*
X156814172Y-141110769D02*
X156315702Y-140878329D01*
X156814172Y-141110769D02*
X156705221Y-140397937D01*
X156814172Y-141110769D02*
X157312643Y-141343208D01*
X157067742Y-140566982D02*
X157279054Y-140113829D01*
X157430266Y-140736029D02*
X156814172Y-141110769D01*
D11*
X314167692Y-96784420D02*
X313925845Y-97448882D01*
X316069473Y-100862803D02*
X315405009Y-100620959D01*
X316886613Y-95516563D02*
X314167692Y-96784420D01*
X317551075Y-95758410D02*
X316886613Y-95516563D01*
X317551075Y-95758410D02*
X317939885Y-96592209D01*
X318153979Y-99890782D02*
X316069473Y-100862803D01*
X318656283Y-96898109D02*
X322716542Y-95004777D01*
X320624463Y-101166209D02*
X320328628Y-100531789D01*
X322716542Y-95004777D02*
X322970113Y-95548564D01*
X324491539Y-98811272D02*
X324702849Y-99264424D01*
X324702849Y-99264424D02*
X320624463Y-101166209D01*
X318153979Y-99890782D02*
G75*
G02*
X320320180Y-100513665I771656J-1394553D01*
G01*
X318656283Y-96898109D02*
G75*
G02*
X317939884Y-96592209I-205250J511148D01*
G01*
D10*
X246376898Y-109528023D02*
X247101943Y-109189930D01*
X246739422Y-109358975D02*
X246528110Y-108905822D01*
X246992992Y-109902761D02*
X246376898Y-109528023D01*
X246992992Y-109902761D02*
X246494524Y-110135202D01*
X246992992Y-109902761D02*
X247491462Y-109670322D01*
X247101943Y-109189930D02*
X246992992Y-109902761D01*
X247162042Y-110265284D02*
X246992992Y-109902761D01*
X92995193Y-142742595D02*
X93164243Y-142380073D01*
X93055292Y-141667241D02*
X93780337Y-142005333D01*
X93164243Y-142380073D02*
X92665773Y-142147633D01*
X93164243Y-142380073D02*
X93055292Y-141667241D01*
X93164243Y-142380073D02*
X93662714Y-142612512D01*
X93417813Y-141836286D02*
X93629125Y-141383133D01*
X93780337Y-142005333D02*
X93164243Y-142380073D01*
D11*
X330269450Y-131314748D02*
X330027603Y-131979210D01*
X332171231Y-135393131D02*
X331506767Y-135151287D01*
X332988371Y-130046891D02*
X330269450Y-131314748D01*
X333652833Y-130288738D02*
X332988371Y-130046891D01*
X333652833Y-130288738D02*
X334041643Y-131122537D01*
X334255737Y-134421110D02*
X332171231Y-135393131D01*
X334758041Y-131428437D02*
X338818300Y-129535105D01*
X336726221Y-135696537D02*
X336430386Y-135062117D01*
X338818300Y-129535105D02*
X339071871Y-130078892D01*
X340593297Y-133341600D02*
X340804607Y-133794752D01*
X340804607Y-133794752D02*
X336726221Y-135696537D01*
X334255737Y-134421110D02*
G75*
G02*
X336421938Y-135043993I771656J-1394553D01*
G01*
X334758041Y-131428437D02*
G75*
G02*
X334041642Y-131122537I-205250J511148D01*
G01*
X253676479Y-194518749D02*
X253553694Y-193822384D01*
X255560527Y-195837975D02*
X253676479Y-194518749D01*
X255691219Y-198615187D02*
X256092718Y-198041781D01*
X256257572Y-190832565D02*
X255561209Y-190955354D01*
X258403411Y-194776646D02*
X262073213Y-197346267D01*
X258715030Y-192553294D02*
X256257572Y-190832565D01*
X258837817Y-193249660D02*
X258310126Y-194003278D01*
X258837817Y-193249660D02*
X258715030Y-192553294D01*
X259377404Y-201196284D02*
X255691219Y-198615187D01*
X259664191Y-200786706D02*
X259377404Y-201196284D01*
X262073213Y-197346267D02*
X261729066Y-197837759D01*
X255560527Y-195837975D02*
G75*
G02*
X256104195Y-198025397I-821878J-1365545D01*
G01*
X258403411Y-194776646D02*
G75*
G02*
X258310127Y-194003278I340042J433326D01*
G01*
X149877928Y-132855973D02*
X149636081Y-132191510D01*
X151779709Y-128777587D02*
X151115245Y-129019435D01*
X151962434Y-133827996D02*
X149877928Y-132855973D01*
X152573397Y-136540323D02*
X152869230Y-135905908D01*
X154498632Y-130045444D02*
X151779709Y-128777587D01*
X154577829Y-132289129D02*
X158638089Y-134182459D01*
X154740477Y-130709906D02*
X154351668Y-131543710D01*
X154740477Y-130709906D02*
X154498632Y-130045444D01*
X156651783Y-138442105D02*
X152573397Y-136540323D01*
X156863091Y-137988951D02*
X156651783Y-138442105D01*
X158638089Y-134182459D02*
X158384520Y-134726242D01*
X151962434Y-133827996D02*
G75*
G02*
X152877681Y-135887781I-572268J-1487516D01*
G01*
X154577829Y-132289129D02*
G75*
G02*
X154351667Y-131543710I259630J485791D01*
G01*
X68962828Y-126074402D02*
X68720981Y-125409939D01*
X70864609Y-121996016D02*
X70200145Y-122237864D01*
X71047334Y-127046425D02*
X68962828Y-126074402D01*
X71658297Y-129758752D02*
X71954130Y-129124337D01*
X73583532Y-123263873D02*
X70864609Y-121996016D01*
X73662729Y-125507558D02*
X77722989Y-127400888D01*
X73825377Y-123928335D02*
X73436568Y-124762139D01*
X73825377Y-123928335D02*
X73583532Y-123263873D01*
X75736683Y-131660534D02*
X71658297Y-129758752D01*
X75947991Y-131207380D02*
X75736683Y-131660534D01*
X77722989Y-127400888D02*
X77469420Y-127944671D01*
X71047334Y-127046425D02*
G75*
G02*
X71962581Y-129106210I-572268J-1487516D01*
G01*
X73662729Y-125507558D02*
G75*
G02*
X73436567Y-124762139I259630J485791D01*
G01*
X157928801Y-115590809D02*
X157686954Y-114926346D01*
X159830582Y-111512423D02*
X159166118Y-111754271D01*
X160013307Y-116562832D02*
X157928801Y-115590809D01*
X160624270Y-119275159D02*
X160920103Y-118640744D01*
X162549505Y-112780280D02*
X159830582Y-111512423D01*
X162628702Y-115023965D02*
X166688962Y-116917295D01*
X162791350Y-113444742D02*
X162402541Y-114278546D01*
X162791350Y-113444742D02*
X162549505Y-112780280D01*
X164702656Y-121176941D02*
X160624270Y-119275159D01*
X164913964Y-120723787D02*
X164702656Y-121176941D01*
X166688962Y-116917295D02*
X166435393Y-117461078D01*
X160013307Y-116562832D02*
G75*
G02*
X160928554Y-118622617I-572268J-1487516D01*
G01*
X162628702Y-115023965D02*
G75*
G02*
X162402540Y-114278546I259630J485791D01*
G01*
D10*
X275024743Y-179312282D02*
X275560047Y-178717765D01*
X275292394Y-179015021D02*
X274920820Y-178680456D01*
X275560047Y-178717765D02*
X275738284Y-179416502D01*
X275738284Y-179416502D02*
X275024743Y-179312282D01*
X275738284Y-179416502D02*
X275370261Y-179825228D01*
X275738284Y-179416502D02*
X276106304Y-179007772D01*
X276035540Y-179684154D02*
X275738284Y-179416502D01*
D11*
X285048087Y-79413365D02*
X284806240Y-80077827D01*
X286949868Y-83491748D02*
X286285404Y-83249904D01*
X287767008Y-78145508D02*
X285048087Y-79413365D01*
X288431470Y-78387355D02*
X287767008Y-78145508D01*
X288431470Y-78387355D02*
X288820280Y-79221154D01*
X289034374Y-82519727D02*
X286949868Y-83491748D01*
X289536678Y-79527054D02*
X293596937Y-77633722D01*
X291504858Y-83795154D02*
X291209023Y-83160734D01*
X293596937Y-77633722D02*
X293850508Y-78177509D01*
X295371934Y-81440217D02*
X295583244Y-81893369D01*
X295583244Y-81893369D02*
X291504858Y-83795154D01*
X289034374Y-82519727D02*
G75*
G02*
X291200575Y-83142610I771656J-1394553D01*
G01*
X289536678Y-79527054D02*
G75*
G02*
X288820279Y-79221154I-205250J511148D01*
G01*
X117567550Y-157069658D02*
X117325703Y-156405195D01*
X119469331Y-152991272D02*
X118804867Y-153233120D01*
X119652056Y-158041681D02*
X117567550Y-157069658D01*
X120263019Y-160754008D02*
X120558852Y-160119593D01*
X122188254Y-154259129D02*
X119469331Y-152991272D01*
X122267451Y-156502814D02*
X126327711Y-158396144D01*
X122430099Y-154923591D02*
X122041290Y-155757395D01*
X122430099Y-154923591D02*
X122188254Y-154259129D01*
X124341405Y-162655790D02*
X120263019Y-160754008D01*
X124552713Y-162202636D02*
X124341405Y-162655790D01*
X126327711Y-158396144D02*
X126074142Y-158939927D01*
X119652056Y-158041681D02*
G75*
G02*
X120567303Y-160101466I-572268J-1487516D01*
G01*
X122267451Y-156502814D02*
G75*
G02*
X122041289Y-155757395I259630J485791D01*
G01*
X347534609Y-123263869D02*
X347292762Y-123928331D01*
X349436390Y-127342252D02*
X348771926Y-127100408D01*
X350253530Y-121996012D02*
X347534609Y-123263869D01*
X350917992Y-122237859D02*
X350253530Y-121996012D01*
X350917992Y-122237859D02*
X351306802Y-123071658D01*
X351520896Y-126370231D02*
X349436390Y-127342252D01*
X352023200Y-123377558D02*
X356083459Y-121484226D01*
X353991380Y-127645658D02*
X353695545Y-127011238D01*
X356083459Y-121484226D02*
X356337030Y-122028013D01*
X357858456Y-125290721D02*
X358069766Y-125743873D01*
X358069766Y-125743873D02*
X353991380Y-127645658D01*
X351520896Y-126370231D02*
G75*
G02*
X353687097Y-126993114I771656J-1394553D01*
G01*
X352023200Y-123377558D02*
G75*
G02*
X351306801Y-123071658I-205250J511148D01*
G01*
D10*
X270529537Y-161323514D02*
X271254582Y-160985421D01*
X270892061Y-161154466D02*
X270680749Y-160701313D01*
X271145631Y-161698252D02*
X270529537Y-161323514D01*
X271145631Y-161698252D02*
X270647163Y-161930693D01*
X271145631Y-161698252D02*
X271644101Y-161465813D01*
X271254582Y-160985421D02*
X271145631Y-161698252D01*
X271314681Y-162060775D02*
X271145631Y-161698252D01*
D11*
X85064586Y-91544072D02*
X84822739Y-90879609D01*
X86966367Y-87465686D02*
X86301903Y-87707534D01*
X87149092Y-92516095D02*
X85064586Y-91544072D01*
X87760055Y-95228422D02*
X88055888Y-94594007D01*
X89685290Y-88733543D02*
X86966367Y-87465686D01*
X89764487Y-90977228D02*
X93824747Y-92870558D01*
X89927135Y-89398005D02*
X89538326Y-90231809D01*
X89927135Y-89398005D02*
X89685290Y-88733543D01*
X91838441Y-97130204D02*
X87760055Y-95228422D01*
X92049749Y-96677050D02*
X91838441Y-97130204D01*
X93824747Y-92870558D02*
X93571178Y-93414341D01*
X87149092Y-92516095D02*
G75*
G02*
X88064339Y-94575880I-572268J-1487516D01*
G01*
X89764487Y-90977228D02*
G75*
G02*
X89538325Y-90231809I259630J485791D01*
G01*
X317251600Y-148474018D02*
X317009753Y-149138480D01*
X319153381Y-152552401D02*
X318488917Y-152310557D01*
X319970521Y-147206161D02*
X317251600Y-148474018D01*
X320634983Y-147448008D02*
X319970521Y-147206161D01*
X320634983Y-147448008D02*
X321023793Y-148281807D01*
X321237887Y-151580380D02*
X319153381Y-152552401D01*
X321740191Y-148587707D02*
X325800450Y-146694375D01*
X323708371Y-152855807D02*
X323412536Y-152221387D01*
X325800450Y-146694375D02*
X326054021Y-147238162D01*
X327575447Y-150500870D02*
X327786757Y-150954022D01*
X327786757Y-150954022D02*
X323708371Y-152855807D01*
X321237887Y-151580380D02*
G75*
G02*
X323404088Y-152203263I771656J-1394553D01*
G01*
X321740191Y-148587707D02*
G75*
G02*
X321023792Y-148281807I-205250J511148D01*
G01*
D10*
X91831779Y-100161389D02*
X92000829Y-99798867D01*
X91891878Y-99086035D02*
X92616923Y-99424127D01*
X92000829Y-99798867D02*
X91502359Y-99566427D01*
X92000829Y-99798867D02*
X91891878Y-99086035D01*
X92000829Y-99798867D02*
X92499300Y-100031306D01*
X92254399Y-99255080D02*
X92465711Y-98801927D01*
X92616923Y-99424127D02*
X92000829Y-99798867D01*
D11*
X266726373Y-85198476D02*
X266484526Y-85862938D01*
X268628154Y-89276859D02*
X267963690Y-89035015D01*
X269445294Y-83930619D02*
X266726373Y-85198476D01*
X270109756Y-84172466D02*
X269445294Y-83930619D01*
X270109756Y-84172466D02*
X270498566Y-85006265D01*
X270712660Y-88304838D02*
X268628154Y-89276859D01*
X271214964Y-85312165D02*
X275275223Y-83418833D01*
X273183144Y-89580265D02*
X272887309Y-88945845D01*
X275275223Y-83418833D02*
X275528794Y-83962620D01*
X277050220Y-87225328D02*
X277261530Y-87678480D01*
X277261530Y-87678480D02*
X273183144Y-89580265D01*
X270712660Y-88304838D02*
G75*
G02*
X272878861Y-88927721I771656J-1394553D01*
G01*
X271214964Y-85312165D02*
G75*
G02*
X270498565Y-85006265I-205250J511148D01*
G01*
%LPC*%
D12*
X96022972Y-90226875D03*
X95967885Y-91488529D03*
X96954047Y-89373701D03*
X96821059Y-92419604D03*
D13*
X97518380Y-90924196D03*
D12*
X98215701Y-89428788D03*
X98082713Y-92474691D03*
X99068875Y-90359863D03*
X99013788Y-91621517D03*
X250296683Y-117934030D03*
X250241596Y-116672377D03*
X251227759Y-118787204D03*
X251094770Y-115741301D03*
D13*
X251792091Y-117236709D03*
D12*
X252489412Y-118732117D03*
X252356423Y-115686214D03*
X253342586Y-117801041D03*
X253287499Y-116539388D03*
D14*
X218049070Y-131824890D03*
X218049070Y-134364887D03*
X218049071Y-136904891D03*
X218049070Y-139444889D03*
X218049070Y-141984887D03*
X218049071Y-144524889D03*
X218049070Y-147064888D03*
X218049069Y-149604889D03*
X218049070Y-152144891D03*
X218049070Y-154684889D03*
X218049071Y-157224888D03*
X218049070Y-159764891D03*
X218049069Y-162304889D03*
X202809070Y-162304888D03*
X202809070Y-159764891D03*
X202809069Y-157224887D03*
X202809070Y-154684889D03*
X202809070Y-152144891D03*
X202809069Y-149604889D03*
X202809070Y-147064890D03*
X202809071Y-144524889D03*
X202809070Y-141984887D03*
X202809070Y-139444889D03*
X202809069Y-136904890D03*
X202809070Y-134364887D03*
X202809071Y-131824889D03*
D12*
X338206112Y-126151843D03*
X338151025Y-124890190D03*
X339137188Y-127005017D03*
X339004199Y-123959114D03*
D13*
X339701520Y-125454522D03*
D12*
X340398841Y-126949930D03*
X340265852Y-123904027D03*
X341252015Y-126018854D03*
X341196928Y-124757201D03*
X274449323Y-169729518D03*
X274394236Y-168467865D03*
X275380399Y-170582692D03*
X275247410Y-167536789D03*
D13*
X275944731Y-169032197D03*
D12*
X276642052Y-170527605D03*
X276509063Y-167481702D03*
X277495226Y-169596529D03*
X277440139Y-168334876D03*
D14*
X207309072Y-167159890D03*
X213809072Y-167159894D03*
D12*
X144734551Y-166069106D03*
X144679464Y-167330760D03*
X145665626Y-165215932D03*
X145532638Y-168261835D03*
D13*
X146229959Y-166766427D03*
D12*
X146927280Y-165271019D03*
X146794292Y-168316922D03*
X147780454Y-166202094D03*
X147725367Y-167463748D03*
X322104360Y-91621517D03*
X322049273Y-90359864D03*
X323035436Y-92474691D03*
X322902447Y-89428788D03*
D13*
X323599768Y-90924196D03*
D12*
X324297089Y-92419604D03*
X324164100Y-89373701D03*
X325150263Y-91488528D03*
X325095176Y-90226875D03*
X79921216Y-124757204D03*
X79866129Y-126018858D03*
X80852291Y-123904030D03*
X80719303Y-126949933D03*
D13*
X81416624Y-125454525D03*
D12*
X82113945Y-123959117D03*
X81980957Y-127005020D03*
X82967119Y-124890192D03*
X82912032Y-126151846D03*
X168887188Y-114273616D03*
X168832101Y-115535270D03*
X169818263Y-113420442D03*
X169685275Y-116466345D03*
D13*
X170382596Y-114970937D03*
D12*
X171079917Y-113475529D03*
X170946929Y-116521432D03*
X171933091Y-114406604D03*
X171878004Y-115668258D03*
D15*
X172366520Y-107758646D03*
X173761162Y-104767830D03*
D16*
X242200257Y-132219129D03*
D17*
X244670373Y-124502199D03*
D18*
X247184952Y-129894730D03*
D17*
X250131672Y-124382984D03*
D16*
X252169647Y-127570331D03*
D19*
X241702214Y-125886275D03*
X253099832Y-122998910D03*
D16*
X305957048Y-88641452D03*
D17*
X308427164Y-80924522D03*
D18*
X310941743Y-86317053D03*
D17*
X313888463Y-80805307D03*
D16*
X315926438Y-83992654D03*
D19*
X305459005Y-82308598D03*
X316856623Y-79421233D03*
D15*
X113683559Y-143452377D03*
X115078201Y-140461561D03*
D20*
X288010512Y-107712829D03*
X286615870Y-104722013D03*
D16*
X136531264Y-106937027D03*
D17*
X144030535Y-103868899D03*
D18*
X141515956Y-109261430D03*
D17*
X147632313Y-107975865D03*
D16*
X146500648Y-111585833D03*
D21*
X141062377Y-102484824D03*
X150600471Y-109359942D03*
D20*
X344666116Y-93982733D03*
X343271474Y-90991917D03*
D15*
X188575140Y-118075294D03*
X189969782Y-115084478D03*
X123954393Y-166502648D03*
X125349035Y-163511832D03*
D16*
X323222215Y-80590574D03*
D17*
X325692331Y-72873644D03*
D18*
X328206910Y-78266175D03*
D17*
X331153630Y-72754429D03*
D16*
X333191605Y-75941776D03*
D19*
X322724172Y-74257720D03*
X334121790Y-71370355D03*
D16*
X274510628Y-156432806D03*
D17*
X276980744Y-148715876D03*
D18*
X279495323Y-154108407D03*
D17*
X282442043Y-148596661D03*
D16*
X284480018Y-151784008D03*
D19*
X274012585Y-150099952D03*
X285410203Y-147212587D03*
D20*
X255593273Y-128346121D03*
X254198631Y-125355305D03*
X314383100Y-119192883D03*
X312988458Y-116202067D03*
D16*
X282668365Y-128850993D03*
D17*
X285138481Y-121134063D03*
D18*
X287653060Y-126526594D03*
D17*
X290599780Y-121014848D03*
D16*
X292637755Y-124202195D03*
D19*
X282170322Y-122518139D03*
X293567940Y-119630774D03*
D16*
X110158681Y-118417082D03*
D17*
X117657952Y-115348954D03*
D18*
X115143373Y-120741485D03*
D17*
X121259730Y-119455920D03*
D16*
X120128065Y-123065888D03*
D21*
X114689794Y-113964879D03*
X124227888Y-120839997D03*
D15*
X105632682Y-160717542D03*
X107027324Y-157726726D03*
X108716588Y-109027947D03*
X110111230Y-106037131D03*
D16*
X290719247Y-146116158D03*
D17*
X293189363Y-138399228D03*
D18*
X295703942Y-143791759D03*
D17*
X298650662Y-138280013D03*
D16*
X300688637Y-141467360D03*
D19*
X290221204Y-139783304D03*
X301618822Y-136895939D03*
D22*
X258328267Y-204917500D03*
X260221069Y-202214296D03*
D16*
X97140828Y-101257816D03*
D17*
X104640099Y-98189688D03*
D18*
X102125520Y-103582219D03*
D17*
X108241877Y-102296654D03*
D16*
X107110212Y-105906622D03*
D21*
X101671941Y-96805613D03*
X111210035Y-103680731D03*
D20*
X287903652Y-152559803D03*
X286509010Y-149568987D03*
D15*
X172473378Y-152605624D03*
X173868020Y-149614808D03*
X156157903Y-97441999D03*
X157552545Y-94451183D03*
X140163011Y-176819299D03*
X141557653Y-173828483D03*
X180524261Y-135340458D03*
X181918903Y-132349642D03*
D16*
X144582145Y-89671866D03*
D17*
X152081416Y-86603738D03*
D18*
X149566837Y-91996269D03*
D17*
X155683194Y-90710704D03*
D16*
X154551529Y-94320672D03*
D21*
X149113258Y-85219663D03*
X158651352Y-92094781D03*
D16*
X128587252Y-169049165D03*
D17*
X136086523Y-165981037D03*
D18*
X133571944Y-171373568D03*
D17*
X139688301Y-170088003D03*
D16*
X138556636Y-173697971D03*
D21*
X133118365Y-164596962D03*
X142656459Y-171472080D03*
D20*
X322433980Y-136458048D03*
X321039338Y-133467232D03*
D16*
X71824786Y-110472095D03*
D17*
X79324057Y-107403967D03*
D18*
X76809478Y-112796498D03*
D17*
X82925835Y-111510933D03*
D16*
X81794170Y-115120901D03*
D21*
X76355899Y-106019892D03*
X85893993Y-112895010D03*
D16*
X250357997Y-104637319D03*
D17*
X252828113Y-96920389D03*
D18*
X255342692Y-102312920D03*
D17*
X258289412Y-96801174D03*
D16*
X260327387Y-99988521D03*
D19*
X249859954Y-98304465D03*
X261257572Y-95417100D03*
D20*
X279852768Y-135294636D03*
X278458126Y-132303820D03*
X360767863Y-128513062D03*
X359373221Y-125522246D03*
X295954526Y-169824965D03*
X294559884Y-166834149D03*
D23*
X176346840Y-195424812D03*
X174454038Y-192721608D03*
D16*
X274617487Y-111585829D03*
D17*
X277087603Y-103868899D03*
D18*
X279602182Y-109261430D03*
D17*
X282548902Y-103749684D03*
D16*
X284586877Y-106937031D03*
D19*
X274119444Y-105252975D03*
X285517062Y-102365610D03*
D20*
X263644154Y-145611287D03*
X262249512Y-142620471D03*
X312163148Y-159508319D03*
X310768506Y-156517503D03*
D15*
X99502301Y-83711902D03*
X100896943Y-80721086D03*
D16*
X118209559Y-101151920D03*
D17*
X125708830Y-98083792D03*
D18*
X123194251Y-103476323D03*
D17*
X129310608Y-102190758D03*
D16*
X128178943Y-105800726D03*
D21*
X122740672Y-96699717D03*
X132278766Y-103574835D03*
D15*
X137836191Y-91656883D03*
X139230833Y-88666067D03*
X83400548Y-118242232D03*
X84795190Y-115251416D03*
D20*
X296061387Y-124977990D03*
X294666745Y-121987174D03*
D15*
X75349670Y-135507394D03*
X76744312Y-132516578D03*
D20*
X271801895Y-118029476D03*
X270407253Y-115038660D03*
D15*
X140056146Y-131972324D03*
X141450788Y-128981508D03*
D16*
X258302013Y-166749453D03*
D17*
X260772129Y-159032523D03*
D18*
X263286708Y-164425054D03*
D17*
X266233428Y-158913308D03*
D16*
X268271403Y-162100655D03*
D19*
X257803970Y-160416599D03*
X269201588Y-157529234D03*
D16*
X87926542Y-75941772D03*
D17*
X95425813Y-72873644D03*
D18*
X92911234Y-78266175D03*
D17*
X99027591Y-76980610D03*
D16*
X97895926Y-80590578D03*
D21*
X92457655Y-71489569D03*
X101995749Y-78364687D03*
D16*
X300990076Y-123065887D03*
D17*
X303460192Y-115348957D03*
D18*
X305974771Y-120741488D03*
D17*
X308921491Y-115229742D03*
D16*
X310959466Y-118417089D03*
D19*
X300492033Y-116733033D03*
X311889651Y-113845668D03*
D20*
X304112266Y-142243154D03*
X302717624Y-139252338D03*
D16*
X152846749Y-162100650D03*
D17*
X160346020Y-159032522D03*
D18*
X157831441Y-164425053D03*
D17*
X163947798Y-163139488D03*
D16*
X162816133Y-166749456D03*
D21*
X157377862Y-157648447D03*
X166915956Y-164523565D03*
D16*
X266459749Y-139167639D03*
D17*
X268929865Y-131450709D03*
D18*
X271444444Y-136843240D03*
D17*
X274391164Y-131331494D03*
D16*
X276429139Y-134518841D03*
D19*
X265961706Y-132834785D03*
X277359324Y-129947420D03*
D15*
X129785317Y-108922052D03*
X131179959Y-105931236D03*
D16*
X160897619Y-144835489D03*
D17*
X168396890Y-141767361D03*
D18*
X165882311Y-147159892D03*
D17*
X171998668Y-145874327D03*
D16*
X170867003Y-149484295D03*
D21*
X165428732Y-140383286D03*
X174966826Y-147258404D03*
D20*
X343502708Y-136563937D03*
X342108066Y-133573121D03*
D16*
X265889333Y-189084561D03*
D17*
X265147835Y-181015936D03*
D18*
X269569550Y-184997263D03*
D17*
X270128410Y-178772298D03*
D16*
X273249767Y-180909965D03*
D24*
X262956433Y-183449736D03*
X272319813Y-176338502D03*
D15*
X121734438Y-126187218D03*
X123129080Y-123196402D03*
D16*
X292939199Y-105800723D03*
D17*
X295409315Y-98083793D03*
D18*
X297923894Y-103476324D03*
D17*
X300870614Y-97964578D03*
D16*
X302908589Y-101151925D03*
D19*
X292441156Y-99467869D03*
X303838774Y-96580504D03*
D16*
X89089951Y-118522977D03*
D17*
X96589222Y-115454849D03*
D18*
X94074643Y-120847380D03*
D17*
X100191000Y-119561815D03*
D16*
X99059335Y-123171783D03*
D21*
X93621064Y-114070774D03*
X103159158Y-120945892D03*
D15*
X116767467Y-91762779D03*
X118162109Y-88771963D03*
D16*
X126260434Y-83886758D03*
D17*
X133759705Y-80818630D03*
D18*
X131245126Y-86211161D03*
D17*
X137361483Y-84925596D03*
D16*
X136229818Y-88535564D03*
D21*
X130791547Y-79434555D03*
X140329641Y-86309673D03*
D16*
X81039072Y-135788137D03*
D17*
X88538343Y-132720009D03*
D18*
X86023764Y-138112540D03*
D17*
X92140121Y-136826975D03*
D16*
X91008456Y-140436943D03*
D21*
X85570185Y-131335934D03*
X95108279Y-138211052D03*
D16*
X102107804Y-135682248D03*
D17*
X109607075Y-132614120D03*
D18*
X107092496Y-138006651D03*
D17*
X113208853Y-136721086D03*
D16*
X112077188Y-140331054D03*
D21*
X106638917Y-131230045D03*
X116177011Y-138105163D03*
D15*
X164422502Y-169870782D03*
X165817144Y-166879966D03*
D16*
X250251134Y-149484292D03*
D17*
X252721250Y-141767362D03*
D18*
X255235829Y-147159893D03*
D17*
X258182549Y-141648147D03*
D16*
X260220524Y-144835494D03*
D19*
X249753091Y-143151438D03*
X261150709Y-140264073D03*
D16*
X168948502Y-127570324D03*
D17*
X176447773Y-124502196D03*
D18*
X173933194Y-129894727D03*
D17*
X180049551Y-128609162D03*
D16*
X178917886Y-132219130D03*
D21*
X173479615Y-123118121D03*
X183017709Y-129993239D03*
D20*
X263751017Y-100764315D03*
X262356375Y-97773499D03*
X330484855Y-153723211D03*
X329090213Y-150732395D03*
X336615233Y-76717568D03*
X335220591Y-73726752D03*
D15*
X164315642Y-125023807D03*
X165710284Y-122032991D03*
D25*
X155487887Y-192585418D03*
X157940265Y-190377286D03*
D16*
X147868373Y-180909969D03*
D18*
X151548591Y-184997266D03*
D17*
X155970305Y-181015938D03*
X157681036Y-186203750D03*
D16*
X155228809Y-189084563D03*
D26*
X153778900Y-178582140D03*
X159872441Y-188637549D03*
D15*
X148107026Y-114707159D03*
X149501668Y-111716343D03*
D16*
X339323965Y-115120901D03*
D17*
X341794081Y-107403971D03*
D18*
X344308660Y-112796502D03*
D17*
X347255380Y-107284756D03*
D16*
X349293355Y-110472103D03*
D19*
X338825922Y-108788047D03*
X350223540Y-105900682D03*
D20*
X306332221Y-101927720D03*
X304937579Y-98936904D03*
D15*
X132005271Y-149237489D03*
X133399913Y-146246673D03*
D16*
X160790761Y-99988515D03*
D17*
X168290032Y-96920387D03*
D18*
X165775453Y-102312918D03*
D17*
X171891810Y-101027353D03*
D16*
X170760145Y-104637321D03*
D21*
X165321874Y-95536312D03*
X174859968Y-102411430D03*
D16*
X120429512Y-141467353D03*
D17*
X127928783Y-138399225D03*
D18*
X125414204Y-143791756D03*
D17*
X131530561Y-142506191D03*
D16*
X130398896Y-146116159D03*
D21*
X124960625Y-137015150D03*
X134498719Y-143890268D03*
D20*
X352716991Y-111247899D03*
X351322349Y-108257083D03*
D16*
X94056924Y-152947407D03*
D17*
X101556195Y-149879279D03*
D18*
X99041616Y-155271810D03*
D17*
X105157973Y-153986245D03*
D16*
X104026308Y-157596213D03*
D21*
X98588037Y-148495204D03*
X108126131Y-155370322D03*
D20*
X327400946Y-102033617D03*
X326006304Y-99042801D03*
X279959634Y-90447663D03*
X278564992Y-87456847D03*
D16*
X136638129Y-151784004D03*
D17*
X144137400Y-148715876D03*
D18*
X141622821Y-154108407D03*
D17*
X147739178Y-152822842D03*
D16*
X146607513Y-156432810D03*
D21*
X141169242Y-147331801D03*
X150707336Y-154206919D03*
D16*
X105191705Y-83992651D03*
D17*
X112690976Y-80924523D03*
D18*
X110176397Y-86317054D03*
D17*
X116292754Y-85031489D03*
D16*
X115161089Y-88641457D03*
D21*
X109722818Y-79540448D03*
X119260912Y-86415566D03*
D16*
X298770123Y-163381321D03*
D17*
X301240239Y-155664391D03*
D18*
X303754818Y-161056922D03*
D17*
X306701538Y-155545176D03*
D16*
X308739513Y-158732523D03*
D19*
X298272080Y-157048467D03*
X309669698Y-154161102D03*
D16*
X282561507Y-173697969D03*
D17*
X285031623Y-165981039D03*
D18*
X287546202Y-171373570D03*
D17*
X290492922Y-165861824D03*
D16*
X292530897Y-169049171D03*
D19*
X282063464Y-167365115D03*
X293461082Y-164477750D03*
D16*
X234149378Y-114953965D03*
D17*
X236619494Y-107237035D03*
D18*
X239134073Y-112629566D03*
D17*
X242080793Y-107117820D03*
D16*
X244118768Y-110305167D03*
D19*
X233651335Y-108621111D03*
X245048953Y-105733746D03*
D16*
X258408869Y-121902476D03*
D17*
X260878985Y-114185546D03*
D18*
X263393564Y-119578077D03*
D17*
X266340284Y-114066331D03*
D16*
X268378259Y-117253678D03*
D19*
X257910826Y-115569622D03*
X269308444Y-112682257D03*
D16*
X331273091Y-97855737D03*
D17*
X333743207Y-90138807D03*
D18*
X336257786Y-95531338D03*
D17*
X339204506Y-90019592D03*
D16*
X341242481Y-93206939D03*
D19*
X330775048Y-91522883D03*
X342172666Y-88635518D03*
D16*
X309040957Y-140331048D03*
D17*
X311511073Y-132614118D03*
D18*
X314025652Y-138006649D03*
D17*
X316972372Y-132494903D03*
D16*
X319010347Y-135682250D03*
D19*
X308542914Y-133998194D03*
X319940532Y-131110829D03*
D16*
X322058802Y-123171776D03*
D17*
X324528918Y-115454846D03*
D18*
X327043497Y-120847377D03*
D17*
X329990217Y-115335631D03*
D16*
X332028192Y-118522978D03*
D19*
X321560759Y-116838922D03*
X332958377Y-113951557D03*
D15*
X100665711Y-126293106D03*
X102060353Y-123302290D03*
D16*
X163829833Y-201564643D03*
D17*
X164922387Y-193536019D03*
D18*
X168335168Y-198409974D03*
D17*
X170280017Y-192470272D03*
D16*
X172840503Y-195255305D03*
D27*
X162239668Y-195414481D03*
X172962743Y-190591807D03*
D16*
X128480386Y-124202191D03*
D17*
X135979657Y-121134063D03*
D18*
X133465078Y-126526594D03*
D17*
X139581435Y-125241029D03*
D16*
X138449770Y-128850997D03*
D21*
X133011499Y-119749988D03*
X142549593Y-126625106D03*
D15*
X148213884Y-159554132D03*
X149608526Y-156563316D03*
D20*
X319350072Y-84768450D03*
X317955430Y-81777634D03*
D16*
X176999381Y-110305158D03*
D17*
X184498652Y-107237030D03*
D18*
X181984073Y-112629561D03*
D17*
X188100430Y-111343996D03*
D16*
X186968765Y-114953964D03*
D21*
X181530494Y-105852955D03*
X191068588Y-112728073D03*
D20*
X298281341Y-84662555D03*
X296886699Y-81671739D03*
X335451828Y-119298776D03*
X334057186Y-116307960D03*
D15*
X156264767Y-142288968D03*
X157659409Y-139298152D03*
D16*
X314007926Y-105906614D03*
D17*
X316478042Y-98189684D03*
D18*
X318992621Y-103582215D03*
D17*
X321939341Y-98070469D03*
D16*
X323977316Y-101257816D03*
D19*
X313509883Y-99573760D03*
X324907501Y-96686395D03*
D20*
X247542397Y-111080961D03*
X246147755Y-108090145D03*
D15*
X92614838Y-143558272D03*
X94009480Y-140567456D03*
D16*
X330109684Y-140436942D03*
D17*
X332579800Y-132720012D03*
D18*
X335094379Y-138112543D03*
D17*
X338041099Y-132600797D03*
D16*
X340079074Y-135788144D03*
D19*
X329611641Y-134104088D03*
X341009259Y-131216723D03*
D16*
X248277638Y-195255307D03*
D18*
X252782974Y-198409976D03*
D17*
X256195755Y-193536021D03*
X259029647Y-198206039D03*
D16*
X257288310Y-201564645D03*
D28*
X253513031Y-191657557D03*
X261712367Y-200084501D03*
D16*
X144689009Y-134518836D03*
D17*
X152188280Y-131450708D03*
D18*
X149673701Y-136843239D03*
D17*
X155790058Y-135557674D03*
D16*
X154658393Y-139167642D03*
D21*
X149220122Y-130066633D03*
X158758216Y-136941751D03*
D16*
X63773909Y-127737265D03*
D17*
X71273180Y-124669137D03*
D18*
X68758601Y-130061668D03*
D17*
X74874958Y-128776103D03*
D16*
X73743293Y-132386071D03*
D21*
X68305022Y-123285062D03*
X77843116Y-130160180D03*
D16*
X152739882Y-117253672D03*
D17*
X160239153Y-114185544D03*
D18*
X157724574Y-119578075D03*
D17*
X163840931Y-118292510D03*
D16*
X162709266Y-121902478D03*
D21*
X157270995Y-112801469D03*
X166809089Y-119676587D03*
D29*
X276704370Y-180286372D03*
X274251990Y-178078238D03*
D16*
X284888321Y-88535559D03*
D17*
X287358437Y-80818629D03*
D18*
X289873016Y-86211160D03*
D17*
X292819736Y-80699414D03*
D16*
X294857711Y-83886761D03*
D19*
X284390278Y-82202705D03*
X295787896Y-79315340D03*
D16*
X112378631Y-158732521D03*
D17*
X119877902Y-155664393D03*
D18*
X117363323Y-161056924D03*
D17*
X123479680Y-159771359D03*
D16*
X122348015Y-163381327D03*
D21*
X116909744Y-154280318D03*
X126447838Y-161155436D03*
D16*
X347374843Y-132386063D03*
D17*
X349844959Y-124669133D03*
D18*
X352359538Y-130061664D03*
D17*
X355306258Y-124549918D03*
D16*
X357344233Y-127737265D03*
D19*
X346876800Y-126053209D03*
X358274418Y-123165844D03*
D20*
X271695036Y-162876452D03*
X270300394Y-159885636D03*
D16*
X79875667Y-93206935D03*
D17*
X87374938Y-90138807D03*
D18*
X84860359Y-95531338D03*
D17*
X90976716Y-94245773D03*
D16*
X89845051Y-97855741D03*
D21*
X84406780Y-88754732D03*
X93944874Y-95629850D03*
D16*
X317091834Y-157596212D03*
D17*
X319561950Y-149879282D03*
D18*
X322076529Y-155271813D03*
D17*
X325023249Y-149760067D03*
D16*
X327061224Y-152947414D03*
D19*
X316593791Y-151263358D03*
X327991409Y-148375993D03*
D15*
X91451424Y-100977066D03*
X92846066Y-97986250D03*
D16*
X266566607Y-94320670D03*
D17*
X269036723Y-86603740D03*
D18*
X271551302Y-91996271D03*
D17*
X274498022Y-86484525D03*
D16*
X276535997Y-89671872D03*
D19*
X266068564Y-87987816D03*
X277466182Y-85100451D03*
%LPD*%
M02*
