%TF.GenerationSoftware,KiCad,Pcbnew,8.0.7*%
%TF.CreationDate,2024-12-23T04:44:47-05:00*%
%TF.ProjectId,mx,6d782e6b-6963-4616-945f-706362585858,v1.0.0*%
%TF.SameCoordinates,Original*%
%TF.FileFunction,Soldermask,Bot*%
%TF.FilePolarity,Negative*%
%FSLAX46Y46*%
G04 Gerber Fmt 4.6, Leading zero omitted, Abs format (unit mm)*
G04 Created by KiCad (PCBNEW 8.0.7) date 2024-12-23 04:44:47*
%MOMM*%
%LPD*%
G01*
G04 APERTURE LIST*
G04 Aperture macros list*
%AMRotRect*
0 Rectangle, with rotation*
0 The origin of the aperture is its center*
0 $1 length*
0 $2 width*
0 $3 Rotation angle, in degrees counterclockwise*
0 Add horizontal line*
21,1,$1,$2,0,0,$3*%
G04 Aperture macros list end*
%ADD10C,0.700000*%
%ADD11C,4.400000*%
%ADD12C,1.700000*%
%ADD13RotRect,0.900000X1.200000X65.000000*%
%ADD14C,1.900000*%
%ADD15C,3.000000*%
%ADD16C,3.400000*%
%ADD17RotRect,2.600000X2.600000X25.000000*%
%ADD18RotRect,0.900000X1.200000X115.000000*%
%ADD19RotRect,2.600000X2.600000X335.000000*%
%ADD20RotRect,0.900000X1.200000X55.000000*%
%ADD21RotRect,0.900000X1.200000X125.000000*%
%ADD22RotRect,2.600000X2.600000X48.000000*%
%ADD23RotRect,0.900000X1.200000X42.000000*%
%ADD24RotRect,2.600000X2.600000X312.000000*%
%ADD25RotRect,2.600000X2.600000X35.000000*%
%ADD26RotRect,2.600000X2.600000X325.000000*%
%ADD27RotRect,0.900000X1.200000X138.000000*%
G04 APERTURE END LIST*
D10*
X96022972Y-90226875D03*
X95967885Y-91488529D03*
X96954047Y-89373701D03*
X96821059Y-92419604D03*
D11*
X97518380Y-90924196D03*
D10*
X98215701Y-89428788D03*
X98082713Y-92474691D03*
X99068875Y-90359863D03*
X99013788Y-91621517D03*
X250296683Y-117934030D03*
X250241596Y-116672377D03*
X251227759Y-118787204D03*
X251094770Y-115741301D03*
D11*
X251792091Y-117236709D03*
D10*
X252489412Y-118732117D03*
X252356423Y-115686214D03*
X253342586Y-117801041D03*
X253287499Y-116539388D03*
D12*
X218049070Y-131824890D03*
X218049070Y-134364887D03*
X218049071Y-136904891D03*
X218049070Y-139444889D03*
X218049070Y-141984887D03*
X218049071Y-144524889D03*
X218049070Y-147064888D03*
X218049069Y-149604889D03*
X218049070Y-152144891D03*
X218049070Y-154684889D03*
X218049071Y-157224888D03*
X218049070Y-159764891D03*
X218049069Y-162304889D03*
X202809070Y-162304888D03*
X202809070Y-159764891D03*
X202809069Y-157224887D03*
X202809070Y-154684889D03*
X202809070Y-152144891D03*
X202809069Y-149604889D03*
X202809070Y-147064890D03*
X202809071Y-144524889D03*
X202809070Y-141984887D03*
X202809070Y-139444889D03*
X202809069Y-136904890D03*
X202809070Y-134364887D03*
X202809071Y-131824889D03*
D10*
X338206112Y-126151843D03*
X338151025Y-124890190D03*
X339137188Y-127005017D03*
X339004199Y-123959114D03*
D11*
X339701520Y-125454522D03*
D10*
X340398841Y-126949930D03*
X340265852Y-123904027D03*
X341252015Y-126018854D03*
X341196928Y-124757201D03*
X274449323Y-169729518D03*
X274394236Y-168467865D03*
X275380399Y-170582692D03*
X275247410Y-167536789D03*
D11*
X275944731Y-169032197D03*
D10*
X276642052Y-170527605D03*
X276509063Y-167481702D03*
X277495226Y-169596529D03*
X277440139Y-168334876D03*
D12*
X207309072Y-167159890D03*
X213809072Y-167159894D03*
D10*
X144734551Y-166069106D03*
X144679464Y-167330760D03*
X145665626Y-165215932D03*
X145532638Y-168261835D03*
D11*
X146229959Y-166766427D03*
D10*
X146927280Y-165271019D03*
X146794292Y-168316922D03*
X147780454Y-166202094D03*
X147725367Y-167463748D03*
X322104360Y-91621517D03*
X322049273Y-90359864D03*
X323035436Y-92474691D03*
X322902447Y-89428788D03*
D11*
X323599768Y-90924196D03*
D10*
X324297089Y-92419604D03*
X324164100Y-89373701D03*
X325150263Y-91488528D03*
X325095176Y-90226875D03*
X79921216Y-124757204D03*
X79866129Y-126018858D03*
X80852291Y-123904030D03*
X80719303Y-126949933D03*
D11*
X81416624Y-125454525D03*
D10*
X82113945Y-123959117D03*
X81980957Y-127005020D03*
X82967119Y-124890192D03*
X82912032Y-126151846D03*
X168887188Y-114273616D03*
X168832101Y-115535270D03*
X169818263Y-113420442D03*
X169685275Y-116466345D03*
D11*
X170382596Y-114970937D03*
D10*
X171079917Y-113475529D03*
X170946929Y-116521432D03*
X171933091Y-114406604D03*
X171878004Y-115668258D03*
D13*
X172366520Y-107758646D03*
X173761162Y-104767830D03*
D14*
X242200257Y-132219129D03*
D15*
X244670373Y-124502199D03*
D16*
X247184952Y-129894730D03*
D15*
X250131672Y-124382984D03*
D14*
X252169647Y-127570331D03*
D17*
X241702214Y-125886275D03*
X253099832Y-122998910D03*
D14*
X305957048Y-88641452D03*
D15*
X308427164Y-80924522D03*
D16*
X310941743Y-86317053D03*
D15*
X313888463Y-80805307D03*
D14*
X315926438Y-83992654D03*
D17*
X305459005Y-82308598D03*
X316856623Y-79421233D03*
D13*
X113683559Y-143452377D03*
X115078201Y-140461561D03*
D18*
X288010512Y-107712829D03*
X286615870Y-104722013D03*
D14*
X136531264Y-106937027D03*
D15*
X144030535Y-103868899D03*
D16*
X141515956Y-109261430D03*
D15*
X147632313Y-107975865D03*
D14*
X146500648Y-111585833D03*
D19*
X141062377Y-102484824D03*
X150600471Y-109359942D03*
D18*
X344666116Y-93982733D03*
X343271474Y-90991917D03*
D13*
X188575140Y-118075294D03*
X189969782Y-115084478D03*
X123954393Y-166502648D03*
X125349035Y-163511832D03*
D14*
X323222215Y-80590574D03*
D15*
X325692331Y-72873644D03*
D16*
X328206910Y-78266175D03*
D15*
X331153630Y-72754429D03*
D14*
X333191605Y-75941776D03*
D17*
X322724172Y-74257720D03*
X334121790Y-71370355D03*
D14*
X274510628Y-156432806D03*
D15*
X276980744Y-148715876D03*
D16*
X279495323Y-154108407D03*
D15*
X282442043Y-148596661D03*
D14*
X284480018Y-151784008D03*
D17*
X274012585Y-150099952D03*
X285410203Y-147212587D03*
D18*
X255593273Y-128346121D03*
X254198631Y-125355305D03*
X314383100Y-119192883D03*
X312988458Y-116202067D03*
D14*
X282668365Y-128850993D03*
D15*
X285138481Y-121134063D03*
D16*
X287653060Y-126526594D03*
D15*
X290599780Y-121014848D03*
D14*
X292637755Y-124202195D03*
D17*
X282170322Y-122518139D03*
X293567940Y-119630774D03*
D14*
X110158681Y-118417082D03*
D15*
X117657952Y-115348954D03*
D16*
X115143373Y-120741485D03*
D15*
X121259730Y-119455920D03*
D14*
X120128065Y-123065888D03*
D19*
X114689794Y-113964879D03*
X124227888Y-120839997D03*
D13*
X105632682Y-160717542D03*
X107027324Y-157726726D03*
X108716588Y-109027947D03*
X110111230Y-106037131D03*
D14*
X290719247Y-146116158D03*
D15*
X293189363Y-138399228D03*
D16*
X295703942Y-143791759D03*
D15*
X298650662Y-138280013D03*
D14*
X300688637Y-141467360D03*
D17*
X290221204Y-139783304D03*
X301618822Y-136895939D03*
D20*
X258328267Y-204917500D03*
X260221069Y-202214296D03*
D14*
X97140828Y-101257816D03*
D15*
X104640099Y-98189688D03*
D16*
X102125520Y-103582219D03*
D15*
X108241877Y-102296654D03*
D14*
X107110212Y-105906622D03*
D19*
X101671941Y-96805613D03*
X111210035Y-103680731D03*
D18*
X287903652Y-152559803D03*
X286509010Y-149568987D03*
D13*
X172473378Y-152605624D03*
X173868020Y-149614808D03*
X156157903Y-97441999D03*
X157552545Y-94451183D03*
X140163011Y-176819299D03*
X141557653Y-173828483D03*
X180524261Y-135340458D03*
X181918903Y-132349642D03*
D14*
X144582145Y-89671866D03*
D15*
X152081416Y-86603738D03*
D16*
X149566837Y-91996269D03*
D15*
X155683194Y-90710704D03*
D14*
X154551529Y-94320672D03*
D19*
X149113258Y-85219663D03*
X158651352Y-92094781D03*
D14*
X128587252Y-169049165D03*
D15*
X136086523Y-165981037D03*
D16*
X133571944Y-171373568D03*
D15*
X139688301Y-170088003D03*
D14*
X138556636Y-173697971D03*
D19*
X133118365Y-164596962D03*
X142656459Y-171472080D03*
D18*
X322433980Y-136458048D03*
X321039338Y-133467232D03*
D14*
X71824786Y-110472095D03*
D15*
X79324057Y-107403967D03*
D16*
X76809478Y-112796498D03*
D15*
X82925835Y-111510933D03*
D14*
X81794170Y-115120901D03*
D19*
X76355899Y-106019892D03*
X85893993Y-112895010D03*
D14*
X250357997Y-104637319D03*
D15*
X252828113Y-96920389D03*
D16*
X255342692Y-102312920D03*
D15*
X258289412Y-96801174D03*
D14*
X260327387Y-99988521D03*
D17*
X249859954Y-98304465D03*
X261257572Y-95417100D03*
D18*
X279852768Y-135294636D03*
X278458126Y-132303820D03*
X360767863Y-128513062D03*
X359373221Y-125522246D03*
X295954526Y-169824965D03*
X294559884Y-166834149D03*
D21*
X176346840Y-195424812D03*
X174454038Y-192721608D03*
D14*
X274617487Y-111585829D03*
D15*
X277087603Y-103868899D03*
D16*
X279602182Y-109261430D03*
D15*
X282548902Y-103749684D03*
D14*
X284586877Y-106937031D03*
D17*
X274119444Y-105252975D03*
X285517062Y-102365610D03*
D18*
X263644154Y-145611287D03*
X262249512Y-142620471D03*
X312163148Y-159508319D03*
X310768506Y-156517503D03*
D13*
X99502301Y-83711902D03*
X100896943Y-80721086D03*
D14*
X118209559Y-101151920D03*
D15*
X125708830Y-98083792D03*
D16*
X123194251Y-103476323D03*
D15*
X129310608Y-102190758D03*
D14*
X128178943Y-105800726D03*
D19*
X122740672Y-96699717D03*
X132278766Y-103574835D03*
D13*
X137836191Y-91656883D03*
X139230833Y-88666067D03*
X83400548Y-118242232D03*
X84795190Y-115251416D03*
D18*
X296061387Y-124977990D03*
X294666745Y-121987174D03*
D13*
X75349670Y-135507394D03*
X76744312Y-132516578D03*
D18*
X271801895Y-118029476D03*
X270407253Y-115038660D03*
D13*
X140056146Y-131972324D03*
X141450788Y-128981508D03*
D14*
X258302013Y-166749453D03*
D15*
X260772129Y-159032523D03*
D16*
X263286708Y-164425054D03*
D15*
X266233428Y-158913308D03*
D14*
X268271403Y-162100655D03*
D17*
X257803970Y-160416599D03*
X269201588Y-157529234D03*
D14*
X87926542Y-75941772D03*
D15*
X95425813Y-72873644D03*
D16*
X92911234Y-78266175D03*
D15*
X99027591Y-76980610D03*
D14*
X97895926Y-80590578D03*
D19*
X92457655Y-71489569D03*
X101995749Y-78364687D03*
D14*
X300990076Y-123065887D03*
D15*
X303460192Y-115348957D03*
D16*
X305974771Y-120741488D03*
D15*
X308921491Y-115229742D03*
D14*
X310959466Y-118417089D03*
D17*
X300492033Y-116733033D03*
X311889651Y-113845668D03*
D18*
X304112266Y-142243154D03*
X302717624Y-139252338D03*
D14*
X152846749Y-162100650D03*
D15*
X160346020Y-159032522D03*
D16*
X157831441Y-164425053D03*
D15*
X163947798Y-163139488D03*
D14*
X162816133Y-166749456D03*
D19*
X157377862Y-157648447D03*
X166915956Y-164523565D03*
D14*
X266459749Y-139167639D03*
D15*
X268929865Y-131450709D03*
D16*
X271444444Y-136843240D03*
D15*
X274391164Y-131331494D03*
D14*
X276429139Y-134518841D03*
D17*
X265961706Y-132834785D03*
X277359324Y-129947420D03*
D13*
X129785317Y-108922052D03*
X131179959Y-105931236D03*
D14*
X160897619Y-144835489D03*
D15*
X168396890Y-141767361D03*
D16*
X165882311Y-147159892D03*
D15*
X171998668Y-145874327D03*
D14*
X170867003Y-149484295D03*
D19*
X165428732Y-140383286D03*
X174966826Y-147258404D03*
D18*
X343502708Y-136563937D03*
X342108066Y-133573121D03*
D14*
X265889333Y-189084561D03*
D15*
X265147835Y-181015936D03*
D16*
X269569550Y-184997263D03*
D15*
X270128410Y-178772298D03*
D14*
X273249767Y-180909965D03*
D22*
X262956433Y-183449736D03*
X272319813Y-176338502D03*
D13*
X121734438Y-126187218D03*
X123129080Y-123196402D03*
D14*
X292939199Y-105800723D03*
D15*
X295409315Y-98083793D03*
D16*
X297923894Y-103476324D03*
D15*
X300870614Y-97964578D03*
D14*
X302908589Y-101151925D03*
D17*
X292441156Y-99467869D03*
X303838774Y-96580504D03*
D14*
X89089951Y-118522977D03*
D15*
X96589222Y-115454849D03*
D16*
X94074643Y-120847380D03*
D15*
X100191000Y-119561815D03*
D14*
X99059335Y-123171783D03*
D19*
X93621064Y-114070774D03*
X103159158Y-120945892D03*
D13*
X116767467Y-91762779D03*
X118162109Y-88771963D03*
D14*
X126260434Y-83886758D03*
D15*
X133759705Y-80818630D03*
D16*
X131245126Y-86211161D03*
D15*
X137361483Y-84925596D03*
D14*
X136229818Y-88535564D03*
D19*
X130791547Y-79434555D03*
X140329641Y-86309673D03*
D14*
X81039072Y-135788137D03*
D15*
X88538343Y-132720009D03*
D16*
X86023764Y-138112540D03*
D15*
X92140121Y-136826975D03*
D14*
X91008456Y-140436943D03*
D19*
X85570185Y-131335934D03*
X95108279Y-138211052D03*
D14*
X102107804Y-135682248D03*
D15*
X109607075Y-132614120D03*
D16*
X107092496Y-138006651D03*
D15*
X113208853Y-136721086D03*
D14*
X112077188Y-140331054D03*
D19*
X106638917Y-131230045D03*
X116177011Y-138105163D03*
D13*
X164422502Y-169870782D03*
X165817144Y-166879966D03*
D14*
X250251134Y-149484292D03*
D15*
X252721250Y-141767362D03*
D16*
X255235829Y-147159893D03*
D15*
X258182549Y-141648147D03*
D14*
X260220524Y-144835494D03*
D17*
X249753091Y-143151438D03*
X261150709Y-140264073D03*
D14*
X168948502Y-127570324D03*
D15*
X176447773Y-124502196D03*
D16*
X173933194Y-129894727D03*
D15*
X180049551Y-128609162D03*
D14*
X178917886Y-132219130D03*
D19*
X173479615Y-123118121D03*
X183017709Y-129993239D03*
D18*
X263751017Y-100764315D03*
X262356375Y-97773499D03*
X330484855Y-153723211D03*
X329090213Y-150732395D03*
X336615233Y-76717568D03*
X335220591Y-73726752D03*
D13*
X164315642Y-125023807D03*
X165710284Y-122032991D03*
D23*
X155487887Y-192585418D03*
X157940265Y-190377286D03*
D14*
X147868373Y-180909969D03*
D16*
X151548591Y-184997266D03*
D15*
X155970305Y-181015938D03*
X157681036Y-186203750D03*
D14*
X155228809Y-189084563D03*
D24*
X153778900Y-178582140D03*
X159872441Y-188637549D03*
D13*
X148107026Y-114707159D03*
X149501668Y-111716343D03*
D14*
X339323965Y-115120901D03*
D15*
X341794081Y-107403971D03*
D16*
X344308660Y-112796502D03*
D15*
X347255380Y-107284756D03*
D14*
X349293355Y-110472103D03*
D17*
X338825922Y-108788047D03*
X350223540Y-105900682D03*
D18*
X306332221Y-101927720D03*
X304937579Y-98936904D03*
D13*
X132005271Y-149237489D03*
X133399913Y-146246673D03*
D14*
X160790761Y-99988515D03*
D15*
X168290032Y-96920387D03*
D16*
X165775453Y-102312918D03*
D15*
X171891810Y-101027353D03*
D14*
X170760145Y-104637321D03*
D19*
X165321874Y-95536312D03*
X174859968Y-102411430D03*
D14*
X120429512Y-141467353D03*
D15*
X127928783Y-138399225D03*
D16*
X125414204Y-143791756D03*
D15*
X131530561Y-142506191D03*
D14*
X130398896Y-146116159D03*
D19*
X124960625Y-137015150D03*
X134498719Y-143890268D03*
D18*
X352716991Y-111247899D03*
X351322349Y-108257083D03*
D14*
X94056924Y-152947407D03*
D15*
X101556195Y-149879279D03*
D16*
X99041616Y-155271810D03*
D15*
X105157973Y-153986245D03*
D14*
X104026308Y-157596213D03*
D19*
X98588037Y-148495204D03*
X108126131Y-155370322D03*
D18*
X327400946Y-102033617D03*
X326006304Y-99042801D03*
X279959634Y-90447663D03*
X278564992Y-87456847D03*
D14*
X136638129Y-151784004D03*
D15*
X144137400Y-148715876D03*
D16*
X141622821Y-154108407D03*
D15*
X147739178Y-152822842D03*
D14*
X146607513Y-156432810D03*
D19*
X141169242Y-147331801D03*
X150707336Y-154206919D03*
D14*
X105191705Y-83992651D03*
D15*
X112690976Y-80924523D03*
D16*
X110176397Y-86317054D03*
D15*
X116292754Y-85031489D03*
D14*
X115161089Y-88641457D03*
D19*
X109722818Y-79540448D03*
X119260912Y-86415566D03*
D14*
X298770123Y-163381321D03*
D15*
X301240239Y-155664391D03*
D16*
X303754818Y-161056922D03*
D15*
X306701538Y-155545176D03*
D14*
X308739513Y-158732523D03*
D17*
X298272080Y-157048467D03*
X309669698Y-154161102D03*
D14*
X282561507Y-173697969D03*
D15*
X285031623Y-165981039D03*
D16*
X287546202Y-171373570D03*
D15*
X290492922Y-165861824D03*
D14*
X292530897Y-169049171D03*
D17*
X282063464Y-167365115D03*
X293461082Y-164477750D03*
D14*
X234149378Y-114953965D03*
D15*
X236619494Y-107237035D03*
D16*
X239134073Y-112629566D03*
D15*
X242080793Y-107117820D03*
D14*
X244118768Y-110305167D03*
D17*
X233651335Y-108621111D03*
X245048953Y-105733746D03*
D14*
X258408869Y-121902476D03*
D15*
X260878985Y-114185546D03*
D16*
X263393564Y-119578077D03*
D15*
X266340284Y-114066331D03*
D14*
X268378259Y-117253678D03*
D17*
X257910826Y-115569622D03*
X269308444Y-112682257D03*
D14*
X331273091Y-97855737D03*
D15*
X333743207Y-90138807D03*
D16*
X336257786Y-95531338D03*
D15*
X339204506Y-90019592D03*
D14*
X341242481Y-93206939D03*
D17*
X330775048Y-91522883D03*
X342172666Y-88635518D03*
D14*
X309040957Y-140331048D03*
D15*
X311511073Y-132614118D03*
D16*
X314025652Y-138006649D03*
D15*
X316972372Y-132494903D03*
D14*
X319010347Y-135682250D03*
D17*
X308542914Y-133998194D03*
X319940532Y-131110829D03*
D14*
X322058802Y-123171776D03*
D15*
X324528918Y-115454846D03*
D16*
X327043497Y-120847377D03*
D15*
X329990217Y-115335631D03*
D14*
X332028192Y-118522978D03*
D17*
X321560759Y-116838922D03*
X332958377Y-113951557D03*
D13*
X100665711Y-126293106D03*
X102060353Y-123302290D03*
D14*
X163829833Y-201564643D03*
D15*
X164922387Y-193536019D03*
D16*
X168335168Y-198409974D03*
D15*
X170280017Y-192470272D03*
D14*
X172840503Y-195255305D03*
D25*
X162239668Y-195414481D03*
X172962743Y-190591807D03*
D14*
X128480386Y-124202191D03*
D15*
X135979657Y-121134063D03*
D16*
X133465078Y-126526594D03*
D15*
X139581435Y-125241029D03*
D14*
X138449770Y-128850997D03*
D19*
X133011499Y-119749988D03*
X142549593Y-126625106D03*
D13*
X148213884Y-159554132D03*
X149608526Y-156563316D03*
D18*
X319350072Y-84768450D03*
X317955430Y-81777634D03*
D14*
X176999381Y-110305158D03*
D15*
X184498652Y-107237030D03*
D16*
X181984073Y-112629561D03*
D15*
X188100430Y-111343996D03*
D14*
X186968765Y-114953964D03*
D19*
X181530494Y-105852955D03*
X191068588Y-112728073D03*
D18*
X298281341Y-84662555D03*
X296886699Y-81671739D03*
X335451828Y-119298776D03*
X334057186Y-116307960D03*
D13*
X156264767Y-142288968D03*
X157659409Y-139298152D03*
D14*
X314007926Y-105906614D03*
D15*
X316478042Y-98189684D03*
D16*
X318992621Y-103582215D03*
D15*
X321939341Y-98070469D03*
D14*
X323977316Y-101257816D03*
D17*
X313509883Y-99573760D03*
X324907501Y-96686395D03*
D18*
X247542397Y-111080961D03*
X246147755Y-108090145D03*
D13*
X92614838Y-143558272D03*
X94009480Y-140567456D03*
D14*
X330109684Y-140436942D03*
D15*
X332579800Y-132720012D03*
D16*
X335094379Y-138112543D03*
D15*
X338041099Y-132600797D03*
D14*
X340079074Y-135788144D03*
D17*
X329611641Y-134104088D03*
X341009259Y-131216723D03*
D14*
X248277638Y-195255307D03*
D16*
X252782974Y-198409976D03*
D15*
X256195755Y-193536021D03*
X259029647Y-198206039D03*
D14*
X257288310Y-201564645D03*
D26*
X253513031Y-191657557D03*
X261712367Y-200084501D03*
D14*
X144689009Y-134518836D03*
D15*
X152188280Y-131450708D03*
D16*
X149673701Y-136843239D03*
D15*
X155790058Y-135557674D03*
D14*
X154658393Y-139167642D03*
D19*
X149220122Y-130066633D03*
X158758216Y-136941751D03*
D14*
X63773909Y-127737265D03*
D15*
X71273180Y-124669137D03*
D16*
X68758601Y-130061668D03*
D15*
X74874958Y-128776103D03*
D14*
X73743293Y-132386071D03*
D19*
X68305022Y-123285062D03*
X77843116Y-130160180D03*
D14*
X152739882Y-117253672D03*
D15*
X160239153Y-114185544D03*
D16*
X157724574Y-119578075D03*
D15*
X163840931Y-118292510D03*
D14*
X162709266Y-121902478D03*
D19*
X157270995Y-112801469D03*
X166809089Y-119676587D03*
D27*
X276704370Y-180286372D03*
X274251990Y-178078238D03*
D14*
X284888321Y-88535559D03*
D15*
X287358437Y-80818629D03*
D16*
X289873016Y-86211160D03*
D15*
X292819736Y-80699414D03*
D14*
X294857711Y-83886761D03*
D17*
X284390278Y-82202705D03*
X295787896Y-79315340D03*
D14*
X112378631Y-158732521D03*
D15*
X119877902Y-155664393D03*
D16*
X117363323Y-161056924D03*
D15*
X123479680Y-159771359D03*
D14*
X122348015Y-163381327D03*
D19*
X116909744Y-154280318D03*
X126447838Y-161155436D03*
D14*
X347374843Y-132386063D03*
D15*
X349844959Y-124669133D03*
D16*
X352359538Y-130061664D03*
D15*
X355306258Y-124549918D03*
D14*
X357344233Y-127737265D03*
D17*
X346876800Y-126053209D03*
X358274418Y-123165844D03*
D18*
X271695036Y-162876452D03*
X270300394Y-159885636D03*
D14*
X79875667Y-93206935D03*
D15*
X87374938Y-90138807D03*
D16*
X84860359Y-95531338D03*
D15*
X90976716Y-94245773D03*
D14*
X89845051Y-97855741D03*
D19*
X84406780Y-88754732D03*
X93944874Y-95629850D03*
D14*
X317091834Y-157596212D03*
D15*
X319561950Y-149879282D03*
D16*
X322076529Y-155271813D03*
D15*
X325023249Y-149760067D03*
D14*
X327061224Y-152947414D03*
D17*
X316593791Y-151263358D03*
X327991409Y-148375993D03*
D13*
X91451424Y-100977066D03*
X92846066Y-97986250D03*
D14*
X266566607Y-94320670D03*
D15*
X269036723Y-86603740D03*
D16*
X271551302Y-91996271D03*
D15*
X274498022Y-86484525D03*
D14*
X276535997Y-89671872D03*
D17*
X266068564Y-87987816D03*
X277466182Y-85100451D03*
M02*
