%TF.GenerationSoftware,KiCad,Pcbnew,8.0.7*%
%TF.CreationDate,2024-12-23T04:44:47-05:00*%
%TF.ProjectId,mx,6d782e6b-6963-4616-945f-706362585858,v1.0.0*%
%TF.SameCoordinates,Original*%
%TF.FileFunction,Profile,NP*%
%FSLAX46Y46*%
G04 Gerber Fmt 4.6, Leading zero omitted, Abs format (unit mm)*
G04 Created by KiCad (PCBNEW 8.0.7) date 2024-12-23 04:44:47*
%MOMM*%
%LPD*%
G01*
G04 APERTURE LIST*
%TA.AperFunction,Profile*%
%ADD10C,0.150000*%
%TD*%
G04 APERTURE END LIST*
D10*
X186724987Y-201485811D02*
X234393155Y-201485811D01*
X136275066Y-186752614D02*
X150521764Y-202575171D01*
X164384738Y-216466300D02*
X185004263Y-202028355D01*
X85849769Y-63772865D02*
X53090587Y-134025148D01*
X331940618Y-62103144D02*
G75*
G02*
X335268365Y-63772863I608782J-2937656D01*
G01*
X260871690Y-215785194D02*
X270408265Y-202806209D01*
X228550015Y-119568663D02*
G75*
G02*
X225831093Y-123836485I-2718915J-1267837D01*
G01*
X185004263Y-202028355D02*
G75*
G02*
X186724987Y-201485808I1720637J-2457145D01*
G01*
X82748530Y-161494268D02*
G75*
G02*
X82098494Y-161081665I1269870J2718968D01*
G01*
X295785946Y-69612235D02*
G75*
G02*
X296080407Y-69535440I903354J-2860865D01*
G01*
X53890114Y-137598633D02*
G75*
G02*
X53090580Y-134025145I1919386J2305633D01*
G01*
X254741150Y-86043303D02*
G75*
G02*
X255084157Y-85855224I1611750J-2532597D01*
G01*
X339019655Y-161081668D02*
X367228020Y-137598626D01*
X270408265Y-202806209D02*
G75*
G02*
X270596381Y-202575162I2419335J-1777691D01*
G01*
X223601613Y-108956773D02*
G75*
G02*
X224709675Y-105158072I2718887J1267873D01*
G01*
X166033990Y-85855220D02*
X143686268Y-75434309D01*
X234393155Y-201485811D02*
G75*
G02*
X236113865Y-202028382I-55J-2999989D01*
G01*
X135314983Y-186041785D02*
G75*
G02*
X136275075Y-186752613I-1269683J-2718715D01*
G01*
X150521764Y-202575171D02*
G75*
G02*
X150709874Y-202806216I-2225364J-2003929D01*
G01*
X125037732Y-69535447D02*
G75*
G02*
X125332196Y-69612236I-609032J-2938453D01*
G01*
X196408462Y-105158085D02*
X166376992Y-86043312D01*
X368027549Y-134025149D02*
G75*
G02*
X367228008Y-137598611I-2718849J-1267851D01*
G01*
X225831093Y-123836516D02*
X195287048Y-123836514D01*
X196408462Y-105158085D02*
G75*
G02*
X197516502Y-108956761I-1610862J-2530815D01*
G01*
X285803155Y-186041779D02*
X338369613Y-161494266D01*
X295785946Y-69612235D02*
X277796427Y-75292451D01*
X195287048Y-123836514D02*
G75*
G02*
X192568196Y-119568692I-48J2999914D01*
G01*
X150709878Y-202806213D02*
X160246452Y-215785194D01*
X82748530Y-161494268D02*
X135314983Y-186041785D01*
X223601613Y-108956773D02*
X228550015Y-119568663D01*
X277431873Y-75434306D02*
X255084154Y-85855219D01*
X368027549Y-134025149D02*
X335268367Y-63772862D01*
X236113885Y-202028354D02*
X256733406Y-216466300D01*
X164384738Y-216466300D02*
G75*
G02*
X160246453Y-215785194I-1720738J2457400D01*
G01*
X85849769Y-63772865D02*
G75*
G02*
X89177527Y-62103129I2718931J-1267835D01*
G01*
X284843077Y-186752618D02*
G75*
G02*
X285803152Y-186041772I2229623J-2007582D01*
G01*
X125037732Y-69535447D02*
X89177524Y-62103146D01*
X53890114Y-137598633D02*
X82098487Y-161081669D01*
X254741150Y-86043303D02*
X224709680Y-105158079D01*
X143321711Y-75292450D02*
X125332196Y-69612237D01*
X143321711Y-75292450D02*
G75*
G02*
X143686269Y-75434307I-902911J-2859750D01*
G01*
X270596385Y-202575165D02*
X284843077Y-186752618D01*
X331940618Y-62103144D02*
X296080408Y-69535445D01*
X339019655Y-161081668D02*
G75*
G02*
X338369618Y-161494276I-1919355J2305468D01*
G01*
X260871690Y-215785194D02*
G75*
G02*
X256733438Y-216466255I-2417490J1776194D01*
G01*
X192568125Y-119568659D02*
X197516529Y-108956774D01*
X277431875Y-75434310D02*
G75*
G02*
X277796428Y-75292454I1268325J-2720090D01*
G01*
X166033990Y-85855220D02*
G75*
G02*
X166376994Y-86043309I-1267190J-2717680D01*
G01*
M02*
