%TF.GenerationSoftware,KiCad,Pcbnew,8.0.7*%
%TF.CreationDate,2024-12-23T04:44:47-05:00*%
%TF.ProjectId,mx,6d782e6b-6963-4616-945f-706362585858,v1.0.0*%
%TF.SameCoordinates,Original*%
%TF.FileFunction,Copper,L1,Top*%
%TF.FilePolarity,Positive*%
%FSLAX46Y46*%
G04 Gerber Fmt 4.6, Leading zero omitted, Abs format (unit mm)*
G04 Created by KiCad (PCBNEW 8.0.7) date 2024-12-23 04:44:47*
%MOMM*%
%LPD*%
G01*
G04 APERTURE LIST*
%TA.AperFunction,ComponentPad*%
%ADD10C,0.600000*%
%TD*%
%TA.AperFunction,ComponentPad*%
%ADD11C,0.700000*%
%TD*%
%TA.AperFunction,ComponentPad*%
%ADD12C,4.400000*%
%TD*%
%TA.AperFunction,ComponentPad*%
%ADD13C,1.700000*%
%TD*%
%TA.AperFunction,Conductor*%
%ADD14C,0.250000*%
%TD*%
G04 APERTURE END LIST*
D10*
X336233669Y-120975446D03*
X344284549Y-138240606D03*
X171584677Y-109435315D03*
D11*
X96022972Y-90226875D03*
X95967885Y-91488529D03*
X96954047Y-89373701D03*
X96821059Y-92419604D03*
D12*
X97518380Y-90924196D03*
D11*
X98215701Y-89428788D03*
X98082713Y-92474691D03*
X99068875Y-90359863D03*
X99013788Y-91621517D03*
X250296683Y-117934030D03*
X250241596Y-116672377D03*
X251227759Y-118787204D03*
X251094770Y-115741301D03*
D12*
X251792091Y-117236709D03*
D11*
X252489412Y-118732117D03*
X252356423Y-115686214D03*
X253342586Y-117801041D03*
X253287499Y-116539388D03*
D10*
X280741480Y-92124339D03*
X336892449Y-104641688D03*
X298558558Y-112586675D03*
D13*
X218049070Y-131824890D03*
X218049070Y-134364887D03*
X218049071Y-136904891D03*
X218049070Y-139444889D03*
X218049070Y-141984887D03*
X218049071Y-144524889D03*
X218049070Y-147064888D03*
X218049069Y-149604889D03*
X218049070Y-152144891D03*
X218049070Y-154684889D03*
X218049071Y-157224888D03*
X218049070Y-159764891D03*
X218049069Y-162304889D03*
X202809070Y-162304888D03*
X202809070Y-159764891D03*
X202809069Y-157224887D03*
X202809070Y-154684889D03*
X202809070Y-152144891D03*
X202809069Y-149604889D03*
X202809070Y-147064890D03*
X202809071Y-144524889D03*
X202809070Y-141984887D03*
X202809070Y-139444889D03*
X202809069Y-136904890D03*
X202809070Y-134364887D03*
X202809071Y-131824889D03*
D10*
X337397080Y-78394239D03*
X104850841Y-162394212D03*
X139381167Y-178495965D03*
X179742420Y-137017128D03*
X272476878Y-164553120D03*
X147325177Y-116383834D03*
X177407955Y-196940240D03*
X163640662Y-171547451D03*
X82618709Y-119918899D03*
D11*
X338206112Y-126151843D03*
X338151025Y-124890190D03*
X339137188Y-127005017D03*
X339004199Y-123959114D03*
D12*
X339701520Y-125454522D03*
D11*
X340398841Y-126949930D03*
X340265852Y-123904027D03*
X341252015Y-126018854D03*
X341196928Y-124757201D03*
D10*
X320131912Y-86445115D03*
X171691540Y-154282284D03*
D11*
X274449323Y-169729518D03*
X274394236Y-168467865D03*
X275380399Y-170582692D03*
X275247410Y-167536789D03*
D12*
X275944731Y-169032197D03*
D11*
X276642052Y-170527605D03*
X276509063Y-167481702D03*
X277495226Y-169596529D03*
X277440139Y-168334876D03*
D10*
X151153597Y-125920280D03*
X315164944Y-120869552D03*
X312944989Y-161184988D03*
X272583739Y-119706143D03*
X107934744Y-110704613D03*
X288792354Y-109389497D03*
X307114062Y-103604385D03*
X304894111Y-143919825D03*
X319627285Y-112692564D03*
X288685492Y-154236476D03*
X112901718Y-145129050D03*
X74567827Y-137184059D03*
X264425999Y-147287957D03*
X129003472Y-110598724D03*
X361549707Y-130189734D03*
X139274306Y-133648994D03*
X134944981Y-115603632D03*
X353498830Y-112924568D03*
X299063184Y-86339227D03*
X98720461Y-85388570D03*
X296843235Y-126654661D03*
X120952598Y-127863884D03*
X248324244Y-112757629D03*
X137054351Y-93333560D03*
X155482920Y-143965640D03*
X257267153Y-206432931D03*
X131223425Y-150914154D03*
X90669583Y-102653736D03*
X91832992Y-145234943D03*
X280634617Y-136971309D03*
D13*
X207309072Y-167159890D03*
X213809072Y-167159894D03*
D10*
X345447956Y-95659405D03*
X167362214Y-136236928D03*
X154113071Y-193823305D03*
X163533800Y-126700473D03*
X323215819Y-138134718D03*
X115985624Y-93439450D03*
X99883871Y-127969775D03*
D11*
X144734551Y-166069106D03*
X144679464Y-167330760D03*
X145665626Y-165215932D03*
X145532638Y-168261835D03*
D12*
X146229959Y-166766427D03*
D11*
X146927280Y-165271019D03*
X146794292Y-168316922D03*
X147780454Y-166202094D03*
X147725367Y-167463748D03*
D10*
X264532859Y-102440980D03*
D11*
X322104360Y-91621517D03*
X322049273Y-90359864D03*
X323035436Y-92474691D03*
X322902447Y-89428788D03*
D12*
X323599768Y-90924196D03*
D11*
X324297089Y-92419604D03*
X324164100Y-89373701D03*
X325150263Y-91488528D03*
X325095176Y-90226875D03*
D10*
X331266697Y-155399879D03*
D11*
X79921216Y-124757204D03*
X79866129Y-126018858D03*
X80852291Y-123904030D03*
X80719303Y-126949933D03*
D12*
X81416624Y-125454525D03*
D11*
X82113945Y-123959117D03*
X81980957Y-127005020D03*
X82967119Y-124890192D03*
X82912032Y-126151846D03*
D10*
X123172552Y-168179319D03*
X147432042Y-161230803D03*
X187793297Y-119751960D03*
D11*
X168887188Y-114273616D03*
X168832101Y-115535270D03*
X169818263Y-113420442D03*
X169685275Y-116466345D03*
D12*
X170382596Y-114970937D03*
D11*
X171079917Y-113475529D03*
X170946929Y-116521432D03*
X171933091Y-114406604D03*
X171878004Y-115668258D03*
D10*
X296736372Y-171501634D03*
X256375121Y-130022791D03*
X328182788Y-103710285D03*
X155376060Y-99118667D03*
X278079188Y-181524263D03*
D14*
X263888545Y-125049445D02*
X262917744Y-127716693D01*
X335395569Y-105339693D02*
X330318239Y-103491697D01*
X243380075Y-150824517D02*
X243081484Y-151644891D01*
X243374627Y-150812830D02*
X243380075Y-150824517D01*
X240903528Y-137982093D02*
X240223228Y-139851201D01*
X262917744Y-127716693D02*
X240903528Y-137982093D01*
X220219073Y-151644890D02*
X243081484Y-151644891D01*
X218179069Y-149604890D02*
X220219073Y-151644890D01*
X240223228Y-139851201D02*
X244233874Y-148452064D01*
X330318239Y-103491697D02*
X315191962Y-110545196D01*
X244233874Y-148452064D02*
X243374627Y-150812830D01*
X303847655Y-106416205D02*
X263888545Y-125049445D01*
X315191962Y-110545196D02*
X303847655Y-106416205D01*
X336892449Y-104641688D02*
X335395569Y-105339693D01*
X263316757Y-128082322D02*
X244253851Y-136971501D01*
X319627285Y-112692564D02*
X318748928Y-110808918D01*
X263833587Y-126662339D02*
X263833586Y-126662342D01*
X315240999Y-111096085D02*
X303870114Y-106957422D01*
X241302540Y-138347718D02*
X240763909Y-139827594D01*
X317124645Y-110217725D02*
X315240999Y-111096085D01*
X244774557Y-148428458D02*
X244632887Y-148817689D01*
X263833586Y-126662342D02*
X263316757Y-128082322D01*
X264287554Y-125415071D02*
X263833587Y-126662339D01*
X303870114Y-106957422D02*
X264287554Y-125415071D01*
X244638336Y-148829376D02*
X243435759Y-152133434D01*
X244632887Y-148817689D02*
X244638336Y-148829376D01*
X240763909Y-139827594D02*
X244774557Y-148428458D01*
X243435759Y-152133434D02*
X243411190Y-152144891D01*
X244253851Y-136971501D02*
X241302540Y-138347718D01*
X218179071Y-152144891D02*
X243411190Y-152144891D01*
X318748928Y-110808918D02*
X317124645Y-110217725D01*
X263989684Y-128320216D02*
X241701551Y-138713346D01*
X298558558Y-112586675D02*
X297747817Y-110848033D01*
X241304590Y-139803987D02*
X245320687Y-148416537D01*
X245320687Y-148416537D02*
X243782339Y-152643109D01*
X220219070Y-152644889D02*
X218179070Y-154684888D01*
X241701551Y-138713346D02*
X241304590Y-139803987D01*
X297747817Y-110848033D02*
X297164820Y-110635841D01*
X243778521Y-152644892D02*
X220219070Y-152644889D01*
X297164820Y-110635841D02*
X264960483Y-125652969D01*
X264960483Y-125652969D02*
X263989684Y-128320216D01*
X243782339Y-152643109D02*
X243778521Y-152644892D01*
X202939071Y-149604889D02*
X200899068Y-151644891D01*
X171251906Y-134026742D02*
X180230198Y-138213389D01*
X170598927Y-132232691D02*
X171251906Y-134026742D01*
X136270011Y-116224858D02*
X170598927Y-132232691D01*
X134944981Y-115603632D02*
X136268542Y-116220819D01*
X178236421Y-151640665D02*
X178245485Y-151644893D01*
X180230197Y-138213387D02*
X181277766Y-141091558D01*
X180230198Y-138213389D02*
X181277765Y-141091557D01*
X136268542Y-116220819D02*
X136270011Y-116224858D01*
X200899068Y-151644891D02*
X178245485Y-151644893D01*
X177413255Y-149379031D02*
X178236421Y-151640665D01*
X181277765Y-141091557D02*
X177413255Y-149379031D01*
X152716640Y-124445735D02*
X170199916Y-132598319D01*
X202939071Y-152144890D02*
X177885678Y-152144889D01*
X170352117Y-133016493D02*
X170852894Y-134392369D01*
X170852894Y-134392369D02*
X179831187Y-138579016D01*
X180737084Y-141067951D02*
X176871351Y-149358046D01*
X179831187Y-138579016D02*
X180737084Y-141067951D01*
X176871351Y-149358046D02*
X177885678Y-152144889D01*
X151153597Y-125920280D02*
X151662233Y-124829508D01*
X170352118Y-133016493D02*
X170352117Y-133016493D01*
X151662233Y-124829508D02*
X152716640Y-124445735D01*
X170199916Y-132598319D02*
X170352118Y-133016493D01*
X179432175Y-138944642D02*
X180196404Y-141044344D01*
X169879690Y-134490245D02*
X179432175Y-138944642D01*
X167362214Y-136236928D02*
X167828588Y-135236786D01*
X180196404Y-141044344D02*
X176329447Y-149337063D01*
X167828588Y-135236786D02*
X169879690Y-134490245D01*
X176329447Y-149337063D02*
X177533398Y-152644889D01*
X202939070Y-154684889D02*
X200899072Y-152644890D01*
X200899072Y-152644890D02*
X177533398Y-152644889D01*
X139474899Y-157520329D02*
X138265675Y-154198010D01*
X91832992Y-145234938D02*
X91832992Y-145234943D01*
X163640662Y-171547451D02*
X155565695Y-167782033D01*
X163640662Y-171547451D02*
X164747688Y-172063665D01*
X155565695Y-167782033D02*
X154356471Y-164459720D01*
X131223425Y-150914154D02*
X123383329Y-147258257D01*
X164747688Y-172063665D02*
X166606571Y-171387086D01*
X123383329Y-147258257D02*
X120061009Y-148467483D01*
X147432042Y-161230803D02*
X139474899Y-157520329D01*
X174879893Y-153644890D02*
X196819071Y-153644891D01*
X102097988Y-140091187D02*
X112901718Y-145129050D01*
X166606571Y-171387086D02*
X174879893Y-153644890D01*
X154356471Y-164459720D02*
X147432042Y-161230803D01*
X98444013Y-141421125D02*
X102097988Y-140091187D01*
X94632945Y-146540577D02*
X96347826Y-145916414D01*
X96347826Y-145916414D02*
X98444013Y-141421125D01*
X202939070Y-159764889D02*
X196819071Y-153644891D01*
X138265675Y-154198010D02*
X131223425Y-150914154D01*
X74567827Y-137184059D02*
X91832992Y-145234938D01*
X120061009Y-148467483D02*
X112901718Y-145129050D01*
X91832992Y-145234943D02*
X94632945Y-146540577D01*
X202939069Y-157224887D02*
X198859074Y-153144888D01*
X104526149Y-128567239D02*
X102559338Y-129283099D01*
X173908463Y-154545031D02*
X174559595Y-153148671D01*
X176174301Y-153144891D02*
X174569986Y-153144888D01*
X127794682Y-131054400D02*
X120952598Y-127863884D01*
X102530523Y-129203928D02*
X99883871Y-127969775D01*
X131116994Y-129845176D02*
X127794682Y-131054400D01*
X139274306Y-133648994D02*
X131116994Y-129845176D01*
X146891360Y-139959331D02*
X145682138Y-136637015D01*
X145682138Y-136637015D02*
X139274306Y-133648994D01*
X198859074Y-153144888D02*
X176174301Y-153144891D01*
X174559595Y-153148671D02*
X174569986Y-153144888D01*
X171691540Y-154282284D02*
X172979831Y-154883023D01*
X155482920Y-143965640D02*
X146891360Y-139959331D01*
X99883869Y-127969774D02*
X99883871Y-127969775D01*
X82618709Y-119918899D02*
X99883869Y-127969774D01*
X102559338Y-129283099D02*
X102530523Y-129203928D01*
X106753348Y-123790996D02*
X104526149Y-128567239D01*
X172979831Y-154883023D02*
X173908463Y-154545031D01*
X120952598Y-127863884D02*
X109822601Y-122673883D01*
X155482920Y-143965640D02*
X161582611Y-146809972D01*
X162791833Y-150132282D02*
X171691540Y-154282284D01*
X109822601Y-122673883D02*
X106753348Y-123790996D01*
X161582611Y-146809972D02*
X162791833Y-150132282D01*
X117592521Y-105277707D02*
X114921947Y-106249715D01*
X147325177Y-116383834D02*
X138986608Y-112495491D01*
X180446357Y-137345377D02*
X181818446Y-141115164D01*
X129003472Y-110598724D02*
X117592521Y-105277707D01*
X171468065Y-133158730D02*
X170258840Y-129836414D01*
X90669583Y-102653736D02*
X107934743Y-110704611D01*
X153678640Y-119346499D02*
X154887862Y-122668808D01*
X181818446Y-141115164D02*
X177959383Y-149390952D01*
X147325177Y-116383834D02*
X153678640Y-119346499D01*
X114921947Y-106249715D02*
X112956772Y-110464045D01*
X170258840Y-129836414D02*
X163533800Y-126700473D01*
X198859070Y-151144890D02*
X178590240Y-151144890D01*
X202939070Y-147064890D02*
X198859070Y-151144890D01*
X135664297Y-113704714D02*
X129003472Y-110598724D01*
X107934743Y-110704611D02*
X107934744Y-110704613D01*
X138986608Y-112495491D02*
X135664297Y-113704714D01*
X112956772Y-110464045D02*
X109846519Y-111596086D01*
X109846519Y-111596086D02*
X107934744Y-110704613D01*
X154887862Y-122668808D02*
X163533800Y-126700473D01*
X177959383Y-149390952D02*
X178594468Y-151135828D01*
X178594468Y-151135828D02*
X178590240Y-151144890D01*
X179742420Y-137017128D02*
X171468065Y-133158730D01*
X179742420Y-137017128D02*
X180446357Y-137345377D01*
X162186505Y-105052878D02*
X171584677Y-109435315D01*
X179481921Y-115876300D02*
X187793297Y-119751960D01*
X115985624Y-93439450D02*
X118649630Y-94681696D01*
X143869247Y-96511397D02*
X137054351Y-93333560D01*
X126984733Y-88638017D02*
X137054351Y-93333560D01*
X98720461Y-85388570D02*
X115985623Y-93439448D01*
X118649630Y-94681696D02*
X122145274Y-93409386D01*
X115985623Y-93439448D02*
X115985624Y-93439450D01*
X190913586Y-122793676D02*
X190218021Y-120882628D01*
X147191561Y-95302171D02*
X143869247Y-96511397D01*
X122145274Y-93409386D02*
X123835750Y-89784157D01*
X178950047Y-150644891D02*
X178501288Y-149411935D01*
X178501288Y-149411935D02*
X190913586Y-122793676D01*
X179455905Y-115885765D02*
X179481921Y-115876300D01*
X160977279Y-101730559D02*
X162186505Y-105052878D01*
X196819070Y-150644892D02*
X178950047Y-150644891D01*
X202939071Y-144524888D02*
X196819070Y-150644892D01*
X190218021Y-120882628D02*
X187793297Y-119751960D01*
X123835750Y-89784157D02*
X126984733Y-88638017D01*
X155376060Y-99118667D02*
X160977279Y-101730559D01*
X178237215Y-112537444D02*
X179455905Y-115885765D01*
X171584677Y-109435315D02*
X178237215Y-112537444D01*
X155376060Y-99118667D02*
X147191561Y-95302171D01*
X104850841Y-162394212D02*
X111593228Y-165538239D01*
X139381167Y-178495965D02*
X131088687Y-174629118D01*
X114915551Y-164329015D02*
X123172552Y-168179319D01*
X131088687Y-174629118D02*
X129879462Y-171306803D01*
X129879462Y-171306803D02*
X123172552Y-168179319D01*
X177407955Y-196940240D02*
X165052192Y-205591839D01*
X139571421Y-182346730D02*
X152054610Y-188167741D01*
X165052192Y-205591839D02*
X162419097Y-205127555D01*
X111593228Y-165538239D02*
X114915551Y-164329015D01*
X152054610Y-188167741D02*
X154113071Y-193823305D01*
X139381167Y-178495965D02*
X138700862Y-179954884D01*
X154113071Y-193823305D02*
X162419097Y-205127555D01*
X138700862Y-179954884D02*
X139571421Y-182346730D01*
X218179072Y-159764889D02*
X224299071Y-153644888D01*
X272476878Y-164553120D02*
X279022341Y-161500917D01*
X248687760Y-153649638D02*
X248689487Y-153644890D01*
X304894111Y-143919825D02*
X311794175Y-140702272D01*
X295076887Y-151256118D02*
X296286111Y-147933802D01*
X315116489Y-141911498D02*
X323215819Y-138134718D01*
X279022341Y-161500917D02*
X280231564Y-158178606D01*
X280231564Y-158178606D02*
X288685492Y-154236476D01*
X258912509Y-170878288D02*
X256273757Y-169917860D01*
X256273757Y-169917860D02*
X248687760Y-153649638D01*
X361549702Y-130189731D02*
X361549707Y-130189734D01*
X323215819Y-138134718D02*
X326189623Y-144512061D01*
X288685492Y-154236476D02*
X295076887Y-151256118D01*
X311794175Y-140702272D02*
X315116489Y-141911498D01*
X328798802Y-145461726D02*
X344284549Y-138240606D01*
X224299071Y-153644888D02*
X248689487Y-153644890D01*
X344284549Y-138240606D02*
X361549702Y-130189731D01*
X326189623Y-144512061D02*
X328798802Y-145461726D01*
X272476878Y-164553120D02*
X258912509Y-170878288D01*
X296286111Y-147933802D02*
X304894111Y-143919825D01*
X296843235Y-126654661D02*
X287564564Y-130981377D01*
X305615520Y-125322525D02*
X315164944Y-120869552D01*
X270717696Y-144354091D02*
X271926922Y-141031775D01*
X321509228Y-127841564D02*
X336233669Y-120975446D01*
X264425999Y-147287957D02*
X251128658Y-153488610D01*
X296843235Y-126654661D02*
X302293205Y-124113299D01*
X317783750Y-126485601D02*
X321509228Y-127841564D01*
X271926922Y-141031775D02*
X280634617Y-136971309D01*
X251128658Y-153488610D02*
X250184299Y-153144888D01*
X315164944Y-120869552D02*
X317783750Y-126485601D01*
X287564564Y-130981377D02*
X286355342Y-134303693D01*
X286355342Y-134303693D02*
X280634617Y-136971309D01*
X218179071Y-157224889D02*
X222259070Y-153144891D01*
X264425999Y-147287957D02*
X270717696Y-144354091D01*
X222259070Y-153144891D02*
X250184299Y-153144888D01*
X302293205Y-124113299D02*
X305615520Y-125322525D01*
X353498830Y-112924568D02*
X336233669Y-120975446D01*
X256375121Y-130022791D02*
X240589163Y-137383901D01*
X242724976Y-151135826D02*
X242729203Y-151144890D01*
X277969131Y-117194893D02*
X279178355Y-113872579D01*
X239682548Y-139874810D02*
X243693194Y-148475670D01*
X328182788Y-103710285D02*
X345447953Y-95659407D01*
X308279064Y-106102738D02*
X307114062Y-103604385D01*
X262603380Y-127118504D02*
X256375121Y-130022791D01*
X316576048Y-109122596D02*
X308279064Y-106102738D01*
X240589163Y-137383901D02*
X239682548Y-139874810D01*
X328182788Y-103710285D02*
X316576048Y-109122596D01*
X272583739Y-119706143D02*
X263812601Y-123796189D01*
X243693194Y-148475670D02*
X242724976Y-151135826D01*
X345447953Y-95659407D02*
X345447956Y-95659405D01*
X279178355Y-113872579D02*
X288792354Y-109389497D01*
X218179071Y-147064887D02*
X222259074Y-151144890D01*
X298777064Y-107452687D02*
X298903946Y-107393518D01*
X298903946Y-107393518D02*
X298951285Y-107410750D01*
X288792354Y-109389497D02*
X295502092Y-106260695D01*
X272583739Y-119706143D02*
X277969131Y-117194893D01*
X222259074Y-151144890D02*
X242729203Y-151144890D01*
X263812601Y-123796189D02*
X262603380Y-127118504D01*
X298951285Y-107410750D02*
X307114062Y-103604385D01*
X295502092Y-106260695D02*
X298777064Y-107452687D01*
X308552359Y-91844751D02*
X300215504Y-88810385D01*
X256813042Y-106040792D02*
X264532859Y-102440980D01*
X218179073Y-144524887D02*
X224299075Y-150644891D01*
X286218641Y-89570295D02*
X289540952Y-90779518D01*
X248324244Y-112757629D02*
X233259369Y-119782496D01*
X231726073Y-123995190D02*
X233259369Y-119782496D01*
X264532859Y-102440980D02*
X271223337Y-99321160D01*
X289540952Y-90779518D02*
X299063184Y-86339227D01*
X271223337Y-99321160D02*
X272432557Y-95998851D01*
X300215504Y-88810385D02*
X299063184Y-86339227D01*
X224299075Y-150644891D02*
X242369397Y-150644890D01*
X280741480Y-92124339D02*
X286218641Y-89570295D01*
X243151292Y-148496655D02*
X231726073Y-123995190D01*
X337397080Y-78394239D02*
X320131914Y-86445117D01*
X255603818Y-109363107D02*
X256813042Y-106040792D01*
X272432557Y-95998851D02*
X280741480Y-92124339D01*
X242369397Y-150644890D02*
X243151292Y-148496655D01*
X320131914Y-86445117D02*
X320131912Y-86445115D01*
X320131912Y-86445115D02*
X308552359Y-91844751D01*
X248324244Y-112757629D02*
X255603818Y-109363107D01*
X319328457Y-158208331D02*
X312944989Y-161184988D01*
X279679174Y-182964900D02*
X278079188Y-181524263D01*
X257267153Y-206432931D02*
X258001801Y-207094411D01*
X296736372Y-171501634D02*
X303363407Y-168411395D01*
X279776621Y-184824217D02*
X279679174Y-182964900D01*
X331266697Y-155399879D02*
X322650769Y-159417552D01*
X259809762Y-206999661D02*
X279776621Y-184824217D01*
X322650769Y-159417552D02*
X319328457Y-158208331D01*
X292958992Y-173263054D02*
X292379184Y-174856064D01*
X292379184Y-174856064D02*
X278079188Y-181524263D01*
X296736372Y-171501634D02*
X292958992Y-173263054D01*
X258001801Y-207094411D02*
X259809762Y-206999661D01*
X304572628Y-165089084D02*
X312944989Y-161184988D01*
X303363407Y-168411395D02*
X304572628Y-165089084D01*
M02*
