%TF.GenerationSoftware,KiCad,Pcbnew,8.0.7*%
%TF.CreationDate,2024-12-23T04:44:59-05:00*%
%TF.ProjectId,mx,6d782e6b-6963-4616-945f-706362585858,v1.0.0*%
%TF.SameCoordinates,Original*%
%TF.FileFunction,Drillmap*%
%TF.FilePolarity,Positive*%
%FSLAX45Y45*%
G04 Gerber Fmt 4.5, Leading zero omitted, Abs format (unit mm)*
G04 Created by KiCad (PCBNEW 8.0.7) date 2024-12-23 04:44:59*
%MOMM*%
%LPD*%
G01*
G04 APERTURE LIST*
%ADD10C,0.150000*%
%ADD11C,0.200000*%
%ADD12C,0.190000*%
%ADD13C,0.300000*%
%ADD14C,0.340000*%
G04 APERTURE END LIST*
D10*
X18672499Y-20148581D02*
X23439315Y-20148581D01*
X13627507Y-18675261D02*
X15052176Y-20257517D01*
X16438474Y-21646630D02*
X18500426Y-20202836D01*
X8584977Y-6377286D02*
X5309059Y-13402515D01*
X33194062Y-6210314D02*
G75*
G02*
X33526836Y-6377286I60878J-293766D01*
G01*
X26087169Y-21578519D02*
X27040826Y-20280621D01*
X22855001Y-11956866D02*
G75*
G02*
X22583109Y-12383648I-271892J-126784D01*
G01*
X18500426Y-20202836D02*
G75*
G02*
X18672499Y-20148581I172064J-245715D01*
G01*
X8274853Y-16149427D02*
G75*
G02*
X8209849Y-16108166I126987J271897D01*
G01*
X29578595Y-6961223D02*
G75*
G02*
X29608041Y-6953544I90335J-286087D01*
G01*
X5389011Y-13759863D02*
G75*
G02*
X5309058Y-13402514I191939J230563D01*
G01*
X25474115Y-8604330D02*
G75*
G02*
X25508416Y-8585522I161175J-253260D01*
G01*
X33901966Y-16108167D02*
X36722802Y-13759863D01*
X27040826Y-20280621D02*
G75*
G02*
X27059638Y-20257516I241934J-177769D01*
G01*
X22360161Y-10895677D02*
G75*
G02*
X22470967Y-10515807I271889J126787D01*
G01*
X16603399Y-8585522D02*
X14368627Y-7543431D01*
X23439315Y-20148581D02*
G75*
G02*
X23611386Y-20202838I-6J-299999D01*
G01*
X13531498Y-18604179D02*
G75*
G02*
X13627507Y-18675261I-126968J-271872D01*
G01*
X15052176Y-20257517D02*
G75*
G02*
X15070987Y-20280622I-222536J-200393D01*
G01*
X12503773Y-6953545D02*
G75*
G02*
X12533220Y-6961224I-60903J-293845D01*
G01*
X19640846Y-10515809D02*
X16637699Y-8604331D01*
X36802755Y-13402515D02*
G75*
G02*
X36722801Y-13759861I-271885J-126785D01*
G01*
X22583109Y-12383652D02*
X19528705Y-12383651D01*
X19640846Y-10515809D02*
G75*
G02*
X19751650Y-10895676I-161086J-253082D01*
G01*
X28580315Y-18604178D02*
X33836961Y-16149427D01*
X29578595Y-6961223D02*
X27779643Y-7529245D01*
X19528705Y-12383651D02*
G75*
G02*
X19256820Y-11956869I-5J299991D01*
G01*
X15070988Y-20280621D02*
X16024645Y-21578519D01*
X8274853Y-16149427D02*
X13531498Y-18604179D01*
X22360161Y-10895677D02*
X22855001Y-11956866D01*
X27743187Y-7543431D02*
X25508415Y-8585522D01*
X36802755Y-13402515D02*
X33526837Y-6377286D01*
X23611388Y-20202835D02*
X25673341Y-21646630D01*
X16438474Y-21646630D02*
G75*
G02*
X16024645Y-21578519I-172074J245740D01*
G01*
X8584977Y-6377286D02*
G75*
G02*
X8917753Y-6210313I271893J-126784D01*
G01*
X28484308Y-18675262D02*
G75*
G02*
X28580315Y-18604177I222962J-200758D01*
G01*
X12503773Y-6953545D02*
X8917752Y-6210315D01*
X5389011Y-13759863D02*
X8209849Y-16108167D01*
X25474115Y-8604330D02*
X22470968Y-10515808D01*
X14332171Y-7529245D02*
X12533220Y-6961224D01*
X14332171Y-7529245D02*
G75*
G02*
X14368627Y-7543431I-90291J-285975D01*
G01*
X27059638Y-20257517D02*
X28484308Y-18675262D01*
X33194062Y-6210314D02*
X29608041Y-6953544D01*
X33901966Y-16108167D02*
G75*
G02*
X33836962Y-16149428I-191936J230547D01*
G01*
X26087169Y-21578519D02*
G75*
G02*
X25673344Y-21646626I-241749J177619D01*
G01*
X19256813Y-11956866D02*
X19751653Y-10895677D01*
X27743187Y-7543431D02*
G75*
G02*
X27779643Y-7529245I126833J-272009D01*
G01*
X16603399Y-8585522D02*
G75*
G02*
X16637699Y-8604331I-126719J-271768D01*
G01*
D11*
D12*
X6282391Y-12678726D02*
X6472391Y-12868726D01*
X6472391Y-12678726D02*
X6282391Y-12868726D01*
X7087479Y-10952210D02*
X7277479Y-11142210D01*
X7277479Y-10952210D02*
X7087479Y-11142210D01*
X7279329Y-13143607D02*
X7469329Y-13333607D01*
X7469329Y-13143607D02*
X7279329Y-13333607D01*
X7892567Y-9225694D02*
X8082567Y-9415694D01*
X8082567Y-9225694D02*
X7892567Y-9415694D01*
X8008907Y-13483814D02*
X8198907Y-13673814D01*
X8198907Y-13483814D02*
X8008907Y-13673814D01*
X8084417Y-11417090D02*
X8274417Y-11607090D01*
X8274417Y-11417090D02*
X8084417Y-11607090D01*
X8697654Y-7499177D02*
X8887654Y-7689177D01*
X8887654Y-7499177D02*
X8697654Y-7689177D01*
X8813995Y-11757298D02*
X9003995Y-11947298D01*
X9003995Y-11757298D02*
X8813995Y-11947298D01*
X8889505Y-9690574D02*
X9079505Y-9880574D01*
X9079505Y-9690574D02*
X8889505Y-9880574D01*
X9005846Y-13948694D02*
X9195846Y-14138694D01*
X9195846Y-13948694D02*
X9005846Y-14138694D01*
X9310692Y-15199741D02*
X9500692Y-15389741D01*
X9500692Y-15199741D02*
X9310692Y-15389741D01*
X9619083Y-10030782D02*
X9809083Y-10220782D01*
X9809083Y-10030782D02*
X9619083Y-10220782D01*
X9694593Y-7964058D02*
X9884593Y-8154058D01*
X9884593Y-7964058D02*
X9694593Y-8154058D01*
X9810934Y-12222178D02*
X10000934Y-12412178D01*
X10000934Y-12222178D02*
X9810934Y-12412178D01*
X10115780Y-13473225D02*
X10305780Y-13663225D01*
X10305780Y-13473225D02*
X10115780Y-13663225D01*
X10307631Y-15664621D02*
X10497631Y-15854621D01*
X10497631Y-15664621D02*
X10307631Y-15854621D01*
X10424171Y-8304265D02*
X10614171Y-8494265D01*
X10614171Y-8304265D02*
X10424171Y-8494265D01*
X10616021Y-10495662D02*
X10806021Y-10685662D01*
X10806021Y-10495662D02*
X10616021Y-10685662D01*
X10920868Y-11746708D02*
X11110868Y-11936708D01*
X11110868Y-11746708D02*
X10920868Y-11936708D01*
X11112719Y-13938105D02*
X11302719Y-14128105D01*
X11302719Y-13938105D02*
X11112719Y-14128105D01*
X11142863Y-15778252D02*
X11332863Y-15968252D01*
X11332863Y-15778252D02*
X11142863Y-15968252D01*
X11421109Y-8769146D02*
X11611109Y-8959146D01*
X11611109Y-8769146D02*
X11421109Y-8959146D01*
X11725956Y-10020192D02*
X11915956Y-10210192D01*
X11915956Y-10020192D02*
X11725956Y-10210192D01*
X11917806Y-12211589D02*
X12107806Y-12401589D01*
X12107806Y-12211589D02*
X11917806Y-12401589D01*
X11947951Y-14051735D02*
X12137951Y-14241735D01*
X12137951Y-14051735D02*
X11947951Y-14241735D01*
X12139801Y-16243133D02*
X12329801Y-16433133D01*
X12329801Y-16243133D02*
X12139801Y-16433133D01*
X12531043Y-8293676D02*
X12721043Y-8483676D01*
X12721043Y-8293676D02*
X12531043Y-8483676D01*
X12722894Y-10485073D02*
X12912894Y-10675073D01*
X12912894Y-10485073D02*
X12722894Y-10675073D01*
X12753039Y-12325219D02*
X12943039Y-12515219D01*
X12943039Y-12325219D02*
X12753039Y-12515219D01*
X12763725Y-16809917D02*
X12953725Y-16999917D01*
X12953725Y-16809917D02*
X12763725Y-16999917D01*
X12944890Y-14516616D02*
X13134890Y-14706616D01*
X13134890Y-14516616D02*
X12944890Y-14706616D01*
X13527982Y-8758556D02*
X13717982Y-8948556D01*
X13717982Y-8758556D02*
X13527982Y-8948556D01*
X13558126Y-10598703D02*
X13748126Y-10788703D01*
X13748126Y-10598703D02*
X13558126Y-10788703D01*
X13568813Y-15083400D02*
X13758813Y-15273400D01*
X13758813Y-15083400D02*
X13568813Y-15273400D01*
X13749977Y-12790100D02*
X13939977Y-12980100D01*
X13939977Y-12790100D02*
X13749977Y-12980100D01*
X13760664Y-17274797D02*
X13950664Y-17464797D01*
X13950664Y-17274797D02*
X13760664Y-17464797D01*
X14363214Y-8872187D02*
X14553214Y-9062187D01*
X14553214Y-8872187D02*
X14363214Y-9062187D01*
X14373901Y-13356884D02*
X14563901Y-13546884D01*
X14563901Y-13356884D02*
X14373901Y-13546884D01*
X14555065Y-11063583D02*
X14745065Y-11253583D01*
X14745065Y-11063583D02*
X14555065Y-11253583D01*
X14565751Y-15548281D02*
X14755751Y-15738281D01*
X14755751Y-15548281D02*
X14565751Y-15738281D01*
X14691837Y-17995997D02*
X14881837Y-18185997D01*
X14881837Y-17995997D02*
X14691837Y-18185997D01*
X15178988Y-11630367D02*
X15368988Y-11820367D01*
X15368988Y-11630367D02*
X15178988Y-11820367D01*
X15189675Y-16115065D02*
X15379675Y-16305065D01*
X15379675Y-16115065D02*
X15189675Y-16305065D01*
X15360153Y-9337067D02*
X15550153Y-9527067D01*
X15550153Y-9337067D02*
X15360153Y-9527067D01*
X15370839Y-13821764D02*
X15560839Y-14011764D01*
X15560839Y-13821764D02*
X15370839Y-14011764D01*
X15427881Y-18813456D02*
X15617881Y-19003456D01*
X15617881Y-18813456D02*
X15427881Y-19003456D01*
X15984076Y-9903852D02*
X16174076Y-10093852D01*
X16174076Y-9903852D02*
X15984076Y-10093852D01*
X15994762Y-14388549D02*
X16184762Y-14578549D01*
X16184762Y-14388549D02*
X15994762Y-14578549D01*
X16175927Y-12095248D02*
X16365927Y-12285248D01*
X16365927Y-12095248D02*
X16175927Y-12285248D01*
X16186613Y-16579946D02*
X16376613Y-16769946D01*
X16376613Y-16579946D02*
X16186613Y-16769946D01*
X16287983Y-20061464D02*
X16477983Y-20251464D01*
X16477983Y-20061464D02*
X16287983Y-20251464D01*
X16799850Y-12662032D02*
X16989850Y-12852032D01*
X16989850Y-12662032D02*
X16799850Y-12852032D01*
X16981015Y-10368732D02*
X17171015Y-10558732D01*
X17171015Y-10368732D02*
X16981015Y-10558732D01*
X16991700Y-14853429D02*
X17181700Y-15043429D01*
X17181700Y-14853429D02*
X16991700Y-15043429D01*
X17189050Y-19430531D02*
X17379050Y-19620531D01*
X17379050Y-19430531D02*
X17189050Y-19620531D01*
X17604938Y-10935516D02*
X17794938Y-11125516D01*
X17794938Y-10935516D02*
X17604938Y-11125516D01*
X17796789Y-13126913D02*
X17986789Y-13316913D01*
X17986789Y-13126913D02*
X17796789Y-13316913D01*
X18601877Y-11400396D02*
X18791877Y-11590396D01*
X18791877Y-11400396D02*
X18601877Y-11590396D01*
X23319938Y-11400396D02*
X23509938Y-11590396D01*
X23509938Y-11400396D02*
X23319938Y-11590396D01*
X24125026Y-13126913D02*
X24315026Y-13316913D01*
X24315026Y-13126913D02*
X24125026Y-13316913D01*
X24316877Y-10935517D02*
X24506877Y-11125517D01*
X24506877Y-10935517D02*
X24316877Y-11125517D01*
X24732764Y-19430531D02*
X24922764Y-19620531D01*
X24922764Y-19430531D02*
X24732764Y-19620531D01*
X24930113Y-14853429D02*
X25120113Y-15043429D01*
X25120113Y-14853429D02*
X24930113Y-15043429D01*
X24940800Y-10368732D02*
X25130800Y-10558732D01*
X25130800Y-10368732D02*
X24940800Y-10558732D01*
X25121965Y-12662033D02*
X25311965Y-12852033D01*
X25311965Y-12662033D02*
X25121965Y-12852033D01*
X25633831Y-20061465D02*
X25823831Y-20251465D01*
X25823831Y-20061465D02*
X25633831Y-20251465D01*
X25735201Y-16579945D02*
X25925201Y-16769945D01*
X25925201Y-16579945D02*
X25735201Y-16769945D01*
X25745887Y-12095248D02*
X25935887Y-12285248D01*
X25935887Y-12095248D02*
X25745887Y-12285248D01*
X25927052Y-14388549D02*
X26117052Y-14578549D01*
X26117052Y-14388549D02*
X25927052Y-14578549D01*
X25937739Y-9903852D02*
X26127739Y-10093852D01*
X26127739Y-9903852D02*
X25937739Y-10093852D01*
X26493933Y-18813456D02*
X26683933Y-19003456D01*
X26683933Y-18813456D02*
X26493933Y-19003456D01*
X26550975Y-13821764D02*
X26740975Y-14011764D01*
X26740975Y-13821764D02*
X26550975Y-14011764D01*
X26561661Y-9337067D02*
X26751661Y-9527067D01*
X26751661Y-9337067D02*
X26561661Y-9527067D01*
X26732140Y-16115065D02*
X26922140Y-16305065D01*
X26922140Y-16115065D02*
X26732140Y-16305065D01*
X26742826Y-11630368D02*
X26932826Y-11820368D01*
X26932826Y-11630368D02*
X26742826Y-11820368D01*
X27229977Y-17995997D02*
X27419977Y-18185997D01*
X27419977Y-17995997D02*
X27229977Y-18185997D01*
X27356063Y-15548281D02*
X27546063Y-15738281D01*
X27546063Y-15548281D02*
X27356063Y-15738281D01*
X27366749Y-11063583D02*
X27556749Y-11253583D01*
X27556749Y-11063583D02*
X27366749Y-11253583D01*
X27547914Y-13356884D02*
X27737914Y-13546884D01*
X27737914Y-13356884D02*
X27547914Y-13546884D01*
X27558600Y-8872187D02*
X27748600Y-9062187D01*
X27748600Y-8872187D02*
X27558600Y-9062187D01*
X28161151Y-17274797D02*
X28351151Y-17464797D01*
X28351151Y-17274797D02*
X28161151Y-17464797D01*
X28171836Y-12790099D02*
X28361836Y-12980099D01*
X28361836Y-12790099D02*
X28171836Y-12980099D01*
X28353002Y-15083401D02*
X28543002Y-15273401D01*
X28543002Y-15083401D02*
X28353002Y-15273401D01*
X28363688Y-10598703D02*
X28553688Y-10788703D01*
X28553688Y-10598703D02*
X28363688Y-10788703D01*
X28393832Y-8758556D02*
X28583832Y-8948556D01*
X28583832Y-8758556D02*
X28393832Y-8948556D01*
X28976925Y-14516616D02*
X29166925Y-14706616D01*
X29166925Y-14516616D02*
X28976925Y-14706616D01*
X29158090Y-16809917D02*
X29348090Y-16999917D01*
X29348090Y-16809917D02*
X29158090Y-16999917D01*
X29168775Y-12325219D02*
X29358775Y-12515219D01*
X29358775Y-12325219D02*
X29168775Y-12515219D01*
X29198920Y-10485072D02*
X29388920Y-10675072D01*
X29388920Y-10485072D02*
X29198920Y-10675072D01*
X29390771Y-8293676D02*
X29580771Y-8483676D01*
X29580771Y-8293676D02*
X29390771Y-8483676D01*
X29782012Y-16243132D02*
X29972012Y-16433132D01*
X29972012Y-16243132D02*
X29782012Y-16433132D01*
X29973864Y-14051736D02*
X30163864Y-14241736D01*
X30163864Y-14051736D02*
X29973864Y-14241736D01*
X30004008Y-12211589D02*
X30194008Y-12401589D01*
X30194008Y-12211589D02*
X30004008Y-12401589D01*
X30195859Y-10020193D02*
X30385859Y-10210193D01*
X30385859Y-10020193D02*
X30195859Y-10210193D01*
X30500705Y-8769145D02*
X30690705Y-8959145D01*
X30690705Y-8769145D02*
X30500705Y-8959145D01*
X30778951Y-15778252D02*
X30968951Y-15968252D01*
X30968951Y-15778252D02*
X30778951Y-15968252D01*
X30809096Y-13938105D02*
X30999096Y-14128105D01*
X30999096Y-13938105D02*
X30809096Y-14128105D01*
X31000947Y-11746709D02*
X31190947Y-11936709D01*
X31190947Y-11746709D02*
X31000947Y-11936709D01*
X31305793Y-10495661D02*
X31495793Y-10685661D01*
X31495793Y-10495661D02*
X31305793Y-10685661D01*
X31497644Y-8304265D02*
X31687644Y-8494265D01*
X31687644Y-8304265D02*
X31497644Y-8494265D01*
X31614183Y-15664621D02*
X31804183Y-15854621D01*
X31804183Y-15664621D02*
X31614183Y-15854621D01*
X31806035Y-13473225D02*
X31996035Y-13663225D01*
X31996035Y-13473225D02*
X31806035Y-13663225D01*
X32110880Y-12222178D02*
X32300880Y-12412178D01*
X32300880Y-12222178D02*
X32110880Y-12412178D01*
X32227221Y-7964057D02*
X32417221Y-8154057D01*
X32417221Y-7964057D02*
X32227221Y-8154057D01*
X32302732Y-10030782D02*
X32492732Y-10220782D01*
X32492732Y-10030782D02*
X32302732Y-10220782D01*
X32611122Y-15199741D02*
X32801122Y-15389741D01*
X32801122Y-15199741D02*
X32611122Y-15389741D01*
X32915968Y-13948694D02*
X33105968Y-14138694D01*
X33105968Y-13948694D02*
X32915968Y-14138694D01*
X33032309Y-9690574D02*
X33222309Y-9880574D01*
X33222309Y-9690574D02*
X33032309Y-9880574D01*
X33107819Y-11757298D02*
X33297819Y-11947298D01*
X33297819Y-11757298D02*
X33107819Y-11947298D01*
X33224160Y-7499178D02*
X33414160Y-7689178D01*
X33414160Y-7499178D02*
X33224160Y-7689178D01*
X33837397Y-11417090D02*
X34027397Y-11607090D01*
X34027397Y-11417090D02*
X33837397Y-11607090D01*
X33912907Y-13483814D02*
X34102907Y-13673814D01*
X34102907Y-13483814D02*
X33912907Y-13673814D01*
X34029248Y-9225694D02*
X34219248Y-9415694D01*
X34219248Y-9225694D02*
X34029248Y-9415694D01*
X34642484Y-13143606D02*
X34832484Y-13333606D01*
X34832484Y-13143606D02*
X34642484Y-13333606D01*
X34834336Y-10952210D02*
X35024336Y-11142210D01*
X35024336Y-10952210D02*
X34834336Y-11142210D01*
X35639423Y-12678726D02*
X35829423Y-12868726D01*
X35829423Y-12678726D02*
X35639423Y-12868726D01*
D13*
X7277318Y-12466914D02*
G75*
G02*
X6977318Y-12466914I-150000J0D01*
G01*
X6977318Y-12466914D02*
G75*
G02*
X7277318Y-12466914I150000J0D01*
G01*
X7637496Y-12877610D02*
G75*
G02*
X7337496Y-12877610I-150000J0D01*
G01*
X7337496Y-12877610D02*
G75*
G02*
X7637496Y-12877610I150000J0D01*
G01*
X8082406Y-10740397D02*
G75*
G02*
X7782406Y-10740397I-150000J0D01*
G01*
X7782406Y-10740397D02*
G75*
G02*
X8082406Y-10740397I150000J0D01*
G01*
X8442584Y-11151093D02*
G75*
G02*
X8142583Y-11151093I-150000J0D01*
G01*
X8142583Y-11151093D02*
G75*
G02*
X8442584Y-11151093I150000J0D01*
G01*
X8887494Y-9013881D02*
G75*
G02*
X8587494Y-9013881I-150000J0D01*
G01*
X8587494Y-9013881D02*
G75*
G02*
X8887494Y-9013881I150000J0D01*
G01*
X9003834Y-13272001D02*
G75*
G02*
X8703834Y-13272001I-150000J0D01*
G01*
X8703834Y-13272001D02*
G75*
G02*
X9003834Y-13272001I150000J0D01*
G01*
X9247672Y-9424577D02*
G75*
G02*
X8947672Y-9424577I-150000J0D01*
G01*
X8947672Y-9424577D02*
G75*
G02*
X9247672Y-9424577I150000J0D01*
G01*
X9364012Y-13682697D02*
G75*
G02*
X9064012Y-13682697I-150000J0D01*
G01*
X9064012Y-13682697D02*
G75*
G02*
X9364012Y-13682697I150000J0D01*
G01*
X9692581Y-7287364D02*
G75*
G02*
X9392581Y-7287364I-150000J0D01*
G01*
X9392581Y-7287364D02*
G75*
G02*
X9692581Y-7287364I150000J0D01*
G01*
X9808922Y-11545485D02*
G75*
G02*
X9508922Y-11545485I-150000J0D01*
G01*
X9508922Y-11545485D02*
G75*
G02*
X9808922Y-11545485I150000J0D01*
G01*
X10052759Y-7698061D02*
G75*
G02*
X9752759Y-7698061I-150000J0D01*
G01*
X9752759Y-7698061D02*
G75*
G02*
X10052759Y-7698061I150000J0D01*
G01*
X10169100Y-11956181D02*
G75*
G02*
X9869100Y-11956181I-150000J0D01*
G01*
X9869100Y-11956181D02*
G75*
G02*
X10169100Y-11956181I150000J0D01*
G01*
X10305620Y-14987928D02*
G75*
G02*
X10005620Y-14987928I-150000J0D01*
G01*
X10005620Y-14987928D02*
G75*
G02*
X10305620Y-14987928I150000J0D01*
G01*
X10614010Y-9818969D02*
G75*
G02*
X10314010Y-9818969I-150000J0D01*
G01*
X10314010Y-9818969D02*
G75*
G02*
X10614010Y-9818969I150000J0D01*
G01*
X10665797Y-15398624D02*
G75*
G02*
X10365797Y-15398624I-150000J0D01*
G01*
X10365797Y-15398624D02*
G75*
G02*
X10665797Y-15398624I150000J0D01*
G01*
X10974188Y-10229665D02*
G75*
G02*
X10674188Y-10229665I-150000J0D01*
G01*
X10674188Y-10229665D02*
G75*
G02*
X10974188Y-10229665I150000J0D01*
G01*
X11110708Y-13261412D02*
G75*
G02*
X10810708Y-13261412I-150000J0D01*
G01*
X10810708Y-13261412D02*
G75*
G02*
X11110708Y-13261412I150000J0D01*
G01*
X11419098Y-8092452D02*
G75*
G02*
X11119098Y-8092452I-150000J0D01*
G01*
X11119098Y-8092452D02*
G75*
G02*
X11419098Y-8092452I150000J0D01*
G01*
X11470885Y-13672109D02*
G75*
G02*
X11170885Y-13672109I-150000J0D01*
G01*
X11170885Y-13672109D02*
G75*
G02*
X11470885Y-13672109I150000J0D01*
G01*
X11779275Y-8503149D02*
G75*
G02*
X11479275Y-8503149I-150000J0D01*
G01*
X11479275Y-8503149D02*
G75*
G02*
X11779275Y-8503149I150000J0D01*
G01*
X11915795Y-11534895D02*
G75*
G02*
X11615795Y-11534895I-150000J0D01*
G01*
X11615795Y-11534895D02*
G75*
G02*
X11915795Y-11534895I150000J0D01*
G01*
X12137790Y-15566439D02*
G75*
G02*
X11837790Y-15566439I-150000J0D01*
G01*
X11837790Y-15566439D02*
G75*
G02*
X12137790Y-15566439I150000J0D01*
G01*
X12275973Y-11945592D02*
G75*
G02*
X11975973Y-11945592I-150000J0D01*
G01*
X11975973Y-11945592D02*
G75*
G02*
X12275973Y-11945592I150000J0D01*
G01*
X12497968Y-15977136D02*
G75*
G02*
X12197968Y-15977136I-150000J0D01*
G01*
X12197968Y-15977136D02*
G75*
G02*
X12497968Y-15977136I150000J0D01*
G01*
X12720883Y-9808379D02*
G75*
G02*
X12420883Y-9808379I-150000J0D01*
G01*
X12420883Y-9808379D02*
G75*
G02*
X12720883Y-9808379I150000J0D01*
G01*
X12942878Y-13839922D02*
G75*
G02*
X12642878Y-13839922I-150000J0D01*
G01*
X12642878Y-13839922D02*
G75*
G02*
X12942878Y-13839922I150000J0D01*
G01*
X13081061Y-10219076D02*
G75*
G02*
X12781061Y-10219076I-150000J0D01*
G01*
X12781061Y-10219076D02*
G75*
G02*
X13081061Y-10219076I150000J0D01*
G01*
X13303056Y-14250619D02*
G75*
G02*
X13003056Y-14250619I-150000J0D01*
G01*
X13003056Y-14250619D02*
G75*
G02*
X13303056Y-14250619I150000J0D01*
G01*
X13525970Y-8081863D02*
G75*
G02*
X13225970Y-8081863I-150000J0D01*
G01*
X13225970Y-8081863D02*
G75*
G02*
X13525970Y-8081863I150000J0D01*
G01*
X13747966Y-12113406D02*
G75*
G02*
X13447966Y-12113406I-150000J0D01*
G01*
X13447966Y-12113406D02*
G75*
G02*
X13747966Y-12113406I150000J0D01*
G01*
X13758652Y-16598104D02*
G75*
G02*
X13458652Y-16598104I-150000J0D01*
G01*
X13458652Y-16598104D02*
G75*
G02*
X13758652Y-16598104I150000J0D01*
G01*
X13886148Y-8492560D02*
G75*
G02*
X13586148Y-8492560I-150000J0D01*
G01*
X13586148Y-8492560D02*
G75*
G02*
X13886148Y-8492560I150000J0D01*
G01*
X14108143Y-12524103D02*
G75*
G02*
X13808143Y-12524103I-150000J0D01*
G01*
X13808143Y-12524103D02*
G75*
G02*
X14108143Y-12524103I150000J0D01*
G01*
X14118830Y-17008800D02*
G75*
G02*
X13818830Y-17008800I-150000J0D01*
G01*
X13818830Y-17008800D02*
G75*
G02*
X14118830Y-17008800I150000J0D01*
G01*
X14553053Y-10386890D02*
G75*
G02*
X14253053Y-10386890I-150000J0D01*
G01*
X14253053Y-10386890D02*
G75*
G02*
X14553053Y-10386890I150000J0D01*
G01*
X14563740Y-14871588D02*
G75*
G02*
X14263740Y-14871588I-150000J0D01*
G01*
X14263740Y-14871588D02*
G75*
G02*
X14563740Y-14871588I150000J0D01*
G01*
X14913231Y-10797587D02*
G75*
G02*
X14613231Y-10797587I-150000J0D01*
G01*
X14613231Y-10797587D02*
G75*
G02*
X14913231Y-10797587I150000J0D01*
G01*
X14923918Y-15282284D02*
G75*
G02*
X14623918Y-15282284I-150000J0D01*
G01*
X14623918Y-15282284D02*
G75*
G02*
X14923918Y-15282284I150000J0D01*
G01*
X15358142Y-8660374D02*
G75*
G02*
X15058142Y-8660374I-150000J0D01*
G01*
X15058142Y-8660374D02*
G75*
G02*
X15358142Y-8660374I150000J0D01*
G01*
X15368828Y-13145071D02*
G75*
G02*
X15068828Y-13145071I-150000J0D01*
G01*
X15068828Y-13145071D02*
G75*
G02*
X15368828Y-13145071I150000J0D01*
G01*
X15718319Y-9071070D02*
G75*
G02*
X15418319Y-9071070I-150000J0D01*
G01*
X15418319Y-9071070D02*
G75*
G02*
X15718319Y-9071070I150000J0D01*
G01*
X15729006Y-13555767D02*
G75*
G02*
X15429006Y-13555767I-150000J0D01*
G01*
X15429006Y-13555767D02*
G75*
G02*
X15729006Y-13555767I150000J0D01*
G01*
X15747030Y-18101594D02*
G75*
G02*
X15447030Y-18101594I-150000J0D01*
G01*
X15447030Y-18101594D02*
G75*
G02*
X15747030Y-18101594I150000J0D01*
G01*
X15918104Y-18620375D02*
G75*
G02*
X15618104Y-18620375I-150000J0D01*
G01*
X15618104Y-18620375D02*
G75*
G02*
X15918104Y-18620375I150000J0D01*
G01*
X16173915Y-11418554D02*
G75*
G02*
X15873915Y-11418554I-150000J0D01*
G01*
X15873915Y-11418554D02*
G75*
G02*
X16173915Y-11418554I150000J0D01*
G01*
X16184602Y-15903252D02*
G75*
G02*
X15884602Y-15903252I-150000J0D01*
G01*
X15884602Y-15903252D02*
G75*
G02*
X16184602Y-15903252I150000J0D01*
G01*
X16534093Y-11829251D02*
G75*
G02*
X16234093Y-11829251I-150000J0D01*
G01*
X16234093Y-11829251D02*
G75*
G02*
X16534093Y-11829251I150000J0D01*
G01*
X16544780Y-16313949D02*
G75*
G02*
X16244780Y-16313949I-150000J0D01*
G01*
X16244780Y-16313949D02*
G75*
G02*
X16544780Y-16313949I150000J0D01*
G01*
X16642239Y-19353602D02*
G75*
G02*
X16342239Y-19353602I-150000J0D01*
G01*
X16342239Y-19353602D02*
G75*
G02*
X16642239Y-19353602I150000J0D01*
G01*
X16979003Y-9692039D02*
G75*
G02*
X16679003Y-9692039I-150000J0D01*
G01*
X16679003Y-9692039D02*
G75*
G02*
X16979003Y-9692039I150000J0D01*
G01*
X16989689Y-14176736D02*
G75*
G02*
X16689689Y-14176736I-150000J0D01*
G01*
X16689689Y-14176736D02*
G75*
G02*
X16989689Y-14176736I150000J0D01*
G01*
X17178002Y-19247027D02*
G75*
G02*
X16878002Y-19247027I-150000J0D01*
G01*
X16878002Y-19247027D02*
G75*
G02*
X17178002Y-19247027I150000J0D01*
G01*
X17339181Y-10102735D02*
G75*
G02*
X17039181Y-10102735I-150000J0D01*
G01*
X17039181Y-10102735D02*
G75*
G02*
X17339181Y-10102735I150000J0D01*
G01*
X17349867Y-14587433D02*
G75*
G02*
X17049867Y-14587433I-150000J0D01*
G01*
X17049867Y-14587433D02*
G75*
G02*
X17349867Y-14587433I150000J0D01*
G01*
X17794777Y-12450220D02*
G75*
G02*
X17494777Y-12450220I-150000J0D01*
G01*
X17494777Y-12450220D02*
G75*
G02*
X17794777Y-12450220I150000J0D01*
G01*
X18154955Y-12860916D02*
G75*
G02*
X17854955Y-12860916I-150000J0D01*
G01*
X17854955Y-12860916D02*
G75*
G02*
X18154955Y-12860916I150000J0D01*
G01*
X18599865Y-10723703D02*
G75*
G02*
X18299865Y-10723703I-150000J0D01*
G01*
X18299865Y-10723703D02*
G75*
G02*
X18599865Y-10723703I150000J0D01*
G01*
X18960043Y-11134400D02*
G75*
G02*
X18660043Y-11134400I-150000J0D01*
G01*
X18660043Y-11134400D02*
G75*
G02*
X18960043Y-11134400I150000J0D01*
G01*
X23811949Y-10723704D02*
G75*
G02*
X23511949Y-10723704I-150000J0D01*
G01*
X23511949Y-10723704D02*
G75*
G02*
X23811949Y-10723704I150000J0D01*
G01*
X24358079Y-10711782D02*
G75*
G02*
X24058079Y-10711782I-150000J0D01*
G01*
X24058079Y-10711782D02*
G75*
G02*
X24358079Y-10711782I150000J0D01*
G01*
X24617037Y-12450220D02*
G75*
G02*
X24317037Y-12450220I-150000J0D01*
G01*
X24317037Y-12450220D02*
G75*
G02*
X24617037Y-12450220I150000J0D01*
G01*
X25163167Y-12438298D02*
G75*
G02*
X24863167Y-12438298I-150000J0D01*
G01*
X24863167Y-12438298D02*
G75*
G02*
X25163167Y-12438298I150000J0D01*
G01*
X25422125Y-14176736D02*
G75*
G02*
X25122125Y-14176736I-150000J0D01*
G01*
X25122125Y-14176736D02*
G75*
G02*
X25422125Y-14176736I150000J0D01*
G01*
X25432811Y-9692039D02*
G75*
G02*
X25132811Y-9692039I-150000J0D01*
G01*
X25132811Y-9692039D02*
G75*
G02*
X25432811Y-9692039I150000J0D01*
G01*
X25769575Y-19353602D02*
G75*
G02*
X25469575Y-19353602I-150000J0D01*
G01*
X25469575Y-19353602D02*
G75*
G02*
X25769575Y-19353602I150000J0D01*
G01*
X25968255Y-14164815D02*
G75*
G02*
X25668255Y-14164815I-150000J0D01*
G01*
X25668255Y-14164815D02*
G75*
G02*
X25968255Y-14164815I150000J0D01*
G01*
X25978941Y-9680117D02*
G75*
G02*
X25678941Y-9680117I-150000J0D01*
G01*
X25678941Y-9680117D02*
G75*
G02*
X25978941Y-9680117I150000J0D01*
G01*
X26052965Y-19820604D02*
G75*
G02*
X25752965Y-19820604I-150000J0D01*
G01*
X25752965Y-19820604D02*
G75*
G02*
X26052965Y-19820604I150000J0D01*
G01*
X26227213Y-15903252D02*
G75*
G02*
X25927213Y-15903252I-150000J0D01*
G01*
X25927213Y-15903252D02*
G75*
G02*
X26227213Y-15903252I150000J0D01*
G01*
X26237898Y-11418555D02*
G75*
G02*
X25937898Y-11418555I-150000J0D01*
G01*
X25937898Y-11418555D02*
G75*
G02*
X26237898Y-11418555I150000J0D01*
G01*
X26664783Y-18101594D02*
G75*
G02*
X26364783Y-18101594I-150000J0D01*
G01*
X26364783Y-18101594D02*
G75*
G02*
X26664783Y-18101594I150000J0D01*
G01*
X26773343Y-15891331D02*
G75*
G02*
X26473343Y-15891331I-150000J0D01*
G01*
X26473343Y-15891331D02*
G75*
G02*
X26773343Y-15891331I150000J0D01*
G01*
X26784028Y-11406633D02*
G75*
G02*
X26484028Y-11406633I-150000J0D01*
G01*
X26484028Y-11406633D02*
G75*
G02*
X26784028Y-11406633I150000J0D01*
G01*
X27042986Y-13145071D02*
G75*
G02*
X26742986Y-13145071I-150000J0D01*
G01*
X26742986Y-13145071D02*
G75*
G02*
X27042986Y-13145071I150000J0D01*
G01*
X27053672Y-8660374D02*
G75*
G02*
X26753672Y-8660374I-150000J0D01*
G01*
X26753672Y-8660374D02*
G75*
G02*
X27053672Y-8660374I150000J0D01*
G01*
X27162841Y-17877230D02*
G75*
G02*
X26862841Y-17877230I-150000J0D01*
G01*
X26862841Y-17877230D02*
G75*
G02*
X27162841Y-17877230I150000J0D01*
G01*
X27589116Y-13133149D02*
G75*
G02*
X27289116Y-13133149I-150000J0D01*
G01*
X27289116Y-13133149D02*
G75*
G02*
X27589116Y-13133149I150000J0D01*
G01*
X27599802Y-8648453D02*
G75*
G02*
X27299802Y-8648453I-150000J0D01*
G01*
X27299802Y-8648453D02*
G75*
G02*
X27599802Y-8648453I150000J0D01*
G01*
X27848074Y-14871588D02*
G75*
G02*
X27548074Y-14871588I-150000J0D01*
G01*
X27548074Y-14871588D02*
G75*
G02*
X27848074Y-14871588I150000J0D01*
G01*
X27858760Y-10386890D02*
G75*
G02*
X27558760Y-10386890I-150000J0D01*
G01*
X27558760Y-10386890D02*
G75*
G02*
X27858760Y-10386890I150000J0D01*
G01*
X28394204Y-14859666D02*
G75*
G02*
X28094204Y-14859666I-150000J0D01*
G01*
X28094204Y-14859666D02*
G75*
G02*
X28394204Y-14859666I150000J0D01*
G01*
X28404890Y-10374968D02*
G75*
G02*
X28104890Y-10374968I-150000J0D01*
G01*
X28104890Y-10374968D02*
G75*
G02*
X28404890Y-10374968I150000J0D01*
G01*
X28653162Y-16598104D02*
G75*
G02*
X28353162Y-16598104I-150000J0D01*
G01*
X28353162Y-16598104D02*
G75*
G02*
X28653162Y-16598104I150000J0D01*
G01*
X28663848Y-12113406D02*
G75*
G02*
X28363848Y-12113406I-150000J0D01*
G01*
X28363848Y-12113406D02*
G75*
G02*
X28663848Y-12113406I150000J0D01*
G01*
X28885844Y-8081863D02*
G75*
G02*
X28585844Y-8081863I-150000J0D01*
G01*
X28585844Y-8081863D02*
G75*
G02*
X28885844Y-8081863I150000J0D01*
G01*
X29199292Y-16586182D02*
G75*
G02*
X28899292Y-16586182I-150000J0D01*
G01*
X28899292Y-16586182D02*
G75*
G02*
X29199292Y-16586182I150000J0D01*
G01*
X29209978Y-12101485D02*
G75*
G02*
X28909978Y-12101485I-150000J0D01*
G01*
X28909978Y-12101485D02*
G75*
G02*
X29209978Y-12101485I150000J0D01*
G01*
X29431974Y-8069941D02*
G75*
G02*
X29131974Y-8069941I-150000J0D01*
G01*
X29131974Y-8069941D02*
G75*
G02*
X29431974Y-8069941I150000J0D01*
G01*
X29468936Y-13839923D02*
G75*
G02*
X29168936Y-13839923I-150000J0D01*
G01*
X29168936Y-13839923D02*
G75*
G02*
X29468936Y-13839923I150000J0D01*
G01*
X29690931Y-9808379D02*
G75*
G02*
X29390931Y-9808379I-150000J0D01*
G01*
X29390931Y-9808379D02*
G75*
G02*
X29690931Y-9808379I150000J0D01*
G01*
X30015066Y-13828001D02*
G75*
G02*
X29715066Y-13828001I-150000J0D01*
G01*
X29715066Y-13828001D02*
G75*
G02*
X30015066Y-13828001I150000J0D01*
G01*
X30237061Y-9796458D02*
G75*
G02*
X29937061Y-9796458I-150000J0D01*
G01*
X29937061Y-9796458D02*
G75*
G02*
X30237061Y-9796458I150000J0D01*
G01*
X30274024Y-15566439D02*
G75*
G02*
X29974024Y-15566439I-150000J0D01*
G01*
X29974024Y-15566439D02*
G75*
G02*
X30274024Y-15566439I150000J0D01*
G01*
X30496019Y-11534896D02*
G75*
G02*
X30196019Y-11534896I-150000J0D01*
G01*
X30196019Y-11534896D02*
G75*
G02*
X30496019Y-11534896I150000J0D01*
G01*
X30820154Y-15554518D02*
G75*
G02*
X30520154Y-15554518I-150000J0D01*
G01*
X30520154Y-15554518D02*
G75*
G02*
X30820154Y-15554518I150000J0D01*
G01*
X30992716Y-8092452D02*
G75*
G02*
X30692716Y-8092452I-150000J0D01*
G01*
X30692716Y-8092452D02*
G75*
G02*
X30992716Y-8092452I150000J0D01*
G01*
X31042149Y-11522974D02*
G75*
G02*
X30742149Y-11522974I-150000J0D01*
G01*
X30742149Y-11522974D02*
G75*
G02*
X31042149Y-11522974I150000J0D01*
G01*
X31301107Y-13261412D02*
G75*
G02*
X31001107Y-13261412I-150000J0D01*
G01*
X31001107Y-13261412D02*
G75*
G02*
X31301107Y-13261412I150000J0D01*
G01*
X31538846Y-8080531D02*
G75*
G02*
X31238846Y-8080531I-150000J0D01*
G01*
X31238846Y-8080531D02*
G75*
G02*
X31538846Y-8080531I150000J0D01*
G01*
X31797804Y-9818968D02*
G75*
G02*
X31497804Y-9818968I-150000J0D01*
G01*
X31497804Y-9818968D02*
G75*
G02*
X31797804Y-9818968I150000J0D01*
G01*
X31847237Y-13249490D02*
G75*
G02*
X31547237Y-13249490I-150000J0D01*
G01*
X31547237Y-13249490D02*
G75*
G02*
X31847237Y-13249490I150000J0D01*
G01*
X32106195Y-14987928D02*
G75*
G02*
X31806195Y-14987928I-150000J0D01*
G01*
X31806195Y-14987928D02*
G75*
G02*
X32106195Y-14987928I150000J0D01*
G01*
X32343934Y-9807047D02*
G75*
G02*
X32043934Y-9807047I-150000J0D01*
G01*
X32043934Y-9807047D02*
G75*
G02*
X32343934Y-9807047I150000J0D01*
G01*
X32602892Y-11545485D02*
G75*
G02*
X32302892Y-11545485I-150000J0D01*
G01*
X32302892Y-11545485D02*
G75*
G02*
X32602892Y-11545485I150000J0D01*
G01*
X32652325Y-14976007D02*
G75*
G02*
X32352325Y-14976007I-150000J0D01*
G01*
X32352325Y-14976007D02*
G75*
G02*
X32652325Y-14976007I150000J0D01*
G01*
X32719233Y-7287364D02*
G75*
G02*
X32419233Y-7287364I-150000J0D01*
G01*
X32419233Y-7287364D02*
G75*
G02*
X32719233Y-7287364I150000J0D01*
G01*
X33149022Y-11533563D02*
G75*
G02*
X32849022Y-11533563I-150000J0D01*
G01*
X32849022Y-11533563D02*
G75*
G02*
X33149022Y-11533563I150000J0D01*
G01*
X33265363Y-7275443D02*
G75*
G02*
X32965363Y-7275443I-150000J0D01*
G01*
X32965363Y-7275443D02*
G75*
G02*
X33265363Y-7275443I150000J0D01*
G01*
X33407980Y-13272001D02*
G75*
G02*
X33107980Y-13272001I-150000J0D01*
G01*
X33107980Y-13272001D02*
G75*
G02*
X33407980Y-13272001I150000J0D01*
G01*
X33524321Y-9013881D02*
G75*
G02*
X33224321Y-9013881I-150000J0D01*
G01*
X33224321Y-9013881D02*
G75*
G02*
X33524321Y-9013881I150000J0D01*
G01*
X33954110Y-13260080D02*
G75*
G02*
X33654110Y-13260080I-150000J0D01*
G01*
X33654110Y-13260080D02*
G75*
G02*
X33954110Y-13260080I150000J0D01*
G01*
X34070451Y-9001959D02*
G75*
G02*
X33770451Y-9001959I-150000J0D01*
G01*
X33770451Y-9001959D02*
G75*
G02*
X34070451Y-9001959I150000J0D01*
G01*
X34329408Y-10740397D02*
G75*
G02*
X34029408Y-10740397I-150000J0D01*
G01*
X34029408Y-10740397D02*
G75*
G02*
X34329408Y-10740397I150000J0D01*
G01*
X34875538Y-10728476D02*
G75*
G02*
X34575538Y-10728476I-150000J0D01*
G01*
X34575538Y-10728476D02*
G75*
G02*
X34875538Y-10728476I150000J0D01*
G01*
X35134496Y-12466913D02*
G75*
G02*
X34834496Y-12466913I-150000J0D01*
G01*
X34834496Y-12466913D02*
G75*
G02*
X35134496Y-12466913I150000J0D01*
G01*
X35680626Y-12454992D02*
G75*
G02*
X35380626Y-12454992I-150000J0D01*
G01*
X35380626Y-12454992D02*
G75*
G02*
X35680626Y-12454992I150000J0D01*
G01*
D14*
X6875860Y-12836167D02*
X6875860Y-13176167D01*
X6705860Y-13006167D02*
X7045860Y-13006167D01*
X7680948Y-11109650D02*
X7680948Y-11449650D01*
X7510948Y-11279650D02*
X7850948Y-11279650D01*
X8486036Y-9383134D02*
X8486036Y-9723134D01*
X8316036Y-9553134D02*
X8656036Y-9553134D01*
X8602376Y-13641254D02*
X8602376Y-13981254D01*
X8432376Y-13811254D02*
X8772376Y-13811254D01*
X9291123Y-7656617D02*
X9291123Y-7996617D01*
X9121123Y-7826617D02*
X9461123Y-7826617D01*
X9407464Y-11914738D02*
X9407464Y-12254738D01*
X9237464Y-12084738D02*
X9577464Y-12084738D01*
X9904162Y-15357181D02*
X9904162Y-15697181D01*
X9734162Y-15527181D02*
X10074162Y-15527181D01*
X10212552Y-10188222D02*
X10212552Y-10528222D01*
X10042552Y-10358222D02*
X10382552Y-10358222D01*
X10709250Y-13630665D02*
X10709250Y-13970665D01*
X10539250Y-13800665D02*
X10879250Y-13800665D01*
X11017640Y-8461705D02*
X11017640Y-8801705D01*
X10847640Y-8631705D02*
X11187640Y-8631705D01*
X11514337Y-11904148D02*
X11514337Y-12244148D01*
X11344337Y-12074148D02*
X11684337Y-12074148D01*
X11736332Y-15935692D02*
X11736332Y-16275692D01*
X11566332Y-16105692D02*
X11906332Y-16105692D01*
X12319425Y-10177632D02*
X12319425Y-10517632D01*
X12149425Y-10347632D02*
X12489425Y-10347632D01*
X12541420Y-14209176D02*
X12541420Y-14549176D01*
X12371420Y-14379176D02*
X12711420Y-14379176D01*
X13124513Y-8451116D02*
X13124513Y-8791116D01*
X12954513Y-8621116D02*
X13294513Y-8621116D01*
X13346508Y-12482659D02*
X13346508Y-12822659D01*
X13176508Y-12652659D02*
X13516508Y-12652659D01*
X13357194Y-16967357D02*
X13357194Y-17307357D01*
X13187194Y-17137357D02*
X13527194Y-17137357D01*
X14151596Y-10756143D02*
X14151596Y-11096143D01*
X13981596Y-10926143D02*
X14321596Y-10926143D01*
X14162282Y-15240841D02*
X14162282Y-15580841D01*
X13992282Y-15410841D02*
X14332282Y-15410841D01*
X14956684Y-9029627D02*
X14956684Y-9369627D01*
X14786684Y-9199627D02*
X15126684Y-9199627D01*
X14967370Y-13514324D02*
X14967370Y-13854324D01*
X14797370Y-13684324D02*
X15137370Y-13684324D01*
X15154859Y-18329727D02*
X15154859Y-18669727D01*
X14984859Y-18499727D02*
X15324859Y-18499727D01*
X15772457Y-11787807D02*
X15772457Y-12127807D01*
X15602457Y-11957807D02*
X15942457Y-11957807D01*
X15783144Y-16272505D02*
X15783144Y-16612505D01*
X15613144Y-16442505D02*
X15953144Y-16442505D01*
X16577545Y-10061292D02*
X16577545Y-10401292D01*
X16407545Y-10231292D02*
X16747545Y-10231292D01*
X16588231Y-14545989D02*
X16588231Y-14885989D01*
X16418231Y-14715989D02*
X16758231Y-14715989D01*
X16833517Y-19670997D02*
X16833517Y-20010997D01*
X16663517Y-19840997D02*
X17003517Y-19840997D01*
X17393319Y-12819473D02*
X17393319Y-13159473D01*
X17223319Y-12989473D02*
X17563319Y-12989473D01*
X18198407Y-11092956D02*
X18198407Y-11432956D01*
X18028407Y-11262956D02*
X18368407Y-11262956D01*
X23913407Y-11092957D02*
X23913407Y-11432957D01*
X23743407Y-11262957D02*
X24083407Y-11262957D01*
X24718495Y-12819473D02*
X24718495Y-13159473D01*
X24548495Y-12989473D02*
X24888495Y-12989473D01*
X25278297Y-19670998D02*
X25278297Y-20010998D01*
X25108297Y-19840998D02*
X25448297Y-19840998D01*
X25523583Y-14545989D02*
X25523583Y-14885989D01*
X25353583Y-14715989D02*
X25693583Y-14715989D01*
X25534269Y-10061292D02*
X25534269Y-10401292D01*
X25364269Y-10231292D02*
X25704269Y-10231292D01*
X26328671Y-16272505D02*
X26328671Y-16612505D01*
X26158671Y-16442505D02*
X26498671Y-16442505D01*
X26339356Y-11787808D02*
X26339356Y-12127808D01*
X26169356Y-11957808D02*
X26509356Y-11957808D01*
X26956955Y-18329726D02*
X26956955Y-18669726D01*
X26786955Y-18499726D02*
X27126955Y-18499726D01*
X27144444Y-13514324D02*
X27144444Y-13854324D01*
X26974444Y-13684324D02*
X27314444Y-13684324D01*
X27155130Y-9029627D02*
X27155130Y-9369627D01*
X26985130Y-9199627D02*
X27325130Y-9199627D01*
X27949532Y-15240841D02*
X27949532Y-15580841D01*
X27779532Y-15410841D02*
X28119532Y-15410841D01*
X27960218Y-10756143D02*
X27960218Y-11096143D01*
X27790218Y-10926143D02*
X28130218Y-10926143D01*
X28754620Y-16967357D02*
X28754620Y-17307357D01*
X28584620Y-17137357D02*
X28924620Y-17137357D01*
X28765306Y-12482659D02*
X28765306Y-12822659D01*
X28595306Y-12652659D02*
X28935306Y-12652659D01*
X28987302Y-8451116D02*
X28987302Y-8791116D01*
X28817302Y-8621116D02*
X29157302Y-8621116D01*
X29570394Y-14209176D02*
X29570394Y-14549176D01*
X29400394Y-14379176D02*
X29740394Y-14379176D01*
X29792389Y-10177632D02*
X29792389Y-10517632D01*
X29622389Y-10347632D02*
X29962389Y-10347632D01*
X30375482Y-15935692D02*
X30375482Y-16275692D01*
X30205482Y-16105692D02*
X30545482Y-16105692D01*
X30597477Y-11904149D02*
X30597477Y-12244149D01*
X30427477Y-12074149D02*
X30767477Y-12074149D01*
X31094174Y-8461705D02*
X31094174Y-8801705D01*
X30924174Y-8631705D02*
X31264174Y-8631705D01*
X31402565Y-13630665D02*
X31402565Y-13970665D01*
X31232565Y-13800665D02*
X31572565Y-13800665D01*
X31899262Y-10188222D02*
X31899262Y-10528222D01*
X31729262Y-10358222D02*
X32069262Y-10358222D01*
X32207653Y-15357181D02*
X32207653Y-15697181D01*
X32037653Y-15527181D02*
X32377653Y-15527181D01*
X32704350Y-11914738D02*
X32704350Y-12254738D01*
X32534350Y-12084738D02*
X32874350Y-12084738D01*
X32820691Y-7656617D02*
X32820691Y-7996617D01*
X32650691Y-7826617D02*
X32990691Y-7826617D01*
X33509438Y-13641254D02*
X33509438Y-13981254D01*
X33339438Y-13811254D02*
X33679438Y-13811254D01*
X33625779Y-9383134D02*
X33625779Y-9723134D01*
X33455779Y-9553134D02*
X33795779Y-9553134D01*
X34430866Y-11109650D02*
X34430866Y-11449650D01*
X34260866Y-11279650D02*
X34600866Y-11279650D01*
X35235954Y-12836166D02*
X35235954Y-13176166D01*
X35065954Y-13006166D02*
X35405954Y-13006166D01*
D11*
X5534227Y-22019870D02*
X5534227Y-21819870D01*
X5534227Y-21819870D02*
X5581846Y-21819870D01*
X5581846Y-21819870D02*
X5610417Y-21829394D01*
X5610417Y-21829394D02*
X5629465Y-21848441D01*
X5629465Y-21848441D02*
X5638989Y-21867489D01*
X5638989Y-21867489D02*
X5648513Y-21905584D01*
X5648513Y-21905584D02*
X5648513Y-21934155D01*
X5648513Y-21934155D02*
X5638989Y-21972251D01*
X5638989Y-21972251D02*
X5629465Y-21991298D01*
X5629465Y-21991298D02*
X5610417Y-22010346D01*
X5610417Y-22010346D02*
X5581846Y-22019870D01*
X5581846Y-22019870D02*
X5534227Y-22019870D01*
X5734227Y-22019870D02*
X5734227Y-21886536D01*
X5734227Y-21924632D02*
X5743751Y-21905584D01*
X5743751Y-21905584D02*
X5753275Y-21896060D01*
X5753275Y-21896060D02*
X5772322Y-21886536D01*
X5772322Y-21886536D02*
X5791370Y-21886536D01*
X5858036Y-22019870D02*
X5858036Y-21886536D01*
X5858036Y-21819870D02*
X5848513Y-21829394D01*
X5848513Y-21829394D02*
X5858036Y-21838917D01*
X5858036Y-21838917D02*
X5867560Y-21829394D01*
X5867560Y-21829394D02*
X5858036Y-21819870D01*
X5858036Y-21819870D02*
X5858036Y-21838917D01*
X5981846Y-22019870D02*
X5962798Y-22010346D01*
X5962798Y-22010346D02*
X5953275Y-21991298D01*
X5953275Y-21991298D02*
X5953275Y-21819870D01*
X6086608Y-22019870D02*
X6067560Y-22010346D01*
X6067560Y-22010346D02*
X6058036Y-21991298D01*
X6058036Y-21991298D02*
X6058036Y-21819870D01*
X6315179Y-22019870D02*
X6315179Y-21819870D01*
X6315179Y-21819870D02*
X6381846Y-21962727D01*
X6381846Y-21962727D02*
X6448513Y-21819870D01*
X6448513Y-21819870D02*
X6448513Y-22019870D01*
X6629465Y-22019870D02*
X6629465Y-21915108D01*
X6629465Y-21915108D02*
X6619941Y-21896060D01*
X6619941Y-21896060D02*
X6600894Y-21886536D01*
X6600894Y-21886536D02*
X6562798Y-21886536D01*
X6562798Y-21886536D02*
X6543751Y-21896060D01*
X6629465Y-22010346D02*
X6610417Y-22019870D01*
X6610417Y-22019870D02*
X6562798Y-22019870D01*
X6562798Y-22019870D02*
X6543751Y-22010346D01*
X6543751Y-22010346D02*
X6534227Y-21991298D01*
X6534227Y-21991298D02*
X6534227Y-21972251D01*
X6534227Y-21972251D02*
X6543751Y-21953203D01*
X6543751Y-21953203D02*
X6562798Y-21943679D01*
X6562798Y-21943679D02*
X6610417Y-21943679D01*
X6610417Y-21943679D02*
X6629465Y-21934155D01*
X6724703Y-21886536D02*
X6724703Y-22086536D01*
X6724703Y-21896060D02*
X6743751Y-21886536D01*
X6743751Y-21886536D02*
X6781846Y-21886536D01*
X6781846Y-21886536D02*
X6800894Y-21896060D01*
X6800894Y-21896060D02*
X6810417Y-21905584D01*
X6810417Y-21905584D02*
X6819941Y-21924632D01*
X6819941Y-21924632D02*
X6819941Y-21981774D01*
X6819941Y-21981774D02*
X6810417Y-22000822D01*
X6810417Y-22000822D02*
X6800894Y-22010346D01*
X6800894Y-22010346D02*
X6781846Y-22019870D01*
X6781846Y-22019870D02*
X6743751Y-22019870D01*
X6743751Y-22019870D02*
X6724703Y-22010346D01*
X6905656Y-22000822D02*
X6915179Y-22010346D01*
X6915179Y-22010346D02*
X6905656Y-22019870D01*
X6905656Y-22019870D02*
X6896132Y-22010346D01*
X6896132Y-22010346D02*
X6905656Y-22000822D01*
X6905656Y-22000822D02*
X6905656Y-22019870D01*
X6905656Y-21896060D02*
X6915179Y-21905584D01*
X6915179Y-21905584D02*
X6905656Y-21915108D01*
X6905656Y-21915108D02*
X6896132Y-21905584D01*
X6896132Y-21905584D02*
X6905656Y-21896060D01*
X6905656Y-21896060D02*
X6905656Y-21915108D01*
D12*
X5083450Y-22253386D02*
X5273450Y-22443386D01*
X5273450Y-22253386D02*
X5083450Y-22443386D01*
D11*
X5638989Y-22439870D02*
X5524703Y-22439870D01*
X5581846Y-22439870D02*
X5581846Y-22239870D01*
X5581846Y-22239870D02*
X5562798Y-22268441D01*
X5562798Y-22268441D02*
X5543751Y-22287489D01*
X5543751Y-22287489D02*
X5524703Y-22297013D01*
X5724703Y-22420822D02*
X5734227Y-22430346D01*
X5734227Y-22430346D02*
X5724703Y-22439870D01*
X5724703Y-22439870D02*
X5715179Y-22430346D01*
X5715179Y-22430346D02*
X5724703Y-22420822D01*
X5724703Y-22420822D02*
X5724703Y-22439870D01*
X5829465Y-22439870D02*
X5867560Y-22439870D01*
X5867560Y-22439870D02*
X5886608Y-22430346D01*
X5886608Y-22430346D02*
X5896132Y-22420822D01*
X5896132Y-22420822D02*
X5915179Y-22392251D01*
X5915179Y-22392251D02*
X5924703Y-22354155D01*
X5924703Y-22354155D02*
X5924703Y-22277965D01*
X5924703Y-22277965D02*
X5915179Y-22258917D01*
X5915179Y-22258917D02*
X5905656Y-22249394D01*
X5905656Y-22249394D02*
X5886608Y-22239870D01*
X5886608Y-22239870D02*
X5848513Y-22239870D01*
X5848513Y-22239870D02*
X5829465Y-22249394D01*
X5829465Y-22249394D02*
X5819941Y-22258917D01*
X5819941Y-22258917D02*
X5810417Y-22277965D01*
X5810417Y-22277965D02*
X5810417Y-22325584D01*
X5810417Y-22325584D02*
X5819941Y-22344632D01*
X5819941Y-22344632D02*
X5829465Y-22354155D01*
X5829465Y-22354155D02*
X5848513Y-22363679D01*
X5848513Y-22363679D02*
X5886608Y-22363679D01*
X5886608Y-22363679D02*
X5905656Y-22354155D01*
X5905656Y-22354155D02*
X5915179Y-22344632D01*
X5915179Y-22344632D02*
X5924703Y-22325584D01*
X6048513Y-22239870D02*
X6067560Y-22239870D01*
X6067560Y-22239870D02*
X6086608Y-22249394D01*
X6086608Y-22249394D02*
X6096132Y-22258917D01*
X6096132Y-22258917D02*
X6105656Y-22277965D01*
X6105656Y-22277965D02*
X6115179Y-22316060D01*
X6115179Y-22316060D02*
X6115179Y-22363679D01*
X6115179Y-22363679D02*
X6105656Y-22401774D01*
X6105656Y-22401774D02*
X6096132Y-22420822D01*
X6096132Y-22420822D02*
X6086608Y-22430346D01*
X6086608Y-22430346D02*
X6067560Y-22439870D01*
X6067560Y-22439870D02*
X6048513Y-22439870D01*
X6048513Y-22439870D02*
X6029465Y-22430346D01*
X6029465Y-22430346D02*
X6019941Y-22420822D01*
X6019941Y-22420822D02*
X6010417Y-22401774D01*
X6010417Y-22401774D02*
X6000894Y-22363679D01*
X6000894Y-22363679D02*
X6000894Y-22316060D01*
X6000894Y-22316060D02*
X6010417Y-22277965D01*
X6010417Y-22277965D02*
X6019941Y-22258917D01*
X6019941Y-22258917D02*
X6029465Y-22249394D01*
X6029465Y-22249394D02*
X6048513Y-22239870D01*
X6238989Y-22239870D02*
X6258037Y-22239870D01*
X6258037Y-22239870D02*
X6277084Y-22249394D01*
X6277084Y-22249394D02*
X6286608Y-22258917D01*
X6286608Y-22258917D02*
X6296132Y-22277965D01*
X6296132Y-22277965D02*
X6305656Y-22316060D01*
X6305656Y-22316060D02*
X6305656Y-22363679D01*
X6305656Y-22363679D02*
X6296132Y-22401774D01*
X6296132Y-22401774D02*
X6286608Y-22420822D01*
X6286608Y-22420822D02*
X6277084Y-22430346D01*
X6277084Y-22430346D02*
X6258037Y-22439870D01*
X6258037Y-22439870D02*
X6238989Y-22439870D01*
X6238989Y-22439870D02*
X6219941Y-22430346D01*
X6219941Y-22430346D02*
X6210417Y-22420822D01*
X6210417Y-22420822D02*
X6200894Y-22401774D01*
X6200894Y-22401774D02*
X6191370Y-22363679D01*
X6191370Y-22363679D02*
X6191370Y-22316060D01*
X6191370Y-22316060D02*
X6200894Y-22277965D01*
X6200894Y-22277965D02*
X6210417Y-22258917D01*
X6210417Y-22258917D02*
X6219941Y-22249394D01*
X6219941Y-22249394D02*
X6238989Y-22239870D01*
X6391370Y-22439870D02*
X6391370Y-22306536D01*
X6391370Y-22325584D02*
X6400894Y-22316060D01*
X6400894Y-22316060D02*
X6419941Y-22306536D01*
X6419941Y-22306536D02*
X6448513Y-22306536D01*
X6448513Y-22306536D02*
X6467560Y-22316060D01*
X6467560Y-22316060D02*
X6477084Y-22335108D01*
X6477084Y-22335108D02*
X6477084Y-22439870D01*
X6477084Y-22335108D02*
X6486608Y-22316060D01*
X6486608Y-22316060D02*
X6505656Y-22306536D01*
X6505656Y-22306536D02*
X6534227Y-22306536D01*
X6534227Y-22306536D02*
X6553275Y-22316060D01*
X6553275Y-22316060D02*
X6562798Y-22335108D01*
X6562798Y-22335108D02*
X6562798Y-22439870D01*
X6658037Y-22439870D02*
X6658037Y-22306536D01*
X6658037Y-22325584D02*
X6667560Y-22316060D01*
X6667560Y-22316060D02*
X6686608Y-22306536D01*
X6686608Y-22306536D02*
X6715179Y-22306536D01*
X6715179Y-22306536D02*
X6734227Y-22316060D01*
X6734227Y-22316060D02*
X6743751Y-22335108D01*
X6743751Y-22335108D02*
X6743751Y-22439870D01*
X6743751Y-22335108D02*
X6753275Y-22316060D01*
X6753275Y-22316060D02*
X6772322Y-22306536D01*
X6772322Y-22306536D02*
X6800894Y-22306536D01*
X6800894Y-22306536D02*
X6819941Y-22316060D01*
X6819941Y-22316060D02*
X6829465Y-22335108D01*
X6829465Y-22335108D02*
X6829465Y-22439870D01*
X7219941Y-22230346D02*
X7048513Y-22487489D01*
X7477084Y-22239870D02*
X7496132Y-22239870D01*
X7496132Y-22239870D02*
X7515180Y-22249394D01*
X7515180Y-22249394D02*
X7524703Y-22258917D01*
X7524703Y-22258917D02*
X7534227Y-22277965D01*
X7534227Y-22277965D02*
X7543751Y-22316060D01*
X7543751Y-22316060D02*
X7543751Y-22363679D01*
X7543751Y-22363679D02*
X7534227Y-22401774D01*
X7534227Y-22401774D02*
X7524703Y-22420822D01*
X7524703Y-22420822D02*
X7515180Y-22430346D01*
X7515180Y-22430346D02*
X7496132Y-22439870D01*
X7496132Y-22439870D02*
X7477084Y-22439870D01*
X7477084Y-22439870D02*
X7458037Y-22430346D01*
X7458037Y-22430346D02*
X7448513Y-22420822D01*
X7448513Y-22420822D02*
X7438989Y-22401774D01*
X7438989Y-22401774D02*
X7429465Y-22363679D01*
X7429465Y-22363679D02*
X7429465Y-22316060D01*
X7429465Y-22316060D02*
X7438989Y-22277965D01*
X7438989Y-22277965D02*
X7448513Y-22258917D01*
X7448513Y-22258917D02*
X7458037Y-22249394D01*
X7458037Y-22249394D02*
X7477084Y-22239870D01*
X7629465Y-22420822D02*
X7638989Y-22430346D01*
X7638989Y-22430346D02*
X7629465Y-22439870D01*
X7629465Y-22439870D02*
X7619941Y-22430346D01*
X7619941Y-22430346D02*
X7629465Y-22420822D01*
X7629465Y-22420822D02*
X7629465Y-22439870D01*
X7762799Y-22239870D02*
X7781846Y-22239870D01*
X7781846Y-22239870D02*
X7800894Y-22249394D01*
X7800894Y-22249394D02*
X7810418Y-22258917D01*
X7810418Y-22258917D02*
X7819941Y-22277965D01*
X7819941Y-22277965D02*
X7829465Y-22316060D01*
X7829465Y-22316060D02*
X7829465Y-22363679D01*
X7829465Y-22363679D02*
X7819941Y-22401774D01*
X7819941Y-22401774D02*
X7810418Y-22420822D01*
X7810418Y-22420822D02*
X7800894Y-22430346D01*
X7800894Y-22430346D02*
X7781846Y-22439870D01*
X7781846Y-22439870D02*
X7762799Y-22439870D01*
X7762799Y-22439870D02*
X7743751Y-22430346D01*
X7743751Y-22430346D02*
X7734227Y-22420822D01*
X7734227Y-22420822D02*
X7724703Y-22401774D01*
X7724703Y-22401774D02*
X7715180Y-22363679D01*
X7715180Y-22363679D02*
X7715180Y-22316060D01*
X7715180Y-22316060D02*
X7724703Y-22277965D01*
X7724703Y-22277965D02*
X7734227Y-22258917D01*
X7734227Y-22258917D02*
X7743751Y-22249394D01*
X7743751Y-22249394D02*
X7762799Y-22239870D01*
X7896132Y-22239870D02*
X8029465Y-22239870D01*
X8029465Y-22239870D02*
X7943751Y-22439870D01*
X8191370Y-22306536D02*
X8191370Y-22439870D01*
X8143751Y-22230346D02*
X8096132Y-22373203D01*
X8096132Y-22373203D02*
X8219941Y-22373203D01*
X8324703Y-22325584D02*
X8305656Y-22316060D01*
X8305656Y-22316060D02*
X8296132Y-22306536D01*
X8296132Y-22306536D02*
X8286608Y-22287489D01*
X8286608Y-22287489D02*
X8286608Y-22277965D01*
X8286608Y-22277965D02*
X8296132Y-22258917D01*
X8296132Y-22258917D02*
X8305656Y-22249394D01*
X8305656Y-22249394D02*
X8324703Y-22239870D01*
X8324703Y-22239870D02*
X8362799Y-22239870D01*
X8362799Y-22239870D02*
X8381846Y-22249394D01*
X8381846Y-22249394D02*
X8391370Y-22258917D01*
X8391370Y-22258917D02*
X8400894Y-22277965D01*
X8400894Y-22277965D02*
X8400894Y-22287489D01*
X8400894Y-22287489D02*
X8391370Y-22306536D01*
X8391370Y-22306536D02*
X8381846Y-22316060D01*
X8381846Y-22316060D02*
X8362799Y-22325584D01*
X8362799Y-22325584D02*
X8324703Y-22325584D01*
X8324703Y-22325584D02*
X8305656Y-22335108D01*
X8305656Y-22335108D02*
X8296132Y-22344632D01*
X8296132Y-22344632D02*
X8286608Y-22363679D01*
X8286608Y-22363679D02*
X8286608Y-22401774D01*
X8286608Y-22401774D02*
X8296132Y-22420822D01*
X8296132Y-22420822D02*
X8305656Y-22430346D01*
X8305656Y-22430346D02*
X8324703Y-22439870D01*
X8324703Y-22439870D02*
X8362799Y-22439870D01*
X8362799Y-22439870D02*
X8381846Y-22430346D01*
X8381846Y-22430346D02*
X8391370Y-22420822D01*
X8391370Y-22420822D02*
X8400894Y-22401774D01*
X8400894Y-22401774D02*
X8400894Y-22363679D01*
X8400894Y-22363679D02*
X8391370Y-22344632D01*
X8391370Y-22344632D02*
X8381846Y-22335108D01*
X8381846Y-22335108D02*
X8362799Y-22325584D01*
X8477084Y-22239870D02*
X8477084Y-22277965D01*
X8553275Y-22239870D02*
X8553275Y-22277965D01*
X8848513Y-22516060D02*
X8838989Y-22506536D01*
X8838989Y-22506536D02*
X8819942Y-22477965D01*
X8819942Y-22477965D02*
X8810418Y-22458917D01*
X8810418Y-22458917D02*
X8800894Y-22430346D01*
X8800894Y-22430346D02*
X8791370Y-22382727D01*
X8791370Y-22382727D02*
X8791370Y-22344632D01*
X8791370Y-22344632D02*
X8800894Y-22297013D01*
X8800894Y-22297013D02*
X8810418Y-22268441D01*
X8810418Y-22268441D02*
X8819942Y-22249394D01*
X8819942Y-22249394D02*
X8838989Y-22220822D01*
X8838989Y-22220822D02*
X8848513Y-22211298D01*
X9029465Y-22439870D02*
X8915180Y-22439870D01*
X8972323Y-22439870D02*
X8972323Y-22239870D01*
X8972323Y-22239870D02*
X8953275Y-22268441D01*
X8953275Y-22268441D02*
X8934227Y-22287489D01*
X8934227Y-22287489D02*
X8915180Y-22297013D01*
X9219942Y-22439870D02*
X9105656Y-22439870D01*
X9162799Y-22439870D02*
X9162799Y-22239870D01*
X9162799Y-22239870D02*
X9143751Y-22268441D01*
X9143751Y-22268441D02*
X9124704Y-22287489D01*
X9124704Y-22287489D02*
X9105656Y-22297013D01*
X9391370Y-22239870D02*
X9353275Y-22239870D01*
X9353275Y-22239870D02*
X9334227Y-22249394D01*
X9334227Y-22249394D02*
X9324704Y-22258917D01*
X9324704Y-22258917D02*
X9305656Y-22287489D01*
X9305656Y-22287489D02*
X9296132Y-22325584D01*
X9296132Y-22325584D02*
X9296132Y-22401774D01*
X9296132Y-22401774D02*
X9305656Y-22420822D01*
X9305656Y-22420822D02*
X9315180Y-22430346D01*
X9315180Y-22430346D02*
X9334227Y-22439870D01*
X9334227Y-22439870D02*
X9372323Y-22439870D01*
X9372323Y-22439870D02*
X9391370Y-22430346D01*
X9391370Y-22430346D02*
X9400894Y-22420822D01*
X9400894Y-22420822D02*
X9410418Y-22401774D01*
X9410418Y-22401774D02*
X9410418Y-22354155D01*
X9410418Y-22354155D02*
X9400894Y-22335108D01*
X9400894Y-22335108D02*
X9391370Y-22325584D01*
X9391370Y-22325584D02*
X9372323Y-22316060D01*
X9372323Y-22316060D02*
X9334227Y-22316060D01*
X9334227Y-22316060D02*
X9315180Y-22325584D01*
X9315180Y-22325584D02*
X9305656Y-22335108D01*
X9305656Y-22335108D02*
X9296132Y-22354155D01*
X9648513Y-22439870D02*
X9648513Y-22239870D01*
X9734227Y-22439870D02*
X9734227Y-22335108D01*
X9734227Y-22335108D02*
X9724704Y-22316060D01*
X9724704Y-22316060D02*
X9705656Y-22306536D01*
X9705656Y-22306536D02*
X9677085Y-22306536D01*
X9677085Y-22306536D02*
X9658037Y-22316060D01*
X9658037Y-22316060D02*
X9648513Y-22325584D01*
X9858037Y-22439870D02*
X9838989Y-22430346D01*
X9838989Y-22430346D02*
X9829466Y-22420822D01*
X9829466Y-22420822D02*
X9819942Y-22401774D01*
X9819942Y-22401774D02*
X9819942Y-22344632D01*
X9819942Y-22344632D02*
X9829466Y-22325584D01*
X9829466Y-22325584D02*
X9838989Y-22316060D01*
X9838989Y-22316060D02*
X9858037Y-22306536D01*
X9858037Y-22306536D02*
X9886608Y-22306536D01*
X9886608Y-22306536D02*
X9905656Y-22316060D01*
X9905656Y-22316060D02*
X9915180Y-22325584D01*
X9915180Y-22325584D02*
X9924704Y-22344632D01*
X9924704Y-22344632D02*
X9924704Y-22401774D01*
X9924704Y-22401774D02*
X9915180Y-22420822D01*
X9915180Y-22420822D02*
X9905656Y-22430346D01*
X9905656Y-22430346D02*
X9886608Y-22439870D01*
X9886608Y-22439870D02*
X9858037Y-22439870D01*
X10038989Y-22439870D02*
X10019942Y-22430346D01*
X10019942Y-22430346D02*
X10010418Y-22411298D01*
X10010418Y-22411298D02*
X10010418Y-22239870D01*
X10191370Y-22430346D02*
X10172323Y-22439870D01*
X10172323Y-22439870D02*
X10134227Y-22439870D01*
X10134227Y-22439870D02*
X10115180Y-22430346D01*
X10115180Y-22430346D02*
X10105656Y-22411298D01*
X10105656Y-22411298D02*
X10105656Y-22335108D01*
X10105656Y-22335108D02*
X10115180Y-22316060D01*
X10115180Y-22316060D02*
X10134227Y-22306536D01*
X10134227Y-22306536D02*
X10172323Y-22306536D01*
X10172323Y-22306536D02*
X10191370Y-22316060D01*
X10191370Y-22316060D02*
X10200894Y-22335108D01*
X10200894Y-22335108D02*
X10200894Y-22354155D01*
X10200894Y-22354155D02*
X10105656Y-22373203D01*
X10277085Y-22430346D02*
X10296132Y-22439870D01*
X10296132Y-22439870D02*
X10334227Y-22439870D01*
X10334227Y-22439870D02*
X10353275Y-22430346D01*
X10353275Y-22430346D02*
X10362799Y-22411298D01*
X10362799Y-22411298D02*
X10362799Y-22401774D01*
X10362799Y-22401774D02*
X10353275Y-22382727D01*
X10353275Y-22382727D02*
X10334227Y-22373203D01*
X10334227Y-22373203D02*
X10305656Y-22373203D01*
X10305656Y-22373203D02*
X10286608Y-22363679D01*
X10286608Y-22363679D02*
X10277085Y-22344632D01*
X10277085Y-22344632D02*
X10277085Y-22335108D01*
X10277085Y-22335108D02*
X10286608Y-22316060D01*
X10286608Y-22316060D02*
X10305656Y-22306536D01*
X10305656Y-22306536D02*
X10334227Y-22306536D01*
X10334227Y-22306536D02*
X10353275Y-22316060D01*
X10429466Y-22516060D02*
X10438989Y-22506536D01*
X10438989Y-22506536D02*
X10458037Y-22477965D01*
X10458037Y-22477965D02*
X10467561Y-22458917D01*
X10467561Y-22458917D02*
X10477085Y-22430346D01*
X10477085Y-22430346D02*
X10486608Y-22382727D01*
X10486608Y-22382727D02*
X10486608Y-22344632D01*
X10486608Y-22344632D02*
X10477085Y-22297013D01*
X10477085Y-22297013D02*
X10467561Y-22268441D01*
X10467561Y-22268441D02*
X10458037Y-22249394D01*
X10458037Y-22249394D02*
X10438989Y-22220822D01*
X10438989Y-22220822D02*
X10429466Y-22211298D01*
X10791370Y-22516060D02*
X10781847Y-22506536D01*
X10781847Y-22506536D02*
X10762799Y-22477965D01*
X10762799Y-22477965D02*
X10753275Y-22458917D01*
X10753275Y-22458917D02*
X10743751Y-22430346D01*
X10743751Y-22430346D02*
X10734228Y-22382727D01*
X10734228Y-22382727D02*
X10734228Y-22344632D01*
X10734228Y-22344632D02*
X10743751Y-22297013D01*
X10743751Y-22297013D02*
X10753275Y-22268441D01*
X10753275Y-22268441D02*
X10762799Y-22249394D01*
X10762799Y-22249394D02*
X10781847Y-22220822D01*
X10781847Y-22220822D02*
X10791370Y-22211298D01*
X10867561Y-22306536D02*
X10867561Y-22439870D01*
X10867561Y-22325584D02*
X10877085Y-22316060D01*
X10877085Y-22316060D02*
X10896132Y-22306536D01*
X10896132Y-22306536D02*
X10924704Y-22306536D01*
X10924704Y-22306536D02*
X10943751Y-22316060D01*
X10943751Y-22316060D02*
X10953275Y-22335108D01*
X10953275Y-22335108D02*
X10953275Y-22439870D01*
X11077085Y-22439870D02*
X11058037Y-22430346D01*
X11058037Y-22430346D02*
X11048513Y-22420822D01*
X11048513Y-22420822D02*
X11038989Y-22401774D01*
X11038989Y-22401774D02*
X11038989Y-22344632D01*
X11038989Y-22344632D02*
X11048513Y-22325584D01*
X11048513Y-22325584D02*
X11058037Y-22316060D01*
X11058037Y-22316060D02*
X11077085Y-22306536D01*
X11077085Y-22306536D02*
X11105656Y-22306536D01*
X11105656Y-22306536D02*
X11124704Y-22316060D01*
X11124704Y-22316060D02*
X11134228Y-22325584D01*
X11134228Y-22325584D02*
X11143751Y-22344632D01*
X11143751Y-22344632D02*
X11143751Y-22401774D01*
X11143751Y-22401774D02*
X11134228Y-22420822D01*
X11134228Y-22420822D02*
X11124704Y-22430346D01*
X11124704Y-22430346D02*
X11105656Y-22439870D01*
X11105656Y-22439870D02*
X11077085Y-22439870D01*
X11200894Y-22306536D02*
X11277085Y-22306536D01*
X11229466Y-22239870D02*
X11229466Y-22411298D01*
X11229466Y-22411298D02*
X11238989Y-22430346D01*
X11238989Y-22430346D02*
X11258037Y-22439870D01*
X11258037Y-22439870D02*
X11277085Y-22439870D01*
X11496132Y-22306536D02*
X11496132Y-22506536D01*
X11496132Y-22316060D02*
X11515180Y-22306536D01*
X11515180Y-22306536D02*
X11553275Y-22306536D01*
X11553275Y-22306536D02*
X11572323Y-22316060D01*
X11572323Y-22316060D02*
X11581847Y-22325584D01*
X11581847Y-22325584D02*
X11591370Y-22344632D01*
X11591370Y-22344632D02*
X11591370Y-22401774D01*
X11591370Y-22401774D02*
X11581847Y-22420822D01*
X11581847Y-22420822D02*
X11572323Y-22430346D01*
X11572323Y-22430346D02*
X11553275Y-22439870D01*
X11553275Y-22439870D02*
X11515180Y-22439870D01*
X11515180Y-22439870D02*
X11496132Y-22430346D01*
X11705656Y-22439870D02*
X11686608Y-22430346D01*
X11686608Y-22430346D02*
X11677085Y-22411298D01*
X11677085Y-22411298D02*
X11677085Y-22239870D01*
X11867561Y-22439870D02*
X11867561Y-22335108D01*
X11867561Y-22335108D02*
X11858037Y-22316060D01*
X11858037Y-22316060D02*
X11838989Y-22306536D01*
X11838989Y-22306536D02*
X11800894Y-22306536D01*
X11800894Y-22306536D02*
X11781847Y-22316060D01*
X11867561Y-22430346D02*
X11848513Y-22439870D01*
X11848513Y-22439870D02*
X11800894Y-22439870D01*
X11800894Y-22439870D02*
X11781847Y-22430346D01*
X11781847Y-22430346D02*
X11772323Y-22411298D01*
X11772323Y-22411298D02*
X11772323Y-22392251D01*
X11772323Y-22392251D02*
X11781847Y-22373203D01*
X11781847Y-22373203D02*
X11800894Y-22363679D01*
X11800894Y-22363679D02*
X11848513Y-22363679D01*
X11848513Y-22363679D02*
X11867561Y-22354155D01*
X11934228Y-22306536D02*
X12010418Y-22306536D01*
X11962799Y-22239870D02*
X11962799Y-22411298D01*
X11962799Y-22411298D02*
X11972323Y-22430346D01*
X11972323Y-22430346D02*
X11991370Y-22439870D01*
X11991370Y-22439870D02*
X12010418Y-22439870D01*
X12153275Y-22430346D02*
X12134228Y-22439870D01*
X12134228Y-22439870D02*
X12096132Y-22439870D01*
X12096132Y-22439870D02*
X12077085Y-22430346D01*
X12077085Y-22430346D02*
X12067561Y-22411298D01*
X12067561Y-22411298D02*
X12067561Y-22335108D01*
X12067561Y-22335108D02*
X12077085Y-22316060D01*
X12077085Y-22316060D02*
X12096132Y-22306536D01*
X12096132Y-22306536D02*
X12134228Y-22306536D01*
X12134228Y-22306536D02*
X12153275Y-22316060D01*
X12153275Y-22316060D02*
X12162799Y-22335108D01*
X12162799Y-22335108D02*
X12162799Y-22354155D01*
X12162799Y-22354155D02*
X12067561Y-22373203D01*
X12334228Y-22439870D02*
X12334228Y-22239870D01*
X12334228Y-22430346D02*
X12315180Y-22439870D01*
X12315180Y-22439870D02*
X12277085Y-22439870D01*
X12277085Y-22439870D02*
X12258037Y-22430346D01*
X12258037Y-22430346D02*
X12248513Y-22420822D01*
X12248513Y-22420822D02*
X12238989Y-22401774D01*
X12238989Y-22401774D02*
X12238989Y-22344632D01*
X12238989Y-22344632D02*
X12248513Y-22325584D01*
X12248513Y-22325584D02*
X12258037Y-22316060D01*
X12258037Y-22316060D02*
X12277085Y-22306536D01*
X12277085Y-22306536D02*
X12315180Y-22306536D01*
X12315180Y-22306536D02*
X12334228Y-22316060D01*
X12410418Y-22516060D02*
X12419942Y-22506536D01*
X12419942Y-22506536D02*
X12438989Y-22477965D01*
X12438989Y-22477965D02*
X12448513Y-22458917D01*
X12448513Y-22458917D02*
X12458037Y-22430346D01*
X12458037Y-22430346D02*
X12467561Y-22382727D01*
X12467561Y-22382727D02*
X12467561Y-22344632D01*
X12467561Y-22344632D02*
X12458037Y-22297013D01*
X12458037Y-22297013D02*
X12448513Y-22268441D01*
X12448513Y-22268441D02*
X12438989Y-22249394D01*
X12438989Y-22249394D02*
X12419942Y-22220822D01*
X12419942Y-22220822D02*
X12410418Y-22211298D01*
X5273450Y-22658386D02*
G75*
G02*
X5073450Y-22658386I-100000J0D01*
G01*
X5073450Y-22658386D02*
G75*
G02*
X5273450Y-22658386I100000J0D01*
G01*
X5515179Y-22549870D02*
X5638989Y-22549870D01*
X5638989Y-22549870D02*
X5572322Y-22626060D01*
X5572322Y-22626060D02*
X5600894Y-22626060D01*
X5600894Y-22626060D02*
X5619941Y-22635584D01*
X5619941Y-22635584D02*
X5629465Y-22645108D01*
X5629465Y-22645108D02*
X5638989Y-22664155D01*
X5638989Y-22664155D02*
X5638989Y-22711774D01*
X5638989Y-22711774D02*
X5629465Y-22730822D01*
X5629465Y-22730822D02*
X5619941Y-22740346D01*
X5619941Y-22740346D02*
X5600894Y-22749870D01*
X5600894Y-22749870D02*
X5543751Y-22749870D01*
X5543751Y-22749870D02*
X5524703Y-22740346D01*
X5524703Y-22740346D02*
X5515179Y-22730822D01*
X5724703Y-22730822D02*
X5734227Y-22740346D01*
X5734227Y-22740346D02*
X5724703Y-22749870D01*
X5724703Y-22749870D02*
X5715179Y-22740346D01*
X5715179Y-22740346D02*
X5724703Y-22730822D01*
X5724703Y-22730822D02*
X5724703Y-22749870D01*
X5858036Y-22549870D02*
X5877084Y-22549870D01*
X5877084Y-22549870D02*
X5896132Y-22559393D01*
X5896132Y-22559393D02*
X5905656Y-22568917D01*
X5905656Y-22568917D02*
X5915179Y-22587965D01*
X5915179Y-22587965D02*
X5924703Y-22626060D01*
X5924703Y-22626060D02*
X5924703Y-22673679D01*
X5924703Y-22673679D02*
X5915179Y-22711774D01*
X5915179Y-22711774D02*
X5905656Y-22730822D01*
X5905656Y-22730822D02*
X5896132Y-22740346D01*
X5896132Y-22740346D02*
X5877084Y-22749870D01*
X5877084Y-22749870D02*
X5858036Y-22749870D01*
X5858036Y-22749870D02*
X5838989Y-22740346D01*
X5838989Y-22740346D02*
X5829465Y-22730822D01*
X5829465Y-22730822D02*
X5819941Y-22711774D01*
X5819941Y-22711774D02*
X5810417Y-22673679D01*
X5810417Y-22673679D02*
X5810417Y-22626060D01*
X5810417Y-22626060D02*
X5819941Y-22587965D01*
X5819941Y-22587965D02*
X5829465Y-22568917D01*
X5829465Y-22568917D02*
X5838989Y-22559393D01*
X5838989Y-22559393D02*
X5858036Y-22549870D01*
X6048513Y-22549870D02*
X6067560Y-22549870D01*
X6067560Y-22549870D02*
X6086608Y-22559393D01*
X6086608Y-22559393D02*
X6096132Y-22568917D01*
X6096132Y-22568917D02*
X6105656Y-22587965D01*
X6105656Y-22587965D02*
X6115179Y-22626060D01*
X6115179Y-22626060D02*
X6115179Y-22673679D01*
X6115179Y-22673679D02*
X6105656Y-22711774D01*
X6105656Y-22711774D02*
X6096132Y-22730822D01*
X6096132Y-22730822D02*
X6086608Y-22740346D01*
X6086608Y-22740346D02*
X6067560Y-22749870D01*
X6067560Y-22749870D02*
X6048513Y-22749870D01*
X6048513Y-22749870D02*
X6029465Y-22740346D01*
X6029465Y-22740346D02*
X6019941Y-22730822D01*
X6019941Y-22730822D02*
X6010417Y-22711774D01*
X6010417Y-22711774D02*
X6000894Y-22673679D01*
X6000894Y-22673679D02*
X6000894Y-22626060D01*
X6000894Y-22626060D02*
X6010417Y-22587965D01*
X6010417Y-22587965D02*
X6019941Y-22568917D01*
X6019941Y-22568917D02*
X6029465Y-22559393D01*
X6029465Y-22559393D02*
X6048513Y-22549870D01*
X6238989Y-22549870D02*
X6258037Y-22549870D01*
X6258037Y-22549870D02*
X6277084Y-22559393D01*
X6277084Y-22559393D02*
X6286608Y-22568917D01*
X6286608Y-22568917D02*
X6296132Y-22587965D01*
X6296132Y-22587965D02*
X6305656Y-22626060D01*
X6305656Y-22626060D02*
X6305656Y-22673679D01*
X6305656Y-22673679D02*
X6296132Y-22711774D01*
X6296132Y-22711774D02*
X6286608Y-22730822D01*
X6286608Y-22730822D02*
X6277084Y-22740346D01*
X6277084Y-22740346D02*
X6258037Y-22749870D01*
X6258037Y-22749870D02*
X6238989Y-22749870D01*
X6238989Y-22749870D02*
X6219941Y-22740346D01*
X6219941Y-22740346D02*
X6210417Y-22730822D01*
X6210417Y-22730822D02*
X6200894Y-22711774D01*
X6200894Y-22711774D02*
X6191370Y-22673679D01*
X6191370Y-22673679D02*
X6191370Y-22626060D01*
X6191370Y-22626060D02*
X6200894Y-22587965D01*
X6200894Y-22587965D02*
X6210417Y-22568917D01*
X6210417Y-22568917D02*
X6219941Y-22559393D01*
X6219941Y-22559393D02*
X6238989Y-22549870D01*
X6391370Y-22749870D02*
X6391370Y-22616536D01*
X6391370Y-22635584D02*
X6400894Y-22626060D01*
X6400894Y-22626060D02*
X6419941Y-22616536D01*
X6419941Y-22616536D02*
X6448513Y-22616536D01*
X6448513Y-22616536D02*
X6467560Y-22626060D01*
X6467560Y-22626060D02*
X6477084Y-22645108D01*
X6477084Y-22645108D02*
X6477084Y-22749870D01*
X6477084Y-22645108D02*
X6486608Y-22626060D01*
X6486608Y-22626060D02*
X6505656Y-22616536D01*
X6505656Y-22616536D02*
X6534227Y-22616536D01*
X6534227Y-22616536D02*
X6553275Y-22626060D01*
X6553275Y-22626060D02*
X6562798Y-22645108D01*
X6562798Y-22645108D02*
X6562798Y-22749870D01*
X6658037Y-22749870D02*
X6658037Y-22616536D01*
X6658037Y-22635584D02*
X6667560Y-22626060D01*
X6667560Y-22626060D02*
X6686608Y-22616536D01*
X6686608Y-22616536D02*
X6715179Y-22616536D01*
X6715179Y-22616536D02*
X6734227Y-22626060D01*
X6734227Y-22626060D02*
X6743751Y-22645108D01*
X6743751Y-22645108D02*
X6743751Y-22749870D01*
X6743751Y-22645108D02*
X6753275Y-22626060D01*
X6753275Y-22626060D02*
X6772322Y-22616536D01*
X6772322Y-22616536D02*
X6800894Y-22616536D01*
X6800894Y-22616536D02*
X6819941Y-22626060D01*
X6819941Y-22626060D02*
X6829465Y-22645108D01*
X6829465Y-22645108D02*
X6829465Y-22749870D01*
X7219941Y-22540346D02*
X7048513Y-22797489D01*
X7477084Y-22549870D02*
X7496132Y-22549870D01*
X7496132Y-22549870D02*
X7515180Y-22559393D01*
X7515180Y-22559393D02*
X7524703Y-22568917D01*
X7524703Y-22568917D02*
X7534227Y-22587965D01*
X7534227Y-22587965D02*
X7543751Y-22626060D01*
X7543751Y-22626060D02*
X7543751Y-22673679D01*
X7543751Y-22673679D02*
X7534227Y-22711774D01*
X7534227Y-22711774D02*
X7524703Y-22730822D01*
X7524703Y-22730822D02*
X7515180Y-22740346D01*
X7515180Y-22740346D02*
X7496132Y-22749870D01*
X7496132Y-22749870D02*
X7477084Y-22749870D01*
X7477084Y-22749870D02*
X7458037Y-22740346D01*
X7458037Y-22740346D02*
X7448513Y-22730822D01*
X7448513Y-22730822D02*
X7438989Y-22711774D01*
X7438989Y-22711774D02*
X7429465Y-22673679D01*
X7429465Y-22673679D02*
X7429465Y-22626060D01*
X7429465Y-22626060D02*
X7438989Y-22587965D01*
X7438989Y-22587965D02*
X7448513Y-22568917D01*
X7448513Y-22568917D02*
X7458037Y-22559393D01*
X7458037Y-22559393D02*
X7477084Y-22549870D01*
X7629465Y-22730822D02*
X7638989Y-22740346D01*
X7638989Y-22740346D02*
X7629465Y-22749870D01*
X7629465Y-22749870D02*
X7619941Y-22740346D01*
X7619941Y-22740346D02*
X7629465Y-22730822D01*
X7629465Y-22730822D02*
X7629465Y-22749870D01*
X7829465Y-22749870D02*
X7715180Y-22749870D01*
X7772322Y-22749870D02*
X7772322Y-22549870D01*
X7772322Y-22549870D02*
X7753275Y-22578441D01*
X7753275Y-22578441D02*
X7734227Y-22597489D01*
X7734227Y-22597489D02*
X7715180Y-22607012D01*
X8019941Y-22749870D02*
X7905656Y-22749870D01*
X7962799Y-22749870D02*
X7962799Y-22549870D01*
X7962799Y-22549870D02*
X7943751Y-22578441D01*
X7943751Y-22578441D02*
X7924703Y-22597489D01*
X7924703Y-22597489D02*
X7905656Y-22607012D01*
X8134227Y-22635584D02*
X8115180Y-22626060D01*
X8115180Y-22626060D02*
X8105656Y-22616536D01*
X8105656Y-22616536D02*
X8096132Y-22597489D01*
X8096132Y-22597489D02*
X8096132Y-22587965D01*
X8096132Y-22587965D02*
X8105656Y-22568917D01*
X8105656Y-22568917D02*
X8115180Y-22559393D01*
X8115180Y-22559393D02*
X8134227Y-22549870D01*
X8134227Y-22549870D02*
X8172322Y-22549870D01*
X8172322Y-22549870D02*
X8191370Y-22559393D01*
X8191370Y-22559393D02*
X8200894Y-22568917D01*
X8200894Y-22568917D02*
X8210418Y-22587965D01*
X8210418Y-22587965D02*
X8210418Y-22597489D01*
X8210418Y-22597489D02*
X8200894Y-22616536D01*
X8200894Y-22616536D02*
X8191370Y-22626060D01*
X8191370Y-22626060D02*
X8172322Y-22635584D01*
X8172322Y-22635584D02*
X8134227Y-22635584D01*
X8134227Y-22635584D02*
X8115180Y-22645108D01*
X8115180Y-22645108D02*
X8105656Y-22654632D01*
X8105656Y-22654632D02*
X8096132Y-22673679D01*
X8096132Y-22673679D02*
X8096132Y-22711774D01*
X8096132Y-22711774D02*
X8105656Y-22730822D01*
X8105656Y-22730822D02*
X8115180Y-22740346D01*
X8115180Y-22740346D02*
X8134227Y-22749870D01*
X8134227Y-22749870D02*
X8172322Y-22749870D01*
X8172322Y-22749870D02*
X8191370Y-22740346D01*
X8191370Y-22740346D02*
X8200894Y-22730822D01*
X8200894Y-22730822D02*
X8210418Y-22711774D01*
X8210418Y-22711774D02*
X8210418Y-22673679D01*
X8210418Y-22673679D02*
X8200894Y-22654632D01*
X8200894Y-22654632D02*
X8191370Y-22645108D01*
X8191370Y-22645108D02*
X8172322Y-22635584D01*
X8400894Y-22749870D02*
X8286608Y-22749870D01*
X8343751Y-22749870D02*
X8343751Y-22549870D01*
X8343751Y-22549870D02*
X8324703Y-22578441D01*
X8324703Y-22578441D02*
X8305656Y-22597489D01*
X8305656Y-22597489D02*
X8286608Y-22607012D01*
X8477084Y-22549870D02*
X8477084Y-22587965D01*
X8553275Y-22549870D02*
X8553275Y-22587965D01*
X8848513Y-22826060D02*
X8838989Y-22816536D01*
X8838989Y-22816536D02*
X8819942Y-22787965D01*
X8819942Y-22787965D02*
X8810418Y-22768917D01*
X8810418Y-22768917D02*
X8800894Y-22740346D01*
X8800894Y-22740346D02*
X8791370Y-22692727D01*
X8791370Y-22692727D02*
X8791370Y-22654632D01*
X8791370Y-22654632D02*
X8800894Y-22607012D01*
X8800894Y-22607012D02*
X8810418Y-22578441D01*
X8810418Y-22578441D02*
X8819942Y-22559393D01*
X8819942Y-22559393D02*
X8838989Y-22530822D01*
X8838989Y-22530822D02*
X8848513Y-22521298D01*
X9029465Y-22749870D02*
X8915180Y-22749870D01*
X8972323Y-22749870D02*
X8972323Y-22549870D01*
X8972323Y-22549870D02*
X8953275Y-22578441D01*
X8953275Y-22578441D02*
X8934227Y-22597489D01*
X8934227Y-22597489D02*
X8915180Y-22607012D01*
X9219942Y-22749870D02*
X9105656Y-22749870D01*
X9162799Y-22749870D02*
X9162799Y-22549870D01*
X9162799Y-22549870D02*
X9143751Y-22578441D01*
X9143751Y-22578441D02*
X9124704Y-22597489D01*
X9124704Y-22597489D02*
X9105656Y-22607012D01*
X9391370Y-22549870D02*
X9353275Y-22549870D01*
X9353275Y-22549870D02*
X9334227Y-22559393D01*
X9334227Y-22559393D02*
X9324704Y-22568917D01*
X9324704Y-22568917D02*
X9305656Y-22597489D01*
X9305656Y-22597489D02*
X9296132Y-22635584D01*
X9296132Y-22635584D02*
X9296132Y-22711774D01*
X9296132Y-22711774D02*
X9305656Y-22730822D01*
X9305656Y-22730822D02*
X9315180Y-22740346D01*
X9315180Y-22740346D02*
X9334227Y-22749870D01*
X9334227Y-22749870D02*
X9372323Y-22749870D01*
X9372323Y-22749870D02*
X9391370Y-22740346D01*
X9391370Y-22740346D02*
X9400894Y-22730822D01*
X9400894Y-22730822D02*
X9410418Y-22711774D01*
X9410418Y-22711774D02*
X9410418Y-22664155D01*
X9410418Y-22664155D02*
X9400894Y-22645108D01*
X9400894Y-22645108D02*
X9391370Y-22635584D01*
X9391370Y-22635584D02*
X9372323Y-22626060D01*
X9372323Y-22626060D02*
X9334227Y-22626060D01*
X9334227Y-22626060D02*
X9315180Y-22635584D01*
X9315180Y-22635584D02*
X9305656Y-22645108D01*
X9305656Y-22645108D02*
X9296132Y-22664155D01*
X9648513Y-22749870D02*
X9648513Y-22549870D01*
X9734227Y-22749870D02*
X9734227Y-22645108D01*
X9734227Y-22645108D02*
X9724704Y-22626060D01*
X9724704Y-22626060D02*
X9705656Y-22616536D01*
X9705656Y-22616536D02*
X9677085Y-22616536D01*
X9677085Y-22616536D02*
X9658037Y-22626060D01*
X9658037Y-22626060D02*
X9648513Y-22635584D01*
X9858037Y-22749870D02*
X9838989Y-22740346D01*
X9838989Y-22740346D02*
X9829466Y-22730822D01*
X9829466Y-22730822D02*
X9819942Y-22711774D01*
X9819942Y-22711774D02*
X9819942Y-22654632D01*
X9819942Y-22654632D02*
X9829466Y-22635584D01*
X9829466Y-22635584D02*
X9838989Y-22626060D01*
X9838989Y-22626060D02*
X9858037Y-22616536D01*
X9858037Y-22616536D02*
X9886608Y-22616536D01*
X9886608Y-22616536D02*
X9905656Y-22626060D01*
X9905656Y-22626060D02*
X9915180Y-22635584D01*
X9915180Y-22635584D02*
X9924704Y-22654632D01*
X9924704Y-22654632D02*
X9924704Y-22711774D01*
X9924704Y-22711774D02*
X9915180Y-22730822D01*
X9915180Y-22730822D02*
X9905656Y-22740346D01*
X9905656Y-22740346D02*
X9886608Y-22749870D01*
X9886608Y-22749870D02*
X9858037Y-22749870D01*
X10038989Y-22749870D02*
X10019942Y-22740346D01*
X10019942Y-22740346D02*
X10010418Y-22721298D01*
X10010418Y-22721298D02*
X10010418Y-22549870D01*
X10191370Y-22740346D02*
X10172323Y-22749870D01*
X10172323Y-22749870D02*
X10134227Y-22749870D01*
X10134227Y-22749870D02*
X10115180Y-22740346D01*
X10115180Y-22740346D02*
X10105656Y-22721298D01*
X10105656Y-22721298D02*
X10105656Y-22645108D01*
X10105656Y-22645108D02*
X10115180Y-22626060D01*
X10115180Y-22626060D02*
X10134227Y-22616536D01*
X10134227Y-22616536D02*
X10172323Y-22616536D01*
X10172323Y-22616536D02*
X10191370Y-22626060D01*
X10191370Y-22626060D02*
X10200894Y-22645108D01*
X10200894Y-22645108D02*
X10200894Y-22664155D01*
X10200894Y-22664155D02*
X10105656Y-22683203D01*
X10277085Y-22740346D02*
X10296132Y-22749870D01*
X10296132Y-22749870D02*
X10334227Y-22749870D01*
X10334227Y-22749870D02*
X10353275Y-22740346D01*
X10353275Y-22740346D02*
X10362799Y-22721298D01*
X10362799Y-22721298D02*
X10362799Y-22711774D01*
X10362799Y-22711774D02*
X10353275Y-22692727D01*
X10353275Y-22692727D02*
X10334227Y-22683203D01*
X10334227Y-22683203D02*
X10305656Y-22683203D01*
X10305656Y-22683203D02*
X10286608Y-22673679D01*
X10286608Y-22673679D02*
X10277085Y-22654632D01*
X10277085Y-22654632D02*
X10277085Y-22645108D01*
X10277085Y-22645108D02*
X10286608Y-22626060D01*
X10286608Y-22626060D02*
X10305656Y-22616536D01*
X10305656Y-22616536D02*
X10334227Y-22616536D01*
X10334227Y-22616536D02*
X10353275Y-22626060D01*
X10429466Y-22826060D02*
X10438989Y-22816536D01*
X10438989Y-22816536D02*
X10458037Y-22787965D01*
X10458037Y-22787965D02*
X10467561Y-22768917D01*
X10467561Y-22768917D02*
X10477085Y-22740346D01*
X10477085Y-22740346D02*
X10486608Y-22692727D01*
X10486608Y-22692727D02*
X10486608Y-22654632D01*
X10486608Y-22654632D02*
X10477085Y-22607012D01*
X10477085Y-22607012D02*
X10467561Y-22578441D01*
X10467561Y-22578441D02*
X10458037Y-22559393D01*
X10458037Y-22559393D02*
X10438989Y-22530822D01*
X10438989Y-22530822D02*
X10429466Y-22521298D01*
X10791370Y-22826060D02*
X10781847Y-22816536D01*
X10781847Y-22816536D02*
X10762799Y-22787965D01*
X10762799Y-22787965D02*
X10753275Y-22768917D01*
X10753275Y-22768917D02*
X10743751Y-22740346D01*
X10743751Y-22740346D02*
X10734228Y-22692727D01*
X10734228Y-22692727D02*
X10734228Y-22654632D01*
X10734228Y-22654632D02*
X10743751Y-22607012D01*
X10743751Y-22607012D02*
X10753275Y-22578441D01*
X10753275Y-22578441D02*
X10762799Y-22559393D01*
X10762799Y-22559393D02*
X10781847Y-22530822D01*
X10781847Y-22530822D02*
X10791370Y-22521298D01*
X10867561Y-22616536D02*
X10867561Y-22749870D01*
X10867561Y-22635584D02*
X10877085Y-22626060D01*
X10877085Y-22626060D02*
X10896132Y-22616536D01*
X10896132Y-22616536D02*
X10924704Y-22616536D01*
X10924704Y-22616536D02*
X10943751Y-22626060D01*
X10943751Y-22626060D02*
X10953275Y-22645108D01*
X10953275Y-22645108D02*
X10953275Y-22749870D01*
X11077085Y-22749870D02*
X11058037Y-22740346D01*
X11058037Y-22740346D02*
X11048513Y-22730822D01*
X11048513Y-22730822D02*
X11038989Y-22711774D01*
X11038989Y-22711774D02*
X11038989Y-22654632D01*
X11038989Y-22654632D02*
X11048513Y-22635584D01*
X11048513Y-22635584D02*
X11058037Y-22626060D01*
X11058037Y-22626060D02*
X11077085Y-22616536D01*
X11077085Y-22616536D02*
X11105656Y-22616536D01*
X11105656Y-22616536D02*
X11124704Y-22626060D01*
X11124704Y-22626060D02*
X11134228Y-22635584D01*
X11134228Y-22635584D02*
X11143751Y-22654632D01*
X11143751Y-22654632D02*
X11143751Y-22711774D01*
X11143751Y-22711774D02*
X11134228Y-22730822D01*
X11134228Y-22730822D02*
X11124704Y-22740346D01*
X11124704Y-22740346D02*
X11105656Y-22749870D01*
X11105656Y-22749870D02*
X11077085Y-22749870D01*
X11200894Y-22616536D02*
X11277085Y-22616536D01*
X11229466Y-22549870D02*
X11229466Y-22721298D01*
X11229466Y-22721298D02*
X11238989Y-22740346D01*
X11238989Y-22740346D02*
X11258037Y-22749870D01*
X11258037Y-22749870D02*
X11277085Y-22749870D01*
X11496132Y-22616536D02*
X11496132Y-22816536D01*
X11496132Y-22626060D02*
X11515180Y-22616536D01*
X11515180Y-22616536D02*
X11553275Y-22616536D01*
X11553275Y-22616536D02*
X11572323Y-22626060D01*
X11572323Y-22626060D02*
X11581847Y-22635584D01*
X11581847Y-22635584D02*
X11591370Y-22654632D01*
X11591370Y-22654632D02*
X11591370Y-22711774D01*
X11591370Y-22711774D02*
X11581847Y-22730822D01*
X11581847Y-22730822D02*
X11572323Y-22740346D01*
X11572323Y-22740346D02*
X11553275Y-22749870D01*
X11553275Y-22749870D02*
X11515180Y-22749870D01*
X11515180Y-22749870D02*
X11496132Y-22740346D01*
X11705656Y-22749870D02*
X11686608Y-22740346D01*
X11686608Y-22740346D02*
X11677085Y-22721298D01*
X11677085Y-22721298D02*
X11677085Y-22549870D01*
X11867561Y-22749870D02*
X11867561Y-22645108D01*
X11867561Y-22645108D02*
X11858037Y-22626060D01*
X11858037Y-22626060D02*
X11838989Y-22616536D01*
X11838989Y-22616536D02*
X11800894Y-22616536D01*
X11800894Y-22616536D02*
X11781847Y-22626060D01*
X11867561Y-22740346D02*
X11848513Y-22749870D01*
X11848513Y-22749870D02*
X11800894Y-22749870D01*
X11800894Y-22749870D02*
X11781847Y-22740346D01*
X11781847Y-22740346D02*
X11772323Y-22721298D01*
X11772323Y-22721298D02*
X11772323Y-22702251D01*
X11772323Y-22702251D02*
X11781847Y-22683203D01*
X11781847Y-22683203D02*
X11800894Y-22673679D01*
X11800894Y-22673679D02*
X11848513Y-22673679D01*
X11848513Y-22673679D02*
X11867561Y-22664155D01*
X11934228Y-22616536D02*
X12010418Y-22616536D01*
X11962799Y-22549870D02*
X11962799Y-22721298D01*
X11962799Y-22721298D02*
X11972323Y-22740346D01*
X11972323Y-22740346D02*
X11991370Y-22749870D01*
X11991370Y-22749870D02*
X12010418Y-22749870D01*
X12153275Y-22740346D02*
X12134228Y-22749870D01*
X12134228Y-22749870D02*
X12096132Y-22749870D01*
X12096132Y-22749870D02*
X12077085Y-22740346D01*
X12077085Y-22740346D02*
X12067561Y-22721298D01*
X12067561Y-22721298D02*
X12067561Y-22645108D01*
X12067561Y-22645108D02*
X12077085Y-22626060D01*
X12077085Y-22626060D02*
X12096132Y-22616536D01*
X12096132Y-22616536D02*
X12134228Y-22616536D01*
X12134228Y-22616536D02*
X12153275Y-22626060D01*
X12153275Y-22626060D02*
X12162799Y-22645108D01*
X12162799Y-22645108D02*
X12162799Y-22664155D01*
X12162799Y-22664155D02*
X12067561Y-22683203D01*
X12334228Y-22749870D02*
X12334228Y-22549870D01*
X12334228Y-22740346D02*
X12315180Y-22749870D01*
X12315180Y-22749870D02*
X12277085Y-22749870D01*
X12277085Y-22749870D02*
X12258037Y-22740346D01*
X12258037Y-22740346D02*
X12248513Y-22730822D01*
X12248513Y-22730822D02*
X12238989Y-22711774D01*
X12238989Y-22711774D02*
X12238989Y-22654632D01*
X12238989Y-22654632D02*
X12248513Y-22635584D01*
X12248513Y-22635584D02*
X12258037Y-22626060D01*
X12258037Y-22626060D02*
X12277085Y-22616536D01*
X12277085Y-22616536D02*
X12315180Y-22616536D01*
X12315180Y-22616536D02*
X12334228Y-22626060D01*
X12410418Y-22826060D02*
X12419942Y-22816536D01*
X12419942Y-22816536D02*
X12438989Y-22787965D01*
X12438989Y-22787965D02*
X12448513Y-22768917D01*
X12448513Y-22768917D02*
X12458037Y-22740346D01*
X12458037Y-22740346D02*
X12467561Y-22692727D01*
X12467561Y-22692727D02*
X12467561Y-22654632D01*
X12467561Y-22654632D02*
X12458037Y-22607012D01*
X12458037Y-22607012D02*
X12448513Y-22578441D01*
X12448513Y-22578441D02*
X12438989Y-22559393D01*
X12438989Y-22559393D02*
X12419942Y-22530822D01*
X12419942Y-22530822D02*
X12410418Y-22521298D01*
X5173450Y-22878386D02*
X5173450Y-23078386D01*
X5073450Y-22978386D02*
X5273450Y-22978386D01*
X5515179Y-22869870D02*
X5638989Y-22869870D01*
X5638989Y-22869870D02*
X5572322Y-22946060D01*
X5572322Y-22946060D02*
X5600894Y-22946060D01*
X5600894Y-22946060D02*
X5619941Y-22955584D01*
X5619941Y-22955584D02*
X5629465Y-22965108D01*
X5629465Y-22965108D02*
X5638989Y-22984155D01*
X5638989Y-22984155D02*
X5638989Y-23031774D01*
X5638989Y-23031774D02*
X5629465Y-23050822D01*
X5629465Y-23050822D02*
X5619941Y-23060346D01*
X5619941Y-23060346D02*
X5600894Y-23069870D01*
X5600894Y-23069870D02*
X5543751Y-23069870D01*
X5543751Y-23069870D02*
X5524703Y-23060346D01*
X5524703Y-23060346D02*
X5515179Y-23050822D01*
X5724703Y-23050822D02*
X5734227Y-23060346D01*
X5734227Y-23060346D02*
X5724703Y-23069870D01*
X5724703Y-23069870D02*
X5715179Y-23060346D01*
X5715179Y-23060346D02*
X5724703Y-23050822D01*
X5724703Y-23050822D02*
X5724703Y-23069870D01*
X5905656Y-22936536D02*
X5905656Y-23069870D01*
X5858036Y-22860346D02*
X5810417Y-23003203D01*
X5810417Y-23003203D02*
X5934227Y-23003203D01*
X6048513Y-22869870D02*
X6067560Y-22869870D01*
X6067560Y-22869870D02*
X6086608Y-22879393D01*
X6086608Y-22879393D02*
X6096132Y-22888917D01*
X6096132Y-22888917D02*
X6105656Y-22907965D01*
X6105656Y-22907965D02*
X6115179Y-22946060D01*
X6115179Y-22946060D02*
X6115179Y-22993679D01*
X6115179Y-22993679D02*
X6105656Y-23031774D01*
X6105656Y-23031774D02*
X6096132Y-23050822D01*
X6096132Y-23050822D02*
X6086608Y-23060346D01*
X6086608Y-23060346D02*
X6067560Y-23069870D01*
X6067560Y-23069870D02*
X6048513Y-23069870D01*
X6048513Y-23069870D02*
X6029465Y-23060346D01*
X6029465Y-23060346D02*
X6019941Y-23050822D01*
X6019941Y-23050822D02*
X6010417Y-23031774D01*
X6010417Y-23031774D02*
X6000894Y-22993679D01*
X6000894Y-22993679D02*
X6000894Y-22946060D01*
X6000894Y-22946060D02*
X6010417Y-22907965D01*
X6010417Y-22907965D02*
X6019941Y-22888917D01*
X6019941Y-22888917D02*
X6029465Y-22879393D01*
X6029465Y-22879393D02*
X6048513Y-22869870D01*
X6238989Y-22869870D02*
X6258037Y-22869870D01*
X6258037Y-22869870D02*
X6277084Y-22879393D01*
X6277084Y-22879393D02*
X6286608Y-22888917D01*
X6286608Y-22888917D02*
X6296132Y-22907965D01*
X6296132Y-22907965D02*
X6305656Y-22946060D01*
X6305656Y-22946060D02*
X6305656Y-22993679D01*
X6305656Y-22993679D02*
X6296132Y-23031774D01*
X6296132Y-23031774D02*
X6286608Y-23050822D01*
X6286608Y-23050822D02*
X6277084Y-23060346D01*
X6277084Y-23060346D02*
X6258037Y-23069870D01*
X6258037Y-23069870D02*
X6238989Y-23069870D01*
X6238989Y-23069870D02*
X6219941Y-23060346D01*
X6219941Y-23060346D02*
X6210417Y-23050822D01*
X6210417Y-23050822D02*
X6200894Y-23031774D01*
X6200894Y-23031774D02*
X6191370Y-22993679D01*
X6191370Y-22993679D02*
X6191370Y-22946060D01*
X6191370Y-22946060D02*
X6200894Y-22907965D01*
X6200894Y-22907965D02*
X6210417Y-22888917D01*
X6210417Y-22888917D02*
X6219941Y-22879393D01*
X6219941Y-22879393D02*
X6238989Y-22869870D01*
X6391370Y-23069870D02*
X6391370Y-22936536D01*
X6391370Y-22955584D02*
X6400894Y-22946060D01*
X6400894Y-22946060D02*
X6419941Y-22936536D01*
X6419941Y-22936536D02*
X6448513Y-22936536D01*
X6448513Y-22936536D02*
X6467560Y-22946060D01*
X6467560Y-22946060D02*
X6477084Y-22965108D01*
X6477084Y-22965108D02*
X6477084Y-23069870D01*
X6477084Y-22965108D02*
X6486608Y-22946060D01*
X6486608Y-22946060D02*
X6505656Y-22936536D01*
X6505656Y-22936536D02*
X6534227Y-22936536D01*
X6534227Y-22936536D02*
X6553275Y-22946060D01*
X6553275Y-22946060D02*
X6562798Y-22965108D01*
X6562798Y-22965108D02*
X6562798Y-23069870D01*
X6658037Y-23069870D02*
X6658037Y-22936536D01*
X6658037Y-22955584D02*
X6667560Y-22946060D01*
X6667560Y-22946060D02*
X6686608Y-22936536D01*
X6686608Y-22936536D02*
X6715179Y-22936536D01*
X6715179Y-22936536D02*
X6734227Y-22946060D01*
X6734227Y-22946060D02*
X6743751Y-22965108D01*
X6743751Y-22965108D02*
X6743751Y-23069870D01*
X6743751Y-22965108D02*
X6753275Y-22946060D01*
X6753275Y-22946060D02*
X6772322Y-22936536D01*
X6772322Y-22936536D02*
X6800894Y-22936536D01*
X6800894Y-22936536D02*
X6819941Y-22946060D01*
X6819941Y-22946060D02*
X6829465Y-22965108D01*
X6829465Y-22965108D02*
X6829465Y-23069870D01*
X7219941Y-22860346D02*
X7048513Y-23117489D01*
X7477084Y-22869870D02*
X7496132Y-22869870D01*
X7496132Y-22869870D02*
X7515180Y-22879393D01*
X7515180Y-22879393D02*
X7524703Y-22888917D01*
X7524703Y-22888917D02*
X7534227Y-22907965D01*
X7534227Y-22907965D02*
X7543751Y-22946060D01*
X7543751Y-22946060D02*
X7543751Y-22993679D01*
X7543751Y-22993679D02*
X7534227Y-23031774D01*
X7534227Y-23031774D02*
X7524703Y-23050822D01*
X7524703Y-23050822D02*
X7515180Y-23060346D01*
X7515180Y-23060346D02*
X7496132Y-23069870D01*
X7496132Y-23069870D02*
X7477084Y-23069870D01*
X7477084Y-23069870D02*
X7458037Y-23060346D01*
X7458037Y-23060346D02*
X7448513Y-23050822D01*
X7448513Y-23050822D02*
X7438989Y-23031774D01*
X7438989Y-23031774D02*
X7429465Y-22993679D01*
X7429465Y-22993679D02*
X7429465Y-22946060D01*
X7429465Y-22946060D02*
X7438989Y-22907965D01*
X7438989Y-22907965D02*
X7448513Y-22888917D01*
X7448513Y-22888917D02*
X7458037Y-22879393D01*
X7458037Y-22879393D02*
X7477084Y-22869870D01*
X7629465Y-23050822D02*
X7638989Y-23060346D01*
X7638989Y-23060346D02*
X7629465Y-23069870D01*
X7629465Y-23069870D02*
X7619941Y-23060346D01*
X7619941Y-23060346D02*
X7629465Y-23050822D01*
X7629465Y-23050822D02*
X7629465Y-23069870D01*
X7829465Y-23069870D02*
X7715180Y-23069870D01*
X7772322Y-23069870D02*
X7772322Y-22869870D01*
X7772322Y-22869870D02*
X7753275Y-22898441D01*
X7753275Y-22898441D02*
X7734227Y-22917489D01*
X7734227Y-22917489D02*
X7715180Y-22927012D01*
X7896132Y-22869870D02*
X8019941Y-22869870D01*
X8019941Y-22869870D02*
X7953275Y-22946060D01*
X7953275Y-22946060D02*
X7981846Y-22946060D01*
X7981846Y-22946060D02*
X8000894Y-22955584D01*
X8000894Y-22955584D02*
X8010418Y-22965108D01*
X8010418Y-22965108D02*
X8019941Y-22984155D01*
X8019941Y-22984155D02*
X8019941Y-23031774D01*
X8019941Y-23031774D02*
X8010418Y-23050822D01*
X8010418Y-23050822D02*
X8000894Y-23060346D01*
X8000894Y-23060346D02*
X7981846Y-23069870D01*
X7981846Y-23069870D02*
X7924703Y-23069870D01*
X7924703Y-23069870D02*
X7905656Y-23060346D01*
X7905656Y-23060346D02*
X7896132Y-23050822D01*
X8086608Y-22869870D02*
X8210418Y-22869870D01*
X8210418Y-22869870D02*
X8143751Y-22946060D01*
X8143751Y-22946060D02*
X8172322Y-22946060D01*
X8172322Y-22946060D02*
X8191370Y-22955584D01*
X8191370Y-22955584D02*
X8200894Y-22965108D01*
X8200894Y-22965108D02*
X8210418Y-22984155D01*
X8210418Y-22984155D02*
X8210418Y-23031774D01*
X8210418Y-23031774D02*
X8200894Y-23050822D01*
X8200894Y-23050822D02*
X8191370Y-23060346D01*
X8191370Y-23060346D02*
X8172322Y-23069870D01*
X8172322Y-23069870D02*
X8115180Y-23069870D01*
X8115180Y-23069870D02*
X8096132Y-23060346D01*
X8096132Y-23060346D02*
X8086608Y-23050822D01*
X8305656Y-23069870D02*
X8343751Y-23069870D01*
X8343751Y-23069870D02*
X8362799Y-23060346D01*
X8362799Y-23060346D02*
X8372322Y-23050822D01*
X8372322Y-23050822D02*
X8391370Y-23022251D01*
X8391370Y-23022251D02*
X8400894Y-22984155D01*
X8400894Y-22984155D02*
X8400894Y-22907965D01*
X8400894Y-22907965D02*
X8391370Y-22888917D01*
X8391370Y-22888917D02*
X8381846Y-22879393D01*
X8381846Y-22879393D02*
X8362799Y-22869870D01*
X8362799Y-22869870D02*
X8324703Y-22869870D01*
X8324703Y-22869870D02*
X8305656Y-22879393D01*
X8305656Y-22879393D02*
X8296132Y-22888917D01*
X8296132Y-22888917D02*
X8286608Y-22907965D01*
X8286608Y-22907965D02*
X8286608Y-22955584D01*
X8286608Y-22955584D02*
X8296132Y-22974632D01*
X8296132Y-22974632D02*
X8305656Y-22984155D01*
X8305656Y-22984155D02*
X8324703Y-22993679D01*
X8324703Y-22993679D02*
X8362799Y-22993679D01*
X8362799Y-22993679D02*
X8381846Y-22984155D01*
X8381846Y-22984155D02*
X8391370Y-22974632D01*
X8391370Y-22974632D02*
X8400894Y-22955584D01*
X8477084Y-22869870D02*
X8477084Y-22907965D01*
X8553275Y-22869870D02*
X8553275Y-22907965D01*
X8848513Y-23146060D02*
X8838989Y-23136536D01*
X8838989Y-23136536D02*
X8819942Y-23107965D01*
X8819942Y-23107965D02*
X8810418Y-23088917D01*
X8810418Y-23088917D02*
X8800894Y-23060346D01*
X8800894Y-23060346D02*
X8791370Y-23012727D01*
X8791370Y-23012727D02*
X8791370Y-22974632D01*
X8791370Y-22974632D02*
X8800894Y-22927012D01*
X8800894Y-22927012D02*
X8810418Y-22898441D01*
X8810418Y-22898441D02*
X8819942Y-22879393D01*
X8819942Y-22879393D02*
X8838989Y-22850822D01*
X8838989Y-22850822D02*
X8848513Y-22841298D01*
X9019942Y-22869870D02*
X8924704Y-22869870D01*
X8924704Y-22869870D02*
X8915180Y-22965108D01*
X8915180Y-22965108D02*
X8924704Y-22955584D01*
X8924704Y-22955584D02*
X8943751Y-22946060D01*
X8943751Y-22946060D02*
X8991370Y-22946060D01*
X8991370Y-22946060D02*
X9010418Y-22955584D01*
X9010418Y-22955584D02*
X9019942Y-22965108D01*
X9019942Y-22965108D02*
X9029465Y-22984155D01*
X9029465Y-22984155D02*
X9029465Y-23031774D01*
X9029465Y-23031774D02*
X9019942Y-23050822D01*
X9019942Y-23050822D02*
X9010418Y-23060346D01*
X9010418Y-23060346D02*
X8991370Y-23069870D01*
X8991370Y-23069870D02*
X8943751Y-23069870D01*
X8943751Y-23069870D02*
X8924704Y-23060346D01*
X8924704Y-23060346D02*
X8915180Y-23050822D01*
X9143751Y-22955584D02*
X9124704Y-22946060D01*
X9124704Y-22946060D02*
X9115180Y-22936536D01*
X9115180Y-22936536D02*
X9105656Y-22917489D01*
X9105656Y-22917489D02*
X9105656Y-22907965D01*
X9105656Y-22907965D02*
X9115180Y-22888917D01*
X9115180Y-22888917D02*
X9124704Y-22879393D01*
X9124704Y-22879393D02*
X9143751Y-22869870D01*
X9143751Y-22869870D02*
X9181846Y-22869870D01*
X9181846Y-22869870D02*
X9200894Y-22879393D01*
X9200894Y-22879393D02*
X9210418Y-22888917D01*
X9210418Y-22888917D02*
X9219942Y-22907965D01*
X9219942Y-22907965D02*
X9219942Y-22917489D01*
X9219942Y-22917489D02*
X9210418Y-22936536D01*
X9210418Y-22936536D02*
X9200894Y-22946060D01*
X9200894Y-22946060D02*
X9181846Y-22955584D01*
X9181846Y-22955584D02*
X9143751Y-22955584D01*
X9143751Y-22955584D02*
X9124704Y-22965108D01*
X9124704Y-22965108D02*
X9115180Y-22974632D01*
X9115180Y-22974632D02*
X9105656Y-22993679D01*
X9105656Y-22993679D02*
X9105656Y-23031774D01*
X9105656Y-23031774D02*
X9115180Y-23050822D01*
X9115180Y-23050822D02*
X9124704Y-23060346D01*
X9124704Y-23060346D02*
X9143751Y-23069870D01*
X9143751Y-23069870D02*
X9181846Y-23069870D01*
X9181846Y-23069870D02*
X9200894Y-23060346D01*
X9200894Y-23060346D02*
X9210418Y-23050822D01*
X9210418Y-23050822D02*
X9219942Y-23031774D01*
X9219942Y-23031774D02*
X9219942Y-22993679D01*
X9219942Y-22993679D02*
X9210418Y-22974632D01*
X9210418Y-22974632D02*
X9200894Y-22965108D01*
X9200894Y-22965108D02*
X9181846Y-22955584D01*
X9458037Y-23069870D02*
X9458037Y-22869870D01*
X9543751Y-23069870D02*
X9543751Y-22965108D01*
X9543751Y-22965108D02*
X9534227Y-22946060D01*
X9534227Y-22946060D02*
X9515180Y-22936536D01*
X9515180Y-22936536D02*
X9486608Y-22936536D01*
X9486608Y-22936536D02*
X9467561Y-22946060D01*
X9467561Y-22946060D02*
X9458037Y-22955584D01*
X9667561Y-23069870D02*
X9648513Y-23060346D01*
X9648513Y-23060346D02*
X9638989Y-23050822D01*
X9638989Y-23050822D02*
X9629466Y-23031774D01*
X9629466Y-23031774D02*
X9629466Y-22974632D01*
X9629466Y-22974632D02*
X9638989Y-22955584D01*
X9638989Y-22955584D02*
X9648513Y-22946060D01*
X9648513Y-22946060D02*
X9667561Y-22936536D01*
X9667561Y-22936536D02*
X9696132Y-22936536D01*
X9696132Y-22936536D02*
X9715180Y-22946060D01*
X9715180Y-22946060D02*
X9724704Y-22955584D01*
X9724704Y-22955584D02*
X9734227Y-22974632D01*
X9734227Y-22974632D02*
X9734227Y-23031774D01*
X9734227Y-23031774D02*
X9724704Y-23050822D01*
X9724704Y-23050822D02*
X9715180Y-23060346D01*
X9715180Y-23060346D02*
X9696132Y-23069870D01*
X9696132Y-23069870D02*
X9667561Y-23069870D01*
X9848513Y-23069870D02*
X9829466Y-23060346D01*
X9829466Y-23060346D02*
X9819942Y-23041298D01*
X9819942Y-23041298D02*
X9819942Y-22869870D01*
X10000894Y-23060346D02*
X9981847Y-23069870D01*
X9981847Y-23069870D02*
X9943751Y-23069870D01*
X9943751Y-23069870D02*
X9924704Y-23060346D01*
X9924704Y-23060346D02*
X9915180Y-23041298D01*
X9915180Y-23041298D02*
X9915180Y-22965108D01*
X9915180Y-22965108D02*
X9924704Y-22946060D01*
X9924704Y-22946060D02*
X9943751Y-22936536D01*
X9943751Y-22936536D02*
X9981847Y-22936536D01*
X9981847Y-22936536D02*
X10000894Y-22946060D01*
X10000894Y-22946060D02*
X10010418Y-22965108D01*
X10010418Y-22965108D02*
X10010418Y-22984155D01*
X10010418Y-22984155D02*
X9915180Y-23003203D01*
X10086608Y-23060346D02*
X10105656Y-23069870D01*
X10105656Y-23069870D02*
X10143751Y-23069870D01*
X10143751Y-23069870D02*
X10162799Y-23060346D01*
X10162799Y-23060346D02*
X10172323Y-23041298D01*
X10172323Y-23041298D02*
X10172323Y-23031774D01*
X10172323Y-23031774D02*
X10162799Y-23012727D01*
X10162799Y-23012727D02*
X10143751Y-23003203D01*
X10143751Y-23003203D02*
X10115180Y-23003203D01*
X10115180Y-23003203D02*
X10096132Y-22993679D01*
X10096132Y-22993679D02*
X10086608Y-22974632D01*
X10086608Y-22974632D02*
X10086608Y-22965108D01*
X10086608Y-22965108D02*
X10096132Y-22946060D01*
X10096132Y-22946060D02*
X10115180Y-22936536D01*
X10115180Y-22936536D02*
X10143751Y-22936536D01*
X10143751Y-22936536D02*
X10162799Y-22946060D01*
X10238989Y-23146060D02*
X10248513Y-23136536D01*
X10248513Y-23136536D02*
X10267561Y-23107965D01*
X10267561Y-23107965D02*
X10277085Y-23088917D01*
X10277085Y-23088917D02*
X10286608Y-23060346D01*
X10286608Y-23060346D02*
X10296132Y-23012727D01*
X10296132Y-23012727D02*
X10296132Y-22974632D01*
X10296132Y-22974632D02*
X10286608Y-22927012D01*
X10286608Y-22927012D02*
X10277085Y-22898441D01*
X10277085Y-22898441D02*
X10267561Y-22879393D01*
X10267561Y-22879393D02*
X10248513Y-22850822D01*
X10248513Y-22850822D02*
X10238989Y-22841298D01*
X10600894Y-23146060D02*
X10591370Y-23136536D01*
X10591370Y-23136536D02*
X10572323Y-23107965D01*
X10572323Y-23107965D02*
X10562799Y-23088917D01*
X10562799Y-23088917D02*
X10553275Y-23060346D01*
X10553275Y-23060346D02*
X10543751Y-23012727D01*
X10543751Y-23012727D02*
X10543751Y-22974632D01*
X10543751Y-22974632D02*
X10553275Y-22927012D01*
X10553275Y-22927012D02*
X10562799Y-22898441D01*
X10562799Y-22898441D02*
X10572323Y-22879393D01*
X10572323Y-22879393D02*
X10591370Y-22850822D01*
X10591370Y-22850822D02*
X10600894Y-22841298D01*
X10677085Y-22936536D02*
X10677085Y-23069870D01*
X10677085Y-22955584D02*
X10686608Y-22946060D01*
X10686608Y-22946060D02*
X10705656Y-22936536D01*
X10705656Y-22936536D02*
X10734228Y-22936536D01*
X10734228Y-22936536D02*
X10753275Y-22946060D01*
X10753275Y-22946060D02*
X10762799Y-22965108D01*
X10762799Y-22965108D02*
X10762799Y-23069870D01*
X10886608Y-23069870D02*
X10867561Y-23060346D01*
X10867561Y-23060346D02*
X10858037Y-23050822D01*
X10858037Y-23050822D02*
X10848513Y-23031774D01*
X10848513Y-23031774D02*
X10848513Y-22974632D01*
X10848513Y-22974632D02*
X10858037Y-22955584D01*
X10858037Y-22955584D02*
X10867561Y-22946060D01*
X10867561Y-22946060D02*
X10886608Y-22936536D01*
X10886608Y-22936536D02*
X10915180Y-22936536D01*
X10915180Y-22936536D02*
X10934228Y-22946060D01*
X10934228Y-22946060D02*
X10943751Y-22955584D01*
X10943751Y-22955584D02*
X10953275Y-22974632D01*
X10953275Y-22974632D02*
X10953275Y-23031774D01*
X10953275Y-23031774D02*
X10943751Y-23050822D01*
X10943751Y-23050822D02*
X10934228Y-23060346D01*
X10934228Y-23060346D02*
X10915180Y-23069870D01*
X10915180Y-23069870D02*
X10886608Y-23069870D01*
X11010418Y-22936536D02*
X11086608Y-22936536D01*
X11038989Y-22869870D02*
X11038989Y-23041298D01*
X11038989Y-23041298D02*
X11048513Y-23060346D01*
X11048513Y-23060346D02*
X11067561Y-23069870D01*
X11067561Y-23069870D02*
X11086608Y-23069870D01*
X11305656Y-22936536D02*
X11305656Y-23136536D01*
X11305656Y-22946060D02*
X11324704Y-22936536D01*
X11324704Y-22936536D02*
X11362799Y-22936536D01*
X11362799Y-22936536D02*
X11381847Y-22946060D01*
X11381847Y-22946060D02*
X11391370Y-22955584D01*
X11391370Y-22955584D02*
X11400894Y-22974632D01*
X11400894Y-22974632D02*
X11400894Y-23031774D01*
X11400894Y-23031774D02*
X11391370Y-23050822D01*
X11391370Y-23050822D02*
X11381847Y-23060346D01*
X11381847Y-23060346D02*
X11362799Y-23069870D01*
X11362799Y-23069870D02*
X11324704Y-23069870D01*
X11324704Y-23069870D02*
X11305656Y-23060346D01*
X11515180Y-23069870D02*
X11496132Y-23060346D01*
X11496132Y-23060346D02*
X11486608Y-23041298D01*
X11486608Y-23041298D02*
X11486608Y-22869870D01*
X11677085Y-23069870D02*
X11677085Y-22965108D01*
X11677085Y-22965108D02*
X11667561Y-22946060D01*
X11667561Y-22946060D02*
X11648513Y-22936536D01*
X11648513Y-22936536D02*
X11610418Y-22936536D01*
X11610418Y-22936536D02*
X11591370Y-22946060D01*
X11677085Y-23060346D02*
X11658037Y-23069870D01*
X11658037Y-23069870D02*
X11610418Y-23069870D01*
X11610418Y-23069870D02*
X11591370Y-23060346D01*
X11591370Y-23060346D02*
X11581847Y-23041298D01*
X11581847Y-23041298D02*
X11581847Y-23022251D01*
X11581847Y-23022251D02*
X11591370Y-23003203D01*
X11591370Y-23003203D02*
X11610418Y-22993679D01*
X11610418Y-22993679D02*
X11658037Y-22993679D01*
X11658037Y-22993679D02*
X11677085Y-22984155D01*
X11743751Y-22936536D02*
X11819942Y-22936536D01*
X11772323Y-22869870D02*
X11772323Y-23041298D01*
X11772323Y-23041298D02*
X11781847Y-23060346D01*
X11781847Y-23060346D02*
X11800894Y-23069870D01*
X11800894Y-23069870D02*
X11819942Y-23069870D01*
X11962799Y-23060346D02*
X11943751Y-23069870D01*
X11943751Y-23069870D02*
X11905656Y-23069870D01*
X11905656Y-23069870D02*
X11886608Y-23060346D01*
X11886608Y-23060346D02*
X11877085Y-23041298D01*
X11877085Y-23041298D02*
X11877085Y-22965108D01*
X11877085Y-22965108D02*
X11886608Y-22946060D01*
X11886608Y-22946060D02*
X11905656Y-22936536D01*
X11905656Y-22936536D02*
X11943751Y-22936536D01*
X11943751Y-22936536D02*
X11962799Y-22946060D01*
X11962799Y-22946060D02*
X11972323Y-22965108D01*
X11972323Y-22965108D02*
X11972323Y-22984155D01*
X11972323Y-22984155D02*
X11877085Y-23003203D01*
X12143751Y-23069870D02*
X12143751Y-22869870D01*
X12143751Y-23060346D02*
X12124704Y-23069870D01*
X12124704Y-23069870D02*
X12086608Y-23069870D01*
X12086608Y-23069870D02*
X12067561Y-23060346D01*
X12067561Y-23060346D02*
X12058037Y-23050822D01*
X12058037Y-23050822D02*
X12048513Y-23031774D01*
X12048513Y-23031774D02*
X12048513Y-22974632D01*
X12048513Y-22974632D02*
X12058037Y-22955584D01*
X12058037Y-22955584D02*
X12067561Y-22946060D01*
X12067561Y-22946060D02*
X12086608Y-22936536D01*
X12086608Y-22936536D02*
X12124704Y-22936536D01*
X12124704Y-22936536D02*
X12143751Y-22946060D01*
X12219942Y-23146060D02*
X12229466Y-23136536D01*
X12229466Y-23136536D02*
X12248513Y-23107965D01*
X12248513Y-23107965D02*
X12258037Y-23088917D01*
X12258037Y-23088917D02*
X12267561Y-23060346D01*
X12267561Y-23060346D02*
X12277085Y-23012727D01*
X12277085Y-23012727D02*
X12277085Y-22974632D01*
X12277085Y-22974632D02*
X12267561Y-22927012D01*
X12267561Y-22927012D02*
X12258037Y-22898441D01*
X12258037Y-22898441D02*
X12248513Y-22879393D01*
X12248513Y-22879393D02*
X12229466Y-22850822D01*
X12229466Y-22850822D02*
X12219942Y-22841298D01*
M02*
