M48
; DRILL file {KiCad 8.0.7} date 2024-12-23T04:44:58-0500
; FORMAT={-:-/ absolute / metric / decimal}
; #@! TF.CreationDate,2024-12-23T04:44:58-05:00
; #@! TF.GenerationSoftware,Kicad,Pcbnew,8.0.7
; #@! TF.FileFunction,NonPlated,1,2,NPTH
FMAT,2
METRIC
; #@! TA.AperFunction,NonPlated,NPTH,ComponentDrill
T1C1.900
; #@! TA.AperFunction,NonPlated,NPTH,ComponentDrill
T2C3.000
; #@! TA.AperFunction,NonPlated,NPTH,ComponentDrill
T3C3.400
%
G90
G05
T1
X63.774Y-127.737
X71.825Y-110.472
X73.743Y-132.386
X79.876Y-93.207
X81.039Y-135.788
X81.794Y-115.121
X87.927Y-75.942
X89.09Y-118.523
X89.845Y-97.856
X91.008Y-140.437
X94.057Y-152.947
X97.141Y-101.258
X97.896Y-80.591
X99.059Y-123.172
X102.108Y-135.682
X104.026Y-157.596
X105.192Y-83.993
X107.11Y-105.907
X110.159Y-118.417
X112.077Y-140.331
X112.379Y-158.733
X115.161Y-88.641
X118.21Y-101.152
X120.128Y-123.066
X120.43Y-141.467
X122.348Y-163.381
X126.26Y-83.887
X128.179Y-105.801
X128.48Y-124.202
X128.587Y-169.049
X130.399Y-146.116
X136.23Y-88.536
X136.531Y-106.937
X136.638Y-151.784
X138.45Y-128.851
X138.557Y-173.698
X144.582Y-89.672
X144.689Y-134.519
X146.501Y-111.586
X146.608Y-156.433
X147.868Y-180.91
X152.74Y-117.254
X152.847Y-162.101
X154.552Y-94.321
X154.658Y-139.168
X155.229Y-189.085
X160.791Y-99.989
X160.898Y-144.835
X162.709Y-121.902
X162.816Y-166.749
X163.83Y-201.565
X168.949Y-127.57
X170.76Y-104.637
X170.867Y-149.484
X172.841Y-195.255
X176.999Y-110.305
X178.918Y-132.219
X186.969Y-114.954
X234.149Y-114.954
X242.2Y-132.219
X244.119Y-110.305
X248.278Y-195.255
X250.251Y-149.484
X250.358Y-104.637
X252.17Y-127.57
X257.288Y-201.565
X258.302Y-166.749
X258.409Y-121.902
X260.221Y-144.835
X260.327Y-99.989
X265.889Y-189.085
X266.46Y-139.168
X266.567Y-94.321
X268.271Y-162.101
X268.378Y-117.254
X273.25Y-180.91
X274.511Y-156.433
X274.617Y-111.586
X276.429Y-134.519
X276.536Y-89.672
X282.562Y-173.698
X282.668Y-128.851
X284.48Y-151.784
X284.587Y-106.937
X284.888Y-88.536
X290.719Y-146.116
X292.531Y-169.049
X292.638Y-124.202
X292.939Y-105.801
X294.858Y-83.887
X298.77Y-163.381
X300.689Y-141.467
X300.99Y-123.066
X302.909Y-101.152
X305.957Y-88.641
X308.74Y-158.733
X309.041Y-140.331
X310.959Y-118.417
X314.008Y-105.907
X315.926Y-83.993
X317.092Y-157.596
X319.01Y-135.682
X322.059Y-123.172
X323.222Y-80.591
X323.977Y-101.258
X327.061Y-152.947
X330.11Y-140.437
X331.273Y-97.856
X332.028Y-118.523
X333.192Y-75.942
X339.324Y-115.121
X340.079Y-135.788
X341.242Y-93.207
X347.375Y-132.386
X349.293Y-110.472
X357.344Y-127.737
T2
X71.273Y-124.669
X74.875Y-128.776
X79.324Y-107.404
X82.926Y-111.511
X87.375Y-90.139
X88.538Y-132.72
X90.977Y-94.246
X92.14Y-136.827
X95.426Y-72.874
X96.589Y-115.455
X99.028Y-76.981
X100.191Y-119.562
X101.556Y-149.879
X104.64Y-98.19
X105.158Y-153.986
X108.242Y-102.297
X109.607Y-132.614
X112.691Y-80.925
X113.209Y-136.721
X116.293Y-85.031
X117.658Y-115.349
X119.878Y-155.664
X121.26Y-119.456
X123.48Y-159.771
X125.709Y-98.084
X127.929Y-138.399
X129.311Y-102.191
X131.531Y-142.506
X133.76Y-80.819
X135.98Y-121.134
X136.087Y-165.981
X137.361Y-84.926
X139.581Y-125.241
X139.688Y-170.088
X144.031Y-103.869
X144.137Y-148.716
X147.632Y-107.976
X147.739Y-152.823
X152.081Y-86.604
X152.188Y-131.451
X155.683Y-90.711
X155.79Y-135.558
X155.97Y-181.016
X157.681Y-186.204
X160.239Y-114.186
X160.346Y-159.033
X163.841Y-118.293
X163.948Y-163.139
X164.922Y-193.536
X168.29Y-96.92
X168.397Y-141.767
X170.28Y-192.47
X171.892Y-101.027
X171.999Y-145.874
X176.448Y-124.502
X180.05Y-128.609
X184.499Y-107.237
X188.1Y-111.344
X236.619Y-107.237
X242.081Y-107.118
X244.67Y-124.502
X250.132Y-124.383
X252.721Y-141.767
X252.828Y-96.92
X256.196Y-193.536
X258.183Y-141.648
X258.289Y-96.801
X259.03Y-198.206
X260.772Y-159.033
X260.879Y-114.186
X265.148Y-181.016
X266.233Y-158.913
X266.34Y-114.066
X268.93Y-131.451
X269.037Y-86.604
X270.128Y-178.772
X274.391Y-131.331
X274.498Y-86.485
X276.981Y-148.716
X277.088Y-103.869
X282.442Y-148.597
X282.549Y-103.75
X285.032Y-165.981
X285.138Y-121.134
X287.358Y-80.819
X290.493Y-165.862
X290.6Y-121.015
X292.82Y-80.699
X293.189Y-138.399
X295.409Y-98.084
X298.651Y-138.28
X300.871Y-97.965
X301.24Y-155.664
X303.46Y-115.349
X306.702Y-155.545
X308.427Y-80.925
X308.921Y-115.23
X311.511Y-132.614
X313.888Y-80.805
X316.478Y-98.19
X316.972Y-132.495
X319.562Y-149.879
X321.939Y-98.07
X324.529Y-115.455
X325.023Y-149.76
X325.692Y-72.874
X329.99Y-115.336
X331.154Y-72.754
X332.58Y-132.72
X333.743Y-90.139
X338.041Y-132.601
X339.205Y-90.02
X341.794Y-107.404
X347.255Y-107.285
X349.845Y-124.669
X355.306Y-124.55
T3
X68.759Y-130.062
X76.809Y-112.796
X84.86Y-95.531
X86.024Y-138.113
X92.911Y-78.266
X94.075Y-120.847
X99.042Y-155.272
X102.126Y-103.582
X107.092Y-138.007
X110.176Y-86.317
X115.143Y-120.741
X117.363Y-161.057
X123.194Y-103.476
X125.414Y-143.792
X131.245Y-86.211
X133.465Y-126.527
X133.572Y-171.374
X141.516Y-109.261
X141.623Y-154.108
X149.567Y-91.996
X149.674Y-136.843
X151.549Y-184.997
X157.725Y-119.578
X157.831Y-164.425
X165.775Y-102.313
X165.882Y-147.16
X168.335Y-198.41
X173.933Y-129.895
X181.984Y-112.63
X239.134Y-112.63
X247.185Y-129.895
X252.783Y-198.41
X255.236Y-147.16
X255.343Y-102.313
X263.287Y-164.425
X263.394Y-119.578
X269.57Y-184.997
X271.444Y-136.843
X271.551Y-91.996
X279.495Y-154.108
X279.602Y-109.261
X287.546Y-171.374
X287.653Y-126.527
X289.873Y-86.211
X295.704Y-143.792
X297.924Y-103.476
X303.755Y-161.057
X305.975Y-120.741
X310.942Y-86.317
X314.026Y-138.007
X318.993Y-103.582
X322.077Y-155.272
X327.043Y-120.847
X328.207Y-78.266
X335.094Y-138.113
X336.258Y-95.531
X344.309Y-112.797
X352.36Y-130.062
M30
