M48
; DRILL file {KiCad 8.0.7} date 2024-12-23T04:44:58-0500
; FORMAT={-:-/ absolute / metric / decimal}
; #@! TF.CreationDate,2024-12-23T04:44:58-05:00
; #@! TF.GenerationSoftware,Kicad,Pcbnew,8.0.7
; #@! TF.FileFunction,Plated,1,2,PTH
FMAT,2
METRIC
; #@! TA.AperFunction,Plated,PTH,ComponentDrill
T1C0.300
; #@! TA.AperFunction,Plated,PTH,ComponentDrill
T2C0.400
; #@! TA.AperFunction,Plated,PTH,ComponentDrill
T3C1.000
; #@! TA.AperFunction,Plated,PTH,ComponentDrill
T4C2.200
%
G90
G05
T1
X74.568Y-137.184
X82.619Y-119.919
X90.67Y-102.654
X91.833Y-145.235
X98.72Y-85.389
X99.884Y-127.97
X104.851Y-162.394
X107.935Y-110.705
X112.902Y-145.129
X115.986Y-93.439
X120.953Y-127.864
X123.173Y-168.179
X129.003Y-110.599
X131.223Y-150.914
X134.945Y-115.604
X137.054Y-93.334
X139.274Y-133.649
X139.381Y-178.496
X147.325Y-116.384
X147.432Y-161.231
X151.154Y-125.92
X154.113Y-193.823
X155.376Y-99.119
X155.483Y-143.966
X163.534Y-126.7
X163.641Y-171.547
X167.362Y-136.237
X171.585Y-109.435
X171.692Y-154.282
X177.408Y-196.94
X179.742Y-137.017
X187.793Y-119.752
X248.324Y-112.758
X256.375Y-130.023
X257.267Y-206.433
X264.426Y-147.288
X264.533Y-102.441
X272.477Y-164.553
X272.584Y-119.706
X278.079Y-181.524
X280.635Y-136.971
X280.741Y-92.124
X288.685Y-154.236
X288.792Y-109.389
X296.736Y-171.502
X296.843Y-126.655
X298.559Y-112.587
X299.063Y-86.339
X304.894Y-143.92
X307.114Y-103.604
X312.945Y-161.185
X315.165Y-120.87
X319.627Y-112.693
X320.132Y-86.445
X323.216Y-138.135
X328.183Y-103.71
X331.267Y-155.4
X336.234Y-120.975
X336.892Y-104.642
X337.397Y-78.394
X344.285Y-138.241
X345.448Y-95.659
X353.499Y-112.925
X361.55Y-130.19
T2
X79.866Y-126.019
X79.921Y-124.757
X80.719Y-126.95
X80.852Y-123.904
X81.981Y-127.005
X82.114Y-123.959
X82.912Y-126.152
X82.967Y-124.89
X95.968Y-91.489
X96.023Y-90.227
X96.821Y-92.42
X96.954Y-89.374
X98.083Y-92.475
X98.216Y-89.429
X99.014Y-91.622
X99.069Y-90.36
X144.679Y-167.331
X144.735Y-166.069
X145.533Y-168.262
X145.666Y-165.216
X146.794Y-168.317
X146.927Y-165.271
X147.725Y-167.464
X147.78Y-166.202
X168.832Y-115.535
X168.887Y-114.274
X169.685Y-116.466
X169.818Y-113.42
X170.947Y-116.521
X171.08Y-113.476
X171.878Y-115.668
X171.933Y-114.407
X250.242Y-116.672
X250.297Y-117.934
X251.095Y-115.741
X251.228Y-118.787
X252.356Y-115.686
X252.489Y-118.732
X253.287Y-116.539
X253.343Y-117.801
X274.394Y-168.468
X274.449Y-169.73
X275.247Y-167.537
X275.38Y-170.583
X276.509Y-167.482
X276.642Y-170.528
X277.44Y-168.335
X277.495Y-169.597
X322.049Y-90.36
X322.104Y-91.622
X322.902Y-89.429
X323.035Y-92.475
X324.164Y-89.374
X324.297Y-92.42
X325.095Y-90.227
X325.15Y-91.489
X338.151Y-124.89
X338.206Y-126.152
X339.004Y-123.959
X339.137Y-127.005
X340.266Y-123.904
X340.399Y-126.95
X341.197Y-124.757
X341.252Y-126.019
T3
X202.809Y-136.905
X202.809Y-149.605
X202.809Y-157.225
X202.809Y-134.365
X202.809Y-139.445
X202.809Y-141.985
X202.809Y-147.065
X202.809Y-152.145
X202.809Y-154.685
X202.809Y-159.765
X202.809Y-162.305
X202.809Y-131.825
X202.809Y-144.525
X207.309Y-167.16
X213.809Y-167.16
X218.049Y-149.605
X218.049Y-162.305
X218.049Y-131.825
X218.049Y-134.365
X218.049Y-139.445
X218.049Y-141.985
X218.049Y-147.065
X218.049Y-152.145
X218.049Y-154.685
X218.049Y-159.765
X218.049Y-136.905
X218.049Y-144.525
X218.049Y-157.225
T4
X81.417Y-125.455
X97.518Y-90.924
X146.23Y-166.766
X170.383Y-114.971
X251.792Y-117.237
X275.945Y-169.032
X323.6Y-90.924
X339.702Y-125.455
M30
