%TF.GenerationSoftware,KiCad,Pcbnew,8.0.7*%
%TF.CreationDate,2024-12-23T04:42:48-05:00*%
%TF.ProjectId,choc,63686f63-2e6b-4696-9361-645f70636258,v1.0.0*%
%TF.SameCoordinates,Original*%
%TF.FileFunction,Soldermask,Bot*%
%TF.FilePolarity,Negative*%
%FSLAX46Y46*%
G04 Gerber Fmt 4.6, Leading zero omitted, Abs format (unit mm)*
G04 Created by KiCad (PCBNEW 8.0.7) date 2024-12-23 04:42:48*
%MOMM*%
%LPD*%
G01*
G04 APERTURE LIST*
G04 Aperture macros list*
%AMRotRect*
0 Rectangle, with rotation*
0 The origin of the aperture is its center*
0 $1 length*
0 $2 width*
0 $3 Rotation angle, in degrees counterclockwise*
0 Add horizontal line*
21,1,$1,$2,0,0,$3*%
G04 Aperture macros list end*
%ADD10C,0.700000*%
%ADD11C,4.400000*%
%ADD12C,1.700000*%
%ADD13C,1.900000*%
%ADD14C,3.000000*%
%ADD15C,3.400000*%
%ADD16RotRect,2.600000X2.600000X25.000000*%
%ADD17RotRect,0.900000X1.200000X115.000000*%
%ADD18RotRect,0.900000X1.200000X65.000000*%
%ADD19RotRect,2.600000X2.600000X335.000000*%
%ADD20RotRect,0.900000X1.200000X138.000000*%
%ADD21RotRect,0.900000X1.200000X55.000000*%
%ADD22RotRect,0.900000X1.200000X42.000000*%
%ADD23RotRect,2.600000X2.600000X325.000000*%
%ADD24RotRect,2.600000X2.600000X48.000000*%
%ADD25RotRect,0.900000X1.200000X125.000000*%
%ADD26RotRect,2.600000X2.600000X35.000000*%
%ADD27RotRect,2.600000X2.600000X312.000000*%
G04 APERTURE END LIST*
D10*
X272694739Y-177231620D03*
X272639655Y-175969968D03*
X273625817Y-178084794D03*
X274887469Y-178029710D03*
D11*
X274190149Y-176534300D03*
D10*
X273492829Y-175038890D03*
X274754481Y-174983806D03*
X275740643Y-177098632D03*
X275685559Y-175836980D03*
D12*
X219932598Y-141892014D03*
X219932597Y-144432014D03*
X219932599Y-146972014D03*
X219932598Y-149512014D03*
X219932598Y-152052016D03*
X219932598Y-154592014D03*
X219932595Y-157132013D03*
X219932598Y-159672016D03*
X219932599Y-162212015D03*
X219932599Y-164752015D03*
X219932598Y-167292015D03*
X219932598Y-169832017D03*
X219932598Y-172372014D03*
X204692598Y-172372016D03*
X204692599Y-169832016D03*
X204692597Y-167292016D03*
X204692598Y-164752016D03*
X204692598Y-162212014D03*
X204692598Y-159672016D03*
X204692601Y-157132017D03*
X204692598Y-154592014D03*
X204692597Y-152052015D03*
X204692597Y-149512015D03*
X204692598Y-146972015D03*
X204692598Y-144432013D03*
X204692598Y-141892016D03*
X209062591Y-177227013D03*
X215562591Y-177227017D03*
D10*
X319142390Y-106472409D03*
X319087306Y-105210757D03*
X320073468Y-107325583D03*
X321335120Y-107270499D03*
D11*
X320637800Y-105775089D03*
D10*
X319940480Y-104279679D03*
X321202132Y-104224595D03*
X322188294Y-106339421D03*
X322133210Y-105077769D03*
X102491981Y-105077766D03*
X102436898Y-106339418D03*
X103423059Y-104224593D03*
X104684711Y-104279676D03*
D11*
X103987391Y-105775086D03*
D10*
X103290071Y-107270496D03*
X104551723Y-107325579D03*
X105537884Y-105210754D03*
X105482801Y-106472406D03*
X149996175Y-173571213D03*
X149941092Y-174832865D03*
X150927253Y-172718040D03*
X152188905Y-172773123D03*
D11*
X151491585Y-174268533D03*
D10*
X150794265Y-175763943D03*
X152055917Y-175819026D03*
X153042078Y-173704201D03*
X152986995Y-174965853D03*
X88122959Y-135892232D03*
X88067876Y-137153884D03*
X89054037Y-135039059D03*
X90315689Y-135094142D03*
D11*
X89618369Y-136589552D03*
D10*
X88921049Y-138084962D03*
X90182701Y-138140045D03*
X91168862Y-136025220D03*
X91113779Y-137286872D03*
X171549704Y-127349515D03*
X171494621Y-128611167D03*
X172480782Y-126496342D03*
X173742434Y-126551425D03*
D11*
X173045114Y-128046835D03*
D10*
X172347794Y-129542245D03*
X173609446Y-129597328D03*
X174595607Y-127482503D03*
X174540524Y-128744155D03*
X251141208Y-131009920D03*
X251086124Y-129748268D03*
X252072286Y-131863094D03*
X253333938Y-131808010D03*
D11*
X252636618Y-130312600D03*
D10*
X251939298Y-128817190D03*
X253200950Y-128762106D03*
X254187112Y-130876932D03*
X254132028Y-129615280D03*
X333511411Y-137286872D03*
X333456327Y-136025220D03*
X334442489Y-138140046D03*
X335704141Y-138084962D03*
D11*
X335006821Y-136589552D03*
D10*
X334309501Y-135094142D03*
X335571153Y-135039058D03*
X336557315Y-137153884D03*
X336502231Y-135892232D03*
D13*
X258344402Y-134271279D03*
D14*
X260814517Y-126554351D03*
D15*
X263329095Y-131946881D03*
D14*
X266275815Y-126435135D03*
D13*
X268313788Y-129622483D03*
D16*
X257846357Y-127938426D03*
X269243974Y-125051062D03*
D17*
X293290956Y-176619976D03*
X291896316Y-173629156D03*
X347979662Y-123533766D03*
X346585022Y-120542946D03*
X286106447Y-161212747D03*
X284711807Y-158221927D03*
D13*
X325457611Y-150421126D03*
D14*
X327927726Y-142704198D03*
D15*
X330442304Y-148096728D03*
D14*
X333389024Y-142584982D03*
D13*
X335426997Y-145772330D03*
D16*
X324959566Y-144088273D03*
X336357183Y-141200909D03*
D13*
X283786976Y-103649793D03*
D14*
X286257091Y-95932865D03*
D15*
X288771669Y-101325395D03*
D14*
X291718389Y-95813649D03*
D13*
X293756362Y-99000997D03*
D16*
X283288931Y-97316940D03*
X294686548Y-94429576D03*
D18*
X138261142Y-158334178D03*
X139655782Y-155343358D03*
D13*
X265528918Y-149678512D03*
D14*
X267999033Y-141961584D03*
D15*
X270513611Y-147354114D03*
D14*
X273460331Y-141842368D03*
D13*
X275498304Y-145029716D03*
D16*
X265030873Y-143345659D03*
X276428490Y-140458295D03*
D13*
X243087410Y-144144178D03*
D14*
X245557525Y-136427250D03*
D15*
X248072103Y-141819780D03*
D14*
X251018823Y-136308034D03*
D13*
X253056796Y-139495382D03*
D16*
X242589365Y-137811325D03*
X253986982Y-134923961D03*
D13*
X164383877Y-154902615D03*
D14*
X171883148Y-151834483D03*
D15*
X169368570Y-157227013D03*
D14*
X175484927Y-155941451D03*
D13*
X174353263Y-159551411D03*
D19*
X168914991Y-150450408D03*
X178453086Y-157325526D03*
D17*
X286994421Y-120525385D03*
X285599781Y-117534565D03*
X308547950Y-166747080D03*
X307153310Y-163756260D03*
D13*
X266416893Y-108991151D03*
D14*
X268887008Y-101274223D03*
D15*
X271401586Y-106666753D03*
D14*
X274348306Y-101155007D03*
D13*
X276386279Y-104342355D03*
D16*
X265918848Y-102658298D03*
X277316465Y-99770934D03*
D18*
X146333625Y-183614312D03*
X147728265Y-180623492D03*
D13*
X102130787Y-160629924D03*
D14*
X109630058Y-157561792D03*
D15*
X107115480Y-162954322D03*
D14*
X113231837Y-161668760D03*
D13*
X112100173Y-165278720D03*
D19*
X106661901Y-156177717D03*
X116199996Y-163052835D03*
D13*
X312525020Y-165278722D03*
D14*
X314995135Y-157561794D03*
D15*
X317509713Y-162954324D03*
D14*
X320456433Y-157442578D03*
D13*
X322494406Y-160629926D03*
D16*
X312026975Y-158945869D03*
X323424592Y-156058505D03*
D13*
X148238911Y-104342355D03*
D14*
X155738182Y-101274223D03*
D15*
X153223604Y-106666753D03*
D14*
X159339961Y-105381191D03*
D13*
X158208297Y-108991151D03*
D19*
X152770025Y-99890148D03*
X162308120Y-106765266D03*
D13*
X178752902Y-124088156D03*
D14*
X186252173Y-121020024D03*
D15*
X183737595Y-126412554D03*
D14*
X189853952Y-125126992D03*
D13*
X188722288Y-128736952D03*
D19*
X183284016Y-119635949D03*
X192822111Y-126511067D03*
D17*
X355164175Y-138940999D03*
X353769535Y-135950179D03*
X338850635Y-146548130D03*
X337455995Y-143557310D03*
D13*
X298155999Y-134464253D03*
D14*
X300626114Y-126747325D03*
D15*
X303140692Y-132139855D03*
D14*
X306087412Y-126628109D03*
D13*
X308125385Y-129815457D03*
D16*
X297657954Y-128131400D03*
X309055571Y-125244036D03*
D13*
X80069157Y-122757975D03*
D14*
X87568428Y-119689843D03*
D15*
X85053850Y-125082373D03*
D14*
X91170207Y-123796811D03*
D13*
X90038543Y-127406771D03*
D19*
X84600271Y-118305768D03*
X94138366Y-125180886D03*
D13*
X116499809Y-129815456D03*
D14*
X123999080Y-126747324D03*
D15*
X121484502Y-132139854D03*
D14*
X127600859Y-130854292D03*
D13*
X126469195Y-134464252D03*
D19*
X121030923Y-125363249D03*
X130569018Y-132238367D03*
D13*
X280785908Y-139805618D03*
D14*
X283256023Y-132088690D03*
D15*
X285770601Y-137481220D03*
D14*
X288717321Y-131969474D03*
D13*
X290755294Y-135156822D03*
D16*
X280287863Y-133472765D03*
X291685480Y-130585401D03*
D18*
X153518143Y-168207080D03*
X154912783Y-165216260D03*
D13*
X251159895Y-118864050D03*
D14*
X253630010Y-111147122D03*
D15*
X256144588Y-116539652D03*
D14*
X259091308Y-111027906D03*
D13*
X261129281Y-114215254D03*
D16*
X250661850Y-112531197D03*
X262059467Y-109643833D03*
D13*
X133869887Y-135156822D03*
D14*
X141369158Y-132088690D03*
D15*
X138854580Y-137481220D03*
D14*
X144970937Y-136195658D03*
D13*
X143839273Y-139805618D03*
D19*
X138401001Y-130704615D03*
X147939096Y-137579733D03*
D18*
X107958464Y-138135230D03*
X109353104Y-135144410D03*
D13*
X119500872Y-165971285D03*
D14*
X127000143Y-162903153D03*
D15*
X124485565Y-168295683D03*
D14*
X130601922Y-167010121D03*
D13*
X129470258Y-170620081D03*
D19*
X124031986Y-161519078D03*
X133570081Y-168394196D03*
D13*
X89198189Y-145772334D03*
D14*
X96697460Y-142704202D03*
D15*
X94182882Y-148096732D03*
D14*
X100299239Y-146811170D03*
D13*
X99167575Y-150421130D03*
D19*
X93729303Y-141320127D03*
X103267398Y-148195245D03*
D18*
X142444587Y-106771126D03*
X143839227Y-103780306D03*
X128075564Y-137585591D03*
X129470204Y-134594771D03*
D13*
X123684319Y-114408226D03*
D14*
X131183590Y-111340094D03*
D15*
X128669012Y-116732624D03*
D14*
X134785369Y-115447062D03*
D13*
X133653705Y-119057022D03*
D19*
X128215433Y-109956019D03*
X137753528Y-116831137D03*
D13*
X72884652Y-138165202D03*
D14*
X80383923Y-135097070D03*
D15*
X77869345Y-140489600D03*
D14*
X83985702Y-139204038D03*
D13*
X82854038Y-142813998D03*
D19*
X77415766Y-133712995D03*
X86953861Y-140588113D03*
D17*
X297179992Y-99776789D03*
X295785352Y-96785969D03*
D18*
X145445652Y-142926950D03*
X146840292Y-139936130D03*
X167887160Y-137392610D03*
X169281800Y-134401790D03*
X168775133Y-178079974D03*
X170169773Y-175089154D03*
X190328665Y-131858280D03*
X191723305Y-128867460D03*
D13*
X134757869Y-175844185D03*
D14*
X142257140Y-172776053D03*
D15*
X139742562Y-178168583D03*
D14*
X145858919Y-176883021D03*
D13*
X144727255Y-180492981D03*
D19*
X139288983Y-171391978D03*
X148827078Y-178267096D03*
D17*
X279809910Y-105118152D03*
X278415270Y-102127332D03*
D13*
X149126885Y-145029719D03*
D14*
X156626156Y-141961587D03*
D15*
X154111578Y-147354117D03*
D14*
X160227935Y-146068555D03*
D13*
X159096271Y-149678515D03*
D19*
X153657999Y-140577512D03*
X163196094Y-147452630D03*
D13*
X87253674Y-107350741D03*
D14*
X94752945Y-104282609D03*
D15*
X92238367Y-109675139D03*
D14*
X98354724Y-108389577D03*
D13*
X97223060Y-111999537D03*
D19*
X91784788Y-102898534D03*
X101322883Y-109773652D03*
D13*
X141942378Y-160436956D03*
D14*
X149441649Y-157368824D03*
D15*
X146927071Y-162761354D03*
D14*
X153043428Y-161475792D03*
D13*
X151911764Y-165085752D03*
D19*
X146473492Y-155984749D03*
X156011587Y-162859867D03*
D17*
X340795151Y-108126541D03*
X339400511Y-105135721D03*
X249295924Y-124863948D03*
X247901284Y-121873128D03*
X333610642Y-92719305D03*
X332216002Y-89728485D03*
D20*
X274992429Y-186637637D03*
X272540049Y-184429505D03*
D13*
X257456431Y-174958643D03*
D14*
X259926546Y-167241715D03*
D15*
X262441124Y-172634245D03*
D14*
X265387844Y-167122499D03*
D13*
X267425817Y-170309847D03*
D16*
X256958386Y-168625790D03*
X268356003Y-165738426D03*
D13*
X341771151Y-142814006D03*
D14*
X344241266Y-135097078D03*
D15*
X346755844Y-140489608D03*
D14*
X349702564Y-134977862D03*
D13*
X351740537Y-138165210D03*
D16*
X341273106Y-136481153D03*
X352670723Y-133593789D03*
D13*
X320217625Y-96592305D03*
D14*
X322687740Y-88875377D03*
D15*
X325202318Y-94267907D03*
D14*
X328149038Y-88756161D03*
D13*
X330187011Y-91943509D03*
D16*
X319719580Y-90259452D03*
X331117197Y-87372088D03*
D13*
X156311397Y-129622483D03*
D14*
X163810668Y-126554351D03*
D15*
X161296090Y-131946881D03*
D14*
X167412447Y-130661319D03*
D13*
X166280783Y-134271279D03*
D19*
X160842511Y-125170276D03*
X170380606Y-132045394D03*
D17*
X271737429Y-130398279D03*
X270342789Y-127407459D03*
X331666121Y-131140898D03*
X330271481Y-128150078D03*
D13*
X327402131Y-111999541D03*
D14*
X329872246Y-104282613D03*
D15*
X332386824Y-109675143D03*
D14*
X335333544Y-104163397D03*
D13*
X337371517Y-107350745D03*
D16*
X326904086Y-105666688D03*
X338301703Y-102779324D03*
D13*
X279897944Y-180492977D03*
D14*
X282368059Y-172776049D03*
D15*
X284882637Y-178168579D03*
D14*
X287829357Y-172656833D03*
D13*
X289867330Y-175844181D03*
D16*
X279399899Y-174160124D03*
X290797516Y-171272760D03*
D13*
X318273107Y-135013898D03*
D14*
X320743222Y-127296970D03*
D15*
X323257800Y-132689500D03*
D14*
X326204520Y-127177754D03*
D13*
X328242493Y-130365102D03*
D16*
X317775062Y-128681045D03*
X329172679Y-125793681D03*
D21*
X256616324Y-211268761D03*
X258509126Y-208565561D03*
D13*
X96382703Y-130365102D03*
D14*
X103881974Y-127296970D03*
D15*
X101367396Y-132689500D03*
D14*
X107483753Y-131403938D03*
D13*
X106352089Y-135013898D03*
D19*
X100913817Y-125912895D03*
X110451912Y-132788013D03*
D18*
X115142979Y-122727999D03*
X116537619Y-119737179D03*
X98829435Y-115120868D03*
X100224075Y-112130048D03*
D17*
X256480429Y-140271180D03*
X255085789Y-137280360D03*
D22*
X160706879Y-198936684D03*
X163159261Y-196728552D03*
D13*
X303904082Y-104199431D03*
D14*
X306374197Y-96482503D03*
D15*
X308888775Y-101875033D03*
D14*
X311835495Y-96363287D03*
D13*
X313873468Y-99550635D03*
D16*
X303406037Y-97866578D03*
X314803654Y-94979214D03*
D17*
X311549015Y-130591255D03*
X310154375Y-127600435D03*
X318733530Y-145998490D03*
X317338890Y-143007670D03*
D18*
X175071672Y-121985379D03*
X176466312Y-118994559D03*
D13*
X246565698Y-201606569D03*
D14*
X254483813Y-199887282D03*
D15*
X251071033Y-204761238D03*
D14*
X257317704Y-204557299D03*
D13*
X255576368Y-207915907D03*
D23*
X251801091Y-198008821D03*
X260000426Y-206435763D03*
D13*
X250271925Y-159551413D03*
D14*
X252742040Y-151834485D03*
D15*
X255256618Y-157227015D03*
D14*
X258203338Y-151715269D03*
D13*
X260241311Y-154902617D03*
D16*
X249773880Y-153218560D03*
X261171497Y-150331196D03*
D18*
X135260077Y-122178356D03*
X136654717Y-119187536D03*
D17*
X278921939Y-145805511D03*
X277527299Y-142814691D03*
D18*
X159814675Y-112112481D03*
X161209315Y-109121661D03*
X152630160Y-127519714D03*
X154024800Y-124528894D03*
X120891051Y-152992826D03*
X122285691Y-150002006D03*
D13*
X235902899Y-128736947D03*
D14*
X238373014Y-121020019D03*
D15*
X240887592Y-126412549D03*
D14*
X243834312Y-120900803D03*
D13*
X245872285Y-124088151D03*
D16*
X235404854Y-122404094D03*
X246802471Y-119516730D03*
D13*
X94438180Y-91943507D03*
D14*
X101937451Y-88875375D03*
D15*
X99422873Y-94267905D03*
D14*
X105539230Y-92982343D03*
D13*
X104407566Y-96592303D03*
D19*
X98969294Y-87491300D03*
X108507389Y-94366418D03*
D18*
X122327484Y-107320765D03*
X123722124Y-104329945D03*
D13*
X295154934Y-170620079D03*
D14*
X297625049Y-162903151D03*
D15*
X300139627Y-168295681D03*
D14*
X303086347Y-162783935D03*
D13*
X305124320Y-165971283D03*
D16*
X294656889Y-164287226D03*
X306054506Y-161399862D03*
D18*
X113706546Y-168400054D03*
X115101186Y-165409234D03*
D17*
X317297103Y-100326431D03*
X315902463Y-97335611D03*
D13*
X103567210Y-114957869D03*
D14*
X111066481Y-111889737D03*
D15*
X108551903Y-117282267D03*
D14*
X114668260Y-115996705D03*
D13*
X113536596Y-119606665D03*
D19*
X108098324Y-110505662D03*
X117636419Y-117380780D03*
D13*
X290971492Y-119057028D03*
D14*
X293441607Y-111340100D03*
D15*
X295956185Y-116732630D03*
D14*
X298902905Y-111220884D03*
D13*
X300940878Y-114408232D03*
D16*
X290473447Y-112724175D03*
X301871064Y-109836811D03*
D17*
X324481613Y-115733668D03*
X323086973Y-112742848D03*
D13*
X163495904Y-114215251D03*
D14*
X170995175Y-111147119D03*
D15*
X168480597Y-116539649D03*
D14*
X174596954Y-115254087D03*
D13*
X173465290Y-118864047D03*
D19*
X168027018Y-109763044D03*
X177565113Y-116638162D03*
D13*
X287970425Y-155212847D03*
D14*
X290440540Y-147495919D03*
D15*
X292955118Y-152888449D03*
D14*
X295901838Y-147376703D03*
D13*
X297939811Y-150564051D03*
D16*
X287472380Y-148879994D03*
X298869997Y-145992630D03*
D13*
X126685385Y-150564050D03*
D14*
X134184656Y-147495918D03*
D15*
X131670078Y-152888448D03*
D14*
X137786435Y-151602886D03*
D13*
X136654771Y-155212846D03*
D19*
X131216499Y-146111843D03*
X140754594Y-152986961D03*
D13*
X334586645Y-127406767D03*
D14*
X337056760Y-119689839D03*
D15*
X339571338Y-125082369D03*
D14*
X342518058Y-119570623D03*
D13*
X344556031Y-122757971D03*
D16*
X334088600Y-121073914D03*
X345486217Y-118186550D03*
D17*
X270849452Y-171085646D03*
X269454812Y-168094826D03*
D13*
X264177389Y-195435823D03*
D14*
X263435897Y-187367201D03*
D15*
X267857609Y-191348527D03*
D14*
X268416468Y-185123565D03*
D13*
X271537829Y-187261231D03*
D24*
X261244492Y-189801000D03*
X270607873Y-182689764D03*
D13*
X305340509Y-149871491D03*
D14*
X307810624Y-142154563D03*
D15*
X310325202Y-147547093D03*
D14*
X313271922Y-142035347D03*
D13*
X315309895Y-145222695D03*
D16*
X304842464Y-143538638D03*
X316240081Y-140651274D03*
D17*
X301363440Y-151339850D03*
X299968800Y-148349030D03*
D18*
X160702649Y-152799847D03*
X162097289Y-149809027D03*
X131076633Y-173741411D03*
X132471273Y-170750591D03*
D25*
X181565836Y-201776072D03*
X179673030Y-199072870D03*
D18*
X175959643Y-162672742D03*
X177354283Y-159681922D03*
D17*
X264552916Y-114991048D03*
X263158276Y-112000228D03*
D13*
X130868828Y-99000995D03*
D14*
X138368099Y-95932863D03*
D15*
X135853521Y-101325393D03*
D14*
X141969878Y-100039831D03*
D13*
X140838214Y-103649791D03*
D19*
X135399942Y-94548788D03*
X144938037Y-101423906D03*
D17*
X304364507Y-115184027D03*
X302969867Y-112193207D03*
D13*
X169048825Y-207915911D03*
D15*
X173554160Y-204761242D03*
D14*
X170141380Y-199887286D03*
X175499008Y-198821539D03*
D13*
X178059495Y-201606573D03*
D26*
X167458660Y-201765751D03*
X178181732Y-196943077D03*
D17*
X263664946Y-155678411D03*
X262270306Y-152687591D03*
X294178931Y-135932618D03*
X292784291Y-132941798D03*
D13*
X110751723Y-99550636D03*
D14*
X118250994Y-96482504D03*
D15*
X115736416Y-101875034D03*
D14*
X121852773Y-100589472D03*
D13*
X120721109Y-104199432D03*
D19*
X115282837Y-95098429D03*
X124820932Y-101973547D03*
D18*
X91644921Y-130528101D03*
X93039561Y-127537281D03*
D13*
X272713428Y-165085743D03*
D14*
X275183543Y-157368815D03*
D15*
X277698121Y-162761345D03*
D14*
X280644841Y-157249599D03*
D13*
X282682814Y-160436947D03*
D16*
X272215383Y-158752890D03*
X283613000Y-155865526D03*
D17*
X325918036Y-161405721D03*
X324523396Y-158414901D03*
D18*
X100773954Y-153542463D03*
X102168594Y-150551643D03*
X183144151Y-147265507D03*
X184538791Y-144274687D03*
D13*
X141054406Y-119749590D03*
D14*
X148553677Y-116681458D03*
D15*
X146039099Y-122073988D03*
D14*
X152155456Y-120788426D03*
D13*
X151023792Y-124398386D03*
D19*
X145585520Y-115297383D03*
X155123615Y-122172501D03*
D18*
X106013945Y-99713641D03*
X107408585Y-96722821D03*
D13*
X273601403Y-124398382D03*
D14*
X276071518Y-116681454D03*
D15*
X278586096Y-122073984D03*
D14*
X281532816Y-116562238D03*
D13*
X283570789Y-119749586D03*
D16*
X273103358Y-118065529D03*
X284500975Y-115178165D03*
D13*
X171568388Y-139495381D03*
D14*
X179067659Y-136427249D03*
D15*
X176553081Y-141819779D03*
D14*
X182669438Y-140534217D03*
D13*
X181537774Y-144144177D03*
D19*
X176099502Y-135043174D03*
X185637597Y-141918292D03*
D13*
X109315298Y-145222692D03*
D14*
X116814569Y-142154560D03*
D15*
X114299991Y-147547090D03*
D14*
X120416348Y-146261528D03*
D13*
X119284684Y-149871488D03*
D19*
X113846412Y-140770485D03*
X123384507Y-147645603D03*
D13*
X311088590Y-119606665D03*
D14*
X313558705Y-111889737D03*
D15*
X316073283Y-117282267D03*
D14*
X319020003Y-111770521D03*
D13*
X321057976Y-114957869D03*
D16*
X310590545Y-113273812D03*
X321988162Y-110386448D03*
D13*
X157199366Y-170309848D03*
D14*
X164698637Y-167241716D03*
D15*
X162184059Y-172634246D03*
D14*
X168300416Y-171348684D03*
D13*
X167168752Y-174958644D03*
D19*
X161730480Y-165857641D03*
X171268575Y-172732759D03*
D18*
X84460412Y-145935336D03*
X85855052Y-142944516D03*
D13*
X153087366Y-187261230D03*
D14*
X161189295Y-187367202D03*
D15*
X156767586Y-191348527D03*
D14*
X162900031Y-192555012D03*
D13*
X160447806Y-195435824D03*
D27*
X158997894Y-184933403D03*
X165091437Y-194988811D03*
M02*
