%TF.GenerationSoftware,KiCad,Pcbnew,8.0.7*%
%TF.CreationDate,2024-12-23T04:42:48-05:00*%
%TF.ProjectId,choc,63686f63-2e6b-4696-9361-645f70636258,v1.0.0*%
%TF.SameCoordinates,Original*%
%TF.FileFunction,Copper,L1,Top*%
%TF.FilePolarity,Positive*%
%FSLAX46Y46*%
G04 Gerber Fmt 4.6, Leading zero omitted, Abs format (unit mm)*
G04 Created by KiCad (PCBNEW 8.0.7) date 2024-12-23 04:42:48*
%MOMM*%
%LPD*%
G01*
G04 APERTURE LIST*
%TA.AperFunction,ComponentPad*%
%ADD10C,0.600000*%
%TD*%
%TA.AperFunction,ComponentPad*%
%ADD11C,0.700000*%
%TD*%
%TA.AperFunction,ComponentPad*%
%ADD12C,4.400000*%
%TD*%
%TA.AperFunction,ComponentPad*%
%ADD13C,1.700000*%
%TD*%
%TA.AperFunction,Conductor*%
%ADD14C,0.250000*%
%TD*%
G04 APERTURE END LIST*
D10*
X257262276Y-141947846D03*
X151848323Y-129196381D03*
X167993293Y-179756645D03*
X271631297Y-172762313D03*
D11*
X272694739Y-177231620D03*
X272639655Y-175969968D03*
X273625817Y-178084794D03*
X274887469Y-178029710D03*
D12*
X274190149Y-176534300D03*
D11*
X273492829Y-175038890D03*
X274754481Y-174983806D03*
X275740643Y-177098632D03*
X275685559Y-175836980D03*
D10*
X334392485Y-94395975D03*
X332588307Y-117856521D03*
X159332066Y-200174575D03*
X326699882Y-163082388D03*
X127293721Y-139262256D03*
X287776264Y-122202046D03*
X309329799Y-168423748D03*
X305146351Y-116860691D03*
X182626949Y-203291502D03*
X272519269Y-132074946D03*
D13*
X219932598Y-141892014D03*
X219932597Y-144432014D03*
X219932599Y-146972014D03*
X219932598Y-149512014D03*
X219932598Y-152052016D03*
X219932598Y-154592014D03*
X219932595Y-157132013D03*
X219932598Y-159672016D03*
X219932599Y-162212015D03*
X219932599Y-164752015D03*
X219932598Y-167292015D03*
X219932598Y-169832017D03*
X219932598Y-172372014D03*
X204692598Y-172372016D03*
X204692599Y-169832016D03*
X204692597Y-167292016D03*
X204692598Y-164752016D03*
X204692598Y-162212014D03*
X204692598Y-159672016D03*
X204692601Y-157132017D03*
X204692598Y-154592014D03*
X204692597Y-152052015D03*
X204692597Y-149512015D03*
X204692598Y-146972015D03*
X204692598Y-144432013D03*
X204692598Y-141892016D03*
D10*
X276367242Y-187875524D03*
X325263457Y-117410332D03*
D13*
X209062591Y-177227013D03*
X215562591Y-177227017D03*
D10*
X107176622Y-139811893D03*
X144663811Y-144603617D03*
X145551785Y-185290978D03*
X355946020Y-140617671D03*
D11*
X319142390Y-106472409D03*
X319087306Y-105210757D03*
X320073468Y-107325583D03*
X321335120Y-107270499D03*
D12*
X320637800Y-105775089D03*
D11*
X319940480Y-104279679D03*
X321202132Y-104224595D03*
X322188294Y-106339421D03*
X322133210Y-105077769D03*
D10*
X155158298Y-137360120D03*
X250077766Y-126540613D03*
X167105317Y-139069277D03*
X90863079Y-132204768D03*
X114361129Y-124404664D03*
D11*
X102491981Y-105077766D03*
X102436898Y-106339418D03*
X103423059Y-104224593D03*
X104684711Y-104279676D03*
D12*
X103987391Y-105775086D03*
D11*
X103290071Y-107270496D03*
X104551723Y-107325579D03*
X105537884Y-105210754D03*
X105482801Y-106472406D03*
D10*
X130294792Y-175418077D03*
X339632477Y-148224797D03*
X312330863Y-132267920D03*
X141662746Y-108447792D03*
X319515372Y-147675154D03*
X294960780Y-137609282D03*
X279703781Y-147482180D03*
D11*
X149996175Y-173571213D03*
X149941092Y-174832865D03*
X150927253Y-172718040D03*
X152188905Y-172773123D03*
D12*
X151491585Y-174268533D03*
D11*
X150794265Y-175763943D03*
X152055917Y-175819026D03*
X153042078Y-173704201D03*
X152986995Y-174965853D03*
D10*
X318078943Y-102003103D03*
D11*
X88122959Y-135892232D03*
X88067876Y-137153884D03*
X89054037Y-135039059D03*
X90315689Y-135094142D03*
D12*
X89618369Y-136589552D03*
D11*
X88921049Y-138084962D03*
X90182701Y-138140045D03*
X91168862Y-136025220D03*
X91113779Y-137286872D03*
D10*
X134478233Y-123855024D03*
X120109212Y-154669485D03*
D11*
X171549704Y-127349515D03*
X171494621Y-128611167D03*
X172480782Y-126496342D03*
X173742434Y-126551425D03*
D12*
X173045114Y-128046835D03*
D11*
X172347794Y-129542245D03*
X173609446Y-129597328D03*
X174595607Y-127482503D03*
X174540524Y-128744155D03*
D10*
X98047588Y-116797535D03*
X280591753Y-106794816D03*
X255555207Y-212784189D03*
X99992106Y-155219129D03*
X294072802Y-178296643D03*
X105232097Y-101390308D03*
X316274760Y-125463652D03*
X297961840Y-101453457D03*
X189546819Y-133534949D03*
X137479302Y-160010850D03*
X341576997Y-109803206D03*
X152736291Y-169883749D03*
D11*
X251141208Y-131009920D03*
X251086124Y-129748268D03*
X252072286Y-131863094D03*
X253333938Y-131808010D03*
D12*
X252636618Y-130312600D03*
D11*
X251939298Y-128817190D03*
X253200950Y-128762106D03*
X254187112Y-130876932D03*
X254132028Y-129615280D03*
D10*
X332447966Y-132817567D03*
X121545642Y-108997430D03*
X296157662Y-124914013D03*
X302145291Y-153016515D03*
X159920804Y-154476514D03*
X348761504Y-125210436D03*
X182362310Y-148942182D03*
X286888290Y-162889410D03*
X264446790Y-157355081D03*
X139901301Y-127487220D03*
X265334762Y-116667713D03*
D11*
X333511411Y-137286872D03*
X333456327Y-136025220D03*
X334442489Y-138140046D03*
X335704141Y-138084962D03*
D12*
X335006821Y-136589552D03*
D11*
X334309501Y-135094142D03*
X335571153Y-135039058D03*
X336557315Y-137153884D03*
X336502231Y-135892232D03*
D10*
X83678565Y-147612006D03*
X159032828Y-113789150D03*
X112924701Y-170076719D03*
X174289826Y-123662046D03*
X170415290Y-147233013D03*
X175177801Y-164349411D03*
D14*
X244010966Y-148871814D02*
X244073463Y-148842670D01*
X273481944Y-132177734D02*
X302149195Y-118809977D01*
X314463079Y-123291863D02*
X328955077Y-116534134D01*
X302149195Y-118809977D02*
X314463079Y-123291863D01*
X246101787Y-159510181D02*
X245301032Y-161710236D01*
X244073463Y-148842670D02*
X272188075Y-135732613D01*
X221972597Y-161712015D02*
X245297214Y-161712016D01*
X244039833Y-148858353D02*
X242766331Y-152357273D01*
X245301032Y-161710236D02*
X245297214Y-161712016D01*
X219932598Y-159672016D02*
X221972597Y-161712015D01*
X272188075Y-135732613D02*
X273481944Y-132177734D01*
X328955077Y-116534134D02*
X332588307Y-117856521D01*
X242766331Y-152357273D02*
X246101787Y-159510181D01*
X244073463Y-148842670D02*
X244039833Y-148858353D01*
X274295004Y-132350287D02*
X273001135Y-135905165D01*
X219932600Y-162212016D02*
X245626921Y-162212017D01*
X246642468Y-159486575D02*
X245655306Y-162198780D01*
X302172802Y-119350658D02*
X274295004Y-132350287D01*
X273001135Y-135905165D02*
X244438845Y-149223979D01*
X315724196Y-124282962D02*
X302172802Y-119350658D01*
X245655306Y-162198780D02*
X245626921Y-162212017D01*
X243307012Y-152333668D02*
X246642468Y-159486575D01*
X244438845Y-149223979D02*
X243307012Y-152333668D01*
X316274760Y-125463652D02*
X315724196Y-124282962D01*
X221972600Y-162712016D02*
X246001776Y-162712016D01*
X219932599Y-164752016D02*
X221972600Y-162712016D01*
X296157662Y-124914013D02*
X295685612Y-123901702D01*
X274694016Y-132715915D02*
X273400147Y-136270792D01*
X273400147Y-136270792D02*
X244885794Y-149567253D01*
X294512114Y-123474584D02*
X274694016Y-132715915D01*
X243870046Y-152357998D02*
X247192266Y-159482520D01*
X247174139Y-159490973D02*
X246001776Y-162712016D01*
X295685612Y-123901702D02*
X294512114Y-123474584D01*
X247192266Y-159482520D02*
X247174139Y-159490973D01*
X244885794Y-149567253D02*
X243870046Y-152357998D01*
X204692597Y-159672017D02*
X202652600Y-161712015D01*
X174246775Y-146332559D02*
X182586132Y-150221264D01*
X182586132Y-150221264D02*
X182980961Y-150405378D01*
X183941334Y-152946586D02*
X183621210Y-152067057D01*
X180439612Y-160456052D02*
X183941334Y-152946586D01*
X180439612Y-160476051D02*
X180439612Y-160456052D01*
X173006280Y-142924327D02*
X174246775Y-146332559D01*
X183621210Y-152067057D02*
X183023655Y-150425284D01*
X202652600Y-161712015D02*
X181675574Y-161712014D01*
X139901301Y-127487220D02*
X173006280Y-142924327D01*
X183023655Y-150425284D02*
X182586132Y-150221264D01*
X181675574Y-161712014D02*
X180439612Y-160476051D01*
X181468470Y-162212015D02*
X179834111Y-160577656D01*
X173691586Y-146269085D02*
X173574651Y-145947808D01*
X204692598Y-162212015D02*
X181468470Y-162212015D01*
X173847763Y-146698187D02*
X173691583Y-146269085D01*
X182624642Y-150790911D02*
X173847763Y-146698187D01*
X179831218Y-160577656D02*
X183400653Y-152922979D01*
X173691583Y-146269085D02*
X173691586Y-146269085D01*
X179834111Y-160577656D02*
X179831218Y-160577656D01*
X183400653Y-152922979D02*
X182624642Y-150790911D01*
X173574651Y-145947808D02*
X155158298Y-137360120D01*
X170415290Y-147233013D02*
X172322758Y-146538751D01*
X179331217Y-160777657D02*
X179232365Y-160678805D01*
X204692600Y-164752017D02*
X202652597Y-162712013D01*
X179331218Y-160784764D02*
X181258467Y-162712015D01*
X179331218Y-160784764D02*
X179331217Y-160777657D01*
X172322758Y-146538751D02*
X182204884Y-151146865D01*
X181258467Y-162712015D02*
X202652597Y-162712013D01*
X179232363Y-160678804D02*
X179232365Y-160678805D01*
X179232363Y-160678804D02*
X182850297Y-152920122D01*
X182204884Y-151146865D02*
X182850297Y-152920122D01*
X204692601Y-169832017D02*
X198572596Y-163712015D01*
X167993293Y-179756645D02*
X169283406Y-180358234D01*
X99992106Y-155219129D02*
X102079987Y-156192723D01*
X103774827Y-155575852D02*
X105927919Y-150958526D01*
X137479302Y-160010850D02*
X136997916Y-161043190D01*
X109422997Y-149686422D02*
X120109212Y-154669485D01*
X159075384Y-172839715D02*
X152736291Y-169883749D01*
X83678565Y-147612006D02*
X99992102Y-155219130D01*
X145517020Y-166517349D02*
X152736291Y-169883749D01*
X102079987Y-156192723D02*
X103774827Y-155575852D01*
X169283406Y-180358234D02*
X170200273Y-180024521D01*
X160284606Y-176162026D02*
X159075384Y-172839715D01*
X135189329Y-161701461D02*
X120109212Y-154669485D01*
X167993293Y-179756645D02*
X160284606Y-176162026D01*
X136997916Y-161043190D02*
X135189329Y-161701461D01*
X170200273Y-180024521D02*
X170209336Y-180028747D01*
X137479302Y-160010850D02*
X144307794Y-163195029D01*
X170209336Y-180028747D02*
X177810805Y-163727346D01*
X177810805Y-163727346D02*
X177852926Y-163712014D01*
X177852926Y-163712014D02*
X198572596Y-163712015D01*
X99992102Y-155219130D02*
X99992106Y-155219129D01*
X144307794Y-163195029D02*
X145517020Y-166517349D01*
X105927919Y-150958526D02*
X109422997Y-149686422D01*
X188981012Y-163212016D02*
X177527970Y-163212014D01*
X159920804Y-154476514D02*
X166096757Y-157356407D01*
X176995632Y-164292387D02*
X177493581Y-163224532D01*
X144663811Y-144603617D02*
X144378691Y-145215061D01*
X144663811Y-144603617D02*
X151247600Y-147673690D01*
X113672838Y-135343300D02*
X111458318Y-140092354D01*
X200612594Y-163212016D02*
X188981012Y-163212016D01*
X152456824Y-150996002D02*
X159920804Y-154476514D01*
X144378691Y-145215061D02*
X144373622Y-145212696D01*
X107176614Y-139811894D02*
X107176622Y-139811893D01*
X177493581Y-163224532D02*
X177527970Y-163212014D01*
X144373622Y-145212696D02*
X141947873Y-146095597D01*
X166096757Y-157356407D02*
X167305978Y-160678719D01*
X175906004Y-164688978D02*
X176995632Y-164292387D01*
X116602661Y-134276932D02*
X113672838Y-135343300D01*
X204692596Y-167292016D02*
X200612594Y-163212016D01*
X109391387Y-140844653D02*
X107176622Y-139811893D01*
X175177801Y-164349411D02*
X175906004Y-164688978D01*
X127293721Y-139262256D02*
X116602661Y-134276932D01*
X151247600Y-147673690D02*
X152456824Y-150996002D01*
X167305978Y-160678719D02*
X175177801Y-164349411D01*
X111458318Y-140092354D02*
X109391387Y-140844653D01*
X90863079Y-132204768D02*
X107176614Y-139811894D01*
X141947873Y-146095597D02*
X127293721Y-139262256D01*
X114361130Y-124404664D02*
X114361129Y-124404664D01*
X120588194Y-120891869D02*
X118614564Y-125124325D01*
X134478233Y-123855024D02*
X124820362Y-119351485D01*
X151472588Y-130002148D02*
X149331770Y-130781343D01*
X182362310Y-148942182D02*
X183149549Y-149309275D01*
X181045287Y-160361726D02*
X181035286Y-160361726D01*
X151848323Y-129196381D02*
X151472588Y-130002148D01*
X183149549Y-149309275D02*
X184482013Y-152970193D01*
X182365874Y-161212016D02*
X181895576Y-161212014D01*
X158232721Y-132173473D02*
X159441947Y-135495793D01*
X181895576Y-161212014D02*
X181045287Y-160361726D01*
X159441947Y-135495793D02*
X167105317Y-139069277D01*
X204692601Y-157132018D02*
X200612602Y-161212015D01*
X151848323Y-129196381D02*
X158232721Y-132173473D01*
X98047588Y-116797535D02*
X114361130Y-124404664D01*
X149331770Y-130781343D02*
X134478233Y-123855024D01*
X167105317Y-139069277D02*
X173163447Y-141894234D01*
X181035286Y-160361726D02*
X184482013Y-152970193D01*
X174372672Y-145216551D02*
X182362310Y-148942182D01*
X118614564Y-125124325D02*
X117092486Y-125678317D01*
X124820362Y-119351485D02*
X120588194Y-120891869D01*
X182365874Y-161212016D02*
X200612602Y-161212015D01*
X117092486Y-125678317D02*
X114361129Y-124404664D01*
X173163447Y-141894234D02*
X174372672Y-145216551D01*
X131569844Y-103741395D02*
X128055297Y-105020585D01*
X123298189Y-109814656D02*
X121545642Y-108997430D01*
X191326910Y-134552665D02*
X192332986Y-137316832D01*
X174289826Y-123662046D02*
X166608331Y-120080106D01*
X105232097Y-101390308D02*
X121545627Y-108997434D01*
X191244653Y-134326661D02*
X191326910Y-134552665D01*
X182105575Y-160712014D02*
X181640500Y-160246939D01*
X159032828Y-113789150D02*
X158627513Y-114658359D01*
X181756571Y-129902296D02*
X180547343Y-126579973D01*
X158627513Y-114658359D02*
X156579721Y-115403692D01*
X180547343Y-126579973D02*
X174289826Y-123662046D01*
X181640500Y-160246939D02*
X192332986Y-137316832D01*
X189546819Y-133534949D02*
X181756571Y-129902296D01*
X126335239Y-108709258D02*
X123298189Y-109814656D01*
X188451012Y-160712014D02*
X182105575Y-160712014D01*
X189546819Y-133534949D02*
X191244653Y-134326661D01*
X198572599Y-160712016D02*
X188451012Y-160712014D01*
X128055297Y-105020585D02*
X126335239Y-108709258D01*
X166608331Y-120080106D02*
X165399107Y-116757791D01*
X121545627Y-108997434D02*
X121545642Y-108997430D01*
X204692598Y-154592015D02*
X198572599Y-160712016D01*
X141662746Y-108447792D02*
X156579721Y-115403692D01*
X141662746Y-108447792D02*
X131569844Y-103741395D01*
X165399107Y-116757791D02*
X159032828Y-113789150D01*
X145551785Y-185290978D02*
X152132096Y-192599155D01*
X152529897Y-192620001D02*
X159332066Y-200174575D01*
X130294792Y-175418077D02*
X121842311Y-171476621D01*
X136797009Y-178450109D02*
X130294792Y-175418077D01*
X138006236Y-181772433D02*
X136797009Y-178450109D01*
X118519996Y-172685846D02*
X112924701Y-170076719D01*
X170419924Y-211838952D02*
X167088194Y-211251478D01*
X167088194Y-211251478D02*
X159332066Y-200174575D01*
X121842311Y-171476621D02*
X118519996Y-172685846D01*
X182626949Y-203291502D02*
X170419924Y-211838952D01*
X145551785Y-185290978D02*
X138006236Y-181772433D01*
X152132096Y-192599155D02*
X152529897Y-192620001D01*
X339632483Y-148224799D02*
X339632477Y-148224797D01*
X305467600Y-154225737D02*
X319515372Y-147675154D01*
X271631297Y-172762313D02*
X257780157Y-179221205D01*
X327104545Y-154066668D02*
X321553679Y-152046318D01*
X321553679Y-152046318D02*
X319515372Y-147675154D01*
X355946020Y-140617671D02*
X339632483Y-148224799D01*
X256113737Y-178614678D02*
X249177853Y-163740626D01*
X219932598Y-169832017D02*
X226052598Y-163712017D01*
X302145291Y-153016515D02*
X305467600Y-154225737D01*
X249177853Y-163740626D02*
X249099247Y-163712016D01*
X226052598Y-163712017D02*
X249099247Y-163712016D01*
X300936069Y-156338823D02*
X302145291Y-153016515D01*
X285679065Y-166211731D02*
X286888290Y-162889410D01*
X339632477Y-148224797D02*
X327104545Y-154066668D01*
X271631297Y-172762313D02*
X285679065Y-166211731D01*
X257780157Y-179221205D02*
X256113737Y-178614678D01*
X286888290Y-162889410D02*
X300936069Y-156338823D01*
X348761504Y-125210436D02*
X332447967Y-132817563D01*
X298283091Y-138818504D02*
X312330863Y-132267920D01*
X332447967Y-132817563D02*
X332447966Y-132817567D01*
X264446790Y-157355081D02*
X278494556Y-150804500D01*
X264446790Y-157355081D02*
X250728005Y-163752255D01*
X294960780Y-137609282D02*
X298283091Y-138818504D01*
X314474826Y-136865663D02*
X319693460Y-138765091D01*
X319693460Y-138765091D02*
X332447966Y-132817567D01*
X249230972Y-163207379D02*
X250728005Y-163752255D01*
X293751558Y-140931594D02*
X294960780Y-137609282D01*
X224012598Y-163212016D02*
X249221034Y-163212014D01*
X219932599Y-167292015D02*
X224012598Y-163212016D01*
X278494556Y-150804500D02*
X279703781Y-147482180D01*
X312330863Y-132267920D02*
X314474826Y-136865663D01*
X249221034Y-163212014D02*
X249230972Y-163207379D01*
X279703781Y-147482180D02*
X293751558Y-140931594D01*
X219932597Y-157132014D02*
X224012599Y-161212017D01*
X341576997Y-109803206D02*
X325263461Y-117410333D01*
X244963679Y-161175203D02*
X244884734Y-161212015D01*
X272519269Y-132074946D02*
X286567040Y-125524363D01*
X287776264Y-122202046D02*
X291098585Y-123411272D01*
X224012599Y-161212017D02*
X244884734Y-161212015D01*
X242212189Y-152352011D02*
X245561106Y-159533787D01*
X245561106Y-159533787D02*
X244963679Y-161175203D01*
X314085922Y-122622502D02*
X306554956Y-119881454D01*
X257262276Y-141947846D02*
X271310044Y-135397265D01*
X325263461Y-117410333D02*
X325263457Y-117410332D01*
X243696599Y-148273626D02*
X242212189Y-152352011D01*
X257262276Y-141947846D02*
X243696599Y-148273626D01*
X286567040Y-125524363D02*
X287776264Y-122202046D01*
X291098585Y-123411272D02*
X305146351Y-116860691D01*
X325263457Y-117410332D02*
X314085922Y-122622502D01*
X306554956Y-119881454D02*
X305146351Y-116860691D01*
X271310044Y-135397265D02*
X272519269Y-132074946D01*
X264125539Y-119990030D02*
X265334762Y-116667713D01*
X265334762Y-116667713D02*
X279382528Y-110117131D01*
X219932599Y-154592015D02*
X226052599Y-160712017D01*
X250077766Y-126540613D02*
X264125539Y-119990030D01*
X318078944Y-102003104D02*
X318078943Y-102003103D01*
X318078943Y-102003103D02*
X306022296Y-107625210D01*
X280591753Y-106794816D02*
X283914069Y-108004040D01*
X279382528Y-110117131D02*
X280591753Y-106794816D01*
X235693790Y-133247970D02*
X234404254Y-136790944D01*
X306022296Y-107625210D02*
X299780386Y-105353340D01*
X226052599Y-160712017D02*
X244600177Y-160712017D01*
X334392485Y-94395975D02*
X318078944Y-102003104D01*
X245020425Y-159557395D02*
X244600177Y-160712017D01*
X299780386Y-105353340D02*
X297961840Y-101453457D01*
X234404254Y-136790944D02*
X245020425Y-159557395D01*
X283914069Y-108004040D02*
X297961840Y-101453457D01*
X250077766Y-126540613D02*
X235693790Y-133247970D01*
X286449883Y-181851269D02*
X285870075Y-183444280D01*
X256602573Y-213727241D02*
X255555207Y-212784189D01*
X308120577Y-171746058D02*
X309329799Y-168423748D01*
X278321000Y-190928946D02*
X257852295Y-213661746D01*
X285870075Y-183444280D02*
X276367242Y-187875524D01*
X276367242Y-187875524D02*
X278249810Y-189570598D01*
X278249810Y-189570598D02*
X278321000Y-190928946D01*
X309329799Y-168423748D02*
X312652112Y-169632971D01*
X312652112Y-169632971D02*
X326699882Y-163082388D01*
X294072802Y-178296643D02*
X308120577Y-171746058D01*
X257852295Y-213661746D02*
X256602573Y-213727241D01*
X294072802Y-178296643D02*
X286449883Y-181851269D01*
M02*
