%TF.GenerationSoftware,KiCad,Pcbnew,8.0.7*%
%TF.CreationDate,2024-12-23T04:42:48-05:00*%
%TF.ProjectId,choc,63686f63-2e6b-4696-9361-645f70636258,v1.0.0*%
%TF.SameCoordinates,Original*%
%TF.FileFunction,Profile,NP*%
%FSLAX46Y46*%
G04 Gerber Fmt 4.6, Leading zero omitted, Abs format (unit mm)*
G04 Created by KiCad (PCBNEW 8.0.7) date 2024-12-23 04:42:48*
%MOMM*%
%LPD*%
G01*
G04 APERTURE LIST*
%TA.AperFunction,Profile*%
%ADD10C,0.150000*%
%TD*%
G04 APERTURE END LIST*
D10*
X226255724Y-123428827D02*
G75*
G02*
X227344810Y-119642314I2718676J1267927D01*
G01*
X142601723Y-192802219D02*
X156128711Y-207825467D01*
X361474615Y-143659683D02*
X332207810Y-80896821D01*
X328918323Y-79219429D02*
X294944936Y-85800890D01*
X259302431Y-220903345D02*
G75*
G02*
X255125139Y-221638790I-2456531J1721845D01*
G01*
X333499842Y-168110086D02*
G75*
G02*
X332955638Y-168442623I-1827142J2378586D01*
G01*
X230346166Y-132200808D02*
G75*
G02*
X227627246Y-136468612I-2718966J-1267792D01*
G01*
X64042022Y-147306678D02*
G75*
G02*
X63150595Y-143659688I1827278J2379078D01*
G01*
X189205279Y-207841116D02*
G75*
G02*
X190926007Y-207298564I1720721J-2457384D01*
G01*
X226255724Y-123428827D02*
X230346166Y-132200808D01*
X277229256Y-91260419D02*
X255853690Y-101228008D01*
X255491711Y-101428274D02*
G75*
G02*
X255853688Y-101228003I1630089J-2519026D01*
G01*
X277229256Y-91260419D02*
G75*
G02*
X277615347Y-91111849I1268644J-2720881D01*
G01*
X328918323Y-79219429D02*
G75*
G02*
X332207788Y-80896831I570577J-2945171D01*
G01*
X91669555Y-168442628D02*
G75*
G02*
X91125343Y-168110086I1283545J2712128D01*
G01*
X227627246Y-136468662D02*
X196997947Y-136468665D01*
X233699178Y-207298571D02*
G75*
G02*
X235419898Y-207841131I22J-2999829D01*
G01*
X268269313Y-208110901D02*
G75*
G02*
X268496475Y-207825465I2454387J-1720199D01*
G01*
X169500090Y-221638838D02*
G75*
G02*
X165322758Y-220903341I-1720790J2457138D01*
G01*
X294633737Y-85878641D02*
X277615348Y-91111852D01*
X129680258Y-85800887D02*
X95706870Y-79219432D01*
X141655558Y-192097933D02*
G75*
G02*
X142601715Y-192802226I-1283358J-2711767D01*
G01*
X259302431Y-220903345D02*
X268269313Y-208110901D01*
X194279019Y-132200806D02*
X198369463Y-123428827D01*
X196997947Y-136468665D02*
G75*
G02*
X194278984Y-132200790I53J3000065D01*
G01*
X268496476Y-207825466D02*
X282023469Y-192802222D01*
X92417378Y-80896818D02*
X63150578Y-143659679D01*
X92417378Y-80896818D02*
G75*
G02*
X95706867Y-79219447I2718922J-1267882D01*
G01*
X156128711Y-207825467D02*
G75*
G02*
X156355872Y-208110901I-2229611J-2007533D01*
G01*
X147009841Y-91111852D02*
G75*
G02*
X147395937Y-91260411I-881341J-2866548D01*
G01*
X255491711Y-101428274D02*
X227344811Y-119642315D01*
X235419909Y-207841115D02*
X255125103Y-221638841D01*
X169500090Y-221638838D02*
X189205279Y-207841116D01*
X64042022Y-147306678D02*
X91125342Y-168110087D01*
X156355874Y-208110900D02*
X165322763Y-220903338D01*
X190926007Y-207298569D02*
X233699178Y-207298571D01*
X197280383Y-119642312D02*
X169133480Y-101428274D01*
X129680258Y-85800887D02*
G75*
G02*
X129991450Y-85878644I-570358J-2944213D01*
G01*
X168771496Y-101228005D02*
X147395934Y-91260417D01*
X282023469Y-192802222D02*
G75*
G02*
X282969628Y-192097923I2229831J-2007878D01*
G01*
X361474610Y-143659684D02*
G75*
G02*
X360583156Y-147306662I-2719010J-1267816D01*
G01*
X91669555Y-168442628D02*
X141655558Y-192097933D01*
X282969632Y-192097931D02*
X332955639Y-168442626D01*
X168771499Y-101228009D02*
G75*
G02*
X169133479Y-101428276I-1266799J-2716991D01*
G01*
X333499842Y-168110086D02*
X360583171Y-147306681D01*
X147009841Y-91111852D02*
X129991451Y-85878640D01*
X294633737Y-85878641D02*
G75*
G02*
X294944937Y-85800894I880963J-2864559D01*
G01*
X197280383Y-119642312D02*
G75*
G02*
X198369520Y-123428854I-1629783J-2518688D01*
G01*
M02*
