%TF.GenerationSoftware,KiCad,Pcbnew,8.0.7*%
%TF.CreationDate,2024-12-23T04:42:48-05:00*%
%TF.ProjectId,choc,63686f63-2e6b-4696-9361-645f70636258,v1.0.0*%
%TF.SameCoordinates,Original*%
%TF.FileFunction,Legend,Bot*%
%TF.FilePolarity,Positive*%
%FSLAX46Y46*%
G04 Gerber Fmt 4.6, Leading zero omitted, Abs format (unit mm)*
G04 Created by KiCad (PCBNEW 8.0.7) date 2024-12-23 04:42:48*
%MOMM*%
%LPD*%
G01*
G04 APERTURE LIST*
G04 Aperture macros list*
%AMRotRect*
0 Rectangle, with rotation*
0 The origin of the aperture is its center*
0 $1 length*
0 $2 width*
0 $3 Rotation angle, in degrees counterclockwise*
0 Add horizontal line*
21,1,$1,$2,0,0,$3*%
G04 Aperture macros list end*
%ADD10C,0.100000*%
%ADD11C,0.150000*%
%ADD12C,0.700000*%
%ADD13C,4.400000*%
%ADD14C,1.700000*%
%ADD15C,1.900000*%
%ADD16C,3.000000*%
%ADD17C,3.400000*%
%ADD18RotRect,2.600000X2.600000X25.000000*%
%ADD19RotRect,0.900000X1.200000X115.000000*%
%ADD20RotRect,0.900000X1.200000X65.000000*%
%ADD21RotRect,2.600000X2.600000X335.000000*%
%ADD22RotRect,0.900000X1.200000X138.000000*%
%ADD23RotRect,0.900000X1.200000X55.000000*%
%ADD24RotRect,0.900000X1.200000X42.000000*%
%ADD25RotRect,2.600000X2.600000X325.000000*%
%ADD26RotRect,2.600000X2.600000X48.000000*%
%ADD27RotRect,0.900000X1.200000X125.000000*%
%ADD28RotRect,2.600000X2.600000X35.000000*%
%ADD29RotRect,2.600000X2.600000X312.000000*%
G04 APERTURE END LIST*
D10*
X219249189Y-202984434D02*
X219249189Y-202317767D01*
X219249189Y-201984434D02*
X219296808Y-202032053D01*
X219296808Y-202032053D02*
X219249189Y-202079672D01*
X219249189Y-202079672D02*
X219201570Y-202032053D01*
X219201570Y-202032053D02*
X219249189Y-201984434D01*
X219249189Y-201984434D02*
X219249189Y-202079672D01*
X218772999Y-202317767D02*
X218772999Y-202984434D01*
X218772999Y-202413005D02*
X218725380Y-202365386D01*
X218725380Y-202365386D02*
X218630142Y-202317767D01*
X218630142Y-202317767D02*
X218487285Y-202317767D01*
X218487285Y-202317767D02*
X218392047Y-202365386D01*
X218392047Y-202365386D02*
X218344428Y-202460624D01*
X218344428Y-202460624D02*
X218344428Y-202984434D01*
X218011094Y-202317767D02*
X217630142Y-202317767D01*
X217868237Y-202984434D02*
X217868237Y-202127291D01*
X217868237Y-202127291D02*
X217820618Y-202032053D01*
X217820618Y-202032053D02*
X217725380Y-201984434D01*
X217725380Y-201984434D02*
X217630142Y-201984434D01*
X217153951Y-202984434D02*
X217249189Y-202936815D01*
X217249189Y-202936815D02*
X217296808Y-202889195D01*
X217296808Y-202889195D02*
X217344427Y-202793957D01*
X217344427Y-202793957D02*
X217344427Y-202508243D01*
X217344427Y-202508243D02*
X217296808Y-202413005D01*
X217296808Y-202413005D02*
X217249189Y-202365386D01*
X217249189Y-202365386D02*
X217153951Y-202317767D01*
X217153951Y-202317767D02*
X217011094Y-202317767D01*
X217011094Y-202317767D02*
X216915856Y-202365386D01*
X216915856Y-202365386D02*
X216868237Y-202413005D01*
X216868237Y-202413005D02*
X216820618Y-202508243D01*
X216820618Y-202508243D02*
X216820618Y-202793957D01*
X216820618Y-202793957D02*
X216868237Y-202889195D01*
X216868237Y-202889195D02*
X216915856Y-202936815D01*
X216915856Y-202936815D02*
X217011094Y-202984434D01*
X217011094Y-202984434D02*
X217153951Y-202984434D01*
X215772999Y-202508243D02*
X215820618Y-202460624D01*
X215820618Y-202460624D02*
X215915856Y-202413005D01*
X215915856Y-202413005D02*
X216011094Y-202413005D01*
X216011094Y-202413005D02*
X216106332Y-202460624D01*
X216106332Y-202460624D02*
X216153951Y-202508243D01*
X216153951Y-202508243D02*
X216201570Y-202603481D01*
X216201570Y-202603481D02*
X216201570Y-202698719D01*
X216201570Y-202698719D02*
X216153951Y-202793957D01*
X216153951Y-202793957D02*
X216106332Y-202841576D01*
X216106332Y-202841576D02*
X216011094Y-202889195D01*
X216011094Y-202889195D02*
X215915856Y-202889195D01*
X215915856Y-202889195D02*
X215820618Y-202841576D01*
X215820618Y-202841576D02*
X215772999Y-202793957D01*
X215772999Y-202413005D02*
X215772999Y-202793957D01*
X215772999Y-202793957D02*
X215725380Y-202841576D01*
X215725380Y-202841576D02*
X215677761Y-202841576D01*
X215677761Y-202841576D02*
X215582522Y-202793957D01*
X215582522Y-202793957D02*
X215534903Y-202698719D01*
X215534903Y-202698719D02*
X215534903Y-202460624D01*
X215534903Y-202460624D02*
X215630142Y-202317767D01*
X215630142Y-202317767D02*
X215772999Y-202222529D01*
X215772999Y-202222529D02*
X215963475Y-202174910D01*
X215963475Y-202174910D02*
X216153951Y-202222529D01*
X216153951Y-202222529D02*
X216296808Y-202317767D01*
X216296808Y-202317767D02*
X216392046Y-202460624D01*
X216392046Y-202460624D02*
X216439665Y-202651100D01*
X216439665Y-202651100D02*
X216392046Y-202841576D01*
X216392046Y-202841576D02*
X216296808Y-202984434D01*
X216296808Y-202984434D02*
X216153951Y-203079672D01*
X216153951Y-203079672D02*
X215963475Y-203127291D01*
X215963475Y-203127291D02*
X215772999Y-203079672D01*
X215772999Y-203079672D02*
X215630142Y-202984434D01*
X215106332Y-202317767D02*
X215106332Y-203174910D01*
X215106332Y-203174910D02*
X215153951Y-203270148D01*
X215153951Y-203270148D02*
X215249189Y-203317767D01*
X215249189Y-203317767D02*
X215296808Y-203317767D01*
X215106332Y-201984434D02*
X215153951Y-202032053D01*
X215153951Y-202032053D02*
X215106332Y-202079672D01*
X215106332Y-202079672D02*
X215058713Y-202032053D01*
X215058713Y-202032053D02*
X215106332Y-201984434D01*
X215106332Y-201984434D02*
X215106332Y-202079672D01*
X214201571Y-202984434D02*
X214201571Y-202460624D01*
X214201571Y-202460624D02*
X214249190Y-202365386D01*
X214249190Y-202365386D02*
X214344428Y-202317767D01*
X214344428Y-202317767D02*
X214534904Y-202317767D01*
X214534904Y-202317767D02*
X214630142Y-202365386D01*
X214201571Y-202936815D02*
X214296809Y-202984434D01*
X214296809Y-202984434D02*
X214534904Y-202984434D01*
X214534904Y-202984434D02*
X214630142Y-202936815D01*
X214630142Y-202936815D02*
X214677761Y-202841576D01*
X214677761Y-202841576D02*
X214677761Y-202746338D01*
X214677761Y-202746338D02*
X214630142Y-202651100D01*
X214630142Y-202651100D02*
X214534904Y-202603481D01*
X214534904Y-202603481D02*
X214296809Y-202603481D01*
X214296809Y-202603481D02*
X214201571Y-202555862D01*
X213820618Y-202317767D02*
X213582523Y-202984434D01*
X213344428Y-202317767D02*
X213582523Y-202984434D01*
X213582523Y-202984434D02*
X213677761Y-203222529D01*
X213677761Y-203222529D02*
X213725380Y-203270148D01*
X213725380Y-203270148D02*
X213820618Y-203317767D01*
X212963475Y-202984434D02*
X212963475Y-201984434D01*
X212963475Y-202365386D02*
X212868237Y-202317767D01*
X212868237Y-202317767D02*
X212677761Y-202317767D01*
X212677761Y-202317767D02*
X212582523Y-202365386D01*
X212582523Y-202365386D02*
X212534904Y-202413005D01*
X212534904Y-202413005D02*
X212487285Y-202508243D01*
X212487285Y-202508243D02*
X212487285Y-202793957D01*
X212487285Y-202793957D02*
X212534904Y-202889195D01*
X212534904Y-202889195D02*
X212582523Y-202936815D01*
X212582523Y-202936815D02*
X212677761Y-202984434D01*
X212677761Y-202984434D02*
X212868237Y-202984434D01*
X212868237Y-202984434D02*
X212963475Y-202936815D01*
X211630142Y-202317767D02*
X211630142Y-202984434D01*
X212058713Y-202317767D02*
X212058713Y-202841576D01*
X212058713Y-202841576D02*
X212011094Y-202936815D01*
X212011094Y-202936815D02*
X211915856Y-202984434D01*
X211915856Y-202984434D02*
X211772999Y-202984434D01*
X211772999Y-202984434D02*
X211677761Y-202936815D01*
X211677761Y-202936815D02*
X211630142Y-202889195D01*
X211153951Y-202984434D02*
X211153951Y-202317767D01*
X211153951Y-201984434D02*
X211201570Y-202032053D01*
X211201570Y-202032053D02*
X211153951Y-202079672D01*
X211153951Y-202079672D02*
X211106332Y-202032053D01*
X211106332Y-202032053D02*
X211153951Y-201984434D01*
X211153951Y-201984434D02*
X211153951Y-202079672D01*
X210534904Y-202984434D02*
X210630142Y-202936815D01*
X210630142Y-202936815D02*
X210677761Y-202841576D01*
X210677761Y-202841576D02*
X210677761Y-201984434D01*
X209725380Y-202984434D02*
X209725380Y-201984434D01*
X209725380Y-202936815D02*
X209820618Y-202984434D01*
X209820618Y-202984434D02*
X210011094Y-202984434D01*
X210011094Y-202984434D02*
X210106332Y-202936815D01*
X210106332Y-202936815D02*
X210153951Y-202889195D01*
X210153951Y-202889195D02*
X210201570Y-202793957D01*
X210201570Y-202793957D02*
X210201570Y-202508243D01*
X210201570Y-202508243D02*
X210153951Y-202413005D01*
X210153951Y-202413005D02*
X210106332Y-202365386D01*
X210106332Y-202365386D02*
X210011094Y-202317767D01*
X210011094Y-202317767D02*
X209820618Y-202317767D01*
X209820618Y-202317767D02*
X209725380Y-202365386D01*
X209296808Y-202936815D02*
X209201570Y-202984434D01*
X209201570Y-202984434D02*
X209011094Y-202984434D01*
X209011094Y-202984434D02*
X208915856Y-202936815D01*
X208915856Y-202936815D02*
X208868237Y-202841576D01*
X208868237Y-202841576D02*
X208868237Y-202793957D01*
X208868237Y-202793957D02*
X208915856Y-202698719D01*
X208915856Y-202698719D02*
X209011094Y-202651100D01*
X209011094Y-202651100D02*
X209153951Y-202651100D01*
X209153951Y-202651100D02*
X209249189Y-202603481D01*
X209249189Y-202603481D02*
X209296808Y-202508243D01*
X209296808Y-202508243D02*
X209296808Y-202460624D01*
X209296808Y-202460624D02*
X209249189Y-202365386D01*
X209249189Y-202365386D02*
X209153951Y-202317767D01*
X209153951Y-202317767D02*
X209011094Y-202317767D01*
X209011094Y-202317767D02*
X208915856Y-202365386D01*
X208439665Y-202889195D02*
X208392046Y-202936815D01*
X208392046Y-202936815D02*
X208439665Y-202984434D01*
X208439665Y-202984434D02*
X208487284Y-202936815D01*
X208487284Y-202936815D02*
X208439665Y-202889195D01*
X208439665Y-202889195D02*
X208439665Y-202984434D01*
X207534904Y-202936815D02*
X207630142Y-202984434D01*
X207630142Y-202984434D02*
X207820618Y-202984434D01*
X207820618Y-202984434D02*
X207915856Y-202936815D01*
X207915856Y-202936815D02*
X207963475Y-202889195D01*
X207963475Y-202889195D02*
X208011094Y-202793957D01*
X208011094Y-202793957D02*
X208011094Y-202508243D01*
X208011094Y-202508243D02*
X207963475Y-202413005D01*
X207963475Y-202413005D02*
X207915856Y-202365386D01*
X207915856Y-202365386D02*
X207820618Y-202317767D01*
X207820618Y-202317767D02*
X207630142Y-202317767D01*
X207630142Y-202317767D02*
X207534904Y-202365386D01*
X206963475Y-202984434D02*
X207058713Y-202936815D01*
X207058713Y-202936815D02*
X207106332Y-202889195D01*
X207106332Y-202889195D02*
X207153951Y-202793957D01*
X207153951Y-202793957D02*
X207153951Y-202508243D01*
X207153951Y-202508243D02*
X207106332Y-202413005D01*
X207106332Y-202413005D02*
X207058713Y-202365386D01*
X207058713Y-202365386D02*
X206963475Y-202317767D01*
X206963475Y-202317767D02*
X206820618Y-202317767D01*
X206820618Y-202317767D02*
X206725380Y-202365386D01*
X206725380Y-202365386D02*
X206677761Y-202413005D01*
X206677761Y-202413005D02*
X206630142Y-202508243D01*
X206630142Y-202508243D02*
X206630142Y-202793957D01*
X206630142Y-202793957D02*
X206677761Y-202889195D01*
X206677761Y-202889195D02*
X206725380Y-202936815D01*
X206725380Y-202936815D02*
X206820618Y-202984434D01*
X206820618Y-202984434D02*
X206963475Y-202984434D01*
X206201570Y-202984434D02*
X206201570Y-202317767D01*
X206201570Y-202413005D02*
X206153951Y-202365386D01*
X206153951Y-202365386D02*
X206058713Y-202317767D01*
X206058713Y-202317767D02*
X205915856Y-202317767D01*
X205915856Y-202317767D02*
X205820618Y-202365386D01*
X205820618Y-202365386D02*
X205772999Y-202460624D01*
X205772999Y-202460624D02*
X205772999Y-202984434D01*
X205772999Y-202460624D02*
X205725380Y-202365386D01*
X205725380Y-202365386D02*
X205630142Y-202317767D01*
X205630142Y-202317767D02*
X205487285Y-202317767D01*
X205487285Y-202317767D02*
X205392046Y-202365386D01*
X205392046Y-202365386D02*
X205344427Y-202460624D01*
X205344427Y-202460624D02*
X205344427Y-202984434D01*
X224134026Y-194752053D02*
X223276884Y-194752053D01*
X223705455Y-196752053D02*
X223705455Y-194752053D01*
X222776884Y-196752053D02*
X222776884Y-194752053D01*
X222776884Y-195704434D02*
X221919741Y-195704434D01*
X221919741Y-196752053D02*
X221919741Y-194752053D01*
X221205455Y-195704434D02*
X220705455Y-195704434D01*
X220491169Y-196752053D02*
X221205455Y-196752053D01*
X221205455Y-196752053D02*
X221205455Y-194752053D01*
X221205455Y-194752053D02*
X220491169Y-194752053D01*
X218705455Y-196752053D02*
X218705455Y-194752053D01*
X218705455Y-194752053D02*
X218205455Y-196180624D01*
X218205455Y-196180624D02*
X217705455Y-194752053D01*
X217705455Y-194752053D02*
X217705455Y-196752053D01*
X217062597Y-196180624D02*
X216348312Y-196180624D01*
X217205454Y-196752053D02*
X216705454Y-194752053D01*
X216705454Y-194752053D02*
X216205454Y-196752053D01*
X215705455Y-196752053D02*
X215705455Y-194752053D01*
X215705455Y-194752053D02*
X214848312Y-196752053D01*
X214848312Y-196752053D02*
X214848312Y-194752053D01*
X214134026Y-196752053D02*
X214134026Y-194752053D01*
X213276883Y-196752053D02*
X213919740Y-195609195D01*
X213276883Y-194752053D02*
X214134026Y-195894910D01*
X212634026Y-196752053D02*
X212634026Y-194752053D01*
X211919740Y-196752053D02*
X211919740Y-194752053D01*
X211919740Y-194752053D02*
X211062597Y-196752053D01*
X211062597Y-196752053D02*
X211062597Y-194752053D01*
X210348311Y-196752053D02*
X210348311Y-194752053D01*
X208491168Y-195990148D02*
X207348311Y-195990148D01*
X204634025Y-196561576D02*
X204705453Y-196656815D01*
X204705453Y-196656815D02*
X204919739Y-196752053D01*
X204919739Y-196752053D02*
X205062596Y-196752053D01*
X205062596Y-196752053D02*
X205276882Y-196656815D01*
X205276882Y-196656815D02*
X205419739Y-196466338D01*
X205419739Y-196466338D02*
X205491168Y-196275862D01*
X205491168Y-196275862D02*
X205562596Y-195894910D01*
X205562596Y-195894910D02*
X205562596Y-195609195D01*
X205562596Y-195609195D02*
X205491168Y-195228243D01*
X205491168Y-195228243D02*
X205419739Y-195037767D01*
X205419739Y-195037767D02*
X205276882Y-194847291D01*
X205276882Y-194847291D02*
X205062596Y-194752053D01*
X205062596Y-194752053D02*
X204919739Y-194752053D01*
X204919739Y-194752053D02*
X204705453Y-194847291D01*
X204705453Y-194847291D02*
X204634025Y-194942529D01*
X203991168Y-196752053D02*
X203991168Y-194752053D01*
X203348311Y-196752053D02*
X203348311Y-195704434D01*
X203348311Y-195704434D02*
X203419739Y-195513957D01*
X203419739Y-195513957D02*
X203562596Y-195418719D01*
X203562596Y-195418719D02*
X203776882Y-195418719D01*
X203776882Y-195418719D02*
X203919739Y-195513957D01*
X203919739Y-195513957D02*
X203991168Y-195609195D01*
X202419739Y-196752053D02*
X202562596Y-196656815D01*
X202562596Y-196656815D02*
X202634025Y-196561576D01*
X202634025Y-196561576D02*
X202705453Y-196371100D01*
X202705453Y-196371100D02*
X202705453Y-195799672D01*
X202705453Y-195799672D02*
X202634025Y-195609195D01*
X202634025Y-195609195D02*
X202562596Y-195513957D01*
X202562596Y-195513957D02*
X202419739Y-195418719D01*
X202419739Y-195418719D02*
X202205453Y-195418719D01*
X202205453Y-195418719D02*
X202062596Y-195513957D01*
X202062596Y-195513957D02*
X201991168Y-195609195D01*
X201991168Y-195609195D02*
X201919739Y-195799672D01*
X201919739Y-195799672D02*
X201919739Y-196371100D01*
X201919739Y-196371100D02*
X201991168Y-196561576D01*
X201991168Y-196561576D02*
X202062596Y-196656815D01*
X202062596Y-196656815D02*
X202205453Y-196752053D01*
X202205453Y-196752053D02*
X202419739Y-196752053D01*
X200634025Y-196656815D02*
X200776882Y-196752053D01*
X200776882Y-196752053D02*
X201062596Y-196752053D01*
X201062596Y-196752053D02*
X201205453Y-196656815D01*
X201205453Y-196656815D02*
X201276882Y-196561576D01*
X201276882Y-196561576D02*
X201348310Y-196371100D01*
X201348310Y-196371100D02*
X201348310Y-195799672D01*
X201348310Y-195799672D02*
X201276882Y-195609195D01*
X201276882Y-195609195D02*
X201205453Y-195513957D01*
X201205453Y-195513957D02*
X201062596Y-195418719D01*
X201062596Y-195418719D02*
X200776882Y-195418719D01*
X200776882Y-195418719D02*
X200634025Y-195513957D01*
X229296809Y-201144434D02*
X229296809Y-200144434D01*
X228868238Y-201144434D02*
X228868238Y-200620624D01*
X228868238Y-200620624D02*
X228915857Y-200525386D01*
X228915857Y-200525386D02*
X229011095Y-200477767D01*
X229011095Y-200477767D02*
X229153952Y-200477767D01*
X229153952Y-200477767D02*
X229249190Y-200525386D01*
X229249190Y-200525386D02*
X229296809Y-200573005D01*
X228534904Y-200477767D02*
X228153952Y-200477767D01*
X228392047Y-200144434D02*
X228392047Y-201001576D01*
X228392047Y-201001576D02*
X228344428Y-201096815D01*
X228344428Y-201096815D02*
X228249190Y-201144434D01*
X228249190Y-201144434D02*
X228153952Y-201144434D01*
X227963475Y-200477767D02*
X227582523Y-200477767D01*
X227820618Y-200144434D02*
X227820618Y-201001576D01*
X227820618Y-201001576D02*
X227772999Y-201096815D01*
X227772999Y-201096815D02*
X227677761Y-201144434D01*
X227677761Y-201144434D02*
X227582523Y-201144434D01*
X227249189Y-200477767D02*
X227249189Y-201477767D01*
X227249189Y-200525386D02*
X227153951Y-200477767D01*
X227153951Y-200477767D02*
X226963475Y-200477767D01*
X226963475Y-200477767D02*
X226868237Y-200525386D01*
X226868237Y-200525386D02*
X226820618Y-200573005D01*
X226820618Y-200573005D02*
X226772999Y-200668243D01*
X226772999Y-200668243D02*
X226772999Y-200953957D01*
X226772999Y-200953957D02*
X226820618Y-201049195D01*
X226820618Y-201049195D02*
X226868237Y-201096815D01*
X226868237Y-201096815D02*
X226963475Y-201144434D01*
X226963475Y-201144434D02*
X227153951Y-201144434D01*
X227153951Y-201144434D02*
X227249189Y-201096815D01*
X226392046Y-201096815D02*
X226296808Y-201144434D01*
X226296808Y-201144434D02*
X226106332Y-201144434D01*
X226106332Y-201144434D02*
X226011094Y-201096815D01*
X226011094Y-201096815D02*
X225963475Y-201001576D01*
X225963475Y-201001576D02*
X225963475Y-200953957D01*
X225963475Y-200953957D02*
X226011094Y-200858719D01*
X226011094Y-200858719D02*
X226106332Y-200811100D01*
X226106332Y-200811100D02*
X226249189Y-200811100D01*
X226249189Y-200811100D02*
X226344427Y-200763481D01*
X226344427Y-200763481D02*
X226392046Y-200668243D01*
X226392046Y-200668243D02*
X226392046Y-200620624D01*
X226392046Y-200620624D02*
X226344427Y-200525386D01*
X226344427Y-200525386D02*
X226249189Y-200477767D01*
X226249189Y-200477767D02*
X226106332Y-200477767D01*
X226106332Y-200477767D02*
X226011094Y-200525386D01*
X225534903Y-201049195D02*
X225487284Y-201096815D01*
X225487284Y-201096815D02*
X225534903Y-201144434D01*
X225534903Y-201144434D02*
X225582522Y-201096815D01*
X225582522Y-201096815D02*
X225534903Y-201049195D01*
X225534903Y-201049195D02*
X225534903Y-201144434D01*
X225534903Y-200525386D02*
X225487284Y-200573005D01*
X225487284Y-200573005D02*
X225534903Y-200620624D01*
X225534903Y-200620624D02*
X225582522Y-200573005D01*
X225582522Y-200573005D02*
X225534903Y-200525386D01*
X225534903Y-200525386D02*
X225534903Y-200620624D01*
X224344428Y-200096815D02*
X225201570Y-201382529D01*
X223582523Y-200477767D02*
X223582523Y-201287291D01*
X223582523Y-201287291D02*
X223630142Y-201382529D01*
X223630142Y-201382529D02*
X223677761Y-201430148D01*
X223677761Y-201430148D02*
X223772999Y-201477767D01*
X223772999Y-201477767D02*
X223915856Y-201477767D01*
X223915856Y-201477767D02*
X224011094Y-201430148D01*
X223582523Y-201096815D02*
X223677761Y-201144434D01*
X223677761Y-201144434D02*
X223868237Y-201144434D01*
X223868237Y-201144434D02*
X223963475Y-201096815D01*
X223963475Y-201096815D02*
X224011094Y-201049195D01*
X224011094Y-201049195D02*
X224058713Y-200953957D01*
X224058713Y-200953957D02*
X224058713Y-200668243D01*
X224058713Y-200668243D02*
X224011094Y-200573005D01*
X224011094Y-200573005D02*
X223963475Y-200525386D01*
X223963475Y-200525386D02*
X223868237Y-200477767D01*
X223868237Y-200477767D02*
X223677761Y-200477767D01*
X223677761Y-200477767D02*
X223582523Y-200525386D01*
X223106332Y-201144434D02*
X223106332Y-200477767D01*
X223106332Y-200144434D02*
X223153951Y-200192053D01*
X223153951Y-200192053D02*
X223106332Y-200239672D01*
X223106332Y-200239672D02*
X223058713Y-200192053D01*
X223058713Y-200192053D02*
X223106332Y-200144434D01*
X223106332Y-200144434D02*
X223106332Y-200239672D01*
X222772999Y-200477767D02*
X222392047Y-200477767D01*
X222630142Y-200144434D02*
X222630142Y-201001576D01*
X222630142Y-201001576D02*
X222582523Y-201096815D01*
X222582523Y-201096815D02*
X222487285Y-201144434D01*
X222487285Y-201144434D02*
X222392047Y-201144434D01*
X222058713Y-201144434D02*
X222058713Y-200144434D01*
X221630142Y-201144434D02*
X221630142Y-200620624D01*
X221630142Y-200620624D02*
X221677761Y-200525386D01*
X221677761Y-200525386D02*
X221772999Y-200477767D01*
X221772999Y-200477767D02*
X221915856Y-200477767D01*
X221915856Y-200477767D02*
X222011094Y-200525386D01*
X222011094Y-200525386D02*
X222058713Y-200573005D01*
X220725380Y-200477767D02*
X220725380Y-201144434D01*
X221153951Y-200477767D02*
X221153951Y-201001576D01*
X221153951Y-201001576D02*
X221106332Y-201096815D01*
X221106332Y-201096815D02*
X221011094Y-201144434D01*
X221011094Y-201144434D02*
X220868237Y-201144434D01*
X220868237Y-201144434D02*
X220772999Y-201096815D01*
X220772999Y-201096815D02*
X220725380Y-201049195D01*
X220249189Y-201144434D02*
X220249189Y-200144434D01*
X220249189Y-200525386D02*
X220153951Y-200477767D01*
X220153951Y-200477767D02*
X219963475Y-200477767D01*
X219963475Y-200477767D02*
X219868237Y-200525386D01*
X219868237Y-200525386D02*
X219820618Y-200573005D01*
X219820618Y-200573005D02*
X219772999Y-200668243D01*
X219772999Y-200668243D02*
X219772999Y-200953957D01*
X219772999Y-200953957D02*
X219820618Y-201049195D01*
X219820618Y-201049195D02*
X219868237Y-201096815D01*
X219868237Y-201096815D02*
X219963475Y-201144434D01*
X219963475Y-201144434D02*
X220153951Y-201144434D01*
X220153951Y-201144434D02*
X220249189Y-201096815D01*
X219344427Y-201049195D02*
X219296808Y-201096815D01*
X219296808Y-201096815D02*
X219344427Y-201144434D01*
X219344427Y-201144434D02*
X219392046Y-201096815D01*
X219392046Y-201096815D02*
X219344427Y-201049195D01*
X219344427Y-201049195D02*
X219344427Y-201144434D01*
X218439666Y-201096815D02*
X218534904Y-201144434D01*
X218534904Y-201144434D02*
X218725380Y-201144434D01*
X218725380Y-201144434D02*
X218820618Y-201096815D01*
X218820618Y-201096815D02*
X218868237Y-201049195D01*
X218868237Y-201049195D02*
X218915856Y-200953957D01*
X218915856Y-200953957D02*
X218915856Y-200668243D01*
X218915856Y-200668243D02*
X218868237Y-200573005D01*
X218868237Y-200573005D02*
X218820618Y-200525386D01*
X218820618Y-200525386D02*
X218725380Y-200477767D01*
X218725380Y-200477767D02*
X218534904Y-200477767D01*
X218534904Y-200477767D02*
X218439666Y-200525386D01*
X217868237Y-201144434D02*
X217963475Y-201096815D01*
X217963475Y-201096815D02*
X218011094Y-201049195D01*
X218011094Y-201049195D02*
X218058713Y-200953957D01*
X218058713Y-200953957D02*
X218058713Y-200668243D01*
X218058713Y-200668243D02*
X218011094Y-200573005D01*
X218011094Y-200573005D02*
X217963475Y-200525386D01*
X217963475Y-200525386D02*
X217868237Y-200477767D01*
X217868237Y-200477767D02*
X217725380Y-200477767D01*
X217725380Y-200477767D02*
X217630142Y-200525386D01*
X217630142Y-200525386D02*
X217582523Y-200573005D01*
X217582523Y-200573005D02*
X217534904Y-200668243D01*
X217534904Y-200668243D02*
X217534904Y-200953957D01*
X217534904Y-200953957D02*
X217582523Y-201049195D01*
X217582523Y-201049195D02*
X217630142Y-201096815D01*
X217630142Y-201096815D02*
X217725380Y-201144434D01*
X217725380Y-201144434D02*
X217868237Y-201144434D01*
X217106332Y-201144434D02*
X217106332Y-200477767D01*
X217106332Y-200573005D02*
X217058713Y-200525386D01*
X217058713Y-200525386D02*
X216963475Y-200477767D01*
X216963475Y-200477767D02*
X216820618Y-200477767D01*
X216820618Y-200477767D02*
X216725380Y-200525386D01*
X216725380Y-200525386D02*
X216677761Y-200620624D01*
X216677761Y-200620624D02*
X216677761Y-201144434D01*
X216677761Y-200620624D02*
X216630142Y-200525386D01*
X216630142Y-200525386D02*
X216534904Y-200477767D01*
X216534904Y-200477767D02*
X216392047Y-200477767D01*
X216392047Y-200477767D02*
X216296808Y-200525386D01*
X216296808Y-200525386D02*
X216249189Y-200620624D01*
X216249189Y-200620624D02*
X216249189Y-201144434D01*
X215058714Y-200096815D02*
X215915856Y-201382529D01*
X214725380Y-200477767D02*
X214725380Y-201334910D01*
X214725380Y-201334910D02*
X214772999Y-201430148D01*
X214772999Y-201430148D02*
X214868237Y-201477767D01*
X214868237Y-201477767D02*
X214915856Y-201477767D01*
X214725380Y-200144434D02*
X214772999Y-200192053D01*
X214772999Y-200192053D02*
X214725380Y-200239672D01*
X214725380Y-200239672D02*
X214677761Y-200192053D01*
X214677761Y-200192053D02*
X214725380Y-200144434D01*
X214725380Y-200144434D02*
X214725380Y-200239672D01*
X213820619Y-201144434D02*
X213820619Y-200620624D01*
X213820619Y-200620624D02*
X213868238Y-200525386D01*
X213868238Y-200525386D02*
X213963476Y-200477767D01*
X213963476Y-200477767D02*
X214153952Y-200477767D01*
X214153952Y-200477767D02*
X214249190Y-200525386D01*
X213820619Y-201096815D02*
X213915857Y-201144434D01*
X213915857Y-201144434D02*
X214153952Y-201144434D01*
X214153952Y-201144434D02*
X214249190Y-201096815D01*
X214249190Y-201096815D02*
X214296809Y-201001576D01*
X214296809Y-201001576D02*
X214296809Y-200906338D01*
X214296809Y-200906338D02*
X214249190Y-200811100D01*
X214249190Y-200811100D02*
X214153952Y-200763481D01*
X214153952Y-200763481D02*
X213915857Y-200763481D01*
X213915857Y-200763481D02*
X213820619Y-200715862D01*
X213439666Y-200477767D02*
X213201571Y-201144434D01*
X212963476Y-200477767D02*
X213201571Y-201144434D01*
X213201571Y-201144434D02*
X213296809Y-201382529D01*
X213296809Y-201382529D02*
X213344428Y-201430148D01*
X213344428Y-201430148D02*
X213439666Y-201477767D01*
X212582523Y-201144434D02*
X212582523Y-200144434D01*
X212582523Y-200525386D02*
X212487285Y-200477767D01*
X212487285Y-200477767D02*
X212296809Y-200477767D01*
X212296809Y-200477767D02*
X212201571Y-200525386D01*
X212201571Y-200525386D02*
X212153952Y-200573005D01*
X212153952Y-200573005D02*
X212106333Y-200668243D01*
X212106333Y-200668243D02*
X212106333Y-200953957D01*
X212106333Y-200953957D02*
X212153952Y-201049195D01*
X212153952Y-201049195D02*
X212201571Y-201096815D01*
X212201571Y-201096815D02*
X212296809Y-201144434D01*
X212296809Y-201144434D02*
X212487285Y-201144434D01*
X212487285Y-201144434D02*
X212582523Y-201096815D01*
X211249190Y-200477767D02*
X211249190Y-201144434D01*
X211677761Y-200477767D02*
X211677761Y-201001576D01*
X211677761Y-201001576D02*
X211630142Y-201096815D01*
X211630142Y-201096815D02*
X211534904Y-201144434D01*
X211534904Y-201144434D02*
X211392047Y-201144434D01*
X211392047Y-201144434D02*
X211296809Y-201096815D01*
X211296809Y-201096815D02*
X211249190Y-201049195D01*
X210772999Y-201144434D02*
X210772999Y-200477767D01*
X210772999Y-200144434D02*
X210820618Y-200192053D01*
X210820618Y-200192053D02*
X210772999Y-200239672D01*
X210772999Y-200239672D02*
X210725380Y-200192053D01*
X210725380Y-200192053D02*
X210772999Y-200144434D01*
X210772999Y-200144434D02*
X210772999Y-200239672D01*
X210153952Y-201144434D02*
X210249190Y-201096815D01*
X210249190Y-201096815D02*
X210296809Y-201001576D01*
X210296809Y-201001576D02*
X210296809Y-200144434D01*
X209344428Y-201144434D02*
X209344428Y-200144434D01*
X209344428Y-201096815D02*
X209439666Y-201144434D01*
X209439666Y-201144434D02*
X209630142Y-201144434D01*
X209630142Y-201144434D02*
X209725380Y-201096815D01*
X209725380Y-201096815D02*
X209772999Y-201049195D01*
X209772999Y-201049195D02*
X209820618Y-200953957D01*
X209820618Y-200953957D02*
X209820618Y-200668243D01*
X209820618Y-200668243D02*
X209772999Y-200573005D01*
X209772999Y-200573005D02*
X209725380Y-200525386D01*
X209725380Y-200525386D02*
X209630142Y-200477767D01*
X209630142Y-200477767D02*
X209439666Y-200477767D01*
X209439666Y-200477767D02*
X209344428Y-200525386D01*
X208915856Y-201096815D02*
X208820618Y-201144434D01*
X208820618Y-201144434D02*
X208630142Y-201144434D01*
X208630142Y-201144434D02*
X208534904Y-201096815D01*
X208534904Y-201096815D02*
X208487285Y-201001576D01*
X208487285Y-201001576D02*
X208487285Y-200953957D01*
X208487285Y-200953957D02*
X208534904Y-200858719D01*
X208534904Y-200858719D02*
X208630142Y-200811100D01*
X208630142Y-200811100D02*
X208772999Y-200811100D01*
X208772999Y-200811100D02*
X208868237Y-200763481D01*
X208868237Y-200763481D02*
X208915856Y-200668243D01*
X208915856Y-200668243D02*
X208915856Y-200620624D01*
X208915856Y-200620624D02*
X208868237Y-200525386D01*
X208868237Y-200525386D02*
X208772999Y-200477767D01*
X208772999Y-200477767D02*
X208630142Y-200477767D01*
X208630142Y-200477767D02*
X208534904Y-200525386D01*
X208106332Y-201096815D02*
X208011094Y-201144434D01*
X208011094Y-201144434D02*
X207820618Y-201144434D01*
X207820618Y-201144434D02*
X207725380Y-201096815D01*
X207725380Y-201096815D02*
X207677761Y-201001576D01*
X207677761Y-201001576D02*
X207677761Y-200953957D01*
X207677761Y-200953957D02*
X207725380Y-200858719D01*
X207725380Y-200858719D02*
X207820618Y-200811100D01*
X207820618Y-200811100D02*
X207963475Y-200811100D01*
X207963475Y-200811100D02*
X208058713Y-200763481D01*
X208058713Y-200763481D02*
X208106332Y-200668243D01*
X208106332Y-200668243D02*
X208106332Y-200620624D01*
X208106332Y-200620624D02*
X208058713Y-200525386D01*
X208058713Y-200525386D02*
X207963475Y-200477767D01*
X207963475Y-200477767D02*
X207820618Y-200477767D01*
X207820618Y-200477767D02*
X207725380Y-200525386D01*
X207392046Y-200477767D02*
X207011094Y-200477767D01*
X207249189Y-200144434D02*
X207249189Y-201001576D01*
X207249189Y-201001576D02*
X207201570Y-201096815D01*
X207201570Y-201096815D02*
X207106332Y-201144434D01*
X207106332Y-201144434D02*
X207011094Y-201144434D01*
X206249189Y-200477767D02*
X206249189Y-201144434D01*
X206677760Y-200477767D02*
X206677760Y-201001576D01*
X206677760Y-201001576D02*
X206630141Y-201096815D01*
X206630141Y-201096815D02*
X206534903Y-201144434D01*
X206534903Y-201144434D02*
X206392046Y-201144434D01*
X206392046Y-201144434D02*
X206296808Y-201096815D01*
X206296808Y-201096815D02*
X206249189Y-201049195D01*
X205915855Y-200477767D02*
X205534903Y-200477767D01*
X205772998Y-201144434D02*
X205772998Y-200287291D01*
X205772998Y-200287291D02*
X205725379Y-200192053D01*
X205725379Y-200192053D02*
X205630141Y-200144434D01*
X205630141Y-200144434D02*
X205534903Y-200144434D01*
X205344426Y-200477767D02*
X204963474Y-200477767D01*
X205201569Y-201144434D02*
X205201569Y-200287291D01*
X205201569Y-200287291D02*
X205153950Y-200192053D01*
X205153950Y-200192053D02*
X205058712Y-200144434D01*
X205058712Y-200144434D02*
X204963474Y-200144434D01*
X203915855Y-200096815D02*
X204772997Y-201382529D01*
X203582521Y-201144434D02*
X203582521Y-200144434D01*
X203582521Y-200144434D02*
X203249188Y-200858719D01*
X203249188Y-200858719D02*
X202915855Y-200144434D01*
X202915855Y-200144434D02*
X202915855Y-201144434D01*
X202011093Y-201144434D02*
X202011093Y-200620624D01*
X202011093Y-200620624D02*
X202058712Y-200525386D01*
X202058712Y-200525386D02*
X202153950Y-200477767D01*
X202153950Y-200477767D02*
X202344426Y-200477767D01*
X202344426Y-200477767D02*
X202439664Y-200525386D01*
X202011093Y-201096815D02*
X202106331Y-201144434D01*
X202106331Y-201144434D02*
X202344426Y-201144434D01*
X202344426Y-201144434D02*
X202439664Y-201096815D01*
X202439664Y-201096815D02*
X202487283Y-201001576D01*
X202487283Y-201001576D02*
X202487283Y-200906338D01*
X202487283Y-200906338D02*
X202439664Y-200811100D01*
X202439664Y-200811100D02*
X202344426Y-200763481D01*
X202344426Y-200763481D02*
X202106331Y-200763481D01*
X202106331Y-200763481D02*
X202011093Y-200715862D01*
X201534902Y-200477767D02*
X201534902Y-201144434D01*
X201534902Y-200573005D02*
X201487283Y-200525386D01*
X201487283Y-200525386D02*
X201392045Y-200477767D01*
X201392045Y-200477767D02*
X201249188Y-200477767D01*
X201249188Y-200477767D02*
X201153950Y-200525386D01*
X201153950Y-200525386D02*
X201106331Y-200620624D01*
X201106331Y-200620624D02*
X201106331Y-201144434D01*
X200630140Y-201144434D02*
X200630140Y-200144434D01*
X200534902Y-200763481D02*
X200249188Y-201144434D01*
X200249188Y-200477767D02*
X200630140Y-200858719D01*
X199820616Y-201144434D02*
X199820616Y-200477767D01*
X199820616Y-200144434D02*
X199868235Y-200192053D01*
X199868235Y-200192053D02*
X199820616Y-200239672D01*
X199820616Y-200239672D02*
X199772997Y-200192053D01*
X199772997Y-200192053D02*
X199820616Y-200144434D01*
X199820616Y-200144434D02*
X199820616Y-200239672D01*
X199344426Y-200477767D02*
X199344426Y-201144434D01*
X199344426Y-200573005D02*
X199296807Y-200525386D01*
X199296807Y-200525386D02*
X199201569Y-200477767D01*
X199201569Y-200477767D02*
X199058712Y-200477767D01*
X199058712Y-200477767D02*
X198963474Y-200525386D01*
X198963474Y-200525386D02*
X198915855Y-200620624D01*
X198915855Y-200620624D02*
X198915855Y-201144434D01*
X198439664Y-201144434D02*
X198439664Y-200477767D01*
X198439664Y-200144434D02*
X198487283Y-200192053D01*
X198487283Y-200192053D02*
X198439664Y-200239672D01*
X198439664Y-200239672D02*
X198392045Y-200192053D01*
X198392045Y-200192053D02*
X198439664Y-200144434D01*
X198439664Y-200144434D02*
X198439664Y-200239672D01*
X197249189Y-200096815D02*
X198106331Y-201382529D01*
X196915855Y-201144434D02*
X196915855Y-200144434D01*
X196915855Y-200144434D02*
X196582522Y-200858719D01*
X196582522Y-200858719D02*
X196249189Y-200144434D01*
X196249189Y-200144434D02*
X196249189Y-201144434D01*
X195868236Y-200144434D02*
X195201570Y-201144434D01*
X195201570Y-200144434D02*
X195868236Y-201144434D01*
X217392047Y-199214434D02*
X217392047Y-198214434D01*
X217392047Y-198595386D02*
X217296809Y-198547767D01*
X217296809Y-198547767D02*
X217106333Y-198547767D01*
X217106333Y-198547767D02*
X217011095Y-198595386D01*
X217011095Y-198595386D02*
X216963476Y-198643005D01*
X216963476Y-198643005D02*
X216915857Y-198738243D01*
X216915857Y-198738243D02*
X216915857Y-199023957D01*
X216915857Y-199023957D02*
X216963476Y-199119195D01*
X216963476Y-199119195D02*
X217011095Y-199166815D01*
X217011095Y-199166815D02*
X217106333Y-199214434D01*
X217106333Y-199214434D02*
X217296809Y-199214434D01*
X217296809Y-199214434D02*
X217392047Y-199166815D01*
X216582523Y-198547767D02*
X216344428Y-199214434D01*
X216106333Y-198547767D02*
X216344428Y-199214434D01*
X216344428Y-199214434D02*
X216439666Y-199452529D01*
X216439666Y-199452529D02*
X216487285Y-199500148D01*
X216487285Y-199500148D02*
X216582523Y-199547767D01*
X214344428Y-198738243D02*
X214392047Y-198690624D01*
X214392047Y-198690624D02*
X214487285Y-198643005D01*
X214487285Y-198643005D02*
X214582523Y-198643005D01*
X214582523Y-198643005D02*
X214677761Y-198690624D01*
X214677761Y-198690624D02*
X214725380Y-198738243D01*
X214725380Y-198738243D02*
X214772999Y-198833481D01*
X214772999Y-198833481D02*
X214772999Y-198928719D01*
X214772999Y-198928719D02*
X214725380Y-199023957D01*
X214725380Y-199023957D02*
X214677761Y-199071576D01*
X214677761Y-199071576D02*
X214582523Y-199119195D01*
X214582523Y-199119195D02*
X214487285Y-199119195D01*
X214487285Y-199119195D02*
X214392047Y-199071576D01*
X214392047Y-199071576D02*
X214344428Y-199023957D01*
X214344428Y-198643005D02*
X214344428Y-199023957D01*
X214344428Y-199023957D02*
X214296809Y-199071576D01*
X214296809Y-199071576D02*
X214249190Y-199071576D01*
X214249190Y-199071576D02*
X214153951Y-199023957D01*
X214153951Y-199023957D02*
X214106332Y-198928719D01*
X214106332Y-198928719D02*
X214106332Y-198690624D01*
X214106332Y-198690624D02*
X214201571Y-198547767D01*
X214201571Y-198547767D02*
X214344428Y-198452529D01*
X214344428Y-198452529D02*
X214534904Y-198404910D01*
X214534904Y-198404910D02*
X214725380Y-198452529D01*
X214725380Y-198452529D02*
X214868237Y-198547767D01*
X214868237Y-198547767D02*
X214963475Y-198690624D01*
X214963475Y-198690624D02*
X215011094Y-198881100D01*
X215011094Y-198881100D02*
X214963475Y-199071576D01*
X214963475Y-199071576D02*
X214868237Y-199214434D01*
X214868237Y-199214434D02*
X214725380Y-199309672D01*
X214725380Y-199309672D02*
X214534904Y-199357291D01*
X214534904Y-199357291D02*
X214344428Y-199309672D01*
X214344428Y-199309672D02*
X214201571Y-199214434D01*
X213392047Y-198214434D02*
X213392047Y-198928719D01*
X213392047Y-198928719D02*
X213439666Y-199071576D01*
X213439666Y-199071576D02*
X213534904Y-199166815D01*
X213534904Y-199166815D02*
X213677761Y-199214434D01*
X213677761Y-199214434D02*
X213772999Y-199214434D01*
X212487285Y-199214434D02*
X212487285Y-198690624D01*
X212487285Y-198690624D02*
X212534904Y-198595386D01*
X212534904Y-198595386D02*
X212630142Y-198547767D01*
X212630142Y-198547767D02*
X212820618Y-198547767D01*
X212820618Y-198547767D02*
X212915856Y-198595386D01*
X212487285Y-199166815D02*
X212582523Y-199214434D01*
X212582523Y-199214434D02*
X212820618Y-199214434D01*
X212820618Y-199214434D02*
X212915856Y-199166815D01*
X212915856Y-199166815D02*
X212963475Y-199071576D01*
X212963475Y-199071576D02*
X212963475Y-198976338D01*
X212963475Y-198976338D02*
X212915856Y-198881100D01*
X212915856Y-198881100D02*
X212820618Y-198833481D01*
X212820618Y-198833481D02*
X212582523Y-198833481D01*
X212582523Y-198833481D02*
X212487285Y-198785862D01*
X212106332Y-198547767D02*
X211868237Y-199214434D01*
X211630142Y-198547767D02*
X211868237Y-199214434D01*
X211868237Y-199214434D02*
X211963475Y-199452529D01*
X211963475Y-199452529D02*
X212011094Y-199500148D01*
X212011094Y-199500148D02*
X212106332Y-199547767D01*
X211249189Y-199214434D02*
X211249189Y-198214434D01*
X211249189Y-198595386D02*
X211153951Y-198547767D01*
X211153951Y-198547767D02*
X210963475Y-198547767D01*
X210963475Y-198547767D02*
X210868237Y-198595386D01*
X210868237Y-198595386D02*
X210820618Y-198643005D01*
X210820618Y-198643005D02*
X210772999Y-198738243D01*
X210772999Y-198738243D02*
X210772999Y-199023957D01*
X210772999Y-199023957D02*
X210820618Y-199119195D01*
X210820618Y-199119195D02*
X210868237Y-199166815D01*
X210868237Y-199166815D02*
X210963475Y-199214434D01*
X210963475Y-199214434D02*
X211153951Y-199214434D01*
X211153951Y-199214434D02*
X211249189Y-199166815D01*
X209915856Y-198547767D02*
X209915856Y-199214434D01*
X210344427Y-198547767D02*
X210344427Y-199071576D01*
X210344427Y-199071576D02*
X210296808Y-199166815D01*
X210296808Y-199166815D02*
X210201570Y-199214434D01*
X210201570Y-199214434D02*
X210058713Y-199214434D01*
X210058713Y-199214434D02*
X209963475Y-199166815D01*
X209963475Y-199166815D02*
X209915856Y-199119195D01*
X209439665Y-199214434D02*
X209439665Y-198547767D01*
X209439665Y-198214434D02*
X209487284Y-198262053D01*
X209487284Y-198262053D02*
X209439665Y-198309672D01*
X209439665Y-198309672D02*
X209392046Y-198262053D01*
X209392046Y-198262053D02*
X209439665Y-198214434D01*
X209439665Y-198214434D02*
X209439665Y-198309672D01*
X208820618Y-199214434D02*
X208915856Y-199166815D01*
X208915856Y-199166815D02*
X208963475Y-199071576D01*
X208963475Y-199071576D02*
X208963475Y-198214434D01*
X208011094Y-199214434D02*
X208011094Y-198214434D01*
X208011094Y-199166815D02*
X208106332Y-199214434D01*
X208106332Y-199214434D02*
X208296808Y-199214434D01*
X208296808Y-199214434D02*
X208392046Y-199166815D01*
X208392046Y-199166815D02*
X208439665Y-199119195D01*
X208439665Y-199119195D02*
X208487284Y-199023957D01*
X208487284Y-199023957D02*
X208487284Y-198738243D01*
X208487284Y-198738243D02*
X208439665Y-198643005D01*
X208439665Y-198643005D02*
X208392046Y-198595386D01*
X208392046Y-198595386D02*
X208296808Y-198547767D01*
X208296808Y-198547767D02*
X208106332Y-198547767D01*
X208106332Y-198547767D02*
X208011094Y-198595386D01*
X207582522Y-199166815D02*
X207487284Y-199214434D01*
X207487284Y-199214434D02*
X207296808Y-199214434D01*
X207296808Y-199214434D02*
X207201570Y-199166815D01*
X207201570Y-199166815D02*
X207153951Y-199071576D01*
X207153951Y-199071576D02*
X207153951Y-199023957D01*
X207153951Y-199023957D02*
X207201570Y-198928719D01*
X207201570Y-198928719D02*
X207296808Y-198881100D01*
X207296808Y-198881100D02*
X207439665Y-198881100D01*
X207439665Y-198881100D02*
X207534903Y-198833481D01*
X207534903Y-198833481D02*
X207582522Y-198738243D01*
X207582522Y-198738243D02*
X207582522Y-198690624D01*
X207582522Y-198690624D02*
X207534903Y-198595386D01*
X207534903Y-198595386D02*
X207439665Y-198547767D01*
X207439665Y-198547767D02*
X207296808Y-198547767D01*
X207296808Y-198547767D02*
X207201570Y-198595386D01*
D11*
X258504166Y-125149086D02*
X258262318Y-125813548D01*
X260405948Y-129227472D02*
X259741483Y-128985625D01*
X261223087Y-123881231D02*
X258504166Y-125149086D01*
X261887552Y-124123074D02*
X261223087Y-123881231D01*
X261887552Y-124123074D02*
X262276357Y-124956879D01*
X262490455Y-128255449D02*
X260405948Y-129227472D01*
X262992758Y-125262774D02*
X267053016Y-123369445D01*
X264960938Y-129530874D02*
X264665104Y-128896457D01*
X267053016Y-123369445D02*
X267306587Y-123913229D01*
X268828012Y-127175936D02*
X269039323Y-127629091D01*
X269039323Y-127629091D02*
X264960938Y-129530874D01*
X262490455Y-128255449D02*
G75*
G02*
X264656654Y-128878330I771656J-1394550D01*
G01*
X262992758Y-125262774D02*
G75*
G02*
X262276360Y-124956878I-205251J511147D01*
G01*
D10*
X292125458Y-175067035D02*
X292850505Y-174728941D01*
X292487982Y-174897988D02*
X292276672Y-174444835D01*
X292741549Y-175441775D02*
X292125458Y-175067035D01*
X292741549Y-175441775D02*
X292243083Y-175674215D01*
X292741549Y-175441775D02*
X293240022Y-175209335D01*
X292850505Y-174728941D02*
X292741549Y-175441775D01*
X292910600Y-175804297D02*
X292741549Y-175441775D01*
X346814164Y-121980825D02*
X347539211Y-121642731D01*
X347176688Y-121811778D02*
X346965378Y-121358625D01*
X347430255Y-122355565D02*
X346814164Y-121980825D01*
X347430255Y-122355565D02*
X346931789Y-122588005D01*
X347430255Y-122355565D02*
X347928728Y-122123125D01*
X347539211Y-121642731D02*
X347430255Y-122355565D01*
X347599306Y-122718087D02*
X347430255Y-122355565D01*
X284940949Y-159659806D02*
X285665996Y-159321712D01*
X285303473Y-159490759D02*
X285092163Y-159037606D01*
X285557040Y-160034546D02*
X284940949Y-159659806D01*
X285557040Y-160034546D02*
X285058574Y-160266986D01*
X285557040Y-160034546D02*
X286055513Y-159802106D01*
X285665996Y-159321712D02*
X285557040Y-160034546D01*
X285726091Y-160397068D02*
X285557040Y-160034546D01*
D11*
X325617375Y-141298933D02*
X325375527Y-141963395D01*
X327519157Y-145377319D02*
X326854692Y-145135472D01*
X328336296Y-140031078D02*
X325617375Y-141298933D01*
X329000761Y-140272921D02*
X328336296Y-140031078D01*
X329000761Y-140272921D02*
X329389566Y-141106726D01*
X329603664Y-144405296D02*
X327519157Y-145377319D01*
X330105967Y-141412621D02*
X334166225Y-139519292D01*
X332074147Y-145680721D02*
X331778313Y-145046304D01*
X334166225Y-139519292D02*
X334419796Y-140063076D01*
X335941221Y-143325783D02*
X336152532Y-143778938D01*
X336152532Y-143778938D02*
X332074147Y-145680721D01*
X329603664Y-144405296D02*
G75*
G02*
X331769863Y-145028177I771656J-1394550D01*
G01*
X330105967Y-141412621D02*
G75*
G02*
X329389569Y-141106725I-205251J511147D01*
G01*
X283946740Y-94527600D02*
X283704892Y-95192062D01*
X285848522Y-98605986D02*
X285184057Y-98364139D01*
X286665661Y-93259745D02*
X283946740Y-94527600D01*
X287330126Y-93501588D02*
X286665661Y-93259745D01*
X287330126Y-93501588D02*
X287718931Y-94335393D01*
X287933029Y-97633963D02*
X285848522Y-98605986D01*
X288435332Y-94641288D02*
X292495590Y-92747959D01*
X290403512Y-98909388D02*
X290107678Y-98274971D01*
X292495590Y-92747959D02*
X292749161Y-93291743D01*
X294270586Y-96554450D02*
X294481897Y-97007605D01*
X294481897Y-97007605D02*
X290403512Y-98909388D01*
X287933029Y-97633963D02*
G75*
G02*
X290099228Y-98256844I771656J-1394550D01*
G01*
X288435332Y-94641288D02*
G75*
G02*
X287718934Y-94335392I-205251J511147D01*
G01*
D10*
X138641499Y-157518499D02*
X138810548Y-157155976D01*
X138701593Y-156443143D02*
X139426640Y-156781237D01*
X138810548Y-157155976D02*
X138312076Y-156923537D01*
X138810548Y-157155976D02*
X138701593Y-156443143D01*
X138810548Y-157155976D02*
X139309013Y-157388418D01*
X139064116Y-156612190D02*
X139275425Y-156159037D01*
X139426640Y-156781237D02*
X138810548Y-157155976D01*
D11*
X265688682Y-140556319D02*
X265446834Y-141220781D01*
X267590464Y-144634705D02*
X266925999Y-144392858D01*
X268407603Y-139288464D02*
X265688682Y-140556319D01*
X269072068Y-139530307D02*
X268407603Y-139288464D01*
X269072068Y-139530307D02*
X269460873Y-140364112D01*
X269674971Y-143662682D02*
X267590464Y-144634705D01*
X270177274Y-140670007D02*
X274237532Y-138776678D01*
X272145454Y-144938107D02*
X271849620Y-144303690D01*
X274237532Y-138776678D02*
X274491103Y-139320462D01*
X276012528Y-142583169D02*
X276223839Y-143036324D01*
X276223839Y-143036324D02*
X272145454Y-144938107D01*
X269674971Y-143662682D02*
G75*
G02*
X271841170Y-144285563I771656J-1394550D01*
G01*
X270177274Y-140670007D02*
G75*
G02*
X269460876Y-140364111I-205251J511147D01*
G01*
X243247174Y-135021985D02*
X243005326Y-135686447D01*
X245148956Y-139100371D02*
X244484491Y-138858524D01*
X245966095Y-133754130D02*
X243247174Y-135021985D01*
X246630560Y-133995973D02*
X245966095Y-133754130D01*
X246630560Y-133995973D02*
X247019365Y-134829778D01*
X247233463Y-138128348D02*
X245148956Y-139100371D01*
X247735766Y-135135673D02*
X251796024Y-133242344D01*
X249703946Y-139403773D02*
X249408112Y-138769356D01*
X251796024Y-133242344D02*
X252049595Y-133786128D01*
X253571020Y-137048835D02*
X253782331Y-137501990D01*
X253782331Y-137501990D02*
X249703946Y-139403773D01*
X247233463Y-138128348D02*
G75*
G02*
X249399662Y-138751229I771656J-1394550D01*
G01*
X247735766Y-135135673D02*
G75*
G02*
X247019368Y-134829777I-205251J511147D01*
G01*
X169572796Y-153239747D02*
X169330948Y-152575283D01*
X171474578Y-149161362D02*
X170810117Y-149403205D01*
X171657304Y-154211769D02*
X169572796Y-153239747D01*
X172268268Y-156924097D02*
X172564104Y-156289681D01*
X174193499Y-150429218D02*
X171474578Y-149161362D01*
X174272697Y-152672903D02*
X178332957Y-154566232D01*
X174435347Y-151093680D02*
X174046537Y-151927484D01*
X174435347Y-151093680D02*
X174193499Y-150429218D01*
X176346653Y-158825879D02*
X172268268Y-156924097D01*
X176557960Y-158372727D02*
X176346653Y-158825879D01*
X178332957Y-154566232D02*
X178079387Y-155110019D01*
X171657304Y-154211769D02*
G75*
G02*
X172572552Y-156271554I-572269J-1487517D01*
G01*
X174272697Y-152672903D02*
G75*
G02*
X174046536Y-151927483I259631J485791D01*
G01*
D10*
X285828923Y-118972444D02*
X286553970Y-118634350D01*
X286191447Y-118803397D02*
X285980137Y-118350244D01*
X286445014Y-119347184D02*
X285828923Y-118972444D01*
X286445014Y-119347184D02*
X285946548Y-119579624D01*
X286445014Y-119347184D02*
X286943487Y-119114744D01*
X286553970Y-118634350D02*
X286445014Y-119347184D01*
X286614065Y-119709706D02*
X286445014Y-119347184D01*
X307382452Y-165194139D02*
X308107499Y-164856045D01*
X307744976Y-165025092D02*
X307533666Y-164571939D01*
X307998543Y-165568879D02*
X307382452Y-165194139D01*
X307998543Y-165568879D02*
X307500077Y-165801319D01*
X307998543Y-165568879D02*
X308497016Y-165336439D01*
X308107499Y-164856045D02*
X307998543Y-165568879D01*
X308167594Y-165931401D02*
X307998543Y-165568879D01*
D11*
X266576657Y-99868958D02*
X266334809Y-100533420D01*
X268478439Y-103947344D02*
X267813974Y-103705497D01*
X269295578Y-98601103D02*
X266576657Y-99868958D01*
X269960043Y-98842946D02*
X269295578Y-98601103D01*
X269960043Y-98842946D02*
X270348848Y-99676751D01*
X270562946Y-102975321D02*
X268478439Y-103947344D01*
X271065249Y-99982646D02*
X275125507Y-98089317D01*
X273033429Y-104250746D02*
X272737595Y-103616329D01*
X275125507Y-98089317D02*
X275379078Y-98633101D01*
X276900503Y-101895808D02*
X277111814Y-102348963D01*
X277111814Y-102348963D02*
X273033429Y-104250746D01*
X270562946Y-102975321D02*
G75*
G02*
X272729145Y-103598202I771656J-1394550D01*
G01*
X271065249Y-99982646D02*
G75*
G02*
X270348851Y-99676750I-205251J511147D01*
G01*
D10*
X146713982Y-182798633D02*
X146883031Y-182436110D01*
X146774076Y-181723277D02*
X147499123Y-182061371D01*
X146883031Y-182436110D02*
X146384559Y-182203671D01*
X146883031Y-182436110D02*
X146774076Y-181723277D01*
X146883031Y-182436110D02*
X147381496Y-182668552D01*
X147136599Y-181892324D02*
X147347908Y-181439171D01*
X147499123Y-182061371D02*
X146883031Y-182436110D01*
D11*
X107319706Y-158967056D02*
X107077858Y-158302592D01*
X109221488Y-154888671D02*
X108557027Y-155130514D01*
X109404214Y-159939078D02*
X107319706Y-158967056D01*
X110015178Y-162651406D02*
X110311014Y-162016990D01*
X111940409Y-156156527D02*
X109221488Y-154888671D01*
X112019607Y-158400212D02*
X116079867Y-160293541D01*
X112182257Y-156820989D02*
X111793447Y-157654793D01*
X112182257Y-156820989D02*
X111940409Y-156156527D01*
X114093563Y-164553188D02*
X110015178Y-162651406D01*
X114304870Y-164100036D02*
X114093563Y-164553188D01*
X116079867Y-160293541D02*
X115826297Y-160837328D01*
X109404214Y-159939078D02*
G75*
G02*
X110319462Y-161998863I-572269J-1487517D01*
G01*
X112019607Y-158400212D02*
G75*
G02*
X111793446Y-157654792I259631J485791D01*
G01*
X312684784Y-156156529D02*
X312442936Y-156820991D01*
X314586566Y-160234915D02*
X313922101Y-159993068D01*
X315403705Y-154888674D02*
X312684784Y-156156529D01*
X316068170Y-155130517D02*
X315403705Y-154888674D01*
X316068170Y-155130517D02*
X316456975Y-155964322D01*
X316671073Y-159262892D02*
X314586566Y-160234915D01*
X317173376Y-156270217D02*
X321233634Y-154376888D01*
X319141556Y-160538317D02*
X318845722Y-159903900D01*
X321233634Y-154376888D02*
X321487205Y-154920672D01*
X323008630Y-158183379D02*
X323219941Y-158636534D01*
X323219941Y-158636534D02*
X319141556Y-160538317D01*
X316671073Y-159262892D02*
G75*
G02*
X318837272Y-159885773I771656J-1394550D01*
G01*
X317173376Y-156270217D02*
G75*
G02*
X316456978Y-155964321I-205251J511147D01*
G01*
X153427830Y-102679487D02*
X153185982Y-102015023D01*
X155329612Y-98601102D02*
X154665151Y-98842945D01*
X155512338Y-103651509D02*
X153427830Y-102679487D01*
X156123302Y-106363837D02*
X156419138Y-105729421D01*
X158048533Y-99868958D02*
X155329612Y-98601102D01*
X158127731Y-102112643D02*
X162187991Y-104005972D01*
X158290381Y-100533420D02*
X157901571Y-101367224D01*
X158290381Y-100533420D02*
X158048533Y-99868958D01*
X160201687Y-108265619D02*
X156123302Y-106363837D01*
X160412994Y-107812467D02*
X160201687Y-108265619D01*
X162187991Y-104005972D02*
X161934421Y-104549759D01*
X155512338Y-103651509D02*
G75*
G02*
X156427586Y-105711294I-572269J-1487517D01*
G01*
X158127731Y-102112643D02*
G75*
G02*
X157901570Y-101367223I259631J485791D01*
G01*
X183941821Y-122425288D02*
X183699973Y-121760824D01*
X185843603Y-118346903D02*
X185179142Y-118588746D01*
X186026329Y-123397310D02*
X183941821Y-122425288D01*
X186637293Y-126109638D02*
X186933129Y-125475222D01*
X188562524Y-119614759D02*
X185843603Y-118346903D01*
X188641722Y-121858444D02*
X192701982Y-123751773D01*
X188804372Y-120279221D02*
X188415562Y-121113025D01*
X188804372Y-120279221D02*
X188562524Y-119614759D01*
X190715678Y-128011420D02*
X186637293Y-126109638D01*
X190926985Y-127558268D02*
X190715678Y-128011420D01*
X192701982Y-123751773D02*
X192448412Y-124295560D01*
X186026329Y-123397310D02*
G75*
G02*
X186941577Y-125457095I-572269J-1487517D01*
G01*
X188641722Y-121858444D02*
G75*
G02*
X188415561Y-121113024I259631J485791D01*
G01*
D10*
X353998677Y-137388058D02*
X354723724Y-137049964D01*
X354361201Y-137219011D02*
X354149891Y-136765858D01*
X354614768Y-137762798D02*
X353998677Y-137388058D01*
X354614768Y-137762798D02*
X354116302Y-137995238D01*
X354614768Y-137762798D02*
X355113241Y-137530358D01*
X354723724Y-137049964D02*
X354614768Y-137762798D01*
X354783819Y-138125320D02*
X354614768Y-137762798D01*
X337685137Y-144995189D02*
X338410184Y-144657095D01*
X338047661Y-144826142D02*
X337836351Y-144372989D01*
X338301228Y-145369929D02*
X337685137Y-144995189D01*
X338301228Y-145369929D02*
X337802762Y-145602369D01*
X338301228Y-145369929D02*
X338799701Y-145137489D01*
X338410184Y-144657095D02*
X338301228Y-145369929D01*
X338470279Y-145732451D02*
X338301228Y-145369929D01*
D11*
X298315763Y-125342060D02*
X298073915Y-126006522D01*
X300217545Y-129420446D02*
X299553080Y-129178599D01*
X301034684Y-124074205D02*
X298315763Y-125342060D01*
X301699149Y-124316048D02*
X301034684Y-124074205D01*
X301699149Y-124316048D02*
X302087954Y-125149853D01*
X302302052Y-128448423D02*
X300217545Y-129420446D01*
X302804355Y-125455748D02*
X306864613Y-123562419D01*
X304772535Y-129723848D02*
X304476701Y-129089431D01*
X306864613Y-123562419D02*
X307118184Y-124106203D01*
X308639609Y-127368910D02*
X308850920Y-127822065D01*
X308850920Y-127822065D02*
X304772535Y-129723848D01*
X302302052Y-128448423D02*
G75*
G02*
X304468251Y-129071304I771656J-1394550D01*
G01*
X302804355Y-125455748D02*
G75*
G02*
X302087957Y-125149852I-205251J511147D01*
G01*
X85258076Y-121095107D02*
X85016228Y-120430643D01*
X87159858Y-117016722D02*
X86495397Y-117258565D01*
X87342584Y-122067129D02*
X85258076Y-121095107D01*
X87953548Y-124779457D02*
X88249384Y-124145041D01*
X89878779Y-118284578D02*
X87159858Y-117016722D01*
X89957977Y-120528263D02*
X94018237Y-122421592D01*
X90120627Y-118949040D02*
X89731817Y-119782844D01*
X90120627Y-118949040D02*
X89878779Y-118284578D01*
X92031933Y-126681239D02*
X87953548Y-124779457D01*
X92243240Y-126228087D02*
X92031933Y-126681239D01*
X94018237Y-122421592D02*
X93764667Y-122965379D01*
X87342584Y-122067129D02*
G75*
G02*
X88257832Y-124126914I-572269J-1487517D01*
G01*
X89957977Y-120528263D02*
G75*
G02*
X89731816Y-119782843I259631J485791D01*
G01*
X121688728Y-128152588D02*
X121446880Y-127488124D01*
X123590510Y-124074203D02*
X122926049Y-124316046D01*
X123773236Y-129124610D02*
X121688728Y-128152588D01*
X124384200Y-131836938D02*
X124680036Y-131202522D01*
X126309431Y-125342059D02*
X123590510Y-124074203D01*
X126388629Y-127585744D02*
X130448889Y-129479073D01*
X126551279Y-126006521D02*
X126162469Y-126840325D01*
X126551279Y-126006521D02*
X126309431Y-125342059D01*
X128462585Y-133738720D02*
X124384200Y-131836938D01*
X128673892Y-133285568D02*
X128462585Y-133738720D01*
X130448889Y-129479073D02*
X130195319Y-130022860D01*
X123773236Y-129124610D02*
G75*
G02*
X124688484Y-131184395I-572269J-1487517D01*
G01*
X126388629Y-127585744D02*
G75*
G02*
X126162468Y-126840324I259631J485791D01*
G01*
X280945672Y-130683425D02*
X280703824Y-131347887D01*
X282847454Y-134761811D02*
X282182989Y-134519964D01*
X283664593Y-129415570D02*
X280945672Y-130683425D01*
X284329058Y-129657413D02*
X283664593Y-129415570D01*
X284329058Y-129657413D02*
X284717863Y-130491218D01*
X284931961Y-133789788D02*
X282847454Y-134761811D01*
X285434264Y-130797113D02*
X289494522Y-128903784D01*
X287402444Y-135065213D02*
X287106610Y-134430796D01*
X289494522Y-128903784D02*
X289748093Y-129447568D01*
X291269518Y-132710275D02*
X291480829Y-133163430D01*
X291480829Y-133163430D02*
X287402444Y-135065213D01*
X284931961Y-133789788D02*
G75*
G02*
X287098160Y-134412669I771656J-1394550D01*
G01*
X285434264Y-130797113D02*
G75*
G02*
X284717866Y-130491217I-205251J511147D01*
G01*
D10*
X153898500Y-167391401D02*
X154067549Y-167028878D01*
X153958594Y-166316045D02*
X154683641Y-166654139D01*
X154067549Y-167028878D02*
X153569077Y-166796439D01*
X154067549Y-167028878D02*
X153958594Y-166316045D01*
X154067549Y-167028878D02*
X154566014Y-167261320D01*
X154321117Y-166485092D02*
X154532426Y-166031939D01*
X154683641Y-166654139D02*
X154067549Y-167028878D01*
D11*
X251319659Y-109741857D02*
X251077811Y-110406319D01*
X253221441Y-113820243D02*
X252556976Y-113578396D01*
X254038580Y-108474002D02*
X251319659Y-109741857D01*
X254703045Y-108715845D02*
X254038580Y-108474002D01*
X254703045Y-108715845D02*
X255091850Y-109549650D01*
X255305948Y-112848220D02*
X253221441Y-113820243D01*
X255808251Y-109855545D02*
X259868509Y-107962216D01*
X257776431Y-114123645D02*
X257480597Y-113489228D01*
X259868509Y-107962216D02*
X260122080Y-108506000D01*
X261643505Y-111768707D02*
X261854816Y-112221862D01*
X261854816Y-112221862D02*
X257776431Y-114123645D01*
X255305948Y-112848220D02*
G75*
G02*
X257472147Y-113471101I771656J-1394550D01*
G01*
X255808251Y-109855545D02*
G75*
G02*
X255091853Y-109549649I-205251J511147D01*
G01*
X139058806Y-133493954D02*
X138816958Y-132829490D01*
X140960588Y-129415569D02*
X140296127Y-129657412D01*
X141143314Y-134465976D02*
X139058806Y-133493954D01*
X141754278Y-137178304D02*
X142050114Y-136543888D01*
X143679509Y-130683425D02*
X140960588Y-129415569D01*
X143758707Y-132927110D02*
X147818967Y-134820439D01*
X143921357Y-131347887D02*
X143532547Y-132181691D01*
X143921357Y-131347887D02*
X143679509Y-130683425D01*
X145832663Y-139080086D02*
X141754278Y-137178304D01*
X146043970Y-138626934D02*
X145832663Y-139080086D01*
X147818967Y-134820439D02*
X147565397Y-135364226D01*
X141143314Y-134465976D02*
G75*
G02*
X142058562Y-136525761I-572269J-1487517D01*
G01*
X143758707Y-132927110D02*
G75*
G02*
X143532546Y-132181690I259631J485791D01*
G01*
D10*
X108338821Y-137319551D02*
X108507870Y-136957028D01*
X108398915Y-136244195D02*
X109123962Y-136582289D01*
X108507870Y-136957028D02*
X108009398Y-136724589D01*
X108507870Y-136957028D02*
X108398915Y-136244195D01*
X108507870Y-136957028D02*
X109006335Y-137189470D01*
X108761438Y-136413242D02*
X108972747Y-135960089D01*
X109123962Y-136582289D02*
X108507870Y-136957028D01*
D11*
X124689791Y-164308417D02*
X124447943Y-163643953D01*
X126591573Y-160230032D02*
X125927112Y-160471875D01*
X126774299Y-165280439D02*
X124689791Y-164308417D01*
X127385263Y-167992767D02*
X127681099Y-167358351D01*
X129310494Y-161497888D02*
X126591573Y-160230032D01*
X129389692Y-163741573D02*
X133449952Y-165634902D01*
X129552342Y-162162350D02*
X129163532Y-162996154D01*
X129552342Y-162162350D02*
X129310494Y-161497888D01*
X131463648Y-169894549D02*
X127385263Y-167992767D01*
X131674955Y-169441397D02*
X131463648Y-169894549D01*
X133449952Y-165634902D02*
X133196382Y-166178689D01*
X126774299Y-165280439D02*
G75*
G02*
X127689547Y-167340224I-572269J-1487517D01*
G01*
X129389692Y-163741573D02*
G75*
G02*
X129163531Y-162996153I259631J485791D01*
G01*
X94387108Y-144109466D02*
X94145260Y-143445002D01*
X96288890Y-140031081D02*
X95624429Y-140272924D01*
X96471616Y-145081488D02*
X94387108Y-144109466D01*
X97082580Y-147793816D02*
X97378416Y-147159400D01*
X99007811Y-141298937D02*
X96288890Y-140031081D01*
X99087009Y-143542622D02*
X103147269Y-145435951D01*
X99249659Y-141963399D02*
X98860849Y-142797203D01*
X99249659Y-141963399D02*
X99007811Y-141298937D01*
X101160965Y-149695598D02*
X97082580Y-147793816D01*
X101372272Y-149242446D02*
X101160965Y-149695598D01*
X103147269Y-145435951D02*
X102893699Y-145979738D01*
X96471616Y-145081488D02*
G75*
G02*
X97386864Y-147141273I-572269J-1487517D01*
G01*
X99087009Y-143542622D02*
G75*
G02*
X98860848Y-142797202I259631J485791D01*
G01*
D10*
X142824944Y-105955447D02*
X142993993Y-105592924D01*
X142885038Y-104880091D02*
X143610085Y-105218185D01*
X142993993Y-105592924D02*
X142495521Y-105360485D01*
X142993993Y-105592924D02*
X142885038Y-104880091D01*
X142993993Y-105592924D02*
X143492458Y-105825366D01*
X143247561Y-105049138D02*
X143458870Y-104595985D01*
X143610085Y-105218185D02*
X142993993Y-105592924D01*
X128455921Y-136769912D02*
X128624970Y-136407389D01*
X128516015Y-135694556D02*
X129241062Y-136032650D01*
X128624970Y-136407389D02*
X128126498Y-136174950D01*
X128624970Y-136407389D02*
X128516015Y-135694556D01*
X128624970Y-136407389D02*
X129123435Y-136639831D01*
X128878538Y-135863603D02*
X129089847Y-135410450D01*
X129241062Y-136032650D02*
X128624970Y-136407389D01*
D11*
X128873238Y-112745358D02*
X128631390Y-112080894D01*
X130775020Y-108666973D02*
X130110559Y-108908816D01*
X130957746Y-113717380D02*
X128873238Y-112745358D01*
X131568710Y-116429708D02*
X131864546Y-115795292D01*
X133493941Y-109934829D02*
X130775020Y-108666973D01*
X133573139Y-112178514D02*
X137633399Y-114071843D01*
X133735789Y-110599291D02*
X133346979Y-111433095D01*
X133735789Y-110599291D02*
X133493941Y-109934829D01*
X135647095Y-118331490D02*
X131568710Y-116429708D01*
X135858402Y-117878338D02*
X135647095Y-118331490D01*
X137633399Y-114071843D02*
X137379829Y-114615630D01*
X130957746Y-113717380D02*
G75*
G02*
X131872994Y-115777165I-572269J-1487517D01*
G01*
X133573139Y-112178514D02*
G75*
G02*
X133346978Y-111433094I259631J485791D01*
G01*
X78073571Y-136502334D02*
X77831723Y-135837870D01*
X79975353Y-132423949D02*
X79310892Y-132665792D01*
X80158079Y-137474356D02*
X78073571Y-136502334D01*
X80769043Y-140186684D02*
X81064879Y-139552268D01*
X82694274Y-133691805D02*
X79975353Y-132423949D01*
X82773472Y-135935490D02*
X86833732Y-137828819D01*
X82936122Y-134356267D02*
X82547312Y-135190071D01*
X82936122Y-134356267D02*
X82694274Y-133691805D01*
X84847428Y-142088466D02*
X80769043Y-140186684D01*
X85058735Y-141635314D02*
X84847428Y-142088466D01*
X86833732Y-137828819D02*
X86580162Y-138372606D01*
X80158079Y-137474356D02*
G75*
G02*
X81073327Y-139534141I-572269J-1487517D01*
G01*
X82773472Y-135935490D02*
G75*
G02*
X82547311Y-135190070I259631J485791D01*
G01*
D10*
X296014494Y-98223848D02*
X296739541Y-97885754D01*
X296377018Y-98054801D02*
X296165708Y-97601648D01*
X296630585Y-98598588D02*
X296014494Y-98223848D01*
X296630585Y-98598588D02*
X296132119Y-98831028D01*
X296630585Y-98598588D02*
X297129058Y-98366148D01*
X296739541Y-97885754D02*
X296630585Y-98598588D01*
X296799636Y-98961110D02*
X296630585Y-98598588D01*
X145826009Y-142111271D02*
X145995058Y-141748748D01*
X145886103Y-141035915D02*
X146611150Y-141374009D01*
X145995058Y-141748748D02*
X145496586Y-141516309D01*
X145995058Y-141748748D02*
X145886103Y-141035915D01*
X145995058Y-141748748D02*
X146493523Y-141981190D01*
X146248626Y-141204962D02*
X146459935Y-140751809D01*
X146611150Y-141374009D02*
X145995058Y-141748748D01*
X168267517Y-136576931D02*
X168436566Y-136214408D01*
X168327611Y-135501575D02*
X169052658Y-135839669D01*
X168436566Y-136214408D02*
X167938094Y-135981969D01*
X168436566Y-136214408D02*
X168327611Y-135501575D01*
X168436566Y-136214408D02*
X168935031Y-136446850D01*
X168690134Y-135670622D02*
X168901443Y-135217469D01*
X169052658Y-135839669D02*
X168436566Y-136214408D01*
X169155490Y-177264295D02*
X169324539Y-176901772D01*
X169215584Y-176188939D02*
X169940631Y-176527033D01*
X169324539Y-176901772D02*
X168826067Y-176669333D01*
X169324539Y-176901772D02*
X169215584Y-176188939D01*
X169324539Y-176901772D02*
X169823004Y-177134214D01*
X169578107Y-176357986D02*
X169789416Y-175904833D01*
X169940631Y-176527033D02*
X169324539Y-176901772D01*
X190709022Y-131042601D02*
X190878071Y-130680078D01*
X190769116Y-129967245D02*
X191494163Y-130305339D01*
X190878071Y-130680078D02*
X190379599Y-130447639D01*
X190878071Y-130680078D02*
X190769116Y-129967245D01*
X190878071Y-130680078D02*
X191376536Y-130912520D01*
X191131639Y-130136292D02*
X191342948Y-129683139D01*
X191494163Y-130305339D02*
X190878071Y-130680078D01*
D11*
X139946788Y-174181317D02*
X139704940Y-173516853D01*
X141848570Y-170102932D02*
X141184109Y-170344775D01*
X142031296Y-175153339D02*
X139946788Y-174181317D01*
X142642260Y-177865667D02*
X142938096Y-177231251D01*
X144567491Y-171370788D02*
X141848570Y-170102932D01*
X144646689Y-173614473D02*
X148706949Y-175507802D01*
X144809339Y-172035250D02*
X144420529Y-172869054D01*
X144809339Y-172035250D02*
X144567491Y-171370788D01*
X146720645Y-179767449D02*
X142642260Y-177865667D01*
X146931952Y-179314297D02*
X146720645Y-179767449D01*
X148706949Y-175507802D02*
X148453379Y-176051589D01*
X142031296Y-175153339D02*
G75*
G02*
X142946544Y-177213124I-572269J-1487517D01*
G01*
X144646689Y-173614473D02*
G75*
G02*
X144420528Y-172869053I259631J485791D01*
G01*
D10*
X278644412Y-103565211D02*
X279369459Y-103227117D01*
X279006936Y-103396164D02*
X278795626Y-102943011D01*
X279260503Y-103939951D02*
X278644412Y-103565211D01*
X279260503Y-103939951D02*
X278762037Y-104172391D01*
X279260503Y-103939951D02*
X279758976Y-103707511D01*
X279369459Y-103227117D02*
X279260503Y-103939951D01*
X279429554Y-104302473D02*
X279260503Y-103939951D01*
D11*
X154315804Y-143366851D02*
X154073956Y-142702387D01*
X156217586Y-139288466D02*
X155553125Y-139530309D01*
X156400312Y-144338873D02*
X154315804Y-143366851D01*
X157011276Y-147051201D02*
X157307112Y-146416785D01*
X158936507Y-140556322D02*
X156217586Y-139288466D01*
X159015705Y-142800007D02*
X163075965Y-144693336D01*
X159178355Y-141220784D02*
X158789545Y-142054588D01*
X159178355Y-141220784D02*
X158936507Y-140556322D01*
X161089661Y-148952983D02*
X157011276Y-147051201D01*
X161300968Y-148499831D02*
X161089661Y-148952983D01*
X163075965Y-144693336D02*
X162822395Y-145237123D01*
X156400312Y-144338873D02*
G75*
G02*
X157315560Y-146398658I-572269J-1487517D01*
G01*
X159015705Y-142800007D02*
G75*
G02*
X158789544Y-142054587I259631J485791D01*
G01*
X92442593Y-105687873D02*
X92200745Y-105023409D01*
X94344375Y-101609488D02*
X93679914Y-101851331D01*
X94527101Y-106659895D02*
X92442593Y-105687873D01*
X95138065Y-109372223D02*
X95433901Y-108737807D01*
X97063296Y-102877344D02*
X94344375Y-101609488D01*
X97142494Y-105121029D02*
X101202754Y-107014358D01*
X97305144Y-103541806D02*
X96916334Y-104375610D01*
X97305144Y-103541806D02*
X97063296Y-102877344D01*
X99216450Y-111274005D02*
X95138065Y-109372223D01*
X99427757Y-110820853D02*
X99216450Y-111274005D01*
X101202754Y-107014358D02*
X100949184Y-107558145D01*
X94527101Y-106659895D02*
G75*
G02*
X95442349Y-108719680I-572269J-1487517D01*
G01*
X97142494Y-105121029D02*
G75*
G02*
X96916333Y-104375609I259631J485791D01*
G01*
X147131297Y-158774088D02*
X146889449Y-158109624D01*
X149033079Y-154695703D02*
X148368618Y-154937546D01*
X149215805Y-159746110D02*
X147131297Y-158774088D01*
X149826769Y-162458438D02*
X150122605Y-161824022D01*
X151752000Y-155963559D02*
X149033079Y-154695703D01*
X151831198Y-158207244D02*
X155891458Y-160100573D01*
X151993848Y-156628021D02*
X151605038Y-157461825D01*
X151993848Y-156628021D02*
X151752000Y-155963559D01*
X153905154Y-164360220D02*
X149826769Y-162458438D01*
X154116461Y-163907068D02*
X153905154Y-164360220D01*
X155891458Y-160100573D02*
X155637888Y-160644360D01*
X149215805Y-159746110D02*
G75*
G02*
X150131053Y-161805895I-572269J-1487517D01*
G01*
X151831198Y-158207244D02*
G75*
G02*
X151605037Y-157461824I259631J485791D01*
G01*
D10*
X339629653Y-106573600D02*
X340354700Y-106235506D01*
X339992177Y-106404553D02*
X339780867Y-105951400D01*
X340245744Y-106948340D02*
X339629653Y-106573600D01*
X340245744Y-106948340D02*
X339747278Y-107180780D01*
X340245744Y-106948340D02*
X340744217Y-106715900D01*
X340354700Y-106235506D02*
X340245744Y-106948340D01*
X340414795Y-107310862D02*
X340245744Y-106948340D01*
X248130426Y-123311007D02*
X248855473Y-122972913D01*
X248492950Y-123141960D02*
X248281640Y-122688807D01*
X248746517Y-123685747D02*
X248130426Y-123311007D01*
X248746517Y-123685747D02*
X248248051Y-123918187D01*
X248746517Y-123685747D02*
X249244990Y-123453307D01*
X248855473Y-122972913D02*
X248746517Y-123685747D01*
X248915568Y-124048269D02*
X248746517Y-123685747D01*
X332445144Y-91166364D02*
X333170191Y-90828270D01*
X332807668Y-90997317D02*
X332596358Y-90544164D01*
X333061235Y-91541104D02*
X332445144Y-91166364D01*
X333061235Y-91541104D02*
X332562769Y-91773544D01*
X333061235Y-91541104D02*
X333559708Y-91308664D01*
X333170191Y-90828270D02*
X333061235Y-91541104D01*
X333230286Y-91903626D02*
X333061235Y-91541104D01*
X273312800Y-185663546D02*
X273848104Y-185069031D01*
X273580453Y-185366290D02*
X273208880Y-185031721D01*
X273848104Y-185069031D02*
X274026341Y-185767769D01*
X274026341Y-185767769D02*
X273312800Y-185663546D01*
X274026341Y-185767769D02*
X273658319Y-186176492D01*
X274026341Y-185767769D02*
X274394364Y-185359037D01*
X274323598Y-186035421D02*
X274026341Y-185767769D01*
D11*
X257616195Y-165836450D02*
X257374347Y-166500912D01*
X259517977Y-169914836D02*
X258853512Y-169672989D01*
X260335116Y-164568595D02*
X257616195Y-165836450D01*
X260999581Y-164810438D02*
X260335116Y-164568595D01*
X260999581Y-164810438D02*
X261388386Y-165644243D01*
X261602484Y-168942813D02*
X259517977Y-169914836D01*
X262104787Y-165950138D02*
X266165045Y-164056809D01*
X264072967Y-170218238D02*
X263777133Y-169583821D01*
X266165045Y-164056809D02*
X266418616Y-164600593D01*
X267940041Y-167863300D02*
X268151352Y-168316455D01*
X268151352Y-168316455D02*
X264072967Y-170218238D01*
X261602484Y-168942813D02*
G75*
G02*
X263768683Y-169565694I771656J-1394550D01*
G01*
X262104787Y-165950138D02*
G75*
G02*
X261388389Y-165644242I-205251J511147D01*
G01*
X341930915Y-133691813D02*
X341689067Y-134356275D01*
X343832697Y-137770199D02*
X343168232Y-137528352D01*
X344649836Y-132423958D02*
X341930915Y-133691813D01*
X345314301Y-132665801D02*
X344649836Y-132423958D01*
X345314301Y-132665801D02*
X345703106Y-133499606D01*
X345917204Y-136798176D02*
X343832697Y-137770199D01*
X346419507Y-133805501D02*
X350479765Y-131912172D01*
X348387687Y-138073601D02*
X348091853Y-137439184D01*
X350479765Y-131912172D02*
X350733336Y-132455956D01*
X352254761Y-135718663D02*
X352466072Y-136171818D01*
X352466072Y-136171818D02*
X348387687Y-138073601D01*
X345917204Y-136798176D02*
G75*
G02*
X348083403Y-137421057I771656J-1394550D01*
G01*
X346419507Y-133805501D02*
G75*
G02*
X345703109Y-133499605I-205251J511147D01*
G01*
X320377389Y-87470112D02*
X320135541Y-88134574D01*
X322279171Y-91548498D02*
X321614706Y-91306651D01*
X323096310Y-86202257D02*
X320377389Y-87470112D01*
X323760775Y-86444100D02*
X323096310Y-86202257D01*
X323760775Y-86444100D02*
X324149580Y-87277905D01*
X324363678Y-90576475D02*
X322279171Y-91548498D01*
X324865981Y-87583800D02*
X328926239Y-85690471D01*
X326834161Y-91851900D02*
X326538327Y-91217483D01*
X328926239Y-85690471D02*
X329179810Y-86234255D01*
X330701235Y-89496962D02*
X330912546Y-89950117D01*
X330912546Y-89950117D02*
X326834161Y-91851900D01*
X324363678Y-90576475D02*
G75*
G02*
X326529877Y-91199356I771656J-1394550D01*
G01*
X324865981Y-87583800D02*
G75*
G02*
X324149583Y-87277904I-205251J511147D01*
G01*
X161500316Y-127959615D02*
X161258468Y-127295151D01*
X163402098Y-123881230D02*
X162737637Y-124123073D01*
X163584824Y-128931637D02*
X161500316Y-127959615D01*
X164195788Y-131643965D02*
X164491624Y-131009549D01*
X166121019Y-125149086D02*
X163402098Y-123881230D01*
X166200217Y-127392771D02*
X170260477Y-129286100D01*
X166362867Y-125813548D02*
X165974057Y-126647352D01*
X166362867Y-125813548D02*
X166121019Y-125149086D01*
X168274173Y-133545747D02*
X164195788Y-131643965D01*
X168485480Y-133092595D02*
X168274173Y-133545747D01*
X170260477Y-129286100D02*
X170006907Y-129829887D01*
X163584824Y-128931637D02*
G75*
G02*
X164500072Y-130991422I-572269J-1487517D01*
G01*
X166200217Y-127392771D02*
G75*
G02*
X165974056Y-126647351I259631J485791D01*
G01*
D10*
X270571931Y-128845338D02*
X271296978Y-128507244D01*
X270934455Y-128676291D02*
X270723145Y-128223138D01*
X271188022Y-129220078D02*
X270571931Y-128845338D01*
X271188022Y-129220078D02*
X270689556Y-129452518D01*
X271188022Y-129220078D02*
X271686495Y-128987638D01*
X271296978Y-128507244D02*
X271188022Y-129220078D01*
X271357073Y-129582600D02*
X271188022Y-129220078D01*
X330500623Y-129587957D02*
X331225670Y-129249863D01*
X330863147Y-129418910D02*
X330651837Y-128965757D01*
X331116714Y-129962697D02*
X330500623Y-129587957D01*
X331116714Y-129962697D02*
X330618248Y-130195137D01*
X331116714Y-129962697D02*
X331615187Y-129730257D01*
X331225670Y-129249863D02*
X331116714Y-129962697D01*
X331285765Y-130325219D02*
X331116714Y-129962697D01*
D11*
X327561895Y-102877348D02*
X327320047Y-103541810D01*
X329463677Y-106955734D02*
X328799212Y-106713887D01*
X330280816Y-101609493D02*
X327561895Y-102877348D01*
X330945281Y-101851336D02*
X330280816Y-101609493D01*
X330945281Y-101851336D02*
X331334086Y-102685141D01*
X331548184Y-105983711D02*
X329463677Y-106955734D01*
X332050487Y-102991036D02*
X336110745Y-101097707D01*
X334018667Y-107259136D02*
X333722833Y-106624719D01*
X336110745Y-101097707D02*
X336364316Y-101641491D01*
X337885741Y-104904198D02*
X338097052Y-105357353D01*
X338097052Y-105357353D02*
X334018667Y-107259136D01*
X331548184Y-105983711D02*
G75*
G02*
X333714383Y-106606592I771656J-1394550D01*
G01*
X332050487Y-102991036D02*
G75*
G02*
X331334089Y-102685140I-205251J511147D01*
G01*
X280057708Y-171370784D02*
X279815860Y-172035246D01*
X281959490Y-175449170D02*
X281295025Y-175207323D01*
X282776629Y-170102929D02*
X280057708Y-171370784D01*
X283441094Y-170344772D02*
X282776629Y-170102929D01*
X283441094Y-170344772D02*
X283829899Y-171178577D01*
X284043997Y-174477147D02*
X281959490Y-175449170D01*
X284546300Y-171484472D02*
X288606558Y-169591143D01*
X286514480Y-175752572D02*
X286218646Y-175118155D01*
X288606558Y-169591143D02*
X288860129Y-170134927D01*
X290381554Y-173397634D02*
X290592865Y-173850789D01*
X290592865Y-173850789D02*
X286514480Y-175752572D01*
X284043997Y-174477147D02*
G75*
G02*
X286210196Y-175100028I771656J-1394550D01*
G01*
X284546300Y-171484472D02*
G75*
G02*
X283829902Y-171178576I-205251J511147D01*
G01*
X318432871Y-125891705D02*
X318191023Y-126556167D01*
X320334653Y-129970091D02*
X319670188Y-129728244D01*
X321151792Y-124623850D02*
X318432871Y-125891705D01*
X321816257Y-124865693D02*
X321151792Y-124623850D01*
X321816257Y-124865693D02*
X322205062Y-125699498D01*
X322419160Y-128998068D02*
X320334653Y-129970091D01*
X322921463Y-126005393D02*
X326981721Y-124112064D01*
X324889643Y-130273493D02*
X324593809Y-129639076D01*
X326981721Y-124112064D02*
X327235292Y-124655848D01*
X328756717Y-127918555D02*
X328968028Y-128371710D01*
X328968028Y-128371710D02*
X324889643Y-130273493D01*
X322419160Y-128998068D02*
G75*
G02*
X324585359Y-129620949I771656J-1394550D01*
G01*
X322921463Y-126005393D02*
G75*
G02*
X322205065Y-125699497I-205251J511147D01*
G01*
D10*
X257132543Y-210531525D02*
X257361973Y-210203863D01*
X257361973Y-210203863D02*
X256911440Y-209888397D01*
X257361973Y-210203863D02*
X257378458Y-209482943D01*
X257361973Y-210203863D02*
X257812507Y-210519333D01*
X257378458Y-209482943D02*
X258033780Y-209941805D01*
X257706120Y-209712374D02*
X257992907Y-209302797D01*
X258033780Y-209941805D02*
X257361973Y-210203863D01*
D11*
X101571622Y-128702234D02*
X101329774Y-128037770D01*
X103473404Y-124623849D02*
X102808943Y-124865692D01*
X103656130Y-129674256D02*
X101571622Y-128702234D01*
X104267094Y-132386584D02*
X104562930Y-131752168D01*
X106192325Y-125891705D02*
X103473404Y-124623849D01*
X106271523Y-128135390D02*
X110331783Y-130028719D01*
X106434173Y-126556167D02*
X106045363Y-127389971D01*
X106434173Y-126556167D02*
X106192325Y-125891705D01*
X108345479Y-134288366D02*
X104267094Y-132386584D01*
X108556786Y-133835214D02*
X108345479Y-134288366D01*
X110331783Y-130028719D02*
X110078213Y-130572506D01*
X103656130Y-129674256D02*
G75*
G02*
X104571378Y-131734041I-572269J-1487517D01*
G01*
X106271523Y-128135390D02*
G75*
G02*
X106045362Y-127389970I259631J485791D01*
G01*
D10*
X115523336Y-121912320D02*
X115692385Y-121549797D01*
X115583430Y-120836964D02*
X116308477Y-121175058D01*
X115692385Y-121549797D02*
X115193913Y-121317358D01*
X115692385Y-121549797D02*
X115583430Y-120836964D01*
X115692385Y-121549797D02*
X116190850Y-121782239D01*
X115945953Y-121006011D02*
X116157262Y-120552858D01*
X116308477Y-121175058D02*
X115692385Y-121549797D01*
X99209792Y-114305189D02*
X99378841Y-113942666D01*
X99269886Y-113229833D02*
X99994933Y-113567927D01*
X99378841Y-113942666D02*
X98880369Y-113710227D01*
X99378841Y-113942666D02*
X99269886Y-113229833D01*
X99378841Y-113942666D02*
X99877306Y-114175108D01*
X99632409Y-113398880D02*
X99843718Y-112945727D01*
X99994933Y-113567927D02*
X99378841Y-113942666D01*
X255314931Y-138718239D02*
X256039978Y-138380145D01*
X255677455Y-138549192D02*
X255466145Y-138096039D01*
X255931022Y-139092979D02*
X255314931Y-138718239D01*
X255931022Y-139092979D02*
X255432556Y-139325419D01*
X255931022Y-139092979D02*
X256429495Y-138860539D01*
X256039978Y-138380145D02*
X255931022Y-139092979D01*
X256100073Y-139455501D02*
X255931022Y-139092979D01*
X161375709Y-198334465D02*
X161672966Y-198066815D01*
X161672966Y-198066815D02*
X161304947Y-197658086D01*
X161672966Y-198066815D02*
X161851203Y-197368077D01*
X161672966Y-198066815D02*
X162040990Y-198475539D01*
X161851203Y-197368077D02*
X162386509Y-197962593D01*
X162118855Y-197665336D02*
X162490431Y-197330771D01*
X162386509Y-197962593D02*
X161672966Y-198066815D01*
D11*
X304063846Y-95077238D02*
X303821998Y-95741700D01*
X305965628Y-99155624D02*
X305301163Y-98913777D01*
X306782767Y-93809383D02*
X304063846Y-95077238D01*
X307447232Y-94051226D02*
X306782767Y-93809383D01*
X307447232Y-94051226D02*
X307836037Y-94885031D01*
X308050135Y-98183601D02*
X305965628Y-99155624D01*
X308552438Y-95190926D02*
X312612696Y-93297597D01*
X310520618Y-99459026D02*
X310224784Y-98824609D01*
X312612696Y-93297597D02*
X312866267Y-93841381D01*
X314387692Y-97104088D02*
X314599003Y-97557243D01*
X314599003Y-97557243D02*
X310520618Y-99459026D01*
X308050135Y-98183601D02*
G75*
G02*
X310216334Y-98806482I771656J-1394550D01*
G01*
X308552438Y-95190926D02*
G75*
G02*
X307836040Y-94885030I-205251J511147D01*
G01*
D10*
X310383517Y-129038314D02*
X311108564Y-128700220D01*
X310746041Y-128869267D02*
X310534731Y-128416114D01*
X310999608Y-129413054D02*
X310383517Y-129038314D01*
X310999608Y-129413054D02*
X310501142Y-129645494D01*
X310999608Y-129413054D02*
X311498081Y-129180614D01*
X311108564Y-128700220D02*
X310999608Y-129413054D01*
X311168659Y-129775576D02*
X310999608Y-129413054D01*
X317568032Y-144445549D02*
X318293079Y-144107455D01*
X317930556Y-144276502D02*
X317719246Y-143823349D01*
X318184123Y-144820289D02*
X317568032Y-144445549D01*
X318184123Y-144820289D02*
X317685657Y-145052729D01*
X318184123Y-144820289D02*
X318682596Y-144587849D01*
X318293079Y-144107455D02*
X318184123Y-144820289D01*
X318353174Y-145182811D02*
X318184123Y-144820289D01*
X175452029Y-121169700D02*
X175621078Y-120807177D01*
X175512123Y-120094344D02*
X176237170Y-120432438D01*
X175621078Y-120807177D02*
X175122606Y-120574738D01*
X175621078Y-120807177D02*
X175512123Y-120094344D01*
X175621078Y-120807177D02*
X176119543Y-121039619D01*
X175874646Y-120263391D02*
X176085955Y-119810238D01*
X176237170Y-120432438D02*
X175621078Y-120807177D01*
D11*
X251964536Y-200870012D02*
X251841751Y-200173647D01*
X253848586Y-202189238D02*
X251964536Y-200870012D01*
X253979276Y-204966450D02*
X254380778Y-204393044D01*
X254545629Y-197183826D02*
X253849266Y-197306615D01*
X256691470Y-201127908D02*
X260361270Y-203697530D01*
X257003088Y-198904556D02*
X254545629Y-197183826D01*
X257125876Y-199600922D02*
X256598186Y-200354541D01*
X257125876Y-199600922D02*
X257003088Y-198904556D01*
X257665463Y-207547551D02*
X253979276Y-204966450D01*
X257952250Y-207137968D02*
X257665463Y-207547551D01*
X260361270Y-203697530D02*
X260017126Y-204189023D01*
X253848586Y-202189238D02*
G75*
G02*
X254392250Y-204376663I-821878J-1365544D01*
G01*
X256691470Y-201127908D02*
G75*
G02*
X256598186Y-200354541I340042J433326D01*
G01*
X250431689Y-150429220D02*
X250189841Y-151093682D01*
X252333471Y-154507606D02*
X251669006Y-154265759D01*
X253150610Y-149161365D02*
X250431689Y-150429220D01*
X253815075Y-149403208D02*
X253150610Y-149161365D01*
X253815075Y-149403208D02*
X254203880Y-150237013D01*
X254417978Y-153535583D02*
X252333471Y-154507606D01*
X254920281Y-150542908D02*
X258980539Y-148649579D01*
X256888461Y-154811008D02*
X256592627Y-154176591D01*
X258980539Y-148649579D02*
X259234110Y-149193363D01*
X260755535Y-152456070D02*
X260966846Y-152909225D01*
X260966846Y-152909225D02*
X256888461Y-154811008D01*
X254417978Y-153535583D02*
G75*
G02*
X256584177Y-154158464I771656J-1394550D01*
G01*
X254920281Y-150542908D02*
G75*
G02*
X254203883Y-150237012I-205251J511147D01*
G01*
D10*
X135640434Y-121362677D02*
X135809483Y-121000154D01*
X135700528Y-120287321D02*
X136425575Y-120625415D01*
X135809483Y-121000154D02*
X135311011Y-120767715D01*
X135809483Y-121000154D02*
X135700528Y-120287321D01*
X135809483Y-121000154D02*
X136307948Y-121232596D01*
X136063051Y-120456368D02*
X136274360Y-120003215D01*
X136425575Y-120625415D02*
X135809483Y-121000154D01*
X277756441Y-144252570D02*
X278481488Y-143914476D01*
X278118965Y-144083523D02*
X277907655Y-143630370D01*
X278372532Y-144627310D02*
X277756441Y-144252570D01*
X278372532Y-144627310D02*
X277874066Y-144859750D01*
X278372532Y-144627310D02*
X278871005Y-144394870D01*
X278481488Y-143914476D02*
X278372532Y-144627310D01*
X278541583Y-144989832D02*
X278372532Y-144627310D01*
X160195032Y-111296802D02*
X160364081Y-110934279D01*
X160255126Y-110221446D02*
X160980173Y-110559540D01*
X160364081Y-110934279D02*
X159865609Y-110701840D01*
X160364081Y-110934279D02*
X160255126Y-110221446D01*
X160364081Y-110934279D02*
X160862546Y-111166721D01*
X160617649Y-110390493D02*
X160828958Y-109937340D01*
X160980173Y-110559540D02*
X160364081Y-110934279D01*
X153010517Y-126704035D02*
X153179566Y-126341512D01*
X153070611Y-125628679D02*
X153795658Y-125966773D01*
X153179566Y-126341512D02*
X152681094Y-126109073D01*
X153179566Y-126341512D02*
X153070611Y-125628679D01*
X153179566Y-126341512D02*
X153678031Y-126573954D01*
X153433134Y-125797726D02*
X153644443Y-125344573D01*
X153795658Y-125966773D02*
X153179566Y-126341512D01*
X121271408Y-152177147D02*
X121440457Y-151814624D01*
X121331502Y-151101791D02*
X122056549Y-151439885D01*
X121440457Y-151814624D02*
X120941985Y-151582185D01*
X121440457Y-151814624D02*
X121331502Y-151101791D01*
X121440457Y-151814624D02*
X121938922Y-152047066D01*
X121694025Y-151270838D02*
X121905334Y-150817685D01*
X122056549Y-151439885D02*
X121440457Y-151814624D01*
D11*
X236062663Y-119614754D02*
X235820815Y-120279216D01*
X237964445Y-123693140D02*
X237299980Y-123451293D01*
X238781584Y-118346899D02*
X236062663Y-119614754D01*
X239446049Y-118588742D02*
X238781584Y-118346899D01*
X239446049Y-118588742D02*
X239834854Y-119422547D01*
X240048952Y-122721117D02*
X237964445Y-123693140D01*
X240551255Y-119728442D02*
X244611513Y-117835113D01*
X242519435Y-123996542D02*
X242223601Y-123362125D01*
X244611513Y-117835113D02*
X244865084Y-118378897D01*
X246386509Y-121641604D02*
X246597820Y-122094759D01*
X246597820Y-122094759D02*
X242519435Y-123996542D01*
X240048952Y-122721117D02*
G75*
G02*
X242215151Y-123343998I771656J-1394550D01*
G01*
X240551255Y-119728442D02*
G75*
G02*
X239834857Y-119422546I-205251J511147D01*
G01*
X99627099Y-90280639D02*
X99385251Y-89616175D01*
X101528881Y-86202254D02*
X100864420Y-86444097D01*
X101711607Y-91252661D02*
X99627099Y-90280639D01*
X102322571Y-93964989D02*
X102618407Y-93330573D01*
X104247802Y-87470110D02*
X101528881Y-86202254D01*
X104327000Y-89713795D02*
X108387260Y-91607124D01*
X104489650Y-88134572D02*
X104100840Y-88968376D01*
X104489650Y-88134572D02*
X104247802Y-87470110D01*
X106400956Y-95866771D02*
X102322571Y-93964989D01*
X106612263Y-95413619D02*
X106400956Y-95866771D01*
X108387260Y-91607124D02*
X108133690Y-92150911D01*
X101711607Y-91252661D02*
G75*
G02*
X102626855Y-93312446I-572269J-1487517D01*
G01*
X104327000Y-89713795D02*
G75*
G02*
X104100839Y-88968375I259631J485791D01*
G01*
D10*
X122707841Y-106505086D02*
X122876890Y-106142563D01*
X122767935Y-105429730D02*
X123492982Y-105767824D01*
X122876890Y-106142563D02*
X122378418Y-105910124D01*
X122876890Y-106142563D02*
X122767935Y-105429730D01*
X122876890Y-106142563D02*
X123375355Y-106375005D01*
X123130458Y-105598777D02*
X123341767Y-105145624D01*
X123492982Y-105767824D02*
X122876890Y-106142563D01*
D11*
X295314698Y-161497886D02*
X295072850Y-162162348D01*
X297216480Y-165576272D02*
X296552015Y-165334425D01*
X298033619Y-160230031D02*
X295314698Y-161497886D01*
X298698084Y-160471874D02*
X298033619Y-160230031D01*
X298698084Y-160471874D02*
X299086889Y-161305679D01*
X299300987Y-164604249D02*
X297216480Y-165576272D01*
X299803290Y-161611574D02*
X303863548Y-159718245D01*
X301771470Y-165879674D02*
X301475636Y-165245257D01*
X303863548Y-159718245D02*
X304117119Y-160262029D01*
X305638544Y-163524736D02*
X305849855Y-163977891D01*
X305849855Y-163977891D02*
X301771470Y-165879674D01*
X299300987Y-164604249D02*
G75*
G02*
X301467186Y-165227130I771656J-1394550D01*
G01*
X299803290Y-161611574D02*
G75*
G02*
X299086892Y-161305678I-205251J511147D01*
G01*
D10*
X114086903Y-167584375D02*
X114255952Y-167221852D01*
X114146997Y-166509019D02*
X114872044Y-166847113D01*
X114255952Y-167221852D02*
X113757480Y-166989413D01*
X114255952Y-167221852D02*
X114146997Y-166509019D01*
X114255952Y-167221852D02*
X114754417Y-167454294D01*
X114509520Y-166678066D02*
X114720829Y-166224913D01*
X114872044Y-166847113D02*
X114255952Y-167221852D01*
X316131605Y-98773490D02*
X316856652Y-98435396D01*
X316494129Y-98604443D02*
X316282819Y-98151290D01*
X316747696Y-99148230D02*
X316131605Y-98773490D01*
X316747696Y-99148230D02*
X316249230Y-99380670D01*
X316747696Y-99148230D02*
X317246169Y-98915790D01*
X316856652Y-98435396D02*
X316747696Y-99148230D01*
X316916747Y-99510752D02*
X316747696Y-99148230D01*
D11*
X108756129Y-113295001D02*
X108514281Y-112630537D01*
X110657911Y-109216616D02*
X109993450Y-109458459D01*
X110840637Y-114267023D02*
X108756129Y-113295001D01*
X111451601Y-116979351D02*
X111747437Y-116344935D01*
X113376832Y-110484472D02*
X110657911Y-109216616D01*
X113456030Y-112728157D02*
X117516290Y-114621486D01*
X113618680Y-111148934D02*
X113229870Y-111982738D01*
X113618680Y-111148934D02*
X113376832Y-110484472D01*
X115529986Y-118881133D02*
X111451601Y-116979351D01*
X115741293Y-118427981D02*
X115529986Y-118881133D01*
X117516290Y-114621486D02*
X117262720Y-115165273D01*
X110840637Y-114267023D02*
G75*
G02*
X111755885Y-116326808I-572269J-1487517D01*
G01*
X113456030Y-112728157D02*
G75*
G02*
X113229869Y-111982737I259631J485791D01*
G01*
X291131256Y-109934835D02*
X290889408Y-110599297D01*
X293033038Y-114013221D02*
X292368573Y-113771374D01*
X293850177Y-108666980D02*
X291131256Y-109934835D01*
X294514642Y-108908823D02*
X293850177Y-108666980D01*
X294514642Y-108908823D02*
X294903447Y-109742628D01*
X295117545Y-113041198D02*
X293033038Y-114013221D01*
X295619848Y-110048523D02*
X299680106Y-108155194D01*
X297588028Y-114316623D02*
X297292194Y-113682206D01*
X299680106Y-108155194D02*
X299933677Y-108698978D01*
X301455102Y-111961685D02*
X301666413Y-112414840D01*
X301666413Y-112414840D02*
X297588028Y-114316623D01*
X295117545Y-113041198D02*
G75*
G02*
X297283744Y-113664079I771656J-1394550D01*
G01*
X295619848Y-110048523D02*
G75*
G02*
X294903450Y-109742627I-205251J511147D01*
G01*
D10*
X323316115Y-114180727D02*
X324041162Y-113842633D01*
X323678639Y-114011680D02*
X323467329Y-113558527D01*
X323932206Y-114555467D02*
X323316115Y-114180727D01*
X323932206Y-114555467D02*
X323433740Y-114787907D01*
X323932206Y-114555467D02*
X324430679Y-114323027D01*
X324041162Y-113842633D02*
X323932206Y-114555467D01*
X324101257Y-114917989D02*
X323932206Y-114555467D01*
D11*
X168684823Y-112552383D02*
X168442975Y-111887919D01*
X170586605Y-108473998D02*
X169922144Y-108715841D01*
X170769331Y-113524405D02*
X168684823Y-112552383D01*
X171380295Y-116236733D02*
X171676131Y-115602317D01*
X173305526Y-109741854D02*
X170586605Y-108473998D01*
X173384724Y-111985539D02*
X177444984Y-113878868D01*
X173547374Y-110406316D02*
X173158564Y-111240120D01*
X173547374Y-110406316D02*
X173305526Y-109741854D01*
X175458680Y-118138515D02*
X171380295Y-116236733D01*
X175669987Y-117685363D02*
X175458680Y-118138515D01*
X177444984Y-113878868D02*
X177191414Y-114422655D01*
X170769331Y-113524405D02*
G75*
G02*
X171684579Y-115584190I-572269J-1487517D01*
G01*
X173384724Y-111985539D02*
G75*
G02*
X173158563Y-111240119I259631J485791D01*
G01*
X288130189Y-146090654D02*
X287888341Y-146755116D01*
X290031971Y-150169040D02*
X289367506Y-149927193D01*
X290849110Y-144822799D02*
X288130189Y-146090654D01*
X291513575Y-145064642D02*
X290849110Y-144822799D01*
X291513575Y-145064642D02*
X291902380Y-145898447D01*
X292116478Y-149197017D02*
X290031971Y-150169040D01*
X292618781Y-146204342D02*
X296679039Y-144311013D01*
X294586961Y-150472442D02*
X294291127Y-149838025D01*
X296679039Y-144311013D02*
X296932610Y-144854797D01*
X298454035Y-148117504D02*
X298665346Y-148570659D01*
X298665346Y-148570659D02*
X294586961Y-150472442D01*
X292116478Y-149197017D02*
G75*
G02*
X294282677Y-149819898I771656J-1394550D01*
G01*
X292618781Y-146204342D02*
G75*
G02*
X291902383Y-145898446I-205251J511147D01*
G01*
X131874304Y-148901182D02*
X131632456Y-148236718D01*
X133776086Y-144822797D02*
X133111625Y-145064640D01*
X133958812Y-149873204D02*
X131874304Y-148901182D01*
X134569776Y-152585532D02*
X134865612Y-151951116D01*
X136495007Y-146090653D02*
X133776086Y-144822797D01*
X136574205Y-148334338D02*
X140634465Y-150227667D01*
X136736855Y-146755115D02*
X136348045Y-147588919D01*
X136736855Y-146755115D02*
X136495007Y-146090653D01*
X138648161Y-154487314D02*
X134569776Y-152585532D01*
X138859468Y-154034162D02*
X138648161Y-154487314D01*
X140634465Y-150227667D02*
X140380895Y-150771454D01*
X133958812Y-149873204D02*
G75*
G02*
X134874060Y-151932989I-572269J-1487517D01*
G01*
X136574205Y-148334338D02*
G75*
G02*
X136348044Y-147588918I259631J485791D01*
G01*
X334746409Y-118284574D02*
X334504561Y-118949036D01*
X336648191Y-122362960D02*
X335983726Y-122121113D01*
X337465330Y-117016719D02*
X334746409Y-118284574D01*
X338129795Y-117258562D02*
X337465330Y-117016719D01*
X338129795Y-117258562D02*
X338518600Y-118092367D01*
X338732698Y-121390937D02*
X336648191Y-122362960D01*
X339235001Y-118398262D02*
X343295259Y-116504933D01*
X341203181Y-122666362D02*
X340907347Y-122031945D01*
X343295259Y-116504933D02*
X343548830Y-117048717D01*
X345070255Y-120311424D02*
X345281566Y-120764579D01*
X345281566Y-120764579D02*
X341203181Y-122666362D01*
X338732698Y-121390937D02*
G75*
G02*
X340898897Y-122013818I771656J-1394550D01*
G01*
X339235001Y-118398262D02*
G75*
G02*
X338518603Y-118092366I-205251J511147D01*
G01*
D10*
X269683954Y-169532705D02*
X270409001Y-169194611D01*
X270046478Y-169363658D02*
X269835168Y-168910505D01*
X270300045Y-169907445D02*
X269683954Y-169532705D01*
X270300045Y-169907445D02*
X269801579Y-170139885D01*
X270300045Y-169907445D02*
X270798518Y-169675005D01*
X270409001Y-169194611D02*
X270300045Y-169907445D01*
X270469096Y-170269967D02*
X270300045Y-169907445D01*
D11*
X260760125Y-186976374D02*
X260797133Y-187682512D01*
X262767514Y-184746940D02*
X260760125Y-186976374D01*
X263473654Y-184709931D02*
X262767514Y-184746940D01*
X263473654Y-184709931D02*
X264157348Y-185325534D01*
X264104276Y-189987461D02*
X263398140Y-190024467D01*
X264936319Y-185327192D02*
X267934024Y-181997904D01*
X265643277Y-188278229D02*
X264104276Y-189987461D01*
X267934024Y-181997904D02*
X268379912Y-182399382D01*
X268415717Y-188486971D02*
X267895519Y-188018577D01*
X271055232Y-184808253D02*
X271426805Y-185142818D01*
X271426805Y-185142818D02*
X268415717Y-188486971D01*
X264936319Y-185327192D02*
G75*
G02*
X264157349Y-185325533I-388655J390316D01*
G01*
X265643277Y-188278229D02*
G75*
G02*
X267880655Y-188005197I1255205J-982171D01*
G01*
X305500273Y-140749298D02*
X305258425Y-141413760D01*
X307402055Y-144827684D02*
X306737590Y-144585837D01*
X308219194Y-139481443D02*
X305500273Y-140749298D01*
X308883659Y-139723286D02*
X308219194Y-139481443D01*
X308883659Y-139723286D02*
X309272464Y-140557091D01*
X309486562Y-143855661D02*
X307402055Y-144827684D01*
X309988865Y-140862986D02*
X314049123Y-138969657D01*
X311957045Y-145131086D02*
X311661211Y-144496669D01*
X314049123Y-138969657D02*
X314302694Y-139513441D01*
X315824119Y-142776148D02*
X316035430Y-143229303D01*
X316035430Y-143229303D02*
X311957045Y-145131086D01*
X309486562Y-143855661D02*
G75*
G02*
X311652761Y-144478542I771656J-1394550D01*
G01*
X309988865Y-140862986D02*
G75*
G02*
X309272467Y-140557090I-205251J511147D01*
G01*
D10*
X300197942Y-149786909D02*
X300922989Y-149448815D01*
X300560466Y-149617862D02*
X300349156Y-149164709D01*
X300814033Y-150161649D02*
X300197942Y-149786909D01*
X300814033Y-150161649D02*
X300315567Y-150394089D01*
X300814033Y-150161649D02*
X301312506Y-149929209D01*
X300922989Y-149448815D02*
X300814033Y-150161649D01*
X300983084Y-150524171D02*
X300814033Y-150161649D01*
X161083006Y-151984168D02*
X161252055Y-151621645D01*
X161143100Y-150908812D02*
X161868147Y-151246906D01*
X161252055Y-151621645D02*
X160753583Y-151389206D01*
X161252055Y-151621645D02*
X161143100Y-150908812D01*
X161252055Y-151621645D02*
X161750520Y-151854087D01*
X161505623Y-151077859D02*
X161716932Y-150624706D01*
X161868147Y-151246906D02*
X161252055Y-151621645D01*
X131456990Y-172925732D02*
X131626039Y-172563209D01*
X131517084Y-171850376D02*
X132242131Y-172188470D01*
X131626039Y-172563209D02*
X131127567Y-172330770D01*
X131626039Y-172563209D02*
X131517084Y-171850376D01*
X131626039Y-172563209D02*
X132124504Y-172795651D01*
X131879607Y-172019423D02*
X132090916Y-171566270D01*
X132242131Y-172188470D02*
X131626039Y-172563209D01*
X180148378Y-200449114D02*
X180803700Y-199990253D01*
X180476038Y-200219684D02*
X180189250Y-199810108D01*
X180803700Y-199990253D02*
X180820183Y-200711173D01*
X180820183Y-200711173D02*
X180148378Y-200449114D01*
X180820183Y-200711173D02*
X180369651Y-201026640D01*
X180820183Y-200711173D02*
X181270718Y-200395707D01*
X181049616Y-201038834D02*
X180820183Y-200711173D01*
X176340000Y-161857063D02*
X176509049Y-161494540D01*
X176400094Y-160781707D02*
X177125141Y-161119801D01*
X176509049Y-161494540D02*
X176010577Y-161262101D01*
X176509049Y-161494540D02*
X176400094Y-160781707D01*
X176509049Y-161494540D02*
X177007514Y-161726982D01*
X176762617Y-160950754D02*
X176973926Y-160497601D01*
X177125141Y-161119801D02*
X176509049Y-161494540D01*
X263387418Y-113438107D02*
X264112465Y-113100013D01*
X263749942Y-113269060D02*
X263538632Y-112815907D01*
X264003509Y-113812847D02*
X263387418Y-113438107D01*
X264003509Y-113812847D02*
X263505043Y-114045287D01*
X264003509Y-113812847D02*
X264501982Y-113580407D01*
X264112465Y-113100013D02*
X264003509Y-113812847D01*
X264172560Y-114175369D02*
X264003509Y-113812847D01*
D11*
X136057747Y-97338127D02*
X135815899Y-96673663D01*
X137959529Y-93259742D02*
X137295068Y-93501585D01*
X138142255Y-98310149D02*
X136057747Y-97338127D01*
X138753219Y-101022477D02*
X139049055Y-100388061D01*
X140678450Y-94527598D02*
X137959529Y-93259742D01*
X140757648Y-96771283D02*
X144817908Y-98664612D01*
X140920298Y-95192060D02*
X140531488Y-96025864D01*
X140920298Y-95192060D02*
X140678450Y-94527598D01*
X142831604Y-102924259D02*
X138753219Y-101022477D01*
X143042911Y-102471107D02*
X142831604Y-102924259D01*
X144817908Y-98664612D02*
X144564338Y-99208399D01*
X138142255Y-98310149D02*
G75*
G02*
X139057503Y-100369934I-572269J-1487517D01*
G01*
X140757648Y-96771283D02*
G75*
G02*
X140531487Y-96025863I259631J485791D01*
G01*
D10*
X303199009Y-113631086D02*
X303924056Y-113292992D01*
X303561533Y-113462039D02*
X303350223Y-113008886D01*
X303815100Y-114005826D02*
X303199009Y-113631086D01*
X303815100Y-114005826D02*
X303316634Y-114238266D01*
X303815100Y-114005826D02*
X304313573Y-113773386D01*
X303924056Y-113292992D02*
X303815100Y-114005826D01*
X303984151Y-114368348D02*
X303815100Y-114005826D01*
D11*
X167622107Y-198904559D02*
X167499316Y-199600925D01*
X170079564Y-197183830D02*
X167622107Y-198904559D01*
X170203199Y-202590744D02*
X169506837Y-202467956D01*
X170775926Y-197306617D02*
X170079564Y-197183830D01*
X170775926Y-197306617D02*
X171303616Y-198060239D01*
X172062249Y-198237087D02*
X175732050Y-195667464D01*
X172087249Y-201271518D02*
X170203199Y-202590744D01*
X174741676Y-202098572D02*
X174340174Y-201525166D01*
X175732050Y-195667464D02*
X176076197Y-196158954D01*
X178141068Y-199107904D02*
X178427861Y-199517476D01*
X178427861Y-199517476D02*
X174741676Y-202098572D01*
X172062249Y-198237087D02*
G75*
G02*
X171303616Y-198060239I-290892J467741D01*
G01*
X172087249Y-201271518D02*
G75*
G02*
X174328701Y-201508784I1002093J-1239359D01*
G01*
D10*
X262499448Y-154125470D02*
X263224495Y-153787376D01*
X262861972Y-153956423D02*
X262650662Y-153503270D01*
X263115539Y-154500210D02*
X262499448Y-154125470D01*
X263115539Y-154500210D02*
X262617073Y-154732650D01*
X263115539Y-154500210D02*
X263614012Y-154267770D01*
X263224495Y-153787376D02*
X263115539Y-154500210D01*
X263284590Y-154862732D02*
X263115539Y-154500210D01*
X293013433Y-134379677D02*
X293738480Y-134041583D01*
X293375957Y-134210630D02*
X293164647Y-133757477D01*
X293629524Y-134754417D02*
X293013433Y-134379677D01*
X293629524Y-134754417D02*
X293131058Y-134986857D01*
X293629524Y-134754417D02*
X294127997Y-134521977D01*
X293738480Y-134041583D02*
X293629524Y-134754417D01*
X293798575Y-135116939D02*
X293629524Y-134754417D01*
D11*
X115940642Y-97887768D02*
X115698794Y-97223304D01*
X117842424Y-93809383D02*
X117177963Y-94051226D01*
X118025150Y-98859790D02*
X115940642Y-97887768D01*
X118636114Y-101572118D02*
X118931950Y-100937702D01*
X120561345Y-95077239D02*
X117842424Y-93809383D01*
X120640543Y-97320924D02*
X124700803Y-99214253D01*
X120803193Y-95741701D02*
X120414383Y-96575505D01*
X120803193Y-95741701D02*
X120561345Y-95077239D01*
X122714499Y-103473900D02*
X118636114Y-101572118D01*
X122925806Y-103020748D02*
X122714499Y-103473900D01*
X124700803Y-99214253D02*
X124447233Y-99758040D01*
X118025150Y-98859790D02*
G75*
G02*
X118940398Y-100919575I-572269J-1487517D01*
G01*
X120640543Y-97320924D02*
G75*
G02*
X120414382Y-96575504I259631J485791D01*
G01*
D10*
X92025278Y-129712422D02*
X92194327Y-129349899D01*
X92085372Y-128637066D02*
X92810419Y-128975160D01*
X92194327Y-129349899D02*
X91695855Y-129117460D01*
X92194327Y-129349899D02*
X92085372Y-128637066D01*
X92194327Y-129349899D02*
X92692792Y-129582341D01*
X92447895Y-128806113D02*
X92659204Y-128352960D01*
X92810419Y-128975160D02*
X92194327Y-129349899D01*
D11*
X272873192Y-155963550D02*
X272631344Y-156628012D01*
X274774974Y-160041936D02*
X274110509Y-159800089D01*
X275592113Y-154695695D02*
X272873192Y-155963550D01*
X276256578Y-154937538D02*
X275592113Y-154695695D01*
X276256578Y-154937538D02*
X276645383Y-155771343D01*
X276859481Y-159069913D02*
X274774974Y-160041936D01*
X277361784Y-156077238D02*
X281422042Y-154183909D01*
X279329964Y-160345338D02*
X279034130Y-159710921D01*
X281422042Y-154183909D02*
X281675613Y-154727693D01*
X283197038Y-157990400D02*
X283408349Y-158443555D01*
X283408349Y-158443555D02*
X279329964Y-160345338D01*
X276859481Y-159069913D02*
G75*
G02*
X279025680Y-159692794I771656J-1394550D01*
G01*
X277361784Y-156077238D02*
G75*
G02*
X276645386Y-155771342I-205251J511147D01*
G01*
D10*
X324752538Y-159852780D02*
X325477585Y-159514686D01*
X325115062Y-159683733D02*
X324903752Y-159230580D01*
X325368629Y-160227520D02*
X324752538Y-159852780D01*
X325368629Y-160227520D02*
X324870163Y-160459960D01*
X325368629Y-160227520D02*
X325867102Y-159995080D01*
X325477585Y-159514686D02*
X325368629Y-160227520D01*
X325537680Y-160590042D02*
X325368629Y-160227520D01*
X101154311Y-152726784D02*
X101323360Y-152364261D01*
X101214405Y-151651428D02*
X101939452Y-151989522D01*
X101323360Y-152364261D02*
X100824888Y-152131822D01*
X101323360Y-152364261D02*
X101214405Y-151651428D01*
X101323360Y-152364261D02*
X101821825Y-152596703D01*
X101576928Y-151820475D02*
X101788237Y-151367322D01*
X101939452Y-151989522D02*
X101323360Y-152364261D01*
X183524508Y-146449828D02*
X183693557Y-146087305D01*
X183584602Y-145374472D02*
X184309649Y-145712566D01*
X183693557Y-146087305D02*
X183195085Y-145854866D01*
X183693557Y-146087305D02*
X183584602Y-145374472D01*
X183693557Y-146087305D02*
X184192022Y-146319747D01*
X183947125Y-145543519D02*
X184158434Y-145090366D01*
X184309649Y-145712566D02*
X183693557Y-146087305D01*
D11*
X146243325Y-118086722D02*
X146001477Y-117422258D01*
X148145107Y-114008337D02*
X147480646Y-114250180D01*
X148327833Y-119058744D02*
X146243325Y-118086722D01*
X148938797Y-121771072D02*
X149234633Y-121136656D01*
X150864028Y-115276193D02*
X148145107Y-114008337D01*
X150943226Y-117519878D02*
X155003486Y-119413207D01*
X151105876Y-115940655D02*
X150717066Y-116774459D01*
X151105876Y-115940655D02*
X150864028Y-115276193D01*
X153017182Y-123672854D02*
X148938797Y-121771072D01*
X153228489Y-123219702D02*
X153017182Y-123672854D01*
X155003486Y-119413207D02*
X154749916Y-119956994D01*
X148327833Y-119058744D02*
G75*
G02*
X149243081Y-121118529I-572269J-1487517D01*
G01*
X150943226Y-117519878D02*
G75*
G02*
X150717065Y-116774458I259631J485791D01*
G01*
D10*
X106394302Y-98897962D02*
X106563351Y-98535439D01*
X106454396Y-97822606D02*
X107179443Y-98160700D01*
X106563351Y-98535439D02*
X106064879Y-98303000D01*
X106563351Y-98535439D02*
X106454396Y-97822606D01*
X106563351Y-98535439D02*
X107061816Y-98767881D01*
X106816919Y-97991653D02*
X107028228Y-97538500D01*
X107179443Y-98160700D02*
X106563351Y-98535439D01*
D11*
X273761167Y-115276189D02*
X273519319Y-115940651D01*
X275662949Y-119354575D02*
X274998484Y-119112728D01*
X276480088Y-114008334D02*
X273761167Y-115276189D01*
X277144553Y-114250177D02*
X276480088Y-114008334D01*
X277144553Y-114250177D02*
X277533358Y-115083982D01*
X277747456Y-118382552D02*
X275662949Y-119354575D01*
X278249759Y-115389877D02*
X282310017Y-113496548D01*
X280217939Y-119657977D02*
X279922105Y-119023560D01*
X282310017Y-113496548D02*
X282563588Y-114040332D01*
X284085013Y-117303039D02*
X284296324Y-117756194D01*
X284296324Y-117756194D02*
X280217939Y-119657977D01*
X277747456Y-118382552D02*
G75*
G02*
X279913655Y-119005433I771656J-1394550D01*
G01*
X278249759Y-115389877D02*
G75*
G02*
X277533361Y-115083981I-205251J511147D01*
G01*
X176757307Y-137832513D02*
X176515459Y-137168049D01*
X178659089Y-133754128D02*
X177994628Y-133995971D01*
X178841815Y-138804535D02*
X176757307Y-137832513D01*
X179452779Y-141516863D02*
X179748615Y-140882447D01*
X181378010Y-135021984D02*
X178659089Y-133754128D01*
X181457208Y-137265669D02*
X185517468Y-139158998D01*
X181619858Y-135686446D02*
X181231048Y-136520250D01*
X181619858Y-135686446D02*
X181378010Y-135021984D01*
X183531164Y-143418645D02*
X179452779Y-141516863D01*
X183742471Y-142965493D02*
X183531164Y-143418645D01*
X185517468Y-139158998D02*
X185263898Y-139702785D01*
X178841815Y-138804535D02*
G75*
G02*
X179757063Y-140864320I-572269J-1487517D01*
G01*
X181457208Y-137265669D02*
G75*
G02*
X181231047Y-136520249I259631J485791D01*
G01*
X114504217Y-143559824D02*
X114262369Y-142895360D01*
X116405999Y-139481439D02*
X115741538Y-139723282D01*
X116588725Y-144531846D02*
X114504217Y-143559824D01*
X117199689Y-147244174D02*
X117495525Y-146609758D01*
X119124920Y-140749295D02*
X116405999Y-139481439D01*
X119204118Y-142992980D02*
X123264378Y-144886309D01*
X119366768Y-141413757D02*
X118977958Y-142247561D01*
X119366768Y-141413757D02*
X119124920Y-140749295D01*
X121278074Y-149145956D02*
X117199689Y-147244174D01*
X121489381Y-148692804D02*
X121278074Y-149145956D01*
X123264378Y-144886309D02*
X123010808Y-145430096D01*
X116588725Y-144531846D02*
G75*
G02*
X117503973Y-146591631I-572269J-1487517D01*
G01*
X119204118Y-142992980D02*
G75*
G02*
X118977957Y-142247560I259631J485791D01*
G01*
X311248354Y-110484472D02*
X311006506Y-111148934D01*
X313150136Y-114562858D02*
X312485671Y-114321011D01*
X313967275Y-109216617D02*
X311248354Y-110484472D01*
X314631740Y-109458460D02*
X313967275Y-109216617D01*
X314631740Y-109458460D02*
X315020545Y-110292265D01*
X315234643Y-113590835D02*
X313150136Y-114562858D01*
X315736946Y-110598160D02*
X319797204Y-108704831D01*
X317705126Y-114866260D02*
X317409292Y-114231843D01*
X319797204Y-108704831D02*
X320050775Y-109248615D01*
X321572200Y-112511322D02*
X321783511Y-112964477D01*
X321783511Y-112964477D02*
X317705126Y-114866260D01*
X315234643Y-113590835D02*
G75*
G02*
X317400842Y-114213716I771656J-1394550D01*
G01*
X315736946Y-110598160D02*
G75*
G02*
X315020548Y-110292264I-205251J511147D01*
G01*
X162388285Y-168646980D02*
X162146437Y-167982516D01*
X164290067Y-164568595D02*
X163625606Y-164810438D01*
X164472793Y-169619002D02*
X162388285Y-168646980D01*
X165083757Y-172331330D02*
X165379593Y-171696914D01*
X167008988Y-165836451D02*
X164290067Y-164568595D01*
X167088186Y-168080136D02*
X171148446Y-169973465D01*
X167250836Y-166500913D02*
X166862026Y-167334717D01*
X167250836Y-166500913D02*
X167008988Y-165836451D01*
X169162142Y-174233112D02*
X165083757Y-172331330D01*
X169373449Y-173779960D02*
X169162142Y-174233112D01*
X171148446Y-169973465D02*
X170894876Y-170517252D01*
X164472793Y-169619002D02*
G75*
G02*
X165388041Y-171678787I-572269J-1487517D01*
G01*
X167088186Y-168080136D02*
G75*
G02*
X166862025Y-167334716I259631J485791D01*
G01*
D10*
X84840769Y-145119657D02*
X85009818Y-144757134D01*
X84900863Y-144044301D02*
X85625910Y-144382395D01*
X85009818Y-144757134D02*
X84511346Y-144524695D01*
X85009818Y-144757134D02*
X84900863Y-144044301D01*
X85009818Y-144757134D02*
X85508283Y-144989576D01*
X85263386Y-144213348D02*
X85474695Y-143760195D01*
X85625910Y-144382395D02*
X85009818Y-144757134D01*
D11*
X158513526Y-187758027D02*
X158550531Y-187051888D01*
X159555128Y-192202693D02*
X160075330Y-191734300D01*
X160052525Y-189467260D02*
X158513526Y-187758027D01*
X161857680Y-184746939D02*
X161151541Y-184709931D01*
X162566217Y-195546845D02*
X159555128Y-192202693D01*
X162937791Y-195212280D02*
X162566217Y-195546845D01*
X163061295Y-189072641D02*
X166058998Y-192401932D01*
X163828062Y-187682513D02*
X163144370Y-188298110D01*
X163828062Y-187682513D02*
X163865069Y-186976374D01*
X163865069Y-186976374D02*
X161857680Y-184746939D01*
X166058998Y-192401932D02*
X165613112Y-192803409D01*
X160052525Y-189467260D02*
G75*
G02*
X160090194Y-191720919I-1107988J-1145664D01*
G01*
X163061295Y-189072641D02*
G75*
G02*
X163144372Y-188298112I428802J345726D01*
G01*
%LPC*%
D12*
X272694739Y-177231620D03*
X272639655Y-175969968D03*
X273625817Y-178084794D03*
X274887469Y-178029710D03*
D13*
X274190149Y-176534300D03*
D12*
X273492829Y-175038890D03*
X274754481Y-174983806D03*
X275740643Y-177098632D03*
X275685559Y-175836980D03*
D14*
X219932598Y-141892014D03*
X219932597Y-144432014D03*
X219932599Y-146972014D03*
X219932598Y-149512014D03*
X219932598Y-152052016D03*
X219932598Y-154592014D03*
X219932595Y-157132013D03*
X219932598Y-159672016D03*
X219932599Y-162212015D03*
X219932599Y-164752015D03*
X219932598Y-167292015D03*
X219932598Y-169832017D03*
X219932598Y-172372014D03*
X204692598Y-172372016D03*
X204692599Y-169832016D03*
X204692597Y-167292016D03*
X204692598Y-164752016D03*
X204692598Y-162212014D03*
X204692598Y-159672016D03*
X204692601Y-157132017D03*
X204692598Y-154592014D03*
X204692597Y-152052015D03*
X204692597Y-149512015D03*
X204692598Y-146972015D03*
X204692598Y-144432013D03*
X204692598Y-141892016D03*
X209062591Y-177227013D03*
X215562591Y-177227017D03*
D12*
X319142390Y-106472409D03*
X319087306Y-105210757D03*
X320073468Y-107325583D03*
X321335120Y-107270499D03*
D13*
X320637800Y-105775089D03*
D12*
X319940480Y-104279679D03*
X321202132Y-104224595D03*
X322188294Y-106339421D03*
X322133210Y-105077769D03*
X102491981Y-105077766D03*
X102436898Y-106339418D03*
X103423059Y-104224593D03*
X104684711Y-104279676D03*
D13*
X103987391Y-105775086D03*
D12*
X103290071Y-107270496D03*
X104551723Y-107325579D03*
X105537884Y-105210754D03*
X105482801Y-106472406D03*
X149996175Y-173571213D03*
X149941092Y-174832865D03*
X150927253Y-172718040D03*
X152188905Y-172773123D03*
D13*
X151491585Y-174268533D03*
D12*
X150794265Y-175763943D03*
X152055917Y-175819026D03*
X153042078Y-173704201D03*
X152986995Y-174965853D03*
X88122959Y-135892232D03*
X88067876Y-137153884D03*
X89054037Y-135039059D03*
X90315689Y-135094142D03*
D13*
X89618369Y-136589552D03*
D12*
X88921049Y-138084962D03*
X90182701Y-138140045D03*
X91168862Y-136025220D03*
X91113779Y-137286872D03*
X171549704Y-127349515D03*
X171494621Y-128611167D03*
X172480782Y-126496342D03*
X173742434Y-126551425D03*
D13*
X173045114Y-128046835D03*
D12*
X172347794Y-129542245D03*
X173609446Y-129597328D03*
X174595607Y-127482503D03*
X174540524Y-128744155D03*
X251141208Y-131009920D03*
X251086124Y-129748268D03*
X252072286Y-131863094D03*
X253333938Y-131808010D03*
D13*
X252636618Y-130312600D03*
D12*
X251939298Y-128817190D03*
X253200950Y-128762106D03*
X254187112Y-130876932D03*
X254132028Y-129615280D03*
X333511411Y-137286872D03*
X333456327Y-136025220D03*
X334442489Y-138140046D03*
X335704141Y-138084962D03*
D13*
X335006821Y-136589552D03*
D12*
X334309501Y-135094142D03*
X335571153Y-135039058D03*
X336557315Y-137153884D03*
X336502231Y-135892232D03*
D15*
X258344402Y-134271279D03*
D16*
X260814517Y-126554351D03*
D17*
X263329095Y-131946881D03*
D16*
X266275815Y-126435135D03*
D15*
X268313788Y-129622483D03*
D18*
X257846357Y-127938426D03*
X269243974Y-125051062D03*
D19*
X293290956Y-176619976D03*
X291896316Y-173629156D03*
X347979662Y-123533766D03*
X346585022Y-120542946D03*
X286106447Y-161212747D03*
X284711807Y-158221927D03*
D15*
X325457611Y-150421126D03*
D16*
X327927726Y-142704198D03*
D17*
X330442304Y-148096728D03*
D16*
X333389024Y-142584982D03*
D15*
X335426997Y-145772330D03*
D18*
X324959566Y-144088273D03*
X336357183Y-141200909D03*
D15*
X283786976Y-103649793D03*
D16*
X286257091Y-95932865D03*
D17*
X288771669Y-101325395D03*
D16*
X291718389Y-95813649D03*
D15*
X293756362Y-99000997D03*
D18*
X283288931Y-97316940D03*
X294686548Y-94429576D03*
D20*
X138261142Y-158334178D03*
X139655782Y-155343358D03*
D15*
X265528918Y-149678512D03*
D16*
X267999033Y-141961584D03*
D17*
X270513611Y-147354114D03*
D16*
X273460331Y-141842368D03*
D15*
X275498304Y-145029716D03*
D18*
X265030873Y-143345659D03*
X276428490Y-140458295D03*
D15*
X243087410Y-144144178D03*
D16*
X245557525Y-136427250D03*
D17*
X248072103Y-141819780D03*
D16*
X251018823Y-136308034D03*
D15*
X253056796Y-139495382D03*
D18*
X242589365Y-137811325D03*
X253986982Y-134923961D03*
D15*
X164383877Y-154902615D03*
D16*
X171883148Y-151834483D03*
D17*
X169368570Y-157227013D03*
D16*
X175484927Y-155941451D03*
D15*
X174353263Y-159551411D03*
D21*
X168914991Y-150450408D03*
X178453086Y-157325526D03*
D19*
X286994421Y-120525385D03*
X285599781Y-117534565D03*
X308547950Y-166747080D03*
X307153310Y-163756260D03*
D15*
X266416893Y-108991151D03*
D16*
X268887008Y-101274223D03*
D17*
X271401586Y-106666753D03*
D16*
X274348306Y-101155007D03*
D15*
X276386279Y-104342355D03*
D18*
X265918848Y-102658298D03*
X277316465Y-99770934D03*
D20*
X146333625Y-183614312D03*
X147728265Y-180623492D03*
D15*
X102130787Y-160629924D03*
D16*
X109630058Y-157561792D03*
D17*
X107115480Y-162954322D03*
D16*
X113231837Y-161668760D03*
D15*
X112100173Y-165278720D03*
D21*
X106661901Y-156177717D03*
X116199996Y-163052835D03*
D15*
X312525020Y-165278722D03*
D16*
X314995135Y-157561794D03*
D17*
X317509713Y-162954324D03*
D16*
X320456433Y-157442578D03*
D15*
X322494406Y-160629926D03*
D18*
X312026975Y-158945869D03*
X323424592Y-156058505D03*
D15*
X148238911Y-104342355D03*
D16*
X155738182Y-101274223D03*
D17*
X153223604Y-106666753D03*
D16*
X159339961Y-105381191D03*
D15*
X158208297Y-108991151D03*
D21*
X152770025Y-99890148D03*
X162308120Y-106765266D03*
D15*
X178752902Y-124088156D03*
D16*
X186252173Y-121020024D03*
D17*
X183737595Y-126412554D03*
D16*
X189853952Y-125126992D03*
D15*
X188722288Y-128736952D03*
D21*
X183284016Y-119635949D03*
X192822111Y-126511067D03*
D19*
X355164175Y-138940999D03*
X353769535Y-135950179D03*
X338850635Y-146548130D03*
X337455995Y-143557310D03*
D15*
X298155999Y-134464253D03*
D16*
X300626114Y-126747325D03*
D17*
X303140692Y-132139855D03*
D16*
X306087412Y-126628109D03*
D15*
X308125385Y-129815457D03*
D18*
X297657954Y-128131400D03*
X309055571Y-125244036D03*
D15*
X80069157Y-122757975D03*
D16*
X87568428Y-119689843D03*
D17*
X85053850Y-125082373D03*
D16*
X91170207Y-123796811D03*
D15*
X90038543Y-127406771D03*
D21*
X84600271Y-118305768D03*
X94138366Y-125180886D03*
D15*
X116499809Y-129815456D03*
D16*
X123999080Y-126747324D03*
D17*
X121484502Y-132139854D03*
D16*
X127600859Y-130854292D03*
D15*
X126469195Y-134464252D03*
D21*
X121030923Y-125363249D03*
X130569018Y-132238367D03*
D15*
X280785908Y-139805618D03*
D16*
X283256023Y-132088690D03*
D17*
X285770601Y-137481220D03*
D16*
X288717321Y-131969474D03*
D15*
X290755294Y-135156822D03*
D18*
X280287863Y-133472765D03*
X291685480Y-130585401D03*
D20*
X153518143Y-168207080D03*
X154912783Y-165216260D03*
D15*
X251159895Y-118864050D03*
D16*
X253630010Y-111147122D03*
D17*
X256144588Y-116539652D03*
D16*
X259091308Y-111027906D03*
D15*
X261129281Y-114215254D03*
D18*
X250661850Y-112531197D03*
X262059467Y-109643833D03*
D15*
X133869887Y-135156822D03*
D16*
X141369158Y-132088690D03*
D17*
X138854580Y-137481220D03*
D16*
X144970937Y-136195658D03*
D15*
X143839273Y-139805618D03*
D21*
X138401001Y-130704615D03*
X147939096Y-137579733D03*
D20*
X107958464Y-138135230D03*
X109353104Y-135144410D03*
D15*
X119500872Y-165971285D03*
D16*
X127000143Y-162903153D03*
D17*
X124485565Y-168295683D03*
D16*
X130601922Y-167010121D03*
D15*
X129470258Y-170620081D03*
D21*
X124031986Y-161519078D03*
X133570081Y-168394196D03*
D15*
X89198189Y-145772334D03*
D16*
X96697460Y-142704202D03*
D17*
X94182882Y-148096732D03*
D16*
X100299239Y-146811170D03*
D15*
X99167575Y-150421130D03*
D21*
X93729303Y-141320127D03*
X103267398Y-148195245D03*
D20*
X142444587Y-106771126D03*
X143839227Y-103780306D03*
X128075564Y-137585591D03*
X129470204Y-134594771D03*
D15*
X123684319Y-114408226D03*
D16*
X131183590Y-111340094D03*
D17*
X128669012Y-116732624D03*
D16*
X134785369Y-115447062D03*
D15*
X133653705Y-119057022D03*
D21*
X128215433Y-109956019D03*
X137753528Y-116831137D03*
D15*
X72884652Y-138165202D03*
D16*
X80383923Y-135097070D03*
D17*
X77869345Y-140489600D03*
D16*
X83985702Y-139204038D03*
D15*
X82854038Y-142813998D03*
D21*
X77415766Y-133712995D03*
X86953861Y-140588113D03*
D19*
X297179992Y-99776789D03*
X295785352Y-96785969D03*
D20*
X145445652Y-142926950D03*
X146840292Y-139936130D03*
X167887160Y-137392610D03*
X169281800Y-134401790D03*
X168775133Y-178079974D03*
X170169773Y-175089154D03*
X190328665Y-131858280D03*
X191723305Y-128867460D03*
D15*
X134757869Y-175844185D03*
D16*
X142257140Y-172776053D03*
D17*
X139742562Y-178168583D03*
D16*
X145858919Y-176883021D03*
D15*
X144727255Y-180492981D03*
D21*
X139288983Y-171391978D03*
X148827078Y-178267096D03*
D19*
X279809910Y-105118152D03*
X278415270Y-102127332D03*
D15*
X149126885Y-145029719D03*
D16*
X156626156Y-141961587D03*
D17*
X154111578Y-147354117D03*
D16*
X160227935Y-146068555D03*
D15*
X159096271Y-149678515D03*
D21*
X153657999Y-140577512D03*
X163196094Y-147452630D03*
D15*
X87253674Y-107350741D03*
D16*
X94752945Y-104282609D03*
D17*
X92238367Y-109675139D03*
D16*
X98354724Y-108389577D03*
D15*
X97223060Y-111999537D03*
D21*
X91784788Y-102898534D03*
X101322883Y-109773652D03*
D15*
X141942378Y-160436956D03*
D16*
X149441649Y-157368824D03*
D17*
X146927071Y-162761354D03*
D16*
X153043428Y-161475792D03*
D15*
X151911764Y-165085752D03*
D21*
X146473492Y-155984749D03*
X156011587Y-162859867D03*
D19*
X340795151Y-108126541D03*
X339400511Y-105135721D03*
X249295924Y-124863948D03*
X247901284Y-121873128D03*
X333610642Y-92719305D03*
X332216002Y-89728485D03*
D22*
X274992429Y-186637637D03*
X272540049Y-184429505D03*
D15*
X257456431Y-174958643D03*
D16*
X259926546Y-167241715D03*
D17*
X262441124Y-172634245D03*
D16*
X265387844Y-167122499D03*
D15*
X267425817Y-170309847D03*
D18*
X256958386Y-168625790D03*
X268356003Y-165738426D03*
D15*
X341771151Y-142814006D03*
D16*
X344241266Y-135097078D03*
D17*
X346755844Y-140489608D03*
D16*
X349702564Y-134977862D03*
D15*
X351740537Y-138165210D03*
D18*
X341273106Y-136481153D03*
X352670723Y-133593789D03*
D15*
X320217625Y-96592305D03*
D16*
X322687740Y-88875377D03*
D17*
X325202318Y-94267907D03*
D16*
X328149038Y-88756161D03*
D15*
X330187011Y-91943509D03*
D18*
X319719580Y-90259452D03*
X331117197Y-87372088D03*
D15*
X156311397Y-129622483D03*
D16*
X163810668Y-126554351D03*
D17*
X161296090Y-131946881D03*
D16*
X167412447Y-130661319D03*
D15*
X166280783Y-134271279D03*
D21*
X160842511Y-125170276D03*
X170380606Y-132045394D03*
D19*
X271737429Y-130398279D03*
X270342789Y-127407459D03*
X331666121Y-131140898D03*
X330271481Y-128150078D03*
D15*
X327402131Y-111999541D03*
D16*
X329872246Y-104282613D03*
D17*
X332386824Y-109675143D03*
D16*
X335333544Y-104163397D03*
D15*
X337371517Y-107350745D03*
D18*
X326904086Y-105666688D03*
X338301703Y-102779324D03*
D15*
X279897944Y-180492977D03*
D16*
X282368059Y-172776049D03*
D17*
X284882637Y-178168579D03*
D16*
X287829357Y-172656833D03*
D15*
X289867330Y-175844181D03*
D18*
X279399899Y-174160124D03*
X290797516Y-171272760D03*
D15*
X318273107Y-135013898D03*
D16*
X320743222Y-127296970D03*
D17*
X323257800Y-132689500D03*
D16*
X326204520Y-127177754D03*
D15*
X328242493Y-130365102D03*
D18*
X317775062Y-128681045D03*
X329172679Y-125793681D03*
D23*
X256616324Y-211268761D03*
X258509126Y-208565561D03*
D15*
X96382703Y-130365102D03*
D16*
X103881974Y-127296970D03*
D17*
X101367396Y-132689500D03*
D16*
X107483753Y-131403938D03*
D15*
X106352089Y-135013898D03*
D21*
X100913817Y-125912895D03*
X110451912Y-132788013D03*
D20*
X115142979Y-122727999D03*
X116537619Y-119737179D03*
X98829435Y-115120868D03*
X100224075Y-112130048D03*
D19*
X256480429Y-140271180D03*
X255085789Y-137280360D03*
D24*
X160706879Y-198936684D03*
X163159261Y-196728552D03*
D15*
X303904082Y-104199431D03*
D16*
X306374197Y-96482503D03*
D17*
X308888775Y-101875033D03*
D16*
X311835495Y-96363287D03*
D15*
X313873468Y-99550635D03*
D18*
X303406037Y-97866578D03*
X314803654Y-94979214D03*
D19*
X311549015Y-130591255D03*
X310154375Y-127600435D03*
X318733530Y-145998490D03*
X317338890Y-143007670D03*
D20*
X175071672Y-121985379D03*
X176466312Y-118994559D03*
D15*
X246565698Y-201606569D03*
D16*
X254483813Y-199887282D03*
D17*
X251071033Y-204761238D03*
D16*
X257317704Y-204557299D03*
D15*
X255576368Y-207915907D03*
D25*
X251801091Y-198008821D03*
X260000426Y-206435763D03*
D15*
X250271925Y-159551413D03*
D16*
X252742040Y-151834485D03*
D17*
X255256618Y-157227015D03*
D16*
X258203338Y-151715269D03*
D15*
X260241311Y-154902617D03*
D18*
X249773880Y-153218560D03*
X261171497Y-150331196D03*
D20*
X135260077Y-122178356D03*
X136654717Y-119187536D03*
D19*
X278921939Y-145805511D03*
X277527299Y-142814691D03*
D20*
X159814675Y-112112481D03*
X161209315Y-109121661D03*
X152630160Y-127519714D03*
X154024800Y-124528894D03*
X120891051Y-152992826D03*
X122285691Y-150002006D03*
D15*
X235902899Y-128736947D03*
D16*
X238373014Y-121020019D03*
D17*
X240887592Y-126412549D03*
D16*
X243834312Y-120900803D03*
D15*
X245872285Y-124088151D03*
D18*
X235404854Y-122404094D03*
X246802471Y-119516730D03*
D15*
X94438180Y-91943507D03*
D16*
X101937451Y-88875375D03*
D17*
X99422873Y-94267905D03*
D16*
X105539230Y-92982343D03*
D15*
X104407566Y-96592303D03*
D21*
X98969294Y-87491300D03*
X108507389Y-94366418D03*
D20*
X122327484Y-107320765D03*
X123722124Y-104329945D03*
D15*
X295154934Y-170620079D03*
D16*
X297625049Y-162903151D03*
D17*
X300139627Y-168295681D03*
D16*
X303086347Y-162783935D03*
D15*
X305124320Y-165971283D03*
D18*
X294656889Y-164287226D03*
X306054506Y-161399862D03*
D20*
X113706546Y-168400054D03*
X115101186Y-165409234D03*
D19*
X317297103Y-100326431D03*
X315902463Y-97335611D03*
D15*
X103567210Y-114957869D03*
D16*
X111066481Y-111889737D03*
D17*
X108551903Y-117282267D03*
D16*
X114668260Y-115996705D03*
D15*
X113536596Y-119606665D03*
D21*
X108098324Y-110505662D03*
X117636419Y-117380780D03*
D15*
X290971492Y-119057028D03*
D16*
X293441607Y-111340100D03*
D17*
X295956185Y-116732630D03*
D16*
X298902905Y-111220884D03*
D15*
X300940878Y-114408232D03*
D18*
X290473447Y-112724175D03*
X301871064Y-109836811D03*
D19*
X324481613Y-115733668D03*
X323086973Y-112742848D03*
D15*
X163495904Y-114215251D03*
D16*
X170995175Y-111147119D03*
D17*
X168480597Y-116539649D03*
D16*
X174596954Y-115254087D03*
D15*
X173465290Y-118864047D03*
D21*
X168027018Y-109763044D03*
X177565113Y-116638162D03*
D15*
X287970425Y-155212847D03*
D16*
X290440540Y-147495919D03*
D17*
X292955118Y-152888449D03*
D16*
X295901838Y-147376703D03*
D15*
X297939811Y-150564051D03*
D18*
X287472380Y-148879994D03*
X298869997Y-145992630D03*
D15*
X126685385Y-150564050D03*
D16*
X134184656Y-147495918D03*
D17*
X131670078Y-152888448D03*
D16*
X137786435Y-151602886D03*
D15*
X136654771Y-155212846D03*
D21*
X131216499Y-146111843D03*
X140754594Y-152986961D03*
D15*
X334586645Y-127406767D03*
D16*
X337056760Y-119689839D03*
D17*
X339571338Y-125082369D03*
D16*
X342518058Y-119570623D03*
D15*
X344556031Y-122757971D03*
D18*
X334088600Y-121073914D03*
X345486217Y-118186550D03*
D19*
X270849452Y-171085646D03*
X269454812Y-168094826D03*
D15*
X264177389Y-195435823D03*
D16*
X263435897Y-187367201D03*
D17*
X267857609Y-191348527D03*
D16*
X268416468Y-185123565D03*
D15*
X271537829Y-187261231D03*
D26*
X261244492Y-189801000D03*
X270607873Y-182689764D03*
D15*
X305340509Y-149871491D03*
D16*
X307810624Y-142154563D03*
D17*
X310325202Y-147547093D03*
D16*
X313271922Y-142035347D03*
D15*
X315309895Y-145222695D03*
D18*
X304842464Y-143538638D03*
X316240081Y-140651274D03*
D19*
X301363440Y-151339850D03*
X299968800Y-148349030D03*
D20*
X160702649Y-152799847D03*
X162097289Y-149809027D03*
X131076633Y-173741411D03*
X132471273Y-170750591D03*
D27*
X181565836Y-201776072D03*
X179673030Y-199072870D03*
D20*
X175959643Y-162672742D03*
X177354283Y-159681922D03*
D19*
X264552916Y-114991048D03*
X263158276Y-112000228D03*
D15*
X130868828Y-99000995D03*
D16*
X138368099Y-95932863D03*
D17*
X135853521Y-101325393D03*
D16*
X141969878Y-100039831D03*
D15*
X140838214Y-103649791D03*
D21*
X135399942Y-94548788D03*
X144938037Y-101423906D03*
D19*
X304364507Y-115184027D03*
X302969867Y-112193207D03*
D15*
X169048825Y-207915911D03*
D17*
X173554160Y-204761242D03*
D16*
X170141380Y-199887286D03*
X175499008Y-198821539D03*
D15*
X178059495Y-201606573D03*
D28*
X167458660Y-201765751D03*
X178181732Y-196943077D03*
D19*
X263664946Y-155678411D03*
X262270306Y-152687591D03*
X294178931Y-135932618D03*
X292784291Y-132941798D03*
D15*
X110751723Y-99550636D03*
D16*
X118250994Y-96482504D03*
D17*
X115736416Y-101875034D03*
D16*
X121852773Y-100589472D03*
D15*
X120721109Y-104199432D03*
D21*
X115282837Y-95098429D03*
X124820932Y-101973547D03*
D20*
X91644921Y-130528101D03*
X93039561Y-127537281D03*
D15*
X272713428Y-165085743D03*
D16*
X275183543Y-157368815D03*
D17*
X277698121Y-162761345D03*
D16*
X280644841Y-157249599D03*
D15*
X282682814Y-160436947D03*
D18*
X272215383Y-158752890D03*
X283613000Y-155865526D03*
D19*
X325918036Y-161405721D03*
X324523396Y-158414901D03*
D20*
X100773954Y-153542463D03*
X102168594Y-150551643D03*
X183144151Y-147265507D03*
X184538791Y-144274687D03*
D15*
X141054406Y-119749590D03*
D16*
X148553677Y-116681458D03*
D17*
X146039099Y-122073988D03*
D16*
X152155456Y-120788426D03*
D15*
X151023792Y-124398386D03*
D21*
X145585520Y-115297383D03*
X155123615Y-122172501D03*
D20*
X106013945Y-99713641D03*
X107408585Y-96722821D03*
D15*
X273601403Y-124398382D03*
D16*
X276071518Y-116681454D03*
D17*
X278586096Y-122073984D03*
D16*
X281532816Y-116562238D03*
D15*
X283570789Y-119749586D03*
D18*
X273103358Y-118065529D03*
X284500975Y-115178165D03*
D15*
X171568388Y-139495381D03*
D16*
X179067659Y-136427249D03*
D17*
X176553081Y-141819779D03*
D16*
X182669438Y-140534217D03*
D15*
X181537774Y-144144177D03*
D21*
X176099502Y-135043174D03*
X185637597Y-141918292D03*
D15*
X109315298Y-145222692D03*
D16*
X116814569Y-142154560D03*
D17*
X114299991Y-147547090D03*
D16*
X120416348Y-146261528D03*
D15*
X119284684Y-149871488D03*
D21*
X113846412Y-140770485D03*
X123384507Y-147645603D03*
D15*
X311088590Y-119606665D03*
D16*
X313558705Y-111889737D03*
D17*
X316073283Y-117282267D03*
D16*
X319020003Y-111770521D03*
D15*
X321057976Y-114957869D03*
D18*
X310590545Y-113273812D03*
X321988162Y-110386448D03*
D15*
X157199366Y-170309848D03*
D16*
X164698637Y-167241716D03*
D17*
X162184059Y-172634246D03*
D16*
X168300416Y-171348684D03*
D15*
X167168752Y-174958644D03*
D21*
X161730480Y-165857641D03*
X171268575Y-172732759D03*
D20*
X84460412Y-145935336D03*
X85855052Y-142944516D03*
D15*
X153087366Y-187261230D03*
D16*
X161189295Y-187367202D03*
D17*
X156767586Y-191348527D03*
D16*
X162900031Y-192555012D03*
D15*
X160447806Y-195435824D03*
D29*
X158997894Y-184933403D03*
X165091437Y-194988811D03*
%LPD*%
M02*
