M48
; DRILL file {KiCad 8.0.7} date 2024-12-23T04:43:09-0500
; FORMAT={-:-/ absolute / metric / decimal}
; #@! TF.CreationDate,2024-12-23T04:43:09-05:00
; #@! TF.GenerationSoftware,Kicad,Pcbnew,8.0.7
; #@! TF.FileFunction,NonPlated,1,2,NPTH
FMAT,2
METRIC
; #@! TA.AperFunction,NonPlated,NPTH,ComponentDrill
T1C1.900
; #@! TA.AperFunction,NonPlated,NPTH,ComponentDrill
T2C3.000
; #@! TA.AperFunction,NonPlated,NPTH,ComponentDrill
T3C3.400
%
G90
G05
T1
X72.885Y-138.165
X80.069Y-122.758
X82.854Y-142.814
X87.254Y-107.351
X89.198Y-145.772
X90.039Y-127.407
X94.438Y-91.944
X96.383Y-130.365
X97.223Y-112.0
X99.168Y-150.421
X102.131Y-160.63
X103.567Y-114.958
X104.408Y-96.592
X106.352Y-135.014
X109.315Y-145.223
X110.752Y-99.551
X112.1Y-165.279
X113.537Y-119.607
X116.5Y-129.815
X119.285Y-149.871
X119.501Y-165.971
X120.721Y-104.199
X123.684Y-114.408
X126.469Y-134.464
X126.685Y-150.564
X129.47Y-170.62
X130.869Y-99.001
X133.654Y-119.057
X133.87Y-135.157
X134.758Y-175.844
X136.655Y-155.213
X140.838Y-103.65
X141.054Y-119.75
X141.942Y-160.437
X143.839Y-139.806
X144.727Y-180.493
X148.239Y-104.342
X149.127Y-145.03
X151.024Y-124.398
X151.912Y-165.086
X153.087Y-187.261
X156.311Y-129.622
X157.199Y-170.31
X158.208Y-108.991
X159.096Y-149.679
X160.448Y-195.436
X163.496Y-114.215
X164.384Y-154.903
X166.281Y-134.271
X167.169Y-174.959
X169.049Y-207.916
X171.568Y-139.495
X173.465Y-118.864
X174.353Y-159.551
X178.059Y-201.607
X178.753Y-124.088
X181.538Y-144.144
X188.722Y-128.737
X235.903Y-128.737
X243.087Y-144.144
X245.872Y-124.088
X246.566Y-201.607
X250.272Y-159.551
X251.16Y-118.864
X253.057Y-139.495
X255.576Y-207.916
X257.456Y-174.959
X258.344Y-134.271
X260.241Y-154.903
X261.129Y-114.215
X264.177Y-195.436
X265.529Y-149.679
X266.417Y-108.991
X267.426Y-170.31
X268.314Y-129.622
X271.538Y-187.261
X272.713Y-165.086
X273.601Y-124.398
X275.498Y-145.03
X276.386Y-104.342
X279.898Y-180.493
X280.786Y-139.806
X282.683Y-160.437
X283.571Y-119.75
X283.787Y-103.65
X287.97Y-155.213
X289.867Y-175.844
X290.755Y-135.157
X290.971Y-119.057
X293.756Y-99.001
X295.155Y-170.62
X297.94Y-150.564
X298.156Y-134.464
X300.941Y-114.408
X303.904Y-104.199
X305.124Y-165.971
X305.341Y-149.871
X308.125Y-129.815
X311.089Y-119.607
X312.525Y-165.279
X313.873Y-99.551
X315.31Y-145.223
X318.273Y-135.014
X320.218Y-96.592
X321.058Y-114.958
X322.494Y-160.63
X325.458Y-150.421
X327.402Y-112.0
X328.242Y-130.365
X330.187Y-91.944
X334.587Y-127.407
X335.427Y-145.772
X337.372Y-107.351
X341.771Y-142.814
X344.556Y-122.758
X351.741Y-138.165
T2
X80.384Y-135.097
X83.986Y-139.204
X87.568Y-119.69
X91.17Y-123.797
X94.753Y-104.283
X96.697Y-142.704
X98.355Y-108.39
X100.299Y-146.811
X101.937Y-88.875
X103.882Y-127.297
X105.539Y-92.982
X107.484Y-131.404
X109.63Y-157.562
X111.066Y-111.89
X113.232Y-161.669
X114.668Y-115.997
X116.815Y-142.155
X118.251Y-96.483
X120.416Y-146.262
X121.853Y-100.589
X123.999Y-126.747
X127.0Y-162.903
X127.601Y-130.854
X130.602Y-167.01
X131.184Y-111.34
X134.185Y-147.496
X134.785Y-115.447
X137.786Y-151.603
X138.368Y-95.933
X141.369Y-132.089
X141.97Y-100.04
X142.257Y-172.776
X144.971Y-136.196
X145.859Y-176.883
X148.554Y-116.681
X149.442Y-157.369
X152.155Y-120.788
X153.043Y-161.476
X155.738Y-101.274
X156.626Y-141.962
X159.34Y-105.381
X160.228Y-146.069
X161.189Y-187.367
X162.9Y-192.555
X163.811Y-126.554
X164.699Y-167.242
X167.412Y-130.661
X168.3Y-171.349
X170.141Y-199.887
X170.995Y-111.147
X171.883Y-151.834
X174.597Y-115.254
X175.485Y-155.941
X175.499Y-198.822
X179.068Y-136.427
X182.669Y-140.534
X186.252Y-121.02
X189.854Y-125.127
X238.373Y-121.02
X243.834Y-120.901
X245.558Y-136.427
X251.019Y-136.308
X252.742Y-151.834
X253.63Y-111.147
X254.484Y-199.887
X257.318Y-204.557
X258.203Y-151.715
X259.091Y-111.028
X259.927Y-167.242
X260.815Y-126.554
X263.436Y-187.367
X265.388Y-167.122
X266.276Y-126.435
X267.999Y-141.962
X268.416Y-185.124
X268.887Y-101.274
X273.46Y-141.842
X274.348Y-101.155
X275.184Y-157.369
X276.072Y-116.681
X280.645Y-157.25
X281.533Y-116.562
X282.368Y-172.776
X283.256Y-132.089
X286.257Y-95.933
X287.829Y-172.657
X288.717Y-131.969
X290.441Y-147.496
X291.718Y-95.814
X293.442Y-111.34
X295.902Y-147.377
X297.625Y-162.903
X298.903Y-111.221
X300.626Y-126.747
X303.086Y-162.784
X306.087Y-126.628
X306.374Y-96.483
X307.811Y-142.155
X311.835Y-96.363
X313.272Y-142.035
X313.559Y-111.89
X314.995Y-157.562
X319.02Y-111.771
X320.456Y-157.443
X320.743Y-127.297
X322.688Y-88.875
X326.205Y-127.178
X327.928Y-142.704
X328.149Y-88.756
X329.872Y-104.283
X333.389Y-142.585
X335.334Y-104.163
X337.057Y-119.69
X342.518Y-119.571
X344.241Y-135.097
X349.703Y-134.978
T3
X77.869Y-140.49
X85.054Y-125.082
X92.238Y-109.675
X94.183Y-148.097
X99.423Y-94.268
X101.367Y-132.689
X107.115Y-162.954
X108.552Y-117.282
X114.3Y-147.547
X115.736Y-101.875
X121.485Y-132.14
X124.486Y-168.296
X128.669Y-116.733
X131.67Y-152.888
X135.854Y-101.325
X138.855Y-137.481
X139.743Y-178.169
X146.039Y-122.074
X146.927Y-162.761
X153.224Y-106.667
X154.112Y-147.354
X156.768Y-191.349
X161.296Y-131.947
X162.184Y-172.634
X168.481Y-116.54
X169.369Y-157.227
X173.554Y-204.761
X176.553Y-141.82
X183.738Y-126.413
X240.888Y-126.413
X248.072Y-141.82
X251.071Y-204.761
X255.257Y-157.227
X256.145Y-116.54
X262.441Y-172.634
X263.329Y-131.947
X267.858Y-191.349
X270.514Y-147.354
X271.402Y-106.667
X277.698Y-162.761
X278.586Y-122.074
X284.883Y-178.169
X285.771Y-137.481
X288.772Y-101.325
X292.955Y-152.888
X295.956Y-116.733
X300.14Y-168.296
X303.141Y-132.14
X308.889Y-101.875
X310.325Y-147.547
X316.073Y-117.282
X317.51Y-162.954
X323.258Y-132.689
X325.202Y-94.268
X330.442Y-148.097
X332.387Y-109.675
X339.571Y-125.082
X346.756Y-140.49
M30
