%TF.GenerationSoftware,KiCad,Pcbnew,8.0.7*%
%TF.CreationDate,2024-12-23T04:43:13-05:00*%
%TF.ProjectId,choc,63686f63-2e6b-4696-9361-645f70636258,v1.0.0*%
%TF.SameCoordinates,Original*%
%TF.FileFunction,Drillmap*%
%TF.FilePolarity,Positive*%
%FSLAX45Y45*%
G04 Gerber Fmt 4.5, Leading zero omitted, Abs format (unit mm)*
G04 Created by KiCad (PCBNEW 8.0.7) date 2024-12-23 04:43:13*
%MOMM*%
%LPD*%
G01*
G04 APERTURE LIST*
%ADD10C,0.150000*%
%ADD11C,0.200000*%
%ADD12C,0.100000*%
%ADD13C,0.220000*%
G04 APERTURE END LIST*
D10*
X22625572Y-12342883D02*
G75*
G02*
X22734481Y-11964231I271868J126793D01*
G01*
X14260172Y-19280222D02*
X15612871Y-20782547D01*
X36147462Y-14365968D02*
X33220781Y-8089682D01*
X32891832Y-7921943D02*
X29494494Y-8580089D01*
X25930243Y-22090335D02*
G75*
G02*
X25512514Y-22163879I-245653J172185D01*
G01*
X33349984Y-16811009D02*
G75*
G02*
X33295564Y-16844262I-182714J237859D01*
G01*
X23034617Y-13220081D02*
G75*
G02*
X22762725Y-13646861I-271897J-126779D01*
G01*
X6404202Y-14730668D02*
G75*
G02*
X6315059Y-14365969I182728J237908D01*
G01*
X18920528Y-20784112D02*
G75*
G02*
X19092601Y-20729856I172072J-245738D01*
G01*
X22625572Y-12342883D02*
X23034617Y-13220081D01*
X27722926Y-9126042D02*
X25585369Y-10122801D01*
X25549171Y-10142827D02*
G75*
G02*
X25585369Y-10122800I163009J-251903D01*
G01*
X27722926Y-9126042D02*
G75*
G02*
X27761535Y-9111185I126864J-272088D01*
G01*
X32891832Y-7921943D02*
G75*
G02*
X33220779Y-8089683I57058J-294517D01*
G01*
X9166956Y-16844263D02*
G75*
G02*
X9112534Y-16811009I128355J271213D01*
G01*
X22762725Y-13646866D02*
X19699795Y-13646866D01*
X23369918Y-20729857D02*
G75*
G02*
X23541990Y-20784113I2J-299983D01*
G01*
X26826931Y-20811090D02*
G75*
G02*
X26849647Y-20782547I245439J-172020D01*
G01*
X16950009Y-22163884D02*
G75*
G02*
X16532276Y-22090334I-172079J245714D01*
G01*
X29463374Y-8587864D02*
X27761535Y-9111185D01*
X12968026Y-8580089D02*
X9570687Y-7921943D01*
X14165556Y-19209793D02*
G75*
G02*
X14260171Y-19280223I-128336J-271177D01*
G01*
X25930243Y-22090335D02*
X26826931Y-20811090D01*
X19427902Y-13220081D02*
X19836946Y-12342883D01*
X19699795Y-13646866D02*
G75*
G02*
X19427898Y-13220079I5J300007D01*
G01*
X26849648Y-20782547D02*
X28202347Y-19280222D01*
X9241738Y-8089682D02*
X6315058Y-14365968D01*
X9241738Y-8089682D02*
G75*
G02*
X9570687Y-7921945I271892J-126788D01*
G01*
X15612871Y-20782547D02*
G75*
G02*
X15635587Y-20811090I-222961J-200753D01*
G01*
X14700984Y-9111185D02*
G75*
G02*
X14739594Y-9126041I-88134J-286655D01*
G01*
X25549171Y-10142827D02*
X22734481Y-11964231D01*
X23541991Y-20784112D02*
X25512510Y-22163884D01*
X16950009Y-22163884D02*
X18920528Y-20784112D01*
X6404202Y-14730668D02*
X9112534Y-16811009D01*
X15635587Y-20811090D02*
X16532276Y-22090334D01*
X19092601Y-20729857D02*
X23369918Y-20729857D01*
X19728038Y-11964231D02*
X16913348Y-10142827D01*
X12968026Y-8580089D02*
G75*
G02*
X12999145Y-8587864I-57036J-294421D01*
G01*
X16877150Y-10122801D02*
X14739593Y-9126042D01*
X28202347Y-19280222D02*
G75*
G02*
X28296963Y-19209792I222983J-200788D01*
G01*
X36147461Y-14365968D02*
G75*
G02*
X36058316Y-14730666I-271901J-126782D01*
G01*
X9166956Y-16844263D02*
X14165556Y-19209793D01*
X28296963Y-19209793D02*
X33295564Y-16844263D01*
X16877150Y-10122801D02*
G75*
G02*
X16913348Y-10142828I-126680J-271699D01*
G01*
X33349984Y-16811009D02*
X36058317Y-14730668D01*
X14700984Y-9111185D02*
X12999145Y-8587864D01*
X29463374Y-8587864D02*
G75*
G02*
X29494494Y-8580089I88096J-286456D01*
G01*
X19728038Y-11964231D02*
G75*
G02*
X19836952Y-12342885I-162978J-251869D01*
G01*
D11*
D12*
X8352856Y-14746201D02*
X8382856Y-14776201D01*
X8382856Y-14746201D02*
X8352856Y-14776201D01*
X9071308Y-13205477D02*
X9101308Y-13235477D01*
X9101308Y-13205477D02*
X9071308Y-13235477D01*
X9789759Y-11664753D02*
X9819759Y-11694753D01*
X9819759Y-11664753D02*
X9789759Y-11694753D01*
X9984211Y-15506913D02*
X10014211Y-15536913D01*
X10014211Y-15506913D02*
X9984211Y-15536913D01*
X10508210Y-10124031D02*
X10538210Y-10154031D01*
X10538210Y-10124031D02*
X10508210Y-10154031D01*
X10702662Y-13966189D02*
X10732662Y-13996189D01*
X10732662Y-13966189D02*
X10702662Y-13996189D01*
X11277470Y-16992672D02*
X11307470Y-17022672D01*
X11307470Y-16992672D02*
X11277470Y-17022672D01*
X11421113Y-12425466D02*
X11451113Y-12455466D01*
X11451113Y-12425466D02*
X11421113Y-12455466D01*
X11995921Y-15451948D02*
X12025921Y-15481948D01*
X12025921Y-15451948D02*
X11995921Y-15481948D01*
X12139564Y-10884743D02*
X12169564Y-10914743D01*
X12169564Y-10884743D02*
X12139564Y-10914743D01*
X12714372Y-13911226D02*
X12744372Y-13941226D01*
X12744372Y-13911226D02*
X12714372Y-13941226D01*
X13014479Y-17526808D02*
X13044479Y-17556808D01*
X13044479Y-17526808D02*
X13014479Y-17556808D01*
X13432823Y-12370502D02*
X13462823Y-12400502D01*
X13462823Y-12370502D02*
X13432823Y-12400502D01*
X13732930Y-15986085D02*
X13762930Y-16016085D01*
X13762930Y-15986085D02*
X13732930Y-16016085D01*
X13975130Y-12733722D02*
X14005130Y-12763722D01*
X14005130Y-12733722D02*
X13975130Y-12763722D01*
X14151275Y-10829779D02*
X14181275Y-10859779D01*
X14181275Y-10829779D02*
X14151275Y-10859779D01*
X14451381Y-14445362D02*
X14481381Y-14475362D01*
X14481381Y-14445362D02*
X14451381Y-14475362D01*
X14540178Y-18514098D02*
X14570178Y-18544098D01*
X14570178Y-18514098D02*
X14540178Y-18544098D01*
X15169832Y-12904638D02*
X15199832Y-12934638D01*
X15199832Y-12904638D02*
X15169832Y-12934638D01*
X15258629Y-16973375D02*
X15288629Y-17003375D01*
X15288629Y-16973375D02*
X15258629Y-17003375D01*
X15500830Y-13721012D02*
X15530830Y-13751012D01*
X15530830Y-13721012D02*
X15500830Y-13751012D01*
X15888283Y-11363915D02*
X15918283Y-11393915D01*
X15918283Y-11363915D02*
X15888283Y-11393915D01*
X15918207Y-20002458D02*
X15948207Y-20032458D01*
X15948207Y-20002458D02*
X15918207Y-20032458D01*
X15977080Y-15432651D02*
X16007080Y-15462651D01*
X16007080Y-15432651D02*
X15977080Y-15462651D01*
X16695532Y-13891928D02*
X16725532Y-13921928D01*
X16725532Y-13891928D02*
X16695532Y-13921928D01*
X16784329Y-17960665D02*
X16814329Y-17990665D01*
X16814329Y-17960665D02*
X16784329Y-17990665D01*
X17026529Y-14708301D02*
X17056529Y-14738301D01*
X17056529Y-14708301D02*
X17026529Y-14738301D01*
X17413983Y-12351205D02*
X17443983Y-12381205D01*
X17443983Y-12351205D02*
X17413983Y-12381205D01*
X17502780Y-16419941D02*
X17532780Y-16449941D01*
X17532780Y-16419941D02*
X17502780Y-16449941D01*
X18221231Y-14879218D02*
X18251231Y-14909218D01*
X18251231Y-14879218D02*
X18221231Y-14909218D01*
X18247695Y-20314150D02*
X18277695Y-20344150D01*
X18277695Y-20314150D02*
X18247695Y-20344150D01*
X18939682Y-13338495D02*
X18969682Y-13368495D01*
X18969682Y-13338495D02*
X18939682Y-13368495D01*
X24992777Y-12639061D02*
X25022777Y-12669061D01*
X25022777Y-12639061D02*
X24992777Y-12669061D01*
X25540521Y-21263419D02*
X25570521Y-21293419D01*
X25570521Y-21263419D02*
X25540521Y-21293419D01*
X25711228Y-14179785D02*
X25741228Y-14209785D01*
X25741228Y-14179785D02*
X25711228Y-14209785D01*
X26429679Y-15720508D02*
X26459679Y-15750508D01*
X26459679Y-15720508D02*
X26429679Y-15750508D01*
X26518476Y-11651771D02*
X26548476Y-11681771D01*
X26548476Y-11651771D02*
X26518476Y-11681771D01*
X27148130Y-17261231D02*
X27178130Y-17291231D01*
X27178130Y-17261231D02*
X27148130Y-17291231D01*
X27236927Y-13192495D02*
X27266927Y-13222495D01*
X27266927Y-13192495D02*
X27236927Y-13222495D01*
X27621724Y-18772552D02*
X27651724Y-18802552D01*
X27651724Y-18772552D02*
X27621724Y-18802552D01*
X27955378Y-14733218D02*
X27985378Y-14763218D01*
X27985378Y-14733218D02*
X27955378Y-14763218D01*
X28044175Y-10664482D02*
X28074175Y-10694482D01*
X28074175Y-10664482D02*
X28044175Y-10694482D01*
X28673829Y-16273941D02*
X28703829Y-16303941D01*
X28703829Y-16273941D02*
X28673829Y-16303941D01*
X28762626Y-12205205D02*
X28792626Y-12235205D01*
X28792626Y-12205205D02*
X28762626Y-12235205D01*
X29392280Y-17814664D02*
X29422280Y-17844664D01*
X29422280Y-17814664D02*
X29392280Y-17844664D01*
X29481078Y-13745928D02*
X29511078Y-13775928D01*
X29511078Y-13745928D02*
X29481078Y-13775928D01*
X29600766Y-12476401D02*
X29630766Y-12506401D01*
X29630766Y-12476401D02*
X29600766Y-12506401D01*
X29781184Y-10130346D02*
X29811184Y-10160346D01*
X29811184Y-10130346D02*
X29781184Y-10160346D01*
X30199529Y-15286651D02*
X30229529Y-15316651D01*
X30229529Y-15286651D02*
X30199529Y-15316651D01*
X30499635Y-11671069D02*
X30529635Y-11701069D01*
X30529635Y-11671069D02*
X30499635Y-11701069D01*
X30917980Y-16827375D02*
X30947980Y-16857375D01*
X30947980Y-16827375D02*
X30917980Y-16857375D01*
X31218086Y-13211792D02*
X31248086Y-13241792D01*
X31248086Y-13211792D02*
X31218086Y-13241792D01*
X31612476Y-12531365D02*
X31642476Y-12561365D01*
X31642476Y-12531365D02*
X31612476Y-12561365D01*
X31792894Y-10185310D02*
X31822894Y-10215310D01*
X31822894Y-10185310D02*
X31792894Y-10215310D01*
X31936537Y-14752515D02*
X31966537Y-14782515D01*
X31966537Y-14752515D02*
X31936537Y-14782515D01*
X32511346Y-11726033D02*
X32541346Y-11756033D01*
X32541346Y-11726033D02*
X32511346Y-11756033D01*
X32654988Y-16293239D02*
X32684988Y-16323239D01*
X32684988Y-16293239D02*
X32654988Y-16323239D01*
X33229797Y-13266757D02*
X33259797Y-13296757D01*
X33259797Y-13266757D02*
X33229797Y-13296757D01*
X33243831Y-11770652D02*
X33273831Y-11800652D01*
X33273831Y-11770652D02*
X33243831Y-11800652D01*
X33424248Y-9424598D02*
X33454248Y-9454598D01*
X33454248Y-9424598D02*
X33424248Y-9454598D01*
X33948248Y-14807480D02*
X33978248Y-14837480D01*
X33978248Y-14807480D02*
X33948248Y-14837480D01*
X34142700Y-10965321D02*
X34172700Y-10995321D01*
X34172700Y-10965321D02*
X34142700Y-10995321D01*
X34861150Y-12506044D02*
X34891150Y-12536044D01*
X34891150Y-12506044D02*
X34861150Y-12536044D01*
X35579602Y-14046767D02*
X35609602Y-14076767D01*
X35609602Y-14046767D02*
X35579602Y-14076767D01*
X8826788Y-13715388D02*
G75*
G02*
X8786788Y-13715388I-20000J0D01*
G01*
X8786788Y-13715388D02*
G75*
G02*
X8826788Y-13715388I20000J0D01*
G01*
X8832296Y-13589223D02*
G75*
G02*
X8792296Y-13589223I-20000J0D01*
G01*
X8792296Y-13589223D02*
G75*
G02*
X8832296Y-13589223I20000J0D01*
G01*
X8912105Y-13808496D02*
G75*
G02*
X8872105Y-13808496I-20000J0D01*
G01*
X8872105Y-13808496D02*
G75*
G02*
X8912105Y-13808496I20000J0D01*
G01*
X8925404Y-13503906D02*
G75*
G02*
X8885404Y-13503906I-20000J0D01*
G01*
X8885404Y-13503906D02*
G75*
G02*
X8925404Y-13503906I20000J0D01*
G01*
X9038270Y-13814004D02*
G75*
G02*
X8998270Y-13814004I-20000J0D01*
G01*
X8998270Y-13814004D02*
G75*
G02*
X9038270Y-13814004I20000J0D01*
G01*
X9051569Y-13509414D02*
G75*
G02*
X9011569Y-13509414I-20000J0D01*
G01*
X9011569Y-13509414D02*
G75*
G02*
X9051569Y-13509414I20000J0D01*
G01*
X9131378Y-13728687D02*
G75*
G02*
X9091378Y-13728687I-20000J0D01*
G01*
X9091378Y-13728687D02*
G75*
G02*
X9131378Y-13728687I20000J0D01*
G01*
X9136886Y-13602522D02*
G75*
G02*
X9096886Y-13602522I-20000J0D01*
G01*
X9096886Y-13602522D02*
G75*
G02*
X9136886Y-13602522I20000J0D01*
G01*
X10263690Y-10633942D02*
G75*
G02*
X10223690Y-10633942I-20000J0D01*
G01*
X10223690Y-10633942D02*
G75*
G02*
X10263690Y-10633942I20000J0D01*
G01*
X10269198Y-10507777D02*
G75*
G02*
X10229198Y-10507777I-20000J0D01*
G01*
X10229198Y-10507777D02*
G75*
G02*
X10269198Y-10507777I20000J0D01*
G01*
X10349007Y-10727050D02*
G75*
G02*
X10309007Y-10727050I-20000J0D01*
G01*
X10309007Y-10727050D02*
G75*
G02*
X10349007Y-10727050I20000J0D01*
G01*
X10362306Y-10422459D02*
G75*
G02*
X10322306Y-10422459I-20000J0D01*
G01*
X10322306Y-10422459D02*
G75*
G02*
X10362306Y-10422459I20000J0D01*
G01*
X10475172Y-10732558D02*
G75*
G02*
X10435172Y-10732558I-20000J0D01*
G01*
X10435172Y-10732558D02*
G75*
G02*
X10475172Y-10732558I20000J0D01*
G01*
X10488471Y-10427968D02*
G75*
G02*
X10448471Y-10427968I-20000J0D01*
G01*
X10448471Y-10427968D02*
G75*
G02*
X10488471Y-10427968I20000J0D01*
G01*
X10568280Y-10647241D02*
G75*
G02*
X10528280Y-10647241I-20000J0D01*
G01*
X10528280Y-10647241D02*
G75*
G02*
X10568280Y-10647241I20000J0D01*
G01*
X10573788Y-10521075D02*
G75*
G02*
X10533788Y-10521075I-20000J0D01*
G01*
X10533788Y-10521075D02*
G75*
G02*
X10573788Y-10521075I20000J0D01*
G01*
X15014109Y-17483287D02*
G75*
G02*
X14974109Y-17483287I-20000J0D01*
G01*
X14974109Y-17483287D02*
G75*
G02*
X15014109Y-17483287I20000J0D01*
G01*
X15019617Y-17357121D02*
G75*
G02*
X14979617Y-17357121I-20000J0D01*
G01*
X14979617Y-17357121D02*
G75*
G02*
X15019617Y-17357121I20000J0D01*
G01*
X15099426Y-17576394D02*
G75*
G02*
X15059426Y-17576394I-20000J0D01*
G01*
X15059426Y-17576394D02*
G75*
G02*
X15099426Y-17576394I20000J0D01*
G01*
X15112725Y-17271804D02*
G75*
G02*
X15072725Y-17271804I-20000J0D01*
G01*
X15072725Y-17271804D02*
G75*
G02*
X15112725Y-17271804I20000J0D01*
G01*
X15225592Y-17581903D02*
G75*
G02*
X15185592Y-17581903I-20000J0D01*
G01*
X15185592Y-17581903D02*
G75*
G02*
X15225592Y-17581903I20000J0D01*
G01*
X15238890Y-17277312D02*
G75*
G02*
X15198890Y-17277312I-20000J0D01*
G01*
X15198890Y-17277312D02*
G75*
G02*
X15238890Y-17277312I20000J0D01*
G01*
X15318699Y-17496585D02*
G75*
G02*
X15278699Y-17496585I-20000J0D01*
G01*
X15278699Y-17496585D02*
G75*
G02*
X15318699Y-17496585I20000J0D01*
G01*
X15324208Y-17370420D02*
G75*
G02*
X15284208Y-17370420I-20000J0D01*
G01*
X15284208Y-17370420D02*
G75*
G02*
X15324208Y-17370420I20000J0D01*
G01*
X17169462Y-12861117D02*
G75*
G02*
X17129462Y-12861117I-20000J0D01*
G01*
X17129462Y-12861117D02*
G75*
G02*
X17169462Y-12861117I20000J0D01*
G01*
X17174970Y-12734951D02*
G75*
G02*
X17134970Y-12734951I-20000J0D01*
G01*
X17134970Y-12734951D02*
G75*
G02*
X17174970Y-12734951I20000J0D01*
G01*
X17254779Y-12954224D02*
G75*
G02*
X17214779Y-12954224I-20000J0D01*
G01*
X17214779Y-12954224D02*
G75*
G02*
X17254779Y-12954224I20000J0D01*
G01*
X17268078Y-12649634D02*
G75*
G02*
X17228078Y-12649634I-20000J0D01*
G01*
X17228078Y-12649634D02*
G75*
G02*
X17268078Y-12649634I20000J0D01*
G01*
X17380945Y-12959733D02*
G75*
G02*
X17340945Y-12959733I-20000J0D01*
G01*
X17340945Y-12959733D02*
G75*
G02*
X17380945Y-12959733I20000J0D01*
G01*
X17394243Y-12655142D02*
G75*
G02*
X17354243Y-12655142I-20000J0D01*
G01*
X17354243Y-12655142D02*
G75*
G02*
X17394243Y-12655142I20000J0D01*
G01*
X17474052Y-12874415D02*
G75*
G02*
X17434052Y-12874415I-20000J0D01*
G01*
X17434052Y-12874415D02*
G75*
G02*
X17474052Y-12874415I20000J0D01*
G01*
X17479561Y-12748250D02*
G75*
G02*
X17439561Y-12748250I-20000J0D01*
G01*
X17439561Y-12748250D02*
G75*
G02*
X17479561Y-12748250I20000J0D01*
G01*
X25128612Y-12974827D02*
G75*
G02*
X25088612Y-12974827I-20000J0D01*
G01*
X25088612Y-12974827D02*
G75*
G02*
X25128612Y-12974827I20000J0D01*
G01*
X25134121Y-13100992D02*
G75*
G02*
X25094121Y-13100992I-20000J0D01*
G01*
X25094121Y-13100992D02*
G75*
G02*
X25134121Y-13100992I20000J0D01*
G01*
X25213930Y-12881719D02*
G75*
G02*
X25173930Y-12881719I-20000J0D01*
G01*
X25173930Y-12881719D02*
G75*
G02*
X25213930Y-12881719I20000J0D01*
G01*
X25227229Y-13186309D02*
G75*
G02*
X25187229Y-13186309I-20000J0D01*
G01*
X25187229Y-13186309D02*
G75*
G02*
X25227229Y-13186309I20000J0D01*
G01*
X25340095Y-12876211D02*
G75*
G02*
X25300095Y-12876211I-20000J0D01*
G01*
X25300095Y-12876211D02*
G75*
G02*
X25340095Y-12876211I20000J0D01*
G01*
X25353394Y-13180801D02*
G75*
G02*
X25313394Y-13180801I-20000J0D01*
G01*
X25313394Y-13180801D02*
G75*
G02*
X25353394Y-13180801I20000J0D01*
G01*
X25433203Y-12961528D02*
G75*
G02*
X25393203Y-12961528I-20000J0D01*
G01*
X25393203Y-12961528D02*
G75*
G02*
X25433203Y-12961528I20000J0D01*
G01*
X25438711Y-13087693D02*
G75*
G02*
X25398711Y-13087693I-20000J0D01*
G01*
X25398711Y-13087693D02*
G75*
G02*
X25438711Y-13087693I20000J0D01*
G01*
X27283965Y-17596997D02*
G75*
G02*
X27243965Y-17596997I-20000J0D01*
G01*
X27243965Y-17596997D02*
G75*
G02*
X27283965Y-17596997I20000J0D01*
G01*
X27289474Y-17723162D02*
G75*
G02*
X27249474Y-17723162I-20000J0D01*
G01*
X27249474Y-17723162D02*
G75*
G02*
X27289474Y-17723162I20000J0D01*
G01*
X27369283Y-17503889D02*
G75*
G02*
X27329283Y-17503889I-20000J0D01*
G01*
X27329283Y-17503889D02*
G75*
G02*
X27369283Y-17503889I20000J0D01*
G01*
X27382582Y-17808479D02*
G75*
G02*
X27342582Y-17808479I-20000J0D01*
G01*
X27342582Y-17808479D02*
G75*
G02*
X27382582Y-17808479I20000J0D01*
G01*
X27495448Y-17498381D02*
G75*
G02*
X27455448Y-17498381I-20000J0D01*
G01*
X27455448Y-17498381D02*
G75*
G02*
X27495448Y-17498381I20000J0D01*
G01*
X27508747Y-17802971D02*
G75*
G02*
X27468747Y-17802971I-20000J0D01*
G01*
X27468747Y-17802971D02*
G75*
G02*
X27508747Y-17802971I20000J0D01*
G01*
X27588556Y-17583698D02*
G75*
G02*
X27548556Y-17583698I-20000J0D01*
G01*
X27548556Y-17583698D02*
G75*
G02*
X27588556Y-17583698I20000J0D01*
G01*
X27594064Y-17709863D02*
G75*
G02*
X27554064Y-17709863I-20000J0D01*
G01*
X27554064Y-17709863D02*
G75*
G02*
X27594064Y-17709863I20000J0D01*
G01*
X31928731Y-10521076D02*
G75*
G02*
X31888731Y-10521076I-20000J0D01*
G01*
X31888731Y-10521076D02*
G75*
G02*
X31928731Y-10521076I20000J0D01*
G01*
X31934239Y-10647241D02*
G75*
G02*
X31894239Y-10647241I-20000J0D01*
G01*
X31894239Y-10647241D02*
G75*
G02*
X31934239Y-10647241I20000J0D01*
G01*
X32014048Y-10427968D02*
G75*
G02*
X31974048Y-10427968I-20000J0D01*
G01*
X31974048Y-10427968D02*
G75*
G02*
X32014048Y-10427968I20000J0D01*
G01*
X32027347Y-10732558D02*
G75*
G02*
X31987347Y-10732558I-20000J0D01*
G01*
X31987347Y-10732558D02*
G75*
G02*
X32027347Y-10732558I20000J0D01*
G01*
X32140213Y-10422460D02*
G75*
G02*
X32100213Y-10422460I-20000J0D01*
G01*
X32100213Y-10422460D02*
G75*
G02*
X32140213Y-10422460I20000J0D01*
G01*
X32153512Y-10727050D02*
G75*
G02*
X32113512Y-10727050I-20000J0D01*
G01*
X32113512Y-10727050D02*
G75*
G02*
X32153512Y-10727050I20000J0D01*
G01*
X32233321Y-10507777D02*
G75*
G02*
X32193321Y-10507777I-20000J0D01*
G01*
X32193321Y-10507777D02*
G75*
G02*
X32233321Y-10507777I20000J0D01*
G01*
X32238829Y-10633942D02*
G75*
G02*
X32198829Y-10633942I-20000J0D01*
G01*
X32198829Y-10633942D02*
G75*
G02*
X32238829Y-10633942I20000J0D01*
G01*
X33365633Y-13602522D02*
G75*
G02*
X33325633Y-13602522I-20000J0D01*
G01*
X33325633Y-13602522D02*
G75*
G02*
X33365633Y-13602522I20000J0D01*
G01*
X33371141Y-13728687D02*
G75*
G02*
X33331141Y-13728687I-20000J0D01*
G01*
X33331141Y-13728687D02*
G75*
G02*
X33371141Y-13728687I20000J0D01*
G01*
X33450950Y-13509414D02*
G75*
G02*
X33410950Y-13509414I-20000J0D01*
G01*
X33410950Y-13509414D02*
G75*
G02*
X33450950Y-13509414I20000J0D01*
G01*
X33464249Y-13814005D02*
G75*
G02*
X33424249Y-13814005I-20000J0D01*
G01*
X33424249Y-13814005D02*
G75*
G02*
X33464249Y-13814005I20000J0D01*
G01*
X33577115Y-13503906D02*
G75*
G02*
X33537115Y-13503906I-20000J0D01*
G01*
X33537115Y-13503906D02*
G75*
G02*
X33577115Y-13503906I20000J0D01*
G01*
X33590414Y-13808496D02*
G75*
G02*
X33550414Y-13808496I-20000J0D01*
G01*
X33550414Y-13808496D02*
G75*
G02*
X33590414Y-13808496I20000J0D01*
G01*
X33670223Y-13589223D02*
G75*
G02*
X33630223Y-13589223I-20000J0D01*
G01*
X33630223Y-13589223D02*
G75*
G02*
X33670223Y-13589223I20000J0D01*
G01*
X33675732Y-13715388D02*
G75*
G02*
X33635732Y-13715388I-20000J0D01*
G01*
X33635732Y-13715388D02*
G75*
G02*
X33675732Y-13715388I20000J0D01*
G01*
X20469260Y-14901201D02*
X20469260Y-15001201D01*
X20419260Y-14951201D02*
X20519260Y-14951201D01*
X20469260Y-15155201D02*
X20469260Y-15255201D01*
X20419260Y-15205201D02*
X20519260Y-15205201D01*
X20469260Y-16679202D02*
X20469260Y-16779202D01*
X20419260Y-16729202D02*
X20519260Y-16729202D01*
X20469260Y-14139202D02*
X20469260Y-14239202D01*
X20419260Y-14189202D02*
X20519260Y-14189202D01*
X20469260Y-14393201D02*
X20469260Y-14493201D01*
X20419260Y-14443201D02*
X20519260Y-14443201D01*
X20469260Y-14647201D02*
X20469260Y-14747201D01*
X20419260Y-14697201D02*
X20519260Y-14697201D01*
X20469260Y-15409201D02*
X20469260Y-15509201D01*
X20419260Y-15459201D02*
X20519260Y-15459201D01*
X20469260Y-15917202D02*
X20469260Y-16017202D01*
X20419260Y-15967202D02*
X20519260Y-15967202D01*
X20469260Y-16171201D02*
X20469260Y-16271201D01*
X20419260Y-16221201D02*
X20519260Y-16221201D01*
X20469260Y-16425202D02*
X20469260Y-16525202D01*
X20419260Y-16475202D02*
X20519260Y-16475202D01*
X20469260Y-17187202D02*
X20469260Y-17287202D01*
X20419260Y-17237202D02*
X20519260Y-17237202D01*
X20469260Y-16933202D02*
X20469260Y-17033202D01*
X20419260Y-16983202D02*
X20519260Y-16983202D01*
X20469260Y-15663202D02*
X20469260Y-15763202D01*
X20419260Y-15713202D02*
X20519260Y-15713202D01*
X20906259Y-17672701D02*
X20906259Y-17772701D01*
X20856259Y-17722701D02*
X20956259Y-17722701D01*
X21556259Y-17672702D02*
X21556259Y-17772702D01*
X21506259Y-17722702D02*
X21606259Y-17722702D01*
X21993260Y-15663201D02*
X21993260Y-15763201D01*
X21943260Y-15713201D02*
X22043260Y-15713201D01*
X21993260Y-14393201D02*
X21993260Y-14493201D01*
X21943260Y-14443201D02*
X22043260Y-14443201D01*
X21993260Y-14139201D02*
X21993260Y-14239201D01*
X21943260Y-14189201D02*
X22043260Y-14189201D01*
X21993260Y-14901201D02*
X21993260Y-15001201D01*
X21943260Y-14951201D02*
X22043260Y-14951201D01*
X21993260Y-15155202D02*
X21993260Y-15255202D01*
X21943260Y-15205202D02*
X22043260Y-15205202D01*
X21993260Y-15409201D02*
X21993260Y-15509201D01*
X21943260Y-15459201D02*
X22043260Y-15459201D01*
X21993260Y-15917202D02*
X21993260Y-16017202D01*
X21943260Y-15967202D02*
X22043260Y-15967202D01*
X21993260Y-16679201D02*
X21993260Y-16779202D01*
X21943260Y-16729201D02*
X22043260Y-16729201D01*
X21993260Y-16933202D02*
X21993260Y-17033202D01*
X21943260Y-16983202D02*
X22043260Y-16983202D01*
X21993260Y-17187201D02*
X21993260Y-17287201D01*
X21943260Y-17237201D02*
X22043260Y-17237201D01*
X21993260Y-14647201D02*
X21993260Y-14747201D01*
X21943260Y-14697201D02*
X22043260Y-14697201D01*
X21993260Y-16171201D02*
X21993260Y-16271201D01*
X21943260Y-16221201D02*
X22043260Y-16221201D01*
X21993260Y-16425201D02*
X21993260Y-16525201D01*
X21943260Y-16475201D02*
X22043260Y-16475201D01*
D13*
X9039619Y-13736738D02*
X9039619Y-13581173D01*
X8884054Y-13581173D01*
X8884054Y-13736738D01*
X9039619Y-13736738D01*
X10476522Y-10655291D02*
X10476522Y-10499726D01*
X10320957Y-10499726D01*
X10320957Y-10655291D01*
X10476522Y-10655291D01*
X15226941Y-17504636D02*
X15226941Y-17349071D01*
X15071376Y-17349071D01*
X15071376Y-17504636D01*
X15226941Y-17504636D01*
X17382294Y-12882466D02*
X17382294Y-12726901D01*
X17226729Y-12726901D01*
X17226729Y-12882466D01*
X17382294Y-12882466D01*
X25341444Y-13109042D02*
X25341444Y-12953477D01*
X25185879Y-12953477D01*
X25185879Y-13109042D01*
X25341444Y-13109042D01*
X27496797Y-17731213D02*
X27496797Y-17575648D01*
X27341232Y-17575648D01*
X27341232Y-17731213D01*
X27496797Y-17731213D01*
X32141562Y-10655291D02*
X32141562Y-10499726D01*
X31985997Y-10499726D01*
X31985997Y-10655291D01*
X32141562Y-10655291D01*
X33578465Y-13736738D02*
X33578465Y-13581173D01*
X33422900Y-13581173D01*
X33422900Y-13736738D01*
X33578465Y-13736738D01*
D11*
X6540224Y-22537131D02*
X6540224Y-22337131D01*
X6540224Y-22337131D02*
X6587843Y-22337131D01*
X6587843Y-22337131D02*
X6616415Y-22346655D01*
X6616415Y-22346655D02*
X6635462Y-22365703D01*
X6635462Y-22365703D02*
X6644986Y-22384750D01*
X6644986Y-22384750D02*
X6654510Y-22422845D01*
X6654510Y-22422845D02*
X6654510Y-22451417D01*
X6654510Y-22451417D02*
X6644986Y-22489512D01*
X6644986Y-22489512D02*
X6635462Y-22508560D01*
X6635462Y-22508560D02*
X6616415Y-22527607D01*
X6616415Y-22527607D02*
X6587843Y-22537131D01*
X6587843Y-22537131D02*
X6540224Y-22537131D01*
X6740224Y-22537131D02*
X6740224Y-22403798D01*
X6740224Y-22441893D02*
X6749748Y-22422845D01*
X6749748Y-22422845D02*
X6759272Y-22413322D01*
X6759272Y-22413322D02*
X6778319Y-22403798D01*
X6778319Y-22403798D02*
X6797367Y-22403798D01*
X6864034Y-22537131D02*
X6864034Y-22403798D01*
X6864034Y-22337131D02*
X6854510Y-22346655D01*
X6854510Y-22346655D02*
X6864034Y-22356179D01*
X6864034Y-22356179D02*
X6873557Y-22346655D01*
X6873557Y-22346655D02*
X6864034Y-22337131D01*
X6864034Y-22337131D02*
X6864034Y-22356179D01*
X6987843Y-22537131D02*
X6968796Y-22527607D01*
X6968796Y-22527607D02*
X6959272Y-22508560D01*
X6959272Y-22508560D02*
X6959272Y-22337131D01*
X7092605Y-22537131D02*
X7073557Y-22527607D01*
X7073557Y-22527607D02*
X7064034Y-22508560D01*
X7064034Y-22508560D02*
X7064034Y-22337131D01*
X7321177Y-22537131D02*
X7321177Y-22337131D01*
X7321177Y-22337131D02*
X7387843Y-22479988D01*
X7387843Y-22479988D02*
X7454510Y-22337131D01*
X7454510Y-22337131D02*
X7454510Y-22537131D01*
X7635462Y-22537131D02*
X7635462Y-22432369D01*
X7635462Y-22432369D02*
X7625938Y-22413322D01*
X7625938Y-22413322D02*
X7606891Y-22403798D01*
X7606891Y-22403798D02*
X7568796Y-22403798D01*
X7568796Y-22403798D02*
X7549748Y-22413322D01*
X7635462Y-22527607D02*
X7616415Y-22537131D01*
X7616415Y-22537131D02*
X7568796Y-22537131D01*
X7568796Y-22537131D02*
X7549748Y-22527607D01*
X7549748Y-22527607D02*
X7540224Y-22508560D01*
X7540224Y-22508560D02*
X7540224Y-22489512D01*
X7540224Y-22489512D02*
X7549748Y-22470464D01*
X7549748Y-22470464D02*
X7568796Y-22460941D01*
X7568796Y-22460941D02*
X7616415Y-22460941D01*
X7616415Y-22460941D02*
X7635462Y-22451417D01*
X7730700Y-22403798D02*
X7730700Y-22603798D01*
X7730700Y-22413322D02*
X7749748Y-22403798D01*
X7749748Y-22403798D02*
X7787843Y-22403798D01*
X7787843Y-22403798D02*
X7806891Y-22413322D01*
X7806891Y-22413322D02*
X7816415Y-22422845D01*
X7816415Y-22422845D02*
X7825938Y-22441893D01*
X7825938Y-22441893D02*
X7825938Y-22499036D01*
X7825938Y-22499036D02*
X7816415Y-22518083D01*
X7816415Y-22518083D02*
X7806891Y-22527607D01*
X7806891Y-22527607D02*
X7787843Y-22537131D01*
X7787843Y-22537131D02*
X7749748Y-22537131D01*
X7749748Y-22537131D02*
X7730700Y-22527607D01*
X7911653Y-22518083D02*
X7921177Y-22527607D01*
X7921177Y-22527607D02*
X7911653Y-22537131D01*
X7911653Y-22537131D02*
X7902129Y-22527607D01*
X7902129Y-22527607D02*
X7911653Y-22518083D01*
X7911653Y-22518083D02*
X7911653Y-22537131D01*
X7911653Y-22413322D02*
X7921177Y-22422845D01*
X7921177Y-22422845D02*
X7911653Y-22432369D01*
X7911653Y-22432369D02*
X7902129Y-22422845D01*
X7902129Y-22422845D02*
X7911653Y-22413322D01*
X7911653Y-22413322D02*
X7911653Y-22432369D01*
D12*
X6249447Y-22850647D02*
X6279447Y-22880647D01*
X6279447Y-22850647D02*
X6249447Y-22880647D01*
D11*
X6578319Y-22757131D02*
X6597367Y-22757131D01*
X6597367Y-22757131D02*
X6616415Y-22766655D01*
X6616415Y-22766655D02*
X6625938Y-22776179D01*
X6625938Y-22776179D02*
X6635462Y-22795226D01*
X6635462Y-22795226D02*
X6644986Y-22833322D01*
X6644986Y-22833322D02*
X6644986Y-22880941D01*
X6644986Y-22880941D02*
X6635462Y-22919036D01*
X6635462Y-22919036D02*
X6625938Y-22938083D01*
X6625938Y-22938083D02*
X6616415Y-22947607D01*
X6616415Y-22947607D02*
X6597367Y-22957131D01*
X6597367Y-22957131D02*
X6578319Y-22957131D01*
X6578319Y-22957131D02*
X6559272Y-22947607D01*
X6559272Y-22947607D02*
X6549748Y-22938083D01*
X6549748Y-22938083D02*
X6540224Y-22919036D01*
X6540224Y-22919036D02*
X6530700Y-22880941D01*
X6530700Y-22880941D02*
X6530700Y-22833322D01*
X6530700Y-22833322D02*
X6540224Y-22795226D01*
X6540224Y-22795226D02*
X6549748Y-22776179D01*
X6549748Y-22776179D02*
X6559272Y-22766655D01*
X6559272Y-22766655D02*
X6578319Y-22757131D01*
X6730700Y-22938083D02*
X6740224Y-22947607D01*
X6740224Y-22947607D02*
X6730700Y-22957131D01*
X6730700Y-22957131D02*
X6721177Y-22947607D01*
X6721177Y-22947607D02*
X6730700Y-22938083D01*
X6730700Y-22938083D02*
X6730700Y-22957131D01*
X6806891Y-22757131D02*
X6930700Y-22757131D01*
X6930700Y-22757131D02*
X6864034Y-22833322D01*
X6864034Y-22833322D02*
X6892605Y-22833322D01*
X6892605Y-22833322D02*
X6911653Y-22842845D01*
X6911653Y-22842845D02*
X6921177Y-22852369D01*
X6921177Y-22852369D02*
X6930700Y-22871417D01*
X6930700Y-22871417D02*
X6930700Y-22919036D01*
X6930700Y-22919036D02*
X6921177Y-22938083D01*
X6921177Y-22938083D02*
X6911653Y-22947607D01*
X6911653Y-22947607D02*
X6892605Y-22957131D01*
X6892605Y-22957131D02*
X6835462Y-22957131D01*
X6835462Y-22957131D02*
X6816415Y-22947607D01*
X6816415Y-22947607D02*
X6806891Y-22938083D01*
X7054510Y-22757131D02*
X7073558Y-22757131D01*
X7073558Y-22757131D02*
X7092605Y-22766655D01*
X7092605Y-22766655D02*
X7102129Y-22776179D01*
X7102129Y-22776179D02*
X7111653Y-22795226D01*
X7111653Y-22795226D02*
X7121177Y-22833322D01*
X7121177Y-22833322D02*
X7121177Y-22880941D01*
X7121177Y-22880941D02*
X7111653Y-22919036D01*
X7111653Y-22919036D02*
X7102129Y-22938083D01*
X7102129Y-22938083D02*
X7092605Y-22947607D01*
X7092605Y-22947607D02*
X7073558Y-22957131D01*
X7073558Y-22957131D02*
X7054510Y-22957131D01*
X7054510Y-22957131D02*
X7035462Y-22947607D01*
X7035462Y-22947607D02*
X7025938Y-22938083D01*
X7025938Y-22938083D02*
X7016415Y-22919036D01*
X7016415Y-22919036D02*
X7006891Y-22880941D01*
X7006891Y-22880941D02*
X7006891Y-22833322D01*
X7006891Y-22833322D02*
X7016415Y-22795226D01*
X7016415Y-22795226D02*
X7025938Y-22776179D01*
X7025938Y-22776179D02*
X7035462Y-22766655D01*
X7035462Y-22766655D02*
X7054510Y-22757131D01*
X7244986Y-22757131D02*
X7264034Y-22757131D01*
X7264034Y-22757131D02*
X7283081Y-22766655D01*
X7283081Y-22766655D02*
X7292605Y-22776179D01*
X7292605Y-22776179D02*
X7302129Y-22795226D01*
X7302129Y-22795226D02*
X7311653Y-22833322D01*
X7311653Y-22833322D02*
X7311653Y-22880941D01*
X7311653Y-22880941D02*
X7302129Y-22919036D01*
X7302129Y-22919036D02*
X7292605Y-22938083D01*
X7292605Y-22938083D02*
X7283081Y-22947607D01*
X7283081Y-22947607D02*
X7264034Y-22957131D01*
X7264034Y-22957131D02*
X7244986Y-22957131D01*
X7244986Y-22957131D02*
X7225938Y-22947607D01*
X7225938Y-22947607D02*
X7216415Y-22938083D01*
X7216415Y-22938083D02*
X7206891Y-22919036D01*
X7206891Y-22919036D02*
X7197367Y-22880941D01*
X7197367Y-22880941D02*
X7197367Y-22833322D01*
X7197367Y-22833322D02*
X7206891Y-22795226D01*
X7206891Y-22795226D02*
X7216415Y-22776179D01*
X7216415Y-22776179D02*
X7225938Y-22766655D01*
X7225938Y-22766655D02*
X7244986Y-22757131D01*
X7397367Y-22957131D02*
X7397367Y-22823798D01*
X7397367Y-22842845D02*
X7406891Y-22833322D01*
X7406891Y-22833322D02*
X7425938Y-22823798D01*
X7425938Y-22823798D02*
X7454510Y-22823798D01*
X7454510Y-22823798D02*
X7473558Y-22833322D01*
X7473558Y-22833322D02*
X7483081Y-22852369D01*
X7483081Y-22852369D02*
X7483081Y-22957131D01*
X7483081Y-22852369D02*
X7492605Y-22833322D01*
X7492605Y-22833322D02*
X7511653Y-22823798D01*
X7511653Y-22823798D02*
X7540224Y-22823798D01*
X7540224Y-22823798D02*
X7559272Y-22833322D01*
X7559272Y-22833322D02*
X7568796Y-22852369D01*
X7568796Y-22852369D02*
X7568796Y-22957131D01*
X7664034Y-22957131D02*
X7664034Y-22823798D01*
X7664034Y-22842845D02*
X7673558Y-22833322D01*
X7673558Y-22833322D02*
X7692605Y-22823798D01*
X7692605Y-22823798D02*
X7721177Y-22823798D01*
X7721177Y-22823798D02*
X7740224Y-22833322D01*
X7740224Y-22833322D02*
X7749748Y-22852369D01*
X7749748Y-22852369D02*
X7749748Y-22957131D01*
X7749748Y-22852369D02*
X7759272Y-22833322D01*
X7759272Y-22833322D02*
X7778319Y-22823798D01*
X7778319Y-22823798D02*
X7806891Y-22823798D01*
X7806891Y-22823798D02*
X7825939Y-22833322D01*
X7825939Y-22833322D02*
X7835462Y-22852369D01*
X7835462Y-22852369D02*
X7835462Y-22957131D01*
X8225939Y-22747607D02*
X8054510Y-23004750D01*
X8483082Y-22757131D02*
X8502129Y-22757131D01*
X8502129Y-22757131D02*
X8521177Y-22766655D01*
X8521177Y-22766655D02*
X8530701Y-22776179D01*
X8530701Y-22776179D02*
X8540224Y-22795226D01*
X8540224Y-22795226D02*
X8549748Y-22833322D01*
X8549748Y-22833322D02*
X8549748Y-22880941D01*
X8549748Y-22880941D02*
X8540224Y-22919036D01*
X8540224Y-22919036D02*
X8530701Y-22938083D01*
X8530701Y-22938083D02*
X8521177Y-22947607D01*
X8521177Y-22947607D02*
X8502129Y-22957131D01*
X8502129Y-22957131D02*
X8483082Y-22957131D01*
X8483082Y-22957131D02*
X8464034Y-22947607D01*
X8464034Y-22947607D02*
X8454510Y-22938083D01*
X8454510Y-22938083D02*
X8444986Y-22919036D01*
X8444986Y-22919036D02*
X8435463Y-22880941D01*
X8435463Y-22880941D02*
X8435463Y-22833322D01*
X8435463Y-22833322D02*
X8444986Y-22795226D01*
X8444986Y-22795226D02*
X8454510Y-22776179D01*
X8454510Y-22776179D02*
X8464034Y-22766655D01*
X8464034Y-22766655D02*
X8483082Y-22757131D01*
X8635463Y-22938083D02*
X8644986Y-22947607D01*
X8644986Y-22947607D02*
X8635463Y-22957131D01*
X8635463Y-22957131D02*
X8625939Y-22947607D01*
X8625939Y-22947607D02*
X8635463Y-22938083D01*
X8635463Y-22938083D02*
X8635463Y-22957131D01*
X8768796Y-22757131D02*
X8787844Y-22757131D01*
X8787844Y-22757131D02*
X8806891Y-22766655D01*
X8806891Y-22766655D02*
X8816415Y-22776179D01*
X8816415Y-22776179D02*
X8825939Y-22795226D01*
X8825939Y-22795226D02*
X8835463Y-22833322D01*
X8835463Y-22833322D02*
X8835463Y-22880941D01*
X8835463Y-22880941D02*
X8825939Y-22919036D01*
X8825939Y-22919036D02*
X8816415Y-22938083D01*
X8816415Y-22938083D02*
X8806891Y-22947607D01*
X8806891Y-22947607D02*
X8787844Y-22957131D01*
X8787844Y-22957131D02*
X8768796Y-22957131D01*
X8768796Y-22957131D02*
X8749748Y-22947607D01*
X8749748Y-22947607D02*
X8740224Y-22938083D01*
X8740224Y-22938083D02*
X8730701Y-22919036D01*
X8730701Y-22919036D02*
X8721177Y-22880941D01*
X8721177Y-22880941D02*
X8721177Y-22833322D01*
X8721177Y-22833322D02*
X8730701Y-22795226D01*
X8730701Y-22795226D02*
X8740224Y-22776179D01*
X8740224Y-22776179D02*
X8749748Y-22766655D01*
X8749748Y-22766655D02*
X8768796Y-22757131D01*
X9025939Y-22957131D02*
X8911653Y-22957131D01*
X8968796Y-22957131D02*
X8968796Y-22757131D01*
X8968796Y-22757131D02*
X8949748Y-22785703D01*
X8949748Y-22785703D02*
X8930701Y-22804750D01*
X8930701Y-22804750D02*
X8911653Y-22814274D01*
X9216415Y-22957131D02*
X9102129Y-22957131D01*
X9159272Y-22957131D02*
X9159272Y-22757131D01*
X9159272Y-22757131D02*
X9140224Y-22785703D01*
X9140224Y-22785703D02*
X9121177Y-22804750D01*
X9121177Y-22804750D02*
X9102129Y-22814274D01*
X9330701Y-22842845D02*
X9311653Y-22833322D01*
X9311653Y-22833322D02*
X9302129Y-22823798D01*
X9302129Y-22823798D02*
X9292605Y-22804750D01*
X9292605Y-22804750D02*
X9292605Y-22795226D01*
X9292605Y-22795226D02*
X9302129Y-22776179D01*
X9302129Y-22776179D02*
X9311653Y-22766655D01*
X9311653Y-22766655D02*
X9330701Y-22757131D01*
X9330701Y-22757131D02*
X9368796Y-22757131D01*
X9368796Y-22757131D02*
X9387844Y-22766655D01*
X9387844Y-22766655D02*
X9397367Y-22776179D01*
X9397367Y-22776179D02*
X9406891Y-22795226D01*
X9406891Y-22795226D02*
X9406891Y-22804750D01*
X9406891Y-22804750D02*
X9397367Y-22823798D01*
X9397367Y-22823798D02*
X9387844Y-22833322D01*
X9387844Y-22833322D02*
X9368796Y-22842845D01*
X9368796Y-22842845D02*
X9330701Y-22842845D01*
X9330701Y-22842845D02*
X9311653Y-22852369D01*
X9311653Y-22852369D02*
X9302129Y-22861893D01*
X9302129Y-22861893D02*
X9292605Y-22880941D01*
X9292605Y-22880941D02*
X9292605Y-22919036D01*
X9292605Y-22919036D02*
X9302129Y-22938083D01*
X9302129Y-22938083D02*
X9311653Y-22947607D01*
X9311653Y-22947607D02*
X9330701Y-22957131D01*
X9330701Y-22957131D02*
X9368796Y-22957131D01*
X9368796Y-22957131D02*
X9387844Y-22947607D01*
X9387844Y-22947607D02*
X9397367Y-22938083D01*
X9397367Y-22938083D02*
X9406891Y-22919036D01*
X9406891Y-22919036D02*
X9406891Y-22880941D01*
X9406891Y-22880941D02*
X9397367Y-22861893D01*
X9397367Y-22861893D02*
X9387844Y-22852369D01*
X9387844Y-22852369D02*
X9368796Y-22842845D01*
X9483082Y-22757131D02*
X9483082Y-22795226D01*
X9559272Y-22757131D02*
X9559272Y-22795226D01*
X9854510Y-23033322D02*
X9844986Y-23023798D01*
X9844986Y-23023798D02*
X9825939Y-22995226D01*
X9825939Y-22995226D02*
X9816415Y-22976179D01*
X9816415Y-22976179D02*
X9806891Y-22947607D01*
X9806891Y-22947607D02*
X9797367Y-22899988D01*
X9797367Y-22899988D02*
X9797367Y-22861893D01*
X9797367Y-22861893D02*
X9806891Y-22814274D01*
X9806891Y-22814274D02*
X9816415Y-22785703D01*
X9816415Y-22785703D02*
X9825939Y-22766655D01*
X9825939Y-22766655D02*
X9844986Y-22738083D01*
X9844986Y-22738083D02*
X9854510Y-22728560D01*
X10016415Y-22757131D02*
X9978320Y-22757131D01*
X9978320Y-22757131D02*
X9959272Y-22766655D01*
X9959272Y-22766655D02*
X9949748Y-22776179D01*
X9949748Y-22776179D02*
X9930701Y-22804750D01*
X9930701Y-22804750D02*
X9921177Y-22842845D01*
X9921177Y-22842845D02*
X9921177Y-22919036D01*
X9921177Y-22919036D02*
X9930701Y-22938083D01*
X9930701Y-22938083D02*
X9940225Y-22947607D01*
X9940225Y-22947607D02*
X9959272Y-22957131D01*
X9959272Y-22957131D02*
X9997367Y-22957131D01*
X9997367Y-22957131D02*
X10016415Y-22947607D01*
X10016415Y-22947607D02*
X10025939Y-22938083D01*
X10025939Y-22938083D02*
X10035463Y-22919036D01*
X10035463Y-22919036D02*
X10035463Y-22871417D01*
X10035463Y-22871417D02*
X10025939Y-22852369D01*
X10025939Y-22852369D02*
X10016415Y-22842845D01*
X10016415Y-22842845D02*
X9997367Y-22833322D01*
X9997367Y-22833322D02*
X9959272Y-22833322D01*
X9959272Y-22833322D02*
X9940225Y-22842845D01*
X9940225Y-22842845D02*
X9930701Y-22852369D01*
X9930701Y-22852369D02*
X9921177Y-22871417D01*
X10206891Y-22823798D02*
X10206891Y-22957131D01*
X10159272Y-22747607D02*
X10111653Y-22890464D01*
X10111653Y-22890464D02*
X10235463Y-22890464D01*
X10464034Y-22957131D02*
X10464034Y-22757131D01*
X10549748Y-22957131D02*
X10549748Y-22852369D01*
X10549748Y-22852369D02*
X10540225Y-22833322D01*
X10540225Y-22833322D02*
X10521177Y-22823798D01*
X10521177Y-22823798D02*
X10492606Y-22823798D01*
X10492606Y-22823798D02*
X10473558Y-22833322D01*
X10473558Y-22833322D02*
X10464034Y-22842845D01*
X10673558Y-22957131D02*
X10654510Y-22947607D01*
X10654510Y-22947607D02*
X10644987Y-22938083D01*
X10644987Y-22938083D02*
X10635463Y-22919036D01*
X10635463Y-22919036D02*
X10635463Y-22861893D01*
X10635463Y-22861893D02*
X10644987Y-22842845D01*
X10644987Y-22842845D02*
X10654510Y-22833322D01*
X10654510Y-22833322D02*
X10673558Y-22823798D01*
X10673558Y-22823798D02*
X10702129Y-22823798D01*
X10702129Y-22823798D02*
X10721177Y-22833322D01*
X10721177Y-22833322D02*
X10730701Y-22842845D01*
X10730701Y-22842845D02*
X10740225Y-22861893D01*
X10740225Y-22861893D02*
X10740225Y-22919036D01*
X10740225Y-22919036D02*
X10730701Y-22938083D01*
X10730701Y-22938083D02*
X10721177Y-22947607D01*
X10721177Y-22947607D02*
X10702129Y-22957131D01*
X10702129Y-22957131D02*
X10673558Y-22957131D01*
X10854510Y-22957131D02*
X10835463Y-22947607D01*
X10835463Y-22947607D02*
X10825939Y-22928560D01*
X10825939Y-22928560D02*
X10825939Y-22757131D01*
X11006891Y-22947607D02*
X10987844Y-22957131D01*
X10987844Y-22957131D02*
X10949748Y-22957131D01*
X10949748Y-22957131D02*
X10930701Y-22947607D01*
X10930701Y-22947607D02*
X10921177Y-22928560D01*
X10921177Y-22928560D02*
X10921177Y-22852369D01*
X10921177Y-22852369D02*
X10930701Y-22833322D01*
X10930701Y-22833322D02*
X10949748Y-22823798D01*
X10949748Y-22823798D02*
X10987844Y-22823798D01*
X10987844Y-22823798D02*
X11006891Y-22833322D01*
X11006891Y-22833322D02*
X11016415Y-22852369D01*
X11016415Y-22852369D02*
X11016415Y-22871417D01*
X11016415Y-22871417D02*
X10921177Y-22890464D01*
X11092606Y-22947607D02*
X11111653Y-22957131D01*
X11111653Y-22957131D02*
X11149748Y-22957131D01*
X11149748Y-22957131D02*
X11168796Y-22947607D01*
X11168796Y-22947607D02*
X11178320Y-22928560D01*
X11178320Y-22928560D02*
X11178320Y-22919036D01*
X11178320Y-22919036D02*
X11168796Y-22899988D01*
X11168796Y-22899988D02*
X11149748Y-22890464D01*
X11149748Y-22890464D02*
X11121177Y-22890464D01*
X11121177Y-22890464D02*
X11102129Y-22880941D01*
X11102129Y-22880941D02*
X11092606Y-22861893D01*
X11092606Y-22861893D02*
X11092606Y-22852369D01*
X11092606Y-22852369D02*
X11102129Y-22833322D01*
X11102129Y-22833322D02*
X11121177Y-22823798D01*
X11121177Y-22823798D02*
X11149748Y-22823798D01*
X11149748Y-22823798D02*
X11168796Y-22833322D01*
X11244987Y-23033322D02*
X11254510Y-23023798D01*
X11254510Y-23023798D02*
X11273558Y-22995226D01*
X11273558Y-22995226D02*
X11283082Y-22976179D01*
X11283082Y-22976179D02*
X11292606Y-22947607D01*
X11292606Y-22947607D02*
X11302129Y-22899988D01*
X11302129Y-22899988D02*
X11302129Y-22861893D01*
X11302129Y-22861893D02*
X11292606Y-22814274D01*
X11292606Y-22814274D02*
X11283082Y-22785703D01*
X11283082Y-22785703D02*
X11273558Y-22766655D01*
X11273558Y-22766655D02*
X11254510Y-22738083D01*
X11254510Y-22738083D02*
X11244987Y-22728560D01*
D12*
X6279447Y-23129647D02*
G75*
G02*
X6239447Y-23129647I-20000J0D01*
G01*
X6239447Y-23129647D02*
G75*
G02*
X6279447Y-23129647I20000J0D01*
G01*
D11*
X6578319Y-23021131D02*
X6597367Y-23021131D01*
X6597367Y-23021131D02*
X6616415Y-23030655D01*
X6616415Y-23030655D02*
X6625938Y-23040179D01*
X6625938Y-23040179D02*
X6635462Y-23059226D01*
X6635462Y-23059226D02*
X6644986Y-23097322D01*
X6644986Y-23097322D02*
X6644986Y-23144941D01*
X6644986Y-23144941D02*
X6635462Y-23183036D01*
X6635462Y-23183036D02*
X6625938Y-23202083D01*
X6625938Y-23202083D02*
X6616415Y-23211607D01*
X6616415Y-23211607D02*
X6597367Y-23221131D01*
X6597367Y-23221131D02*
X6578319Y-23221131D01*
X6578319Y-23221131D02*
X6559272Y-23211607D01*
X6559272Y-23211607D02*
X6549748Y-23202083D01*
X6549748Y-23202083D02*
X6540224Y-23183036D01*
X6540224Y-23183036D02*
X6530700Y-23144941D01*
X6530700Y-23144941D02*
X6530700Y-23097322D01*
X6530700Y-23097322D02*
X6540224Y-23059226D01*
X6540224Y-23059226D02*
X6549748Y-23040179D01*
X6549748Y-23040179D02*
X6559272Y-23030655D01*
X6559272Y-23030655D02*
X6578319Y-23021131D01*
X6730700Y-23202083D02*
X6740224Y-23211607D01*
X6740224Y-23211607D02*
X6730700Y-23221131D01*
X6730700Y-23221131D02*
X6721177Y-23211607D01*
X6721177Y-23211607D02*
X6730700Y-23202083D01*
X6730700Y-23202083D02*
X6730700Y-23221131D01*
X6911653Y-23087798D02*
X6911653Y-23221131D01*
X6864034Y-23011607D02*
X6816415Y-23154464D01*
X6816415Y-23154464D02*
X6940224Y-23154464D01*
X7054510Y-23021131D02*
X7073558Y-23021131D01*
X7073558Y-23021131D02*
X7092605Y-23030655D01*
X7092605Y-23030655D02*
X7102129Y-23040179D01*
X7102129Y-23040179D02*
X7111653Y-23059226D01*
X7111653Y-23059226D02*
X7121177Y-23097322D01*
X7121177Y-23097322D02*
X7121177Y-23144941D01*
X7121177Y-23144941D02*
X7111653Y-23183036D01*
X7111653Y-23183036D02*
X7102129Y-23202083D01*
X7102129Y-23202083D02*
X7092605Y-23211607D01*
X7092605Y-23211607D02*
X7073558Y-23221131D01*
X7073558Y-23221131D02*
X7054510Y-23221131D01*
X7054510Y-23221131D02*
X7035462Y-23211607D01*
X7035462Y-23211607D02*
X7025938Y-23202083D01*
X7025938Y-23202083D02*
X7016415Y-23183036D01*
X7016415Y-23183036D02*
X7006891Y-23144941D01*
X7006891Y-23144941D02*
X7006891Y-23097322D01*
X7006891Y-23097322D02*
X7016415Y-23059226D01*
X7016415Y-23059226D02*
X7025938Y-23040179D01*
X7025938Y-23040179D02*
X7035462Y-23030655D01*
X7035462Y-23030655D02*
X7054510Y-23021131D01*
X7244986Y-23021131D02*
X7264034Y-23021131D01*
X7264034Y-23021131D02*
X7283081Y-23030655D01*
X7283081Y-23030655D02*
X7292605Y-23040179D01*
X7292605Y-23040179D02*
X7302129Y-23059226D01*
X7302129Y-23059226D02*
X7311653Y-23097322D01*
X7311653Y-23097322D02*
X7311653Y-23144941D01*
X7311653Y-23144941D02*
X7302129Y-23183036D01*
X7302129Y-23183036D02*
X7292605Y-23202083D01*
X7292605Y-23202083D02*
X7283081Y-23211607D01*
X7283081Y-23211607D02*
X7264034Y-23221131D01*
X7264034Y-23221131D02*
X7244986Y-23221131D01*
X7244986Y-23221131D02*
X7225938Y-23211607D01*
X7225938Y-23211607D02*
X7216415Y-23202083D01*
X7216415Y-23202083D02*
X7206891Y-23183036D01*
X7206891Y-23183036D02*
X7197367Y-23144941D01*
X7197367Y-23144941D02*
X7197367Y-23097322D01*
X7197367Y-23097322D02*
X7206891Y-23059226D01*
X7206891Y-23059226D02*
X7216415Y-23040179D01*
X7216415Y-23040179D02*
X7225938Y-23030655D01*
X7225938Y-23030655D02*
X7244986Y-23021131D01*
X7397367Y-23221131D02*
X7397367Y-23087798D01*
X7397367Y-23106845D02*
X7406891Y-23097322D01*
X7406891Y-23097322D02*
X7425938Y-23087798D01*
X7425938Y-23087798D02*
X7454510Y-23087798D01*
X7454510Y-23087798D02*
X7473558Y-23097322D01*
X7473558Y-23097322D02*
X7483081Y-23116369D01*
X7483081Y-23116369D02*
X7483081Y-23221131D01*
X7483081Y-23116369D02*
X7492605Y-23097322D01*
X7492605Y-23097322D02*
X7511653Y-23087798D01*
X7511653Y-23087798D02*
X7540224Y-23087798D01*
X7540224Y-23087798D02*
X7559272Y-23097322D01*
X7559272Y-23097322D02*
X7568796Y-23116369D01*
X7568796Y-23116369D02*
X7568796Y-23221131D01*
X7664034Y-23221131D02*
X7664034Y-23087798D01*
X7664034Y-23106845D02*
X7673558Y-23097322D01*
X7673558Y-23097322D02*
X7692605Y-23087798D01*
X7692605Y-23087798D02*
X7721177Y-23087798D01*
X7721177Y-23087798D02*
X7740224Y-23097322D01*
X7740224Y-23097322D02*
X7749748Y-23116369D01*
X7749748Y-23116369D02*
X7749748Y-23221131D01*
X7749748Y-23116369D02*
X7759272Y-23097322D01*
X7759272Y-23097322D02*
X7778319Y-23087798D01*
X7778319Y-23087798D02*
X7806891Y-23087798D01*
X7806891Y-23087798D02*
X7825939Y-23097322D01*
X7825939Y-23097322D02*
X7835462Y-23116369D01*
X7835462Y-23116369D02*
X7835462Y-23221131D01*
X8225939Y-23011607D02*
X8054510Y-23268750D01*
X8483082Y-23021131D02*
X8502129Y-23021131D01*
X8502129Y-23021131D02*
X8521177Y-23030655D01*
X8521177Y-23030655D02*
X8530701Y-23040179D01*
X8530701Y-23040179D02*
X8540224Y-23059226D01*
X8540224Y-23059226D02*
X8549748Y-23097322D01*
X8549748Y-23097322D02*
X8549748Y-23144941D01*
X8549748Y-23144941D02*
X8540224Y-23183036D01*
X8540224Y-23183036D02*
X8530701Y-23202083D01*
X8530701Y-23202083D02*
X8521177Y-23211607D01*
X8521177Y-23211607D02*
X8502129Y-23221131D01*
X8502129Y-23221131D02*
X8483082Y-23221131D01*
X8483082Y-23221131D02*
X8464034Y-23211607D01*
X8464034Y-23211607D02*
X8454510Y-23202083D01*
X8454510Y-23202083D02*
X8444986Y-23183036D01*
X8444986Y-23183036D02*
X8435463Y-23144941D01*
X8435463Y-23144941D02*
X8435463Y-23097322D01*
X8435463Y-23097322D02*
X8444986Y-23059226D01*
X8444986Y-23059226D02*
X8454510Y-23040179D01*
X8454510Y-23040179D02*
X8464034Y-23030655D01*
X8464034Y-23030655D02*
X8483082Y-23021131D01*
X8635463Y-23202083D02*
X8644986Y-23211607D01*
X8644986Y-23211607D02*
X8635463Y-23221131D01*
X8635463Y-23221131D02*
X8625939Y-23211607D01*
X8625939Y-23211607D02*
X8635463Y-23202083D01*
X8635463Y-23202083D02*
X8635463Y-23221131D01*
X8768796Y-23021131D02*
X8787844Y-23021131D01*
X8787844Y-23021131D02*
X8806891Y-23030655D01*
X8806891Y-23030655D02*
X8816415Y-23040179D01*
X8816415Y-23040179D02*
X8825939Y-23059226D01*
X8825939Y-23059226D02*
X8835463Y-23097322D01*
X8835463Y-23097322D02*
X8835463Y-23144941D01*
X8835463Y-23144941D02*
X8825939Y-23183036D01*
X8825939Y-23183036D02*
X8816415Y-23202083D01*
X8816415Y-23202083D02*
X8806891Y-23211607D01*
X8806891Y-23211607D02*
X8787844Y-23221131D01*
X8787844Y-23221131D02*
X8768796Y-23221131D01*
X8768796Y-23221131D02*
X8749748Y-23211607D01*
X8749748Y-23211607D02*
X8740224Y-23202083D01*
X8740224Y-23202083D02*
X8730701Y-23183036D01*
X8730701Y-23183036D02*
X8721177Y-23144941D01*
X8721177Y-23144941D02*
X8721177Y-23097322D01*
X8721177Y-23097322D02*
X8730701Y-23059226D01*
X8730701Y-23059226D02*
X8740224Y-23040179D01*
X8740224Y-23040179D02*
X8749748Y-23030655D01*
X8749748Y-23030655D02*
X8768796Y-23021131D01*
X9025939Y-23221131D02*
X8911653Y-23221131D01*
X8968796Y-23221131D02*
X8968796Y-23021131D01*
X8968796Y-23021131D02*
X8949748Y-23049703D01*
X8949748Y-23049703D02*
X8930701Y-23068750D01*
X8930701Y-23068750D02*
X8911653Y-23078274D01*
X9206891Y-23021131D02*
X9111653Y-23021131D01*
X9111653Y-23021131D02*
X9102129Y-23116369D01*
X9102129Y-23116369D02*
X9111653Y-23106845D01*
X9111653Y-23106845D02*
X9130701Y-23097322D01*
X9130701Y-23097322D02*
X9178320Y-23097322D01*
X9178320Y-23097322D02*
X9197367Y-23106845D01*
X9197367Y-23106845D02*
X9206891Y-23116369D01*
X9206891Y-23116369D02*
X9216415Y-23135417D01*
X9216415Y-23135417D02*
X9216415Y-23183036D01*
X9216415Y-23183036D02*
X9206891Y-23202083D01*
X9206891Y-23202083D02*
X9197367Y-23211607D01*
X9197367Y-23211607D02*
X9178320Y-23221131D01*
X9178320Y-23221131D02*
X9130701Y-23221131D01*
X9130701Y-23221131D02*
X9111653Y-23211607D01*
X9111653Y-23211607D02*
X9102129Y-23202083D01*
X9283082Y-23021131D02*
X9416415Y-23021131D01*
X9416415Y-23021131D02*
X9330701Y-23221131D01*
X9483082Y-23021131D02*
X9483082Y-23059226D01*
X9559272Y-23021131D02*
X9559272Y-23059226D01*
X9854510Y-23297322D02*
X9844986Y-23287798D01*
X9844986Y-23287798D02*
X9825939Y-23259226D01*
X9825939Y-23259226D02*
X9816415Y-23240179D01*
X9816415Y-23240179D02*
X9806891Y-23211607D01*
X9806891Y-23211607D02*
X9797367Y-23163988D01*
X9797367Y-23163988D02*
X9797367Y-23125893D01*
X9797367Y-23125893D02*
X9806891Y-23078274D01*
X9806891Y-23078274D02*
X9816415Y-23049703D01*
X9816415Y-23049703D02*
X9825939Y-23030655D01*
X9825939Y-23030655D02*
X9844986Y-23002083D01*
X9844986Y-23002083D02*
X9854510Y-22992560D01*
X10016415Y-23021131D02*
X9978320Y-23021131D01*
X9978320Y-23021131D02*
X9959272Y-23030655D01*
X9959272Y-23030655D02*
X9949748Y-23040179D01*
X9949748Y-23040179D02*
X9930701Y-23068750D01*
X9930701Y-23068750D02*
X9921177Y-23106845D01*
X9921177Y-23106845D02*
X9921177Y-23183036D01*
X9921177Y-23183036D02*
X9930701Y-23202083D01*
X9930701Y-23202083D02*
X9940225Y-23211607D01*
X9940225Y-23211607D02*
X9959272Y-23221131D01*
X9959272Y-23221131D02*
X9997367Y-23221131D01*
X9997367Y-23221131D02*
X10016415Y-23211607D01*
X10016415Y-23211607D02*
X10025939Y-23202083D01*
X10025939Y-23202083D02*
X10035463Y-23183036D01*
X10035463Y-23183036D02*
X10035463Y-23135417D01*
X10035463Y-23135417D02*
X10025939Y-23116369D01*
X10025939Y-23116369D02*
X10016415Y-23106845D01*
X10016415Y-23106845D02*
X9997367Y-23097322D01*
X9997367Y-23097322D02*
X9959272Y-23097322D01*
X9959272Y-23097322D02*
X9940225Y-23106845D01*
X9940225Y-23106845D02*
X9930701Y-23116369D01*
X9930701Y-23116369D02*
X9921177Y-23135417D01*
X10206891Y-23087798D02*
X10206891Y-23221131D01*
X10159272Y-23011607D02*
X10111653Y-23154464D01*
X10111653Y-23154464D02*
X10235463Y-23154464D01*
X10464034Y-23221131D02*
X10464034Y-23021131D01*
X10549748Y-23221131D02*
X10549748Y-23116369D01*
X10549748Y-23116369D02*
X10540225Y-23097322D01*
X10540225Y-23097322D02*
X10521177Y-23087798D01*
X10521177Y-23087798D02*
X10492606Y-23087798D01*
X10492606Y-23087798D02*
X10473558Y-23097322D01*
X10473558Y-23097322D02*
X10464034Y-23106845D01*
X10673558Y-23221131D02*
X10654510Y-23211607D01*
X10654510Y-23211607D02*
X10644987Y-23202083D01*
X10644987Y-23202083D02*
X10635463Y-23183036D01*
X10635463Y-23183036D02*
X10635463Y-23125893D01*
X10635463Y-23125893D02*
X10644987Y-23106845D01*
X10644987Y-23106845D02*
X10654510Y-23097322D01*
X10654510Y-23097322D02*
X10673558Y-23087798D01*
X10673558Y-23087798D02*
X10702129Y-23087798D01*
X10702129Y-23087798D02*
X10721177Y-23097322D01*
X10721177Y-23097322D02*
X10730701Y-23106845D01*
X10730701Y-23106845D02*
X10740225Y-23125893D01*
X10740225Y-23125893D02*
X10740225Y-23183036D01*
X10740225Y-23183036D02*
X10730701Y-23202083D01*
X10730701Y-23202083D02*
X10721177Y-23211607D01*
X10721177Y-23211607D02*
X10702129Y-23221131D01*
X10702129Y-23221131D02*
X10673558Y-23221131D01*
X10854510Y-23221131D02*
X10835463Y-23211607D01*
X10835463Y-23211607D02*
X10825939Y-23192560D01*
X10825939Y-23192560D02*
X10825939Y-23021131D01*
X11006891Y-23211607D02*
X10987844Y-23221131D01*
X10987844Y-23221131D02*
X10949748Y-23221131D01*
X10949748Y-23221131D02*
X10930701Y-23211607D01*
X10930701Y-23211607D02*
X10921177Y-23192560D01*
X10921177Y-23192560D02*
X10921177Y-23116369D01*
X10921177Y-23116369D02*
X10930701Y-23097322D01*
X10930701Y-23097322D02*
X10949748Y-23087798D01*
X10949748Y-23087798D02*
X10987844Y-23087798D01*
X10987844Y-23087798D02*
X11006891Y-23097322D01*
X11006891Y-23097322D02*
X11016415Y-23116369D01*
X11016415Y-23116369D02*
X11016415Y-23135417D01*
X11016415Y-23135417D02*
X10921177Y-23154464D01*
X11092606Y-23211607D02*
X11111653Y-23221131D01*
X11111653Y-23221131D02*
X11149748Y-23221131D01*
X11149748Y-23221131D02*
X11168796Y-23211607D01*
X11168796Y-23211607D02*
X11178320Y-23192560D01*
X11178320Y-23192560D02*
X11178320Y-23183036D01*
X11178320Y-23183036D02*
X11168796Y-23163988D01*
X11168796Y-23163988D02*
X11149748Y-23154464D01*
X11149748Y-23154464D02*
X11121177Y-23154464D01*
X11121177Y-23154464D02*
X11102129Y-23144941D01*
X11102129Y-23144941D02*
X11092606Y-23125893D01*
X11092606Y-23125893D02*
X11092606Y-23116369D01*
X11092606Y-23116369D02*
X11102129Y-23097322D01*
X11102129Y-23097322D02*
X11121177Y-23087798D01*
X11121177Y-23087798D02*
X11149748Y-23087798D01*
X11149748Y-23087798D02*
X11168796Y-23097322D01*
X11244987Y-23297322D02*
X11254510Y-23287798D01*
X11254510Y-23287798D02*
X11273558Y-23259226D01*
X11273558Y-23259226D02*
X11283082Y-23240179D01*
X11283082Y-23240179D02*
X11292606Y-23211607D01*
X11292606Y-23211607D02*
X11302129Y-23163988D01*
X11302129Y-23163988D02*
X11302129Y-23125893D01*
X11302129Y-23125893D02*
X11292606Y-23078274D01*
X11292606Y-23078274D02*
X11283082Y-23049703D01*
X11283082Y-23049703D02*
X11273558Y-23030655D01*
X11273558Y-23030655D02*
X11254510Y-23002083D01*
X11254510Y-23002083D02*
X11244987Y-22992560D01*
D12*
X6229447Y-23343647D02*
X6229447Y-23443647D01*
X6179447Y-23393647D02*
X6279447Y-23393647D01*
D11*
X6644986Y-23485131D02*
X6530700Y-23485131D01*
X6587843Y-23485131D02*
X6587843Y-23285131D01*
X6587843Y-23285131D02*
X6568796Y-23313703D01*
X6568796Y-23313703D02*
X6549748Y-23332750D01*
X6549748Y-23332750D02*
X6530700Y-23342274D01*
X6730700Y-23466083D02*
X6740224Y-23475607D01*
X6740224Y-23475607D02*
X6730700Y-23485131D01*
X6730700Y-23485131D02*
X6721177Y-23475607D01*
X6721177Y-23475607D02*
X6730700Y-23466083D01*
X6730700Y-23466083D02*
X6730700Y-23485131D01*
X6864034Y-23285131D02*
X6883081Y-23285131D01*
X6883081Y-23285131D02*
X6902129Y-23294655D01*
X6902129Y-23294655D02*
X6911653Y-23304179D01*
X6911653Y-23304179D02*
X6921177Y-23323226D01*
X6921177Y-23323226D02*
X6930700Y-23361322D01*
X6930700Y-23361322D02*
X6930700Y-23408941D01*
X6930700Y-23408941D02*
X6921177Y-23447036D01*
X6921177Y-23447036D02*
X6911653Y-23466083D01*
X6911653Y-23466083D02*
X6902129Y-23475607D01*
X6902129Y-23475607D02*
X6883081Y-23485131D01*
X6883081Y-23485131D02*
X6864034Y-23485131D01*
X6864034Y-23485131D02*
X6844986Y-23475607D01*
X6844986Y-23475607D02*
X6835462Y-23466083D01*
X6835462Y-23466083D02*
X6825938Y-23447036D01*
X6825938Y-23447036D02*
X6816415Y-23408941D01*
X6816415Y-23408941D02*
X6816415Y-23361322D01*
X6816415Y-23361322D02*
X6825938Y-23323226D01*
X6825938Y-23323226D02*
X6835462Y-23304179D01*
X6835462Y-23304179D02*
X6844986Y-23294655D01*
X6844986Y-23294655D02*
X6864034Y-23285131D01*
X7054510Y-23285131D02*
X7073558Y-23285131D01*
X7073558Y-23285131D02*
X7092605Y-23294655D01*
X7092605Y-23294655D02*
X7102129Y-23304179D01*
X7102129Y-23304179D02*
X7111653Y-23323226D01*
X7111653Y-23323226D02*
X7121177Y-23361322D01*
X7121177Y-23361322D02*
X7121177Y-23408941D01*
X7121177Y-23408941D02*
X7111653Y-23447036D01*
X7111653Y-23447036D02*
X7102129Y-23466083D01*
X7102129Y-23466083D02*
X7092605Y-23475607D01*
X7092605Y-23475607D02*
X7073558Y-23485131D01*
X7073558Y-23485131D02*
X7054510Y-23485131D01*
X7054510Y-23485131D02*
X7035462Y-23475607D01*
X7035462Y-23475607D02*
X7025938Y-23466083D01*
X7025938Y-23466083D02*
X7016415Y-23447036D01*
X7016415Y-23447036D02*
X7006891Y-23408941D01*
X7006891Y-23408941D02*
X7006891Y-23361322D01*
X7006891Y-23361322D02*
X7016415Y-23323226D01*
X7016415Y-23323226D02*
X7025938Y-23304179D01*
X7025938Y-23304179D02*
X7035462Y-23294655D01*
X7035462Y-23294655D02*
X7054510Y-23285131D01*
X7244986Y-23285131D02*
X7264034Y-23285131D01*
X7264034Y-23285131D02*
X7283081Y-23294655D01*
X7283081Y-23294655D02*
X7292605Y-23304179D01*
X7292605Y-23304179D02*
X7302129Y-23323226D01*
X7302129Y-23323226D02*
X7311653Y-23361322D01*
X7311653Y-23361322D02*
X7311653Y-23408941D01*
X7311653Y-23408941D02*
X7302129Y-23447036D01*
X7302129Y-23447036D02*
X7292605Y-23466083D01*
X7292605Y-23466083D02*
X7283081Y-23475607D01*
X7283081Y-23475607D02*
X7264034Y-23485131D01*
X7264034Y-23485131D02*
X7244986Y-23485131D01*
X7244986Y-23485131D02*
X7225938Y-23475607D01*
X7225938Y-23475607D02*
X7216415Y-23466083D01*
X7216415Y-23466083D02*
X7206891Y-23447036D01*
X7206891Y-23447036D02*
X7197367Y-23408941D01*
X7197367Y-23408941D02*
X7197367Y-23361322D01*
X7197367Y-23361322D02*
X7206891Y-23323226D01*
X7206891Y-23323226D02*
X7216415Y-23304179D01*
X7216415Y-23304179D02*
X7225938Y-23294655D01*
X7225938Y-23294655D02*
X7244986Y-23285131D01*
X7397367Y-23485131D02*
X7397367Y-23351798D01*
X7397367Y-23370845D02*
X7406891Y-23361322D01*
X7406891Y-23361322D02*
X7425938Y-23351798D01*
X7425938Y-23351798D02*
X7454510Y-23351798D01*
X7454510Y-23351798D02*
X7473558Y-23361322D01*
X7473558Y-23361322D02*
X7483081Y-23380369D01*
X7483081Y-23380369D02*
X7483081Y-23485131D01*
X7483081Y-23380369D02*
X7492605Y-23361322D01*
X7492605Y-23361322D02*
X7511653Y-23351798D01*
X7511653Y-23351798D02*
X7540224Y-23351798D01*
X7540224Y-23351798D02*
X7559272Y-23361322D01*
X7559272Y-23361322D02*
X7568796Y-23380369D01*
X7568796Y-23380369D02*
X7568796Y-23485131D01*
X7664034Y-23485131D02*
X7664034Y-23351798D01*
X7664034Y-23370845D02*
X7673558Y-23361322D01*
X7673558Y-23361322D02*
X7692605Y-23351798D01*
X7692605Y-23351798D02*
X7721177Y-23351798D01*
X7721177Y-23351798D02*
X7740224Y-23361322D01*
X7740224Y-23361322D02*
X7749748Y-23380369D01*
X7749748Y-23380369D02*
X7749748Y-23485131D01*
X7749748Y-23380369D02*
X7759272Y-23361322D01*
X7759272Y-23361322D02*
X7778319Y-23351798D01*
X7778319Y-23351798D02*
X7806891Y-23351798D01*
X7806891Y-23351798D02*
X7825939Y-23361322D01*
X7825939Y-23361322D02*
X7835462Y-23380369D01*
X7835462Y-23380369D02*
X7835462Y-23485131D01*
X8225939Y-23275607D02*
X8054510Y-23532750D01*
X8483082Y-23285131D02*
X8502129Y-23285131D01*
X8502129Y-23285131D02*
X8521177Y-23294655D01*
X8521177Y-23294655D02*
X8530701Y-23304179D01*
X8530701Y-23304179D02*
X8540224Y-23323226D01*
X8540224Y-23323226D02*
X8549748Y-23361322D01*
X8549748Y-23361322D02*
X8549748Y-23408941D01*
X8549748Y-23408941D02*
X8540224Y-23447036D01*
X8540224Y-23447036D02*
X8530701Y-23466083D01*
X8530701Y-23466083D02*
X8521177Y-23475607D01*
X8521177Y-23475607D02*
X8502129Y-23485131D01*
X8502129Y-23485131D02*
X8483082Y-23485131D01*
X8483082Y-23485131D02*
X8464034Y-23475607D01*
X8464034Y-23475607D02*
X8454510Y-23466083D01*
X8454510Y-23466083D02*
X8444986Y-23447036D01*
X8444986Y-23447036D02*
X8435463Y-23408941D01*
X8435463Y-23408941D02*
X8435463Y-23361322D01*
X8435463Y-23361322D02*
X8444986Y-23323226D01*
X8444986Y-23323226D02*
X8454510Y-23304179D01*
X8454510Y-23304179D02*
X8464034Y-23294655D01*
X8464034Y-23294655D02*
X8483082Y-23285131D01*
X8635463Y-23466083D02*
X8644986Y-23475607D01*
X8644986Y-23475607D02*
X8635463Y-23485131D01*
X8635463Y-23485131D02*
X8625939Y-23475607D01*
X8625939Y-23475607D02*
X8635463Y-23466083D01*
X8635463Y-23466083D02*
X8635463Y-23485131D01*
X8768796Y-23285131D02*
X8787844Y-23285131D01*
X8787844Y-23285131D02*
X8806891Y-23294655D01*
X8806891Y-23294655D02*
X8816415Y-23304179D01*
X8816415Y-23304179D02*
X8825939Y-23323226D01*
X8825939Y-23323226D02*
X8835463Y-23361322D01*
X8835463Y-23361322D02*
X8835463Y-23408941D01*
X8835463Y-23408941D02*
X8825939Y-23447036D01*
X8825939Y-23447036D02*
X8816415Y-23466083D01*
X8816415Y-23466083D02*
X8806891Y-23475607D01*
X8806891Y-23475607D02*
X8787844Y-23485131D01*
X8787844Y-23485131D02*
X8768796Y-23485131D01*
X8768796Y-23485131D02*
X8749748Y-23475607D01*
X8749748Y-23475607D02*
X8740224Y-23466083D01*
X8740224Y-23466083D02*
X8730701Y-23447036D01*
X8730701Y-23447036D02*
X8721177Y-23408941D01*
X8721177Y-23408941D02*
X8721177Y-23361322D01*
X8721177Y-23361322D02*
X8730701Y-23323226D01*
X8730701Y-23323226D02*
X8740224Y-23304179D01*
X8740224Y-23304179D02*
X8749748Y-23294655D01*
X8749748Y-23294655D02*
X8768796Y-23285131D01*
X8902129Y-23285131D02*
X9025939Y-23285131D01*
X9025939Y-23285131D02*
X8959272Y-23361322D01*
X8959272Y-23361322D02*
X8987844Y-23361322D01*
X8987844Y-23361322D02*
X9006891Y-23370845D01*
X9006891Y-23370845D02*
X9016415Y-23380369D01*
X9016415Y-23380369D02*
X9025939Y-23399417D01*
X9025939Y-23399417D02*
X9025939Y-23447036D01*
X9025939Y-23447036D02*
X9016415Y-23466083D01*
X9016415Y-23466083D02*
X9006891Y-23475607D01*
X9006891Y-23475607D02*
X8987844Y-23485131D01*
X8987844Y-23485131D02*
X8930701Y-23485131D01*
X8930701Y-23485131D02*
X8911653Y-23475607D01*
X8911653Y-23475607D02*
X8902129Y-23466083D01*
X9121177Y-23485131D02*
X9159272Y-23485131D01*
X9159272Y-23485131D02*
X9178320Y-23475607D01*
X9178320Y-23475607D02*
X9187844Y-23466083D01*
X9187844Y-23466083D02*
X9206891Y-23437512D01*
X9206891Y-23437512D02*
X9216415Y-23399417D01*
X9216415Y-23399417D02*
X9216415Y-23323226D01*
X9216415Y-23323226D02*
X9206891Y-23304179D01*
X9206891Y-23304179D02*
X9197367Y-23294655D01*
X9197367Y-23294655D02*
X9178320Y-23285131D01*
X9178320Y-23285131D02*
X9140224Y-23285131D01*
X9140224Y-23285131D02*
X9121177Y-23294655D01*
X9121177Y-23294655D02*
X9111653Y-23304179D01*
X9111653Y-23304179D02*
X9102129Y-23323226D01*
X9102129Y-23323226D02*
X9102129Y-23370845D01*
X9102129Y-23370845D02*
X9111653Y-23389893D01*
X9111653Y-23389893D02*
X9121177Y-23399417D01*
X9121177Y-23399417D02*
X9140224Y-23408941D01*
X9140224Y-23408941D02*
X9178320Y-23408941D01*
X9178320Y-23408941D02*
X9197367Y-23399417D01*
X9197367Y-23399417D02*
X9206891Y-23389893D01*
X9206891Y-23389893D02*
X9216415Y-23370845D01*
X9387844Y-23351798D02*
X9387844Y-23485131D01*
X9340224Y-23275607D02*
X9292605Y-23418464D01*
X9292605Y-23418464D02*
X9416415Y-23418464D01*
X9483082Y-23285131D02*
X9483082Y-23323226D01*
X9559272Y-23285131D02*
X9559272Y-23323226D01*
X9854510Y-23561322D02*
X9844986Y-23551798D01*
X9844986Y-23551798D02*
X9825939Y-23523226D01*
X9825939Y-23523226D02*
X9816415Y-23504179D01*
X9816415Y-23504179D02*
X9806891Y-23475607D01*
X9806891Y-23475607D02*
X9797367Y-23427988D01*
X9797367Y-23427988D02*
X9797367Y-23389893D01*
X9797367Y-23389893D02*
X9806891Y-23342274D01*
X9806891Y-23342274D02*
X9816415Y-23313703D01*
X9816415Y-23313703D02*
X9825939Y-23294655D01*
X9825939Y-23294655D02*
X9844986Y-23266083D01*
X9844986Y-23266083D02*
X9854510Y-23256560D01*
X9921177Y-23304179D02*
X9930701Y-23294655D01*
X9930701Y-23294655D02*
X9949748Y-23285131D01*
X9949748Y-23285131D02*
X9997367Y-23285131D01*
X9997367Y-23285131D02*
X10016415Y-23294655D01*
X10016415Y-23294655D02*
X10025939Y-23304179D01*
X10025939Y-23304179D02*
X10035463Y-23323226D01*
X10035463Y-23323226D02*
X10035463Y-23342274D01*
X10035463Y-23342274D02*
X10025939Y-23370845D01*
X10025939Y-23370845D02*
X9911653Y-23485131D01*
X9911653Y-23485131D02*
X10035463Y-23485131D01*
X10149748Y-23370845D02*
X10130701Y-23361322D01*
X10130701Y-23361322D02*
X10121177Y-23351798D01*
X10121177Y-23351798D02*
X10111653Y-23332750D01*
X10111653Y-23332750D02*
X10111653Y-23323226D01*
X10111653Y-23323226D02*
X10121177Y-23304179D01*
X10121177Y-23304179D02*
X10130701Y-23294655D01*
X10130701Y-23294655D02*
X10149748Y-23285131D01*
X10149748Y-23285131D02*
X10187844Y-23285131D01*
X10187844Y-23285131D02*
X10206891Y-23294655D01*
X10206891Y-23294655D02*
X10216415Y-23304179D01*
X10216415Y-23304179D02*
X10225939Y-23323226D01*
X10225939Y-23323226D02*
X10225939Y-23332750D01*
X10225939Y-23332750D02*
X10216415Y-23351798D01*
X10216415Y-23351798D02*
X10206891Y-23361322D01*
X10206891Y-23361322D02*
X10187844Y-23370845D01*
X10187844Y-23370845D02*
X10149748Y-23370845D01*
X10149748Y-23370845D02*
X10130701Y-23380369D01*
X10130701Y-23380369D02*
X10121177Y-23389893D01*
X10121177Y-23389893D02*
X10111653Y-23408941D01*
X10111653Y-23408941D02*
X10111653Y-23447036D01*
X10111653Y-23447036D02*
X10121177Y-23466083D01*
X10121177Y-23466083D02*
X10130701Y-23475607D01*
X10130701Y-23475607D02*
X10149748Y-23485131D01*
X10149748Y-23485131D02*
X10187844Y-23485131D01*
X10187844Y-23485131D02*
X10206891Y-23475607D01*
X10206891Y-23475607D02*
X10216415Y-23466083D01*
X10216415Y-23466083D02*
X10225939Y-23447036D01*
X10225939Y-23447036D02*
X10225939Y-23408941D01*
X10225939Y-23408941D02*
X10216415Y-23389893D01*
X10216415Y-23389893D02*
X10206891Y-23380369D01*
X10206891Y-23380369D02*
X10187844Y-23370845D01*
X10464034Y-23485131D02*
X10464034Y-23285131D01*
X10549748Y-23485131D02*
X10549748Y-23380369D01*
X10549748Y-23380369D02*
X10540225Y-23361322D01*
X10540225Y-23361322D02*
X10521177Y-23351798D01*
X10521177Y-23351798D02*
X10492606Y-23351798D01*
X10492606Y-23351798D02*
X10473558Y-23361322D01*
X10473558Y-23361322D02*
X10464034Y-23370845D01*
X10673558Y-23485131D02*
X10654510Y-23475607D01*
X10654510Y-23475607D02*
X10644987Y-23466083D01*
X10644987Y-23466083D02*
X10635463Y-23447036D01*
X10635463Y-23447036D02*
X10635463Y-23389893D01*
X10635463Y-23389893D02*
X10644987Y-23370845D01*
X10644987Y-23370845D02*
X10654510Y-23361322D01*
X10654510Y-23361322D02*
X10673558Y-23351798D01*
X10673558Y-23351798D02*
X10702129Y-23351798D01*
X10702129Y-23351798D02*
X10721177Y-23361322D01*
X10721177Y-23361322D02*
X10730701Y-23370845D01*
X10730701Y-23370845D02*
X10740225Y-23389893D01*
X10740225Y-23389893D02*
X10740225Y-23447036D01*
X10740225Y-23447036D02*
X10730701Y-23466083D01*
X10730701Y-23466083D02*
X10721177Y-23475607D01*
X10721177Y-23475607D02*
X10702129Y-23485131D01*
X10702129Y-23485131D02*
X10673558Y-23485131D01*
X10854510Y-23485131D02*
X10835463Y-23475607D01*
X10835463Y-23475607D02*
X10825939Y-23456560D01*
X10825939Y-23456560D02*
X10825939Y-23285131D01*
X11006891Y-23475607D02*
X10987844Y-23485131D01*
X10987844Y-23485131D02*
X10949748Y-23485131D01*
X10949748Y-23485131D02*
X10930701Y-23475607D01*
X10930701Y-23475607D02*
X10921177Y-23456560D01*
X10921177Y-23456560D02*
X10921177Y-23380369D01*
X10921177Y-23380369D02*
X10930701Y-23361322D01*
X10930701Y-23361322D02*
X10949748Y-23351798D01*
X10949748Y-23351798D02*
X10987844Y-23351798D01*
X10987844Y-23351798D02*
X11006891Y-23361322D01*
X11006891Y-23361322D02*
X11016415Y-23380369D01*
X11016415Y-23380369D02*
X11016415Y-23399417D01*
X11016415Y-23399417D02*
X10921177Y-23418464D01*
X11092606Y-23475607D02*
X11111653Y-23485131D01*
X11111653Y-23485131D02*
X11149748Y-23485131D01*
X11149748Y-23485131D02*
X11168796Y-23475607D01*
X11168796Y-23475607D02*
X11178320Y-23456560D01*
X11178320Y-23456560D02*
X11178320Y-23447036D01*
X11178320Y-23447036D02*
X11168796Y-23427988D01*
X11168796Y-23427988D02*
X11149748Y-23418464D01*
X11149748Y-23418464D02*
X11121177Y-23418464D01*
X11121177Y-23418464D02*
X11102129Y-23408941D01*
X11102129Y-23408941D02*
X11092606Y-23389893D01*
X11092606Y-23389893D02*
X11092606Y-23380369D01*
X11092606Y-23380369D02*
X11102129Y-23361322D01*
X11102129Y-23361322D02*
X11121177Y-23351798D01*
X11121177Y-23351798D02*
X11149748Y-23351798D01*
X11149748Y-23351798D02*
X11168796Y-23361322D01*
X11244987Y-23561322D02*
X11254510Y-23551798D01*
X11254510Y-23551798D02*
X11273558Y-23523226D01*
X11273558Y-23523226D02*
X11283082Y-23504179D01*
X11283082Y-23504179D02*
X11292606Y-23475607D01*
X11292606Y-23475607D02*
X11302129Y-23427988D01*
X11302129Y-23427988D02*
X11302129Y-23389893D01*
X11302129Y-23389893D02*
X11292606Y-23342274D01*
X11292606Y-23342274D02*
X11283082Y-23313703D01*
X11283082Y-23313703D02*
X11273558Y-23294655D01*
X11273558Y-23294655D02*
X11254510Y-23266083D01*
X11254510Y-23266083D02*
X11244987Y-23256560D01*
X6250159Y-23728359D02*
X6250159Y-23586936D01*
X6108736Y-23586936D01*
X6108736Y-23728359D01*
X6250159Y-23728359D01*
X6530700Y-23568179D02*
X6540224Y-23558655D01*
X6540224Y-23558655D02*
X6559272Y-23549131D01*
X6559272Y-23549131D02*
X6606891Y-23549131D01*
X6606891Y-23549131D02*
X6625938Y-23558655D01*
X6625938Y-23558655D02*
X6635462Y-23568179D01*
X6635462Y-23568179D02*
X6644986Y-23587226D01*
X6644986Y-23587226D02*
X6644986Y-23606274D01*
X6644986Y-23606274D02*
X6635462Y-23634845D01*
X6635462Y-23634845D02*
X6521177Y-23749131D01*
X6521177Y-23749131D02*
X6644986Y-23749131D01*
X6730700Y-23730083D02*
X6740224Y-23739607D01*
X6740224Y-23739607D02*
X6730700Y-23749131D01*
X6730700Y-23749131D02*
X6721177Y-23739607D01*
X6721177Y-23739607D02*
X6730700Y-23730083D01*
X6730700Y-23730083D02*
X6730700Y-23749131D01*
X6816415Y-23568179D02*
X6825938Y-23558655D01*
X6825938Y-23558655D02*
X6844986Y-23549131D01*
X6844986Y-23549131D02*
X6892605Y-23549131D01*
X6892605Y-23549131D02*
X6911653Y-23558655D01*
X6911653Y-23558655D02*
X6921177Y-23568179D01*
X6921177Y-23568179D02*
X6930700Y-23587226D01*
X6930700Y-23587226D02*
X6930700Y-23606274D01*
X6930700Y-23606274D02*
X6921177Y-23634845D01*
X6921177Y-23634845D02*
X6806891Y-23749131D01*
X6806891Y-23749131D02*
X6930700Y-23749131D01*
X7054510Y-23549131D02*
X7073558Y-23549131D01*
X7073558Y-23549131D02*
X7092605Y-23558655D01*
X7092605Y-23558655D02*
X7102129Y-23568179D01*
X7102129Y-23568179D02*
X7111653Y-23587226D01*
X7111653Y-23587226D02*
X7121177Y-23625322D01*
X7121177Y-23625322D02*
X7121177Y-23672941D01*
X7121177Y-23672941D02*
X7111653Y-23711036D01*
X7111653Y-23711036D02*
X7102129Y-23730083D01*
X7102129Y-23730083D02*
X7092605Y-23739607D01*
X7092605Y-23739607D02*
X7073558Y-23749131D01*
X7073558Y-23749131D02*
X7054510Y-23749131D01*
X7054510Y-23749131D02*
X7035462Y-23739607D01*
X7035462Y-23739607D02*
X7025938Y-23730083D01*
X7025938Y-23730083D02*
X7016415Y-23711036D01*
X7016415Y-23711036D02*
X7006891Y-23672941D01*
X7006891Y-23672941D02*
X7006891Y-23625322D01*
X7006891Y-23625322D02*
X7016415Y-23587226D01*
X7016415Y-23587226D02*
X7025938Y-23568179D01*
X7025938Y-23568179D02*
X7035462Y-23558655D01*
X7035462Y-23558655D02*
X7054510Y-23549131D01*
X7244986Y-23549131D02*
X7264034Y-23549131D01*
X7264034Y-23549131D02*
X7283081Y-23558655D01*
X7283081Y-23558655D02*
X7292605Y-23568179D01*
X7292605Y-23568179D02*
X7302129Y-23587226D01*
X7302129Y-23587226D02*
X7311653Y-23625322D01*
X7311653Y-23625322D02*
X7311653Y-23672941D01*
X7311653Y-23672941D02*
X7302129Y-23711036D01*
X7302129Y-23711036D02*
X7292605Y-23730083D01*
X7292605Y-23730083D02*
X7283081Y-23739607D01*
X7283081Y-23739607D02*
X7264034Y-23749131D01*
X7264034Y-23749131D02*
X7244986Y-23749131D01*
X7244986Y-23749131D02*
X7225938Y-23739607D01*
X7225938Y-23739607D02*
X7216415Y-23730083D01*
X7216415Y-23730083D02*
X7206891Y-23711036D01*
X7206891Y-23711036D02*
X7197367Y-23672941D01*
X7197367Y-23672941D02*
X7197367Y-23625322D01*
X7197367Y-23625322D02*
X7206891Y-23587226D01*
X7206891Y-23587226D02*
X7216415Y-23568179D01*
X7216415Y-23568179D02*
X7225938Y-23558655D01*
X7225938Y-23558655D02*
X7244986Y-23549131D01*
X7397367Y-23749131D02*
X7397367Y-23615798D01*
X7397367Y-23634845D02*
X7406891Y-23625322D01*
X7406891Y-23625322D02*
X7425938Y-23615798D01*
X7425938Y-23615798D02*
X7454510Y-23615798D01*
X7454510Y-23615798D02*
X7473558Y-23625322D01*
X7473558Y-23625322D02*
X7483081Y-23644369D01*
X7483081Y-23644369D02*
X7483081Y-23749131D01*
X7483081Y-23644369D02*
X7492605Y-23625322D01*
X7492605Y-23625322D02*
X7511653Y-23615798D01*
X7511653Y-23615798D02*
X7540224Y-23615798D01*
X7540224Y-23615798D02*
X7559272Y-23625322D01*
X7559272Y-23625322D02*
X7568796Y-23644369D01*
X7568796Y-23644369D02*
X7568796Y-23749131D01*
X7664034Y-23749131D02*
X7664034Y-23615798D01*
X7664034Y-23634845D02*
X7673558Y-23625322D01*
X7673558Y-23625322D02*
X7692605Y-23615798D01*
X7692605Y-23615798D02*
X7721177Y-23615798D01*
X7721177Y-23615798D02*
X7740224Y-23625322D01*
X7740224Y-23625322D02*
X7749748Y-23644369D01*
X7749748Y-23644369D02*
X7749748Y-23749131D01*
X7749748Y-23644369D02*
X7759272Y-23625322D01*
X7759272Y-23625322D02*
X7778319Y-23615798D01*
X7778319Y-23615798D02*
X7806891Y-23615798D01*
X7806891Y-23615798D02*
X7825939Y-23625322D01*
X7825939Y-23625322D02*
X7835462Y-23644369D01*
X7835462Y-23644369D02*
X7835462Y-23749131D01*
X8225939Y-23539607D02*
X8054510Y-23796750D01*
X8483082Y-23549131D02*
X8502129Y-23549131D01*
X8502129Y-23549131D02*
X8521177Y-23558655D01*
X8521177Y-23558655D02*
X8530701Y-23568179D01*
X8530701Y-23568179D02*
X8540224Y-23587226D01*
X8540224Y-23587226D02*
X8549748Y-23625322D01*
X8549748Y-23625322D02*
X8549748Y-23672941D01*
X8549748Y-23672941D02*
X8540224Y-23711036D01*
X8540224Y-23711036D02*
X8530701Y-23730083D01*
X8530701Y-23730083D02*
X8521177Y-23739607D01*
X8521177Y-23739607D02*
X8502129Y-23749131D01*
X8502129Y-23749131D02*
X8483082Y-23749131D01*
X8483082Y-23749131D02*
X8464034Y-23739607D01*
X8464034Y-23739607D02*
X8454510Y-23730083D01*
X8454510Y-23730083D02*
X8444986Y-23711036D01*
X8444986Y-23711036D02*
X8435463Y-23672941D01*
X8435463Y-23672941D02*
X8435463Y-23625322D01*
X8435463Y-23625322D02*
X8444986Y-23587226D01*
X8444986Y-23587226D02*
X8454510Y-23568179D01*
X8454510Y-23568179D02*
X8464034Y-23558655D01*
X8464034Y-23558655D02*
X8483082Y-23549131D01*
X8635463Y-23730083D02*
X8644986Y-23739607D01*
X8644986Y-23739607D02*
X8635463Y-23749131D01*
X8635463Y-23749131D02*
X8625939Y-23739607D01*
X8625939Y-23739607D02*
X8635463Y-23730083D01*
X8635463Y-23730083D02*
X8635463Y-23749131D01*
X8768796Y-23549131D02*
X8787844Y-23549131D01*
X8787844Y-23549131D02*
X8806891Y-23558655D01*
X8806891Y-23558655D02*
X8816415Y-23568179D01*
X8816415Y-23568179D02*
X8825939Y-23587226D01*
X8825939Y-23587226D02*
X8835463Y-23625322D01*
X8835463Y-23625322D02*
X8835463Y-23672941D01*
X8835463Y-23672941D02*
X8825939Y-23711036D01*
X8825939Y-23711036D02*
X8816415Y-23730083D01*
X8816415Y-23730083D02*
X8806891Y-23739607D01*
X8806891Y-23739607D02*
X8787844Y-23749131D01*
X8787844Y-23749131D02*
X8768796Y-23749131D01*
X8768796Y-23749131D02*
X8749748Y-23739607D01*
X8749748Y-23739607D02*
X8740224Y-23730083D01*
X8740224Y-23730083D02*
X8730701Y-23711036D01*
X8730701Y-23711036D02*
X8721177Y-23672941D01*
X8721177Y-23672941D02*
X8721177Y-23625322D01*
X8721177Y-23625322D02*
X8730701Y-23587226D01*
X8730701Y-23587226D02*
X8740224Y-23568179D01*
X8740224Y-23568179D02*
X8749748Y-23558655D01*
X8749748Y-23558655D02*
X8768796Y-23549131D01*
X8949748Y-23634845D02*
X8930701Y-23625322D01*
X8930701Y-23625322D02*
X8921177Y-23615798D01*
X8921177Y-23615798D02*
X8911653Y-23596750D01*
X8911653Y-23596750D02*
X8911653Y-23587226D01*
X8911653Y-23587226D02*
X8921177Y-23568179D01*
X8921177Y-23568179D02*
X8930701Y-23558655D01*
X8930701Y-23558655D02*
X8949748Y-23549131D01*
X8949748Y-23549131D02*
X8987844Y-23549131D01*
X8987844Y-23549131D02*
X9006891Y-23558655D01*
X9006891Y-23558655D02*
X9016415Y-23568179D01*
X9016415Y-23568179D02*
X9025939Y-23587226D01*
X9025939Y-23587226D02*
X9025939Y-23596750D01*
X9025939Y-23596750D02*
X9016415Y-23615798D01*
X9016415Y-23615798D02*
X9006891Y-23625322D01*
X9006891Y-23625322D02*
X8987844Y-23634845D01*
X8987844Y-23634845D02*
X8949748Y-23634845D01*
X8949748Y-23634845D02*
X8930701Y-23644369D01*
X8930701Y-23644369D02*
X8921177Y-23653893D01*
X8921177Y-23653893D02*
X8911653Y-23672941D01*
X8911653Y-23672941D02*
X8911653Y-23711036D01*
X8911653Y-23711036D02*
X8921177Y-23730083D01*
X8921177Y-23730083D02*
X8930701Y-23739607D01*
X8930701Y-23739607D02*
X8949748Y-23749131D01*
X8949748Y-23749131D02*
X8987844Y-23749131D01*
X8987844Y-23749131D02*
X9006891Y-23739607D01*
X9006891Y-23739607D02*
X9016415Y-23730083D01*
X9016415Y-23730083D02*
X9025939Y-23711036D01*
X9025939Y-23711036D02*
X9025939Y-23672941D01*
X9025939Y-23672941D02*
X9016415Y-23653893D01*
X9016415Y-23653893D02*
X9006891Y-23644369D01*
X9006891Y-23644369D02*
X8987844Y-23634845D01*
X9197367Y-23549131D02*
X9159272Y-23549131D01*
X9159272Y-23549131D02*
X9140224Y-23558655D01*
X9140224Y-23558655D02*
X9130701Y-23568179D01*
X9130701Y-23568179D02*
X9111653Y-23596750D01*
X9111653Y-23596750D02*
X9102129Y-23634845D01*
X9102129Y-23634845D02*
X9102129Y-23711036D01*
X9102129Y-23711036D02*
X9111653Y-23730083D01*
X9111653Y-23730083D02*
X9121177Y-23739607D01*
X9121177Y-23739607D02*
X9140224Y-23749131D01*
X9140224Y-23749131D02*
X9178320Y-23749131D01*
X9178320Y-23749131D02*
X9197367Y-23739607D01*
X9197367Y-23739607D02*
X9206891Y-23730083D01*
X9206891Y-23730083D02*
X9216415Y-23711036D01*
X9216415Y-23711036D02*
X9216415Y-23663417D01*
X9216415Y-23663417D02*
X9206891Y-23644369D01*
X9206891Y-23644369D02*
X9197367Y-23634845D01*
X9197367Y-23634845D02*
X9178320Y-23625322D01*
X9178320Y-23625322D02*
X9140224Y-23625322D01*
X9140224Y-23625322D02*
X9121177Y-23634845D01*
X9121177Y-23634845D02*
X9111653Y-23644369D01*
X9111653Y-23644369D02*
X9102129Y-23663417D01*
X9387844Y-23549131D02*
X9349748Y-23549131D01*
X9349748Y-23549131D02*
X9330701Y-23558655D01*
X9330701Y-23558655D02*
X9321177Y-23568179D01*
X9321177Y-23568179D02*
X9302129Y-23596750D01*
X9302129Y-23596750D02*
X9292605Y-23634845D01*
X9292605Y-23634845D02*
X9292605Y-23711036D01*
X9292605Y-23711036D02*
X9302129Y-23730083D01*
X9302129Y-23730083D02*
X9311653Y-23739607D01*
X9311653Y-23739607D02*
X9330701Y-23749131D01*
X9330701Y-23749131D02*
X9368796Y-23749131D01*
X9368796Y-23749131D02*
X9387844Y-23739607D01*
X9387844Y-23739607D02*
X9397367Y-23730083D01*
X9397367Y-23730083D02*
X9406891Y-23711036D01*
X9406891Y-23711036D02*
X9406891Y-23663417D01*
X9406891Y-23663417D02*
X9397367Y-23644369D01*
X9397367Y-23644369D02*
X9387844Y-23634845D01*
X9387844Y-23634845D02*
X9368796Y-23625322D01*
X9368796Y-23625322D02*
X9330701Y-23625322D01*
X9330701Y-23625322D02*
X9311653Y-23634845D01*
X9311653Y-23634845D02*
X9302129Y-23644369D01*
X9302129Y-23644369D02*
X9292605Y-23663417D01*
X9483082Y-23549131D02*
X9483082Y-23587226D01*
X9559272Y-23549131D02*
X9559272Y-23587226D01*
X9854510Y-23825322D02*
X9844986Y-23815798D01*
X9844986Y-23815798D02*
X9825939Y-23787226D01*
X9825939Y-23787226D02*
X9816415Y-23768179D01*
X9816415Y-23768179D02*
X9806891Y-23739607D01*
X9806891Y-23739607D02*
X9797367Y-23691988D01*
X9797367Y-23691988D02*
X9797367Y-23653893D01*
X9797367Y-23653893D02*
X9806891Y-23606274D01*
X9806891Y-23606274D02*
X9816415Y-23577703D01*
X9816415Y-23577703D02*
X9825939Y-23558655D01*
X9825939Y-23558655D02*
X9844986Y-23530083D01*
X9844986Y-23530083D02*
X9854510Y-23520560D01*
X9959272Y-23634845D02*
X9940225Y-23625322D01*
X9940225Y-23625322D02*
X9930701Y-23615798D01*
X9930701Y-23615798D02*
X9921177Y-23596750D01*
X9921177Y-23596750D02*
X9921177Y-23587226D01*
X9921177Y-23587226D02*
X9930701Y-23568179D01*
X9930701Y-23568179D02*
X9940225Y-23558655D01*
X9940225Y-23558655D02*
X9959272Y-23549131D01*
X9959272Y-23549131D02*
X9997367Y-23549131D01*
X9997367Y-23549131D02*
X10016415Y-23558655D01*
X10016415Y-23558655D02*
X10025939Y-23568179D01*
X10025939Y-23568179D02*
X10035463Y-23587226D01*
X10035463Y-23587226D02*
X10035463Y-23596750D01*
X10035463Y-23596750D02*
X10025939Y-23615798D01*
X10025939Y-23615798D02*
X10016415Y-23625322D01*
X10016415Y-23625322D02*
X9997367Y-23634845D01*
X9997367Y-23634845D02*
X9959272Y-23634845D01*
X9959272Y-23634845D02*
X9940225Y-23644369D01*
X9940225Y-23644369D02*
X9930701Y-23653893D01*
X9930701Y-23653893D02*
X9921177Y-23672941D01*
X9921177Y-23672941D02*
X9921177Y-23711036D01*
X9921177Y-23711036D02*
X9930701Y-23730083D01*
X9930701Y-23730083D02*
X9940225Y-23739607D01*
X9940225Y-23739607D02*
X9959272Y-23749131D01*
X9959272Y-23749131D02*
X9997367Y-23749131D01*
X9997367Y-23749131D02*
X10016415Y-23739607D01*
X10016415Y-23739607D02*
X10025939Y-23730083D01*
X10025939Y-23730083D02*
X10035463Y-23711036D01*
X10035463Y-23711036D02*
X10035463Y-23672941D01*
X10035463Y-23672941D02*
X10025939Y-23653893D01*
X10025939Y-23653893D02*
X10016415Y-23644369D01*
X10016415Y-23644369D02*
X9997367Y-23634845D01*
X10273558Y-23749131D02*
X10273558Y-23549131D01*
X10359272Y-23749131D02*
X10359272Y-23644369D01*
X10359272Y-23644369D02*
X10349748Y-23625322D01*
X10349748Y-23625322D02*
X10330701Y-23615798D01*
X10330701Y-23615798D02*
X10302129Y-23615798D01*
X10302129Y-23615798D02*
X10283082Y-23625322D01*
X10283082Y-23625322D02*
X10273558Y-23634845D01*
X10483082Y-23749131D02*
X10464034Y-23739607D01*
X10464034Y-23739607D02*
X10454510Y-23730083D01*
X10454510Y-23730083D02*
X10444987Y-23711036D01*
X10444987Y-23711036D02*
X10444987Y-23653893D01*
X10444987Y-23653893D02*
X10454510Y-23634845D01*
X10454510Y-23634845D02*
X10464034Y-23625322D01*
X10464034Y-23625322D02*
X10483082Y-23615798D01*
X10483082Y-23615798D02*
X10511653Y-23615798D01*
X10511653Y-23615798D02*
X10530701Y-23625322D01*
X10530701Y-23625322D02*
X10540225Y-23634845D01*
X10540225Y-23634845D02*
X10549748Y-23653893D01*
X10549748Y-23653893D02*
X10549748Y-23711036D01*
X10549748Y-23711036D02*
X10540225Y-23730083D01*
X10540225Y-23730083D02*
X10530701Y-23739607D01*
X10530701Y-23739607D02*
X10511653Y-23749131D01*
X10511653Y-23749131D02*
X10483082Y-23749131D01*
X10664034Y-23749131D02*
X10644987Y-23739607D01*
X10644987Y-23739607D02*
X10635463Y-23720560D01*
X10635463Y-23720560D02*
X10635463Y-23549131D01*
X10816415Y-23739607D02*
X10797368Y-23749131D01*
X10797368Y-23749131D02*
X10759272Y-23749131D01*
X10759272Y-23749131D02*
X10740225Y-23739607D01*
X10740225Y-23739607D02*
X10730701Y-23720560D01*
X10730701Y-23720560D02*
X10730701Y-23644369D01*
X10730701Y-23644369D02*
X10740225Y-23625322D01*
X10740225Y-23625322D02*
X10759272Y-23615798D01*
X10759272Y-23615798D02*
X10797368Y-23615798D01*
X10797368Y-23615798D02*
X10816415Y-23625322D01*
X10816415Y-23625322D02*
X10825939Y-23644369D01*
X10825939Y-23644369D02*
X10825939Y-23663417D01*
X10825939Y-23663417D02*
X10730701Y-23682464D01*
X10902129Y-23739607D02*
X10921177Y-23749131D01*
X10921177Y-23749131D02*
X10959272Y-23749131D01*
X10959272Y-23749131D02*
X10978320Y-23739607D01*
X10978320Y-23739607D02*
X10987844Y-23720560D01*
X10987844Y-23720560D02*
X10987844Y-23711036D01*
X10987844Y-23711036D02*
X10978320Y-23691988D01*
X10978320Y-23691988D02*
X10959272Y-23682464D01*
X10959272Y-23682464D02*
X10930701Y-23682464D01*
X10930701Y-23682464D02*
X10911653Y-23672941D01*
X10911653Y-23672941D02*
X10902129Y-23653893D01*
X10902129Y-23653893D02*
X10902129Y-23644369D01*
X10902129Y-23644369D02*
X10911653Y-23625322D01*
X10911653Y-23625322D02*
X10930701Y-23615798D01*
X10930701Y-23615798D02*
X10959272Y-23615798D01*
X10959272Y-23615798D02*
X10978320Y-23625322D01*
X11054510Y-23825322D02*
X11064034Y-23815798D01*
X11064034Y-23815798D02*
X11083082Y-23787226D01*
X11083082Y-23787226D02*
X11092606Y-23768179D01*
X11092606Y-23768179D02*
X11102129Y-23739607D01*
X11102129Y-23739607D02*
X11111653Y-23691988D01*
X11111653Y-23691988D02*
X11111653Y-23653893D01*
X11111653Y-23653893D02*
X11102129Y-23606274D01*
X11102129Y-23606274D02*
X11092606Y-23577703D01*
X11092606Y-23577703D02*
X11083082Y-23558655D01*
X11083082Y-23558655D02*
X11064034Y-23530083D01*
X11064034Y-23530083D02*
X11054510Y-23520560D01*
M02*
