%TF.GenerationSoftware,KiCad,Pcbnew,8.0.7*%
%TF.CreationDate,2024-12-23T04:42:48-05:00*%
%TF.ProjectId,choc,63686f63-2e6b-4696-9361-645f70636258,v1.0.0*%
%TF.SameCoordinates,Original*%
%TF.FileFunction,Copper,L2,Bot*%
%TF.FilePolarity,Positive*%
%FSLAX46Y46*%
G04 Gerber Fmt 4.6, Leading zero omitted, Abs format (unit mm)*
G04 Created by KiCad (PCBNEW 8.0.7) date 2024-12-23 04:42:48*
%MOMM*%
%LPD*%
G01*
G04 APERTURE LIST*
G04 Aperture macros list*
%AMRotRect*
0 Rectangle, with rotation*
0 The origin of the aperture is its center*
0 $1 length*
0 $2 width*
0 $3 Rotation angle, in degrees counterclockwise*
0 Add horizontal line*
21,1,$1,$2,0,0,$3*%
G04 Aperture macros list end*
%TA.AperFunction,Conductor*%
%ADD10C,0.200000*%
%TD*%
%TA.AperFunction,ComponentPad*%
%ADD11C,0.600000*%
%TD*%
%TA.AperFunction,ComponentPad*%
%ADD12C,0.700000*%
%TD*%
%TA.AperFunction,ComponentPad*%
%ADD13C,4.400000*%
%TD*%
%TA.AperFunction,ComponentPad*%
%ADD14C,1.700000*%
%TD*%
%TA.AperFunction,SMDPad,CuDef*%
%ADD15RotRect,2.600000X2.600000X25.000000*%
%TD*%
%TA.AperFunction,SMDPad,CuDef*%
%ADD16RotRect,0.900000X1.200000X115.000000*%
%TD*%
%TA.AperFunction,SMDPad,CuDef*%
%ADD17RotRect,0.900000X1.200000X65.000000*%
%TD*%
%TA.AperFunction,SMDPad,CuDef*%
%ADD18RotRect,2.600000X2.600000X335.000000*%
%TD*%
%TA.AperFunction,SMDPad,CuDef*%
%ADD19RotRect,0.900000X1.200000X138.000000*%
%TD*%
%TA.AperFunction,SMDPad,CuDef*%
%ADD20RotRect,0.900000X1.200000X55.000000*%
%TD*%
%TA.AperFunction,SMDPad,CuDef*%
%ADD21RotRect,0.900000X1.200000X42.000000*%
%TD*%
%TA.AperFunction,SMDPad,CuDef*%
%ADD22RotRect,2.600000X2.600000X325.000000*%
%TD*%
%TA.AperFunction,SMDPad,CuDef*%
%ADD23RotRect,2.600000X2.600000X48.000000*%
%TD*%
%TA.AperFunction,SMDPad,CuDef*%
%ADD24RotRect,0.900000X1.200000X125.000000*%
%TD*%
%TA.AperFunction,SMDPad,CuDef*%
%ADD25RotRect,2.600000X2.600000X35.000000*%
%TD*%
%TA.AperFunction,SMDPad,CuDef*%
%ADD26RotRect,2.600000X2.600000X312.000000*%
%TD*%
%TA.AperFunction,Conductor*%
%ADD27C,0.250000*%
%TD*%
G04 APERTURE END LIST*
D10*
X258982598Y-218492015D02*
X258572598Y-219132015D01*
X258642598Y-219012015D02*
X258982598Y-218492015D01*
D11*
X257262276Y-141947846D03*
X151848323Y-129196381D03*
X167993293Y-179756645D03*
X271631297Y-172762313D03*
D12*
X272694739Y-177231620D03*
X272639655Y-175969968D03*
X273625817Y-178084794D03*
X274887469Y-178029710D03*
D13*
X274190149Y-176534300D03*
D12*
X273492829Y-175038890D03*
X274754481Y-174983806D03*
X275740643Y-177098632D03*
X275685559Y-175836980D03*
D11*
X334392485Y-94395975D03*
X332588307Y-117856521D03*
X159332066Y-200174575D03*
X326699882Y-163082388D03*
X127293721Y-139262256D03*
X287776264Y-122202046D03*
X309329799Y-168423748D03*
X305146351Y-116860691D03*
X182626949Y-203291502D03*
X272519269Y-132074946D03*
D14*
X219932598Y-141892014D03*
X219932597Y-144432014D03*
X219932599Y-146972014D03*
X219932598Y-149512014D03*
X219932598Y-152052016D03*
X219932598Y-154592014D03*
X219932595Y-157132013D03*
X219932598Y-159672016D03*
X219932599Y-162212015D03*
X219932599Y-164752015D03*
X219932598Y-167292015D03*
X219932598Y-169832017D03*
X219932598Y-172372014D03*
X204692598Y-172372016D03*
X204692599Y-169832016D03*
X204692597Y-167292016D03*
X204692598Y-164752016D03*
X204692598Y-162212014D03*
X204692598Y-159672016D03*
X204692601Y-157132017D03*
X204692598Y-154592014D03*
X204692597Y-152052015D03*
X204692597Y-149512015D03*
X204692598Y-146972015D03*
X204692598Y-144432013D03*
X204692598Y-141892016D03*
D11*
X276367242Y-187875524D03*
X325263457Y-117410332D03*
D14*
X209062591Y-177227013D03*
X215562591Y-177227017D03*
D11*
X107176622Y-139811893D03*
X144663811Y-144603617D03*
X145551785Y-185290978D03*
X355946020Y-140617671D03*
D12*
X319142390Y-106472409D03*
X319087306Y-105210757D03*
X320073468Y-107325583D03*
X321335120Y-107270499D03*
D13*
X320637800Y-105775089D03*
D12*
X319940480Y-104279679D03*
X321202132Y-104224595D03*
X322188294Y-106339421D03*
X322133210Y-105077769D03*
D11*
X155158298Y-137360120D03*
X250077766Y-126540613D03*
X167105317Y-139069277D03*
X90863079Y-132204768D03*
X114361129Y-124404664D03*
D12*
X102491981Y-105077766D03*
X102436898Y-106339418D03*
X103423059Y-104224593D03*
X104684711Y-104279676D03*
D13*
X103987391Y-105775086D03*
D12*
X103290071Y-107270496D03*
X104551723Y-107325579D03*
X105537884Y-105210754D03*
X105482801Y-106472406D03*
D11*
X130294792Y-175418077D03*
X339632477Y-148224797D03*
X312330863Y-132267920D03*
X141662746Y-108447792D03*
X319515372Y-147675154D03*
X294960780Y-137609282D03*
X279703781Y-147482180D03*
D12*
X149996175Y-173571213D03*
X149941092Y-174832865D03*
X150927253Y-172718040D03*
X152188905Y-172773123D03*
D13*
X151491585Y-174268533D03*
D12*
X150794265Y-175763943D03*
X152055917Y-175819026D03*
X153042078Y-173704201D03*
X152986995Y-174965853D03*
D11*
X318078943Y-102003103D03*
D12*
X88122959Y-135892232D03*
X88067876Y-137153884D03*
X89054037Y-135039059D03*
X90315689Y-135094142D03*
D13*
X89618369Y-136589552D03*
D12*
X88921049Y-138084962D03*
X90182701Y-138140045D03*
X91168862Y-136025220D03*
X91113779Y-137286872D03*
D11*
X134478233Y-123855024D03*
X120109212Y-154669485D03*
D12*
X171549704Y-127349515D03*
X171494621Y-128611167D03*
X172480782Y-126496342D03*
X173742434Y-126551425D03*
D13*
X173045114Y-128046835D03*
D12*
X172347794Y-129542245D03*
X173609446Y-129597328D03*
X174595607Y-127482503D03*
X174540524Y-128744155D03*
D11*
X98047588Y-116797535D03*
X280591753Y-106794816D03*
X255555207Y-212784189D03*
X99992106Y-155219129D03*
X294072802Y-178296643D03*
X105232097Y-101390308D03*
X316274760Y-125463652D03*
X297961840Y-101453457D03*
X189546819Y-133534949D03*
X137479302Y-160010850D03*
X341576997Y-109803206D03*
X152736291Y-169883749D03*
D12*
X251141208Y-131009920D03*
X251086124Y-129748268D03*
X252072286Y-131863094D03*
X253333938Y-131808010D03*
D13*
X252636618Y-130312600D03*
D12*
X251939298Y-128817190D03*
X253200950Y-128762106D03*
X254187112Y-130876932D03*
X254132028Y-129615280D03*
D11*
X332447966Y-132817567D03*
X121545642Y-108997430D03*
X296157662Y-124914013D03*
X302145291Y-153016515D03*
X159920804Y-154476514D03*
X348761504Y-125210436D03*
X182362310Y-148942182D03*
X286888290Y-162889410D03*
X264446790Y-157355081D03*
X139901301Y-127487220D03*
X265334762Y-116667713D03*
D12*
X333511411Y-137286872D03*
X333456327Y-136025220D03*
X334442489Y-138140046D03*
X335704141Y-138084962D03*
D13*
X335006821Y-136589552D03*
D12*
X334309501Y-135094142D03*
X335571153Y-135039058D03*
X336557315Y-137153884D03*
X336502231Y-135892232D03*
D11*
X83678565Y-147612006D03*
X159032828Y-113789150D03*
X112924701Y-170076719D03*
X174289826Y-123662046D03*
X170415290Y-147233013D03*
X175177801Y-164349411D03*
D15*
X257846357Y-127938426D03*
X269243974Y-125051062D03*
D16*
X293290956Y-176619976D03*
X291896316Y-173629156D03*
X347979662Y-123533766D03*
X346585022Y-120542946D03*
X286106447Y-161212747D03*
X284711807Y-158221927D03*
D15*
X324959566Y-144088273D03*
X336357183Y-141200909D03*
X283288931Y-97316940D03*
X294686548Y-94429576D03*
D17*
X138261142Y-158334178D03*
X139655782Y-155343358D03*
D15*
X265030873Y-143345659D03*
X276428490Y-140458295D03*
X242589365Y-137811325D03*
X253986982Y-134923961D03*
D18*
X168914991Y-150450408D03*
X178453086Y-157325526D03*
D16*
X286994421Y-120525385D03*
X285599781Y-117534565D03*
X308547950Y-166747080D03*
X307153310Y-163756260D03*
D15*
X265918848Y-102658298D03*
X277316465Y-99770934D03*
D17*
X146333625Y-183614312D03*
X147728265Y-180623492D03*
D18*
X106661901Y-156177717D03*
X116199996Y-163052835D03*
D15*
X312026975Y-158945869D03*
X323424592Y-156058505D03*
D18*
X152770025Y-99890148D03*
X162308120Y-106765266D03*
X183284016Y-119635949D03*
X192822111Y-126511067D03*
D16*
X355164175Y-138940999D03*
X353769535Y-135950179D03*
X338850635Y-146548130D03*
X337455995Y-143557310D03*
D15*
X297657954Y-128131400D03*
X309055571Y-125244036D03*
D18*
X84600271Y-118305768D03*
X94138366Y-125180886D03*
X121030923Y-125363249D03*
X130569018Y-132238367D03*
D15*
X280287863Y-133472765D03*
X291685480Y-130585401D03*
D17*
X153518143Y-168207080D03*
X154912783Y-165216260D03*
D15*
X250661850Y-112531197D03*
X262059467Y-109643833D03*
D18*
X138401001Y-130704615D03*
X147939096Y-137579733D03*
D17*
X107958464Y-138135230D03*
X109353104Y-135144410D03*
D18*
X124031986Y-161519078D03*
X133570081Y-168394196D03*
X93729303Y-141320127D03*
X103267398Y-148195245D03*
D17*
X142444587Y-106771126D03*
X143839227Y-103780306D03*
X128075564Y-137585591D03*
X129470204Y-134594771D03*
D18*
X128215433Y-109956019D03*
X137753528Y-116831137D03*
X77415766Y-133712995D03*
X86953861Y-140588113D03*
D16*
X297179992Y-99776789D03*
X295785352Y-96785969D03*
D17*
X145445652Y-142926950D03*
X146840292Y-139936130D03*
X167887160Y-137392610D03*
X169281800Y-134401790D03*
X168775133Y-178079974D03*
X170169773Y-175089154D03*
X190328665Y-131858280D03*
X191723305Y-128867460D03*
D18*
X139288983Y-171391978D03*
X148827078Y-178267096D03*
D16*
X279809910Y-105118152D03*
X278415270Y-102127332D03*
D18*
X153657999Y-140577512D03*
X163196094Y-147452630D03*
X91784788Y-102898534D03*
X101322883Y-109773652D03*
X146473492Y-155984749D03*
X156011587Y-162859867D03*
D16*
X340795151Y-108126541D03*
X339400511Y-105135721D03*
X249295924Y-124863948D03*
X247901284Y-121873128D03*
X333610642Y-92719305D03*
X332216002Y-89728485D03*
D19*
X274992429Y-186637637D03*
X272540049Y-184429505D03*
D15*
X256958386Y-168625790D03*
X268356003Y-165738426D03*
X341273106Y-136481153D03*
X352670723Y-133593789D03*
X319719580Y-90259452D03*
X331117197Y-87372088D03*
D18*
X160842511Y-125170276D03*
X170380606Y-132045394D03*
D16*
X271737429Y-130398279D03*
X270342789Y-127407459D03*
X331666121Y-131140898D03*
X330271481Y-128150078D03*
D15*
X326904086Y-105666688D03*
X338301703Y-102779324D03*
X279399899Y-174160124D03*
X290797516Y-171272760D03*
X317775062Y-128681045D03*
X329172679Y-125793681D03*
D20*
X256616324Y-211268761D03*
X258509126Y-208565561D03*
D18*
X100913817Y-125912895D03*
X110451912Y-132788013D03*
D17*
X115142979Y-122727999D03*
X116537619Y-119737179D03*
X98829435Y-115120868D03*
X100224075Y-112130048D03*
D16*
X256480429Y-140271180D03*
X255085789Y-137280360D03*
D21*
X160706879Y-198936684D03*
X163159261Y-196728552D03*
D15*
X303406037Y-97866578D03*
X314803654Y-94979214D03*
D16*
X311549015Y-130591255D03*
X310154375Y-127600435D03*
X318733530Y-145998490D03*
X317338890Y-143007670D03*
D17*
X175071672Y-121985379D03*
X176466312Y-118994559D03*
D22*
X251801091Y-198008821D03*
X260000426Y-206435763D03*
D15*
X249773880Y-153218560D03*
X261171497Y-150331196D03*
D17*
X135260077Y-122178356D03*
X136654717Y-119187536D03*
D16*
X278921939Y-145805511D03*
X277527299Y-142814691D03*
D17*
X159814675Y-112112481D03*
X161209315Y-109121661D03*
X152630160Y-127519714D03*
X154024800Y-124528894D03*
X120891051Y-152992826D03*
X122285691Y-150002006D03*
D15*
X235404854Y-122404094D03*
X246802471Y-119516730D03*
D18*
X98969294Y-87491300D03*
X108507389Y-94366418D03*
D17*
X122327484Y-107320765D03*
X123722124Y-104329945D03*
D15*
X294656889Y-164287226D03*
X306054506Y-161399862D03*
D17*
X113706546Y-168400054D03*
X115101186Y-165409234D03*
D16*
X317297103Y-100326431D03*
X315902463Y-97335611D03*
D18*
X108098324Y-110505662D03*
X117636419Y-117380780D03*
D15*
X290473447Y-112724175D03*
X301871064Y-109836811D03*
D16*
X324481613Y-115733668D03*
X323086973Y-112742848D03*
D18*
X168027018Y-109763044D03*
X177565113Y-116638162D03*
D15*
X287472380Y-148879994D03*
X298869997Y-145992630D03*
D18*
X131216499Y-146111843D03*
X140754594Y-152986961D03*
D15*
X334088600Y-121073914D03*
X345486217Y-118186550D03*
D16*
X270849452Y-171085646D03*
X269454812Y-168094826D03*
D23*
X261244492Y-189801000D03*
X270607873Y-182689764D03*
D15*
X304842464Y-143538638D03*
X316240081Y-140651274D03*
D16*
X301363440Y-151339850D03*
X299968800Y-148349030D03*
D17*
X160702649Y-152799847D03*
X162097289Y-149809027D03*
X131076633Y-173741411D03*
X132471273Y-170750591D03*
D24*
X181565836Y-201776072D03*
X179673030Y-199072870D03*
D17*
X175959643Y-162672742D03*
X177354283Y-159681922D03*
D16*
X264552916Y-114991048D03*
X263158276Y-112000228D03*
D18*
X135399942Y-94548788D03*
X144938037Y-101423906D03*
D16*
X304364507Y-115184027D03*
X302969867Y-112193207D03*
D25*
X167458660Y-201765751D03*
X178181732Y-196943077D03*
D16*
X263664946Y-155678411D03*
X262270306Y-152687591D03*
X294178931Y-135932618D03*
X292784291Y-132941798D03*
D18*
X115282837Y-95098429D03*
X124820932Y-101973547D03*
D17*
X91644921Y-130528101D03*
X93039561Y-127537281D03*
D15*
X272215383Y-158752890D03*
X283613000Y-155865526D03*
D16*
X325918036Y-161405721D03*
X324523396Y-158414901D03*
D17*
X100773954Y-153542463D03*
X102168594Y-150551643D03*
X183144151Y-147265507D03*
X184538791Y-144274687D03*
D18*
X145585520Y-115297383D03*
X155123615Y-122172501D03*
D17*
X106013945Y-99713641D03*
X107408585Y-96722821D03*
D15*
X273103358Y-118065529D03*
X284500975Y-115178165D03*
D18*
X176099502Y-135043174D03*
X185637597Y-141918292D03*
X113846412Y-140770485D03*
X123384507Y-147645603D03*
D15*
X310590545Y-113273812D03*
X321988162Y-110386448D03*
D18*
X161730480Y-165857641D03*
X171268575Y-172732759D03*
D17*
X84460412Y-145935336D03*
X85855052Y-142944516D03*
D26*
X158997894Y-184933403D03*
X165091437Y-194988811D03*
D27*
X267846419Y-207613375D02*
X267845876Y-207613409D01*
X142580844Y-191844360D02*
X142581213Y-191845393D01*
X281980263Y-191916160D02*
X267846419Y-207613375D01*
X255261522Y-220971374D02*
X258947634Y-220321409D01*
X92510814Y-168149287D02*
X142580844Y-191844360D01*
X238473968Y-209216604D02*
X234889350Y-206706631D01*
X282045332Y-191843895D02*
X281980263Y-191916160D01*
X84600273Y-118305766D02*
X77415768Y-133712993D01*
X189735821Y-206706631D02*
X234884390Y-206706632D01*
X170235914Y-220360626D02*
X189735818Y-206706643D01*
X149360915Y-199364522D02*
X156750109Y-207571051D01*
X77415768Y-133712993D02*
X77415768Y-133712995D01*
X165724236Y-220387224D02*
X165581042Y-220182937D01*
X91784788Y-102898533D02*
X84600279Y-118305764D01*
X92344348Y-168070514D02*
X92510814Y-168149287D01*
X254381901Y-220355464D02*
X255261522Y-220971374D01*
X77415767Y-133712998D02*
X70001704Y-149612515D01*
X341273105Y-136481153D02*
X349239856Y-153565908D01*
X91784789Y-102898530D02*
X91784788Y-102898533D01*
X70001704Y-149612515D02*
X70656471Y-151411485D01*
X156750109Y-207571051D02*
X156836789Y-207694851D01*
X149350998Y-199364002D02*
X149360915Y-199364522D01*
X332588297Y-117856518D02*
X332588307Y-117856521D01*
X189735818Y-206706643D02*
X189735821Y-206706631D01*
X349239856Y-153565908D02*
X348435102Y-155776952D01*
X165724236Y-220387224D02*
X169297984Y-221017369D01*
X319719580Y-90259453D02*
X326904089Y-105666681D01*
X84600279Y-118305764D02*
X84600273Y-118305766D01*
X92344348Y-168070514D02*
X70656471Y-151411485D01*
X253808498Y-219953956D02*
X254381901Y-220355464D01*
X142581213Y-191845393D02*
X149350998Y-199364002D01*
X334088600Y-121073914D02*
X332588306Y-117856522D01*
X258947634Y-220321409D02*
X259991770Y-218830239D01*
X332588306Y-117856522D02*
X332588307Y-117856521D01*
X234889350Y-206706631D02*
X234885387Y-206707329D01*
X326904089Y-105666681D02*
X326904086Y-105666688D01*
X332670664Y-167886034D02*
X282045332Y-191843895D01*
X170235914Y-220360626D02*
X169297984Y-221017369D01*
X334088600Y-121073914D02*
X341273109Y-136481143D01*
X332670664Y-167886034D02*
X348435102Y-155776952D01*
X238473968Y-209216604D02*
X253808498Y-219953956D01*
X259991770Y-218830239D02*
X267845876Y-207613409D01*
X156836789Y-207694851D02*
X165581042Y-220182937D01*
X234885387Y-206707329D02*
X234884390Y-206706632D01*
X326904086Y-105666688D02*
X332588297Y-117856518D01*
X341273109Y-136481143D02*
X341273106Y-136481153D01*
X98969297Y-87491300D02*
X91784789Y-102898530D01*
X86953861Y-140588112D02*
X85855051Y-142944512D01*
X85855051Y-142944512D02*
X85855051Y-142944513D01*
X213630007Y-149512014D02*
X219932598Y-149512014D01*
X204692598Y-146972015D02*
X211090007Y-146972015D01*
X211090007Y-146972015D02*
X213630007Y-149512014D01*
X215562592Y-154397714D02*
X217908290Y-152052016D01*
X215562593Y-177227016D02*
X215562592Y-154397714D01*
X217908290Y-152052016D02*
X219932599Y-152052016D01*
D10*
X219932598Y-152052016D02*
X219932598Y-149512014D01*
D27*
X94138366Y-125180884D02*
X93039564Y-127537281D01*
X100224073Y-112130048D02*
X100224075Y-112130048D01*
X101322883Y-109773647D02*
X100224073Y-112130048D01*
X108507391Y-94366414D02*
X107408584Y-96722820D01*
X253702088Y-219269065D02*
X255378656Y-220443007D01*
X258656854Y-219864970D02*
X259530568Y-218617173D01*
X316274768Y-125463654D02*
X316274760Y-125463652D01*
X303406037Y-97866578D02*
X310590546Y-113273809D01*
X318583072Y-173005472D02*
X318145921Y-174206535D01*
X312026972Y-158945869D02*
X318583072Y-173005472D01*
X318145921Y-174206535D02*
X281740838Y-191434828D01*
X310910856Y-156552346D02*
X311971587Y-153638011D01*
X325859340Y-146017843D02*
X324959566Y-144088273D01*
X281737276Y-191438787D02*
X267469852Y-207284368D01*
X310590545Y-113273813D02*
X316274760Y-125463652D01*
X104281685Y-155067802D02*
X99650831Y-156753291D01*
X106661903Y-156177719D02*
X100197120Y-170041488D01*
X281737282Y-191438777D02*
X281737276Y-191438787D01*
X166014850Y-219930752D02*
X169180848Y-220489001D01*
X89418618Y-151981934D02*
X89128856Y-151185820D01*
X238930336Y-208925400D02*
X235047532Y-206206628D01*
X108098323Y-110505663D02*
X100913815Y-125912892D01*
X108098326Y-110505662D02*
X108098323Y-110505663D01*
X100197120Y-170041488D02*
X100721295Y-171481645D01*
X239891193Y-209598570D02*
X238930414Y-208925821D01*
X267469852Y-207284368D02*
X267465740Y-207284586D01*
X255378656Y-220443007D02*
X258656854Y-219864970D01*
X89128856Y-151185820D02*
X93729305Y-141320127D01*
X189578528Y-206206391D02*
X189579861Y-206206633D01*
X311971587Y-153638011D02*
X325357753Y-147395939D01*
X100913816Y-125912895D02*
X93729305Y-141320127D01*
X142955274Y-191468396D02*
X142956214Y-191471006D01*
X189579861Y-206206633D02*
X235047532Y-206206628D01*
X169180848Y-220489001D02*
X189578528Y-206206391D01*
X157037787Y-207110183D02*
X166014850Y-219930752D01*
X259030803Y-219330916D02*
X259507624Y-218649937D01*
X238930414Y-208925821D02*
X238930336Y-208925400D01*
X100913815Y-125912892D02*
X100913816Y-125912895D01*
X115282838Y-95098432D02*
X108098326Y-110505662D01*
X324959569Y-144088267D02*
X324959566Y-144088273D01*
X317775062Y-128681045D02*
X324959569Y-144088267D01*
X100721295Y-171481645D02*
X142955274Y-191468396D01*
X142956214Y-191471006D02*
X157037787Y-207110183D01*
X312026975Y-158945869D02*
X310910856Y-156552346D01*
X106661900Y-156177719D02*
X104281685Y-155067802D01*
X99650831Y-156753291D02*
X89418618Y-151981934D01*
X325357753Y-147395939D02*
X325859340Y-146017843D01*
X281740838Y-191434828D02*
X281737282Y-191438777D01*
X310590546Y-113273809D02*
X310590545Y-113273813D01*
X317775062Y-128681045D02*
X316274768Y-125463654D01*
X267465740Y-207284586D02*
X259060238Y-219288883D01*
X253702088Y-219269065D02*
X239891193Y-209598570D01*
X102168591Y-150551641D02*
X102168594Y-150551644D01*
X103267399Y-148195245D02*
X102168591Y-150551641D01*
X110451909Y-132788011D02*
X109353103Y-135144409D01*
X117636420Y-117380779D02*
X116537613Y-119737173D01*
X116537613Y-119737173D02*
X116537620Y-119737180D01*
X124820929Y-101973546D02*
X123722122Y-104329946D01*
X116199995Y-163052832D02*
X115101190Y-165409231D01*
X115101190Y-165409231D02*
X115101182Y-165409233D01*
X128215432Y-109956018D02*
X121030925Y-125363249D01*
X110691317Y-147536610D02*
X113846411Y-140770486D01*
X143289839Y-191073563D02*
X143292316Y-191080489D01*
X267073694Y-206972755D02*
X266796653Y-207368409D01*
X255506340Y-219912780D02*
X258366070Y-219408534D01*
X166067759Y-219134661D02*
X166305123Y-219473658D01*
X168489850Y-219858887D02*
X169064356Y-219960191D01*
X128215431Y-109956018D02*
X128215432Y-109956018D01*
X304842465Y-143538636D02*
X304842465Y-143538638D01*
X113846415Y-140770484D02*
X113846411Y-140770486D01*
X302050990Y-180143922D02*
X301555795Y-181504466D01*
X283288930Y-97316941D02*
X290473443Y-112724173D01*
X121030925Y-125363249D02*
X121030924Y-125363251D01*
X293263905Y-161269202D02*
X293327297Y-161405149D01*
X169375633Y-219742227D02*
X189416181Y-205709682D01*
X306780544Y-153035379D02*
X294110361Y-158943582D01*
X135399941Y-94548786D02*
X128215431Y-109956018D01*
X114093788Y-156884822D02*
X110691317Y-147536610D01*
X297657954Y-128131401D02*
X296157662Y-124914013D01*
X169064356Y-219960191D02*
X169375633Y-219742227D01*
X253600033Y-218577968D02*
X235217851Y-205706626D01*
X293327297Y-161405149D02*
X293321010Y-161422424D01*
X253600033Y-218577968D02*
X255506340Y-219912780D01*
X307872231Y-150035994D02*
X306780544Y-153035379D01*
X121030924Y-125363251D02*
X113846415Y-140770484D01*
X117383739Y-178813793D02*
X143289839Y-191073563D01*
X294656890Y-164287224D02*
X302050990Y-180143922D01*
X157377449Y-206723612D02*
X143292316Y-191080489D01*
X189416181Y-205709682D02*
X189420543Y-205706630D01*
X266796651Y-207368409D02*
X259046427Y-218436875D01*
X259046427Y-218436875D02*
X258740013Y-218874475D01*
X294110361Y-158943582D02*
X293263905Y-161269202D01*
X157377449Y-206723612D02*
X166067759Y-219134661D01*
X124031984Y-161519080D02*
X116762824Y-177107847D01*
X266796653Y-207368409D02*
X266796651Y-207368409D01*
X290473443Y-112724173D02*
X290473446Y-112724175D01*
X272271287Y-201200240D02*
X267073694Y-206972755D01*
X297657954Y-128131401D02*
X304842465Y-143538636D01*
X304842465Y-143538638D02*
X307872231Y-150035994D01*
X189420543Y-205706630D02*
X235217851Y-205706626D01*
X124031984Y-161519080D02*
X114093788Y-156884822D01*
X116762824Y-177107847D02*
X117383739Y-178813793D01*
X290473446Y-112724175D02*
X296157662Y-124914013D01*
X301555795Y-181504466D02*
X281436346Y-191025763D01*
X293321010Y-161422424D02*
X294656889Y-164287226D01*
X281436346Y-191025763D02*
X272275400Y-201200023D01*
X272275400Y-201200023D02*
X272271287Y-201200240D01*
X258366070Y-219408534D02*
X259216840Y-218193502D01*
X166305123Y-219473658D02*
X168489850Y-219858887D01*
X122285698Y-150002003D02*
X122285693Y-150002006D01*
X123384506Y-147645601D02*
X122285698Y-150002003D01*
X129470210Y-134594770D02*
X129470205Y-134594771D01*
X130569017Y-132238367D02*
X129470210Y-134594770D01*
X136654719Y-119187536D02*
X136654717Y-119187537D01*
X137753524Y-116831136D02*
X136654719Y-119187536D01*
X144938036Y-101423905D02*
X143839228Y-103780307D01*
X133570080Y-168394196D02*
X132471274Y-170750594D01*
X139288984Y-171391979D02*
X140402331Y-169004394D01*
X143605219Y-190669647D02*
X143645173Y-190714022D01*
X189253579Y-205206631D02*
X235373815Y-205206631D01*
X235375162Y-205206395D02*
X235373815Y-205206631D01*
X266722788Y-206602170D02*
X258923642Y-217740517D01*
X255615638Y-219378931D02*
X258080771Y-218944253D01*
X166594254Y-219014847D02*
X168949589Y-219430159D01*
X279043545Y-169224319D02*
X290490212Y-163886650D01*
X258255417Y-218694834D02*
X259067036Y-217535727D01*
X254599481Y-218667409D02*
X253469051Y-217875869D01*
X145585518Y-115297384D02*
X139901306Y-127487220D01*
X265918848Y-102658298D02*
X273103357Y-118065528D01*
X258080771Y-218944253D02*
X258255417Y-218694834D01*
X138401004Y-130704618D02*
X131216499Y-146111842D01*
X140402331Y-169004394D02*
X138704125Y-164338614D01*
X253469051Y-217875869D02*
X235375162Y-205206395D01*
X127524678Y-154028982D02*
X131216500Y-146111844D01*
X258923642Y-217740517D02*
X258449235Y-218418040D01*
X138401004Y-130704618D02*
X138487394Y-130519354D01*
X138487394Y-130519352D02*
X139901301Y-127487220D01*
X138704125Y-164338614D02*
X129758869Y-160167372D01*
X273103356Y-118065530D02*
X280287865Y-133472758D01*
X131216499Y-146111842D02*
X131216500Y-146111844D01*
X168949589Y-219430159D02*
X189252267Y-205214068D01*
X273103357Y-118065528D02*
X273103356Y-118065530D01*
X139901306Y-127487220D02*
X139901301Y-127487220D01*
X255089415Y-219010466D02*
X254599481Y-218667409D01*
X285245876Y-188669783D02*
X281104535Y-190629626D01*
X145585516Y-115297381D02*
X145585518Y-115297384D01*
X287472371Y-148879991D02*
X287472380Y-148879994D01*
X139288981Y-171391979D02*
X133114219Y-184633804D01*
X253469051Y-217875869D02*
X255615638Y-219378931D01*
X129758869Y-160167372D02*
X127524678Y-154028982D01*
X258255417Y-218694834D02*
X258325748Y-218594389D01*
X278190802Y-171567209D02*
X279043545Y-169224319D01*
X290490212Y-163886650D02*
X292234881Y-159093211D01*
X279399899Y-174160125D02*
X278190802Y-171567209D01*
X133114219Y-184633804D02*
X133585189Y-185927780D01*
X285649172Y-187561736D02*
X285245876Y-188669783D01*
X280287865Y-133472758D02*
X280287863Y-133472765D01*
X152770028Y-99890148D02*
X145585516Y-115297381D01*
X157734477Y-206361779D02*
X166594254Y-219014847D01*
X157734477Y-206361779D02*
X143645173Y-190714022D01*
X279399898Y-174160122D02*
X285649172Y-187561736D01*
X281104535Y-190629626D02*
X266722788Y-206602170D01*
X138487394Y-130519354D02*
X138487394Y-130519352D01*
X280287863Y-133472765D02*
X287472371Y-148879991D01*
X292234881Y-159093211D02*
X287472380Y-148879994D01*
X133585189Y-185927780D02*
X143605219Y-190669647D01*
X258325748Y-218594389D02*
X258518059Y-218319740D01*
X140754592Y-152986962D02*
X139655789Y-155343357D01*
X139655789Y-155343357D02*
X139655783Y-155343357D01*
X147939096Y-137579733D02*
X146840290Y-139936129D01*
X155123616Y-122172501D02*
X154024809Y-124528889D01*
X154024809Y-124528889D02*
X154024800Y-124528892D01*
X161209316Y-109121661D02*
X161209315Y-109121661D01*
X162308123Y-106765267D02*
X161209316Y-109121661D01*
X147728271Y-180623491D02*
X147728266Y-180623494D01*
X148827076Y-178267094D02*
X147728271Y-180623491D01*
X254717861Y-218132214D02*
X253759453Y-217461130D01*
X257797380Y-218477254D02*
X258632857Y-217284069D01*
X145016960Y-167624383D02*
X157116171Y-173266337D01*
X277134255Y-169301445D02*
X276163489Y-171968600D01*
X271815200Y-199318909D02*
X271858800Y-200150819D01*
X168027021Y-109763046D02*
X160842509Y-125170274D01*
X250661850Y-112531197D02*
X257846359Y-127938425D01*
X254717861Y-218132214D02*
X255215332Y-218480551D01*
X261244490Y-189801000D02*
X271815200Y-199318909D01*
X253759453Y-217461130D02*
X253761001Y-217469908D01*
X166885036Y-218558408D02*
X168820619Y-218899703D01*
X168820619Y-218899703D02*
X189090433Y-204706627D01*
X258744253Y-180091325D02*
X257855474Y-182533226D01*
X158930008Y-178249811D02*
X156947929Y-182500397D01*
X158997898Y-184933405D02*
X148935960Y-193993209D01*
X156947929Y-182500397D02*
X157002305Y-182525753D01*
X158097281Y-206008192D02*
X166885036Y-218558408D01*
X157002305Y-182525753D02*
X157649821Y-184304788D01*
X265030873Y-143345658D02*
X272215383Y-158752890D01*
X153658001Y-140577510D02*
X146473489Y-155984743D01*
X143276134Y-162841501D02*
X145016960Y-167624383D01*
X265030867Y-143345656D02*
X265030873Y-143345658D01*
X253759453Y-217461130D02*
X235544131Y-204706628D01*
X158097281Y-206008192D02*
X158088509Y-206007733D01*
X160842509Y-125170274D02*
X160842511Y-125170275D01*
X157649821Y-184304788D02*
X158997897Y-184933406D01*
X160842511Y-125170275D02*
X155158298Y-137360120D01*
X158088509Y-206007733D02*
X148844359Y-195741066D01*
X257846359Y-127938425D02*
X257846358Y-127938426D01*
X189090433Y-204706627D02*
X235544131Y-204706628D01*
X271858800Y-200150819D02*
X266376269Y-206239787D01*
X257846358Y-127938426D02*
X265030867Y-143345656D01*
X276163489Y-171968600D02*
X258744253Y-180091325D01*
X253761001Y-217469908D02*
X255722211Y-218843165D01*
X153658001Y-140577510D02*
X155158298Y-137360120D01*
X266365763Y-206240340D02*
X258158444Y-217961599D01*
X146473489Y-155984743D02*
X146473490Y-155984748D01*
X157116171Y-173266337D02*
X158930008Y-178249811D01*
X148935960Y-193993209D02*
X148844359Y-195741066D01*
X266376269Y-206239787D02*
X266365763Y-206240340D01*
X272215383Y-158752890D02*
X277134255Y-169301445D01*
X257855474Y-182533226D02*
X261244492Y-189801000D01*
X146473490Y-155984748D02*
X143276134Y-162841501D01*
X255722211Y-218843165D02*
X257797380Y-218477254D01*
X156011587Y-162859865D02*
X154912784Y-165216260D01*
X163196096Y-147452626D02*
X162097287Y-149809024D01*
X162097287Y-149809024D02*
X162097291Y-149809030D01*
X170380606Y-132045392D02*
X169281799Y-134401790D01*
X176466311Y-118994557D02*
X176466309Y-118994558D01*
X177565115Y-116638162D02*
X176466311Y-118994557D01*
X253971491Y-176832217D02*
X256958386Y-168625791D01*
X158372532Y-173058787D02*
X161730480Y-165857642D01*
X176099511Y-135043174D02*
X176099504Y-135043177D01*
X256958387Y-168625786D02*
X256958386Y-168625790D01*
X235404854Y-122404093D02*
X242589363Y-137811325D01*
X170415289Y-147233014D02*
X170415290Y-147233013D01*
X251801091Y-198008820D02*
X250062607Y-194280630D01*
X257508258Y-218018447D02*
X258374073Y-216781937D01*
X235701446Y-204206394D02*
X235700095Y-204206627D01*
X235701446Y-204206394D02*
X255845751Y-218311586D01*
X170415291Y-147233008D02*
X170415290Y-147233013D01*
X257758064Y-188312556D02*
X258444904Y-186425482D01*
X249773876Y-153218558D02*
X249773880Y-153218560D01*
X255845751Y-218311586D02*
X257508258Y-218018447D01*
X166721959Y-199741688D02*
X166361726Y-198751950D01*
X168914994Y-150450411D02*
X170415289Y-147233014D01*
X176472554Y-212931380D02*
X175108507Y-212690858D01*
X235700095Y-204206627D02*
X188941657Y-204206628D01*
X188932782Y-204206627D02*
X176472554Y-212931380D01*
X249773880Y-153218560D02*
X256958387Y-168625786D01*
X250062607Y-194280630D02*
X251105765Y-191414574D01*
X176099504Y-135043177D02*
X170415291Y-147233008D01*
X164765871Y-184546064D02*
X162101328Y-183303566D01*
X167458658Y-201765749D02*
X166721959Y-199741688D01*
X242589363Y-137811325D02*
X242589365Y-137811324D01*
X168914994Y-150450411D02*
X161730480Y-165857642D01*
X266530075Y-205133951D02*
X266295455Y-203803355D01*
X242589365Y-137811324D02*
X249773876Y-153218558D01*
X168369361Y-194446562D02*
X164765871Y-184546064D01*
X251105765Y-191414574D02*
X257758064Y-188312556D01*
X253252426Y-195936098D02*
X251801087Y-198008821D01*
X166361726Y-198751950D02*
X168369361Y-194446562D01*
X175108507Y-212690858D02*
X167458658Y-201765749D01*
X162101328Y-183303566D02*
X158372532Y-173058787D01*
X183284019Y-119635949D02*
X176099511Y-135043174D01*
X254696263Y-195681507D02*
X253252426Y-195936098D01*
X266295455Y-203803355D02*
X254696263Y-195681507D01*
X257867666Y-217505158D02*
X266530075Y-205133951D01*
X258444904Y-186425482D02*
X253971491Y-176832217D01*
X188941657Y-204206628D02*
X188932782Y-204206627D01*
X170169774Y-175089152D02*
X170169773Y-175089153D01*
X171268576Y-172732761D02*
X170169774Y-175089152D01*
X178453086Y-157325527D02*
X177354279Y-159681924D01*
X184538792Y-144274686D02*
X184538794Y-144274689D01*
X185637595Y-141918293D02*
X184538792Y-144274686D01*
X192822112Y-126511066D02*
X191723307Y-128867458D01*
X191723307Y-128867458D02*
X191723303Y-128867460D01*
X165091437Y-194988812D02*
X163159265Y-196728550D01*
X163159265Y-196728550D02*
X163159260Y-196728551D01*
X178181729Y-196943074D02*
X179673030Y-199072869D01*
X179673030Y-199072869D02*
X179673029Y-199072870D01*
X353769524Y-135950174D02*
X353769535Y-135950179D01*
X352670724Y-133593789D02*
X353769524Y-135950174D01*
X346585023Y-120542944D02*
X346585022Y-120542946D01*
X345486217Y-118186549D02*
X346585023Y-120542944D01*
X339400509Y-105135720D02*
X339400509Y-105135721D01*
X338301703Y-102779322D02*
X339400509Y-105135720D01*
X332216001Y-89728483D02*
X332216001Y-89728484D01*
X331117197Y-87372088D02*
X332216001Y-89728483D01*
X337455989Y-143557309D02*
X337455995Y-143557310D01*
X336357183Y-141200907D02*
X337455989Y-143557309D01*
X330271483Y-128150073D02*
X330271481Y-128150078D01*
X329172679Y-125793680D02*
X330271483Y-128150073D01*
X323086969Y-112742845D02*
X323086973Y-112742848D01*
X321988162Y-110386448D02*
X323086969Y-112742845D01*
X314803654Y-94979212D02*
X315902460Y-97335610D01*
X315902460Y-97335610D02*
X315902462Y-97335611D01*
X324523396Y-158414900D02*
X324523396Y-158414901D01*
X323424591Y-156058505D02*
X324523396Y-158414900D01*
X316240080Y-140651274D02*
X317338886Y-143007668D01*
X317338886Y-143007668D02*
X317338889Y-143007669D01*
X309055571Y-125244035D02*
X310154376Y-127600433D01*
X310154376Y-127600433D02*
X310154375Y-127600435D01*
X302969867Y-112193205D02*
X302969866Y-112193207D01*
X301871062Y-109836810D02*
X302969867Y-112193205D01*
X294686548Y-94429576D02*
X295785353Y-96785970D01*
X306054506Y-161399862D02*
X307153311Y-163756257D01*
X307153311Y-163756257D02*
X307153310Y-163756260D01*
X299968801Y-148349025D02*
X299968800Y-148349030D01*
X298869997Y-145992630D02*
X299968801Y-148349025D01*
X292784285Y-132941796D02*
X292784291Y-132941798D01*
X291685480Y-130585400D02*
X292784285Y-132941796D01*
X284500973Y-115178164D02*
X285599781Y-117534565D01*
X277316465Y-99770934D02*
X278415272Y-102127332D01*
X278415272Y-102127332D02*
X278415271Y-102127333D01*
X291896318Y-173629149D02*
X291896316Y-173629156D01*
X290797516Y-171272760D02*
X291896318Y-173629149D01*
X284711808Y-158221927D02*
X284711807Y-158221928D01*
X283613000Y-155865525D02*
X284711808Y-158221927D01*
X276428490Y-140458293D02*
X277527295Y-142814690D01*
X277527295Y-142814690D02*
X277527299Y-142814691D01*
X270342780Y-127407457D02*
X270342789Y-127407460D01*
X269243975Y-125051062D02*
X270342780Y-127407457D01*
X262059467Y-109643832D02*
X263158273Y-112000226D01*
X263158273Y-112000226D02*
X263158276Y-112000228D01*
X269454810Y-168094825D02*
X269454813Y-168094825D01*
X268356003Y-165738425D02*
X269454810Y-168094825D01*
X262270302Y-152687591D02*
X262270306Y-152687592D01*
X261171496Y-150331194D02*
X262270302Y-152687591D01*
X253986982Y-134923960D02*
X255085789Y-137280360D01*
X246802471Y-119516729D02*
X247901276Y-121873125D01*
X247901276Y-121873125D02*
X247901284Y-121873128D01*
X270607873Y-182689764D02*
X272540050Y-184429504D01*
X260000426Y-206435764D02*
X258509129Y-208565559D01*
X258509129Y-208565559D02*
X258509126Y-208565556D01*
X84460415Y-145935335D02*
X83678568Y-147612004D01*
X138261144Y-158334177D02*
X137479300Y-160010845D01*
X168775132Y-178079972D02*
X167993292Y-179756641D01*
X167993292Y-179756641D02*
X167993293Y-179756645D01*
X153518142Y-168207080D02*
X152736298Y-169883747D01*
X83678568Y-147612004D02*
X83678565Y-147612006D01*
X99992114Y-155219128D02*
X99992106Y-155219129D01*
X152736298Y-169883747D02*
X152736291Y-169883749D01*
X137479300Y-160010845D02*
X137479302Y-160010850D01*
X120891051Y-152992825D02*
X120109212Y-154669485D01*
X100773952Y-153542461D02*
X99992114Y-155219128D01*
X107958463Y-138135232D02*
X107176623Y-139811891D01*
X107176623Y-139811891D02*
X107176622Y-139811893D01*
X175959641Y-162672743D02*
X175177798Y-164349408D01*
X160702650Y-152799847D02*
X159920808Y-154476511D01*
X91644922Y-130528100D02*
X90863076Y-132204766D01*
X175177798Y-164349408D02*
X175177801Y-164349411D01*
X145445656Y-142926951D02*
X144663811Y-144603617D01*
X90863076Y-132204766D02*
X90863079Y-132204768D01*
X127293726Y-139262255D02*
X127293721Y-139262256D01*
X159920808Y-154476511D02*
X159920804Y-154476514D01*
X128075567Y-137585590D02*
X127293726Y-139262255D01*
X98829431Y-115120867D02*
X98047593Y-116797534D01*
X114361136Y-124404662D02*
X114361129Y-124404664D01*
X167105316Y-139069280D02*
X167105317Y-139069277D01*
X167887158Y-137392611D02*
X167105316Y-139069280D01*
X115142979Y-122727998D02*
X114361136Y-124404662D01*
X98047593Y-116797534D02*
X98047588Y-116797535D01*
X152630159Y-127519713D02*
X151848321Y-129196373D01*
X151848321Y-129196373D02*
X151848323Y-129196381D01*
X135260077Y-122178357D02*
X134478233Y-123855024D01*
X183144152Y-147265508D02*
X182362311Y-148942177D01*
X182362311Y-148942177D02*
X182362310Y-148942182D01*
X190328664Y-131858280D02*
X189546817Y-133534949D01*
X106013942Y-99713640D02*
X105232100Y-101390309D01*
X141662748Y-108447790D02*
X141662746Y-108447792D01*
X142444587Y-106771126D02*
X141662748Y-108447790D01*
X159814674Y-112112483D02*
X159032828Y-113789150D01*
X105232100Y-101390309D02*
X105232097Y-101390308D01*
X121545641Y-108997427D02*
X121545642Y-108997430D01*
X175071670Y-121985379D02*
X174289828Y-123662044D01*
X189546817Y-133534949D02*
X189546819Y-133534949D01*
X122327483Y-107320766D02*
X121545641Y-108997427D01*
X174289828Y-123662044D02*
X174289826Y-123662046D01*
X182626949Y-203291496D02*
X182626949Y-203291502D01*
X185569837Y-205951003D02*
X188775322Y-203706501D01*
X204692594Y-172372016D02*
X204692594Y-202921144D01*
X181565835Y-201776072D02*
X182626948Y-203291499D01*
X160706879Y-198936683D02*
X159332064Y-200174572D01*
X182626948Y-203291499D02*
X182626949Y-203291502D01*
X184336927Y-205733606D02*
X185569837Y-205951003D01*
X182626949Y-203291502D02*
X184336927Y-205733606D01*
X181565838Y-201776072D02*
X182626949Y-203291496D01*
X204692594Y-202921144D02*
X203907108Y-203706627D01*
X113706542Y-168400052D02*
X112924701Y-170076719D01*
X188775322Y-203706501D02*
X188776072Y-203706628D01*
X131076632Y-173741412D02*
X130294794Y-175418075D01*
X146333626Y-183614311D02*
X145551785Y-185290978D01*
X159332064Y-200174572D02*
X159332066Y-200174575D01*
X188776072Y-203706628D02*
X203907108Y-203706627D01*
X130294794Y-175418075D02*
X130294792Y-175418077D01*
X338850635Y-146548130D02*
X339632477Y-148224797D01*
X271631295Y-172762312D02*
X271631297Y-172762313D01*
X319515370Y-147675152D02*
X319515372Y-147675154D01*
X318733529Y-145998490D02*
X319515370Y-147675152D01*
X302145280Y-153016511D02*
X302145291Y-153016515D01*
X270849452Y-171085646D02*
X271631295Y-172762312D01*
X286106448Y-161212748D02*
X286888286Y-162889409D01*
X286888286Y-162889409D02*
X286888290Y-162889410D01*
X301363440Y-151339850D02*
X302145280Y-153016511D01*
X355164175Y-138940999D02*
X355946020Y-140617671D01*
X347979661Y-123533766D02*
X348761505Y-125210433D01*
X278921939Y-145805512D02*
X279703782Y-147482178D01*
X263664946Y-155678412D02*
X264446789Y-157355080D01*
X311549015Y-130591255D02*
X312330855Y-132267917D01*
X279703782Y-147482178D02*
X279703781Y-147482180D01*
X348761505Y-125210433D02*
X348761504Y-125210436D01*
X332447964Y-132817567D02*
X332447966Y-132817567D01*
X331666121Y-131140898D02*
X332447964Y-132817567D01*
X294960770Y-137609278D02*
X294960780Y-137609282D01*
X312330855Y-132267917D02*
X312330863Y-132267920D01*
X294178931Y-135932618D02*
X294960770Y-137609278D01*
X264446789Y-157355080D02*
X264446790Y-157355081D01*
X340795150Y-108126540D02*
X341576992Y-109803205D01*
X286994421Y-120525385D02*
X287776260Y-122202045D01*
X304364505Y-115184027D02*
X305146347Y-116860690D01*
X287776260Y-122202045D02*
X287776264Y-122202046D01*
X272519270Y-132074943D02*
X272519269Y-132074946D01*
X324481613Y-115733668D02*
X325263453Y-117410330D01*
X305146347Y-116860690D02*
X305146351Y-116860691D01*
X256480429Y-140271180D02*
X257262271Y-141947845D01*
X257262271Y-141947845D02*
X257262276Y-141947846D01*
X325263453Y-117410330D02*
X325263457Y-117410332D01*
X341576992Y-109803205D02*
X341576997Y-109803206D01*
X271737430Y-130398280D02*
X272519270Y-132074943D01*
X265334756Y-116667711D02*
X265334762Y-116667713D01*
X318078945Y-102003098D02*
X318078943Y-102003103D01*
X249295924Y-124863947D02*
X250077766Y-126540613D01*
X317297103Y-100326431D02*
X318078945Y-102003098D01*
X280591751Y-106794815D02*
X280591753Y-106794816D01*
X264552916Y-114991048D02*
X265334756Y-116667711D01*
X297179993Y-99776790D02*
X297961833Y-101453454D01*
X333610640Y-92719307D02*
X334392485Y-94395975D01*
X279809911Y-105118153D02*
X280591751Y-106794815D01*
X297961833Y-101453454D02*
X297961840Y-101453457D01*
X326699878Y-163082387D02*
X326699882Y-163082388D01*
X325918036Y-161405721D02*
X326699878Y-163082387D01*
X308547950Y-166747080D02*
X309329793Y-168423746D01*
X253829987Y-215248059D02*
X252641575Y-215457610D01*
X294072798Y-178296642D02*
X294072802Y-178296643D01*
X255555207Y-212784189D02*
X253829987Y-215248059D01*
X235862155Y-203706627D02*
X235868507Y-203712980D01*
X309329793Y-168423746D02*
X309329799Y-168423748D01*
X274992429Y-186637638D02*
X276367242Y-187875524D01*
X293290955Y-176619977D02*
X294072798Y-178296642D01*
X219932594Y-172372018D02*
X219932598Y-202912113D01*
X219932598Y-202912113D02*
X220727109Y-203706629D01*
X252641575Y-215457610D02*
X235868507Y-203712980D01*
X220727109Y-203706629D02*
X235862155Y-203706627D01*
X256616324Y-211268763D02*
X255555205Y-212784193D01*
X255555205Y-212784193D02*
X255555207Y-212784189D01*
X209062592Y-151792885D02*
X206781721Y-149512015D01*
X209062593Y-177227012D02*
X209062592Y-151792885D01*
X206781721Y-149512015D02*
X204692597Y-149512015D01*
M02*
