%TF.GenerationSoftware,KiCad,Pcbnew,8.0.7*%
%TF.CreationDate,2024-12-23T04:42:48-05:00*%
%TF.ProjectId,choc,63686f63-2e6b-4696-9361-645f70636258,v1.0.0*%
%TF.SameCoordinates,Original*%
%TF.FileFunction,Paste,Bot*%
%TF.FilePolarity,Positive*%
%FSLAX46Y46*%
G04 Gerber Fmt 4.6, Leading zero omitted, Abs format (unit mm)*
G04 Created by KiCad (PCBNEW 8.0.7) date 2024-12-23 04:42:48*
%MOMM*%
%LPD*%
G01*
G04 APERTURE LIST*
G04 Aperture macros list*
%AMRotRect*
0 Rectangle, with rotation*
0 The origin of the aperture is its center*
0 $1 length*
0 $2 width*
0 $3 Rotation angle, in degrees counterclockwise*
0 Add horizontal line*
21,1,$1,$2,0,0,$3*%
G04 Aperture macros list end*
%ADD10RotRect,2.600000X2.600000X25.000000*%
%ADD11RotRect,0.900000X1.200000X115.000000*%
%ADD12RotRect,0.900000X1.200000X65.000000*%
%ADD13RotRect,2.600000X2.600000X335.000000*%
%ADD14RotRect,0.900000X1.200000X138.000000*%
%ADD15RotRect,0.900000X1.200000X55.000000*%
%ADD16RotRect,0.900000X1.200000X42.000000*%
%ADD17RotRect,2.600000X2.600000X325.000000*%
%ADD18RotRect,2.600000X2.600000X48.000000*%
%ADD19RotRect,0.900000X1.200000X125.000000*%
%ADD20RotRect,2.600000X2.600000X35.000000*%
%ADD21RotRect,2.600000X2.600000X312.000000*%
G04 APERTURE END LIST*
D10*
X257846357Y-127938426D03*
X269243974Y-125051062D03*
D11*
X293290956Y-176619976D03*
X291896316Y-173629156D03*
X347979662Y-123533766D03*
X346585022Y-120542946D03*
X286106447Y-161212747D03*
X284711807Y-158221927D03*
D10*
X324959566Y-144088273D03*
X336357183Y-141200909D03*
X283288931Y-97316940D03*
X294686548Y-94429576D03*
D12*
X138261142Y-158334178D03*
X139655782Y-155343358D03*
D10*
X265030873Y-143345659D03*
X276428490Y-140458295D03*
X242589365Y-137811325D03*
X253986982Y-134923961D03*
D13*
X168914991Y-150450408D03*
X178453086Y-157325526D03*
D11*
X286994421Y-120525385D03*
X285599781Y-117534565D03*
X308547950Y-166747080D03*
X307153310Y-163756260D03*
D10*
X265918848Y-102658298D03*
X277316465Y-99770934D03*
D12*
X146333625Y-183614312D03*
X147728265Y-180623492D03*
D13*
X106661901Y-156177717D03*
X116199996Y-163052835D03*
D10*
X312026975Y-158945869D03*
X323424592Y-156058505D03*
D13*
X152770025Y-99890148D03*
X162308120Y-106765266D03*
X183284016Y-119635949D03*
X192822111Y-126511067D03*
D11*
X355164175Y-138940999D03*
X353769535Y-135950179D03*
X338850635Y-146548130D03*
X337455995Y-143557310D03*
D10*
X297657954Y-128131400D03*
X309055571Y-125244036D03*
D13*
X84600271Y-118305768D03*
X94138366Y-125180886D03*
X121030923Y-125363249D03*
X130569018Y-132238367D03*
D10*
X280287863Y-133472765D03*
X291685480Y-130585401D03*
D12*
X153518143Y-168207080D03*
X154912783Y-165216260D03*
D10*
X250661850Y-112531197D03*
X262059467Y-109643833D03*
D13*
X138401001Y-130704615D03*
X147939096Y-137579733D03*
D12*
X107958464Y-138135230D03*
X109353104Y-135144410D03*
D13*
X124031986Y-161519078D03*
X133570081Y-168394196D03*
X93729303Y-141320127D03*
X103267398Y-148195245D03*
D12*
X142444587Y-106771126D03*
X143839227Y-103780306D03*
X128075564Y-137585591D03*
X129470204Y-134594771D03*
D13*
X128215433Y-109956019D03*
X137753528Y-116831137D03*
X77415766Y-133712995D03*
X86953861Y-140588113D03*
D11*
X297179992Y-99776789D03*
X295785352Y-96785969D03*
D12*
X145445652Y-142926950D03*
X146840292Y-139936130D03*
X167887160Y-137392610D03*
X169281800Y-134401790D03*
X168775133Y-178079974D03*
X170169773Y-175089154D03*
X190328665Y-131858280D03*
X191723305Y-128867460D03*
D13*
X139288983Y-171391978D03*
X148827078Y-178267096D03*
D11*
X279809910Y-105118152D03*
X278415270Y-102127332D03*
D13*
X153657999Y-140577512D03*
X163196094Y-147452630D03*
X91784788Y-102898534D03*
X101322883Y-109773652D03*
X146473492Y-155984749D03*
X156011587Y-162859867D03*
D11*
X340795151Y-108126541D03*
X339400511Y-105135721D03*
X249295924Y-124863948D03*
X247901284Y-121873128D03*
X333610642Y-92719305D03*
X332216002Y-89728485D03*
D14*
X274992429Y-186637637D03*
X272540049Y-184429505D03*
D10*
X256958386Y-168625790D03*
X268356003Y-165738426D03*
X341273106Y-136481153D03*
X352670723Y-133593789D03*
X319719580Y-90259452D03*
X331117197Y-87372088D03*
D13*
X160842511Y-125170276D03*
X170380606Y-132045394D03*
D11*
X271737429Y-130398279D03*
X270342789Y-127407459D03*
X331666121Y-131140898D03*
X330271481Y-128150078D03*
D10*
X326904086Y-105666688D03*
X338301703Y-102779324D03*
X279399899Y-174160124D03*
X290797516Y-171272760D03*
X317775062Y-128681045D03*
X329172679Y-125793681D03*
D15*
X256616324Y-211268761D03*
X258509126Y-208565561D03*
D13*
X100913817Y-125912895D03*
X110451912Y-132788013D03*
D12*
X115142979Y-122727999D03*
X116537619Y-119737179D03*
X98829435Y-115120868D03*
X100224075Y-112130048D03*
D11*
X256480429Y-140271180D03*
X255085789Y-137280360D03*
D16*
X160706879Y-198936684D03*
X163159261Y-196728552D03*
D10*
X303406037Y-97866578D03*
X314803654Y-94979214D03*
D11*
X311549015Y-130591255D03*
X310154375Y-127600435D03*
X318733530Y-145998490D03*
X317338890Y-143007670D03*
D12*
X175071672Y-121985379D03*
X176466312Y-118994559D03*
D17*
X251801091Y-198008821D03*
X260000426Y-206435763D03*
D10*
X249773880Y-153218560D03*
X261171497Y-150331196D03*
D12*
X135260077Y-122178356D03*
X136654717Y-119187536D03*
D11*
X278921939Y-145805511D03*
X277527299Y-142814691D03*
D12*
X159814675Y-112112481D03*
X161209315Y-109121661D03*
X152630160Y-127519714D03*
X154024800Y-124528894D03*
X120891051Y-152992826D03*
X122285691Y-150002006D03*
D10*
X235404854Y-122404094D03*
X246802471Y-119516730D03*
D13*
X98969294Y-87491300D03*
X108507389Y-94366418D03*
D12*
X122327484Y-107320765D03*
X123722124Y-104329945D03*
D10*
X294656889Y-164287226D03*
X306054506Y-161399862D03*
D12*
X113706546Y-168400054D03*
X115101186Y-165409234D03*
D11*
X317297103Y-100326431D03*
X315902463Y-97335611D03*
D13*
X108098324Y-110505662D03*
X117636419Y-117380780D03*
D10*
X290473447Y-112724175D03*
X301871064Y-109836811D03*
D11*
X324481613Y-115733668D03*
X323086973Y-112742848D03*
D13*
X168027018Y-109763044D03*
X177565113Y-116638162D03*
D10*
X287472380Y-148879994D03*
X298869997Y-145992630D03*
D13*
X131216499Y-146111843D03*
X140754594Y-152986961D03*
D10*
X334088600Y-121073914D03*
X345486217Y-118186550D03*
D11*
X270849452Y-171085646D03*
X269454812Y-168094826D03*
D18*
X261244492Y-189801000D03*
X270607873Y-182689764D03*
D10*
X304842464Y-143538638D03*
X316240081Y-140651274D03*
D11*
X301363440Y-151339850D03*
X299968800Y-148349030D03*
D12*
X160702649Y-152799847D03*
X162097289Y-149809027D03*
X131076633Y-173741411D03*
X132471273Y-170750591D03*
D19*
X181565836Y-201776072D03*
X179673030Y-199072870D03*
D12*
X175959643Y-162672742D03*
X177354283Y-159681922D03*
D11*
X264552916Y-114991048D03*
X263158276Y-112000228D03*
D13*
X135399942Y-94548788D03*
X144938037Y-101423906D03*
D11*
X304364507Y-115184027D03*
X302969867Y-112193207D03*
D20*
X167458660Y-201765751D03*
X178181732Y-196943077D03*
D11*
X263664946Y-155678411D03*
X262270306Y-152687591D03*
X294178931Y-135932618D03*
X292784291Y-132941798D03*
D13*
X115282837Y-95098429D03*
X124820932Y-101973547D03*
D12*
X91644921Y-130528101D03*
X93039561Y-127537281D03*
D10*
X272215383Y-158752890D03*
X283613000Y-155865526D03*
D11*
X325918036Y-161405721D03*
X324523396Y-158414901D03*
D12*
X100773954Y-153542463D03*
X102168594Y-150551643D03*
X183144151Y-147265507D03*
X184538791Y-144274687D03*
D13*
X145585520Y-115297383D03*
X155123615Y-122172501D03*
D12*
X106013945Y-99713641D03*
X107408585Y-96722821D03*
D10*
X273103358Y-118065529D03*
X284500975Y-115178165D03*
D13*
X176099502Y-135043174D03*
X185637597Y-141918292D03*
X113846412Y-140770485D03*
X123384507Y-147645603D03*
D10*
X310590545Y-113273812D03*
X321988162Y-110386448D03*
D13*
X161730480Y-165857641D03*
X171268575Y-172732759D03*
D12*
X84460412Y-145935336D03*
X85855052Y-142944516D03*
D21*
X158997894Y-184933403D03*
X165091437Y-194988811D03*
M02*
