%TF.GenerationSoftware,KiCad,Pcbnew,8.0.7*%
%TF.CreationDate,2024-12-23T04:43:13-05:00*%
%TF.ProjectId,choc,63686f63-2e6b-4696-9361-645f70636258,v1.0.0*%
%TF.SameCoordinates,Original*%
%TF.FileFunction,Drillmap*%
%TF.FilePolarity,Positive*%
%FSLAX45Y45*%
G04 Gerber Fmt 4.5, Leading zero omitted, Abs format (unit mm)*
G04 Created by KiCad (PCBNEW 8.0.7) date 2024-12-23 04:43:13*
%MOMM*%
%LPD*%
G01*
G04 APERTURE LIST*
%ADD10C,0.150000*%
%ADD11C,0.200000*%
%ADD12C,0.190000*%
%ADD13C,0.300000*%
%ADD14C,0.340000*%
G04 APERTURE END LIST*
D10*
X22625572Y-12342883D02*
G75*
G02*
X22734481Y-11964231I271868J126793D01*
G01*
X14260172Y-19280222D02*
X15612871Y-20782547D01*
X36147462Y-14365968D02*
X33220781Y-8089682D01*
X32891832Y-7921943D02*
X29494494Y-8580089D01*
X25930243Y-22090335D02*
G75*
G02*
X25512514Y-22163879I-245653J172185D01*
G01*
X33349984Y-16811009D02*
G75*
G02*
X33295564Y-16844262I-182714J237859D01*
G01*
X23034617Y-13220081D02*
G75*
G02*
X22762725Y-13646861I-271897J-126779D01*
G01*
X6404202Y-14730668D02*
G75*
G02*
X6315059Y-14365969I182728J237908D01*
G01*
X18920528Y-20784112D02*
G75*
G02*
X19092601Y-20729856I172072J-245738D01*
G01*
X22625572Y-12342883D02*
X23034617Y-13220081D01*
X27722926Y-9126042D02*
X25585369Y-10122801D01*
X25549171Y-10142827D02*
G75*
G02*
X25585369Y-10122800I163009J-251903D01*
G01*
X27722926Y-9126042D02*
G75*
G02*
X27761535Y-9111185I126864J-272088D01*
G01*
X32891832Y-7921943D02*
G75*
G02*
X33220779Y-8089683I57058J-294517D01*
G01*
X9166956Y-16844263D02*
G75*
G02*
X9112534Y-16811009I128355J271213D01*
G01*
X22762725Y-13646866D02*
X19699795Y-13646866D01*
X23369918Y-20729857D02*
G75*
G02*
X23541990Y-20784113I2J-299983D01*
G01*
X26826931Y-20811090D02*
G75*
G02*
X26849647Y-20782547I245439J-172020D01*
G01*
X16950009Y-22163884D02*
G75*
G02*
X16532276Y-22090334I-172079J245714D01*
G01*
X29463374Y-8587864D02*
X27761535Y-9111185D01*
X12968026Y-8580089D02*
X9570687Y-7921943D01*
X14165556Y-19209793D02*
G75*
G02*
X14260171Y-19280223I-128336J-271177D01*
G01*
X25930243Y-22090335D02*
X26826931Y-20811090D01*
X19427902Y-13220081D02*
X19836946Y-12342883D01*
X19699795Y-13646866D02*
G75*
G02*
X19427898Y-13220079I5J300007D01*
G01*
X26849648Y-20782547D02*
X28202347Y-19280222D01*
X9241738Y-8089682D02*
X6315058Y-14365968D01*
X9241738Y-8089682D02*
G75*
G02*
X9570687Y-7921945I271892J-126788D01*
G01*
X15612871Y-20782547D02*
G75*
G02*
X15635587Y-20811090I-222961J-200753D01*
G01*
X14700984Y-9111185D02*
G75*
G02*
X14739594Y-9126041I-88134J-286655D01*
G01*
X25549171Y-10142827D02*
X22734481Y-11964231D01*
X23541991Y-20784112D02*
X25512510Y-22163884D01*
X16950009Y-22163884D02*
X18920528Y-20784112D01*
X6404202Y-14730668D02*
X9112534Y-16811009D01*
X15635587Y-20811090D02*
X16532276Y-22090334D01*
X19092601Y-20729857D02*
X23369918Y-20729857D01*
X19728038Y-11964231D02*
X16913348Y-10142827D01*
X12968026Y-8580089D02*
G75*
G02*
X12999145Y-8587864I-57036J-294421D01*
G01*
X16877150Y-10122801D02*
X14739593Y-9126042D01*
X28202347Y-19280222D02*
G75*
G02*
X28296963Y-19209792I222983J-200788D01*
G01*
X36147461Y-14365968D02*
G75*
G02*
X36058316Y-14730666I-271901J-126782D01*
G01*
X9166956Y-16844263D02*
X14165556Y-19209793D01*
X28296963Y-19209793D02*
X33295564Y-16844263D01*
X16877150Y-10122801D02*
G75*
G02*
X16913348Y-10142828I-126680J-271699D01*
G01*
X33349984Y-16811009D02*
X36058317Y-14730668D01*
X14700984Y-9111185D02*
X12999145Y-8587864D01*
X29463374Y-8587864D02*
G75*
G02*
X29494494Y-8580089I88096J-286456D01*
G01*
X19728038Y-11964231D02*
G75*
G02*
X19836952Y-12342885I-162978J-251869D01*
G01*
D11*
D12*
X7193465Y-13721520D02*
X7383465Y-13911520D01*
X7383465Y-13721520D02*
X7193465Y-13911520D01*
X7911916Y-12180797D02*
X8101916Y-12370797D01*
X8101916Y-12180797D02*
X7911916Y-12370797D01*
X8190404Y-14186400D02*
X8380404Y-14376400D01*
X8380404Y-14186400D02*
X8190404Y-14376400D01*
X8630367Y-10640074D02*
X8820367Y-10830074D01*
X8820367Y-10640074D02*
X8630367Y-10830074D01*
X8824819Y-14482233D02*
X9014819Y-14672233D01*
X9014819Y-14482233D02*
X8824819Y-14672233D01*
X8908854Y-12645677D02*
X9098854Y-12835677D01*
X9098854Y-12645677D02*
X8908854Y-12835677D01*
X9348818Y-9099351D02*
X9538818Y-9289351D01*
X9538818Y-9099351D02*
X9348818Y-9289351D01*
X9543270Y-12941510D02*
X9733270Y-13131510D01*
X9733270Y-12941510D02*
X9543270Y-13131510D01*
X9627306Y-11104954D02*
X9817306Y-11294954D01*
X9817306Y-11104954D02*
X9627306Y-11294954D01*
X9821758Y-14947113D02*
X10011758Y-15137113D01*
X10011758Y-14947113D02*
X9821758Y-15137113D01*
X10118079Y-15967992D02*
X10308079Y-16157992D01*
X10308079Y-15967992D02*
X10118079Y-16157992D01*
X10261721Y-11400787D02*
X10451721Y-11590787D01*
X10451721Y-11400787D02*
X10261721Y-11590787D01*
X10345757Y-9564230D02*
X10535757Y-9754230D01*
X10535757Y-9564230D02*
X10345757Y-9754230D01*
X10540209Y-13406390D02*
X10730209Y-13596390D01*
X10730209Y-13406390D02*
X10540209Y-13596390D01*
X10836530Y-14427269D02*
X11026530Y-14617269D01*
X11026530Y-14427269D02*
X10836530Y-14617269D01*
X10980172Y-9860064D02*
X11170172Y-10050064D01*
X11170172Y-9860064D02*
X10980172Y-10050064D01*
X11115017Y-16432872D02*
X11305017Y-16622872D01*
X11305017Y-16432872D02*
X11115017Y-16622872D01*
X11258660Y-11865666D02*
X11448660Y-12055666D01*
X11448660Y-11865666D02*
X11258660Y-12055666D01*
X11554981Y-12886546D02*
X11744981Y-13076546D01*
X11744981Y-12886546D02*
X11554981Y-13076546D01*
X11833468Y-14892149D02*
X12023468Y-15082149D01*
X12023468Y-14892149D02*
X11833468Y-15082149D01*
X11855087Y-16502128D02*
X12045087Y-16692128D01*
X12045087Y-16502128D02*
X11855087Y-16692128D01*
X11977111Y-10324943D02*
X12167111Y-10514943D01*
X12167111Y-10324943D02*
X11977111Y-10514943D01*
X12273432Y-11345823D02*
X12463432Y-11535823D01*
X12463432Y-11345823D02*
X12273432Y-11535823D01*
X12551919Y-13351425D02*
X12741919Y-13541425D01*
X12741919Y-13351425D02*
X12551919Y-13541425D01*
X12573538Y-14961405D02*
X12763538Y-15151405D01*
X12763538Y-14961405D02*
X12573538Y-15151405D01*
X12852026Y-16967008D02*
X13042026Y-17157008D01*
X13042026Y-16967008D02*
X12852026Y-17157008D01*
X12991883Y-9805100D02*
X13181883Y-9995100D01*
X13181883Y-9805100D02*
X12991883Y-9995100D01*
X13270370Y-11810702D02*
X13460370Y-12000702D01*
X13460370Y-11810702D02*
X13270370Y-12000702D01*
X13291989Y-13420682D02*
X13481989Y-13610682D01*
X13481989Y-13420682D02*
X13291989Y-13610682D01*
X13380787Y-17489419D02*
X13570787Y-17679419D01*
X13570787Y-17489419D02*
X13380787Y-17679419D01*
X13570477Y-15426285D02*
X13760477Y-15616285D01*
X13760477Y-15426285D02*
X13570477Y-15616285D01*
X13988821Y-10269979D02*
X14178821Y-10459979D01*
X14178821Y-10269979D02*
X13988821Y-10459979D01*
X14010441Y-11879959D02*
X14200441Y-12069959D01*
X14200441Y-11879959D02*
X14010441Y-12069959D01*
X14099238Y-15948696D02*
X14289238Y-16138696D01*
X14289238Y-15948696D02*
X14099238Y-16138696D01*
X14288927Y-13885562D02*
X14478927Y-14075562D01*
X14478927Y-13885562D02*
X14288927Y-14075562D01*
X14377725Y-17954298D02*
X14567725Y-18144298D01*
X14567725Y-17954298D02*
X14377725Y-18144298D01*
X14728891Y-10339236D02*
X14918891Y-10529236D01*
X14918891Y-10339236D02*
X14728891Y-10529236D01*
X14817688Y-14407972D02*
X15007688Y-14597972D01*
X15007688Y-14407972D02*
X14817688Y-14597972D01*
X15007379Y-12344839D02*
X15197379Y-12534839D01*
X15197379Y-12344839D02*
X15007379Y-12534839D01*
X15096176Y-16413575D02*
X15286176Y-16603575D01*
X15286176Y-16413575D02*
X15096176Y-16603575D01*
X15213737Y-18631123D02*
X15403737Y-18821123D01*
X15403737Y-18631123D02*
X15213737Y-18821123D01*
X15536140Y-12867248D02*
X15726140Y-13057248D01*
X15726140Y-12867248D02*
X15536140Y-13057248D01*
X15624937Y-16935985D02*
X15814937Y-17125985D01*
X15814937Y-16935985D02*
X15624937Y-17125985D01*
X15725830Y-10804115D02*
X15915830Y-10994115D01*
X15915830Y-10804115D02*
X15725830Y-10994115D01*
X15814627Y-14872851D02*
X16004627Y-15062851D01*
X16004627Y-14872851D02*
X15814627Y-15062851D01*
X15949781Y-19448582D02*
X16139781Y-19638582D01*
X16139781Y-19448582D02*
X15949781Y-19638582D01*
X16254590Y-11326525D02*
X16444590Y-11516525D01*
X16444590Y-11326525D02*
X16254590Y-11516525D01*
X16343388Y-15395261D02*
X16533388Y-15585261D01*
X16533388Y-15395261D02*
X16343388Y-15585261D01*
X16533078Y-13332128D02*
X16723078Y-13522128D01*
X16723078Y-13332128D02*
X16533078Y-13522128D01*
X16621875Y-17400864D02*
X16811875Y-17590864D01*
X16811875Y-17400864D02*
X16621875Y-17590864D01*
X16809883Y-20696591D02*
X16999883Y-20886591D01*
X16999883Y-20696591D02*
X16809883Y-20886591D01*
X17061839Y-13854538D02*
X17251839Y-14044538D01*
X17251839Y-13854538D02*
X17061839Y-14044538D01*
X17251529Y-11791405D02*
X17441529Y-11981405D01*
X17441529Y-11791405D02*
X17251529Y-11981405D01*
X17340326Y-15860141D02*
X17530326Y-16050141D01*
X17530326Y-15860141D02*
X17340326Y-16050141D01*
X17710950Y-20065657D02*
X17900950Y-20255657D01*
X17900950Y-20065657D02*
X17710950Y-20255657D01*
X17780290Y-12313816D02*
X17970290Y-12503816D01*
X17970290Y-12313816D02*
X17780290Y-12503816D01*
X18058777Y-14319418D02*
X18248777Y-14509418D01*
X18248777Y-14319418D02*
X18058777Y-14509418D01*
X18777229Y-12778695D02*
X18967229Y-12968695D01*
X18967229Y-12778695D02*
X18777229Y-12968695D01*
X23495290Y-12778695D02*
X23685290Y-12968695D01*
X23685290Y-12778695D02*
X23495290Y-12968695D01*
X24213741Y-14319418D02*
X24403741Y-14509418D01*
X24403741Y-14319418D02*
X24213741Y-14509418D01*
X24492228Y-12313815D02*
X24682228Y-12503815D01*
X24682228Y-12313815D02*
X24492228Y-12503815D01*
X24561570Y-20065657D02*
X24751570Y-20255657D01*
X24751570Y-20065657D02*
X24561570Y-20255657D01*
X24932192Y-15860141D02*
X25122192Y-16050141D01*
X25122192Y-15860141D02*
X24932192Y-16050141D01*
X25020989Y-11791405D02*
X25210989Y-11981405D01*
X25210989Y-11791405D02*
X25020989Y-11981405D01*
X25210680Y-13854538D02*
X25400680Y-14044538D01*
X25400680Y-13854538D02*
X25210680Y-14044538D01*
X25462637Y-20696591D02*
X25652637Y-20886591D01*
X25652637Y-20696591D02*
X25462637Y-20886591D01*
X25650643Y-17400864D02*
X25840643Y-17590864D01*
X25840643Y-17400864D02*
X25650643Y-17590864D01*
X25739440Y-13332128D02*
X25929440Y-13522128D01*
X25929440Y-13332128D02*
X25739440Y-13522128D01*
X25929131Y-15395262D02*
X26119131Y-15585262D01*
X26119131Y-15395262D02*
X25929131Y-15585262D01*
X26017928Y-11326525D02*
X26207928Y-11516525D01*
X26207928Y-11326525D02*
X26017928Y-11516525D01*
X26322739Y-19448582D02*
X26512739Y-19638582D01*
X26512739Y-19448582D02*
X26322739Y-19638582D01*
X26457892Y-14872851D02*
X26647892Y-15062851D01*
X26647892Y-14872851D02*
X26457892Y-15062851D01*
X26546689Y-10804115D02*
X26736689Y-10994115D01*
X26736689Y-10804115D02*
X26546689Y-10994115D01*
X26647582Y-16935985D02*
X26837582Y-17125985D01*
X26837582Y-16935985D02*
X26647582Y-17125985D01*
X26736379Y-12867248D02*
X26926379Y-13057248D01*
X26926379Y-12867248D02*
X26736379Y-13057248D01*
X27058783Y-18631123D02*
X27248783Y-18821123D01*
X27248783Y-18631123D02*
X27058783Y-18821123D01*
X27176343Y-16413574D02*
X27366343Y-16603574D01*
X27366343Y-16413574D02*
X27176343Y-16603574D01*
X27265140Y-12344838D02*
X27455140Y-12534838D01*
X27455140Y-12344838D02*
X27265140Y-12534838D01*
X27454830Y-14407972D02*
X27644830Y-14597972D01*
X27644830Y-14407972D02*
X27454830Y-14597972D01*
X27543628Y-10339236D02*
X27733628Y-10529236D01*
X27733628Y-10339236D02*
X27543628Y-10529236D01*
X27894794Y-17954298D02*
X28084794Y-18144298D01*
X28084794Y-17954298D02*
X27894794Y-18144298D01*
X27983591Y-13885562D02*
X28173591Y-14075562D01*
X28173591Y-13885562D02*
X27983591Y-14075562D01*
X28173281Y-15948695D02*
X28363281Y-16138695D01*
X28363281Y-15948695D02*
X28173281Y-16138695D01*
X28262079Y-11879959D02*
X28452079Y-12069959D01*
X28452079Y-11879959D02*
X28262079Y-12069959D01*
X28283698Y-10269979D02*
X28473698Y-10459979D01*
X28473698Y-10269979D02*
X28283698Y-10459979D01*
X28702042Y-15426285D02*
X28892042Y-15616285D01*
X28892042Y-15426285D02*
X28702042Y-15616285D01*
X28891733Y-17489418D02*
X29081733Y-17679418D01*
X29081733Y-17489418D02*
X28891733Y-17679418D01*
X28980529Y-13420682D02*
X29170529Y-13610682D01*
X29170529Y-13420682D02*
X28980529Y-13610682D01*
X29002149Y-11810703D02*
X29192149Y-12000703D01*
X29192149Y-11810703D02*
X29002149Y-12000703D01*
X29280636Y-9805100D02*
X29470636Y-9995100D01*
X29470636Y-9805100D02*
X29280636Y-9995100D01*
X29420493Y-16967008D02*
X29610493Y-17157008D01*
X29610493Y-16967008D02*
X29420493Y-17157008D01*
X29698981Y-14961405D02*
X29888981Y-15151405D01*
X29888981Y-14961405D02*
X29698981Y-15151405D01*
X29720600Y-13351425D02*
X29910600Y-13541425D01*
X29910600Y-13351425D02*
X29720600Y-13541425D01*
X29999088Y-11345823D02*
X30189088Y-11535823D01*
X30189088Y-11345823D02*
X29999088Y-11535823D01*
X30295408Y-10324943D02*
X30485408Y-10514943D01*
X30485408Y-10324943D02*
X30295408Y-10514943D01*
X30417432Y-16502128D02*
X30607432Y-16692128D01*
X30607432Y-16502128D02*
X30417432Y-16692128D01*
X30439051Y-14892149D02*
X30629051Y-15082149D01*
X30629051Y-14892149D02*
X30439051Y-15082149D01*
X30717538Y-12886546D02*
X30907538Y-13076546D01*
X30907538Y-12886546D02*
X30717538Y-13076546D01*
X31013859Y-11865666D02*
X31203859Y-12055666D01*
X31203859Y-11865666D02*
X31013859Y-12055666D01*
X31157502Y-16432872D02*
X31347502Y-16622872D01*
X31347502Y-16432872D02*
X31157502Y-16622872D01*
X31292347Y-9860064D02*
X31482347Y-10050064D01*
X31482347Y-9860064D02*
X31292347Y-10050064D01*
X31435989Y-14427269D02*
X31625989Y-14617269D01*
X31625989Y-14427269D02*
X31435989Y-14617269D01*
X31732311Y-13406390D02*
X31922311Y-13596390D01*
X31922311Y-13406390D02*
X31732311Y-13596390D01*
X31926762Y-9564231D02*
X32116762Y-9754231D01*
X32116762Y-9564231D02*
X31926762Y-9754231D01*
X32010798Y-11400787D02*
X32200798Y-11590787D01*
X32200798Y-11400787D02*
X32010798Y-11590787D01*
X32154441Y-15967993D02*
X32344441Y-16157993D01*
X32344441Y-15967993D02*
X32154441Y-16157993D01*
X32450761Y-14947113D02*
X32640761Y-15137113D01*
X32640761Y-14947113D02*
X32450761Y-15137113D01*
X32645213Y-11104954D02*
X32835213Y-11294954D01*
X32835213Y-11104954D02*
X32645213Y-11294954D01*
X32729249Y-12941510D02*
X32919249Y-13131510D01*
X32919249Y-12941510D02*
X32729249Y-13131510D01*
X32923701Y-9099351D02*
X33113701Y-9289351D01*
X33113701Y-9099351D02*
X32923701Y-9289351D01*
X33363664Y-12645677D02*
X33553664Y-12835677D01*
X33553664Y-12645677D02*
X33363664Y-12835677D01*
X33447700Y-14482233D02*
X33637700Y-14672233D01*
X33637700Y-14482233D02*
X33447700Y-14672233D01*
X33642152Y-10640075D02*
X33832152Y-10830075D01*
X33832152Y-10640075D02*
X33642152Y-10830075D01*
X34082115Y-14186401D02*
X34272115Y-14376401D01*
X34272115Y-14186401D02*
X34082115Y-14376401D01*
X34360603Y-12180797D02*
X34550603Y-12370797D01*
X34550603Y-12180797D02*
X34360603Y-12370797D01*
X35079054Y-13721521D02*
X35269054Y-13911521D01*
X35269054Y-13721521D02*
X35079054Y-13911521D01*
D13*
X8188392Y-13509707D02*
G75*
G02*
X7888392Y-13509707I-150000J0D01*
G01*
X7888392Y-13509707D02*
G75*
G02*
X8188392Y-13509707I150000J0D01*
G01*
X8548570Y-13920404D02*
G75*
G02*
X8248570Y-13920404I-150000J0D01*
G01*
X8248570Y-13920404D02*
G75*
G02*
X8548570Y-13920404I150000J0D01*
G01*
X8906843Y-11968984D02*
G75*
G02*
X8606843Y-11968984I-150000J0D01*
G01*
X8606843Y-11968984D02*
G75*
G02*
X8906843Y-11968984I150000J0D01*
G01*
X9267021Y-12379681D02*
G75*
G02*
X8967021Y-12379681I-150000J0D01*
G01*
X8967021Y-12379681D02*
G75*
G02*
X9267021Y-12379681I150000J0D01*
G01*
X9625295Y-10428261D02*
G75*
G02*
X9325295Y-10428261I-150000J0D01*
G01*
X9325295Y-10428261D02*
G75*
G02*
X9625295Y-10428261I150000J0D01*
G01*
X9819746Y-14270420D02*
G75*
G02*
X9519746Y-14270420I-150000J0D01*
G01*
X9519746Y-14270420D02*
G75*
G02*
X9819746Y-14270420I150000J0D01*
G01*
X9985472Y-10838958D02*
G75*
G02*
X9685472Y-10838958I-150000J0D01*
G01*
X9685472Y-10838958D02*
G75*
G02*
X9985472Y-10838958I150000J0D01*
G01*
X10179924Y-14681117D02*
G75*
G02*
X9879924Y-14681117I-150000J0D01*
G01*
X9879924Y-14681117D02*
G75*
G02*
X10179924Y-14681117I150000J0D01*
G01*
X10343745Y-8887538D02*
G75*
G02*
X10043745Y-8887538I-150000J0D01*
G01*
X10043745Y-8887538D02*
G75*
G02*
X10343745Y-8887538I150000J0D01*
G01*
X10538197Y-12729697D02*
G75*
G02*
X10238197Y-12729697I-150000J0D01*
G01*
X10238197Y-12729697D02*
G75*
G02*
X10538197Y-12729697I150000J0D01*
G01*
X10703923Y-9298234D02*
G75*
G02*
X10403923Y-9298234I-150000J0D01*
G01*
X10403923Y-9298234D02*
G75*
G02*
X10703923Y-9298234I150000J0D01*
G01*
X10898375Y-13140394D02*
G75*
G02*
X10598375Y-13140394I-150000J0D01*
G01*
X10598375Y-13140394D02*
G75*
G02*
X10898375Y-13140394I150000J0D01*
G01*
X11113006Y-15756179D02*
G75*
G02*
X10813006Y-15756179I-150000J0D01*
G01*
X10813006Y-15756179D02*
G75*
G02*
X11113006Y-15756179I150000J0D01*
G01*
X11256648Y-11188974D02*
G75*
G02*
X10956648Y-11188974I-150000J0D01*
G01*
X10956648Y-11188974D02*
G75*
G02*
X11256648Y-11188974I150000J0D01*
G01*
X11473184Y-16166876D02*
G75*
G02*
X11173184Y-16166876I-150000J0D01*
G01*
X11173184Y-16166876D02*
G75*
G02*
X11473184Y-16166876I150000J0D01*
G01*
X11616826Y-11599670D02*
G75*
G02*
X11316826Y-11599670I-150000J0D01*
G01*
X11316826Y-11599670D02*
G75*
G02*
X11616826Y-11599670I150000J0D01*
G01*
X11831457Y-14215456D02*
G75*
G02*
X11531457Y-14215456I-150000J0D01*
G01*
X11531457Y-14215456D02*
G75*
G02*
X11831457Y-14215456I150000J0D01*
G01*
X11975099Y-9648250D02*
G75*
G02*
X11675099Y-9648250I-150000J0D01*
G01*
X11675099Y-9648250D02*
G75*
G02*
X11975099Y-9648250I150000J0D01*
G01*
X12191635Y-14626153D02*
G75*
G02*
X11891635Y-14626153I-150000J0D01*
G01*
X11891635Y-14626153D02*
G75*
G02*
X12191635Y-14626153I150000J0D01*
G01*
X12335277Y-10058947D02*
G75*
G02*
X12035277Y-10058947I-150000J0D01*
G01*
X12035277Y-10058947D02*
G75*
G02*
X12335277Y-10058947I150000J0D01*
G01*
X12549908Y-12674732D02*
G75*
G02*
X12249908Y-12674732I-150000J0D01*
G01*
X12249908Y-12674732D02*
G75*
G02*
X12549908Y-12674732I150000J0D01*
G01*
X12850014Y-16290315D02*
G75*
G02*
X12550014Y-16290315I-150000J0D01*
G01*
X12550014Y-16290315D02*
G75*
G02*
X12850014Y-16290315I150000J0D01*
G01*
X12910086Y-13085429D02*
G75*
G02*
X12610086Y-13085429I-150000J0D01*
G01*
X12610086Y-13085429D02*
G75*
G02*
X12910086Y-13085429I150000J0D01*
G01*
X13210192Y-16701012D02*
G75*
G02*
X12910192Y-16701012I-150000J0D01*
G01*
X12910192Y-16701012D02*
G75*
G02*
X13210192Y-16701012I150000J0D01*
G01*
X13268359Y-11134009D02*
G75*
G02*
X12968359Y-11134009I-150000J0D01*
G01*
X12968359Y-11134009D02*
G75*
G02*
X13268359Y-11134009I150000J0D01*
G01*
X13568466Y-14749592D02*
G75*
G02*
X13268466Y-14749592I-150000J0D01*
G01*
X13268466Y-14749592D02*
G75*
G02*
X13568466Y-14749592I150000J0D01*
G01*
X13628537Y-11544706D02*
G75*
G02*
X13328537Y-11544706I-150000J0D01*
G01*
X13328537Y-11544706D02*
G75*
G02*
X13628537Y-11544706I150000J0D01*
G01*
X13928643Y-15160289D02*
G75*
G02*
X13628643Y-15160289I-150000J0D01*
G01*
X13628643Y-15160289D02*
G75*
G02*
X13928643Y-15160289I150000J0D01*
G01*
X13986810Y-9593286D02*
G75*
G02*
X13686810Y-9593286I-150000J0D01*
G01*
X13686810Y-9593286D02*
G75*
G02*
X13986810Y-9593286I150000J0D01*
G01*
X14286916Y-13208869D02*
G75*
G02*
X13986916Y-13208869I-150000J0D01*
G01*
X13986916Y-13208869D02*
G75*
G02*
X14286916Y-13208869I150000J0D01*
G01*
X14346988Y-10003983D02*
G75*
G02*
X14046988Y-10003983I-150000J0D01*
G01*
X14046988Y-10003983D02*
G75*
G02*
X14346988Y-10003983I150000J0D01*
G01*
X14375714Y-17277605D02*
G75*
G02*
X14075714Y-17277605I-150000J0D01*
G01*
X14075714Y-17277605D02*
G75*
G02*
X14375714Y-17277605I150000J0D01*
G01*
X14647094Y-13619566D02*
G75*
G02*
X14347094Y-13619566I-150000J0D01*
G01*
X14347094Y-13619566D02*
G75*
G02*
X14647094Y-13619566I150000J0D01*
G01*
X14735892Y-17688302D02*
G75*
G02*
X14435892Y-17688302I-150000J0D01*
G01*
X14435892Y-17688302D02*
G75*
G02*
X14735892Y-17688302I150000J0D01*
G01*
X15005368Y-11668146D02*
G75*
G02*
X14705368Y-11668146I-150000J0D01*
G01*
X14705368Y-11668146D02*
G75*
G02*
X15005368Y-11668146I150000J0D01*
G01*
X15094165Y-15736882D02*
G75*
G02*
X14794165Y-15736882I-150000J0D01*
G01*
X14794165Y-15736882D02*
G75*
G02*
X15094165Y-15736882I150000J0D01*
G01*
X15365546Y-12078843D02*
G75*
G02*
X15065546Y-12078843I-150000J0D01*
G01*
X15065546Y-12078843D02*
G75*
G02*
X15365546Y-12078843I150000J0D01*
G01*
X15454343Y-16147579D02*
G75*
G02*
X15154343Y-16147579I-150000J0D01*
G01*
X15154343Y-16147579D02*
G75*
G02*
X15454343Y-16147579I150000J0D01*
G01*
X15723818Y-10127422D02*
G75*
G02*
X15423818Y-10127422I-150000J0D01*
G01*
X15423818Y-10127422D02*
G75*
G02*
X15723818Y-10127422I150000J0D01*
G01*
X15812616Y-14196159D02*
G75*
G02*
X15512616Y-14196159I-150000J0D01*
G01*
X15512616Y-14196159D02*
G75*
G02*
X15812616Y-14196159I150000J0D01*
G01*
X16083996Y-10538119D02*
G75*
G02*
X15783996Y-10538119I-150000J0D01*
G01*
X15783996Y-10538119D02*
G75*
G02*
X16083996Y-10538119I150000J0D01*
G01*
X16172793Y-14606855D02*
G75*
G02*
X15872793Y-14606855I-150000J0D01*
G01*
X15872793Y-14606855D02*
G75*
G02*
X16172793Y-14606855I150000J0D01*
G01*
X16268929Y-18736720D02*
G75*
G02*
X15968929Y-18736720I-150000J0D01*
G01*
X15968929Y-18736720D02*
G75*
G02*
X16268929Y-18736720I150000J0D01*
G01*
X16440003Y-19255501D02*
G75*
G02*
X16140003Y-19255501I-150000J0D01*
G01*
X16140003Y-19255501D02*
G75*
G02*
X16440003Y-19255501I150000J0D01*
G01*
X16531067Y-12655435D02*
G75*
G02*
X16231067Y-12655435I-150000J0D01*
G01*
X16231067Y-12655435D02*
G75*
G02*
X16531067Y-12655435I150000J0D01*
G01*
X16619864Y-16724172D02*
G75*
G02*
X16319864Y-16724172I-150000J0D01*
G01*
X16319864Y-16724172D02*
G75*
G02*
X16619864Y-16724172I150000J0D01*
G01*
X16891245Y-13066132D02*
G75*
G02*
X16591245Y-13066132I-150000J0D01*
G01*
X16591245Y-13066132D02*
G75*
G02*
X16891245Y-13066132I150000J0D01*
G01*
X16980042Y-17134868D02*
G75*
G02*
X16680042Y-17134868I-150000J0D01*
G01*
X16680042Y-17134868D02*
G75*
G02*
X16980042Y-17134868I150000J0D01*
G01*
X17164138Y-19988729D02*
G75*
G02*
X16864138Y-19988729I-150000J0D01*
G01*
X16864138Y-19988729D02*
G75*
G02*
X17164138Y-19988729I150000J0D01*
G01*
X17249518Y-11114712D02*
G75*
G02*
X16949518Y-11114712I-150000J0D01*
G01*
X16949518Y-11114712D02*
G75*
G02*
X17249518Y-11114712I150000J0D01*
G01*
X17338315Y-15183448D02*
G75*
G02*
X17038315Y-15183448I-150000J0D01*
G01*
X17038315Y-15183448D02*
G75*
G02*
X17338315Y-15183448I150000J0D01*
G01*
X17609695Y-11525409D02*
G75*
G02*
X17309695Y-11525409I-150000J0D01*
G01*
X17309695Y-11525409D02*
G75*
G02*
X17609695Y-11525409I150000J0D01*
G01*
X17698493Y-15594145D02*
G75*
G02*
X17398493Y-15594145I-150000J0D01*
G01*
X17398493Y-15594145D02*
G75*
G02*
X17698493Y-15594145I150000J0D01*
G01*
X17699901Y-19882154D02*
G75*
G02*
X17399901Y-19882154I-150000J0D01*
G01*
X17399901Y-19882154D02*
G75*
G02*
X17699901Y-19882154I150000J0D01*
G01*
X18056766Y-13642725D02*
G75*
G02*
X17756766Y-13642725I-150000J0D01*
G01*
X17756766Y-13642725D02*
G75*
G02*
X18056766Y-13642725I150000J0D01*
G01*
X18416944Y-14053422D02*
G75*
G02*
X18116944Y-14053422I-150000J0D01*
G01*
X18116944Y-14053422D02*
G75*
G02*
X18416944Y-14053422I150000J0D01*
G01*
X18775217Y-12102002D02*
G75*
G02*
X18475217Y-12102002I-150000J0D01*
G01*
X18475217Y-12102002D02*
G75*
G02*
X18775217Y-12102002I150000J0D01*
G01*
X19135395Y-12512699D02*
G75*
G02*
X18835395Y-12512699I-150000J0D01*
G01*
X18835395Y-12512699D02*
G75*
G02*
X19135395Y-12512699I150000J0D01*
G01*
X23987301Y-12102002D02*
G75*
G02*
X23687301Y-12102002I-150000J0D01*
G01*
X23687301Y-12102002D02*
G75*
G02*
X23987301Y-12102002I150000J0D01*
G01*
X24533431Y-12090080D02*
G75*
G02*
X24233431Y-12090080I-150000J0D01*
G01*
X24233431Y-12090080D02*
G75*
G02*
X24533431Y-12090080I150000J0D01*
G01*
X24705752Y-13642725D02*
G75*
G02*
X24405752Y-13642725I-150000J0D01*
G01*
X24405752Y-13642725D02*
G75*
G02*
X24705752Y-13642725I150000J0D01*
G01*
X25251882Y-13630803D02*
G75*
G02*
X24951882Y-13630803I-150000J0D01*
G01*
X24951882Y-13630803D02*
G75*
G02*
X25251882Y-13630803I150000J0D01*
G01*
X25424204Y-15183448D02*
G75*
G02*
X25124204Y-15183448I-150000J0D01*
G01*
X25124204Y-15183448D02*
G75*
G02*
X25424204Y-15183448I150000J0D01*
G01*
X25513001Y-11114712D02*
G75*
G02*
X25213001Y-11114712I-150000J0D01*
G01*
X25213001Y-11114712D02*
G75*
G02*
X25513001Y-11114712I150000J0D01*
G01*
X25598381Y-19988728D02*
G75*
G02*
X25298381Y-19988728I-150000J0D01*
G01*
X25298381Y-19988728D02*
G75*
G02*
X25598381Y-19988728I150000J0D01*
G01*
X25881770Y-20455730D02*
G75*
G02*
X25581770Y-20455730I-150000J0D01*
G01*
X25581770Y-20455730D02*
G75*
G02*
X25881770Y-20455730I150000J0D01*
G01*
X25970334Y-15171527D02*
G75*
G02*
X25670334Y-15171527I-150000J0D01*
G01*
X25670334Y-15171527D02*
G75*
G02*
X25970334Y-15171527I150000J0D01*
G01*
X26059131Y-11102791D02*
G75*
G02*
X25759131Y-11102791I-150000J0D01*
G01*
X25759131Y-11102791D02*
G75*
G02*
X26059131Y-11102791I150000J0D01*
G01*
X26142655Y-16724171D02*
G75*
G02*
X25842655Y-16724171I-150000J0D01*
G01*
X25842655Y-16724171D02*
G75*
G02*
X26142655Y-16724171I150000J0D01*
G01*
X26231452Y-12655435D02*
G75*
G02*
X25931452Y-12655435I-150000J0D01*
G01*
X25931452Y-12655435D02*
G75*
G02*
X26231452Y-12655435I150000J0D01*
G01*
X26493590Y-18736720D02*
G75*
G02*
X26193590Y-18736720I-150000J0D01*
G01*
X26193590Y-18736720D02*
G75*
G02*
X26493590Y-18736720I150000J0D01*
G01*
X26688784Y-16712250D02*
G75*
G02*
X26388784Y-16712250I-150000J0D01*
G01*
X26388784Y-16712250D02*
G75*
G02*
X26688784Y-16712250I150000J0D01*
G01*
X26777581Y-12643513D02*
G75*
G02*
X26477581Y-12643513I-150000J0D01*
G01*
X26477581Y-12643513D02*
G75*
G02*
X26777581Y-12643513I150000J0D01*
G01*
X26949903Y-14196158D02*
G75*
G02*
X26649903Y-14196158I-150000J0D01*
G01*
X26649903Y-14196158D02*
G75*
G02*
X26949903Y-14196158I150000J0D01*
G01*
X26991647Y-18512357D02*
G75*
G02*
X26691647Y-18512357I-150000J0D01*
G01*
X26691647Y-18512357D02*
G75*
G02*
X26991647Y-18512357I150000J0D01*
G01*
X27038701Y-10127422D02*
G75*
G02*
X26738701Y-10127422I-150000J0D01*
G01*
X26738701Y-10127422D02*
G75*
G02*
X27038701Y-10127422I150000J0D01*
G01*
X27496033Y-14184237D02*
G75*
G02*
X27196033Y-14184237I-150000J0D01*
G01*
X27196033Y-14184237D02*
G75*
G02*
X27496033Y-14184237I150000J0D01*
G01*
X27584831Y-10115501D02*
G75*
G02*
X27284831Y-10115501I-150000J0D01*
G01*
X27284831Y-10115501D02*
G75*
G02*
X27584831Y-10115501I150000J0D01*
G01*
X27668354Y-15736881D02*
G75*
G02*
X27368354Y-15736881I-150000J0D01*
G01*
X27368354Y-15736881D02*
G75*
G02*
X27668354Y-15736881I150000J0D01*
G01*
X27757152Y-11668145D02*
G75*
G02*
X27457152Y-11668145I-150000J0D01*
G01*
X27457152Y-11668145D02*
G75*
G02*
X27757152Y-11668145I150000J0D01*
G01*
X28214484Y-15724960D02*
G75*
G02*
X27914484Y-15724960I-150000J0D01*
G01*
X27914484Y-15724960D02*
G75*
G02*
X28214484Y-15724960I150000J0D01*
G01*
X28303282Y-11656224D02*
G75*
G02*
X28003282Y-11656224I-150000J0D01*
G01*
X28003282Y-11656224D02*
G75*
G02*
X28303282Y-11656224I150000J0D01*
G01*
X28386806Y-17277605D02*
G75*
G02*
X28086806Y-17277605I-150000J0D01*
G01*
X28086806Y-17277605D02*
G75*
G02*
X28386806Y-17277605I150000J0D01*
G01*
X28475602Y-13208869D02*
G75*
G02*
X28175602Y-13208869I-150000J0D01*
G01*
X28175602Y-13208869D02*
G75*
G02*
X28475602Y-13208869I150000J0D01*
G01*
X28775709Y-9593287D02*
G75*
G02*
X28475709Y-9593287I-150000J0D01*
G01*
X28475709Y-9593287D02*
G75*
G02*
X28775709Y-9593287I150000J0D01*
G01*
X28932936Y-17265683D02*
G75*
G02*
X28632936Y-17265683I-150000J0D01*
G01*
X28632936Y-17265683D02*
G75*
G02*
X28932936Y-17265683I150000J0D01*
G01*
X29021732Y-13196947D02*
G75*
G02*
X28721732Y-13196947I-150000J0D01*
G01*
X28721732Y-13196947D02*
G75*
G02*
X29021732Y-13196947I150000J0D01*
G01*
X29194054Y-14749592D02*
G75*
G02*
X28894054Y-14749592I-150000J0D01*
G01*
X28894054Y-14749592D02*
G75*
G02*
X29194054Y-14749592I150000J0D01*
G01*
X29321839Y-9581365D02*
G75*
G02*
X29021839Y-9581365I-150000J0D01*
G01*
X29021839Y-9581365D02*
G75*
G02*
X29321839Y-9581365I150000J0D01*
G01*
X29494161Y-11134010D02*
G75*
G02*
X29194161Y-11134010I-150000J0D01*
G01*
X29194161Y-11134010D02*
G75*
G02*
X29494161Y-11134010I150000J0D01*
G01*
X29740184Y-14737670D02*
G75*
G02*
X29440184Y-14737670I-150000J0D01*
G01*
X29440184Y-14737670D02*
G75*
G02*
X29740184Y-14737670I150000J0D01*
G01*
X29912505Y-16290315D02*
G75*
G02*
X29612505Y-16290315I-150000J0D01*
G01*
X29612505Y-16290315D02*
G75*
G02*
X29912505Y-16290315I150000J0D01*
G01*
X30040290Y-11122088D02*
G75*
G02*
X29740290Y-11122088I-150000J0D01*
G01*
X29740290Y-11122088D02*
G75*
G02*
X30040290Y-11122088I150000J0D01*
G01*
X30212611Y-12674732D02*
G75*
G02*
X29912611Y-12674732I-150000J0D01*
G01*
X29912611Y-12674732D02*
G75*
G02*
X30212611Y-12674732I150000J0D01*
G01*
X30458635Y-16278393D02*
G75*
G02*
X30158635Y-16278393I-150000J0D01*
G01*
X30158635Y-16278393D02*
G75*
G02*
X30458635Y-16278393I150000J0D01*
G01*
X30758741Y-12662811D02*
G75*
G02*
X30458741Y-12662811I-150000J0D01*
G01*
X30458741Y-12662811D02*
G75*
G02*
X30758741Y-12662811I150000J0D01*
G01*
X30787420Y-9648250D02*
G75*
G02*
X30487420Y-9648250I-150000J0D01*
G01*
X30487420Y-9648250D02*
G75*
G02*
X30787420Y-9648250I150000J0D01*
G01*
X30931062Y-14215456D02*
G75*
G02*
X30631062Y-14215456I-150000J0D01*
G01*
X30631062Y-14215456D02*
G75*
G02*
X30931062Y-14215456I150000J0D01*
G01*
X31333549Y-9636329D02*
G75*
G02*
X31033549Y-9636329I-150000J0D01*
G01*
X31033549Y-9636329D02*
G75*
G02*
X31333549Y-9636329I150000J0D01*
G01*
X31477192Y-14203535D02*
G75*
G02*
X31177192Y-14203535I-150000J0D01*
G01*
X31177192Y-14203535D02*
G75*
G02*
X31477192Y-14203535I150000J0D01*
G01*
X31505870Y-11188974D02*
G75*
G02*
X31205870Y-11188974I-150000J0D01*
G01*
X31205870Y-11188974D02*
G75*
G02*
X31505870Y-11188974I150000J0D01*
G01*
X31649513Y-15756179D02*
G75*
G02*
X31349513Y-15756179I-150000J0D01*
G01*
X31349513Y-15756179D02*
G75*
G02*
X31649513Y-15756179I150000J0D01*
G01*
X32052000Y-11177052D02*
G75*
G02*
X31752000Y-11177052I-150000J0D01*
G01*
X31752000Y-11177052D02*
G75*
G02*
X32052000Y-11177052I150000J0D01*
G01*
X32195643Y-15744258D02*
G75*
G02*
X31895643Y-15744258I-150000J0D01*
G01*
X31895643Y-15744258D02*
G75*
G02*
X32195643Y-15744258I150000J0D01*
G01*
X32224322Y-12729697D02*
G75*
G02*
X31924322Y-12729697I-150000J0D01*
G01*
X31924322Y-12729697D02*
G75*
G02*
X32224322Y-12729697I150000J0D01*
G01*
X32418774Y-8887538D02*
G75*
G02*
X32118774Y-8887538I-150000J0D01*
G01*
X32118774Y-8887538D02*
G75*
G02*
X32418774Y-8887538I150000J0D01*
G01*
X32770452Y-12717775D02*
G75*
G02*
X32470452Y-12717775I-150000J0D01*
G01*
X32470452Y-12717775D02*
G75*
G02*
X32770452Y-12717775I150000J0D01*
G01*
X32942773Y-14270420D02*
G75*
G02*
X32642773Y-14270420I-150000J0D01*
G01*
X32642773Y-14270420D02*
G75*
G02*
X32942773Y-14270420I150000J0D01*
G01*
X32964904Y-8875616D02*
G75*
G02*
X32664904Y-8875616I-150000J0D01*
G01*
X32664904Y-8875616D02*
G75*
G02*
X32964904Y-8875616I150000J0D01*
G01*
X33137225Y-10428261D02*
G75*
G02*
X32837225Y-10428261I-150000J0D01*
G01*
X32837225Y-10428261D02*
G75*
G02*
X33137225Y-10428261I150000J0D01*
G01*
X33488902Y-14258498D02*
G75*
G02*
X33188902Y-14258498I-150000J0D01*
G01*
X33188902Y-14258498D02*
G75*
G02*
X33488902Y-14258498I150000J0D01*
G01*
X33683354Y-10416340D02*
G75*
G02*
X33383354Y-10416340I-150000J0D01*
G01*
X33383354Y-10416340D02*
G75*
G02*
X33683354Y-10416340I150000J0D01*
G01*
X33855676Y-11968984D02*
G75*
G02*
X33555676Y-11968984I-150000J0D01*
G01*
X33555676Y-11968984D02*
G75*
G02*
X33855676Y-11968984I150000J0D01*
G01*
X34401806Y-11957062D02*
G75*
G02*
X34101806Y-11957062I-150000J0D01*
G01*
X34101806Y-11957062D02*
G75*
G02*
X34401806Y-11957062I150000J0D01*
G01*
X34574127Y-13509708D02*
G75*
G02*
X34274127Y-13509708I-150000J0D01*
G01*
X34274127Y-13509708D02*
G75*
G02*
X34574127Y-13509708I150000J0D01*
G01*
X35120256Y-13497786D02*
G75*
G02*
X34820256Y-13497786I-150000J0D01*
G01*
X34820256Y-13497786D02*
G75*
G02*
X35120256Y-13497786I150000J0D01*
G01*
D14*
X7786934Y-13878960D02*
X7786934Y-14218960D01*
X7616934Y-14048960D02*
X7956934Y-14048960D01*
X8505385Y-12338237D02*
X8505385Y-12678237D01*
X8335385Y-12508237D02*
X8675385Y-12508237D01*
X9223837Y-10797514D02*
X9223837Y-11137514D01*
X9053837Y-10967514D02*
X9393837Y-10967514D01*
X9418288Y-14639673D02*
X9418288Y-14979673D01*
X9248288Y-14809673D02*
X9588288Y-14809673D01*
X9942287Y-9256791D02*
X9942287Y-9596791D01*
X9772287Y-9426791D02*
X10112287Y-9426791D01*
X10136740Y-13098950D02*
X10136740Y-13438950D01*
X9966740Y-13268950D02*
X10306740Y-13268950D01*
X10711548Y-16125432D02*
X10711548Y-16465432D01*
X10541548Y-16295432D02*
X10881548Y-16295432D01*
X10855190Y-11558227D02*
X10855190Y-11898227D01*
X10685190Y-11728227D02*
X11025190Y-11728227D01*
X11429999Y-14584709D02*
X11429999Y-14924709D01*
X11259999Y-14754709D02*
X11599999Y-14754709D01*
X11573642Y-10017503D02*
X11573642Y-10357503D01*
X11403642Y-10187503D02*
X11743642Y-10187503D01*
X12148450Y-13043985D02*
X12148450Y-13383985D01*
X11978450Y-13213985D02*
X12318450Y-13213985D01*
X12448556Y-16659568D02*
X12448556Y-16999568D01*
X12278556Y-16829568D02*
X12618556Y-16829568D01*
X12866901Y-11503262D02*
X12866901Y-11843262D01*
X12696901Y-11673262D02*
X13036901Y-11673262D01*
X13167008Y-15118845D02*
X13167008Y-15458845D01*
X12997008Y-15288845D02*
X13337008Y-15288845D01*
X13585352Y-9962539D02*
X13585352Y-10302539D01*
X13415352Y-10132539D02*
X13755352Y-10132539D01*
X13885458Y-13578122D02*
X13885458Y-13918122D01*
X13715458Y-13748122D02*
X14055458Y-13748122D01*
X13974256Y-17646858D02*
X13974256Y-17986858D01*
X13804256Y-17816858D02*
X14144256Y-17816858D01*
X14603910Y-12037399D02*
X14603910Y-12377399D01*
X14433910Y-12207399D02*
X14773910Y-12207399D01*
X14692707Y-16106135D02*
X14692707Y-16446135D01*
X14522707Y-16276135D02*
X14862707Y-16276135D01*
X15322360Y-10496675D02*
X15322360Y-10836675D01*
X15152360Y-10666675D02*
X15492360Y-10666675D01*
X15411158Y-14565412D02*
X15411158Y-14905412D01*
X15241158Y-14735412D02*
X15581158Y-14735412D01*
X15676759Y-18964853D02*
X15676759Y-19304853D01*
X15506759Y-19134853D02*
X15846759Y-19134853D01*
X16129609Y-13024688D02*
X16129609Y-13364688D01*
X15959609Y-13194688D02*
X16299609Y-13194688D01*
X16218406Y-17093425D02*
X16218406Y-17433425D01*
X16048406Y-17263425D02*
X16388406Y-17263425D01*
X16848060Y-11483965D02*
X16848060Y-11823965D01*
X16678060Y-11653965D02*
X17018060Y-11653965D01*
X16936857Y-15552701D02*
X16936857Y-15892701D01*
X16766857Y-15722701D02*
X17106857Y-15722701D01*
X17355416Y-20306124D02*
X17355416Y-20646124D01*
X17185416Y-20476124D02*
X17525416Y-20476124D01*
X17655308Y-14011978D02*
X17655308Y-14351978D01*
X17485308Y-14181978D02*
X17825308Y-14181978D01*
X18373760Y-12471255D02*
X18373760Y-12811255D01*
X18203760Y-12641255D02*
X18543760Y-12641255D01*
X24088759Y-12471255D02*
X24088759Y-12811255D01*
X23918759Y-12641255D02*
X24258759Y-12641255D01*
X24807210Y-14011978D02*
X24807210Y-14351978D01*
X24637210Y-14181978D02*
X24977210Y-14181978D01*
X25107103Y-20306124D02*
X25107103Y-20646124D01*
X24937103Y-20476124D02*
X25277103Y-20476124D01*
X25525662Y-15552701D02*
X25525662Y-15892701D01*
X25355662Y-15722701D02*
X25695662Y-15722701D01*
X25614459Y-11483965D02*
X25614459Y-11823965D01*
X25444459Y-11653965D02*
X25784459Y-11653965D01*
X26244112Y-17093425D02*
X26244112Y-17433425D01*
X26074112Y-17263425D02*
X26414112Y-17263425D01*
X26332909Y-13024688D02*
X26332909Y-13364688D01*
X26162909Y-13194688D02*
X26502909Y-13194688D01*
X26785761Y-18964853D02*
X26785761Y-19304853D01*
X26615761Y-19134853D02*
X26955761Y-19134853D01*
X27051361Y-14565411D02*
X27051361Y-14905411D01*
X26881361Y-14735411D02*
X27221361Y-14735411D01*
X27140159Y-10496675D02*
X27140159Y-10836675D01*
X26970159Y-10666675D02*
X27310159Y-10666675D01*
X27769812Y-16106134D02*
X27769812Y-16446134D01*
X27599812Y-16276134D02*
X27939812Y-16276134D01*
X27858610Y-12037398D02*
X27858610Y-12377398D01*
X27688610Y-12207398D02*
X28028610Y-12207398D01*
X28488264Y-17646858D02*
X28488264Y-17986858D01*
X28318264Y-17816858D02*
X28658264Y-17816858D01*
X28577060Y-13578122D02*
X28577060Y-13918122D01*
X28407060Y-13748122D02*
X28747060Y-13748122D01*
X28877167Y-9962540D02*
X28877167Y-10302540D01*
X28707167Y-10132540D02*
X29047167Y-10132540D01*
X29295512Y-15118845D02*
X29295512Y-15458845D01*
X29125512Y-15288845D02*
X29465512Y-15288845D01*
X29595618Y-11503263D02*
X29595618Y-11843263D01*
X29425618Y-11673263D02*
X29765618Y-11673263D01*
X30013963Y-16659568D02*
X30013963Y-16999568D01*
X29843963Y-16829568D02*
X30183963Y-16829568D01*
X30314069Y-13043985D02*
X30314069Y-13383985D01*
X30144069Y-13213985D02*
X30484069Y-13213985D01*
X30888877Y-10017503D02*
X30888877Y-10357503D01*
X30718877Y-10187503D02*
X31058877Y-10187503D01*
X31032520Y-14584709D02*
X31032520Y-14924709D01*
X30862520Y-14754709D02*
X31202520Y-14754709D01*
X31607328Y-11558227D02*
X31607328Y-11898227D01*
X31437328Y-11728227D02*
X31777328Y-11728227D01*
X31750971Y-16125432D02*
X31750971Y-16465432D01*
X31580971Y-16295432D02*
X31920971Y-16295432D01*
X32325780Y-13098950D02*
X32325780Y-13438950D01*
X32155780Y-13268950D02*
X32495780Y-13268950D01*
X32520232Y-9256791D02*
X32520232Y-9596791D01*
X32350232Y-9426791D02*
X32690232Y-9426791D01*
X33044230Y-14639673D02*
X33044230Y-14979673D01*
X32874230Y-14809673D02*
X33214230Y-14809673D01*
X33238682Y-10797514D02*
X33238682Y-11137514D01*
X33068682Y-10967514D02*
X33408682Y-10967514D01*
X33957134Y-12338237D02*
X33957134Y-12678237D01*
X33787134Y-12508237D02*
X34127134Y-12508237D01*
X34675584Y-13878961D02*
X34675584Y-14218961D01*
X34505584Y-14048961D02*
X34845584Y-14048961D01*
D11*
X6540224Y-22537131D02*
X6540224Y-22337131D01*
X6540224Y-22337131D02*
X6587843Y-22337131D01*
X6587843Y-22337131D02*
X6616415Y-22346655D01*
X6616415Y-22346655D02*
X6635462Y-22365703D01*
X6635462Y-22365703D02*
X6644986Y-22384750D01*
X6644986Y-22384750D02*
X6654510Y-22422845D01*
X6654510Y-22422845D02*
X6654510Y-22451417D01*
X6654510Y-22451417D02*
X6644986Y-22489512D01*
X6644986Y-22489512D02*
X6635462Y-22508560D01*
X6635462Y-22508560D02*
X6616415Y-22527607D01*
X6616415Y-22527607D02*
X6587843Y-22537131D01*
X6587843Y-22537131D02*
X6540224Y-22537131D01*
X6740224Y-22537131D02*
X6740224Y-22403798D01*
X6740224Y-22441893D02*
X6749748Y-22422845D01*
X6749748Y-22422845D02*
X6759272Y-22413322D01*
X6759272Y-22413322D02*
X6778319Y-22403798D01*
X6778319Y-22403798D02*
X6797367Y-22403798D01*
X6864034Y-22537131D02*
X6864034Y-22403798D01*
X6864034Y-22337131D02*
X6854510Y-22346655D01*
X6854510Y-22346655D02*
X6864034Y-22356179D01*
X6864034Y-22356179D02*
X6873557Y-22346655D01*
X6873557Y-22346655D02*
X6864034Y-22337131D01*
X6864034Y-22337131D02*
X6864034Y-22356179D01*
X6987843Y-22537131D02*
X6968796Y-22527607D01*
X6968796Y-22527607D02*
X6959272Y-22508560D01*
X6959272Y-22508560D02*
X6959272Y-22337131D01*
X7092605Y-22537131D02*
X7073557Y-22527607D01*
X7073557Y-22527607D02*
X7064034Y-22508560D01*
X7064034Y-22508560D02*
X7064034Y-22337131D01*
X7321177Y-22537131D02*
X7321177Y-22337131D01*
X7321177Y-22337131D02*
X7387843Y-22479988D01*
X7387843Y-22479988D02*
X7454510Y-22337131D01*
X7454510Y-22337131D02*
X7454510Y-22537131D01*
X7635462Y-22537131D02*
X7635462Y-22432369D01*
X7635462Y-22432369D02*
X7625938Y-22413322D01*
X7625938Y-22413322D02*
X7606891Y-22403798D01*
X7606891Y-22403798D02*
X7568796Y-22403798D01*
X7568796Y-22403798D02*
X7549748Y-22413322D01*
X7635462Y-22527607D02*
X7616415Y-22537131D01*
X7616415Y-22537131D02*
X7568796Y-22537131D01*
X7568796Y-22537131D02*
X7549748Y-22527607D01*
X7549748Y-22527607D02*
X7540224Y-22508560D01*
X7540224Y-22508560D02*
X7540224Y-22489512D01*
X7540224Y-22489512D02*
X7549748Y-22470464D01*
X7549748Y-22470464D02*
X7568796Y-22460941D01*
X7568796Y-22460941D02*
X7616415Y-22460941D01*
X7616415Y-22460941D02*
X7635462Y-22451417D01*
X7730700Y-22403798D02*
X7730700Y-22603798D01*
X7730700Y-22413322D02*
X7749748Y-22403798D01*
X7749748Y-22403798D02*
X7787843Y-22403798D01*
X7787843Y-22403798D02*
X7806891Y-22413322D01*
X7806891Y-22413322D02*
X7816415Y-22422845D01*
X7816415Y-22422845D02*
X7825938Y-22441893D01*
X7825938Y-22441893D02*
X7825938Y-22499036D01*
X7825938Y-22499036D02*
X7816415Y-22518083D01*
X7816415Y-22518083D02*
X7806891Y-22527607D01*
X7806891Y-22527607D02*
X7787843Y-22537131D01*
X7787843Y-22537131D02*
X7749748Y-22537131D01*
X7749748Y-22537131D02*
X7730700Y-22527607D01*
X7911653Y-22518083D02*
X7921177Y-22527607D01*
X7921177Y-22527607D02*
X7911653Y-22537131D01*
X7911653Y-22537131D02*
X7902129Y-22527607D01*
X7902129Y-22527607D02*
X7911653Y-22518083D01*
X7911653Y-22518083D02*
X7911653Y-22537131D01*
X7911653Y-22413322D02*
X7921177Y-22422845D01*
X7921177Y-22422845D02*
X7911653Y-22432369D01*
X7911653Y-22432369D02*
X7902129Y-22422845D01*
X7902129Y-22422845D02*
X7911653Y-22413322D01*
X7911653Y-22413322D02*
X7911653Y-22432369D01*
D12*
X6089447Y-22770647D02*
X6279447Y-22960647D01*
X6279447Y-22770647D02*
X6089447Y-22960647D01*
D11*
X6644986Y-22957131D02*
X6530700Y-22957131D01*
X6587843Y-22957131D02*
X6587843Y-22757131D01*
X6587843Y-22757131D02*
X6568796Y-22785703D01*
X6568796Y-22785703D02*
X6549748Y-22804750D01*
X6549748Y-22804750D02*
X6530700Y-22814274D01*
X6730700Y-22938083D02*
X6740224Y-22947607D01*
X6740224Y-22947607D02*
X6730700Y-22957131D01*
X6730700Y-22957131D02*
X6721177Y-22947607D01*
X6721177Y-22947607D02*
X6730700Y-22938083D01*
X6730700Y-22938083D02*
X6730700Y-22957131D01*
X6835462Y-22957131D02*
X6873557Y-22957131D01*
X6873557Y-22957131D02*
X6892605Y-22947607D01*
X6892605Y-22947607D02*
X6902129Y-22938083D01*
X6902129Y-22938083D02*
X6921177Y-22909512D01*
X6921177Y-22909512D02*
X6930700Y-22871417D01*
X6930700Y-22871417D02*
X6930700Y-22795226D01*
X6930700Y-22795226D02*
X6921177Y-22776179D01*
X6921177Y-22776179D02*
X6911653Y-22766655D01*
X6911653Y-22766655D02*
X6892605Y-22757131D01*
X6892605Y-22757131D02*
X6854510Y-22757131D01*
X6854510Y-22757131D02*
X6835462Y-22766655D01*
X6835462Y-22766655D02*
X6825938Y-22776179D01*
X6825938Y-22776179D02*
X6816415Y-22795226D01*
X6816415Y-22795226D02*
X6816415Y-22842845D01*
X6816415Y-22842845D02*
X6825938Y-22861893D01*
X6825938Y-22861893D02*
X6835462Y-22871417D01*
X6835462Y-22871417D02*
X6854510Y-22880941D01*
X6854510Y-22880941D02*
X6892605Y-22880941D01*
X6892605Y-22880941D02*
X6911653Y-22871417D01*
X6911653Y-22871417D02*
X6921177Y-22861893D01*
X6921177Y-22861893D02*
X6930700Y-22842845D01*
X7054510Y-22757131D02*
X7073558Y-22757131D01*
X7073558Y-22757131D02*
X7092605Y-22766655D01*
X7092605Y-22766655D02*
X7102129Y-22776179D01*
X7102129Y-22776179D02*
X7111653Y-22795226D01*
X7111653Y-22795226D02*
X7121177Y-22833322D01*
X7121177Y-22833322D02*
X7121177Y-22880941D01*
X7121177Y-22880941D02*
X7111653Y-22919036D01*
X7111653Y-22919036D02*
X7102129Y-22938083D01*
X7102129Y-22938083D02*
X7092605Y-22947607D01*
X7092605Y-22947607D02*
X7073558Y-22957131D01*
X7073558Y-22957131D02*
X7054510Y-22957131D01*
X7054510Y-22957131D02*
X7035462Y-22947607D01*
X7035462Y-22947607D02*
X7025938Y-22938083D01*
X7025938Y-22938083D02*
X7016415Y-22919036D01*
X7016415Y-22919036D02*
X7006891Y-22880941D01*
X7006891Y-22880941D02*
X7006891Y-22833322D01*
X7006891Y-22833322D02*
X7016415Y-22795226D01*
X7016415Y-22795226D02*
X7025938Y-22776179D01*
X7025938Y-22776179D02*
X7035462Y-22766655D01*
X7035462Y-22766655D02*
X7054510Y-22757131D01*
X7244986Y-22757131D02*
X7264034Y-22757131D01*
X7264034Y-22757131D02*
X7283081Y-22766655D01*
X7283081Y-22766655D02*
X7292605Y-22776179D01*
X7292605Y-22776179D02*
X7302129Y-22795226D01*
X7302129Y-22795226D02*
X7311653Y-22833322D01*
X7311653Y-22833322D02*
X7311653Y-22880941D01*
X7311653Y-22880941D02*
X7302129Y-22919036D01*
X7302129Y-22919036D02*
X7292605Y-22938083D01*
X7292605Y-22938083D02*
X7283081Y-22947607D01*
X7283081Y-22947607D02*
X7264034Y-22957131D01*
X7264034Y-22957131D02*
X7244986Y-22957131D01*
X7244986Y-22957131D02*
X7225938Y-22947607D01*
X7225938Y-22947607D02*
X7216415Y-22938083D01*
X7216415Y-22938083D02*
X7206891Y-22919036D01*
X7206891Y-22919036D02*
X7197367Y-22880941D01*
X7197367Y-22880941D02*
X7197367Y-22833322D01*
X7197367Y-22833322D02*
X7206891Y-22795226D01*
X7206891Y-22795226D02*
X7216415Y-22776179D01*
X7216415Y-22776179D02*
X7225938Y-22766655D01*
X7225938Y-22766655D02*
X7244986Y-22757131D01*
X7397367Y-22957131D02*
X7397367Y-22823798D01*
X7397367Y-22842845D02*
X7406891Y-22833322D01*
X7406891Y-22833322D02*
X7425938Y-22823798D01*
X7425938Y-22823798D02*
X7454510Y-22823798D01*
X7454510Y-22823798D02*
X7473558Y-22833322D01*
X7473558Y-22833322D02*
X7483081Y-22852369D01*
X7483081Y-22852369D02*
X7483081Y-22957131D01*
X7483081Y-22852369D02*
X7492605Y-22833322D01*
X7492605Y-22833322D02*
X7511653Y-22823798D01*
X7511653Y-22823798D02*
X7540224Y-22823798D01*
X7540224Y-22823798D02*
X7559272Y-22833322D01*
X7559272Y-22833322D02*
X7568796Y-22852369D01*
X7568796Y-22852369D02*
X7568796Y-22957131D01*
X7664034Y-22957131D02*
X7664034Y-22823798D01*
X7664034Y-22842845D02*
X7673558Y-22833322D01*
X7673558Y-22833322D02*
X7692605Y-22823798D01*
X7692605Y-22823798D02*
X7721177Y-22823798D01*
X7721177Y-22823798D02*
X7740224Y-22833322D01*
X7740224Y-22833322D02*
X7749748Y-22852369D01*
X7749748Y-22852369D02*
X7749748Y-22957131D01*
X7749748Y-22852369D02*
X7759272Y-22833322D01*
X7759272Y-22833322D02*
X7778319Y-22823798D01*
X7778319Y-22823798D02*
X7806891Y-22823798D01*
X7806891Y-22823798D02*
X7825939Y-22833322D01*
X7825939Y-22833322D02*
X7835462Y-22852369D01*
X7835462Y-22852369D02*
X7835462Y-22957131D01*
X8225939Y-22747607D02*
X8054510Y-23004750D01*
X8483082Y-22757131D02*
X8502129Y-22757131D01*
X8502129Y-22757131D02*
X8521177Y-22766655D01*
X8521177Y-22766655D02*
X8530701Y-22776179D01*
X8530701Y-22776179D02*
X8540224Y-22795226D01*
X8540224Y-22795226D02*
X8549748Y-22833322D01*
X8549748Y-22833322D02*
X8549748Y-22880941D01*
X8549748Y-22880941D02*
X8540224Y-22919036D01*
X8540224Y-22919036D02*
X8530701Y-22938083D01*
X8530701Y-22938083D02*
X8521177Y-22947607D01*
X8521177Y-22947607D02*
X8502129Y-22957131D01*
X8502129Y-22957131D02*
X8483082Y-22957131D01*
X8483082Y-22957131D02*
X8464034Y-22947607D01*
X8464034Y-22947607D02*
X8454510Y-22938083D01*
X8454510Y-22938083D02*
X8444986Y-22919036D01*
X8444986Y-22919036D02*
X8435463Y-22880941D01*
X8435463Y-22880941D02*
X8435463Y-22833322D01*
X8435463Y-22833322D02*
X8444986Y-22795226D01*
X8444986Y-22795226D02*
X8454510Y-22776179D01*
X8454510Y-22776179D02*
X8464034Y-22766655D01*
X8464034Y-22766655D02*
X8483082Y-22757131D01*
X8635463Y-22938083D02*
X8644986Y-22947607D01*
X8644986Y-22947607D02*
X8635463Y-22957131D01*
X8635463Y-22957131D02*
X8625939Y-22947607D01*
X8625939Y-22947607D02*
X8635463Y-22938083D01*
X8635463Y-22938083D02*
X8635463Y-22957131D01*
X8768796Y-22757131D02*
X8787844Y-22757131D01*
X8787844Y-22757131D02*
X8806891Y-22766655D01*
X8806891Y-22766655D02*
X8816415Y-22776179D01*
X8816415Y-22776179D02*
X8825939Y-22795226D01*
X8825939Y-22795226D02*
X8835463Y-22833322D01*
X8835463Y-22833322D02*
X8835463Y-22880941D01*
X8835463Y-22880941D02*
X8825939Y-22919036D01*
X8825939Y-22919036D02*
X8816415Y-22938083D01*
X8816415Y-22938083D02*
X8806891Y-22947607D01*
X8806891Y-22947607D02*
X8787844Y-22957131D01*
X8787844Y-22957131D02*
X8768796Y-22957131D01*
X8768796Y-22957131D02*
X8749748Y-22947607D01*
X8749748Y-22947607D02*
X8740224Y-22938083D01*
X8740224Y-22938083D02*
X8730701Y-22919036D01*
X8730701Y-22919036D02*
X8721177Y-22880941D01*
X8721177Y-22880941D02*
X8721177Y-22833322D01*
X8721177Y-22833322D02*
X8730701Y-22795226D01*
X8730701Y-22795226D02*
X8740224Y-22776179D01*
X8740224Y-22776179D02*
X8749748Y-22766655D01*
X8749748Y-22766655D02*
X8768796Y-22757131D01*
X8902129Y-22757131D02*
X9035463Y-22757131D01*
X9035463Y-22757131D02*
X8949748Y-22957131D01*
X9197367Y-22823798D02*
X9197367Y-22957131D01*
X9149748Y-22747607D02*
X9102129Y-22890464D01*
X9102129Y-22890464D02*
X9225939Y-22890464D01*
X9330701Y-22842845D02*
X9311653Y-22833322D01*
X9311653Y-22833322D02*
X9302129Y-22823798D01*
X9302129Y-22823798D02*
X9292605Y-22804750D01*
X9292605Y-22804750D02*
X9292605Y-22795226D01*
X9292605Y-22795226D02*
X9302129Y-22776179D01*
X9302129Y-22776179D02*
X9311653Y-22766655D01*
X9311653Y-22766655D02*
X9330701Y-22757131D01*
X9330701Y-22757131D02*
X9368796Y-22757131D01*
X9368796Y-22757131D02*
X9387844Y-22766655D01*
X9387844Y-22766655D02*
X9397367Y-22776179D01*
X9397367Y-22776179D02*
X9406891Y-22795226D01*
X9406891Y-22795226D02*
X9406891Y-22804750D01*
X9406891Y-22804750D02*
X9397367Y-22823798D01*
X9397367Y-22823798D02*
X9387844Y-22833322D01*
X9387844Y-22833322D02*
X9368796Y-22842845D01*
X9368796Y-22842845D02*
X9330701Y-22842845D01*
X9330701Y-22842845D02*
X9311653Y-22852369D01*
X9311653Y-22852369D02*
X9302129Y-22861893D01*
X9302129Y-22861893D02*
X9292605Y-22880941D01*
X9292605Y-22880941D02*
X9292605Y-22919036D01*
X9292605Y-22919036D02*
X9302129Y-22938083D01*
X9302129Y-22938083D02*
X9311653Y-22947607D01*
X9311653Y-22947607D02*
X9330701Y-22957131D01*
X9330701Y-22957131D02*
X9368796Y-22957131D01*
X9368796Y-22957131D02*
X9387844Y-22947607D01*
X9387844Y-22947607D02*
X9397367Y-22938083D01*
X9397367Y-22938083D02*
X9406891Y-22919036D01*
X9406891Y-22919036D02*
X9406891Y-22880941D01*
X9406891Y-22880941D02*
X9397367Y-22861893D01*
X9397367Y-22861893D02*
X9387844Y-22852369D01*
X9387844Y-22852369D02*
X9368796Y-22842845D01*
X9483082Y-22757131D02*
X9483082Y-22795226D01*
X9559272Y-22757131D02*
X9559272Y-22795226D01*
X9854510Y-23033322D02*
X9844986Y-23023798D01*
X9844986Y-23023798D02*
X9825939Y-22995226D01*
X9825939Y-22995226D02*
X9816415Y-22976179D01*
X9816415Y-22976179D02*
X9806891Y-22947607D01*
X9806891Y-22947607D02*
X9797367Y-22899988D01*
X9797367Y-22899988D02*
X9797367Y-22861893D01*
X9797367Y-22861893D02*
X9806891Y-22814274D01*
X9806891Y-22814274D02*
X9816415Y-22785703D01*
X9816415Y-22785703D02*
X9825939Y-22766655D01*
X9825939Y-22766655D02*
X9844986Y-22738083D01*
X9844986Y-22738083D02*
X9854510Y-22728560D01*
X10035463Y-22957131D02*
X9921177Y-22957131D01*
X9978320Y-22957131D02*
X9978320Y-22757131D01*
X9978320Y-22757131D02*
X9959272Y-22785703D01*
X9959272Y-22785703D02*
X9940225Y-22804750D01*
X9940225Y-22804750D02*
X9921177Y-22814274D01*
X10225939Y-22957131D02*
X10111653Y-22957131D01*
X10168796Y-22957131D02*
X10168796Y-22757131D01*
X10168796Y-22757131D02*
X10149748Y-22785703D01*
X10149748Y-22785703D02*
X10130701Y-22804750D01*
X10130701Y-22804750D02*
X10111653Y-22814274D01*
X10397367Y-22757131D02*
X10359272Y-22757131D01*
X10359272Y-22757131D02*
X10340225Y-22766655D01*
X10340225Y-22766655D02*
X10330701Y-22776179D01*
X10330701Y-22776179D02*
X10311653Y-22804750D01*
X10311653Y-22804750D02*
X10302129Y-22842845D01*
X10302129Y-22842845D02*
X10302129Y-22919036D01*
X10302129Y-22919036D02*
X10311653Y-22938083D01*
X10311653Y-22938083D02*
X10321177Y-22947607D01*
X10321177Y-22947607D02*
X10340225Y-22957131D01*
X10340225Y-22957131D02*
X10378320Y-22957131D01*
X10378320Y-22957131D02*
X10397367Y-22947607D01*
X10397367Y-22947607D02*
X10406891Y-22938083D01*
X10406891Y-22938083D02*
X10416415Y-22919036D01*
X10416415Y-22919036D02*
X10416415Y-22871417D01*
X10416415Y-22871417D02*
X10406891Y-22852369D01*
X10406891Y-22852369D02*
X10397367Y-22842845D01*
X10397367Y-22842845D02*
X10378320Y-22833322D01*
X10378320Y-22833322D02*
X10340225Y-22833322D01*
X10340225Y-22833322D02*
X10321177Y-22842845D01*
X10321177Y-22842845D02*
X10311653Y-22852369D01*
X10311653Y-22852369D02*
X10302129Y-22871417D01*
X10654510Y-22957131D02*
X10654510Y-22757131D01*
X10740225Y-22957131D02*
X10740225Y-22852369D01*
X10740225Y-22852369D02*
X10730701Y-22833322D01*
X10730701Y-22833322D02*
X10711653Y-22823798D01*
X10711653Y-22823798D02*
X10683082Y-22823798D01*
X10683082Y-22823798D02*
X10664034Y-22833322D01*
X10664034Y-22833322D02*
X10654510Y-22842845D01*
X10864034Y-22957131D02*
X10844987Y-22947607D01*
X10844987Y-22947607D02*
X10835463Y-22938083D01*
X10835463Y-22938083D02*
X10825939Y-22919036D01*
X10825939Y-22919036D02*
X10825939Y-22861893D01*
X10825939Y-22861893D02*
X10835463Y-22842845D01*
X10835463Y-22842845D02*
X10844987Y-22833322D01*
X10844987Y-22833322D02*
X10864034Y-22823798D01*
X10864034Y-22823798D02*
X10892606Y-22823798D01*
X10892606Y-22823798D02*
X10911653Y-22833322D01*
X10911653Y-22833322D02*
X10921177Y-22842845D01*
X10921177Y-22842845D02*
X10930701Y-22861893D01*
X10930701Y-22861893D02*
X10930701Y-22919036D01*
X10930701Y-22919036D02*
X10921177Y-22938083D01*
X10921177Y-22938083D02*
X10911653Y-22947607D01*
X10911653Y-22947607D02*
X10892606Y-22957131D01*
X10892606Y-22957131D02*
X10864034Y-22957131D01*
X11044987Y-22957131D02*
X11025939Y-22947607D01*
X11025939Y-22947607D02*
X11016415Y-22928560D01*
X11016415Y-22928560D02*
X11016415Y-22757131D01*
X11197367Y-22947607D02*
X11178320Y-22957131D01*
X11178320Y-22957131D02*
X11140225Y-22957131D01*
X11140225Y-22957131D02*
X11121177Y-22947607D01*
X11121177Y-22947607D02*
X11111653Y-22928560D01*
X11111653Y-22928560D02*
X11111653Y-22852369D01*
X11111653Y-22852369D02*
X11121177Y-22833322D01*
X11121177Y-22833322D02*
X11140225Y-22823798D01*
X11140225Y-22823798D02*
X11178320Y-22823798D01*
X11178320Y-22823798D02*
X11197367Y-22833322D01*
X11197367Y-22833322D02*
X11206891Y-22852369D01*
X11206891Y-22852369D02*
X11206891Y-22871417D01*
X11206891Y-22871417D02*
X11111653Y-22890464D01*
X11283082Y-22947607D02*
X11302129Y-22957131D01*
X11302129Y-22957131D02*
X11340225Y-22957131D01*
X11340225Y-22957131D02*
X11359272Y-22947607D01*
X11359272Y-22947607D02*
X11368796Y-22928560D01*
X11368796Y-22928560D02*
X11368796Y-22919036D01*
X11368796Y-22919036D02*
X11359272Y-22899988D01*
X11359272Y-22899988D02*
X11340225Y-22890464D01*
X11340225Y-22890464D02*
X11311653Y-22890464D01*
X11311653Y-22890464D02*
X11292606Y-22880941D01*
X11292606Y-22880941D02*
X11283082Y-22861893D01*
X11283082Y-22861893D02*
X11283082Y-22852369D01*
X11283082Y-22852369D02*
X11292606Y-22833322D01*
X11292606Y-22833322D02*
X11311653Y-22823798D01*
X11311653Y-22823798D02*
X11340225Y-22823798D01*
X11340225Y-22823798D02*
X11359272Y-22833322D01*
X11435463Y-23033322D02*
X11444987Y-23023798D01*
X11444987Y-23023798D02*
X11464034Y-22995226D01*
X11464034Y-22995226D02*
X11473558Y-22976179D01*
X11473558Y-22976179D02*
X11483082Y-22947607D01*
X11483082Y-22947607D02*
X11492606Y-22899988D01*
X11492606Y-22899988D02*
X11492606Y-22861893D01*
X11492606Y-22861893D02*
X11483082Y-22814274D01*
X11483082Y-22814274D02*
X11473558Y-22785703D01*
X11473558Y-22785703D02*
X11464034Y-22766655D01*
X11464034Y-22766655D02*
X11444987Y-22738083D01*
X11444987Y-22738083D02*
X11435463Y-22728560D01*
X11797368Y-23033322D02*
X11787844Y-23023798D01*
X11787844Y-23023798D02*
X11768796Y-22995226D01*
X11768796Y-22995226D02*
X11759272Y-22976179D01*
X11759272Y-22976179D02*
X11749748Y-22947607D01*
X11749748Y-22947607D02*
X11740225Y-22899988D01*
X11740225Y-22899988D02*
X11740225Y-22861893D01*
X11740225Y-22861893D02*
X11749748Y-22814274D01*
X11749748Y-22814274D02*
X11759272Y-22785703D01*
X11759272Y-22785703D02*
X11768796Y-22766655D01*
X11768796Y-22766655D02*
X11787844Y-22738083D01*
X11787844Y-22738083D02*
X11797368Y-22728560D01*
X11873558Y-22823798D02*
X11873558Y-22957131D01*
X11873558Y-22842845D02*
X11883082Y-22833322D01*
X11883082Y-22833322D02*
X11902129Y-22823798D01*
X11902129Y-22823798D02*
X11930701Y-22823798D01*
X11930701Y-22823798D02*
X11949748Y-22833322D01*
X11949748Y-22833322D02*
X11959272Y-22852369D01*
X11959272Y-22852369D02*
X11959272Y-22957131D01*
X12083082Y-22957131D02*
X12064034Y-22947607D01*
X12064034Y-22947607D02*
X12054510Y-22938083D01*
X12054510Y-22938083D02*
X12044987Y-22919036D01*
X12044987Y-22919036D02*
X12044987Y-22861893D01*
X12044987Y-22861893D02*
X12054510Y-22842845D01*
X12054510Y-22842845D02*
X12064034Y-22833322D01*
X12064034Y-22833322D02*
X12083082Y-22823798D01*
X12083082Y-22823798D02*
X12111653Y-22823798D01*
X12111653Y-22823798D02*
X12130701Y-22833322D01*
X12130701Y-22833322D02*
X12140225Y-22842845D01*
X12140225Y-22842845D02*
X12149748Y-22861893D01*
X12149748Y-22861893D02*
X12149748Y-22919036D01*
X12149748Y-22919036D02*
X12140225Y-22938083D01*
X12140225Y-22938083D02*
X12130701Y-22947607D01*
X12130701Y-22947607D02*
X12111653Y-22957131D01*
X12111653Y-22957131D02*
X12083082Y-22957131D01*
X12206891Y-22823798D02*
X12283082Y-22823798D01*
X12235463Y-22757131D02*
X12235463Y-22928560D01*
X12235463Y-22928560D02*
X12244987Y-22947607D01*
X12244987Y-22947607D02*
X12264034Y-22957131D01*
X12264034Y-22957131D02*
X12283082Y-22957131D01*
X12502129Y-22823798D02*
X12502129Y-23023798D01*
X12502129Y-22833322D02*
X12521177Y-22823798D01*
X12521177Y-22823798D02*
X12559272Y-22823798D01*
X12559272Y-22823798D02*
X12578320Y-22833322D01*
X12578320Y-22833322D02*
X12587844Y-22842845D01*
X12587844Y-22842845D02*
X12597368Y-22861893D01*
X12597368Y-22861893D02*
X12597368Y-22919036D01*
X12597368Y-22919036D02*
X12587844Y-22938083D01*
X12587844Y-22938083D02*
X12578320Y-22947607D01*
X12578320Y-22947607D02*
X12559272Y-22957131D01*
X12559272Y-22957131D02*
X12521177Y-22957131D01*
X12521177Y-22957131D02*
X12502129Y-22947607D01*
X12711653Y-22957131D02*
X12692606Y-22947607D01*
X12692606Y-22947607D02*
X12683082Y-22928560D01*
X12683082Y-22928560D02*
X12683082Y-22757131D01*
X12873558Y-22957131D02*
X12873558Y-22852369D01*
X12873558Y-22852369D02*
X12864034Y-22833322D01*
X12864034Y-22833322D02*
X12844987Y-22823798D01*
X12844987Y-22823798D02*
X12806891Y-22823798D01*
X12806891Y-22823798D02*
X12787844Y-22833322D01*
X12873558Y-22947607D02*
X12854510Y-22957131D01*
X12854510Y-22957131D02*
X12806891Y-22957131D01*
X12806891Y-22957131D02*
X12787844Y-22947607D01*
X12787844Y-22947607D02*
X12778320Y-22928560D01*
X12778320Y-22928560D02*
X12778320Y-22909512D01*
X12778320Y-22909512D02*
X12787844Y-22890464D01*
X12787844Y-22890464D02*
X12806891Y-22880941D01*
X12806891Y-22880941D02*
X12854510Y-22880941D01*
X12854510Y-22880941D02*
X12873558Y-22871417D01*
X12940225Y-22823798D02*
X13016415Y-22823798D01*
X12968796Y-22757131D02*
X12968796Y-22928560D01*
X12968796Y-22928560D02*
X12978320Y-22947607D01*
X12978320Y-22947607D02*
X12997368Y-22957131D01*
X12997368Y-22957131D02*
X13016415Y-22957131D01*
X13159272Y-22947607D02*
X13140225Y-22957131D01*
X13140225Y-22957131D02*
X13102129Y-22957131D01*
X13102129Y-22957131D02*
X13083082Y-22947607D01*
X13083082Y-22947607D02*
X13073558Y-22928560D01*
X13073558Y-22928560D02*
X13073558Y-22852369D01*
X13073558Y-22852369D02*
X13083082Y-22833322D01*
X13083082Y-22833322D02*
X13102129Y-22823798D01*
X13102129Y-22823798D02*
X13140225Y-22823798D01*
X13140225Y-22823798D02*
X13159272Y-22833322D01*
X13159272Y-22833322D02*
X13168796Y-22852369D01*
X13168796Y-22852369D02*
X13168796Y-22871417D01*
X13168796Y-22871417D02*
X13073558Y-22890464D01*
X13340225Y-22957131D02*
X13340225Y-22757131D01*
X13340225Y-22947607D02*
X13321177Y-22957131D01*
X13321177Y-22957131D02*
X13283082Y-22957131D01*
X13283082Y-22957131D02*
X13264034Y-22947607D01*
X13264034Y-22947607D02*
X13254510Y-22938083D01*
X13254510Y-22938083D02*
X13244987Y-22919036D01*
X13244987Y-22919036D02*
X13244987Y-22861893D01*
X13244987Y-22861893D02*
X13254510Y-22842845D01*
X13254510Y-22842845D02*
X13264034Y-22833322D01*
X13264034Y-22833322D02*
X13283082Y-22823798D01*
X13283082Y-22823798D02*
X13321177Y-22823798D01*
X13321177Y-22823798D02*
X13340225Y-22833322D01*
X13416415Y-23033322D02*
X13425939Y-23023798D01*
X13425939Y-23023798D02*
X13444987Y-22995226D01*
X13444987Y-22995226D02*
X13454510Y-22976179D01*
X13454510Y-22976179D02*
X13464034Y-22947607D01*
X13464034Y-22947607D02*
X13473558Y-22899988D01*
X13473558Y-22899988D02*
X13473558Y-22861893D01*
X13473558Y-22861893D02*
X13464034Y-22814274D01*
X13464034Y-22814274D02*
X13454510Y-22785703D01*
X13454510Y-22785703D02*
X13444987Y-22766655D01*
X13444987Y-22766655D02*
X13425939Y-22738083D01*
X13425939Y-22738083D02*
X13416415Y-22728560D01*
X6279447Y-23175647D02*
G75*
G02*
X6079447Y-23175647I-100000J0D01*
G01*
X6079447Y-23175647D02*
G75*
G02*
X6279447Y-23175647I100000J0D01*
G01*
X6521177Y-23067131D02*
X6644986Y-23067131D01*
X6644986Y-23067131D02*
X6578319Y-23143322D01*
X6578319Y-23143322D02*
X6606891Y-23143322D01*
X6606891Y-23143322D02*
X6625938Y-23152845D01*
X6625938Y-23152845D02*
X6635462Y-23162369D01*
X6635462Y-23162369D02*
X6644986Y-23181417D01*
X6644986Y-23181417D02*
X6644986Y-23229036D01*
X6644986Y-23229036D02*
X6635462Y-23248083D01*
X6635462Y-23248083D02*
X6625938Y-23257607D01*
X6625938Y-23257607D02*
X6606891Y-23267131D01*
X6606891Y-23267131D02*
X6549748Y-23267131D01*
X6549748Y-23267131D02*
X6530700Y-23257607D01*
X6530700Y-23257607D02*
X6521177Y-23248083D01*
X6730700Y-23248083D02*
X6740224Y-23257607D01*
X6740224Y-23257607D02*
X6730700Y-23267131D01*
X6730700Y-23267131D02*
X6721177Y-23257607D01*
X6721177Y-23257607D02*
X6730700Y-23248083D01*
X6730700Y-23248083D02*
X6730700Y-23267131D01*
X6864034Y-23067131D02*
X6883081Y-23067131D01*
X6883081Y-23067131D02*
X6902129Y-23076655D01*
X6902129Y-23076655D02*
X6911653Y-23086179D01*
X6911653Y-23086179D02*
X6921177Y-23105226D01*
X6921177Y-23105226D02*
X6930700Y-23143322D01*
X6930700Y-23143322D02*
X6930700Y-23190941D01*
X6930700Y-23190941D02*
X6921177Y-23229036D01*
X6921177Y-23229036D02*
X6911653Y-23248083D01*
X6911653Y-23248083D02*
X6902129Y-23257607D01*
X6902129Y-23257607D02*
X6883081Y-23267131D01*
X6883081Y-23267131D02*
X6864034Y-23267131D01*
X6864034Y-23267131D02*
X6844986Y-23257607D01*
X6844986Y-23257607D02*
X6835462Y-23248083D01*
X6835462Y-23248083D02*
X6825938Y-23229036D01*
X6825938Y-23229036D02*
X6816415Y-23190941D01*
X6816415Y-23190941D02*
X6816415Y-23143322D01*
X6816415Y-23143322D02*
X6825938Y-23105226D01*
X6825938Y-23105226D02*
X6835462Y-23086179D01*
X6835462Y-23086179D02*
X6844986Y-23076655D01*
X6844986Y-23076655D02*
X6864034Y-23067131D01*
X7054510Y-23067131D02*
X7073558Y-23067131D01*
X7073558Y-23067131D02*
X7092605Y-23076655D01*
X7092605Y-23076655D02*
X7102129Y-23086179D01*
X7102129Y-23086179D02*
X7111653Y-23105226D01*
X7111653Y-23105226D02*
X7121177Y-23143322D01*
X7121177Y-23143322D02*
X7121177Y-23190941D01*
X7121177Y-23190941D02*
X7111653Y-23229036D01*
X7111653Y-23229036D02*
X7102129Y-23248083D01*
X7102129Y-23248083D02*
X7092605Y-23257607D01*
X7092605Y-23257607D02*
X7073558Y-23267131D01*
X7073558Y-23267131D02*
X7054510Y-23267131D01*
X7054510Y-23267131D02*
X7035462Y-23257607D01*
X7035462Y-23257607D02*
X7025938Y-23248083D01*
X7025938Y-23248083D02*
X7016415Y-23229036D01*
X7016415Y-23229036D02*
X7006891Y-23190941D01*
X7006891Y-23190941D02*
X7006891Y-23143322D01*
X7006891Y-23143322D02*
X7016415Y-23105226D01*
X7016415Y-23105226D02*
X7025938Y-23086179D01*
X7025938Y-23086179D02*
X7035462Y-23076655D01*
X7035462Y-23076655D02*
X7054510Y-23067131D01*
X7244986Y-23067131D02*
X7264034Y-23067131D01*
X7264034Y-23067131D02*
X7283081Y-23076655D01*
X7283081Y-23076655D02*
X7292605Y-23086179D01*
X7292605Y-23086179D02*
X7302129Y-23105226D01*
X7302129Y-23105226D02*
X7311653Y-23143322D01*
X7311653Y-23143322D02*
X7311653Y-23190941D01*
X7311653Y-23190941D02*
X7302129Y-23229036D01*
X7302129Y-23229036D02*
X7292605Y-23248083D01*
X7292605Y-23248083D02*
X7283081Y-23257607D01*
X7283081Y-23257607D02*
X7264034Y-23267131D01*
X7264034Y-23267131D02*
X7244986Y-23267131D01*
X7244986Y-23267131D02*
X7225938Y-23257607D01*
X7225938Y-23257607D02*
X7216415Y-23248083D01*
X7216415Y-23248083D02*
X7206891Y-23229036D01*
X7206891Y-23229036D02*
X7197367Y-23190941D01*
X7197367Y-23190941D02*
X7197367Y-23143322D01*
X7197367Y-23143322D02*
X7206891Y-23105226D01*
X7206891Y-23105226D02*
X7216415Y-23086179D01*
X7216415Y-23086179D02*
X7225938Y-23076655D01*
X7225938Y-23076655D02*
X7244986Y-23067131D01*
X7397367Y-23267131D02*
X7397367Y-23133798D01*
X7397367Y-23152845D02*
X7406891Y-23143322D01*
X7406891Y-23143322D02*
X7425938Y-23133798D01*
X7425938Y-23133798D02*
X7454510Y-23133798D01*
X7454510Y-23133798D02*
X7473558Y-23143322D01*
X7473558Y-23143322D02*
X7483081Y-23162369D01*
X7483081Y-23162369D02*
X7483081Y-23267131D01*
X7483081Y-23162369D02*
X7492605Y-23143322D01*
X7492605Y-23143322D02*
X7511653Y-23133798D01*
X7511653Y-23133798D02*
X7540224Y-23133798D01*
X7540224Y-23133798D02*
X7559272Y-23143322D01*
X7559272Y-23143322D02*
X7568796Y-23162369D01*
X7568796Y-23162369D02*
X7568796Y-23267131D01*
X7664034Y-23267131D02*
X7664034Y-23133798D01*
X7664034Y-23152845D02*
X7673558Y-23143322D01*
X7673558Y-23143322D02*
X7692605Y-23133798D01*
X7692605Y-23133798D02*
X7721177Y-23133798D01*
X7721177Y-23133798D02*
X7740224Y-23143322D01*
X7740224Y-23143322D02*
X7749748Y-23162369D01*
X7749748Y-23162369D02*
X7749748Y-23267131D01*
X7749748Y-23162369D02*
X7759272Y-23143322D01*
X7759272Y-23143322D02*
X7778319Y-23133798D01*
X7778319Y-23133798D02*
X7806891Y-23133798D01*
X7806891Y-23133798D02*
X7825939Y-23143322D01*
X7825939Y-23143322D02*
X7835462Y-23162369D01*
X7835462Y-23162369D02*
X7835462Y-23267131D01*
X8225939Y-23057607D02*
X8054510Y-23314750D01*
X8483082Y-23067131D02*
X8502129Y-23067131D01*
X8502129Y-23067131D02*
X8521177Y-23076655D01*
X8521177Y-23076655D02*
X8530701Y-23086179D01*
X8530701Y-23086179D02*
X8540224Y-23105226D01*
X8540224Y-23105226D02*
X8549748Y-23143322D01*
X8549748Y-23143322D02*
X8549748Y-23190941D01*
X8549748Y-23190941D02*
X8540224Y-23229036D01*
X8540224Y-23229036D02*
X8530701Y-23248083D01*
X8530701Y-23248083D02*
X8521177Y-23257607D01*
X8521177Y-23257607D02*
X8502129Y-23267131D01*
X8502129Y-23267131D02*
X8483082Y-23267131D01*
X8483082Y-23267131D02*
X8464034Y-23257607D01*
X8464034Y-23257607D02*
X8454510Y-23248083D01*
X8454510Y-23248083D02*
X8444986Y-23229036D01*
X8444986Y-23229036D02*
X8435463Y-23190941D01*
X8435463Y-23190941D02*
X8435463Y-23143322D01*
X8435463Y-23143322D02*
X8444986Y-23105226D01*
X8444986Y-23105226D02*
X8454510Y-23086179D01*
X8454510Y-23086179D02*
X8464034Y-23076655D01*
X8464034Y-23076655D02*
X8483082Y-23067131D01*
X8635463Y-23248083D02*
X8644986Y-23257607D01*
X8644986Y-23257607D02*
X8635463Y-23267131D01*
X8635463Y-23267131D02*
X8625939Y-23257607D01*
X8625939Y-23257607D02*
X8635463Y-23248083D01*
X8635463Y-23248083D02*
X8635463Y-23267131D01*
X8835463Y-23267131D02*
X8721177Y-23267131D01*
X8778320Y-23267131D02*
X8778320Y-23067131D01*
X8778320Y-23067131D02*
X8759272Y-23095703D01*
X8759272Y-23095703D02*
X8740224Y-23114750D01*
X8740224Y-23114750D02*
X8721177Y-23124274D01*
X9025939Y-23267131D02*
X8911653Y-23267131D01*
X8968796Y-23267131D02*
X8968796Y-23067131D01*
X8968796Y-23067131D02*
X8949748Y-23095703D01*
X8949748Y-23095703D02*
X8930701Y-23114750D01*
X8930701Y-23114750D02*
X8911653Y-23124274D01*
X9140224Y-23152845D02*
X9121177Y-23143322D01*
X9121177Y-23143322D02*
X9111653Y-23133798D01*
X9111653Y-23133798D02*
X9102129Y-23114750D01*
X9102129Y-23114750D02*
X9102129Y-23105226D01*
X9102129Y-23105226D02*
X9111653Y-23086179D01*
X9111653Y-23086179D02*
X9121177Y-23076655D01*
X9121177Y-23076655D02*
X9140224Y-23067131D01*
X9140224Y-23067131D02*
X9178320Y-23067131D01*
X9178320Y-23067131D02*
X9197367Y-23076655D01*
X9197367Y-23076655D02*
X9206891Y-23086179D01*
X9206891Y-23086179D02*
X9216415Y-23105226D01*
X9216415Y-23105226D02*
X9216415Y-23114750D01*
X9216415Y-23114750D02*
X9206891Y-23133798D01*
X9206891Y-23133798D02*
X9197367Y-23143322D01*
X9197367Y-23143322D02*
X9178320Y-23152845D01*
X9178320Y-23152845D02*
X9140224Y-23152845D01*
X9140224Y-23152845D02*
X9121177Y-23162369D01*
X9121177Y-23162369D02*
X9111653Y-23171893D01*
X9111653Y-23171893D02*
X9102129Y-23190941D01*
X9102129Y-23190941D02*
X9102129Y-23229036D01*
X9102129Y-23229036D02*
X9111653Y-23248083D01*
X9111653Y-23248083D02*
X9121177Y-23257607D01*
X9121177Y-23257607D02*
X9140224Y-23267131D01*
X9140224Y-23267131D02*
X9178320Y-23267131D01*
X9178320Y-23267131D02*
X9197367Y-23257607D01*
X9197367Y-23257607D02*
X9206891Y-23248083D01*
X9206891Y-23248083D02*
X9216415Y-23229036D01*
X9216415Y-23229036D02*
X9216415Y-23190941D01*
X9216415Y-23190941D02*
X9206891Y-23171893D01*
X9206891Y-23171893D02*
X9197367Y-23162369D01*
X9197367Y-23162369D02*
X9178320Y-23152845D01*
X9406891Y-23267131D02*
X9292605Y-23267131D01*
X9349748Y-23267131D02*
X9349748Y-23067131D01*
X9349748Y-23067131D02*
X9330701Y-23095703D01*
X9330701Y-23095703D02*
X9311653Y-23114750D01*
X9311653Y-23114750D02*
X9292605Y-23124274D01*
X9483082Y-23067131D02*
X9483082Y-23105226D01*
X9559272Y-23067131D02*
X9559272Y-23105226D01*
X9854510Y-23343322D02*
X9844986Y-23333798D01*
X9844986Y-23333798D02*
X9825939Y-23305226D01*
X9825939Y-23305226D02*
X9816415Y-23286179D01*
X9816415Y-23286179D02*
X9806891Y-23257607D01*
X9806891Y-23257607D02*
X9797367Y-23209988D01*
X9797367Y-23209988D02*
X9797367Y-23171893D01*
X9797367Y-23171893D02*
X9806891Y-23124274D01*
X9806891Y-23124274D02*
X9816415Y-23095703D01*
X9816415Y-23095703D02*
X9825939Y-23076655D01*
X9825939Y-23076655D02*
X9844986Y-23048083D01*
X9844986Y-23048083D02*
X9854510Y-23038560D01*
X10035463Y-23267131D02*
X9921177Y-23267131D01*
X9978320Y-23267131D02*
X9978320Y-23067131D01*
X9978320Y-23067131D02*
X9959272Y-23095703D01*
X9959272Y-23095703D02*
X9940225Y-23114750D01*
X9940225Y-23114750D02*
X9921177Y-23124274D01*
X10225939Y-23267131D02*
X10111653Y-23267131D01*
X10168796Y-23267131D02*
X10168796Y-23067131D01*
X10168796Y-23067131D02*
X10149748Y-23095703D01*
X10149748Y-23095703D02*
X10130701Y-23114750D01*
X10130701Y-23114750D02*
X10111653Y-23124274D01*
X10397367Y-23067131D02*
X10359272Y-23067131D01*
X10359272Y-23067131D02*
X10340225Y-23076655D01*
X10340225Y-23076655D02*
X10330701Y-23086179D01*
X10330701Y-23086179D02*
X10311653Y-23114750D01*
X10311653Y-23114750D02*
X10302129Y-23152845D01*
X10302129Y-23152845D02*
X10302129Y-23229036D01*
X10302129Y-23229036D02*
X10311653Y-23248083D01*
X10311653Y-23248083D02*
X10321177Y-23257607D01*
X10321177Y-23257607D02*
X10340225Y-23267131D01*
X10340225Y-23267131D02*
X10378320Y-23267131D01*
X10378320Y-23267131D02*
X10397367Y-23257607D01*
X10397367Y-23257607D02*
X10406891Y-23248083D01*
X10406891Y-23248083D02*
X10416415Y-23229036D01*
X10416415Y-23229036D02*
X10416415Y-23181417D01*
X10416415Y-23181417D02*
X10406891Y-23162369D01*
X10406891Y-23162369D02*
X10397367Y-23152845D01*
X10397367Y-23152845D02*
X10378320Y-23143322D01*
X10378320Y-23143322D02*
X10340225Y-23143322D01*
X10340225Y-23143322D02*
X10321177Y-23152845D01*
X10321177Y-23152845D02*
X10311653Y-23162369D01*
X10311653Y-23162369D02*
X10302129Y-23181417D01*
X10654510Y-23267131D02*
X10654510Y-23067131D01*
X10740225Y-23267131D02*
X10740225Y-23162369D01*
X10740225Y-23162369D02*
X10730701Y-23143322D01*
X10730701Y-23143322D02*
X10711653Y-23133798D01*
X10711653Y-23133798D02*
X10683082Y-23133798D01*
X10683082Y-23133798D02*
X10664034Y-23143322D01*
X10664034Y-23143322D02*
X10654510Y-23152845D01*
X10864034Y-23267131D02*
X10844987Y-23257607D01*
X10844987Y-23257607D02*
X10835463Y-23248083D01*
X10835463Y-23248083D02*
X10825939Y-23229036D01*
X10825939Y-23229036D02*
X10825939Y-23171893D01*
X10825939Y-23171893D02*
X10835463Y-23152845D01*
X10835463Y-23152845D02*
X10844987Y-23143322D01*
X10844987Y-23143322D02*
X10864034Y-23133798D01*
X10864034Y-23133798D02*
X10892606Y-23133798D01*
X10892606Y-23133798D02*
X10911653Y-23143322D01*
X10911653Y-23143322D02*
X10921177Y-23152845D01*
X10921177Y-23152845D02*
X10930701Y-23171893D01*
X10930701Y-23171893D02*
X10930701Y-23229036D01*
X10930701Y-23229036D02*
X10921177Y-23248083D01*
X10921177Y-23248083D02*
X10911653Y-23257607D01*
X10911653Y-23257607D02*
X10892606Y-23267131D01*
X10892606Y-23267131D02*
X10864034Y-23267131D01*
X11044987Y-23267131D02*
X11025939Y-23257607D01*
X11025939Y-23257607D02*
X11016415Y-23238560D01*
X11016415Y-23238560D02*
X11016415Y-23067131D01*
X11197367Y-23257607D02*
X11178320Y-23267131D01*
X11178320Y-23267131D02*
X11140225Y-23267131D01*
X11140225Y-23267131D02*
X11121177Y-23257607D01*
X11121177Y-23257607D02*
X11111653Y-23238560D01*
X11111653Y-23238560D02*
X11111653Y-23162369D01*
X11111653Y-23162369D02*
X11121177Y-23143322D01*
X11121177Y-23143322D02*
X11140225Y-23133798D01*
X11140225Y-23133798D02*
X11178320Y-23133798D01*
X11178320Y-23133798D02*
X11197367Y-23143322D01*
X11197367Y-23143322D02*
X11206891Y-23162369D01*
X11206891Y-23162369D02*
X11206891Y-23181417D01*
X11206891Y-23181417D02*
X11111653Y-23200464D01*
X11283082Y-23257607D02*
X11302129Y-23267131D01*
X11302129Y-23267131D02*
X11340225Y-23267131D01*
X11340225Y-23267131D02*
X11359272Y-23257607D01*
X11359272Y-23257607D02*
X11368796Y-23238560D01*
X11368796Y-23238560D02*
X11368796Y-23229036D01*
X11368796Y-23229036D02*
X11359272Y-23209988D01*
X11359272Y-23209988D02*
X11340225Y-23200464D01*
X11340225Y-23200464D02*
X11311653Y-23200464D01*
X11311653Y-23200464D02*
X11292606Y-23190941D01*
X11292606Y-23190941D02*
X11283082Y-23171893D01*
X11283082Y-23171893D02*
X11283082Y-23162369D01*
X11283082Y-23162369D02*
X11292606Y-23143322D01*
X11292606Y-23143322D02*
X11311653Y-23133798D01*
X11311653Y-23133798D02*
X11340225Y-23133798D01*
X11340225Y-23133798D02*
X11359272Y-23143322D01*
X11435463Y-23343322D02*
X11444987Y-23333798D01*
X11444987Y-23333798D02*
X11464034Y-23305226D01*
X11464034Y-23305226D02*
X11473558Y-23286179D01*
X11473558Y-23286179D02*
X11483082Y-23257607D01*
X11483082Y-23257607D02*
X11492606Y-23209988D01*
X11492606Y-23209988D02*
X11492606Y-23171893D01*
X11492606Y-23171893D02*
X11483082Y-23124274D01*
X11483082Y-23124274D02*
X11473558Y-23095703D01*
X11473558Y-23095703D02*
X11464034Y-23076655D01*
X11464034Y-23076655D02*
X11444987Y-23048083D01*
X11444987Y-23048083D02*
X11435463Y-23038560D01*
X11797368Y-23343322D02*
X11787844Y-23333798D01*
X11787844Y-23333798D02*
X11768796Y-23305226D01*
X11768796Y-23305226D02*
X11759272Y-23286179D01*
X11759272Y-23286179D02*
X11749748Y-23257607D01*
X11749748Y-23257607D02*
X11740225Y-23209988D01*
X11740225Y-23209988D02*
X11740225Y-23171893D01*
X11740225Y-23171893D02*
X11749748Y-23124274D01*
X11749748Y-23124274D02*
X11759272Y-23095703D01*
X11759272Y-23095703D02*
X11768796Y-23076655D01*
X11768796Y-23076655D02*
X11787844Y-23048083D01*
X11787844Y-23048083D02*
X11797368Y-23038560D01*
X11873558Y-23133798D02*
X11873558Y-23267131D01*
X11873558Y-23152845D02*
X11883082Y-23143322D01*
X11883082Y-23143322D02*
X11902129Y-23133798D01*
X11902129Y-23133798D02*
X11930701Y-23133798D01*
X11930701Y-23133798D02*
X11949748Y-23143322D01*
X11949748Y-23143322D02*
X11959272Y-23162369D01*
X11959272Y-23162369D02*
X11959272Y-23267131D01*
X12083082Y-23267131D02*
X12064034Y-23257607D01*
X12064034Y-23257607D02*
X12054510Y-23248083D01*
X12054510Y-23248083D02*
X12044987Y-23229036D01*
X12044987Y-23229036D02*
X12044987Y-23171893D01*
X12044987Y-23171893D02*
X12054510Y-23152845D01*
X12054510Y-23152845D02*
X12064034Y-23143322D01*
X12064034Y-23143322D02*
X12083082Y-23133798D01*
X12083082Y-23133798D02*
X12111653Y-23133798D01*
X12111653Y-23133798D02*
X12130701Y-23143322D01*
X12130701Y-23143322D02*
X12140225Y-23152845D01*
X12140225Y-23152845D02*
X12149748Y-23171893D01*
X12149748Y-23171893D02*
X12149748Y-23229036D01*
X12149748Y-23229036D02*
X12140225Y-23248083D01*
X12140225Y-23248083D02*
X12130701Y-23257607D01*
X12130701Y-23257607D02*
X12111653Y-23267131D01*
X12111653Y-23267131D02*
X12083082Y-23267131D01*
X12206891Y-23133798D02*
X12283082Y-23133798D01*
X12235463Y-23067131D02*
X12235463Y-23238560D01*
X12235463Y-23238560D02*
X12244987Y-23257607D01*
X12244987Y-23257607D02*
X12264034Y-23267131D01*
X12264034Y-23267131D02*
X12283082Y-23267131D01*
X12502129Y-23133798D02*
X12502129Y-23333798D01*
X12502129Y-23143322D02*
X12521177Y-23133798D01*
X12521177Y-23133798D02*
X12559272Y-23133798D01*
X12559272Y-23133798D02*
X12578320Y-23143322D01*
X12578320Y-23143322D02*
X12587844Y-23152845D01*
X12587844Y-23152845D02*
X12597368Y-23171893D01*
X12597368Y-23171893D02*
X12597368Y-23229036D01*
X12597368Y-23229036D02*
X12587844Y-23248083D01*
X12587844Y-23248083D02*
X12578320Y-23257607D01*
X12578320Y-23257607D02*
X12559272Y-23267131D01*
X12559272Y-23267131D02*
X12521177Y-23267131D01*
X12521177Y-23267131D02*
X12502129Y-23257607D01*
X12711653Y-23267131D02*
X12692606Y-23257607D01*
X12692606Y-23257607D02*
X12683082Y-23238560D01*
X12683082Y-23238560D02*
X12683082Y-23067131D01*
X12873558Y-23267131D02*
X12873558Y-23162369D01*
X12873558Y-23162369D02*
X12864034Y-23143322D01*
X12864034Y-23143322D02*
X12844987Y-23133798D01*
X12844987Y-23133798D02*
X12806891Y-23133798D01*
X12806891Y-23133798D02*
X12787844Y-23143322D01*
X12873558Y-23257607D02*
X12854510Y-23267131D01*
X12854510Y-23267131D02*
X12806891Y-23267131D01*
X12806891Y-23267131D02*
X12787844Y-23257607D01*
X12787844Y-23257607D02*
X12778320Y-23238560D01*
X12778320Y-23238560D02*
X12778320Y-23219512D01*
X12778320Y-23219512D02*
X12787844Y-23200464D01*
X12787844Y-23200464D02*
X12806891Y-23190941D01*
X12806891Y-23190941D02*
X12854510Y-23190941D01*
X12854510Y-23190941D02*
X12873558Y-23181417D01*
X12940225Y-23133798D02*
X13016415Y-23133798D01*
X12968796Y-23067131D02*
X12968796Y-23238560D01*
X12968796Y-23238560D02*
X12978320Y-23257607D01*
X12978320Y-23257607D02*
X12997368Y-23267131D01*
X12997368Y-23267131D02*
X13016415Y-23267131D01*
X13159272Y-23257607D02*
X13140225Y-23267131D01*
X13140225Y-23267131D02*
X13102129Y-23267131D01*
X13102129Y-23267131D02*
X13083082Y-23257607D01*
X13083082Y-23257607D02*
X13073558Y-23238560D01*
X13073558Y-23238560D02*
X13073558Y-23162369D01*
X13073558Y-23162369D02*
X13083082Y-23143322D01*
X13083082Y-23143322D02*
X13102129Y-23133798D01*
X13102129Y-23133798D02*
X13140225Y-23133798D01*
X13140225Y-23133798D02*
X13159272Y-23143322D01*
X13159272Y-23143322D02*
X13168796Y-23162369D01*
X13168796Y-23162369D02*
X13168796Y-23181417D01*
X13168796Y-23181417D02*
X13073558Y-23200464D01*
X13340225Y-23267131D02*
X13340225Y-23067131D01*
X13340225Y-23257607D02*
X13321177Y-23267131D01*
X13321177Y-23267131D02*
X13283082Y-23267131D01*
X13283082Y-23267131D02*
X13264034Y-23257607D01*
X13264034Y-23257607D02*
X13254510Y-23248083D01*
X13254510Y-23248083D02*
X13244987Y-23229036D01*
X13244987Y-23229036D02*
X13244987Y-23171893D01*
X13244987Y-23171893D02*
X13254510Y-23152845D01*
X13254510Y-23152845D02*
X13264034Y-23143322D01*
X13264034Y-23143322D02*
X13283082Y-23133798D01*
X13283082Y-23133798D02*
X13321177Y-23133798D01*
X13321177Y-23133798D02*
X13340225Y-23143322D01*
X13416415Y-23343322D02*
X13425939Y-23333798D01*
X13425939Y-23333798D02*
X13444987Y-23305226D01*
X13444987Y-23305226D02*
X13454510Y-23286179D01*
X13454510Y-23286179D02*
X13464034Y-23257607D01*
X13464034Y-23257607D02*
X13473558Y-23209988D01*
X13473558Y-23209988D02*
X13473558Y-23171893D01*
X13473558Y-23171893D02*
X13464034Y-23124274D01*
X13464034Y-23124274D02*
X13454510Y-23095703D01*
X13454510Y-23095703D02*
X13444987Y-23076655D01*
X13444987Y-23076655D02*
X13425939Y-23048083D01*
X13425939Y-23048083D02*
X13416415Y-23038560D01*
X6179447Y-23395647D02*
X6179447Y-23595647D01*
X6079447Y-23495647D02*
X6279447Y-23495647D01*
X6521177Y-23387131D02*
X6644986Y-23387131D01*
X6644986Y-23387131D02*
X6578319Y-23463322D01*
X6578319Y-23463322D02*
X6606891Y-23463322D01*
X6606891Y-23463322D02*
X6625938Y-23472845D01*
X6625938Y-23472845D02*
X6635462Y-23482369D01*
X6635462Y-23482369D02*
X6644986Y-23501417D01*
X6644986Y-23501417D02*
X6644986Y-23549036D01*
X6644986Y-23549036D02*
X6635462Y-23568083D01*
X6635462Y-23568083D02*
X6625938Y-23577607D01*
X6625938Y-23577607D02*
X6606891Y-23587131D01*
X6606891Y-23587131D02*
X6549748Y-23587131D01*
X6549748Y-23587131D02*
X6530700Y-23577607D01*
X6530700Y-23577607D02*
X6521177Y-23568083D01*
X6730700Y-23568083D02*
X6740224Y-23577607D01*
X6740224Y-23577607D02*
X6730700Y-23587131D01*
X6730700Y-23587131D02*
X6721177Y-23577607D01*
X6721177Y-23577607D02*
X6730700Y-23568083D01*
X6730700Y-23568083D02*
X6730700Y-23587131D01*
X6911653Y-23453798D02*
X6911653Y-23587131D01*
X6864034Y-23377607D02*
X6816415Y-23520464D01*
X6816415Y-23520464D02*
X6940224Y-23520464D01*
X7054510Y-23387131D02*
X7073558Y-23387131D01*
X7073558Y-23387131D02*
X7092605Y-23396655D01*
X7092605Y-23396655D02*
X7102129Y-23406179D01*
X7102129Y-23406179D02*
X7111653Y-23425226D01*
X7111653Y-23425226D02*
X7121177Y-23463322D01*
X7121177Y-23463322D02*
X7121177Y-23510941D01*
X7121177Y-23510941D02*
X7111653Y-23549036D01*
X7111653Y-23549036D02*
X7102129Y-23568083D01*
X7102129Y-23568083D02*
X7092605Y-23577607D01*
X7092605Y-23577607D02*
X7073558Y-23587131D01*
X7073558Y-23587131D02*
X7054510Y-23587131D01*
X7054510Y-23587131D02*
X7035462Y-23577607D01*
X7035462Y-23577607D02*
X7025938Y-23568083D01*
X7025938Y-23568083D02*
X7016415Y-23549036D01*
X7016415Y-23549036D02*
X7006891Y-23510941D01*
X7006891Y-23510941D02*
X7006891Y-23463322D01*
X7006891Y-23463322D02*
X7016415Y-23425226D01*
X7016415Y-23425226D02*
X7025938Y-23406179D01*
X7025938Y-23406179D02*
X7035462Y-23396655D01*
X7035462Y-23396655D02*
X7054510Y-23387131D01*
X7244986Y-23387131D02*
X7264034Y-23387131D01*
X7264034Y-23387131D02*
X7283081Y-23396655D01*
X7283081Y-23396655D02*
X7292605Y-23406179D01*
X7292605Y-23406179D02*
X7302129Y-23425226D01*
X7302129Y-23425226D02*
X7311653Y-23463322D01*
X7311653Y-23463322D02*
X7311653Y-23510941D01*
X7311653Y-23510941D02*
X7302129Y-23549036D01*
X7302129Y-23549036D02*
X7292605Y-23568083D01*
X7292605Y-23568083D02*
X7283081Y-23577607D01*
X7283081Y-23577607D02*
X7264034Y-23587131D01*
X7264034Y-23587131D02*
X7244986Y-23587131D01*
X7244986Y-23587131D02*
X7225938Y-23577607D01*
X7225938Y-23577607D02*
X7216415Y-23568083D01*
X7216415Y-23568083D02*
X7206891Y-23549036D01*
X7206891Y-23549036D02*
X7197367Y-23510941D01*
X7197367Y-23510941D02*
X7197367Y-23463322D01*
X7197367Y-23463322D02*
X7206891Y-23425226D01*
X7206891Y-23425226D02*
X7216415Y-23406179D01*
X7216415Y-23406179D02*
X7225938Y-23396655D01*
X7225938Y-23396655D02*
X7244986Y-23387131D01*
X7397367Y-23587131D02*
X7397367Y-23453798D01*
X7397367Y-23472845D02*
X7406891Y-23463322D01*
X7406891Y-23463322D02*
X7425938Y-23453798D01*
X7425938Y-23453798D02*
X7454510Y-23453798D01*
X7454510Y-23453798D02*
X7473558Y-23463322D01*
X7473558Y-23463322D02*
X7483081Y-23482369D01*
X7483081Y-23482369D02*
X7483081Y-23587131D01*
X7483081Y-23482369D02*
X7492605Y-23463322D01*
X7492605Y-23463322D02*
X7511653Y-23453798D01*
X7511653Y-23453798D02*
X7540224Y-23453798D01*
X7540224Y-23453798D02*
X7559272Y-23463322D01*
X7559272Y-23463322D02*
X7568796Y-23482369D01*
X7568796Y-23482369D02*
X7568796Y-23587131D01*
X7664034Y-23587131D02*
X7664034Y-23453798D01*
X7664034Y-23472845D02*
X7673558Y-23463322D01*
X7673558Y-23463322D02*
X7692605Y-23453798D01*
X7692605Y-23453798D02*
X7721177Y-23453798D01*
X7721177Y-23453798D02*
X7740224Y-23463322D01*
X7740224Y-23463322D02*
X7749748Y-23482369D01*
X7749748Y-23482369D02*
X7749748Y-23587131D01*
X7749748Y-23482369D02*
X7759272Y-23463322D01*
X7759272Y-23463322D02*
X7778319Y-23453798D01*
X7778319Y-23453798D02*
X7806891Y-23453798D01*
X7806891Y-23453798D02*
X7825939Y-23463322D01*
X7825939Y-23463322D02*
X7835462Y-23482369D01*
X7835462Y-23482369D02*
X7835462Y-23587131D01*
X8225939Y-23377607D02*
X8054510Y-23634750D01*
X8483082Y-23387131D02*
X8502129Y-23387131D01*
X8502129Y-23387131D02*
X8521177Y-23396655D01*
X8521177Y-23396655D02*
X8530701Y-23406179D01*
X8530701Y-23406179D02*
X8540224Y-23425226D01*
X8540224Y-23425226D02*
X8549748Y-23463322D01*
X8549748Y-23463322D02*
X8549748Y-23510941D01*
X8549748Y-23510941D02*
X8540224Y-23549036D01*
X8540224Y-23549036D02*
X8530701Y-23568083D01*
X8530701Y-23568083D02*
X8521177Y-23577607D01*
X8521177Y-23577607D02*
X8502129Y-23587131D01*
X8502129Y-23587131D02*
X8483082Y-23587131D01*
X8483082Y-23587131D02*
X8464034Y-23577607D01*
X8464034Y-23577607D02*
X8454510Y-23568083D01*
X8454510Y-23568083D02*
X8444986Y-23549036D01*
X8444986Y-23549036D02*
X8435463Y-23510941D01*
X8435463Y-23510941D02*
X8435463Y-23463322D01*
X8435463Y-23463322D02*
X8444986Y-23425226D01*
X8444986Y-23425226D02*
X8454510Y-23406179D01*
X8454510Y-23406179D02*
X8464034Y-23396655D01*
X8464034Y-23396655D02*
X8483082Y-23387131D01*
X8635463Y-23568083D02*
X8644986Y-23577607D01*
X8644986Y-23577607D02*
X8635463Y-23587131D01*
X8635463Y-23587131D02*
X8625939Y-23577607D01*
X8625939Y-23577607D02*
X8635463Y-23568083D01*
X8635463Y-23568083D02*
X8635463Y-23587131D01*
X8835463Y-23587131D02*
X8721177Y-23587131D01*
X8778320Y-23587131D02*
X8778320Y-23387131D01*
X8778320Y-23387131D02*
X8759272Y-23415703D01*
X8759272Y-23415703D02*
X8740224Y-23434750D01*
X8740224Y-23434750D02*
X8721177Y-23444274D01*
X8902129Y-23387131D02*
X9025939Y-23387131D01*
X9025939Y-23387131D02*
X8959272Y-23463322D01*
X8959272Y-23463322D02*
X8987844Y-23463322D01*
X8987844Y-23463322D02*
X9006891Y-23472845D01*
X9006891Y-23472845D02*
X9016415Y-23482369D01*
X9016415Y-23482369D02*
X9025939Y-23501417D01*
X9025939Y-23501417D02*
X9025939Y-23549036D01*
X9025939Y-23549036D02*
X9016415Y-23568083D01*
X9016415Y-23568083D02*
X9006891Y-23577607D01*
X9006891Y-23577607D02*
X8987844Y-23587131D01*
X8987844Y-23587131D02*
X8930701Y-23587131D01*
X8930701Y-23587131D02*
X8911653Y-23577607D01*
X8911653Y-23577607D02*
X8902129Y-23568083D01*
X9092605Y-23387131D02*
X9216415Y-23387131D01*
X9216415Y-23387131D02*
X9149748Y-23463322D01*
X9149748Y-23463322D02*
X9178320Y-23463322D01*
X9178320Y-23463322D02*
X9197367Y-23472845D01*
X9197367Y-23472845D02*
X9206891Y-23482369D01*
X9206891Y-23482369D02*
X9216415Y-23501417D01*
X9216415Y-23501417D02*
X9216415Y-23549036D01*
X9216415Y-23549036D02*
X9206891Y-23568083D01*
X9206891Y-23568083D02*
X9197367Y-23577607D01*
X9197367Y-23577607D02*
X9178320Y-23587131D01*
X9178320Y-23587131D02*
X9121177Y-23587131D01*
X9121177Y-23587131D02*
X9102129Y-23577607D01*
X9102129Y-23577607D02*
X9092605Y-23568083D01*
X9311653Y-23587131D02*
X9349748Y-23587131D01*
X9349748Y-23587131D02*
X9368796Y-23577607D01*
X9368796Y-23577607D02*
X9378320Y-23568083D01*
X9378320Y-23568083D02*
X9397367Y-23539512D01*
X9397367Y-23539512D02*
X9406891Y-23501417D01*
X9406891Y-23501417D02*
X9406891Y-23425226D01*
X9406891Y-23425226D02*
X9397367Y-23406179D01*
X9397367Y-23406179D02*
X9387844Y-23396655D01*
X9387844Y-23396655D02*
X9368796Y-23387131D01*
X9368796Y-23387131D02*
X9330701Y-23387131D01*
X9330701Y-23387131D02*
X9311653Y-23396655D01*
X9311653Y-23396655D02*
X9302129Y-23406179D01*
X9302129Y-23406179D02*
X9292605Y-23425226D01*
X9292605Y-23425226D02*
X9292605Y-23472845D01*
X9292605Y-23472845D02*
X9302129Y-23491893D01*
X9302129Y-23491893D02*
X9311653Y-23501417D01*
X9311653Y-23501417D02*
X9330701Y-23510941D01*
X9330701Y-23510941D02*
X9368796Y-23510941D01*
X9368796Y-23510941D02*
X9387844Y-23501417D01*
X9387844Y-23501417D02*
X9397367Y-23491893D01*
X9397367Y-23491893D02*
X9406891Y-23472845D01*
X9483082Y-23387131D02*
X9483082Y-23425226D01*
X9559272Y-23387131D02*
X9559272Y-23425226D01*
X9854510Y-23663322D02*
X9844986Y-23653798D01*
X9844986Y-23653798D02*
X9825939Y-23625226D01*
X9825939Y-23625226D02*
X9816415Y-23606179D01*
X9816415Y-23606179D02*
X9806891Y-23577607D01*
X9806891Y-23577607D02*
X9797367Y-23529988D01*
X9797367Y-23529988D02*
X9797367Y-23491893D01*
X9797367Y-23491893D02*
X9806891Y-23444274D01*
X9806891Y-23444274D02*
X9816415Y-23415703D01*
X9816415Y-23415703D02*
X9825939Y-23396655D01*
X9825939Y-23396655D02*
X9844986Y-23368083D01*
X9844986Y-23368083D02*
X9854510Y-23358560D01*
X10025939Y-23387131D02*
X9930701Y-23387131D01*
X9930701Y-23387131D02*
X9921177Y-23482369D01*
X9921177Y-23482369D02*
X9930701Y-23472845D01*
X9930701Y-23472845D02*
X9949748Y-23463322D01*
X9949748Y-23463322D02*
X9997367Y-23463322D01*
X9997367Y-23463322D02*
X10016415Y-23472845D01*
X10016415Y-23472845D02*
X10025939Y-23482369D01*
X10025939Y-23482369D02*
X10035463Y-23501417D01*
X10035463Y-23501417D02*
X10035463Y-23549036D01*
X10035463Y-23549036D02*
X10025939Y-23568083D01*
X10025939Y-23568083D02*
X10016415Y-23577607D01*
X10016415Y-23577607D02*
X9997367Y-23587131D01*
X9997367Y-23587131D02*
X9949748Y-23587131D01*
X9949748Y-23587131D02*
X9930701Y-23577607D01*
X9930701Y-23577607D02*
X9921177Y-23568083D01*
X10149748Y-23472845D02*
X10130701Y-23463322D01*
X10130701Y-23463322D02*
X10121177Y-23453798D01*
X10121177Y-23453798D02*
X10111653Y-23434750D01*
X10111653Y-23434750D02*
X10111653Y-23425226D01*
X10111653Y-23425226D02*
X10121177Y-23406179D01*
X10121177Y-23406179D02*
X10130701Y-23396655D01*
X10130701Y-23396655D02*
X10149748Y-23387131D01*
X10149748Y-23387131D02*
X10187844Y-23387131D01*
X10187844Y-23387131D02*
X10206891Y-23396655D01*
X10206891Y-23396655D02*
X10216415Y-23406179D01*
X10216415Y-23406179D02*
X10225939Y-23425226D01*
X10225939Y-23425226D02*
X10225939Y-23434750D01*
X10225939Y-23434750D02*
X10216415Y-23453798D01*
X10216415Y-23453798D02*
X10206891Y-23463322D01*
X10206891Y-23463322D02*
X10187844Y-23472845D01*
X10187844Y-23472845D02*
X10149748Y-23472845D01*
X10149748Y-23472845D02*
X10130701Y-23482369D01*
X10130701Y-23482369D02*
X10121177Y-23491893D01*
X10121177Y-23491893D02*
X10111653Y-23510941D01*
X10111653Y-23510941D02*
X10111653Y-23549036D01*
X10111653Y-23549036D02*
X10121177Y-23568083D01*
X10121177Y-23568083D02*
X10130701Y-23577607D01*
X10130701Y-23577607D02*
X10149748Y-23587131D01*
X10149748Y-23587131D02*
X10187844Y-23587131D01*
X10187844Y-23587131D02*
X10206891Y-23577607D01*
X10206891Y-23577607D02*
X10216415Y-23568083D01*
X10216415Y-23568083D02*
X10225939Y-23549036D01*
X10225939Y-23549036D02*
X10225939Y-23510941D01*
X10225939Y-23510941D02*
X10216415Y-23491893D01*
X10216415Y-23491893D02*
X10206891Y-23482369D01*
X10206891Y-23482369D02*
X10187844Y-23472845D01*
X10464034Y-23587131D02*
X10464034Y-23387131D01*
X10549748Y-23587131D02*
X10549748Y-23482369D01*
X10549748Y-23482369D02*
X10540225Y-23463322D01*
X10540225Y-23463322D02*
X10521177Y-23453798D01*
X10521177Y-23453798D02*
X10492606Y-23453798D01*
X10492606Y-23453798D02*
X10473558Y-23463322D01*
X10473558Y-23463322D02*
X10464034Y-23472845D01*
X10673558Y-23587131D02*
X10654510Y-23577607D01*
X10654510Y-23577607D02*
X10644987Y-23568083D01*
X10644987Y-23568083D02*
X10635463Y-23549036D01*
X10635463Y-23549036D02*
X10635463Y-23491893D01*
X10635463Y-23491893D02*
X10644987Y-23472845D01*
X10644987Y-23472845D02*
X10654510Y-23463322D01*
X10654510Y-23463322D02*
X10673558Y-23453798D01*
X10673558Y-23453798D02*
X10702129Y-23453798D01*
X10702129Y-23453798D02*
X10721177Y-23463322D01*
X10721177Y-23463322D02*
X10730701Y-23472845D01*
X10730701Y-23472845D02*
X10740225Y-23491893D01*
X10740225Y-23491893D02*
X10740225Y-23549036D01*
X10740225Y-23549036D02*
X10730701Y-23568083D01*
X10730701Y-23568083D02*
X10721177Y-23577607D01*
X10721177Y-23577607D02*
X10702129Y-23587131D01*
X10702129Y-23587131D02*
X10673558Y-23587131D01*
X10854510Y-23587131D02*
X10835463Y-23577607D01*
X10835463Y-23577607D02*
X10825939Y-23558560D01*
X10825939Y-23558560D02*
X10825939Y-23387131D01*
X11006891Y-23577607D02*
X10987844Y-23587131D01*
X10987844Y-23587131D02*
X10949748Y-23587131D01*
X10949748Y-23587131D02*
X10930701Y-23577607D01*
X10930701Y-23577607D02*
X10921177Y-23558560D01*
X10921177Y-23558560D02*
X10921177Y-23482369D01*
X10921177Y-23482369D02*
X10930701Y-23463322D01*
X10930701Y-23463322D02*
X10949748Y-23453798D01*
X10949748Y-23453798D02*
X10987844Y-23453798D01*
X10987844Y-23453798D02*
X11006891Y-23463322D01*
X11006891Y-23463322D02*
X11016415Y-23482369D01*
X11016415Y-23482369D02*
X11016415Y-23501417D01*
X11016415Y-23501417D02*
X10921177Y-23520464D01*
X11092606Y-23577607D02*
X11111653Y-23587131D01*
X11111653Y-23587131D02*
X11149748Y-23587131D01*
X11149748Y-23587131D02*
X11168796Y-23577607D01*
X11168796Y-23577607D02*
X11178320Y-23558560D01*
X11178320Y-23558560D02*
X11178320Y-23549036D01*
X11178320Y-23549036D02*
X11168796Y-23529988D01*
X11168796Y-23529988D02*
X11149748Y-23520464D01*
X11149748Y-23520464D02*
X11121177Y-23520464D01*
X11121177Y-23520464D02*
X11102129Y-23510941D01*
X11102129Y-23510941D02*
X11092606Y-23491893D01*
X11092606Y-23491893D02*
X11092606Y-23482369D01*
X11092606Y-23482369D02*
X11102129Y-23463322D01*
X11102129Y-23463322D02*
X11121177Y-23453798D01*
X11121177Y-23453798D02*
X11149748Y-23453798D01*
X11149748Y-23453798D02*
X11168796Y-23463322D01*
X11244987Y-23663322D02*
X11254510Y-23653798D01*
X11254510Y-23653798D02*
X11273558Y-23625226D01*
X11273558Y-23625226D02*
X11283082Y-23606179D01*
X11283082Y-23606179D02*
X11292606Y-23577607D01*
X11292606Y-23577607D02*
X11302129Y-23529988D01*
X11302129Y-23529988D02*
X11302129Y-23491893D01*
X11302129Y-23491893D02*
X11292606Y-23444274D01*
X11292606Y-23444274D02*
X11283082Y-23415703D01*
X11283082Y-23415703D02*
X11273558Y-23396655D01*
X11273558Y-23396655D02*
X11254510Y-23368083D01*
X11254510Y-23368083D02*
X11244987Y-23358560D01*
X11606891Y-23663322D02*
X11597367Y-23653798D01*
X11597367Y-23653798D02*
X11578320Y-23625226D01*
X11578320Y-23625226D02*
X11568796Y-23606179D01*
X11568796Y-23606179D02*
X11559272Y-23577607D01*
X11559272Y-23577607D02*
X11549748Y-23529988D01*
X11549748Y-23529988D02*
X11549748Y-23491893D01*
X11549748Y-23491893D02*
X11559272Y-23444274D01*
X11559272Y-23444274D02*
X11568796Y-23415703D01*
X11568796Y-23415703D02*
X11578320Y-23396655D01*
X11578320Y-23396655D02*
X11597367Y-23368083D01*
X11597367Y-23368083D02*
X11606891Y-23358560D01*
X11683082Y-23453798D02*
X11683082Y-23587131D01*
X11683082Y-23472845D02*
X11692606Y-23463322D01*
X11692606Y-23463322D02*
X11711653Y-23453798D01*
X11711653Y-23453798D02*
X11740225Y-23453798D01*
X11740225Y-23453798D02*
X11759272Y-23463322D01*
X11759272Y-23463322D02*
X11768796Y-23482369D01*
X11768796Y-23482369D02*
X11768796Y-23587131D01*
X11892606Y-23587131D02*
X11873558Y-23577607D01*
X11873558Y-23577607D02*
X11864034Y-23568083D01*
X11864034Y-23568083D02*
X11854510Y-23549036D01*
X11854510Y-23549036D02*
X11854510Y-23491893D01*
X11854510Y-23491893D02*
X11864034Y-23472845D01*
X11864034Y-23472845D02*
X11873558Y-23463322D01*
X11873558Y-23463322D02*
X11892606Y-23453798D01*
X11892606Y-23453798D02*
X11921177Y-23453798D01*
X11921177Y-23453798D02*
X11940225Y-23463322D01*
X11940225Y-23463322D02*
X11949748Y-23472845D01*
X11949748Y-23472845D02*
X11959272Y-23491893D01*
X11959272Y-23491893D02*
X11959272Y-23549036D01*
X11959272Y-23549036D02*
X11949748Y-23568083D01*
X11949748Y-23568083D02*
X11940225Y-23577607D01*
X11940225Y-23577607D02*
X11921177Y-23587131D01*
X11921177Y-23587131D02*
X11892606Y-23587131D01*
X12016415Y-23453798D02*
X12092606Y-23453798D01*
X12044987Y-23387131D02*
X12044987Y-23558560D01*
X12044987Y-23558560D02*
X12054510Y-23577607D01*
X12054510Y-23577607D02*
X12073558Y-23587131D01*
X12073558Y-23587131D02*
X12092606Y-23587131D01*
X12311653Y-23453798D02*
X12311653Y-23653798D01*
X12311653Y-23463322D02*
X12330701Y-23453798D01*
X12330701Y-23453798D02*
X12368796Y-23453798D01*
X12368796Y-23453798D02*
X12387844Y-23463322D01*
X12387844Y-23463322D02*
X12397368Y-23472845D01*
X12397368Y-23472845D02*
X12406891Y-23491893D01*
X12406891Y-23491893D02*
X12406891Y-23549036D01*
X12406891Y-23549036D02*
X12397368Y-23568083D01*
X12397368Y-23568083D02*
X12387844Y-23577607D01*
X12387844Y-23577607D02*
X12368796Y-23587131D01*
X12368796Y-23587131D02*
X12330701Y-23587131D01*
X12330701Y-23587131D02*
X12311653Y-23577607D01*
X12521177Y-23587131D02*
X12502129Y-23577607D01*
X12502129Y-23577607D02*
X12492606Y-23558560D01*
X12492606Y-23558560D02*
X12492606Y-23387131D01*
X12683082Y-23587131D02*
X12683082Y-23482369D01*
X12683082Y-23482369D02*
X12673558Y-23463322D01*
X12673558Y-23463322D02*
X12654510Y-23453798D01*
X12654510Y-23453798D02*
X12616415Y-23453798D01*
X12616415Y-23453798D02*
X12597368Y-23463322D01*
X12683082Y-23577607D02*
X12664034Y-23587131D01*
X12664034Y-23587131D02*
X12616415Y-23587131D01*
X12616415Y-23587131D02*
X12597368Y-23577607D01*
X12597368Y-23577607D02*
X12587844Y-23558560D01*
X12587844Y-23558560D02*
X12587844Y-23539512D01*
X12587844Y-23539512D02*
X12597368Y-23520464D01*
X12597368Y-23520464D02*
X12616415Y-23510941D01*
X12616415Y-23510941D02*
X12664034Y-23510941D01*
X12664034Y-23510941D02*
X12683082Y-23501417D01*
X12749749Y-23453798D02*
X12825939Y-23453798D01*
X12778320Y-23387131D02*
X12778320Y-23558560D01*
X12778320Y-23558560D02*
X12787844Y-23577607D01*
X12787844Y-23577607D02*
X12806891Y-23587131D01*
X12806891Y-23587131D02*
X12825939Y-23587131D01*
X12968796Y-23577607D02*
X12949749Y-23587131D01*
X12949749Y-23587131D02*
X12911653Y-23587131D01*
X12911653Y-23587131D02*
X12892606Y-23577607D01*
X12892606Y-23577607D02*
X12883082Y-23558560D01*
X12883082Y-23558560D02*
X12883082Y-23482369D01*
X12883082Y-23482369D02*
X12892606Y-23463322D01*
X12892606Y-23463322D02*
X12911653Y-23453798D01*
X12911653Y-23453798D02*
X12949749Y-23453798D01*
X12949749Y-23453798D02*
X12968796Y-23463322D01*
X12968796Y-23463322D02*
X12978320Y-23482369D01*
X12978320Y-23482369D02*
X12978320Y-23501417D01*
X12978320Y-23501417D02*
X12883082Y-23520464D01*
X13149749Y-23587131D02*
X13149749Y-23387131D01*
X13149749Y-23577607D02*
X13130701Y-23587131D01*
X13130701Y-23587131D02*
X13092606Y-23587131D01*
X13092606Y-23587131D02*
X13073558Y-23577607D01*
X13073558Y-23577607D02*
X13064034Y-23568083D01*
X13064034Y-23568083D02*
X13054510Y-23549036D01*
X13054510Y-23549036D02*
X13054510Y-23491893D01*
X13054510Y-23491893D02*
X13064034Y-23472845D01*
X13064034Y-23472845D02*
X13073558Y-23463322D01*
X13073558Y-23463322D02*
X13092606Y-23453798D01*
X13092606Y-23453798D02*
X13130701Y-23453798D01*
X13130701Y-23453798D02*
X13149749Y-23463322D01*
X13225939Y-23663322D02*
X13235463Y-23653798D01*
X13235463Y-23653798D02*
X13254510Y-23625226D01*
X13254510Y-23625226D02*
X13264034Y-23606179D01*
X13264034Y-23606179D02*
X13273558Y-23577607D01*
X13273558Y-23577607D02*
X13283082Y-23529988D01*
X13283082Y-23529988D02*
X13283082Y-23491893D01*
X13283082Y-23491893D02*
X13273558Y-23444274D01*
X13273558Y-23444274D02*
X13264034Y-23415703D01*
X13264034Y-23415703D02*
X13254510Y-23396655D01*
X13254510Y-23396655D02*
X13235463Y-23368083D01*
X13235463Y-23368083D02*
X13225939Y-23358560D01*
M02*
