M48
; DRILL file {KiCad 8.0.7} date 2024-12-23T04:43:09-0500
; FORMAT={-:-/ absolute / metric / decimal}
; #@! TF.CreationDate,2024-12-23T04:43:09-05:00
; #@! TF.GenerationSoftware,Kicad,Pcbnew,8.0.7
; #@! TF.FileFunction,Plated,1,2,PTH
FMAT,2
METRIC
; #@! TA.AperFunction,Plated,PTH,ComponentDrill
T1C0.300
; #@! TA.AperFunction,Plated,PTH,ComponentDrill
T2C0.400
; #@! TA.AperFunction,Plated,PTH,ComponentDrill
T3C1.000
; #@! TA.AperFunction,Plated,PTH,ComponentDrill
T4C2.200
%
G90
G05
T1
X83.679Y-147.612
X90.863Y-132.205
X98.048Y-116.798
X99.992Y-155.219
X105.232Y-101.39
X107.177Y-139.812
X112.925Y-170.077
X114.361Y-124.405
X120.109Y-154.669
X121.546Y-108.997
X127.294Y-139.262
X130.295Y-175.418
X134.478Y-123.855
X137.479Y-160.011
X139.901Y-127.487
X141.663Y-108.448
X144.664Y-144.604
X145.552Y-185.291
X151.848Y-129.196
X152.736Y-169.884
X155.158Y-137.36
X159.033Y-113.789
X159.332Y-200.175
X159.921Y-154.477
X167.105Y-139.069
X167.993Y-179.757
X170.415Y-147.233
X174.29Y-123.662
X175.178Y-164.349
X182.362Y-148.942
X182.627Y-203.292
X189.547Y-133.535
X250.078Y-126.541
X255.555Y-212.784
X257.262Y-141.948
X264.447Y-157.355
X265.335Y-116.668
X271.631Y-172.762
X272.519Y-132.075
X276.367Y-187.876
X279.704Y-147.482
X280.592Y-106.795
X286.888Y-162.889
X287.776Y-122.202
X294.073Y-178.297
X294.961Y-137.609
X296.158Y-124.914
X297.962Y-101.453
X302.145Y-153.017
X305.146Y-116.861
X309.33Y-168.424
X312.331Y-132.268
X316.275Y-125.464
X318.079Y-102.003
X319.515Y-147.675
X325.263Y-117.41
X326.7Y-163.082
X332.448Y-132.818
X332.588Y-117.857
X334.392Y-94.396
X339.632Y-148.225
X341.577Y-109.803
X348.762Y-125.21
X355.946Y-140.618
T2
X88.068Y-137.154
X88.123Y-135.892
X88.921Y-138.085
X89.054Y-135.039
X90.183Y-138.14
X90.316Y-135.094
X91.114Y-137.287
X91.169Y-136.025
X102.437Y-106.339
X102.492Y-105.078
X103.29Y-107.27
X103.423Y-104.225
X104.552Y-107.326
X104.685Y-104.28
X105.483Y-106.472
X105.538Y-105.211
X149.941Y-174.833
X149.996Y-173.571
X150.794Y-175.764
X150.927Y-172.718
X152.056Y-175.819
X152.189Y-172.773
X152.987Y-174.966
X153.042Y-173.704
X171.495Y-128.611
X171.55Y-127.35
X172.348Y-129.542
X172.481Y-126.496
X173.609Y-129.597
X173.742Y-126.551
X174.541Y-128.744
X174.596Y-127.483
X251.086Y-129.748
X251.141Y-131.01
X251.939Y-128.817
X252.072Y-131.863
X253.201Y-128.762
X253.334Y-131.808
X254.132Y-129.615
X254.187Y-130.877
X272.64Y-175.97
X272.695Y-177.232
X273.493Y-175.039
X273.626Y-178.085
X274.754Y-174.984
X274.887Y-178.03
X275.686Y-175.837
X275.741Y-177.099
X319.087Y-105.211
X319.142Y-106.472
X319.94Y-104.28
X320.073Y-107.326
X321.202Y-104.225
X321.335Y-107.27
X322.133Y-105.078
X322.188Y-106.339
X333.456Y-136.025
X333.511Y-137.287
X334.31Y-135.094
X334.442Y-138.14
X335.571Y-135.039
X335.704Y-138.085
X336.502Y-135.892
X336.557Y-137.154
T3
X204.693Y-149.512
X204.693Y-152.052
X204.693Y-167.292
X204.693Y-141.892
X204.693Y-144.432
X204.693Y-146.972
X204.693Y-154.592
X204.693Y-159.672
X204.693Y-162.212
X204.693Y-164.752
X204.693Y-172.372
X204.693Y-169.832
X204.693Y-157.132
X209.063Y-177.227
X215.563Y-177.227
X219.933Y-157.132
X219.933Y-144.432
X219.933Y-141.892
X219.933Y-149.512
X219.933Y-152.052
X219.933Y-154.592
X219.933Y-159.672
X219.933Y-167.292
X219.933Y-169.832
X219.933Y-172.372
X219.933Y-146.972
X219.933Y-162.212
X219.933Y-164.752
T4
X89.618Y-136.59
X103.987Y-105.775
X151.492Y-174.269
X173.045Y-128.047
X252.637Y-130.313
X274.19Y-176.534
X320.638Y-105.775
X335.007Y-136.59
M30
