0
SECTION
2
HEADER
9
$INSUNITS
70
4
0
ENDSEC
0
SECTION
2
TABLES
0
TABLE
2
LTYPE
0
LTYPE
72
65
70
64
2
CONTINUOUS
3
______
73
0
40
0
0
ENDTAB
0
TABLE
2
LAYER
0
ENDTAB
0
ENDSEC
0
SECTION
2
ENTITIES
0
LINE
8
0
10
64.3300105
20
77.7913853
11
28.4698025
21
85.2236817
0
LINE
8
0
10
25.1420457
20
83.5539659
11
-7.6171335
21
13.3016794
0
LINE
8
0
10
-6.8176085
20
9.7281989
11
21.3907646
21
-13.7548438
0
LINE
8
0
10
22.040806
20
-14.1674405
11
74.6072633
21
-38.7149541
0
LINE
8
0
10
75.5673407
20
-39.4257847
11
89.8140347
21
-55.2483413
0
LINE
8
0
10
90.0021574
20
-55.4793837
11
99.5387277
21
-68.4583646
0
LINE
8
0
10
103.6770141
20
-69.1394713
11
124.2965346
21
-54.7015276
0
LINE
8
0
10
126.0172639
20
-54.1589837
11
173.6854301
21
-54.1589837
0
LINE
8
0
10
175.4061594
20
-54.7015276
11
196.0256799
21
-69.1394713
0
LINE
8
0
10
200.1639663
20
-68.4583646
11
209.7005366
21
-55.4793837
0
LINE
8
0
10
209.8886593
20
-55.2483413
11
224.1353533
21
-39.4257847
0
LINE
8
0
10
225.0954307
20
-38.7149541
11
277.661888
21
-14.1674405
0
LINE
8
0
10
278.3119294
20
-13.7548438
11
306.5203025
21
9.7281989
0
LINE
8
0
10
307.3198275
20
13.3016794
11
274.5606483
21
83.5539659
0
LINE
8
0
10
271.2328915
20
85.2236817
11
235.3726835
21
77.7913853
0
LINE
8
0
10
235.0782215
20
77.7145937
11
217.088708
21
72.0343766
0
LINE
8
0
10
216.7241487
20
71.8925209
11
194.3764288
21
61.4716079
0
LINE
8
0
10
194.0334268
20
61.2835224
11
164.0019554
21
42.1687462
0
LINE
8
0
10
162.8938889
20
38.3700535
11
167.8422927
21
27.7581674
0
LINE
8
0
10
165.1233693
20
23.4903125
11
134.5793247
21
23.4903125
0
LINE
8
0
10
131.8604013
20
27.7581674
11
136.8088051
21
38.3700535
0
LINE
8
0
10
135.7007386
20
42.1687462
11
105.6692672
21
61.2835224
0
LINE
8
0
10
105.3262652
20
61.4716079
11
82.9785453
21
71.8925209
0
LINE
8
0
10
82.613986
20
72.0343766
11
64.6244725
21
77.7145937
0
ARC
8
0
10
27.860969
20
82.286111
40
3
50
78.2908011
51
154.9999983
0
ARC
8
0
10
-4.8982101
20
12.0338246
40
3
50
154.9999983
51
230.2231309
0
ARC
8
0
10
23.310163
20
-11.4492181
40
3
50
230.2231309
51
244.9683393
0
ARC
8
0
10
73.3379062
20
-41.4331765
40
3
50
42.0000007
51
64.9683393
0
ARC
8
0
10
87.5846002
20
-57.2557331
40
3
50
36.3073449
51
42.0000007
0
ARC
8
0
10
101.9562848
20
-66.6820152
40
3
50
216.3073449
51
304.9999997
0
ARC
8
0
10
126.0172639
20
-57.1589837
40
3
50
90
51
124.9999997
0
ARC
8
0
10
173.6854301
20
-57.1589837
40
3
50
55.0000003
51
90
0
ARC
8
0
10
197.7464092
20
-66.6820152
40
3
50
235.0000003
51
323.6926551
0
ARC
8
0
10
212.1180938
20
-57.2557331
40
3
50
137.9999993
51
143.6926551
0
ARC
8
0
10
226.3647878
20
-41.4331765
40
3
50
115.0316607
51
137.9999993
0
ARC
8
0
10
276.392531
20
-11.4492181
40
3
50
295.0316607
51
309.7768691
0
ARC
8
0
10
304.6009041
20
12.0338246
40
3
50
309.7768691
51
25.0000017
0
ARC
8
0
10
271.841725
20
82.286111
40
3
50
25.0000017
51
101.7091989
0
ARC
8
0
10
235.981517
20
74.8538146
40
3
50
101.7091989
51
107.5235943
0
ARC
8
0
10
217.9920036
20
69.1735975
40
3
50
107.5235943
51
115.0000017
0
ARC
8
0
10
195.6442837
20
58.7526846
40
3
50
115.0000017
51
122.4764089
0
ARC
8
0
10
165.6128123
20
39.6379084
40
3
50
122.4764089
51
205.0000017
0
ARC
8
0
10
165.1233693
20
26.4903125
40
3
50
270
51
25.0000017
0
ARC
8
0
10
134.5793247
20
26.4903125
40
3
50
154.9999983
51
270
0
ARC
8
0
10
134.0898817
20
39.6379084
40
3
50
334.9999983
51
57.5235911
0
ARC
8
0
10
104.0584103
20
58.7526846
40
3
50
57.5235911
51
64.9999983
0
ARC
8
0
10
81.7106904
20
69.1735975
40
3
50
64.9999983
51
72.4764057
0
ARC
8
0
10
63.721177
20
74.8538146
40
3
50
72.4764057
51
78.2908011
0
ENDSEC
0
EOF